<svg width="866" height="144" viewBox="0 0 866 144" fill="none" xmlns="http://www.w3.org/2000/svg">
<path d="M0 10C0 4.47715 4.47715 0 10 0H856C861.523 0 866 4.47715 866 10V134C866 139.523 861.523 144 856 144H9.99999C4.47714 144 0 139.523 0 134V10Z" fill="black" fill-opacity="0.3"/>
<path d="M81.1562 89.9531H78.625V84H62.75V89.9531H60.2188V81.5938H61.9844C63.5885 78.8958 64.9583 75.6146 66.0938 71.75C67.2396 67.8854 67.875 64.3542 68 61.1562H78.2656V81.5938H81.1562V89.9531ZM75.6094 81.5938V63.5469H70.4062C70.2188 66.0677 69.5885 69.099 68.5156 72.6406C67.4427 76.1719 66.1927 79.1562 64.7656 81.5938H75.6094ZM97.3906 84H94.7656V69.0938H89.625C89.3438 72.8021 88.9531 75.7448 88.4531 77.9219C87.9531 80.099 87.3021 81.6927 86.5 82.7031C85.7083 83.7135 84.6979 84.2188 83.4688 84.2188C82.9062 84.2188 82.4583 84.1562 82.125 84.0312V82.1094C82.3542 82.1719 82.6146 82.2031 82.9062 82.2031C84.1042 82.2031 85.0573 80.9375 85.7656 78.4062C86.474 75.875 87.0104 72.0312 87.375 66.875H97.3906V84ZM103.766 84H100.734L105.656 76.7656C104.333 76.474 103.318 75.9115 102.609 75.0781C101.911 74.2344 101.562 73.1771 101.562 71.9062C101.562 70.3438 102.089 69.1146 103.141 68.2188C104.193 67.3229 105.661 66.875 107.547 66.875H115.172V84H112.578V77.1562H108.25L103.766 84ZM104.094 71.9375C104.094 73.9167 105.531 74.9062 108.406 74.9062H112.578V69.125H107.875C105.354 69.125 104.094 70.0625 104.094 71.9375ZM131.594 84H129V66.875H143.375V84H140.75V69.125H131.594V84ZM156.109 84.3125C153.578 84.3125 151.578 83.5417 150.109 82C148.651 80.4583 147.922 78.3177 147.922 75.5781C147.922 72.8177 148.599 70.625 149.953 69C151.318 67.375 153.146 66.5625 155.438 66.5625C157.583 66.5625 159.281 67.2708 160.531 68.6875C161.781 70.0938 162.406 71.9531 162.406 74.2656V75.9062H150.609C150.661 77.9167 151.167 79.4427 152.125 80.4844C153.094 81.526 154.453 82.0469 156.203 82.0469C158.047 82.0469 159.87 81.6615 161.672 80.8906V83.2031C160.755 83.599 159.885 83.8802 159.062 84.0469C158.25 84.224 157.266 84.3125 156.109 84.3125ZM155.406 68.7344C154.031 68.7344 152.932 69.1823 152.109 70.0781C151.297 70.974 150.818 72.2135 150.672 73.7969H159.625C159.625 72.1615 159.26 70.9115 158.531 70.0469C157.802 69.1719 156.76 68.7344 155.406 68.7344ZM174.812 84.3125C173.698 84.3125 172.677 84.1094 171.75 83.7031C170.833 83.2865 170.062 82.651 169.438 81.7969H169.25C169.375 82.7969 169.438 83.7448 169.438 84.6406V91.6875H166.844V66.875H168.953L169.312 69.2188H169.438C170.104 68.2812 170.88 67.6042 171.766 67.1875C172.651 66.7708 173.667 66.5625 174.812 66.5625C177.083 66.5625 178.833 67.3385 180.062 68.8906C181.302 70.4427 181.922 72.6198 181.922 75.4219C181.922 78.2344 181.292 80.4219 180.031 81.9844C178.781 83.5365 177.042 84.3125 174.812 84.3125ZM174.438 68.7656C172.688 68.7656 171.422 69.25 170.641 70.2188C169.859 71.1875 169.458 72.7292 169.438 74.8438V75.4219C169.438 77.8281 169.839 79.5521 170.641 80.5938C171.443 81.625 172.729 82.1406 174.5 82.1406C175.979 82.1406 177.135 81.5417 177.969 80.3438C178.812 79.1458 179.234 77.4948 179.234 75.3906C179.234 73.2552 178.812 71.6198 177.969 70.4844C177.135 69.3385 175.958 68.7656 174.438 68.7656ZM193.703 84.3125C191.172 84.3125 189.172 83.5417 187.703 82C186.245 80.4583 185.516 78.3177 185.516 75.5781C185.516 72.8177 186.193 70.625 187.547 69C188.911 67.375 190.74 66.5625 193.031 66.5625C195.177 66.5625 196.875 67.2708 198.125 68.6875C199.375 70.0938 200 71.9531 200 74.2656V75.9062H188.203C188.255 77.9167 188.76 79.4427 189.719 80.4844C190.688 81.526 192.047 82.0469 193.797 82.0469C195.641 82.0469 197.464 81.6615 199.266 80.8906V83.2031C198.349 83.599 197.479 83.8802 196.656 84.0469C195.844 84.224 194.859 84.3125 193.703 84.3125ZM193 68.7344C191.625 68.7344 190.526 69.1823 189.703 70.0781C188.891 70.974 188.411 72.2135 188.266 73.7969H197.219C197.219 72.1615 196.854 70.9115 196.125 70.0469C195.396 69.1719 194.354 68.7344 193 68.7344ZM213.328 81.5L213.812 80.0469L214.484 78.2031L219.125 66.9062H222.422V84H220.125V69.8594L219.812 70.7656L218.906 73.1562L214.484 84H212.312L207.891 73.125C207.339 71.7292 206.958 70.6406 206.75 69.8594V84H204.438V66.9062H207.609L212.094 77.7656C212.542 78.9115 212.953 80.1562 213.328 81.5ZM235.203 84.3125C232.672 84.3125 230.672 83.5417 229.203 82C227.745 80.4583 227.016 78.3177 227.016 75.5781C227.016 72.8177 227.693 70.625 229.047 69C230.411 67.375 232.24 66.5625 234.531 66.5625C236.677 66.5625 238.375 67.2708 239.625 68.6875C240.875 70.0938 241.5 71.9531 241.5 74.2656V75.9062H229.703C229.755 77.9167 230.26 79.4427 231.219 80.4844C232.188 81.526 233.547 82.0469 235.297 82.0469C237.141 82.0469 238.964 81.6615 240.766 80.8906V83.2031C239.849 83.599 238.979 83.8802 238.156 84.0469C237.344 84.224 236.359 84.3125 235.203 84.3125ZM234.5 68.7344C233.125 68.7344 232.026 69.1823 231.203 70.0781C230.391 70.974 229.911 72.2135 229.766 73.7969H238.719C238.719 72.1615 238.354 70.9115 237.625 70.0469C236.896 69.1719 235.854 68.7344 234.5 68.7344ZM258.703 81.7656H266.297V66.9062H268.891V81.7656H271.344V89.8906H268.719V84H245.938V66.9062H248.531V81.7656H256.109V66.9062H258.703V81.7656ZM281.891 84.3125C279.359 84.3125 277.359 83.5417 275.891 82C274.432 80.4583 273.703 78.3177 273.703 75.5781C273.703 72.8177 274.38 70.625 275.734 69C277.099 67.375 278.927 66.5625 281.219 66.5625C283.365 66.5625 285.062 67.2708 286.312 68.6875C287.562 70.0938 288.188 71.9531 288.188 74.2656V75.9062H276.391C276.443 77.9167 276.948 79.4427 277.906 80.4844C278.875 81.526 280.234 82.0469 281.984 82.0469C283.828 82.0469 285.651 81.6615 287.453 80.8906V83.2031C286.536 83.599 285.667 83.8802 284.844 84.0469C284.031 84.224 283.047 84.3125 281.891 84.3125ZM281.188 68.7344C279.812 68.7344 278.714 69.1823 277.891 70.0781C277.078 70.974 276.599 72.2135 276.453 73.7969H285.406C285.406 72.1615 285.042 70.9115 284.312 70.0469C283.583 69.1719 282.542 68.7344 281.188 68.7344ZM295.219 66.875V74.0469H304.812V66.875H307.406V84H304.812V76.2812H295.219V84H292.625V66.875H295.219ZM315.344 66.875V77.7344L315.234 80.5781L315.188 81.4688L324.453 66.875H327.688V84H325.266V73.5312L325.312 71.4688L325.391 69.4375L316.141 84H312.906V66.875H315.344ZM334.047 84H331.016L335.938 76.7656C334.615 76.474 333.599 75.9115 332.891 75.0781C332.193 74.2344 331.844 73.1771 331.844 71.9062C331.844 70.3438 332.37 69.1146 333.422 68.2188C334.474 67.3229 335.943 66.875 337.828 66.875H345.453V84H342.859V77.1562H338.531L334.047 84ZM334.375 71.9375C334.375 73.9167 335.812 74.9062 338.688 74.9062H342.859V69.125H338.156C335.635 69.125 334.375 70.0625 334.375 71.9375ZM361.875 84H359.281V66.875H373.656V84H371.031V69.125H361.875V84ZM393.938 75.4219C393.938 78.2135 393.234 80.3958 391.828 81.9688C390.422 83.5312 388.479 84.3125 386 84.3125C384.469 84.3125 383.109 83.9531 381.922 83.2344C380.734 82.5156 379.818 81.4844 379.172 80.1406C378.526 78.7969 378.203 77.224 378.203 75.4219C378.203 72.6302 378.901 70.4583 380.297 68.9062C381.693 67.3438 383.63 66.5625 386.109 66.5625C388.505 66.5625 390.406 67.3594 391.812 68.9531C393.229 70.5469 393.938 72.7031 393.938 75.4219ZM380.891 75.4219C380.891 77.6094 381.328 79.276 382.203 80.4219C383.078 81.5677 384.365 82.1406 386.062 82.1406C387.76 82.1406 389.047 81.5729 389.922 80.4375C390.807 79.2917 391.25 77.6198 391.25 75.4219C391.25 73.2448 390.807 71.5938 389.922 70.4688C389.047 69.3333 387.75 68.7656 386.031 68.7656C384.333 68.7656 383.052 69.3229 382.188 70.4375C381.323 71.5521 380.891 73.2135 380.891 75.4219ZM419.578 81.7656H427.172V66.875H429.797V84H406.812V66.875H409.406V81.7656H416.984V66.875H419.578V81.7656ZM445.844 84L445.328 81.5625H445.203C444.349 82.6354 443.495 83.3646 442.641 83.75C441.797 84.125 440.74 84.3125 439.469 84.3125C437.771 84.3125 436.438 83.875 435.469 83C434.51 82.125 434.031 80.8802 434.031 79.2656C434.031 75.8073 436.797 73.9948 442.328 73.8281L445.234 73.7344V72.6719C445.234 71.3281 444.943 70.3385 444.359 69.7031C443.786 69.0573 442.865 68.7344 441.594 68.7344C440.167 68.7344 438.552 69.1719 436.75 70.0469L435.953 68.0625C436.797 67.6042 437.719 67.2448 438.719 66.9844C439.729 66.724 440.74 66.5938 441.75 66.5938C443.792 66.5938 445.302 67.0469 446.281 67.9531C447.271 68.8594 447.766 70.3125 447.766 72.3125V84H445.844ZM439.984 82.1719C441.599 82.1719 442.865 81.7292 443.781 80.8438C444.708 79.9583 445.172 78.7188 445.172 77.125V75.5781L442.578 75.6875C440.516 75.7604 439.026 76.0833 438.109 76.6562C437.203 77.2188 436.75 78.099 436.75 79.2969C436.75 80.2344 437.031 80.9479 437.594 81.4375C438.167 81.9271 438.964 82.1719 439.984 82.1719ZM463.438 69.0938H455.719V84H453.125V66.875H463.438V69.0938ZM477.375 84L476.859 81.5625H476.734C475.88 82.6354 475.026 83.3646 474.172 83.75C473.328 84.125 472.271 84.3125 471 84.3125C469.302 84.3125 467.969 83.875 467 83C466.042 82.125 465.562 80.8802 465.562 79.2656C465.562 75.8073 468.328 73.9948 473.859 73.8281L476.766 73.7344V72.6719C476.766 71.3281 476.474 70.3385 475.891 69.7031C475.318 69.0573 474.396 68.7344 473.125 68.7344C471.698 68.7344 470.083 69.1719 468.281 70.0469L467.484 68.0625C468.328 67.6042 469.25 67.2448 470.25 66.9844C471.26 66.724 472.271 66.5938 473.281 66.5938C475.323 66.5938 476.833 67.0469 477.812 67.9531C478.802 68.8594 479.297 70.3125 479.297 72.3125V84H477.375ZM471.516 82.1719C473.13 82.1719 474.396 81.7292 475.312 80.8438C476.24 79.9583 476.703 78.7188 476.703 77.125V75.5781L474.109 75.6875C472.047 75.7604 470.557 76.0833 469.641 76.6562C468.734 77.2188 468.281 78.099 468.281 79.2969C468.281 80.2344 468.562 80.9479 469.125 81.4375C469.698 81.9271 470.495 82.1719 471.516 82.1719ZM493.547 81.5L494.031 80.0469L494.703 78.2031L499.344 66.9062H502.641V84H500.344V69.8594L500.031 70.7656L499.125 73.1562L494.703 84H492.531L488.109 73.125C487.557 71.7292 487.177 70.6406 486.969 69.8594V84H484.656V66.9062H487.828L492.312 77.7656C492.76 78.9115 493.172 80.1562 493.547 81.5ZM510.906 80.2812L511.141 80.6406C510.87 81.6823 510.479 82.8906 509.969 84.2656C509.458 85.651 508.927 86.9375 508.375 88.125H506.422C506.703 87.0417 507.01 85.7031 507.344 84.1094C507.688 82.5156 507.927 81.2396 508.062 80.2812H510.906ZM526.938 66.875V74.0469H536.531V66.875H539.125V84H536.531V76.2812H526.938V84H524.344V66.875H526.938ZM555.156 84L554.641 81.5625H554.516C553.661 82.6354 552.807 83.3646 551.953 83.75C551.109 84.125 550.052 84.3125 548.781 84.3125C547.083 84.3125 545.75 83.875 544.781 83C543.823 82.125 543.344 80.8802 543.344 79.2656C543.344 75.8073 546.109 73.9948 551.641 73.8281L554.547 73.7344V72.6719C554.547 71.3281 554.255 70.3385 553.672 69.7031C553.099 69.0573 552.177 68.7344 550.906 68.7344C549.479 68.7344 547.865 69.1719 546.062 70.0469L545.266 68.0625C546.109 67.6042 547.031 67.2448 548.031 66.9844C549.042 66.724 550.052 66.5938 551.062 66.5938C553.104 66.5938 554.615 67.0469 555.594 67.9531C556.583 68.8594 557.078 70.3125 557.078 72.3125V84H555.156ZM549.297 82.1719C550.911 82.1719 552.177 81.7292 553.094 80.8438C554.021 79.9583 554.484 78.7188 554.484 77.125V75.5781L551.891 75.6875C549.828 75.7604 548.339 76.0833 547.422 76.6562C546.516 77.2188 546.062 78.099 546.062 79.2969C546.062 80.2344 546.344 80.9479 546.906 81.4375C547.479 81.9271 548.276 82.1719 549.297 82.1719ZM570.25 66.9062H572.641V75.2031L579.719 66.9062H582.562L575.406 75.2031L583.172 84H580.172L572.641 75.3281V84H570.25V75.3281L562.734 84H559.75L567.5 75.2031L560.359 66.9062H563.203L570.25 75.2031V66.9062ZM594.891 81.5L595.375 80.0469L596.047 78.2031L600.688 66.9062H603.984V84H601.688V69.8594L601.375 70.7656L600.469 73.1562L596.047 84H593.875L589.453 73.125C588.901 71.7292 588.521 70.6406 588.312 69.8594V84H586V66.9062H589.172L593.656 77.7656C594.104 78.9115 594.516 80.1562 594.891 81.5ZM611.969 66.875V77.7344L611.859 80.5781L611.812 81.4688L621.078 66.875H624.312V84H621.891V73.5312L621.938 71.4688L622.016 69.4375L612.766 84H609.531V66.875H611.969Z" fill="white"/>
<rect x="678.5" y="74.5" width="39" height="39" rx="6.5" fill="#6AB2F5" fill-opacity="0.2" stroke="#40A9FF"/>
<rect x="722.25" y="74.25" width="39.5" height="39.5" rx="6.75" stroke="#9F9F9F" stroke-width="0.5"/>
<rect x="722.25" y="30.25" width="39.5" height="39.5" rx="6.75" stroke="#9F9F9F" stroke-width="0.5"/>
<rect x="766.5" y="74.5" width="39" height="39" rx="6.5" fill="#6AB2F5" fill-opacity="0.2" stroke="#40A9FF"/>
<path d="M705 94H691" stroke="#40A9FF" stroke-linecap="round" stroke-linejoin="round"/>
<path d="M698 101L691 94L698 87" stroke="#40A9FF" stroke-linecap="round" stroke-linejoin="round"/>
<path d="M779 94H793" stroke="#40A9FF" stroke-linecap="round" stroke-linejoin="round"/>
<path d="M786 101L793 94L786 87" stroke="#40A9FF" stroke-linecap="round" stroke-linejoin="round"/>
<path d="M742 87V101" stroke="#9F9F9F" stroke-linecap="round" stroke-linejoin="round"/>
<path d="M735 94L742 101L749 94" stroke="#9F9F9F" stroke-linecap="round" stroke-linejoin="round"/>
<path d="M742 57V43" stroke="#9F9F9F" stroke-linecap="round" stroke-linejoin="round"/>
<path d="M749 50L742 43L735 50" stroke="#9F9F9F" stroke-linecap="round" stroke-linejoin="round"/>
</svg>
