<svg width="1920" height="760" viewBox="0 0 1920 760" fill="none" xmlns="http://www.w3.org/2000/svg">
<g clip-path="url(#clip0)">
<path d="M1871.63 0H48.3721C21.6569 0 0 21.6569 0 48.3721V710.698C0 737.413 21.6569 759.07 48.3721 759.07H1871.63C1898.34 759.07 1920 737.413 1920 710.698V48.3721C1920 21.6569 1898.34 0 1871.63 0Z" fill="#2F2F2F"/>
<path d="M752.159 54.1351H744.703V66.9768H740.494V35.2326H751.002C754.578 35.2326 757.324 36.0465 759.244 37.6744C761.175 39.3023 762.143 41.6715 762.143 44.7821C762.143 46.7587 761.607 48.4811 760.531 49.949C759.467 51.4173 757.986 52.5146 756.081 53.2413L763.538 66.7152V66.9768H759.047L752.159 54.1351ZM744.703 50.7122H751.132C753.212 50.7122 754.861 50.1745 756.081 49.0988C757.317 48.0231 757.934 46.5842 757.934 44.7821C757.934 42.8197 757.346 41.3154 756.17 40.269C755.006 39.2223 753.32 38.6917 751.11 38.6772H744.703V50.7122ZM777.186 67.4129C773.99 67.4129 771.389 66.3661 769.38 64.2731C767.374 62.1656 766.373 59.3533 766.373 55.8359V55.0943C766.373 52.7542 766.816 50.6687 767.702 48.8372C768.602 46.9913 769.852 45.5524 771.452 44.5202C773.067 43.4739 774.809 42.9507 776.684 42.9507C779.754 42.9507 782.135 43.9609 783.836 45.981C785.536 48.0015 786.388 50.8938 786.388 54.6586V56.3371H770.407C770.463 58.6627 771.14 60.5451 772.435 61.984C773.741 63.4084 775.4 64.1206 777.406 64.1206C778.831 64.1206 780.036 63.83 781.022 63.2484C782.012 62.6672 782.876 61.8969 783.62 60.9377L786.083 62.8562C784.107 65.894 781.142 67.4129 777.186 67.4129ZM776.684 46.2646C775.058 46.2646 773.692 46.8607 772.587 48.0525C771.482 49.2298 770.797 50.8867 770.537 53.0233H782.355V52.7181C782.239 50.6687 781.685 49.0843 780.695 47.965C779.709 46.8313 778.373 46.2646 776.684 46.2646ZM811.002 55.4434C811.002 59.0333 810.18 61.926 808.539 64.1206C806.898 66.3155 804.673 67.4129 801.867 67.4129C799.002 67.4129 796.751 66.5042 795.11 64.6876V76.0465H791.076V43.3868H794.76L794.957 46.003C796.598 43.968 798.879 42.9507 801.8 42.9507C804.636 42.9507 806.876 44.019 808.516 46.1555C810.172 48.2921 811.002 51.2644 811.002 55.0728V55.4434ZM806.969 54.9853C806.969 52.3256 806.403 50.2251 805.268 48.6847C804.133 47.1438 802.578 46.3736 800.602 46.3736C798.161 46.3736 796.33 47.4564 795.11 49.622V60.8938C796.316 63.0452 798.161 64.1206 800.647 64.1206C802.578 64.1206 804.111 63.3574 805.246 61.8315C806.396 60.2906 806.969 58.0086 806.969 54.9853ZM825.938 67.4129C822.738 67.4129 820.137 66.3661 818.131 64.2731C816.126 62.1656 815.121 59.3533 815.121 55.8359V55.0943C815.121 52.7542 815.568 50.6687 816.453 48.8372C817.354 46.9913 818.604 45.5524 820.204 44.5202C821.815 43.4739 823.56 42.9507 825.436 42.9507C828.502 42.9507 830.887 43.9609 832.587 45.981C834.288 48.0015 835.136 50.8938 835.136 54.6586V56.3371H819.155C819.214 58.6627 819.891 60.5451 821.182 61.984C822.492 63.4084 824.148 64.1206 826.154 64.1206C827.579 64.1206 828.784 63.83 829.774 63.2484C830.764 62.6672 831.627 61.8969 832.368 60.9377L834.831 62.8562C832.855 65.894 829.889 67.4129 825.938 67.4129ZM825.436 46.2646C823.806 46.2646 822.44 46.8607 821.335 48.0525C820.234 49.2298 819.549 50.8867 819.289 53.0233H831.102V52.7181C830.987 50.6687 830.436 49.0843 829.447 47.965C828.457 46.8313 827.121 46.2646 825.436 46.2646ZM854.388 66.9768C854.157 66.5116 853.968 65.683 853.822 64.4912C851.947 66.4391 849.707 67.4129 847.106 67.4129C844.781 67.4129 842.868 66.7587 841.372 65.4504C839.891 64.128 839.147 62.4566 839.147 60.4361C839.147 57.9795 840.077 56.0755 841.938 54.7237C843.813 53.3574 846.444 52.6742 849.834 52.6742H853.756V50.8212C853.756 49.4114 853.335 48.2921 852.49 47.4638C851.649 46.6207 850.407 46.1991 848.762 46.1991C847.326 46.1991 846.12 46.5626 845.145 47.2893C844.17 48.016 843.683 48.8953 843.683 49.9275H839.627C839.627 48.7501 840.044 47.6164 840.87 46.5261C841.715 45.4214 842.849 44.5496 844.271 43.91C845.711 43.2703 847.289 42.9507 849.004 42.9507C851.72 42.9507 853.852 43.6339 855.393 45.0002C856.933 46.3516 857.733 48.2195 857.789 50.6032V61.4608C857.789 63.6264 858.064 65.3488 858.619 66.6277V66.9768H854.388ZM847.694 63.9025C848.959 63.9025 850.157 63.5755 851.292 62.9217C852.427 62.2675 853.25 61.4173 853.756 60.3706V55.5304H850.596C845.655 55.5304 843.181 56.9768 843.181 59.869C843.181 61.1338 843.605 62.1221 844.446 62.8342C845.29 63.5464 846.373 63.9025 847.694 63.9025ZM869.584 37.6744V43.3868H873.99V46.5042H869.584V61.1338C869.584 62.0785 869.782 62.7907 870.172 63.2703C870.567 63.7355 871.236 63.968 872.178 63.968C872.643 63.968 873.283 63.8809 874.098 63.7064V66.9768C873.037 67.2674 872.007 67.4129 871.002 67.4129C869.201 67.4129 867.839 66.8677 866.924 65.7775C866.009 64.6876 865.551 63.1397 865.551 61.1338V46.5042H861.257V43.3868H865.551V37.6744H869.584ZM899.78 52.8272C896.193 51.795 893.573 50.5306 891.932 49.0333C890.306 47.5219 889.491 45.6614 889.491 43.4519C889.491 40.9522 890.485 38.8882 892.479 37.2603C894.485 35.6178 897.086 34.7965 900.282 34.7965C902.463 34.7965 904.405 35.218 906.105 36.0611C907.821 36.9041 909.142 38.067 910.072 39.5494C911.017 41.0318 911.489 42.6527 911.489 44.4112H907.281C907.281 42.4927 906.671 40.9883 905.45 39.8984C904.23 38.7937 902.507 38.2411 900.282 38.2411C898.217 38.2411 896.606 38.6992 895.441 39.6149C894.295 40.5161 893.722 41.7734 893.722 43.3868C893.722 44.6802 894.265 45.7775 895.356 46.6787C896.461 47.5654 898.329 48.3795 900.959 49.1208C903.605 49.862 905.666 50.6832 907.151 51.5844C908.647 52.4711 909.752 53.5103 910.466 54.7021C911.192 55.894 911.553 57.2964 911.553 58.9098C911.553 61.4824 910.552 63.5464 908.546 65.1018C906.541 66.6426 903.858 67.4129 900.502 67.4129C898.321 67.4129 896.286 66.9987 894.396 66.1701C892.505 65.3269 891.047 64.1786 890.012 62.7252C888.996 61.2718 888.487 59.622 888.487 57.776H892.695C892.695 59.6949 893.402 61.2138 894.809 62.333C896.234 63.4374 898.131 63.99 900.502 63.99C902.712 63.99 904.405 63.5394 905.581 62.6381C906.756 61.7369 907.348 60.5087 907.348 58.9537C907.348 57.3983 906.801 56.1991 905.711 55.3563C904.621 54.4986 902.645 53.6555 899.78 52.8272ZM926.098 67.4129C922.898 67.4129 920.297 66.3661 918.291 64.2731C916.286 62.1656 915.281 59.3533 915.281 55.8359V55.0943C915.281 52.7542 915.728 50.6687 916.613 48.8372C917.514 46.9913 918.764 45.5524 920.364 44.5202C921.975 43.4739 923.72 42.9507 925.596 42.9507C928.662 42.9507 931.047 43.9609 932.747 45.981C934.448 48.0015 935.296 50.8938 935.296 54.6586V56.3371H919.315C919.374 58.6627 920.051 60.5451 921.342 61.984C922.652 63.4084 924.308 64.1206 926.314 64.1206C927.739 64.1206 928.944 63.83 929.934 63.2484C930.924 62.6672 931.787 61.8969 932.528 60.9377L934.991 62.8562C933.015 65.894 930.05 67.4129 926.098 67.4129ZM925.596 46.2646C923.966 46.2646 922.6 46.8607 921.495 48.0525C920.39 49.2298 919.709 50.8867 919.449 53.0233H931.262V52.7181C931.147 50.6687 930.596 49.0843 929.607 47.965C928.617 46.8313 927.281 46.2646 925.596 46.2646ZM943.798 43.3868L943.932 46.3516C945.733 44.0845 948.089 42.9507 950.995 42.9507C955.981 42.9507 958.496 45.763 958.537 51.3879V66.9768H954.503V51.3663C954.492 49.6659 954.098 48.4086 953.328 47.5944C952.572 46.7807 951.389 46.3736 949.774 46.3736C948.464 46.3736 947.318 46.7222 946.329 47.4199C945.343 48.1176 944.572 49.0333 944.018 50.1671V66.9768H939.984V43.3868H943.798ZM970.094 37.6744V43.3868H974.496V46.5042H970.094V61.1338C970.094 62.0785 970.291 62.7907 970.682 63.2703C971.076 63.7355 971.743 63.968 972.688 63.968C973.153 63.968 973.793 63.8809 974.608 63.7064V66.9768C973.547 67.2674 972.513 67.4129 971.512 67.4129C969.707 67.4129 968.349 66.8677 967.434 65.7775C966.518 64.6876 966.061 63.1397 966.061 61.1338V46.5042H961.767V43.3868H966.061V37.6744H970.094ZM989.019 67.4129C985.819 67.4129 983.218 66.3661 981.212 64.2731C979.207 62.1656 978.206 59.3533 978.206 55.8359V55.0943C978.206 52.7542 978.649 50.6687 979.534 48.8372C980.435 46.9913 981.685 45.5524 983.285 44.5202C984.896 43.4739 986.641 42.9507 988.516 42.9507C991.582 42.9507 993.968 43.9609 995.668 45.981C997.369 48.0015 998.217 50.8938 998.217 54.6586V56.3371H982.239C982.295 58.6627 982.972 60.5451 984.263 61.984C985.573 63.4084 987.229 64.1206 989.235 64.1206C990.66 64.1206 991.865 63.83 992.855 63.2484C993.845 62.6672 994.708 61.8969 995.449 60.9377L997.912 62.8562C995.936 65.894 992.97 67.4129 989.019 67.4129ZM988.516 46.2646C986.89 46.2646 985.521 46.8607 984.416 48.0525C983.315 49.2298 982.63 50.8867 982.369 53.0233H994.187V52.7181C994.068 50.6687 993.517 49.0843 992.528 47.965C991.542 46.8313 990.202 46.2646 988.516 46.2646ZM1006.72 43.3868L1006.85 46.3516C1008.65 44.0845 1011.01 42.9507 1013.92 42.9507C1018.9 42.9507 1021.42 45.763 1021.46 51.3879V66.9768H1017.43V51.3663C1017.41 49.6659 1017.02 48.4086 1016.25 47.5944C1015.49 46.7807 1014.31 46.3736 1012.69 46.3736C1011.39 46.3736 1010.24 46.7222 1009.25 47.4199C1008.26 48.1176 1007.49 49.0333 1006.94 50.1671V66.9768H1002.91V43.3868H1006.72ZM1037 64.1206C1038.44 64.1206 1039.7 63.6845 1040.78 62.8127C1041.85 61.9405 1042.45 60.8502 1042.56 59.5423H1046.38C1046.31 60.8938 1045.84 62.1801 1044.99 63.4013C1044.13 64.6222 1042.98 65.5959 1041.54 66.3226C1040.11 67.0493 1038.6 67.4129 1037 67.4129C1033.79 67.4129 1031.24 66.3446 1029.33 64.208C1027.44 62.0566 1026.5 59.1208 1026.5 55.3998V54.7237C1026.5 52.4272 1026.92 50.3851 1027.76 48.5972C1028.61 46.8097 1029.81 45.4214 1031.38 44.4331C1032.96 43.4448 1034.83 42.9507 1036.98 42.9507C1039.63 42.9507 1041.82 43.7429 1043.57 45.3269C1045.33 46.9113 1046.27 48.9682 1046.38 51.4969H1042.56C1042.45 49.971 1041.87 48.7211 1040.82 47.747C1039.79 46.7587 1038.51 46.2646 1036.98 46.2646C1034.94 46.2646 1033.34 47.0058 1032.21 48.4882C1031.09 49.9565 1030.53 52.0856 1030.53 54.8763V55.6395C1030.53 58.3576 1031.09 60.4506 1032.21 61.9185C1033.33 63.3868 1034.93 64.1206 1037 64.1206ZM1060.7 67.4129C1057.51 67.4129 1054.91 66.3661 1052.9 64.2731C1050.89 62.1656 1049.89 59.3533 1049.89 55.8359V55.0943C1049.89 52.7542 1050.33 50.6687 1051.22 48.8372C1052.12 46.9913 1053.37 45.5524 1054.97 44.5202C1056.58 43.4739 1058.33 42.9507 1060.2 42.9507C1063.27 42.9507 1065.65 43.9609 1067.36 45.981C1069.06 48.0015 1069.9 50.8938 1069.9 54.6586V56.3371H1053.92C1053.98 58.6627 1054.66 60.5451 1055.95 61.984C1057.26 63.4084 1058.92 64.1206 1060.92 64.1206C1062.35 64.1206 1063.55 63.83 1064.54 63.2484C1065.53 62.6672 1066.4 61.8969 1067.14 60.9377L1069.6 62.8562C1067.62 65.894 1064.66 67.4129 1060.7 67.4129ZM1060.2 46.2646C1058.57 46.2646 1057.21 46.8607 1056.1 48.0525C1055 49.2298 1054.32 50.8867 1054.05 53.0233H1065.87V52.7181C1065.76 50.6687 1065.2 49.0843 1064.22 47.965C1063.23 46.8313 1061.89 46.2646 1060.2 46.2646Z" fill="white"/>
<path d="M238.14 115.349H171.163C158.833 115.349 148.837 125.344 148.837 137.674V204.651C148.837 216.981 158.833 226.977 171.163 226.977H238.14C250.47 226.977 260.465 216.981 260.465 204.651V137.674C260.465 125.344 250.47 115.349 238.14 115.349Z" fill="#4C4C4C"/>
<path d="M359.07 115.349H292.093C279.763 115.349 269.768 125.344 269.768 137.674V204.651C269.768 216.981 279.763 226.977 292.093 226.977H359.07C371.4 226.977 381.395 216.981 381.395 204.651V137.674C381.395 125.344 371.4 115.349 359.07 115.349Z" fill="#4C4C4C"/>
<path d="M600.93 115.349H533.954C521.623 115.349 511.628 125.344 511.628 137.674V204.651C511.628 216.981 521.623 226.977 533.954 226.977H600.93C613.26 226.977 623.256 216.981 623.256 204.651V137.674C623.256 125.344 613.26 115.349 600.93 115.349Z" fill="#696969"/>
<path d="M480 115.349H413.023C400.693 115.349 390.698 125.344 390.698 137.674V204.651C390.698 216.981 400.693 226.977 413.023 226.977H480C492.33 226.977 502.326 216.981 502.326 204.651V137.674C502.326 125.344 492.33 115.349 480 115.349Z" fill="#4C4C4C"/>
<path d="M721.86 115.349H654.884C642.554 115.349 632.558 125.344 632.558 137.674V204.651C632.558 216.981 642.554 226.977 654.884 226.977H721.86C734.19 226.977 744.186 216.981 744.186 204.651V137.674C744.186 125.344 734.19 115.349 721.86 115.349Z" fill="#4C4C4C"/>
<path d="M842.791 115.349H775.814C763.484 115.349 753.488 125.344 753.488 137.674V204.651C753.488 216.981 763.484 226.977 775.814 226.977H842.791C855.121 226.977 865.116 216.981 865.116 204.651V137.674C865.116 125.344 855.121 115.349 842.791 115.349Z" fill="#4C4C4C"/>
<path d="M963.721 115.349H896.744C884.414 115.349 874.418 125.344 874.418 137.674V204.651C874.418 216.981 884.414 226.977 896.744 226.977H963.721C976.051 226.977 986.046 216.981 986.046 204.651V137.674C986.046 125.344 976.051 115.349 963.721 115.349Z" fill="#4C4C4C"/>
<path d="M1084.65 115.349H1017.67C1005.34 115.349 995.349 125.344 995.349 137.674V204.651C995.349 216.981 1005.34 226.977 1017.67 226.977H1084.65C1096.98 226.977 1106.98 216.981 1106.98 204.651V137.674C1106.98 125.344 1096.98 115.349 1084.65 115.349Z" fill="#4C4C4C"/>
<path d="M1205.58 115.349H1138.6C1126.27 115.349 1116.28 125.344 1116.28 137.674V204.651C1116.28 216.981 1126.27 226.977 1138.6 226.977H1205.58C1217.91 226.977 1227.91 216.981 1227.91 204.651V137.674C1227.91 125.344 1217.91 115.349 1205.58 115.349Z" fill="#4C4C4C"/>
<path d="M1447.44 115.349H1380.47C1368.14 115.349 1358.14 125.344 1358.14 137.674V204.651C1358.14 216.981 1368.14 226.977 1380.47 226.977H1447.44C1459.77 226.977 1469.77 216.981 1469.77 204.651V137.674C1469.77 125.344 1459.77 115.349 1447.44 115.349Z" fill="#4C4C4C"/>
<path d="M1326.51 115.349H1259.54C1247.2 115.349 1237.21 125.344 1237.21 137.674V204.651C1237.21 216.981 1247.2 226.977 1259.54 226.977H1326.51C1338.84 226.977 1348.84 216.981 1348.84 204.651V137.674C1348.84 125.344 1338.84 115.349 1326.51 115.349Z" fill="#40A9FF"/>
<path d="M1800.93 360.93H1733.95C1721.62 360.93 1711.63 370.926 1711.63 383.256V450.232C1711.63 462.563 1721.62 472.558 1733.95 472.558H1800.93C1813.26 472.558 1823.26 462.563 1823.26 450.232V383.256C1823.26 370.926 1813.26 360.93 1800.93 360.93Z" fill="#40A9FF"/>
<path d="M240 360.93H173.023C160.693 360.93 150.698 370.926 150.698 383.256V450.232C150.698 462.563 160.693 472.558 173.023 472.558H240C252.33 472.558 262.326 462.563 262.326 450.232V383.256C262.326 370.926 252.33 360.93 240 360.93Z" fill="#4C4C4C"/>
<path d="M360.93 360.93H293.954C281.623 360.93 271.628 370.926 271.628 383.256V450.232C271.628 462.563 281.623 472.558 293.954 472.558H360.93C373.26 472.558 383.256 462.563 383.256 450.232V383.256C383.256 370.926 373.26 360.93 360.93 360.93Z" fill="#4C4C4C"/>
<path d="M481.86 360.93H414.884C402.554 360.93 392.558 370.926 392.558 383.256V450.232C392.558 462.563 402.554 472.558 414.884 472.558H481.86C494.191 472.558 504.186 462.563 504.186 450.232V383.256C504.186 370.926 494.191 360.93 481.86 360.93Z" fill="#4C4C4C"/>
<path d="M602.791 360.93H535.814C523.484 360.93 513.488 370.926 513.488 383.256V450.232C513.488 462.563 523.484 472.558 535.814 472.558H602.791C615.121 472.558 625.116 462.563 625.116 450.232V383.256C625.116 370.926 615.121 360.93 602.791 360.93Z" fill="#4C4C4C"/>
<path d="M723.721 360.93H656.744C644.414 360.93 634.418 370.926 634.418 383.256V450.232C634.418 462.563 644.414 472.558 656.744 472.558H723.721C736.051 472.558 746.046 462.563 746.046 450.232V383.256C746.046 370.926 736.051 360.93 723.721 360.93Z" fill="#4C4C4C"/>
<path d="M844.651 360.93H777.674C765.344 360.93 755.349 370.926 755.349 383.256V450.232C755.349 462.563 765.344 472.558 777.674 472.558H844.651C856.981 472.558 866.977 462.563 866.977 450.232V383.256C866.977 370.926 856.981 360.93 844.651 360.93Z" fill="#4C4C4C"/>
<path d="M965.582 360.93H898.605C886.275 360.93 876.279 370.926 876.279 383.256V450.232C876.279 462.563 886.275 472.558 898.605 472.558H965.582C977.912 472.558 987.907 462.563 987.907 450.232V383.256C987.907 370.926 977.912 360.93 965.582 360.93Z" fill="#40A9FF"/>
<path d="M1086.51 360.93H1019.54C1007.2 360.93 997.209 370.926 997.209 383.256V450.232C997.209 462.563 1007.2 472.558 1019.54 472.558H1086.51C1098.84 472.558 1108.84 462.563 1108.84 450.232V383.256C1108.84 370.926 1098.84 360.93 1086.51 360.93Z" fill="#4C4C4C"/>
<path d="M1207.44 360.93H1140.47C1128.14 360.93 1118.14 370.926 1118.14 383.256V450.232C1118.14 462.563 1128.14 472.558 1140.47 472.558H1207.44C1219.77 472.558 1229.77 462.563 1229.77 450.232V383.256C1229.77 370.926 1219.77 360.93 1207.44 360.93Z" fill="#4C4C4C"/>
<path d="M1328.37 360.93H1261.4C1249.07 360.93 1239.07 370.926 1239.07 383.256V450.232C1239.07 462.563 1249.07 472.558 1261.4 472.558H1328.37C1340.7 472.558 1350.7 462.563 1350.7 450.232V383.256C1350.7 370.926 1340.7 360.93 1328.37 360.93Z" fill="#4C4C4C"/>
<path d="M1559.07 360.93H1492.09C1479.76 360.93 1469.77 370.926 1469.77 383.256V450.232C1469.77 462.563 1479.76 472.558 1492.09 472.558H1559.07C1571.4 472.558 1581.4 462.563 1581.4 450.232V383.256C1581.4 370.926 1571.4 360.93 1559.07 360.93Z" fill="#40A9FF"/>
<path d="M1680 360.93H1613.02C1600.69 360.93 1590.7 370.926 1590.7 383.256V450.232C1590.7 462.563 1600.69 472.558 1613.02 472.558H1680C1692.33 472.558 1702.33 462.563 1702.33 450.232V383.256C1702.33 370.926 1692.33 360.93 1680 360.93Z" fill="#696969"/>
<path d="M182.326 238.14H115.349C103.019 238.14 93.0234 248.135 93.0234 260.465V327.442C93.0234 339.772 103.019 349.767 115.349 349.767H182.326C194.656 349.767 204.651 339.772 204.651 327.442V260.465C204.651 248.135 194.656 238.14 182.326 238.14Z" fill="#4C4C4C"/>
<path d="M303.256 238.14H236.279C223.949 238.14 213.954 248.135 213.954 260.465V327.442C213.954 339.772 223.949 349.767 236.279 349.767H303.256C315.586 349.767 325.582 339.772 325.582 327.442V260.465C325.582 248.135 315.586 238.14 303.256 238.14Z" fill="#696969"/>
<path d="M424.186 238.14H357.209C344.879 238.14 334.884 248.135 334.884 260.465V327.442C334.884 339.772 344.879 349.767 357.209 349.767H424.186C436.516 349.767 446.512 339.772 446.512 327.442V260.465C446.512 248.135 436.516 238.14 424.186 238.14Z" fill="#4C4C4C"/>
<path d="M545.116 238.14H478.14C465.809 238.14 455.814 248.135 455.814 260.465V327.442C455.814 339.772 465.809 349.767 478.14 349.767H545.116C557.446 349.767 567.442 339.772 567.442 327.442V260.465C567.442 248.135 557.446 238.14 545.116 238.14Z" fill="#4C4C4C"/>
<path d="M666.046 238.14H599.07C586.74 238.14 576.744 248.135 576.744 260.465V327.442C576.744 339.772 586.74 349.767 599.07 349.767H666.046C678.377 349.767 688.372 339.772 688.372 327.442V260.465C688.372 248.135 678.377 238.14 666.046 238.14Z" fill="#4C4C4C"/>
<path d="M786.977 238.14H720C707.67 238.14 697.674 248.135 697.674 260.465V327.442C697.674 339.772 707.67 349.767 720 349.767H786.977C799.307 349.767 809.302 339.772 809.302 327.442V260.465C809.302 248.135 799.307 238.14 786.977 238.14Z" fill="#4C4C4C"/>
<path d="M907.907 238.14H840.93C828.6 238.14 818.604 248.135 818.604 260.465V327.442C818.604 339.772 828.6 349.767 840.93 349.767H907.907C920.237 349.767 930.232 339.772 930.232 327.442V260.465C930.232 248.135 920.237 238.14 907.907 238.14Z" fill="#4C4C4C"/>
<path d="M1028.84 238.14H961.86C949.53 238.14 939.535 248.135 939.535 260.465V327.442C939.535 339.772 949.53 349.767 961.86 349.767H1028.84C1041.17 349.767 1051.16 339.772 1051.16 327.442V260.465C1051.16 248.135 1041.17 238.14 1028.84 238.14Z" fill="#4C4C4C"/>
<path d="M1149.77 238.14H1082.79C1070.46 238.14 1060.47 248.135 1060.47 260.465V327.442C1060.47 339.772 1070.46 349.767 1082.79 349.767H1149.77C1162.1 349.767 1172.09 339.772 1172.09 327.442V260.465C1172.09 248.135 1162.1 238.14 1149.77 238.14Z" fill="#4C4C4C"/>
<path d="M1270.7 238.14H1203.72C1191.39 238.14 1181.4 248.135 1181.4 260.465V327.442C1181.4 339.772 1191.39 349.767 1203.72 349.767H1270.7C1283.03 349.767 1293.02 339.772 1293.02 327.442V260.465C1293.02 248.135 1283.03 238.14 1270.7 238.14Z" fill="#4C4C4C"/>
<path d="M1391.63 238.14H1324.65C1312.32 238.14 1302.33 248.135 1302.33 260.465V327.442C1302.33 339.772 1312.32 349.767 1324.65 349.767H1391.63C1403.96 349.767 1413.95 339.772 1413.95 327.442V260.465C1413.95 248.135 1403.96 238.14 1391.63 238.14Z" fill="#4C4C4C"/>
<path d="M1680 238.14H1613.02C1600.69 238.14 1590.7 248.135 1590.7 260.465V327.442C1590.7 339.772 1600.69 349.767 1613.02 349.767H1680C1692.33 349.767 1702.33 339.772 1702.33 327.442V260.465C1702.33 248.135 1692.33 238.14 1680 238.14Z" fill="#696969"/>
<path d="M554.623 150.589H567.229C573.99 150.589 578.061 154.332 578.061 160.618C578.061 167.049 574.243 170.647 567.52 170.647H554.623V150.589ZM554.623 176.461H567.52L578.749 197.209H586.418L574.281 175.443C580.855 173.372 584.818 167.703 584.818 160.4C584.818 150.952 578.206 144.775 568.104 144.775H548.082V197.209H554.623V176.461Z" fill="#B9B9B9"/>
<path d="M1275.52 148.496V200.93H1282.06V182.217H1295.26C1305.1 182.217 1312.12 175.276 1312.12 165.465C1312.12 155.472 1305.25 148.496 1295.33 148.496H1275.52ZM1282.06 154.31H1293.62C1301.21 154.31 1305.39 158.271 1305.39 165.465C1305.39 172.406 1301.07 176.403 1293.62 176.403H1282.06V154.31Z" fill="white"/>
<path d="M917.339 442.791V402.128H917.919L946.373 442.791H952.732V390.355H946.266V431.163H945.681L917.231 390.355H910.872V442.791H917.339Z" fill="white"/>
<path d="M249.76 306.301C250.451 315.349 258.118 321.235 269.237 321.235C281.229 321.235 288.823 315.094 288.823 305.465C288.823 297.762 284.462 293.546 273.598 290.821L268.111 289.368C260.88 287.514 258.009 285.153 258.009 281.046C258.009 275.741 262.624 272.253 269.601 272.253C276.141 272.253 280.574 275.45 281.483 280.829H288.06C287.515 272.362 279.957 266.33 269.819 266.33C258.736 266.33 251.287 272.362 251.287 281.264C251.287 288.714 255.393 293.001 264.877 295.4L271.599 297.144C278.83 298.961 282.101 301.795 282.101 306.265C282.101 311.461 276.904 315.276 269.855 315.276C262.406 315.276 257.173 311.788 256.374 306.301H249.76Z" fill="#B9B9B9"/>
<path d="M1743.56 418.605H1791.32" stroke="white" stroke-width="5" stroke-linecap="round" stroke-linejoin="round"/>
<path d="M1767.44 442.482L1791.32 418.605L1767.44 394.727" stroke="white" stroke-width="5" stroke-linecap="round" stroke-linejoin="round"/>
<path d="M1549.46 418.605H1501.7" stroke="white" stroke-width="5" stroke-linecap="round" stroke-linejoin="round"/>
<path d="M1525.58 442.482L1501.7 418.605L1525.58 394.727" stroke="white" stroke-width="5" stroke-linecap="round" stroke-linejoin="round"/>
<path d="M1646.51 394.727V442.482" stroke="#B9B9B9" stroke-width="5" stroke-linecap="round" stroke-linejoin="round"/>
<path d="M1670.39 418.605L1646.51 442.482L1622.63 418.605" stroke="#B9B9B9" stroke-width="5" stroke-linecap="round" stroke-linejoin="round"/>
<path d="M1646.51 317.83V270.077" stroke="#B9B9B9" stroke-width="5" stroke-linecap="round" stroke-linejoin="round"/>
<path d="M1622.63 293.954L1646.51 270.077L1670.39 293.954" stroke="#B9B9B9" stroke-width="5" stroke-linecap="round" stroke-linejoin="round"/>
<path d="M1338.69 553.153V565.581H1334.5V533.838H1346.21C1349.69 533.838 1352.41 534.724 1354.37 536.499C1356.35 538.27 1357.33 540.618 1357.33 543.539C1357.33 546.62 1356.36 548.997 1354.43 550.668C1352.51 552.327 1349.76 553.153 1346.17 553.153H1338.69ZM1338.69 549.73H1346.21C1348.45 549.73 1350.17 549.209 1351.36 548.16C1352.55 547.099 1353.15 545.574 1353.15 543.583C1353.15 541.693 1352.55 540.182 1351.36 539.047C1350.17 537.913 1348.53 537.325 1346.45 537.284H1338.69V549.73ZM1373.44 545.611C1372.83 545.507 1372.17 545.459 1371.46 545.459C1368.81 545.459 1367.02 546.586 1366.08 548.837V565.581H1362.04V541.991H1365.97L1366.03 544.718C1367.36 542.608 1369.23 541.555 1371.66 541.555C1372.44 541.555 1373.04 541.656 1373.44 541.86V545.611ZM1386.53 566.017C1383.33 566.017 1380.73 564.971 1378.72 562.876C1376.71 560.77 1375.71 557.957 1375.71 554.441V553.7C1375.71 551.36 1376.16 549.273 1377.04 547.442C1377.94 545.596 1379.19 544.156 1380.79 543.126C1382.4 542.08 1384.15 541.555 1386.02 541.555C1389.09 541.555 1391.47 542.564 1393.18 544.584C1394.88 546.605 1395.73 549.499 1395.73 553.261V554.943H1379.75C1379.8 557.269 1380.48 559.148 1381.77 560.588C1383.08 562.013 1384.74 562.724 1386.75 562.724C1388.17 562.724 1389.38 562.433 1390.36 561.853C1391.35 561.273 1392.22 560.502 1392.96 559.542L1395.42 561.462C1393.44 564.499 1390.48 566.017 1386.53 566.017ZM1386.02 544.871C1384.4 544.871 1383.03 545.466 1381.93 546.657C1380.82 547.833 1380.14 549.492 1379.88 551.628H1391.69V551.323C1391.58 549.273 1391.02 547.687 1390.03 546.571C1389.05 545.436 1387.71 544.871 1386.02 544.871ZM1407.89 560.108L1413.73 541.991H1417.86L1409.39 565.581H1406.32L1397.77 541.991H1401.9L1407.89 560.108ZM1426.12 565.581H1422.09V541.991H1426.12V565.581ZM1421.76 535.736C1421.76 535.081 1421.95 534.526 1422.35 534.076C1422.75 533.626 1423.35 533.403 1424.13 533.403C1424.92 533.403 1425.51 533.626 1425.92 534.076C1426.33 534.526 1426.53 535.081 1426.53 535.736C1426.53 536.387 1426.33 536.934 1425.92 537.369C1425.51 537.805 1424.92 538.024 1424.13 538.024C1423.35 538.024 1422.75 537.805 1422.35 537.369C1421.95 536.934 1421.76 536.387 1421.76 535.736ZM1431.53 553.566C1431.53 551.256 1431.98 549.179 1432.88 547.334C1433.79 545.488 1435.06 544.063 1436.67 543.059C1438.3 542.058 1440.15 541.555 1442.23 541.555C1445.44 541.555 1448.04 542.668 1450.01 544.889C1452.01 547.114 1453 550.073 1453 553.764V554.046C1453 556.346 1452.56 558.407 1451.67 560.238C1450.8 562.058 1449.54 563.475 1447.9 564.491C1446.27 565.507 1444.4 566.017 1442.27 566.017C1439.08 566.017 1436.48 564.904 1434.49 562.683C1432.51 560.458 1431.53 557.514 1431.53 553.853V553.566ZM1435.58 554.046C1435.58 556.666 1436.19 558.765 1437.39 560.35C1438.61 561.935 1440.24 562.724 1442.27 562.724C1444.32 562.724 1445.95 561.927 1447.16 560.327C1448.36 558.713 1448.97 556.461 1448.97 553.566C1448.97 550.98 1448.35 548.889 1447.11 547.289C1445.89 545.674 1444.26 544.871 1442.23 544.871C1440.24 544.871 1438.63 545.66 1437.41 547.245C1436.19 548.83 1435.58 551.096 1435.58 554.046ZM1472.62 563.248C1471.05 565.094 1468.75 566.017 1465.71 566.017C1463.2 566.017 1461.28 565.291 1459.95 563.836C1458.65 562.37 1457.99 560.205 1457.97 557.34V541.991H1462.01V557.232C1462.01 560.807 1463.46 562.593 1466.37 562.593C1469.45 562.593 1471.5 561.447 1472.51 559.148V541.991H1476.55V565.581H1472.71L1472.62 563.248ZM1496.43 559.323C1496.43 558.232 1496.02 557.392 1495.19 556.796C1494.37 556.186 1492.94 555.661 1490.89 555.226C1488.86 554.791 1487.24 554.266 1486.03 553.656C1484.84 553.046 1483.95 552.32 1483.37 551.475C1482.81 550.631 1482.52 549.63 1482.52 548.465C1482.52 546.534 1483.33 544.897 1484.96 543.561C1486.6 542.225 1488.7 541.555 1491.24 541.555C1493.92 541.555 1496.08 542.247 1497.74 543.628C1499.41 545.008 1500.25 546.772 1500.25 548.923H1496.19C1496.19 547.821 1495.72 546.869 1494.78 546.069C1493.85 545.269 1492.67 544.871 1491.24 544.871C1489.77 544.871 1488.62 545.191 1487.8 545.827C1486.97 546.467 1486.56 547.304 1486.56 548.335C1486.56 549.31 1486.94 550.043 1487.71 550.538C1488.48 551.033 1489.87 551.505 1491.87 551.955C1493.89 552.406 1495.53 552.945 1496.78 553.566C1498.03 554.192 1498.95 554.951 1499.55 555.836C1500.16 556.707 1500.46 557.775 1500.46 559.04C1500.46 561.15 1499.62 562.843 1497.93 564.119C1496.25 565.384 1494.06 566.017 1491.37 566.017C1489.48 566.017 1487.81 565.682 1486.36 565.016C1484.9 564.346 1483.77 563.416 1482.94 562.225C1482.12 561.016 1481.71 559.717 1481.71 558.322H1485.75C1485.82 559.673 1486.36 560.748 1487.36 561.548C1488.38 562.333 1489.71 562.724 1491.37 562.724C1492.9 562.724 1494.12 562.419 1495.04 561.808C1495.97 561.183 1496.43 560.357 1496.43 559.323ZM1342.86 603.524C1339.27 602.493 1336.65 601.228 1335.01 599.732C1333.38 598.218 1332.57 596.357 1332.57 594.151C1332.57 591.65 1333.56 589.585 1335.55 587.959C1337.56 586.314 1340.16 585.496 1343.36 585.496C1345.54 585.496 1347.48 585.916 1349.18 586.757C1350.89 587.602 1352.22 588.763 1353.15 590.247C1354.09 591.728 1354.56 593.351 1354.56 595.111H1350.35C1350.35 593.191 1349.74 591.687 1348.52 590.597C1347.3 589.492 1345.58 588.938 1343.36 588.938C1341.29 588.938 1339.68 589.395 1338.52 590.311C1337.37 591.215 1336.8 592.473 1336.8 594.084C1336.8 595.379 1337.34 596.476 1338.43 597.377C1339.53 598.262 1341.4 599.077 1344.03 599.818C1346.68 600.558 1348.74 601.38 1350.22 602.281C1351.72 603.17 1352.83 604.208 1353.54 605.399C1354.27 606.59 1354.63 607.993 1354.63 609.607C1354.63 612.179 1353.63 614.244 1351.62 615.799C1349.61 617.34 1346.93 618.11 1343.58 618.11C1341.39 618.11 1339.36 617.697 1337.47 616.867C1335.58 616.026 1334.12 614.876 1333.09 613.421C1332.07 611.97 1331.56 610.318 1331.56 608.472H1335.77C1335.77 610.392 1336.48 611.911 1337.89 613.031C1339.31 614.136 1341.21 614.686 1343.58 614.686C1345.79 614.686 1347.48 614.236 1348.65 613.336C1349.83 612.435 1350.42 611.207 1350.42 609.652C1350.42 608.097 1349.87 606.899 1348.78 606.054C1347.69 605.194 1345.72 604.353 1342.86 603.524ZM1373.95 615.341C1372.38 617.187 1370.07 618.11 1367.04 618.11C1364.52 618.11 1362.6 617.384 1361.28 615.929C1359.97 614.463 1359.31 612.298 1359.3 609.433V594.084H1363.33V609.325C1363.33 612.9 1364.78 614.686 1367.69 614.686C1370.77 614.686 1372.82 613.54 1373.84 611.241V594.084H1377.87V617.674H1374.03L1373.95 615.341ZM1403.99 606.139C1403.99 609.745 1403.16 612.644 1401.5 614.839C1399.85 617.02 1397.62 618.11 1394.83 618.11C1391.85 618.11 1389.55 617.057 1387.92 614.951L1387.72 617.674H1384.02V584.186H1388.05V596.677C1389.68 594.657 1391.93 593.648 1394.79 593.648C1397.65 593.648 1399.9 594.731 1401.53 596.897C1403.17 599.062 1403.99 602.028 1403.99 605.793V606.139ZM1399.95 605.682C1399.95 602.936 1399.43 600.815 1398.37 599.315C1397.3 597.819 1395.78 597.072 1393.79 597.072C1391.13 597.072 1389.22 598.307 1388.05 600.778V610.98C1389.29 613.451 1391.21 614.686 1393.83 614.686C1395.76 614.686 1397.27 613.939 1398.34 612.443C1399.42 610.943 1399.95 608.692 1399.95 605.682ZM1414.56 588.372V594.084H1418.97V597.202H1414.56V611.832C1414.56 612.778 1414.76 613.488 1415.15 613.968C1415.55 614.433 1416.21 614.664 1417.16 614.664C1417.62 614.664 1418.26 614.579 1419.08 614.404V617.674C1418.02 617.965 1416.98 618.11 1415.98 618.11C1414.18 618.11 1412.82 617.566 1411.9 616.476C1410.99 615.386 1410.53 613.838 1410.53 611.832V597.202H1406.24V594.084H1410.53V588.372H1414.56ZM1428.08 617.674H1424.05V594.084H1428.08V617.674ZM1423.72 587.829C1423.72 587.174 1423.92 586.62 1424.31 586.169C1424.72 585.719 1425.31 585.496 1426.1 585.496C1426.88 585.496 1427.48 585.719 1427.88 586.169C1428.29 586.62 1428.49 587.174 1428.49 587.829C1428.49 588.48 1428.29 589.027 1427.88 589.462C1427.48 589.898 1426.88 590.117 1426.1 590.117C1425.31 590.117 1424.72 589.898 1424.31 589.462C1423.92 589.027 1423.72 588.48 1423.72 587.829ZM1440.03 588.372V594.084H1444.43V597.202H1440.03V611.832C1440.03 612.778 1440.23 613.488 1440.62 613.968C1441.01 614.433 1441.68 614.664 1442.62 614.664C1443.09 614.664 1443.73 614.579 1444.54 614.404V617.674C1443.48 617.965 1442.45 618.11 1441.45 618.11C1439.64 618.11 1438.28 617.566 1437.37 616.476C1436.45 615.386 1436 613.838 1436 611.832V597.202H1431.7V594.084H1436V588.372H1440.03ZM1453.55 617.674H1449.51V584.186H1453.55V617.674ZM1469.81 618.11C1466.61 618.11 1464.01 617.064 1462.01 614.969C1460 612.863 1458.99 610.05 1458.99 606.534V605.793C1458.99 603.453 1459.44 601.366 1460.33 599.535C1461.23 597.689 1462.48 596.249 1464.08 595.219C1465.69 594.173 1467.43 593.648 1469.31 593.648C1472.38 593.648 1474.76 594.657 1476.46 596.677C1478.16 598.698 1479.01 601.592 1479.01 605.354V607.036H1463.03C1463.09 609.362 1463.77 611.241 1465.06 612.681C1466.37 614.106 1468.02 614.817 1470.03 614.817C1471.45 614.817 1472.66 614.526 1473.65 613.946C1474.64 613.366 1475.5 612.595 1476.24 611.635L1478.7 613.555C1476.73 616.592 1473.76 618.11 1469.81 618.11ZM1469.31 596.964C1467.68 596.964 1466.31 597.559 1465.21 598.75C1464.11 599.926 1463.42 601.585 1463.16 603.721H1474.98V603.416C1474.86 601.366 1474.31 599.78 1473.32 598.664C1472.33 597.529 1470.99 596.964 1469.31 596.964ZM1497.44 611.416C1497.44 610.326 1497.02 609.485 1496.19 608.889C1495.38 608.279 1493.95 607.754 1491.9 607.319C1489.86 606.884 1488.24 606.359 1487.04 605.749C1485.84 605.139 1484.96 604.413 1484.38 603.568C1483.81 602.724 1483.52 601.723 1483.52 600.558C1483.52 598.627 1484.34 596.99 1485.97 595.654C1487.61 594.318 1489.7 593.648 1492.25 593.648C1494.92 593.648 1497.09 594.34 1498.74 595.721C1500.41 597.101 1501.25 598.865 1501.25 601.016H1497.19C1497.19 599.914 1496.72 598.962 1495.78 598.162C1494.85 597.362 1493.67 596.964 1492.25 596.964C1490.78 596.964 1489.63 597.284 1488.8 597.92C1487.97 598.56 1487.56 599.397 1487.56 600.428C1487.56 601.403 1487.94 602.136 1488.71 602.631C1489.48 603.126 1490.87 603.598 1492.88 604.048C1494.9 604.499 1496.53 605.038 1497.78 605.659C1499.03 606.285 1499.95 607.044 1500.55 607.929C1501.16 608.8 1501.47 609.868 1501.47 611.133C1501.47 613.243 1500.62 614.936 1498.94 616.212C1497.25 617.477 1495.07 618.11 1492.38 618.11C1490.49 618.11 1488.81 617.775 1487.36 617.109C1485.91 616.439 1484.77 615.509 1483.94 614.318C1483.13 613.109 1482.72 611.81 1482.72 610.415H1486.75C1486.82 611.766 1487.36 612.841 1488.36 613.641C1489.38 614.426 1490.72 614.817 1492.38 614.817C1493.9 614.817 1495.12 614.512 1496.04 613.901C1496.97 613.276 1497.44 612.45 1497.44 611.416Z" fill="white"/>
<path d="M1266.23 697.674H1262.02L1246.04 673.213V697.674H1241.83V665.931H1246.04L1262.07 690.5V665.931H1266.23V697.674ZM1282.82 698.11C1279.62 698.11 1277.02 697.064 1275.01 694.969C1273.01 692.863 1272.01 690.05 1272.01 686.534V685.794C1272.01 683.453 1272.45 681.366 1273.34 679.535C1274.24 677.689 1275.49 676.249 1277.09 675.219C1278.7 674.173 1280.44 673.648 1282.32 673.648C1285.38 673.648 1287.77 674.657 1289.47 676.677C1291.17 678.698 1292.02 681.593 1292.02 685.354V687.036H1276.04C1276.1 689.362 1276.77 691.241 1278.07 692.681C1279.38 694.106 1281.03 694.817 1283.04 694.817C1284.46 694.817 1285.67 694.527 1286.66 693.946C1287.65 693.366 1288.51 692.595 1289.25 691.635L1291.71 693.555C1289.74 696.592 1286.77 698.11 1282.82 698.11ZM1282.32 676.964C1280.69 676.964 1279.32 677.559 1278.22 678.75C1277.12 679.926 1276.43 681.585 1276.17 683.721H1287.99V683.416C1287.87 681.366 1287.32 679.78 1286.33 678.664C1285.34 677.529 1284 676.964 1282.32 676.964ZM1304.62 682.698L1309.85 674.084H1314.56L1306.85 685.749L1314.81 697.674H1310.14L1304.69 688.845L1299.24 697.674H1294.55L1302.51 685.749L1294.79 674.084H1299.46L1304.62 682.698ZM1324.33 668.372V674.084H1328.74V677.202H1324.33V691.833C1324.33 692.778 1324.53 693.488 1324.92 693.968C1325.31 694.433 1325.98 694.664 1326.93 694.664C1327.39 694.664 1328.03 694.579 1328.85 694.404V697.674C1327.78 697.965 1326.75 698.11 1325.75 698.11C1323.95 698.11 1322.59 697.567 1321.67 696.476C1320.76 695.386 1320.3 693.838 1320.3 691.833V677.202H1316V674.084H1320.3V668.372H1324.33ZM1354.53 683.524C1350.94 682.493 1348.32 681.228 1346.68 679.732C1345.05 678.218 1344.24 676.357 1344.24 674.151C1344.24 671.65 1345.23 669.585 1347.22 667.959C1349.23 666.314 1351.83 665.496 1355.03 665.496C1357.21 665.496 1359.15 665.916 1360.85 666.757C1362.56 667.602 1363.89 668.763 1364.82 670.247C1365.76 671.728 1366.24 673.351 1366.24 675.111H1362.03C1362.03 673.191 1361.42 671.687 1360.2 670.597C1358.98 669.492 1357.25 668.938 1355.03 668.938C1352.96 668.938 1351.35 669.395 1350.19 670.311C1349.04 671.215 1348.47 672.473 1348.47 674.084C1348.47 675.379 1349.01 676.476 1350.1 677.377C1351.21 678.262 1353.08 679.077 1355.71 679.818C1358.35 680.558 1360.41 681.38 1361.9 682.281C1363.39 683.17 1364.5 684.208 1365.21 685.399C1365.94 686.59 1366.3 687.993 1366.3 689.607C1366.3 692.179 1365.3 694.244 1363.29 695.799C1361.29 697.34 1358.61 698.11 1355.25 698.11C1353.07 698.11 1351.03 697.697 1349.14 696.867C1347.25 696.026 1345.79 694.876 1344.76 693.421C1343.74 691.97 1343.23 690.318 1343.23 688.473H1347.44C1347.44 690.393 1348.15 691.911 1349.56 693.031C1350.98 694.136 1352.88 694.687 1355.25 694.687C1357.46 694.687 1359.15 694.236 1360.33 693.336C1361.5 692.435 1362.09 691.207 1362.09 689.652C1362.09 688.097 1361.55 686.899 1360.46 686.054C1359.37 685.194 1357.39 684.354 1354.53 683.524ZM1385.62 695.341C1384.05 697.187 1381.75 698.11 1378.71 698.11C1376.19 698.11 1374.27 697.384 1372.95 695.929C1371.64 694.463 1370.98 692.298 1370.97 689.433V674.084H1375V689.325C1375 692.9 1376.45 694.687 1379.36 694.687C1382.44 694.687 1384.49 693.54 1385.51 691.241V674.084H1389.54V697.674H1385.7L1385.62 695.341ZM1415.66 686.14C1415.66 689.745 1414.83 692.644 1413.18 694.839C1411.52 697.02 1409.3 698.11 1406.5 698.11C1403.52 698.11 1401.22 697.057 1399.59 694.951L1399.4 697.674H1395.69V664.186H1399.73V676.677C1401.35 674.657 1403.6 673.648 1406.46 673.648C1409.33 673.648 1411.57 674.731 1413.2 676.897C1414.84 679.062 1415.66 682.028 1415.66 685.794V686.14ZM1411.63 685.682C1411.63 682.936 1411.1 680.815 1410.04 679.315C1408.98 677.82 1407.45 677.072 1405.46 677.072C1402.8 677.072 1400.89 678.307 1399.73 680.778V690.98C1400.96 693.451 1402.88 694.687 1405.5 694.687C1407.43 694.687 1408.94 693.939 1410.01 692.443C1411.09 690.943 1411.63 688.692 1411.63 685.682ZM1426.24 668.372V674.084H1430.64V677.202H1426.24V691.833C1426.24 692.778 1426.43 693.488 1426.82 693.968C1427.22 694.433 1427.89 694.664 1428.83 694.664C1429.3 694.664 1429.94 694.579 1430.75 694.404V697.674C1429.69 697.965 1428.66 698.11 1427.65 698.11C1425.85 698.11 1424.49 697.567 1423.58 696.476C1422.66 695.386 1422.2 693.838 1422.2 691.833V677.202H1417.91V674.084H1422.2V668.372H1426.24ZM1439.75 697.674H1435.72V674.084H1439.75V697.674ZM1435.39 667.829C1435.39 667.174 1435.59 666.62 1435.98 666.169C1436.39 665.719 1436.98 665.496 1437.77 665.496C1438.55 665.496 1439.15 665.719 1439.56 666.169C1439.96 666.62 1440.17 667.174 1440.17 667.829C1440.17 668.48 1439.96 669.027 1439.56 669.462C1439.15 669.898 1438.55 670.117 1437.77 670.117C1436.98 670.117 1436.39 669.898 1435.98 669.462C1435.59 669.027 1435.39 668.48 1435.39 667.829ZM1451.7 668.372V674.084H1456.1V677.202H1451.7V691.833C1451.7 692.778 1451.9 693.488 1452.29 693.968C1452.68 694.433 1453.35 694.664 1454.3 694.664C1454.76 694.664 1455.4 694.579 1456.21 694.404V697.674C1455.15 697.965 1454.12 698.11 1453.12 698.11C1451.32 698.11 1449.96 697.567 1449.04 696.476C1448.13 695.386 1447.67 693.838 1447.67 691.833V677.202H1443.37V674.084H1447.67V668.372H1451.7ZM1465.22 697.674H1461.18V664.186H1465.22V697.674ZM1481.48 698.11C1478.29 698.11 1475.68 697.064 1473.68 694.969C1471.67 692.863 1470.67 690.05 1470.67 686.534V685.794C1470.67 683.453 1471.11 681.366 1472 679.535C1472.9 677.689 1474.15 676.249 1475.75 675.219C1477.36 674.173 1479.11 673.648 1480.98 673.648C1484.05 673.648 1486.43 674.657 1488.13 676.677C1489.83 678.698 1490.68 681.593 1490.68 685.354V687.036H1474.7C1474.76 689.362 1475.43 691.241 1476.73 692.681C1478.04 694.106 1479.7 694.817 1481.7 694.817C1483.13 694.817 1484.33 694.527 1485.32 693.946C1486.31 693.366 1487.17 692.595 1487.91 691.635L1490.38 693.555C1488.4 696.592 1485.44 698.11 1481.48 698.11ZM1480.98 676.964C1479.35 676.964 1477.99 677.559 1476.88 678.75C1475.78 679.926 1475.1 681.585 1474.83 683.721H1486.65V683.416C1486.53 681.366 1485.98 679.78 1484.99 678.664C1484 677.529 1482.67 676.964 1480.98 676.964ZM1509.11 691.416C1509.11 690.326 1508.69 689.485 1507.86 688.889C1507.05 688.279 1505.62 687.754 1503.57 687.319C1501.53 686.884 1499.91 686.359 1498.71 685.749C1497.51 685.139 1496.63 684.413 1496.05 683.568C1495.48 682.724 1495.2 681.723 1495.2 680.558C1495.2 678.627 1496.01 676.99 1497.64 675.654C1499.28 674.318 1501.37 673.648 1503.92 673.648C1506.59 673.648 1508.76 674.34 1510.42 675.721C1512.09 677.101 1512.92 678.865 1512.92 681.016H1508.87C1508.87 679.914 1508.4 678.962 1507.45 678.162C1506.52 677.362 1505.34 676.964 1503.92 676.964C1502.45 676.964 1501.3 677.284 1500.47 677.92C1499.64 678.56 1499.23 679.397 1499.23 680.428C1499.23 681.403 1499.61 682.136 1500.39 682.631C1501.16 683.126 1502.55 683.598 1504.55 684.048C1506.57 684.499 1508.21 685.038 1509.46 685.66C1510.71 686.285 1511.63 687.044 1512.22 687.929C1512.83 688.8 1513.14 689.868 1513.14 691.133C1513.14 693.243 1512.3 694.936 1510.61 696.212C1508.92 697.477 1506.74 698.11 1504.05 698.11C1502.16 698.11 1500.49 697.775 1499.03 697.109C1497.58 696.439 1496.44 695.509 1495.61 694.318C1494.8 693.109 1494.39 691.81 1494.39 690.415H1498.42C1498.5 691.766 1499.03 692.841 1500.04 693.641C1501.05 694.426 1502.39 694.817 1504.05 694.817C1505.57 694.817 1506.79 694.512 1507.71 693.901C1508.64 693.276 1509.11 692.45 1509.11 691.416Z" fill="white"/>
<path d="M933.954 470.698V686.512H1214.88M1767.44 470.698V686.512H1534.88M1293.02 223.256V580.465H1322.79M1525.58 470.698V580.465H1499.54" stroke="#40A9FF" stroke-width="5"/>
</g>
<defs>
<clipPath id="clip0">
<rect width="1920" height="759.07" fill="white"/>
</clipPath>
</defs>
</svg>
