<svg width="1920" height="760" viewBox="0 0 1920 760" fill="none" xmlns="http://www.w3.org/2000/svg">
<g clip-path="url(#clip0)">
<path d="M0 48.3721C0 21.6569 21.6569 0 48.3721 0H1871.63C1898.34 0 1920 21.6569 1920 48.3721V710.698C1920 737.414 1898.34 759.07 1871.63 759.07H48.3721C21.6569 759.07 0 737.414 0 710.698V48.3721Z" fill="#2F2F2F"/>
<path d="M238.14 115.349H171.163C158.833 115.349 148.837 125.344 148.837 137.674V204.651C148.837 216.981 158.833 226.977 171.163 226.977H238.14C250.47 226.977 260.465 216.981 260.465 204.651V137.674C260.465 125.344 250.47 115.349 238.14 115.349Z" fill="#4C4C4C"/>
<path d="M359.07 115.349H292.093C279.763 115.349 269.768 125.344 269.768 137.674V204.651C269.768 216.981 279.763 226.977 292.093 226.977H359.07C371.4 226.977 381.395 216.981 381.395 204.651V137.674C381.395 125.344 371.4 115.349 359.07 115.349Z" fill="#4C4C4C"/>
<path d="M600.93 115.349H533.954C521.623 115.349 511.628 125.344 511.628 137.674V204.651C511.628 216.981 521.623 226.977 533.954 226.977H600.93C613.26 226.977 623.256 216.981 623.256 204.651V137.674C623.256 125.344 613.26 115.349 600.93 115.349Z" fill="#696969"/>
<path d="M480 115.349H413.023C400.693 115.349 390.698 125.344 390.698 137.674V204.651C390.698 216.981 400.693 226.977 413.023 226.977H480C492.33 226.977 502.326 216.981 502.326 204.651V137.674C502.326 125.344 492.33 115.349 480 115.349Z" fill="#4C4C4C"/>
<path d="M721.86 115.349H654.884C642.554 115.349 632.558 125.344 632.558 137.674V204.651C632.558 216.981 642.554 226.977 654.884 226.977H721.86C734.19 226.977 744.186 216.981 744.186 204.651V137.674C744.186 125.344 734.19 115.349 721.86 115.349Z" fill="#4C4C4C"/>
<path d="M842.791 115.349H775.814C763.484 115.349 753.488 125.344 753.488 137.674V204.651C753.488 216.981 763.484 226.977 775.814 226.977H842.791C855.121 226.977 865.116 216.981 865.116 204.651V137.674C865.116 125.344 855.121 115.349 842.791 115.349Z" fill="#4C4C4C"/>
<path d="M963.721 115.349H896.744C884.414 115.349 874.418 125.344 874.418 137.674V204.651C874.418 216.981 884.414 226.977 896.744 226.977H963.721C976.051 226.977 986.046 216.981 986.046 204.651V137.674C986.046 125.344 976.051 115.349 963.721 115.349Z" fill="#4C4C4C"/>
<path d="M1084.65 115.349H1017.67C1005.34 115.349 995.349 125.344 995.349 137.674V204.651C995.349 216.981 1005.34 226.977 1017.67 226.977H1084.65C1096.98 226.977 1106.98 216.981 1106.98 204.651V137.674C1106.98 125.344 1096.98 115.349 1084.65 115.349Z" fill="#4C4C4C"/>
<path d="M1205.58 115.349H1138.6C1126.27 115.349 1116.28 125.344 1116.28 137.674V204.651C1116.28 216.981 1126.27 226.977 1138.6 226.977H1205.58C1217.91 226.977 1227.91 216.981 1227.91 204.651V137.674C1227.91 125.344 1217.91 115.349 1205.58 115.349Z" fill="#4C4C4C"/>
<path d="M1447.44 115.349H1380.47C1368.14 115.349 1358.14 125.344 1358.14 137.674V204.651C1358.14 216.981 1368.14 226.977 1380.47 226.977H1447.44C1459.77 226.977 1469.77 216.981 1469.77 204.651V137.674C1469.77 125.344 1459.77 115.349 1447.44 115.349Z" fill="#4C4C4C"/>
<path d="M1326.51 115.349H1259.54C1247.2 115.349 1237.21 125.344 1237.21 137.674V204.651C1237.21 216.981 1247.2 226.977 1259.54 226.977H1326.51C1338.84 226.977 1348.84 216.981 1348.84 204.651V137.674C1348.84 125.344 1338.84 115.349 1326.51 115.349Z" fill="#696969"/>
<path d="M1800.93 360.93H1733.95C1721.62 360.93 1711.63 370.926 1711.63 383.256V450.233C1711.63 462.563 1721.62 472.558 1733.95 472.558H1800.93C1813.26 472.558 1823.26 462.563 1823.26 450.233V383.256C1823.26 370.926 1813.26 360.93 1800.93 360.93Z" fill="#696969"/>
<path d="M240 360.93H173.023C160.693 360.93 150.698 370.926 150.698 383.256V450.233C150.698 462.563 160.693 472.558 173.023 472.558H240C252.33 472.558 262.326 462.563 262.326 450.233V383.256C262.326 370.926 252.33 360.93 240 360.93Z" fill="#4C4C4C"/>
<path d="M360.93 360.93H293.954C281.623 360.93 271.628 370.926 271.628 383.256V450.233C271.628 462.563 281.623 472.558 293.954 472.558H360.93C373.26 472.558 383.256 462.563 383.256 450.233V383.256C383.256 370.926 373.26 360.93 360.93 360.93Z" fill="#4C4C4C"/>
<path d="M481.86 360.93H414.884C402.554 360.93 392.558 370.926 392.558 383.256V450.233C392.558 462.563 402.554 472.558 414.884 472.558H481.86C494.191 472.558 504.186 462.563 504.186 450.233V383.256C504.186 370.926 494.191 360.93 481.86 360.93Z" fill="#4C4C4C"/>
<path d="M602.791 360.93H535.814C523.484 360.93 513.488 370.926 513.488 383.256V450.233C513.488 462.563 523.484 472.558 535.814 472.558H602.791C615.121 472.558 625.116 462.563 625.116 450.233V383.256C625.116 370.926 615.121 360.93 602.791 360.93Z" fill="#4C4C4C"/>
<path d="M723.721 360.93H656.744C644.414 360.93 634.418 370.926 634.418 383.256V450.233C634.418 462.563 644.414 472.558 656.744 472.558H723.721C736.051 472.558 746.046 462.563 746.046 450.233V383.256C746.046 370.926 736.051 360.93 723.721 360.93Z" fill="#4C4C4C"/>
<path d="M844.651 360.93H777.674C765.344 360.93 755.349 370.926 755.349 383.256V450.233C755.349 462.563 765.344 472.558 777.674 472.558H844.651C856.981 472.558 866.977 462.563 866.977 450.233V383.256C866.977 370.926 856.981 360.93 844.651 360.93Z" fill="#4C4C4C"/>
<path d="M965.582 360.93H898.605C886.275 360.93 876.279 370.926 876.279 383.256V450.233C876.279 462.563 886.275 472.558 898.605 472.558H965.582C977.912 472.558 987.907 462.563 987.907 450.233V383.256C987.907 370.926 977.912 360.93 965.582 360.93Z" fill="#696969"/>
<path d="M1086.51 360.93H1019.54C1007.2 360.93 997.209 370.926 997.209 383.256V450.233C997.209 462.563 1007.2 472.558 1019.54 472.558H1086.51C1098.84 472.558 1108.84 462.563 1108.84 450.233V383.256C1108.84 370.926 1098.84 360.93 1086.51 360.93Z" fill="#4C4C4C"/>
<path d="M1207.44 360.93H1140.47C1128.14 360.93 1118.14 370.926 1118.14 383.256V450.233C1118.14 462.563 1128.14 472.558 1140.47 472.558H1207.44C1219.77 472.558 1229.77 462.563 1229.77 450.233V383.256C1229.77 370.926 1219.77 360.93 1207.44 360.93Z" fill="#4C4C4C"/>
<path d="M1328.37 360.93H1261.4C1249.07 360.93 1239.07 370.926 1239.07 383.256V450.233C1239.07 462.563 1249.07 472.558 1261.4 472.558H1328.37C1340.7 472.558 1350.7 462.563 1350.7 450.233V383.256C1350.7 370.926 1340.7 360.93 1328.37 360.93Z" fill="#4C4C4C"/>
<path d="M1559.07 360.93H1492.09C1479.76 360.93 1469.77 370.926 1469.77 383.256V450.233C1469.77 462.563 1479.76 472.558 1492.09 472.558H1559.07C1571.4 472.558 1581.4 462.563 1581.4 450.233V383.256C1581.4 370.926 1571.4 360.93 1559.07 360.93Z" fill="#696969"/>
<path d="M1680 360.93H1613.02C1600.69 360.93 1590.7 370.926 1590.7 383.256V450.233C1590.7 462.563 1600.69 472.558 1613.02 472.558H1680C1692.33 472.558 1702.33 462.563 1702.33 450.233V383.256C1702.33 370.926 1692.33 360.93 1680 360.93Z" fill="#4C4C4C"/>
<path d="M182.326 238.14H115.349C103.019 238.14 93.0234 248.135 93.0234 260.465V327.442C93.0234 339.772 103.019 349.767 115.349 349.767H182.326C194.656 349.767 204.651 339.772 204.651 327.442V260.465C204.651 248.135 194.656 238.14 182.326 238.14Z" fill="#4C4C4C"/>
<path d="M303.256 238.14H236.279C223.949 238.14 213.954 248.135 213.954 260.465V327.442C213.954 339.772 223.949 349.767 236.279 349.767H303.256C315.586 349.767 325.582 339.772 325.582 327.442V260.465C325.582 248.135 315.586 238.14 303.256 238.14Z" fill="#40A9FF"/>
<path d="M424.186 238.14H357.209C344.879 238.14 334.884 248.135 334.884 260.465V327.442C334.884 339.772 344.879 349.767 357.209 349.767H424.186C436.516 349.767 446.512 339.772 446.512 327.442V260.465C446.512 248.135 436.516 238.14 424.186 238.14Z" fill="#4C4C4C"/>
<path d="M545.116 238.14H478.14C465.809 238.14 455.814 248.135 455.814 260.465V327.442C455.814 339.772 465.809 349.767 478.14 349.767H545.116C557.446 349.767 567.442 339.772 567.442 327.442V260.465C567.442 248.135 557.446 238.14 545.116 238.14Z" fill="#4C4C4C"/>
<path d="M666.046 238.14H599.07C586.74 238.14 576.744 248.135 576.744 260.465V327.442C576.744 339.772 586.74 349.767 599.07 349.767H666.046C678.377 349.767 688.372 339.772 688.372 327.442V260.465C688.372 248.135 678.377 238.14 666.046 238.14Z" fill="#4C4C4C"/>
<path d="M786.977 238.14H720C707.67 238.14 697.674 248.135 697.674 260.465V327.442C697.674 339.772 707.67 349.767 720 349.767H786.977C799.307 349.767 809.302 339.772 809.302 327.442V260.465C809.302 248.135 799.307 238.14 786.977 238.14Z" fill="#4C4C4C"/>
<path d="M907.907 238.14H840.93C828.6 238.14 818.604 248.135 818.604 260.465V327.442C818.604 339.772 828.6 349.767 840.93 349.767H907.907C920.237 349.767 930.232 339.772 930.232 327.442V260.465C930.232 248.135 920.237 238.14 907.907 238.14Z" fill="#4C4C4C"/>
<path d="M1028.84 238.14H961.86C949.53 238.14 939.535 248.135 939.535 260.465V327.442C939.535 339.772 949.53 349.767 961.86 349.767H1028.84C1041.17 349.767 1051.16 339.772 1051.16 327.442V260.465C1051.16 248.135 1041.17 238.14 1028.84 238.14Z" fill="#4C4C4C"/>
<path d="M1149.77 238.14H1082.79C1070.46 238.14 1060.47 248.135 1060.47 260.465V327.442C1060.47 339.772 1070.46 349.767 1082.79 349.767H1149.77C1162.1 349.767 1172.09 339.772 1172.09 327.442V260.465C1172.09 248.135 1162.1 238.14 1149.77 238.14Z" fill="#4C4C4C"/>
<path d="M1270.7 238.14H1203.72C1191.39 238.14 1181.4 248.135 1181.4 260.465V327.442C1181.4 339.772 1191.39 349.767 1203.72 349.767H1270.7C1283.03 349.767 1293.02 339.772 1293.02 327.442V260.465C1293.02 248.135 1283.03 238.14 1270.7 238.14Z" fill="#4C4C4C"/>
<path d="M1391.63 238.14H1324.65C1312.32 238.14 1302.33 248.135 1302.33 260.465V327.442C1302.33 339.772 1312.32 349.767 1324.65 349.767H1391.63C1403.96 349.767 1413.95 339.772 1413.95 327.442V260.465C1413.95 248.135 1403.96 238.14 1391.63 238.14Z" fill="#4C4C4C"/>
<path d="M1680 238.14H1613.02C1600.69 238.14 1590.7 248.135 1590.7 260.465V327.442C1590.7 339.772 1600.69 349.767 1613.02 349.767H1680C1692.33 349.767 1702.33 339.772 1702.33 327.442V260.465C1702.33 248.135 1692.33 238.14 1680 238.14Z" fill="#40A9FF"/>
<path d="M267.907 346.047L264.137 632.558" stroke="#40A9FF" stroke-width="5"/>
<path d="M759.07 632.558H260.465" stroke="#40A9FF" stroke-width="5"/>
<path d="M1720.52 297.674H1849.3V632.558H1335.81" stroke="#40A9FF" stroke-width="5"/>
<path d="M554.623 150.589H567.229C573.99 150.589 578.061 154.332 578.061 160.618C578.061 167.049 574.243 170.647 567.52 170.647H554.623V150.589ZM554.623 176.461H567.52L578.749 197.209H586.418L574.281 175.443C580.855 173.372 584.818 167.703 584.818 160.4C584.818 150.952 578.206 144.775 568.104 144.775H548.082V197.209H554.623V176.461Z" fill="#B9B9B9"/>
<path d="M1275.52 148.496V200.93H1282.06V182.217H1295.26C1305.1 182.217 1312.12 175.276 1312.12 165.465C1312.12 155.472 1305.25 148.496 1295.33 148.496H1275.52ZM1282.06 154.31H1293.62C1301.21 154.31 1305.39 158.271 1305.39 165.465C1305.39 172.406 1301.07 176.403 1293.62 176.403H1282.06V154.31Z" fill="#B9B9B9"/>
<path d="M917.339 442.791V402.128H917.919L946.373 442.791H952.732V390.355H946.266V431.163H945.681L917.231 390.355H910.872V442.791H917.339Z" fill="#B9B9B9"/>
<path d="M249.76 306.301C250.451 315.349 258.118 321.235 269.237 321.235C281.229 321.235 288.823 315.094 288.823 305.465C288.823 297.761 284.462 293.546 273.598 290.821L268.111 289.368C260.88 287.514 258.009 285.153 258.009 281.046C258.009 275.741 262.624 272.253 269.601 272.253C276.141 272.253 280.574 275.45 281.483 280.829H288.06C287.515 272.362 279.957 266.33 269.819 266.33C258.736 266.33 251.287 272.362 251.287 281.264C251.287 288.714 255.393 293.001 264.877 295.4L271.599 297.144C278.83 298.961 282.101 301.795 282.101 306.265C282.101 311.461 276.904 315.276 269.855 315.276C262.406 315.276 257.173 311.788 256.374 306.301H249.76Z" fill="white"/>
<path d="M1743.56 418.605H1791.32" stroke="#B9B9B9" stroke-width="5" stroke-linecap="round" stroke-linejoin="round"/>
<path d="M1767.44 442.482L1791.32 418.605L1767.44 394.727" stroke="#B9B9B9" stroke-width="5" stroke-linecap="round" stroke-linejoin="round"/>
<path d="M1549.46 418.605H1501.7" stroke="#B9B9B9" stroke-width="5" stroke-linecap="round" stroke-linejoin="round"/>
<path d="M1525.58 442.482L1501.7 418.605L1525.58 394.727" stroke="#B9B9B9" stroke-width="5" stroke-linecap="round" stroke-linejoin="round"/>
<path d="M1646.51 394.727V442.482" stroke="#C4C4C4" stroke-width="5" stroke-linecap="round" stroke-linejoin="round"/>
<path d="M1670.39 418.605L1646.51 442.482L1622.63 418.605" stroke="#C4C4C4" stroke-width="5" stroke-linecap="round" stroke-linejoin="round"/>
<path d="M1646.51 317.83V270.077" stroke="white" stroke-width="5" stroke-linecap="round" stroke-linejoin="round"/>
<path d="M1622.63 293.954L1646.51 270.077L1670.39 293.954" stroke="white" stroke-width="5" stroke-linecap="round" stroke-linejoin="round"/>
<path d="M792.179 634.601H784.726V647.442H780.518V615.699H791.025C794.601 615.699 797.347 616.513 799.267 618.14C801.198 619.766 802.166 622.136 802.166 625.247C802.166 627.222 801.63 628.945 800.551 630.415C799.491 631.881 798.01 632.979 796.105 633.708L803.561 647.181V647.442H799.07L792.179 634.601ZM784.726 631.178H791.156C793.236 631.178 794.884 630.638 796.105 629.563C797.34 628.487 797.958 627.051 797.958 625.247C797.958 623.286 797.37 621.782 796.194 620.733C795.029 619.687 793.344 619.155 791.133 619.144H784.726V631.178ZM817.21 647.877C814.013 647.877 811.409 646.832 809.403 644.737C807.398 642.631 806.397 639.818 806.397 636.301V635.561C806.397 633.22 806.839 631.133 807.725 629.302C808.625 627.457 809.876 626.017 811.476 624.986C813.091 623.94 814.832 623.416 816.707 623.416C819.773 623.416 822.158 624.424 823.859 626.445C825.559 628.465 826.412 631.36 826.412 635.122V636.804H810.43C810.486 639.129 811.163 641.008 812.458 642.448C813.764 643.874 815.424 644.584 817.429 644.584C818.851 644.584 820.06 644.294 821.046 643.714C822.036 643.133 822.899 642.363 823.643 641.403L826.106 643.323C824.127 646.359 821.165 647.877 817.21 647.877ZM816.707 626.731C815.081 626.731 813.716 627.327 812.611 628.517C811.505 629.693 810.821 631.353 810.56 633.488H822.378V633.183C822.259 631.133 821.708 629.548 820.718 628.432C819.732 627.297 818.393 626.731 816.707 626.731ZM851.025 635.907C851.025 639.498 850.203 642.393 848.562 644.584C846.918 646.78 844.696 647.877 841.891 647.877C839.025 647.877 836.774 646.969 835.13 645.153V656.514H831.096V623.851H834.784L834.977 626.467C836.622 624.432 838.903 623.416 841.824 623.416C844.659 623.416 846.899 624.484 848.54 626.62C850.196 628.759 851.025 631.728 851.025 635.539V635.907ZM846.992 635.449C846.992 632.789 846.426 630.69 845.292 629.15C844.157 627.609 842.601 626.839 840.625 626.839C838.185 626.839 836.354 627.922 835.13 630.087V641.358C836.339 643.509 838.185 644.584 840.67 644.584C842.601 644.584 844.134 643.821 845.269 642.296C846.419 640.755 846.992 638.474 846.992 635.449ZM865.961 647.877C862.761 647.877 860.16 646.832 858.155 644.737C856.149 642.631 855.145 639.818 855.145 636.301V635.561C855.145 633.22 855.587 631.133 856.477 629.302C857.377 627.457 858.627 626.017 860.227 624.986C861.839 623.94 863.584 623.416 865.459 623.416C868.525 623.416 870.91 624.424 872.611 626.445C874.311 628.465 875.159 631.36 875.159 635.122V636.804H859.178C859.238 639.129 859.915 641.008 861.206 642.448C862.516 643.874 864.172 644.584 866.177 644.584C867.602 644.584 868.808 644.294 869.798 643.714C870.784 643.133 871.651 642.363 872.391 641.403L874.854 643.323C872.879 646.359 869.913 647.877 865.961 647.877ZM865.459 626.731C863.829 626.731 862.464 627.327 861.359 628.517C860.253 629.693 859.572 631.353 859.308 633.488H871.126V633.183C871.011 631.133 870.46 629.548 869.47 628.432C868.48 627.297 867.145 626.731 865.459 626.731ZM894.412 647.442C894.181 646.977 893.991 646.147 893.846 644.956C891.971 646.902 889.731 647.877 887.13 647.877C884.804 647.877 882.892 647.222 881.396 645.916C879.915 644.592 879.171 642.921 879.171 640.9C879.171 638.445 880.101 636.54 881.961 635.189C883.837 633.823 886.467 633.139 889.853 633.139H893.779V631.286C893.779 629.875 893.359 628.759 892.514 627.929C891.673 627.085 890.43 626.664 888.785 626.664C887.349 626.664 886.14 627.029 885.169 627.754C884.194 628.48 883.706 629.362 883.706 630.393H879.651C879.651 629.217 880.067 628.082 880.893 626.992C881.738 625.887 882.869 625.016 884.294 624.376C885.734 623.736 887.312 623.416 889.027 623.416C891.744 623.416 893.876 624.1 895.416 625.466C896.957 626.817 897.753 628.685 897.812 631.07V641.927C897.812 644.093 898.088 645.812 898.642 647.092V647.442H894.412ZM887.718 644.368C888.983 644.368 890.181 644.041 891.316 643.386C892.451 642.731 893.269 641.883 893.779 640.837V635.996H890.62C885.675 635.996 883.204 637.44 883.204 640.335C883.204 641.6 883.628 642.586 884.469 643.3C885.314 644.011 886.397 644.368 887.718 644.368ZM909.608 618.14V623.851H914.013V626.969H909.608V641.6C909.608 642.545 909.805 643.256 910.196 643.736C910.59 644.201 911.256 644.432 912.201 644.432C912.666 644.432 913.306 644.346 914.121 644.171V647.442C913.061 647.732 912.026 647.877 911.025 647.877C909.225 647.877 907.863 647.334 906.947 646.244C906.032 645.153 905.574 643.606 905.574 641.6V626.969H901.28V623.851H905.574V618.14H909.608ZM939.803 633.291C936.212 632.26 933.597 630.995 931.956 629.5C930.326 627.985 929.515 626.125 929.515 623.918C929.515 621.418 930.508 619.353 932.499 617.727C934.505 616.082 937.109 615.263 940.305 615.263C942.486 615.263 944.425 615.684 946.125 616.525C947.84 617.369 949.165 618.53 950.095 620.015C951.04 621.496 951.513 623.118 951.513 624.878H947.305C947.305 622.958 946.694 621.455 945.474 620.365C944.253 619.26 942.531 618.705 940.305 618.705C938.24 618.705 936.629 619.163 935.465 620.078C934.319 620.982 933.742 622.24 933.742 623.851C933.742 625.146 934.289 626.244 935.379 627.144C936.484 628.03 938.352 628.845 940.983 629.585C943.628 630.326 945.69 631.148 947.174 632.048C948.67 632.938 949.775 633.976 950.486 635.167C951.215 636.357 951.576 637.76 951.576 639.375C951.576 641.946 950.575 644.011 948.57 645.567C946.564 647.107 943.881 647.877 940.525 647.877C938.345 647.877 936.309 647.464 934.419 646.634C932.529 645.794 931.07 644.644 930.036 643.189C929.02 641.738 928.51 640.086 928.51 638.24H932.719C932.719 640.16 933.422 641.678 934.832 642.798C936.257 643.903 938.155 644.454 940.525 644.454C942.732 644.454 944.425 644.004 945.604 643.103C946.78 642.203 947.368 640.975 947.368 639.42C947.368 637.864 946.825 636.666 945.734 635.821C944.644 634.962 942.668 634.121 939.803 633.291ZM966.121 647.877C962.921 647.877 960.32 646.832 958.315 644.737C956.309 642.631 955.305 639.818 955.305 636.301V635.561C955.305 633.22 955.747 631.133 956.637 629.302C957.537 627.457 958.787 626.017 960.387 624.986C961.999 623.94 963.744 623.416 965.619 623.416C968.685 623.416 971.07 624.424 972.771 626.445C974.471 628.465 975.319 631.36 975.319 635.122V636.804H959.338C959.398 639.129 960.075 641.008 961.366 642.448C962.676 643.874 964.332 644.584 966.337 644.584C967.762 644.584 968.968 644.294 969.958 643.714C970.944 643.133 971.811 642.363 972.551 641.403L975.014 643.323C973.039 646.359 970.073 647.877 966.121 647.877ZM965.619 626.731C963.989 626.731 962.624 627.327 961.518 628.517C960.413 629.693 959.732 631.353 959.468 633.488H971.286V633.183C971.171 631.133 970.62 629.548 969.63 628.432C968.64 627.297 967.305 626.731 965.619 626.731ZM983.822 623.851L983.956 626.817C985.757 624.551 988.112 623.416 991.018 623.416C996.004 623.416 998.519 626.229 998.56 631.855V647.442H994.527V631.833C994.512 630.132 994.121 628.874 993.351 628.06C992.596 627.245 991.409 626.839 989.798 626.839C988.488 626.839 987.342 627.189 986.352 627.885C985.362 628.584 984.592 629.5 984.041 630.631V647.442H980.008V623.851H983.822ZM1010.12 618.14V623.851H1014.52V626.969H1010.12V641.6C1010.12 642.545 1010.31 643.256 1010.71 643.736C1011.1 644.201 1011.77 644.432 1012.71 644.432C1013.18 644.432 1013.82 644.346 1014.63 644.171V647.442C1013.57 647.732 1012.54 647.877 1011.54 647.877C1009.73 647.877 1008.37 647.334 1007.46 646.244C1006.54 645.153 1006.08 643.606 1006.08 641.6V626.969H1001.79V623.851H1006.08V618.14H1010.12ZM1029.04 647.877C1025.84 647.877 1023.24 646.832 1021.24 644.737C1019.23 642.631 1018.23 639.818 1018.23 636.301V635.561C1018.23 633.22 1018.67 631.133 1019.56 629.302C1020.46 627.457 1021.71 626.017 1023.31 624.986C1024.92 623.94 1026.66 623.416 1028.54 623.416C1031.61 623.416 1033.99 624.424 1035.69 626.445C1037.39 628.465 1038.24 631.36 1038.24 635.122V636.804H1022.26C1022.32 639.129 1023 641.008 1024.29 642.448C1025.6 643.874 1027.25 644.584 1029.26 644.584C1030.68 644.584 1031.89 644.294 1032.88 643.714C1033.87 643.133 1034.73 642.363 1035.47 641.403L1037.94 643.323C1035.96 646.359 1032.99 647.877 1029.04 647.877ZM1028.54 626.731C1026.91 626.731 1025.54 627.327 1024.44 628.517C1023.33 629.693 1022.65 631.353 1022.39 633.488H1034.21V633.183C1034.09 631.133 1033.54 629.548 1032.55 628.432C1031.56 627.297 1030.23 626.731 1028.54 626.731ZM1046.74 623.851L1046.88 626.817C1048.68 624.551 1051.03 623.416 1053.94 623.416C1058.93 623.416 1061.44 626.229 1061.48 631.855V647.442H1057.45V631.833C1057.44 630.132 1057.04 628.874 1056.27 628.06C1055.52 627.245 1054.33 626.839 1052.72 626.839C1051.41 626.839 1050.26 627.189 1049.27 627.885C1048.29 628.584 1047.52 629.5 1046.96 630.631V647.442H1042.93V623.851H1046.74ZM1077.03 644.584C1078.47 644.584 1079.73 644.149 1080.8 643.278C1081.88 642.404 1082.47 641.317 1082.59 640.007H1086.4C1086.33 641.358 1085.86 642.646 1085.01 643.866C1084.15 645.087 1083 646.061 1081.56 646.787C1080.14 647.516 1078.63 647.877 1077.03 647.877C1073.82 647.877 1071.26 646.809 1069.35 644.673C1067.46 642.523 1066.52 639.587 1066.52 635.866V635.189C1066.52 632.893 1066.94 630.85 1067.78 629.064C1068.63 627.274 1069.83 625.886 1071.4 624.897C1072.99 623.911 1074.85 623.416 1077.01 623.416C1079.65 623.416 1081.85 624.208 1083.59 625.794C1085.35 627.375 1086.29 629.433 1086.4 631.963H1082.59C1082.47 630.437 1081.89 629.187 1080.85 628.212C1079.81 627.222 1078.53 626.731 1077.01 626.731C1074.96 626.731 1073.37 627.472 1072.23 628.953C1071.11 630.422 1070.55 632.551 1070.55 635.341V636.104C1070.55 638.824 1071.11 640.915 1072.23 642.385C1073.35 643.851 1074.95 644.584 1077.03 644.584ZM1100.73 647.877C1097.53 647.877 1094.93 646.832 1092.92 644.737C1090.92 642.631 1089.91 639.818 1089.91 636.301V635.561C1089.91 633.22 1090.36 631.133 1091.24 629.302C1092.15 627.457 1093.4 626.017 1094.99 624.986C1096.61 623.94 1098.35 623.416 1100.23 623.416C1103.29 623.416 1105.67 624.424 1107.38 626.445C1109.08 628.465 1109.93 631.36 1109.93 635.122V636.804H1093.95C1094.01 639.129 1094.68 641.008 1095.97 642.448C1097.28 643.874 1098.94 644.584 1100.95 644.584C1102.37 644.584 1103.58 644.294 1104.57 643.714C1105.55 643.133 1106.42 642.363 1107.16 641.403L1109.62 643.323C1107.65 646.359 1104.68 647.877 1100.73 647.877ZM1100.23 626.731C1098.6 626.731 1097.23 627.327 1096.13 628.517C1095.02 629.693 1094.34 631.353 1094.08 633.488H1105.89V633.183C1105.78 631.133 1105.22 629.548 1104.24 628.432C1103.25 627.297 1101.91 626.731 1100.23 626.731ZM1135.68 633.291C1132.09 632.26 1129.47 630.995 1127.83 629.5C1126.2 627.985 1125.38 626.125 1125.38 623.918C1125.38 621.418 1126.38 619.353 1128.37 617.727C1130.38 616.082 1132.98 615.263 1136.18 615.263C1138.36 615.263 1140.3 615.684 1142 616.525C1143.71 617.369 1145.04 618.53 1145.97 620.015C1146.91 621.496 1147.38 623.118 1147.38 624.878H1143.18C1143.18 622.958 1142.56 621.455 1141.34 620.365C1140.12 619.26 1138.4 618.705 1136.18 618.705C1134.11 618.705 1132.5 619.163 1131.34 620.078C1130.19 620.982 1129.62 622.24 1129.62 623.851C1129.62 625.146 1130.16 626.244 1131.25 627.144C1132.35 628.03 1134.22 628.845 1136.85 629.585C1139.5 630.326 1141.56 631.148 1143.04 632.048C1144.54 632.938 1145.65 633.976 1146.36 635.167C1147.09 636.357 1147.45 637.76 1147.45 639.375C1147.45 641.946 1146.45 644.011 1144.44 645.567C1142.43 647.107 1139.75 647.877 1136.39 647.877C1134.21 647.877 1132.18 647.464 1130.29 646.634C1128.4 645.794 1126.94 644.644 1125.91 643.189C1124.89 641.738 1124.38 640.086 1124.38 638.24H1128.59C1128.59 640.16 1129.3 641.678 1130.71 642.798C1132.13 643.903 1134.03 644.454 1136.39 644.454C1138.61 644.454 1140.3 644.004 1141.47 643.103C1142.65 642.203 1143.24 640.975 1143.24 639.42C1143.24 637.864 1142.7 636.666 1141.61 635.821C1140.52 634.962 1138.54 634.121 1135.68 633.291ZM1156.58 647.442H1152.55V613.953H1156.58V647.442ZM1161.99 635.427C1161.99 633.116 1162.44 631.04 1163.34 629.194C1164.26 627.349 1165.52 625.924 1167.14 624.919C1168.76 623.918 1170.62 623.416 1172.7 623.416C1175.91 623.416 1178.5 624.528 1180.48 626.75C1182.47 628.975 1183.47 631.933 1183.47 635.624V635.907C1183.47 638.206 1183.03 640.268 1182.14 642.099C1181.27 643.918 1180.01 645.336 1178.37 646.352C1176.74 647.367 1174.86 647.877 1172.74 647.877C1169.54 647.877 1166.95 646.765 1164.96 644.543C1162.98 642.318 1161.99 639.375 1161.99 635.714V635.427ZM1166.05 635.907C1166.05 638.526 1166.65 640.625 1167.86 642.21C1169.08 643.795 1170.71 644.584 1172.74 644.584C1174.79 644.584 1176.42 643.788 1177.62 642.188C1178.83 640.573 1179.43 638.322 1179.43 635.427C1179.43 632.841 1178.82 630.75 1177.58 629.15C1176.36 627.535 1174.73 626.731 1172.7 626.731C1170.71 626.731 1169.1 627.52 1167.88 629.105C1166.66 630.69 1166.05 632.956 1166.05 635.907ZM1209.41 641.883L1213.95 623.851H1217.98L1211.11 647.442H1207.84L1202.11 629.563L1196.53 647.442H1193.26L1186.41 623.851H1190.42L1195.07 641.511L1200.56 623.851H1203.81L1209.41 641.883ZM1226.48 647.442H1222.45V613.953H1226.48V647.442ZM1240.68 641.533L1246.17 623.851H1250.49L1241.01 651.085C1239.54 655.007 1237.2 656.971 1234.01 656.971L1233.24 656.904L1231.74 656.621V653.351L1232.83 653.436C1234.19 653.436 1235.26 653.161 1236.01 652.61C1236.78 652.056 1237.41 651.047 1237.91 649.578L1238.8 647.181L1230.39 623.851H1234.79L1240.68 641.533Z" fill="white"/>
<path d="M1311.96 632.8L1313.14 634.244L1311.96 632.8ZM1310.84 626.21L1308.99 625.987L1308.83 627.367L1310.1 627.922L1310.84 626.21ZM1311.71 619.014L1312.05 617.183L1310.11 616.826L1309.87 618.787L1311.71 619.014ZM1311.88 617.674V615.814V617.674ZM1311.63 618.992L1313.45 619.382L1313.81 617.689L1312.15 617.206L1311.63 618.992ZM1310 625.935L1309.57 627.743L1311.37 628.171L1311.81 626.374L1310 625.935ZM1307.98 625.853H1306.12V628.045L1308.28 627.687L1307.98 625.853ZM1307.98 619.025L1307.97 617.165L1306.12 617.168V619.025H1307.98ZM1307.92 619.025L1309.77 619.189L1309.94 617.291L1308.04 617.168L1307.92 619.025ZM1307.3 626.017L1307.87 627.788L1309.04 627.408L1309.15 626.18L1307.3 626.017ZM1301.95 631.286L1300.42 630.229L1300.41 630.251L1301.95 631.286ZM1301.95 631.286L1303.48 632.342L1303.5 632.316L1301.95 631.286ZM1301.95 631.286L1300.42 630.225L1300.42 630.229L1301.95 631.286ZM1300.95 632.726L1299.08 632.8L1299.3 638.173L1302.45 633.816L1300.95 632.726ZM1270.75 640.852L1270.91 642.705L1274.21 642.411L1272.25 639.751L1270.75 640.852ZM1258.57 641.942L1258.4 640.089L1258.57 641.942ZM1258.52 643.896L1258.78 642.054L1258.52 643.896ZM1299.65 645.027L1299.28 643.207L1299.65 645.027ZM1305.57 643.821L1305.94 645.645L1305.57 643.821ZM1309.65 637.247L1311.45 636.767L1309.65 637.247ZM1311.58 629.846C1311.58 630.378 1311.32 630.925 1310.79 631.36L1313.14 634.244C1314.42 633.198 1315.3 631.643 1315.3 629.846H1311.58ZM1310.1 627.922C1311.1 628.35 1311.58 629.135 1311.58 629.846H1315.3C1315.3 627.375 1313.66 625.403 1311.58 624.502L1310.1 627.922ZM1309.87 618.787L1308.99 625.987L1312.69 626.437L1313.56 619.237L1309.87 618.787ZM1311.88 617.165C1311.93 617.165 1311.99 617.172 1312.05 617.183L1311.38 620.841C1311.54 620.871 1311.71 620.886 1311.88 620.886V617.165ZM1310.8 618.352C1310.8 617.931 1311 617.607 1311.21 617.421C1311.42 617.243 1311.66 617.165 1311.88 617.165V620.886C1313.08 620.886 1314.52 619.993 1314.52 618.352H1310.8ZM1311.88 619.535C1311.66 619.535 1311.42 619.46 1311.21 619.278C1311 619.096 1310.8 618.772 1310.8 618.352H1314.52C1314.52 616.711 1313.08 615.814 1311.88 615.814V619.535ZM1311.88 619.535V615.814V619.535ZM1312.96 618.352C1312.96 618.772 1312.76 619.096 1312.54 619.278C1312.34 619.46 1312.09 619.535 1311.88 619.535V615.814C1310.68 615.814 1309.24 616.707 1309.24 618.352H1312.96ZM1312.15 617.206C1312.46 617.295 1312.96 617.652 1312.96 618.352H1309.24C1309.24 619.647 1310.18 620.51 1311.11 620.778L1312.15 617.206ZM1311.81 626.374C1312.68 622.791 1313.18 620.618 1313.45 619.382L1309.81 618.601C1309.56 619.788 1309.06 621.92 1308.19 625.492L1311.81 626.374ZM1308.76 627.65C1309.04 627.65 1309.31 627.684 1309.57 627.743L1310.43 624.123C1309.89 623.996 1309.33 623.929 1308.76 623.929V627.65ZM1308.28 627.687C1308.43 627.661 1308.59 627.65 1308.76 627.65V623.929C1308.39 623.929 1308.03 623.959 1307.68 624.015L1308.28 627.687ZM1306.12 619.025V625.853H1309.84V619.025H1306.12ZM1306.9 618.352C1306.9 617.931 1307.1 617.607 1307.31 617.421C1307.52 617.243 1307.76 617.168 1307.97 617.165L1307.98 620.886C1309.18 620.886 1310.62 619.993 1310.62 618.352H1306.9ZM1307.98 619.535C1307.76 619.535 1307.52 619.46 1307.31 619.278C1307.1 619.096 1306.9 618.772 1306.9 618.352H1310.62C1310.62 616.707 1309.18 615.814 1307.98 615.814V619.535ZM1309.06 618.352C1309.06 618.772 1308.86 619.096 1308.64 619.278C1308.44 619.46 1308.19 619.535 1307.98 619.535V615.814C1306.78 615.814 1305.34 616.707 1305.34 618.352H1309.06ZM1308.04 617.168C1308.37 617.191 1309.06 617.503 1309.06 618.352H1305.34C1305.34 619.911 1306.66 620.807 1307.8 620.882L1308.04 617.168ZM1309.15 626.18L1309.77 619.189L1306.07 618.861L1305.44 625.853L1309.15 626.18ZM1303.49 632.339C1304.28 631.178 1304.99 630.151 1305.75 629.321C1306.5 628.499 1307.19 628.007 1307.87 627.788L1306.73 624.246C1305.19 624.741 1303.98 625.745 1303.01 626.809C1302.04 627.866 1301.18 629.116 1300.42 630.229L1303.49 632.339ZM1303.5 632.316L1300.41 630.251H1300.4L1303.5 632.316ZM1303.48 632.342L1300.42 630.225L1303.48 632.342ZM1302.45 633.816C1302.81 633.325 1303.15 632.819 1303.49 632.339L1300.42 630.229C1300.08 630.72 1299.76 631.185 1299.44 631.635L1302.45 633.816ZM1284.57 620.886C1292.67 620.886 1298.83 626.411 1299.08 632.8L1302.81 632.651C1302.45 623.818 1294.18 617.165 1284.57 617.165V620.886ZM1270.05 633.228C1270.05 626.653 1276.29 620.886 1284.57 620.886V617.165C1274.75 617.165 1266.33 624.115 1266.33 633.228H1270.05ZM1272.25 639.751C1270.84 637.842 1270.05 635.606 1270.05 633.228H1266.33C1266.33 636.461 1267.41 639.457 1269.25 641.953L1272.25 639.751ZM1258.74 643.795L1270.91 642.705L1270.58 638.999L1258.4 640.089L1258.74 643.795ZM1258.78 642.054C1258.97 642.08 1259.19 642.192 1259.35 642.404C1259.49 642.59 1259.54 642.787 1259.54 642.947C1259.53 643.103 1259.48 643.297 1259.32 643.475C1259.15 643.68 1258.92 643.777 1258.74 643.795L1258.4 640.089C1255.04 640.391 1254.91 645.258 1258.26 645.738L1258.78 642.054ZM1279.53 643.539C1272.59 643.539 1265.66 643.044 1258.78 642.054L1258.26 645.738C1265.3 646.75 1272.41 647.26 1279.53 647.26V643.539ZM1295.98 643.539H1279.53V647.26H1295.98V643.539ZM1299.28 643.207C1298.2 643.427 1297.09 643.539 1295.98 643.539V647.26C1297.34 647.26 1298.69 647.122 1300.02 646.85L1299.28 643.207ZM1305.2 641.998L1299.28 643.207L1300.02 646.85L1305.94 645.645L1305.2 641.998ZM1307.85 637.723C1308.36 639.647 1307.15 641.6 1305.2 641.998L1305.94 645.645C1309.99 644.819 1312.51 640.755 1311.45 636.767L1307.85 637.723ZM1310.79 631.36C1310.03 631.981 1309.16 632.822 1308.54 633.834C1307.92 634.847 1307.45 636.212 1307.85 637.723L1311.45 636.767C1311.4 636.588 1311.4 636.287 1311.72 635.777C1312.03 635.26 1312.55 634.724 1313.14 634.244L1310.79 631.36Z" fill="#40A9FF"/>
</g>
<defs>
<clipPath id="clip0">
<rect width="1920" height="759.07" fill="white"/>
</clipPath>
</defs>
</svg>
