<svg width="1920" height="760" viewBox="0 0 1920 760" fill="none" xmlns="http://www.w3.org/2000/svg">
<g clip-path="url(#clip0)">
<path d="M1871.63 0H48.3721C21.6569 0 0 21.6569 0 48.3721V710.698C0 737.413 21.6569 759.07 48.3721 759.07H1871.63C1898.34 759.07 1920 737.413 1920 710.698V48.3721C1920 21.6569 1898.34 0 1871.63 0Z" fill="#2F2F2F"/>
<path d="M238.14 115.349H171.163C158.833 115.349 148.837 125.344 148.837 137.674V204.651C148.837 216.981 158.833 226.977 171.163 226.977H238.14C250.47 226.977 260.465 216.981 260.465 204.651V137.674C260.465 125.344 250.47 115.349 238.14 115.349Z" fill="#4C4C4C"/>
<path d="M359.07 115.349H292.093C279.763 115.349 269.768 125.344 269.768 137.674V204.651C269.768 216.981 279.763 226.977 292.093 226.977H359.07C371.4 226.977 381.395 216.981 381.395 204.651V137.674C381.395 125.344 371.4 115.349 359.07 115.349Z" fill="#4C4C4C"/>
<path d="M600.93 115.349H533.954C521.623 115.349 511.628 125.344 511.628 137.674V204.651C511.628 216.981 521.623 226.977 533.954 226.977H600.93C613.26 226.977 623.256 216.981 623.256 204.651V137.674C623.256 125.344 613.26 115.349 600.93 115.349Z" fill="#40A9FF"/>
<path d="M480 115.349H413.023C400.693 115.349 390.698 125.344 390.698 137.674V204.651C390.698 216.981 400.693 226.977 413.023 226.977H480C492.33 226.977 502.326 216.981 502.326 204.651V137.674C502.326 125.344 492.33 115.349 480 115.349Z" fill="#4C4C4C"/>
<path d="M721.86 115.349H654.884C642.554 115.349 632.558 125.344 632.558 137.674V204.651C632.558 216.981 642.554 226.977 654.884 226.977H721.86C734.19 226.977 744.186 216.981 744.186 204.651V137.674C744.186 125.344 734.19 115.349 721.86 115.349Z" fill="#4C4C4C"/>
<path d="M842.791 115.349H775.814C763.484 115.349 753.488 125.344 753.488 137.674V204.651C753.488 216.981 763.484 226.977 775.814 226.977H842.791C855.121 226.977 865.116 216.981 865.116 204.651V137.674C865.116 125.344 855.121 115.349 842.791 115.349Z" fill="#4C4C4C"/>
<path d="M963.721 115.349H896.744C884.414 115.349 874.418 125.344 874.418 137.674V204.651C874.418 216.981 884.414 226.977 896.744 226.977H963.721C976.051 226.977 986.046 216.981 986.046 204.651V137.674C986.046 125.344 976.051 115.349 963.721 115.349Z" fill="#4C4C4C"/>
<path d="M1084.65 115.349H1017.67C1005.34 115.349 995.349 125.344 995.349 137.674V204.651C995.349 216.981 1005.34 226.977 1017.67 226.977H1084.65C1096.98 226.977 1106.98 216.981 1106.98 204.651V137.674C1106.98 125.344 1096.98 115.349 1084.65 115.349Z" fill="#4C4C4C"/>
<path d="M1205.58 115.349H1138.6C1126.27 115.349 1116.28 125.344 1116.28 137.674V204.651C1116.28 216.981 1126.27 226.977 1138.6 226.977H1205.58C1217.91 226.977 1227.91 216.981 1227.91 204.651V137.674C1227.91 125.344 1217.91 115.349 1205.58 115.349Z" fill="#4C4C4C"/>
<path d="M1447.44 115.349H1380.47C1368.14 115.349 1358.14 125.344 1358.14 137.674V204.651C1358.14 216.981 1368.14 226.977 1380.47 226.977H1447.44C1459.77 226.977 1469.77 216.981 1469.77 204.651V137.674C1469.77 125.344 1459.77 115.349 1447.44 115.349Z" fill="#4C4C4C"/>
<path d="M1326.51 115.349H1259.54C1247.2 115.349 1237.21 125.344 1237.21 137.674V204.651C1237.21 216.981 1247.2 226.977 1259.54 226.977H1326.51C1338.84 226.977 1348.84 216.981 1348.84 204.651V137.674C1348.84 125.344 1338.84 115.349 1326.51 115.349Z" fill="#696969"/>
<path d="M1800.93 360.93H1733.95C1721.62 360.93 1711.63 370.926 1711.63 383.256V450.232C1711.63 462.563 1721.62 472.558 1733.95 472.558H1800.93C1813.26 472.558 1823.26 462.563 1823.26 450.232V383.256C1823.26 370.926 1813.26 360.93 1800.93 360.93Z" fill="#696969"/>
<path d="M240 360.93H173.023C160.693 360.93 150.698 370.926 150.698 383.256V450.232C150.698 462.563 160.693 472.558 173.023 472.558H240C252.33 472.558 262.326 462.563 262.326 450.232V383.256C262.326 370.926 252.33 360.93 240 360.93Z" fill="#4C4C4C"/>
<path d="M360.93 360.93H293.954C281.623 360.93 271.628 370.926 271.628 383.256V450.232C271.628 462.563 281.623 472.558 293.954 472.558H360.93C373.26 472.558 383.256 462.563 383.256 450.232V383.256C383.256 370.926 373.26 360.93 360.93 360.93Z" fill="#4C4C4C"/>
<path d="M481.86 360.93H414.884C402.554 360.93 392.558 370.926 392.558 383.256V450.232C392.558 462.563 402.554 472.558 414.884 472.558H481.86C494.191 472.558 504.186 462.563 504.186 450.232V383.256C504.186 370.926 494.191 360.93 481.86 360.93Z" fill="#4C4C4C"/>
<path d="M602.791 360.93H535.814C523.484 360.93 513.488 370.926 513.488 383.256V450.232C513.488 462.563 523.484 472.558 535.814 472.558H602.791C615.121 472.558 625.116 462.563 625.116 450.232V383.256C625.116 370.926 615.121 360.93 602.791 360.93Z" fill="#4C4C4C"/>
<path d="M723.721 360.93H656.744C644.414 360.93 634.418 370.926 634.418 383.256V450.232C634.418 462.563 644.414 472.558 656.744 472.558H723.721C736.051 472.558 746.046 462.563 746.046 450.232V383.256C746.046 370.926 736.051 360.93 723.721 360.93Z" fill="#4C4C4C"/>
<path d="M844.651 360.93H777.674C765.344 360.93 755.349 370.926 755.349 383.256V450.232C755.349 462.563 765.344 472.558 777.674 472.558H844.651C856.981 472.558 866.977 462.563 866.977 450.232V383.256C866.977 370.926 856.981 360.93 844.651 360.93Z" fill="#4C4C4C"/>
<path d="M965.582 360.93H898.605C886.275 360.93 876.279 370.926 876.279 383.256V450.232C876.279 462.563 886.275 472.558 898.605 472.558H965.582C977.912 472.558 987.907 462.563 987.907 450.232V383.256C987.907 370.926 977.912 360.93 965.582 360.93Z" fill="#696969"/>
<path d="M1086.51 360.93H1019.54C1007.2 360.93 997.209 370.926 997.209 383.256V450.232C997.209 462.563 1007.2 472.558 1019.54 472.558H1086.51C1098.84 472.558 1108.84 462.563 1108.84 450.232V383.256C1108.84 370.926 1098.84 360.93 1086.51 360.93Z" fill="#4C4C4C"/>
<path d="M1207.44 360.93H1140.47C1128.14 360.93 1118.14 370.926 1118.14 383.256V450.232C1118.14 462.563 1128.14 472.558 1140.47 472.558H1207.44C1219.77 472.558 1229.77 462.563 1229.77 450.232V383.256C1229.77 370.926 1219.77 360.93 1207.44 360.93Z" fill="#4C4C4C"/>
<path d="M1328.37 360.93H1261.4C1249.07 360.93 1239.07 370.926 1239.07 383.256V450.232C1239.07 462.563 1249.07 472.558 1261.4 472.558H1328.37C1340.7 472.558 1350.7 462.563 1350.7 450.232V383.256C1350.7 370.926 1340.7 360.93 1328.37 360.93Z" fill="#4C4C4C"/>
<path d="M1559.07 360.93H1492.09C1479.76 360.93 1469.77 370.926 1469.77 383.256V450.232C1469.77 462.563 1479.76 472.558 1492.09 472.558H1559.07C1571.4 472.558 1581.4 462.563 1581.4 450.232V383.256C1581.4 370.926 1571.4 360.93 1559.07 360.93Z" fill="#696969"/>
<path d="M1680 360.93H1613.02C1600.69 360.93 1590.7 370.926 1590.7 383.256V450.232C1590.7 462.563 1600.69 472.558 1613.02 472.558H1680C1692.33 472.558 1702.33 462.563 1702.33 450.232V383.256C1702.33 370.926 1692.33 360.93 1680 360.93Z" fill="#40A9FF"/>
<path d="M182.326 238.14H115.349C103.019 238.14 93.0234 248.135 93.0234 260.465V327.442C93.0234 339.772 103.019 349.767 115.349 349.767H182.326C194.656 349.767 204.651 339.772 204.651 327.442V260.465C204.651 248.135 194.656 238.14 182.326 238.14Z" fill="#4C4C4C"/>
<path d="M303.256 238.14H236.279C223.949 238.14 213.954 248.135 213.954 260.465V327.442C213.954 339.772 223.949 349.767 236.279 349.767H303.256C315.586 349.767 325.582 339.772 325.582 327.442V260.465C325.582 248.135 315.586 238.14 303.256 238.14Z" fill="#696969"/>
<path d="M424.186 238.14H357.209C344.879 238.14 334.884 248.135 334.884 260.465V327.442C334.884 339.772 344.879 349.767 357.209 349.767H424.186C436.516 349.767 446.512 339.772 446.512 327.442V260.465C446.512 248.135 436.516 238.14 424.186 238.14Z" fill="#4C4C4C"/>
<path d="M545.116 238.14H478.14C465.809 238.14 455.814 248.135 455.814 260.465V327.442C455.814 339.772 465.809 349.767 478.14 349.767H545.116C557.446 349.767 567.442 339.772 567.442 327.442V260.465C567.442 248.135 557.446 238.14 545.116 238.14Z" fill="#4C4C4C"/>
<path d="M666.046 238.14H599.07C586.74 238.14 576.744 248.135 576.744 260.465V327.442C576.744 339.772 586.74 349.767 599.07 349.767H666.046C678.377 349.767 688.372 339.772 688.372 327.442V260.465C688.372 248.135 678.377 238.14 666.046 238.14Z" fill="#4C4C4C"/>
<path d="M786.977 238.14H720C707.67 238.14 697.674 248.135 697.674 260.465V327.442C697.674 339.772 707.67 349.767 720 349.767H786.977C799.307 349.767 809.302 339.772 809.302 327.442V260.465C809.302 248.135 799.307 238.14 786.977 238.14Z" fill="#4C4C4C"/>
<path d="M907.907 238.14H840.93C828.6 238.14 818.604 248.135 818.604 260.465V327.442C818.604 339.772 828.6 349.767 840.93 349.767H907.907C920.237 349.767 930.232 339.772 930.232 327.442V260.465C930.232 248.135 920.237 238.14 907.907 238.14Z" fill="#4C4C4C"/>
<path d="M1028.84 238.14H961.86C949.53 238.14 939.535 248.135 939.535 260.465V327.442C939.535 339.772 949.53 349.767 961.86 349.767H1028.84C1041.17 349.767 1051.16 339.772 1051.16 327.442V260.465C1051.16 248.135 1041.17 238.14 1028.84 238.14Z" fill="#4C4C4C"/>
<path d="M1149.77 238.14H1082.79C1070.46 238.14 1060.47 248.135 1060.47 260.465V327.442C1060.47 339.772 1070.46 349.767 1082.79 349.767H1149.77C1162.1 349.767 1172.09 339.772 1172.09 327.442V260.465C1172.09 248.135 1162.1 238.14 1149.77 238.14Z" fill="#4C4C4C"/>
<path d="M1270.7 238.14H1203.72C1191.39 238.14 1181.4 248.135 1181.4 260.465V327.442C1181.4 339.772 1191.39 349.767 1203.72 349.767H1270.7C1283.03 349.767 1293.02 339.772 1293.02 327.442V260.465C1293.02 248.135 1283.03 238.14 1270.7 238.14Z" fill="#4C4C4C"/>
<path d="M1391.63 238.14H1324.65C1312.32 238.14 1302.33 248.135 1302.33 260.465V327.442C1302.33 339.772 1312.32 349.767 1324.65 349.767H1391.63C1403.96 349.767 1413.95 339.772 1413.95 327.442V260.465C1413.95 248.135 1403.96 238.14 1391.63 238.14Z" fill="#4C4C4C"/>
<path d="M1680 238.14H1613.02C1600.69 238.14 1590.7 248.135 1590.7 260.465V327.442C1590.7 339.772 1600.69 349.767 1613.02 349.767H1680C1692.33 349.767 1702.33 339.772 1702.33 327.442V260.465C1702.33 248.135 1692.33 238.14 1680 238.14Z" fill="#696969"/>
<path d="M565.582 226.047V383.256V623.256" stroke="#40A9FF" stroke-width="5"/>
<path d="M874.419 621.395H561.86" stroke="#40A9FF" stroke-width="5"/>
<path d="M1648.37 468.837V621.395H1268.84" stroke="#40A9FF" stroke-width="5"/>
<path d="M554.623 150.589H567.229C573.99 150.589 578.061 154.332 578.061 160.618C578.061 167.049 574.243 170.647 567.52 170.647H554.623V150.589ZM554.623 176.461H567.52L578.749 197.209H586.418L574.281 175.443C580.855 173.372 584.818 167.703 584.818 160.4C584.818 150.952 578.206 144.775 568.104 144.775H548.082V197.209H554.623V176.461Z" fill="white"/>
<path d="M1275.52 148.496V200.93H1282.06V182.217H1295.26C1305.1 182.217 1312.12 175.276 1312.12 165.465C1312.12 155.472 1305.25 148.496 1295.33 148.496H1275.52ZM1282.06 154.31H1293.62C1301.21 154.31 1305.39 158.27 1305.39 165.465C1305.39 172.406 1301.07 176.403 1293.62 176.403H1282.06V154.31Z" fill="#B9B9B9"/>
<path d="M917.339 442.791V402.128H917.919L946.373 442.791H952.732V390.355H946.266V431.163H945.681L917.231 390.355H910.872V442.791H917.339Z" fill="#B9B9B9"/>
<path d="M249.76 306.301C250.451 315.349 258.118 321.235 269.237 321.235C281.229 321.235 288.823 315.094 288.823 305.465C288.823 297.761 284.462 293.546 273.598 290.821L268.111 289.368C260.88 287.514 258.009 285.153 258.009 281.046C258.009 275.741 262.624 272.253 269.601 272.253C276.141 272.253 280.574 275.45 281.483 280.829H288.06C287.515 272.362 279.957 266.33 269.819 266.33C258.736 266.33 251.287 272.362 251.287 281.264C251.287 288.714 255.393 293.001 264.877 295.4L271.599 297.144C278.83 298.961 282.101 301.795 282.101 306.264C282.101 311.461 276.904 315.276 269.855 315.276C262.406 315.276 257.173 311.788 256.374 306.301H249.76Z" fill="#B9B9B9"/>
<path d="M1743.56 418.605H1791.32" stroke="#B9B9B9" stroke-width="5" stroke-linecap="round" stroke-linejoin="round"/>
<path d="M1767.44 442.482L1791.32 418.605L1767.44 394.728" stroke="#B9B9B9" stroke-width="5" stroke-linecap="round" stroke-linejoin="round"/>
<path d="M1549.46 418.605H1501.7" stroke="#B9B9B9" stroke-width="5" stroke-linecap="round" stroke-linejoin="round"/>
<path d="M1525.58 442.482L1501.7 418.605L1525.58 394.728" stroke="#B9B9B9" stroke-width="5" stroke-linecap="round" stroke-linejoin="round"/>
<path d="M1646.51 394.728V442.482" stroke="white" stroke-width="5" stroke-linecap="round" stroke-linejoin="round"/>
<path d="M1670.39 418.605L1646.51 442.482L1622.63 418.605" stroke="white" stroke-width="5" stroke-linecap="round" stroke-linejoin="round"/>
<path d="M1646.51 317.83V270.077" stroke="#B9B9B9" stroke-width="5" stroke-linecap="round" stroke-linejoin="round"/>
<path d="M1622.63 293.954L1646.51 270.077L1670.39 293.954" stroke="#B9B9B9" stroke-width="5" stroke-linecap="round" stroke-linejoin="round"/>
<path d="M919.601 623.438H912.144V636.279H907.936V604.536H918.444C922.02 604.536 924.766 605.351 926.686 606.977C928.617 608.603 929.584 610.973 929.584 614.084C929.584 616.059 929.049 617.782 927.973 619.252C926.909 620.718 925.428 621.816 923.523 622.545L930.98 636.019V636.279H926.489L919.601 623.438ZM912.144 620.015H918.574C920.654 620.015 922.303 619.475 923.523 618.4C924.758 617.325 925.376 615.888 925.376 614.084C925.376 612.123 924.788 610.619 923.612 609.57C922.448 608.525 920.762 607.992 918.552 607.981H912.144V620.015ZM944.628 636.714C941.432 636.714 938.831 635.669 936.822 633.574C934.816 631.468 933.815 628.655 933.815 625.139V624.398C933.815 622.058 934.258 619.97 935.144 618.139C936.044 616.294 937.294 614.854 938.894 613.823C940.509 612.778 942.25 612.253 944.126 612.253C947.196 612.253 949.577 613.261 951.277 615.282C952.978 617.302 953.83 620.197 953.83 623.959V625.641H937.849C937.904 627.966 938.582 629.846 939.876 631.286C941.183 632.711 942.842 633.421 944.848 633.421C946.273 633.421 947.478 633.131 948.464 632.551C949.454 631.97 950.317 631.2 951.062 630.24L953.525 632.16C951.549 635.196 948.584 636.714 944.628 636.714ZM944.126 615.568C942.5 615.568 941.134 616.164 940.029 617.354C938.924 618.53 938.239 620.19 937.979 622.326H949.797V622.02C949.681 619.97 949.127 618.385 948.137 617.269C947.151 616.134 945.815 615.568 944.126 615.568ZM978.444 624.744C978.444 628.335 977.622 631.23 975.981 633.421C974.34 635.617 972.115 636.714 969.309 636.714C966.444 636.714 964.193 635.806 962.552 633.991V645.351H958.518V612.688H962.202L962.399 615.304C964.04 613.269 966.321 612.253 969.242 612.253C972.077 612.253 974.317 613.321 975.958 615.457C977.614 617.596 978.444 620.565 978.444 624.376V624.744ZM974.41 624.286C974.41 621.626 973.845 619.527 972.71 617.987C971.575 616.446 970.02 615.676 968.044 615.676C965.603 615.676 963.772 616.759 962.552 618.925V630.195C963.757 632.346 965.603 633.421 968.089 633.421C970.02 633.421 971.553 632.659 972.688 631.133C973.837 629.593 974.41 627.312 974.41 624.286ZM993.38 636.714C990.18 636.714 987.579 635.669 985.573 633.574C983.568 631.468 982.563 628.655 982.563 625.139V624.398C982.563 622.058 983.01 619.97 983.895 618.139C984.796 616.294 986.046 614.854 987.646 613.823C989.257 612.778 991.002 612.253 992.877 612.253C995.943 612.253 998.329 613.261 1000.03 615.282C1001.73 617.302 1002.58 620.197 1002.58 623.959V625.641H986.597C986.656 627.966 987.333 629.846 988.624 631.286C989.934 632.711 991.59 633.421 993.596 633.421C995.021 633.421 996.226 633.131 997.216 632.551C998.206 631.97 999.069 631.2 999.81 630.24L1002.27 632.16C1000.3 635.196 997.331 636.714 993.38 636.714ZM992.877 615.568C991.248 615.568 989.882 616.164 988.777 617.354C987.676 618.53 986.991 620.19 986.73 622.326H998.544V622.02C998.429 619.97 997.878 618.385 996.889 617.269C995.899 616.134 994.563 615.568 992.877 615.568ZM1021.83 636.279C1021.6 635.814 1021.41 634.984 1021.26 633.793C1019.39 635.739 1017.15 636.714 1014.55 636.714C1012.22 636.714 1010.31 636.059 1008.81 634.753C1007.33 633.429 1006.59 631.758 1006.59 629.738C1006.59 627.282 1007.52 625.377 1009.38 624.026C1011.26 622.66 1013.89 621.976 1017.28 621.976H1021.2V620.123C1021.2 618.713 1020.78 617.596 1019.93 616.766C1019.09 615.922 1017.85 615.501 1016.2 615.501C1014.77 615.501 1013.56 615.866 1012.59 616.592C1011.61 617.317 1011.12 618.199 1011.12 619.23H1007.07C1007.07 618.054 1007.49 616.919 1008.31 615.829C1009.16 614.724 1010.29 613.853 1011.71 613.213C1013.15 612.573 1014.73 612.253 1016.45 612.253C1019.16 612.253 1021.29 612.938 1022.83 614.303C1024.38 615.654 1025.18 617.522 1025.23 619.907V630.765C1025.23 632.93 1025.51 634.649 1026.06 635.929V636.279H1021.83ZM1015.14 633.205C1016.4 633.205 1017.6 632.878 1018.73 632.223C1019.87 631.568 1020.69 630.72 1021.2 629.674V624.833H1018.04C1013.1 624.833 1010.62 626.277 1010.62 629.172C1010.62 630.437 1011.05 631.423 1011.89 632.138C1012.73 632.848 1013.82 633.205 1015.14 633.205ZM1037.03 606.977V612.688H1041.43V615.806H1037.03V630.437C1037.03 631.382 1037.22 632.093 1037.61 632.573C1038.01 633.038 1038.68 633.269 1039.62 633.269C1040.08 633.269 1040.72 633.183 1041.54 633.008V636.279C1040.48 636.569 1039.45 636.714 1038.44 636.714C1036.64 636.714 1035.28 636.171 1034.37 635.081C1033.45 633.991 1032.99 632.443 1032.99 630.437V615.806H1028.7V612.688H1032.99V606.977H1037.03ZM1067.22 622.128C1063.63 621.098 1061.02 619.832 1059.37 618.337C1057.75 616.822 1056.93 614.962 1056.93 612.755C1056.93 610.255 1057.93 608.19 1059.92 606.564C1061.93 604.919 1064.53 604.1 1067.72 604.1C1069.9 604.1 1071.85 604.521 1073.55 605.362C1075.26 606.206 1076.58 607.367 1077.51 608.852C1078.46 610.333 1078.93 611.955 1078.93 613.715H1074.72C1074.72 611.795 1074.11 610.292 1072.89 609.202C1071.67 608.097 1069.95 607.542 1067.72 607.542C1065.66 607.542 1064.05 608 1062.88 608.915C1061.74 609.819 1061.16 611.077 1061.16 612.688C1061.16 613.983 1061.71 615.081 1062.8 615.981C1063.9 616.867 1065.77 617.682 1068.4 618.422C1071.05 619.163 1073.11 619.985 1074.59 620.886C1076.09 621.775 1077.19 622.813 1077.91 624.004C1078.63 625.194 1078.99 626.597 1078.99 628.212C1078.99 630.783 1077.99 632.848 1075.99 634.404C1073.98 635.944 1071.3 636.714 1067.94 636.714C1065.76 636.714 1063.73 636.301 1061.84 635.472C1059.95 634.631 1058.49 633.481 1057.45 632.026C1056.44 630.575 1055.93 628.923 1055.93 627.077H1060.14C1060.14 628.997 1060.84 630.515 1062.25 631.635C1063.68 632.74 1065.57 633.291 1067.94 633.291C1070.15 633.291 1071.85 632.841 1073.02 631.94C1074.2 631.04 1074.79 629.812 1074.79 628.257C1074.79 626.701 1074.24 625.503 1073.15 624.659C1072.06 623.799 1070.09 622.958 1067.22 622.128ZM1093.54 636.714C1090.34 636.714 1087.74 635.669 1085.73 633.574C1083.73 631.468 1082.72 628.655 1082.72 625.139V624.398C1082.72 622.058 1083.17 619.97 1084.06 618.139C1084.96 616.294 1086.21 614.854 1087.81 613.823C1089.42 612.778 1091.16 612.253 1093.04 612.253C1096.1 612.253 1098.49 613.261 1100.19 615.282C1101.89 617.302 1102.74 620.197 1102.74 623.959V625.641H1086.76C1086.82 627.966 1087.49 629.846 1088.78 631.286C1090.09 632.711 1091.75 633.421 1093.76 633.421C1095.18 633.421 1096.39 633.131 1097.38 632.551C1098.37 631.97 1099.23 631.2 1099.97 630.24L1102.43 632.16C1100.46 635.196 1097.49 636.714 1093.54 636.714ZM1093.04 615.568C1091.41 615.568 1090.04 616.164 1088.94 617.354C1087.83 618.53 1087.15 620.19 1086.89 622.326H1098.7V622.02C1098.59 619.97 1098.04 618.385 1097.05 617.269C1096.06 616.134 1094.72 615.568 1093.04 615.568ZM1111.24 612.688L1111.37 615.654C1113.18 613.388 1115.53 612.253 1118.44 612.253C1123.42 612.253 1125.94 615.066 1125.98 620.692V636.279H1121.95V620.67C1121.93 618.969 1121.54 617.712 1120.77 616.897C1120.01 616.082 1118.83 615.676 1117.22 615.676C1115.91 615.676 1114.76 616.026 1113.77 616.722C1112.78 617.421 1112.01 618.337 1111.46 619.468V636.279H1107.43V612.688H1111.24ZM1137.54 606.977V612.688H1141.94V615.806H1137.54V630.437C1137.54 631.382 1137.73 632.093 1138.12 632.573C1138.52 633.038 1139.18 633.269 1140.13 633.269C1140.59 633.269 1141.23 633.183 1142.05 633.008V636.279C1140.99 636.569 1139.95 636.714 1138.95 636.714C1137.15 636.714 1135.79 636.171 1134.88 635.081C1133.96 633.991 1133.5 632.443 1133.5 630.437V615.806H1129.21V612.688H1133.5V606.977H1137.54ZM1156.46 636.714C1153.26 636.714 1150.66 635.669 1148.65 633.574C1146.65 631.468 1145.65 628.655 1145.65 625.139V624.398C1145.65 622.058 1146.09 619.97 1146.98 618.139C1147.88 616.294 1149.13 614.854 1150.73 613.823C1152.34 612.778 1154.08 612.253 1155.96 612.253C1159.02 612.253 1161.41 613.261 1163.11 615.282C1164.81 617.302 1165.66 620.197 1165.66 623.959V625.641H1149.68C1149.74 627.966 1150.41 629.846 1151.71 631.286C1153.02 632.711 1154.67 633.421 1156.68 633.421C1158.1 633.421 1159.31 633.131 1160.3 632.551C1161.29 631.97 1162.15 631.2 1162.89 630.24L1165.35 632.16C1163.38 635.196 1160.41 636.714 1156.46 636.714ZM1155.96 615.568C1154.33 615.568 1152.96 616.164 1151.86 617.354C1150.76 618.53 1150.07 620.19 1149.81 622.326H1161.63V622.02C1161.51 619.97 1160.96 618.385 1159.97 617.269C1158.98 616.134 1157.64 615.568 1155.96 615.568ZM1174.16 612.688L1174.3 615.654C1176.1 613.388 1178.45 612.253 1181.36 612.253C1186.34 612.253 1188.86 615.066 1188.9 620.692V636.279H1184.87V620.67C1184.86 618.969 1184.46 617.712 1183.69 616.897C1182.94 616.082 1181.75 615.676 1180.14 615.676C1178.83 615.676 1177.68 616.026 1176.69 616.722C1175.71 617.421 1174.94 618.337 1174.38 619.468V636.279H1170.35V612.688H1174.16ZM1204.45 633.421C1205.89 633.421 1207.14 632.986 1208.22 632.115C1209.29 631.241 1209.89 630.154 1210 628.845H1213.82C1213.75 630.195 1213.28 631.483 1212.43 632.703C1211.57 633.924 1210.42 634.899 1208.98 635.624C1207.56 636.353 1206.05 636.714 1204.45 636.714C1201.23 636.714 1198.68 635.646 1196.77 633.511C1194.88 631.36 1193.94 628.424 1193.94 624.703V624.026C1193.94 621.73 1194.36 619.687 1195.2 617.901C1196.05 616.112 1197.25 614.724 1198.82 613.734C1200.4 612.748 1202.27 612.253 1204.42 612.253C1207.07 612.253 1209.26 613.046 1211.01 614.631C1212.77 616.212 1213.71 618.27 1213.82 620.8H1210C1209.89 619.274 1209.31 618.024 1208.26 617.049C1207.23 616.059 1205.95 615.568 1204.42 615.568C1202.38 615.568 1200.78 616.309 1199.65 617.79C1198.53 619.259 1197.97 621.388 1197.97 624.179V624.941C1197.97 627.661 1198.53 629.753 1199.65 631.222C1200.77 632.688 1202.37 633.421 1204.45 633.421ZM1228.14 636.714C1224.95 636.714 1222.35 635.669 1220.34 633.574C1218.34 631.468 1217.33 628.655 1217.33 625.139V624.398C1217.33 622.058 1217.77 619.97 1218.66 618.139C1219.56 616.294 1220.81 614.854 1222.41 613.823C1224.03 612.778 1225.77 612.253 1227.65 612.253C1230.71 612.253 1233.1 613.261 1234.8 615.282C1236.5 617.302 1237.35 620.197 1237.35 623.959V625.641H1221.36C1221.42 627.966 1222.1 629.846 1223.39 631.286C1224.7 632.711 1226.36 633.421 1228.36 633.421C1229.79 633.421 1230.99 633.131 1231.98 632.551C1232.97 631.97 1233.84 631.2 1234.58 630.24L1237.04 632.16C1235.07 635.196 1232.1 636.714 1228.14 636.714ZM1227.65 615.568C1226.02 615.568 1224.65 616.164 1223.55 617.354C1222.44 618.53 1221.76 620.19 1221.5 622.326H1233.31V622.02C1233.2 619.97 1232.64 618.385 1231.66 617.269C1230.67 616.134 1229.33 615.568 1227.65 615.568Z" fill="white"/>
</g>
<defs>
<clipPath id="clip0">
<rect width="1920" height="759.07" fill="white"/>
</clipPath>
</defs>
</svg>
