<svg width="43" height="43" viewBox="0 0 43 43" fill="none" xmlns="http://www.w3.org/2000/svg">
<path d="M10.32 2.58008C6.05439 2.58008 2.57999 6.05448 2.57999 10.3201V32.6801C2.57999 36.9457 6.05439 40.4201 10.32 40.4201H32.68C36.9456 40.4201 40.42 36.9457 40.42 32.6801V10.3201C40.42 6.05448 36.9456 2.58008 32.68 2.58008H10.32ZM32.68 6.88008H35.26C35.733 6.88008 36.12 7.26708 36.12 7.74008V10.3201C36.12 10.7931 35.733 11.1801 35.26 11.1801H32.68C32.207 11.1801 31.82 10.7931 31.82 10.3201V7.74008C31.82 7.26708 32.207 6.88008 32.68 6.88008ZM21.5 8.60008C26.0838 8.60008 30.1169 11.0081 32.4045 14.6201H36.12V31.8201C36.12 34.1937 34.1936 36.1201 31.82 36.1201H11.18C8.80639 36.1201 6.87999 34.1937 6.87999 31.8201V14.6201H10.5955C12.8831 11.0081 16.9162 8.60008 21.5 8.60008V8.60008ZM21.5 10.3201C15.3338 10.3201 10.32 15.3339 10.32 21.5001C10.32 27.6663 15.3338 32.6801 21.5 32.6801C27.6662 32.6801 32.68 27.6663 32.68 21.5001C32.68 15.3339 27.6662 10.3201 21.5 10.3201ZM21.5 13.7601C25.7656 13.7601 29.24 17.2345 29.24 21.5001C29.24 25.7657 25.7656 29.2401 21.5 29.2401C17.2344 29.2401 13.76 25.7657 13.76 21.5001C13.76 17.2345 17.2344 13.7601 21.5 13.7601Z" fill="white"/>
</svg>
