<svg width="251" height="75" viewBox="0 0 251 75" fill="none" xmlns="http://www.w3.org/2000/svg">
<path fill-rule="evenodd" clip-rule="evenodd" d="M124.365 43.8499C124.365 43.8499 124.365 44.5687 124.242 45.7668H104.406C104.774 47.4441 105.631 48.6422 106.978 49.6007C108.325 50.5591 109.916 50.9186 111.875 50.9186C113.345 50.9186 114.447 50.7988 115.549 50.4393C116.651 49.9601 117.63 49.3611 118.487 48.5224L122.528 52.8355C120.079 55.5911 116.528 56.909 111.753 56.909C108.814 56.909 106.121 56.4297 103.917 55.2317C101.59 54.1534 99.8759 52.5959 98.6515 50.5591C97.3046 48.5224 96.6924 46.246 96.6924 43.7301C96.6924 41.2141 97.3046 38.9377 98.529 36.901C99.7535 34.8643 101.468 33.3067 103.549 32.2285C105.753 31.0304 108.08 30.4314 110.773 30.4314C113.345 30.4314 115.671 31.0304 117.753 32.1087C119.834 33.1869 121.426 34.7444 122.651 36.7812C123.875 38.8179 124.365 41.0943 124.365 43.8499ZM110.773 36.0623C109.059 36.0623 107.59 36.5416 106.488 37.5C105.263 38.4585 104.529 39.7764 104.284 41.4537H117.263C117.018 39.7764 116.283 38.5783 115.059 37.6198C113.957 36.5416 112.488 36.0623 110.773 36.0623ZM129.997 23.123H137.956V50.1997H155.098V56.5496H129.997V23.123ZM169.792 30.4314C173.955 30.4314 177.016 31.3898 179.22 33.3067C181.424 35.2237 182.526 38.0991 182.526 41.9329V56.5496H175.424V53.3147C173.955 55.7109 171.261 56.909 167.343 56.909C165.384 56.909 163.547 56.5496 162.078 55.9505C160.608 55.2317 159.506 54.393 158.772 53.1949C157.915 51.9968 157.547 50.6789 157.547 49.1214C157.547 46.7253 158.404 44.9282 160.241 43.4905C162.078 42.1726 165.016 41.4537 168.812 41.4537H174.934C174.934 39.7764 174.322 38.5783 173.343 37.7397C172.363 36.7812 170.894 36.4218 168.812 36.4218C167.465 36.4218 165.996 36.6614 164.649 37.0208C163.302 37.5 162.2 38.0991 161.221 38.8179L158.527 33.5464C159.996 32.5879 161.71 31.8691 163.669 31.27C165.629 30.7908 167.71 30.4314 169.792 30.4314ZM169.302 51.877C170.526 51.877 171.751 51.6374 172.73 51.0384C173.71 50.4393 174.445 49.6007 174.934 48.4026V45.7668H169.669C166.486 45.7668 165.016 46.8451 165.016 48.762C165.016 49.7205 165.384 50.5591 166.118 51.1582C166.853 51.6374 167.955 51.877 169.302 51.877ZM205.3 30.4314C208.606 30.4314 211.178 31.3898 213.259 33.3067C215.218 35.2237 216.198 38.0991 216.198 41.8131V56.5496H208.606V43.0112C208.606 40.9745 208.117 39.417 207.26 38.4585C206.402 37.3802 205.056 36.901 203.341 36.901C201.382 36.901 199.913 37.5 198.688 38.6981C197.586 39.7764 196.974 41.5735 196.974 43.8499V56.5496H189.383V30.7908H196.607V33.9058C197.709 32.8275 198.933 31.9889 200.403 31.3898C201.872 30.7908 203.586 30.4314 205.3 30.4314ZM250.482 30.7908V52.2365C250.482 57.0288 249.258 60.5032 246.809 62.7796C244.238 65.0559 240.564 66.254 235.789 66.254C233.218 66.254 230.891 65.8946 228.565 65.2956C226.238 64.6965 224.402 63.8579 222.932 62.6598L225.871 57.2684C227.096 58.2269 228.442 58.9457 230.157 59.4249C231.871 59.9042 233.463 60.2636 235.177 60.2636C237.871 60.2636 239.83 59.6646 241.054 58.4665C242.279 57.2684 242.891 55.5911 242.891 53.1949V52.1166C240.932 54.2732 238.116 55.3515 234.565 55.3515C232.238 55.3515 230.034 54.7524 227.953 53.794C225.994 52.7157 224.402 51.278 223.3 49.3611C222.075 47.5639 221.463 45.2876 221.463 42.8914C221.463 40.4952 222.075 38.2189 223.3 36.4218C224.402 34.5048 225.994 33.0671 227.953 31.9889C230.034 31.0304 232.238 30.4314 234.565 30.4314C238.483 30.4314 241.299 31.7492 243.258 34.1454V30.7908H250.482ZM236.156 49.2412C238.116 49.2412 239.83 48.6422 241.054 47.4441C242.401 46.246 243.013 44.8083 243.013 42.8914C243.013 40.9745 242.401 39.5368 241.054 38.3387C239.83 37.1406 238.116 36.5416 236.156 36.5416C234.075 36.5416 232.483 37.1406 231.136 38.3387C229.912 39.5368 229.177 40.9745 229.177 42.8914C229.177 44.8083 229.912 46.246 231.136 47.4441C232.483 48.6422 234.075 49.2412 236.156 49.2412Z" fill="#3CAFFF"/>
<path fill-rule="evenodd" clip-rule="evenodd" d="M57.5109 69.968C75.8776 59.5447 82.1222 36.6613 71.592 18.6901C60.9394 0.838639 37.5525 -5.27159 19.1859 5.03193C2.28856 14.6166 -4.32343 34.984 3.14567 52.2364L13.9208 46.1262C9.63522 34.7444 14.2881 21.6853 25.4305 15.4552C37.7974 8.38656 53.7152 12.5798 60.9394 24.8003C62.2863 27.0767 62.0414 29.8322 59.47 31.2699L28.4916 48.762C33.267 52.7156 40.2463 53.5543 46.0012 50.3195C49.0623 48.5223 51.2663 45.8866 52.4907 42.8913C53.4703 40.615 55.9192 39.2971 58.368 39.7763H58.8578C60.3272 40.1358 61.5516 40.9744 62.4087 42.4121C63.1434 43.73 63.2658 45.1677 62.6536 46.6054C60.572 51.877 56.7763 56.5495 51.3887 59.5447C40.4912 65.7747 26.7774 63.2588 18.8185 54.2731L8.04345 60.3834C19.5532 75 40.7361 79.4329 57.5109 69.968ZM23.5939 40.7348L48.6949 26.5974C43.9196 22.2843 36.6954 21.3259 30.8181 24.6805C24.9408 27.9153 22.247 34.5048 23.5939 40.7348Z" fill="#3CAFFF"/>
</svg>
