<svg width="80" height="80" viewBox="0 0 80 80" fill="none" xmlns="http://www.w3.org/2000/svg">
<path d="M40 80C62.0914 80 80 62.0914 80 40C80 17.9086 62.0914 0 40 0C17.9086 0 0 17.9086 0 40C0 62.0914 17.9086 80 40 80Z" fill="#3CAFFF"/>
<path d="M60.6957 5.76363C60.6957 11.1188 60.6957 16.4739 60.6963 21.829C60.6963 30.1311 60.6969 38.4333 60.6952 46.7354C60.7095 48.3766 60.9953 50.1613 62.0938 51.405C62.6168 52.0115 63.4511 51.9966 64.1661 51.9634C64.506 51.9806 64.8541 51.969 65.2039 51.9575C66.1214 51.9271 67.0516 51.8964 67.8698 52.3824C69.9393 53.6037 70.6064 56.9002 69.0384 58.8307C68.1898 59.7669 67.0218 60.4047 65.7959 60.5443C64.1733 60.7452 62.506 60.7865 60.9093 60.3755C57.9184 59.6378 55.413 57.3267 54.07 54.4516C52.8578 52.0671 52.4572 49.325 52.4138 46.6516C52.4164 31.7559 52.4164 16.8601 52.4149 1.96436C55.3374 2.91772 58.1126 4.1986 60.6957 5.76363Z" fill="white"/>
<path fill-rule="evenodd" clip-rule="evenodd" d="M5.00903 59.3964C3.74158 57.1144 2.69081 54.696 1.88452 52.1683C5.02773 50.3533 8.17024 48.5371 11.3111 46.7183C10.0764 43.5479 9.76699 40.0249 10.3996 36.6962C10.9724 33.4191 12.5722 30.3777 14.7353 27.8829C15.8628 26.6157 17.1865 25.5343 18.5926 24.5943C21.6527 22.5032 25.324 21.1786 29.066 21.2398C31.1172 21.288 33.1722 21.6755 35.0652 22.4943C38.6158 24.053 41.6343 26.7311 43.7607 29.9712C43.8712 30.1448 43.9868 30.3188 44.1033 30.494C44.6747 31.3535 45.2667 32.2439 45.3659 33.2846C45.4975 34.4527 45.11 35.6884 44.2873 36.5293C43.9329 36.9423 43.4591 37.2082 42.9897 37.4716C42.8445 37.553 42.6997 37.6343 42.559 37.7196C40.614 38.8425 38.6689 39.9652 36.7238 41.0878C32.0508 43.7848 27.378 46.4817 22.7071 49.1829C22.8531 49.4693 23.1155 49.66 23.3751 49.8486C23.4755 49.9215 23.5755 49.9942 23.6681 50.0719C25.8876 51.8244 28.8315 52.5796 31.6102 52.1643C33.2912 51.9428 34.9037 51.3027 36.3497 50.4317C38.1083 49.4977 39.4492 47.9583 40.5216 46.3064C40.7404 45.9738 40.9113 45.614 41.082 45.2542C41.3017 44.7916 41.5211 44.3293 41.8425 43.9257C42.6869 42.8707 43.9737 42.1062 45.3444 42.0683C45.8235 42.0446 46.2876 42.1789 46.7481 42.3122C46.8945 42.3546 47.0406 42.3969 47.1867 42.4339C47.9065 42.7421 48.5571 43.2302 49.0221 43.8661C49.7233 44.7497 49.8358 45.9858 49.5224 47.0359C48.4265 50.1343 46.3385 52.7746 43.9862 55.0099C41.6723 57.1348 38.8916 58.7492 35.892 59.6893C32.8483 60.7084 29.5313 60.9748 26.366 60.369C21.9991 59.5906 17.9404 57.1393 15.2036 53.6235C15.1758 53.6142 15.1206 53.5964 15.0933 53.5878C11.7292 55.5194 8.36848 57.4565 5.00903 59.3964ZM19.3877 35.6521C20.297 33.6897 21.9316 32.1632 23.7785 31.0915C25.1409 30.2344 26.7109 29.7102 28.3232 29.6448C30.9544 29.6626 33.5053 30.9555 35.2851 32.8787C29.8113 36.0453 24.3371 39.2095 18.8562 42.3622C18.2672 40.1561 18.507 37.7445 19.3877 35.6521Z" fill="white"/>
</svg>
