<svg width="544" height="226" viewBox="0 0 544 226" fill="none" xmlns="http://www.w3.org/2000/svg">
<path d="M309.549 119.904H247.666C237.046 119.904 228.438 128.513 228.438 139.132V205.436C228.438 216.056 237.046 224.664 247.666 224.664H309.549C320.169 224.664 328.777 216.056 328.777 205.436V139.132C328.777 128.513 320.169 119.904 309.549 119.904Z" stroke="#005AAD" stroke-width="1.3"/>
<path d="M309.549 1H247.665C237.29 1 228.879 9.41082 228.879 19.7861V86.0899C228.879 96.4652 237.29 104.876 247.665 104.876H309.549C319.924 104.876 328.335 96.4652 328.335 86.0899V19.7861C328.335 9.41082 319.924 1 309.549 1Z" fill="#005AAD" fill-opacity="0.1" stroke="#005AAD" stroke-width="1.5"/>
<path d="M247.666 224.223H309.549C319.924 224.223 328.335 215.812 328.335 205.437V139.133C328.335 128.758 319.924 120.347 309.549 120.347L247.666 120.347C237.29 120.347 228.879 128.758 228.879 139.133V205.437C228.879 215.812 237.29 224.223 247.666 224.223Z" fill="#005AAD" fill-opacity="0.1" stroke="#005AAD" stroke-width="1.5"/>
<path d="M424.475 120.347H362.592C352.216 120.347 343.806 128.758 343.806 139.133V205.437C343.806 215.812 352.216 224.223 362.592 224.223H424.475C434.851 224.223 443.261 215.812 443.261 205.437V139.133C443.261 128.758 434.851 120.347 424.475 120.347Z" stroke="white" stroke-width="1.5"/>
<path d="M194.622 120.347H132.739C122.363 120.347 113.953 128.758 113.953 139.133V205.437C113.953 215.812 122.363 224.223 132.739 224.223H194.622C204.998 224.223 213.408 215.812 213.408 205.437V139.133C213.408 128.758 204.998 120.347 194.622 120.347Z" stroke="white" stroke-width="1.5"/>
<path d="M278.572 35.2566L265.828 57.3711L291.351 57.3446L278.572 35.2566ZM280.817 77.249L280.8 55.1477H276.379L276.397 77.249H280.817Z" fill="#005AAD"/>
<path d="M278.642 189.966L291.386 167.851L265.863 167.878L278.642 189.966ZM276.397 147.973L276.414 170.075H280.835L280.817 147.973H276.397Z" fill="#005AAD"/>
<path d="M413.425 174.496L391.324 161.735V187.258L413.425 174.496ZM371.433 176.707H393.534V172.286H371.433V176.707Z" fill="white"/>
<path d="M139.369 170.076L161.47 182.837V157.315L139.369 170.076ZM181.362 167.866H159.26V172.286H181.362V167.866Z" fill="white"/>
<path d="M463.897 167.415V154.706H464.082L473.083 167.415H475.094V151.027H473.048V163.781H472.863L463.864 151.027H461.851V167.415H463.897ZM484.015 156.683C485.981 156.683 487.292 158.113 487.337 160.282H480.509C480.658 158.113 482.038 156.683 484.015 156.683ZM487.28 164.246C486.762 165.326 485.683 165.905 484.084 165.905C481.981 165.905 480.613 164.372 480.509 161.953V161.862H489.418V161.112C489.418 157.307 487.384 154.956 484.039 154.956C480.635 154.956 478.451 157.454 478.451 161.306C478.451 165.178 480.601 167.63 484.039 167.63C486.752 167.63 488.683 166.336 489.258 164.246H487.28ZM496.442 162.827L499.373 167.45H501.718L497.455 161.248L501.661 155.206H499.42L496.511 159.761H496.326L493.384 155.206H491.027L495.316 161.327L491.074 167.45H493.315L496.258 162.827H496.442ZM505.236 152.004V155.173H503.236V156.807H505.236V164.234C505.236 166.574 506.26 167.506 508.812 167.506C509.203 167.506 509.581 167.46 509.972 167.392V165.746C509.605 165.779 509.409 165.791 509.054 165.791C507.765 165.791 507.213 165.178 507.213 163.736V156.807H509.972V155.173H507.213V152.004H505.236ZM461.058 190.27C461.276 193.098 463.701 194.937 467.219 194.937C471.013 194.937 473.417 193.018 473.417 190.008C473.417 187.601 472.037 186.283 468.6 185.432L466.864 184.978C464.576 184.399 463.668 183.66 463.668 182.377C463.668 180.718 465.127 179.628 467.335 179.628C469.405 179.628 470.807 180.627 471.094 182.309H473.175C473.003 179.661 470.611 177.777 467.403 177.777C463.897 177.777 461.541 179.661 461.541 182.445C461.541 184.773 462.84 186.112 465.84 186.862L467.966 187.407C470.254 187.975 471.29 188.861 471.29 190.258C471.29 191.882 469.646 193.075 467.415 193.075C465.059 193.075 463.403 191.985 463.15 190.27H461.058ZM486.636 182.309H484.659V189.555C484.659 191.7 483.464 192.983 481.278 192.983C479.303 192.983 478.475 191.962 478.475 189.758V182.309H476.497V190.235C476.497 193.133 477.945 194.767 480.727 194.767C482.624 194.767 483.947 193.995 484.567 192.633H484.751V194.551H486.636V182.309ZM496.523 194.767C499.662 194.767 501.718 192.257 501.718 188.43C501.718 184.579 499.672 182.092 496.523 182.092C494.822 182.092 493.315 182.922 492.638 184.24H492.454V177.448H490.476V194.551H492.361V192.598H492.546C493.327 193.96 494.798 194.767 496.523 194.767ZM496.064 183.852C498.328 183.852 499.672 185.567 499.672 188.43C499.672 191.291 498.328 193.007 496.064 193.007C493.809 193.007 492.407 191.258 492.407 188.43C492.407 185.602 493.809 183.852 496.064 183.852ZM505.65 179.14V182.309H503.65V183.943H505.65V191.371C505.65 193.71 506.674 194.643 509.226 194.643C509.617 194.643 509.995 194.596 510.386 194.528V192.883C510.019 192.916 509.823 192.927 509.468 192.927C508.179 192.927 507.627 192.315 507.627 190.873V183.943H510.386V182.309H507.627V179.14H505.65ZM513.421 194.551H515.399V182.309H513.421V194.551ZM514.41 179.946C515.169 179.946 515.789 179.332 515.789 178.584C515.789 177.834 515.169 177.221 514.41 177.221C513.651 177.221 513.031 177.834 513.031 178.584C513.031 179.332 513.651 179.946 514.41 179.946ZM519.997 179.14V182.309H517.996V183.943H519.997V191.371C519.997 193.71 521.02 194.643 523.572 194.643C523.963 194.643 524.343 194.596 524.734 194.528V192.883C524.365 192.916 524.171 192.927 523.813 192.927C522.526 192.927 521.975 192.315 521.975 190.873V183.943H524.734V182.309H521.975V179.14H519.997ZM527.837 194.551H529.815V177.448H527.837V194.551ZM538.597 183.819C540.563 183.819 541.873 185.25 541.92 187.419H535.091C535.24 185.25 536.621 183.819 538.597 183.819ZM541.862 191.382C541.346 192.462 540.265 193.042 538.666 193.042C536.562 193.042 535.195 191.508 535.091 189.089V188.998H544V188.248C544 184.443 541.965 182.092 538.62 182.092C535.218 182.092 533.033 184.591 533.033 188.442C533.033 192.315 535.183 194.767 538.62 194.767C541.334 194.767 543.264 193.472 543.839 191.382H541.862Z" fill="white"/>
<path d="M346.029 44.31H350.008C352.141 44.31 353.425 45.4956 353.425 47.4859C353.425 49.5213 352.221 50.6598 350.1 50.6598H346.029V44.31ZM346.029 52.499H350.1L353.642 59.0666H356.063L352.233 52.1771C354.308 51.5215 355.558 49.7274 355.558 47.4152C355.558 44.4258 353.472 42.4708 350.284 42.4708H343.964V59.0666H346.029V52.499ZM363.643 48.1984C365.604 48.1984 366.912 49.647 366.957 51.8434H360.146C360.295 49.647 361.671 48.1984 363.643 48.1984ZM366.9 55.8574C366.383 56.9507 365.305 57.5376 363.712 57.5376C361.614 57.5376 360.248 55.985 360.146 53.5353V53.4431H369.033V52.6835C369.033 48.8304 367.004 46.4495 363.667 46.4495C360.271 46.4495 358.093 48.9796 358.093 52.8798C358.093 56.8015 360.238 59.2845 363.667 59.2845C366.372 59.2845 368.299 57.9733 368.873 55.8574H366.9ZM378.15 46.4495C376.465 46.4495 374.985 47.3131 374.193 48.7382H374.01V46.6693H372.13V63.2063H374.103V57.2039H374.285C374.962 58.5151 376.385 59.2845 378.15 59.2845C381.291 59.2845 383.344 56.7426 383.344 52.868C383.344 48.9678 381.303 46.4495 378.15 46.4495ZM377.68 57.5022C375.455 57.5022 374.044 55.7082 374.044 52.868C374.044 50.016 375.455 48.2318 377.692 48.2318C379.951 48.2318 381.303 49.9689 381.303 52.868C381.303 55.7651 379.95 57.5022 377.68 57.5022ZM391.373 48.1984C393.334 48.1984 394.641 49.647 394.686 51.8434H387.875C388.024 49.647 389.4 48.1984 391.373 48.1984ZM394.629 55.8574C394.113 56.9507 393.034 57.5376 391.441 57.5376C389.343 57.5376 387.977 55.985 387.875 53.5353V53.4431H396.763V52.6835C396.763 48.8304 394.733 46.4495 391.394 46.4495C388 46.4495 385.822 48.9796 385.822 52.8798C385.822 56.8015 387.967 59.2845 391.394 59.2845C394.101 59.2845 396.029 57.9733 396.602 55.8574H394.629ZM403.665 57.5493C402.233 57.5493 401.166 56.8133 401.166 55.5473C401.166 54.3048 401.992 53.6492 403.873 53.5236L407.198 53.3037V54.4441C407.198 56.2146 405.695 57.5493 403.665 57.5493ZM403.299 59.2845C404.949 59.2845 406.304 58.5602 407.106 57.2373H407.29V59.0666H409.171V50.5793C409.171 48.0021 407.484 46.4495 404.468 46.4495C401.832 46.4495 399.88 47.7607 399.618 49.751H401.612C401.888 48.7735 402.92 48.2102 404.399 48.2102C406.245 48.2102 407.198 49.0483 407.198 50.5793V51.706L403.63 51.9239C400.753 52.0966 399.125 53.3744 399.125 55.5924C399.125 57.8595 400.902 59.2845 403.299 59.2845ZM413.643 43.4601V46.6693H411.647V48.324H413.643V55.8456C413.643 58.2148 414.663 59.1589 417.209 59.1589C417.599 59.1589 417.978 59.1118 418.368 59.0431V57.3766C418 57.41 417.806 57.4218 417.45 57.4218C416.166 57.4218 415.616 56.8015 415.616 55.3412V48.324H418.368V46.6693H415.616V43.4601H413.643Z" fill="#005AAD"/>
<path d="M0 150.781V167.716H2.08582V161.671H6.29108C9.43069 161.671 11.6668 159.43 11.6668 156.261C11.6668 153.034 9.47617 150.781 6.31481 150.781H0ZM2.08582 152.657H5.76913C8.19106 152.657 9.5236 153.937 9.5236 156.261C9.5236 158.502 8.14559 159.794 5.76913 159.794H2.08582V152.657ZM14.8281 167.716H16.821V159.876C16.821 158.092 18.201 156.802 20.099 156.802C20.4945 156.802 21.2121 156.872 21.3743 156.918V154.901C21.1192 154.865 20.702 154.841 20.3778 154.841C18.721 154.841 17.2856 155.71 16.914 156.942H16.7281V155.065H14.8281V167.716ZM28.4997 156.625C30.4787 156.625 31.7994 158.104 31.8469 160.345H24.9646C25.1169 158.104 26.5068 156.625 28.4997 156.625ZM31.7895 164.441C31.2676 165.557 30.1782 166.156 28.5689 166.156C26.4475 166.156 25.0694 164.571 24.9646 162.072V161.977H33.9426V161.202C33.9426 157.27 31.8923 154.841 28.5214 154.841C25.0931 154.841 22.8926 157.423 22.8926 161.403C22.8926 165.405 25.0576 167.938 28.5214 167.938C31.2557 167.938 33.2012 166.6 33.7805 164.441H31.7895ZM47.0348 155.065H44.9015L41.4851 165.487H41.2993L37.8829 155.065H35.7496L40.3721 167.716H42.4124L47.0348 155.065ZM49.7454 167.716H51.7363V155.065H49.7454V167.716ZM50.7419 152.623C51.505 152.623 52.1318 151.988 52.1318 151.215C52.1318 150.44 51.505 149.807 50.7419 149.807C49.9767 149.807 49.35 150.44 49.35 151.215C49.35 151.988 49.9767 152.623 50.7419 152.623ZM60.6688 167.938C64.2256 167.938 66.4261 165.451 66.4261 161.391C66.4261 157.318 64.2256 154.841 60.6688 154.841C57.112 154.841 54.9115 157.318 54.9115 161.391C54.9115 165.451 57.112 167.938 60.6688 167.938ZM60.6688 166.12C58.3062 166.12 56.9736 164.383 56.9736 161.391C56.9736 158.386 58.3062 156.659 60.6688 156.659C63.0314 156.659 64.364 158.386 64.364 161.391C64.364 164.383 63.0314 166.12 60.6688 166.12ZM79.6567 155.065H77.6638V162.552C77.6638 164.77 76.4578 166.096 74.2573 166.096C72.2644 166.096 71.4301 165.04 71.4301 162.763V155.065H69.4392V163.255C69.4392 166.25 70.8982 167.938 73.7017 167.938C75.6136 167.938 76.9442 167.141 77.5709 165.733H77.7568V167.716H79.6567V155.065ZM83.1186 158.526C83.1186 160.357 84.1862 161.379 86.5251 161.953L88.6683 162.482C90.0008 162.811 90.6493 163.398 90.6493 164.265C90.6493 165.427 89.4453 166.238 87.7647 166.238C86.1653 166.238 85.1708 165.557 84.8347 164.489H82.7845C83.0039 166.59 84.9158 167.938 87.6955 167.938C90.5327 167.938 92.6996 166.378 92.6996 164.113C92.6996 162.294 91.5647 161.26 89.214 160.686L87.2902 160.217C85.8193 159.852 85.1234 159.313 85.1234 158.444C85.1234 157.318 86.2819 156.555 87.7647 156.555C89.2713 156.555 90.244 157.224 90.5109 158.234H92.4801C92.2132 156.157 90.3943 154.841 87.7766 154.841C85.1234 154.841 83.1186 156.425 83.1186 158.526ZM9.11831 191.334C9.33777 194.256 11.7814 196.157 15.3264 196.157C19.15 196.157 21.572 194.174 21.572 191.063C21.572 188.576 20.1821 187.213 16.7182 186.334L14.9685 185.865C12.6632 185.267 11.7478 184.503 11.7478 183.177C11.7478 181.463 13.2188 180.337 15.443 180.337C17.5288 180.337 18.9424 181.369 19.2311 183.107H21.3288C21.1548 180.371 18.7447 178.424 15.5122 178.424C11.9791 178.424 9.60466 180.371 9.60466 183.248C9.60466 185.653 10.9135 187.037 13.9365 187.812L16.0796 188.375C18.3849 188.962 19.4288 189.878 19.4288 191.322C19.4288 193 17.772 194.232 15.5241 194.232C13.1496 194.232 11.4809 193.106 11.2259 191.334H9.11831ZM34.8935 183.107H32.9007V190.595C32.9007 192.812 31.6966 194.138 29.4941 194.138C27.5032 194.138 26.6689 193.082 26.6689 190.805V183.107H24.676V191.298C24.676 194.292 26.1351 195.981 28.9386 195.981C30.8504 195.981 32.183 195.183 32.8077 193.775H32.9936V195.758H34.8935V183.107ZM44.8561 195.981C48.0194 195.981 50.0914 193.387 50.0914 189.433C50.0914 185.453 48.0293 182.883 44.8561 182.883C43.1419 182.883 41.6236 183.74 40.9415 185.102H40.7556V178.084H38.7627V195.758H40.6627V193.739H40.8485C41.6354 195.147 43.1182 195.981 44.8561 195.981ZM44.3935 184.702C46.675 184.702 48.0293 186.474 48.0293 189.433C48.0293 192.389 46.675 194.162 44.3935 194.162C42.1218 194.162 40.7082 192.355 40.7082 189.433C40.7082 186.51 42.1218 184.702 44.3935 184.702ZM54.0535 179.832V183.107H52.0388V184.796H54.0535V192.471C54.0535 194.889 55.0855 195.852 57.6577 195.852C58.0512 195.852 58.4327 195.804 58.8261 195.734V194.034C58.4564 194.068 58.2587 194.08 57.9009 194.08C56.602 194.08 56.0464 193.447 56.0464 191.957V184.796H58.8261V183.107H56.0464V179.832H54.0535ZM61.8847 195.758H63.8776V183.107H61.8847V195.758ZM62.8812 180.666C63.6463 180.666 64.2711 180.031 64.2711 179.258C64.2711 178.482 63.6463 177.849 62.8812 177.849C62.116 177.849 61.4913 178.482 61.4913 179.258C61.4913 180.031 62.116 180.666 62.8812 180.666ZM68.5119 179.832V183.107H66.4953V184.796H68.5119V192.471C68.5119 194.889 69.542 195.852 72.1141 195.852C72.5076 195.852 72.8911 195.804 73.2846 195.734V194.034C72.9129 194.068 72.7172 194.08 72.3573 194.08C71.0604 194.08 70.5048 193.447 70.5048 191.957V184.796H73.2846V183.107H70.5048V179.832H68.5119ZM76.4123 195.758H78.4052V178.084H76.4123V195.758ZM87.2547 184.668C89.2357 184.668 90.5564 186.146 90.6038 188.387H83.7216C83.8719 186.146 85.2618 184.668 87.2547 184.668ZM90.5445 192.483C90.0245 193.599 88.9352 194.198 87.3238 194.198C85.2044 194.198 83.8264 192.614 83.7216 190.114V190.02H92.6996V189.245C92.6996 185.313 90.6493 182.883 87.2784 182.883C83.8501 182.883 81.6476 185.465 81.6476 189.445C81.6476 193.447 83.8145 195.981 87.2784 195.981C90.0127 195.981 91.9581 194.643 92.5374 192.483H90.5445Z" fill="white"/>
</svg>
