<svg width="350" height="378" viewBox="0 0 350 378" fill="none" xmlns="http://www.w3.org/2000/svg">
<g clip-path="url(#clip0)">
<rect width="350" height="378" fill="white"/>
<text fill="#333333" xml:space="preserve" style="white-space: pre" font-family="Montserrat" font-size="16" font-weight="bold" letter-spacing="0em"><tspan x="67" y="97.736">YOUR WORDS REPEAT GAMES</tspan></text>
<text fill="#333333" xml:space="preserve" style="white-space: pre" font-family="Montserrat" font-size="24" font-weight="800" letter-spacing="0em"><tspan x="42.0977" y="101.104">4</tspan></text>
<path d="M47 39H295" stroke="url(#paint0_linear)" stroke-width="4" stroke-linecap="round" stroke-dasharray="1 8"/>
<circle cursor="pointer" id="stepA" cx="55" cy="39" r="15" fill="#C4C4C4"/>
<circle cursor="pointer" id="stepB" cx="135" cy="39" r="15" fill="#C4C4C4"/>
<circle cursor="pointer" id="stepC" cx="215" cy="39" r="15" fill="#C4C4C4"/>
<text cursor="pointer" id="stepAText" fill="white" xml:space="preserve" style="white-space: pre" font-family="Montserrat" font-size="24" font-weight="800" letter-spacing="0em"><tspan onselectstart="return false" x="50.1367" y="47.104">1</tspan></text>
<text cursor="pointer" id="stepBText" fill="white" xml:space="preserve" style="white-space: pre" font-family="Montserrat" font-size="24" font-weight="800" letter-spacing="0em"><tspan onselectstart="return false" x="127.816" y="47.104">2</tspan></text>
<text cursor="pointer" id="stepCText" fill="white" xml:space="preserve" style="white-space: pre" font-family="Montserrat" font-size="24" font-weight="800" letter-spacing="0em"><tspan onselectstart="return false" x="207.77" y="47.104">3</tspan></text>
<circle cursor="pointer" id="stepD" cx="295" cy="39" r="15" fill="url(#paint1_linear)"/>
<text cursor="pointer" id="stepDText" fill="white" xml:space="preserve" style="white-space: pre" font-family="Montserrat" font-size="24" font-weight="800" letter-spacing="0em"><tspan onselectstart="return false" x="286.598" y="47.104">4</tspan></text>
<g filter="url(#filter0_d)">
<rect x="87" y="251" width="175" height="40" rx="5" fill="#6078F4"/>
</g>
<g filter="url(#filter1_d)">
<rect x="87" y="147" width="175" height="40" rx="5" fill="#6078F4"/>
</g>
<path d="M100.4 155C99.7391 155 99.2 155.539 99.2 156.2V173.6C99.2 174.261 99.7391 174.8 100.4 174.8H109.4V176.6H107.6C106.609 176.6 105.8 177.409 105.8 178.4V179.6H120.2V178.4C120.2 177.409 119.391 176.6 118.4 176.6H116.6V174.8H125.6C126.261 174.8 126.8 174.261 126.8 173.6V156.2C126.8 155.539 126.261 155 125.6 155H100.4ZM100.4 156.2H125.6V173.6H100.4V171.2H125.6V170H100.4V156.2ZM122.6 171.8V173H123.8V171.8H122.6ZM110.6 174.8H115.4V176.6H110.6V174.8ZM107.6 177.8H118.4C118.73 177.8 119 178.07 119 178.4H107C107 178.07 107.27 177.8 107.6 177.8V177.8Z" fill="white"/>
<text fill="#333333" xml:space="preserve" style="white-space: pre" font-family="Montserrat" font-size="16" font-weight="bold" letter-spacing="0em"><tspan x="156" y="224.736">OR</tspan></text>
<path d="M71.1609 378L79.7171 362.94L62.397 363.06L71.1609 378ZM72.557 364.33C71.0449 351.598 66.8324 333.015 62.5147 312.468C58.1851 291.865 53.7294 269.203 51.6713 248.14C49.6089 227.032 49.9803 207.748 55.1445 193.8C57.7157 186.855 61.4486 181.306 66.5951 177.488C71.7316 173.677 78.3968 171.5 87 171.5V168.5C77.8681 168.5 70.5464 170.821 64.8076 175.078C59.0789 179.329 55.0482 185.419 52.3311 192.758C46.9187 207.377 46.6145 227.235 48.6855 248.432C50.7611 269.673 55.2482 292.477 59.5788 313.085C63.9214 333.75 68.0865 352.126 69.5779 364.684L72.557 364.33Z" fill="url(#paint2_linear)"/>
<circle cx="86.9998" cy="168" r="6.5" fill="white" stroke="url(#paint3_linear)" stroke-width="3"/>
<path d="M262.676 378L257.828 361.372L274.652 365.487L262.676 378ZM264.587 364.132C268.588 357.25 275.028 348.507 281.113 339.373C287.257 330.15 293.113 320.434 296.217 311.314C299.325 302.187 299.571 293.986 295.006 287.475C290.402 280.907 280.599 275.605 262.47 273.087L262.883 270.116C281.284 272.672 292.134 278.151 297.463 285.753C302.833 293.413 302.294 302.774 299.057 312.281C295.818 321.798 289.769 331.791 283.61 341.036C277.391 350.37 271.126 358.853 267.181 365.639L264.587 364.132Z" fill="url(#paint4_linear)"/>
<circle r="6.5" transform="matrix(-1 0 0 1 262 271)" fill="white" stroke="url(#paint5_linear)" stroke-width="3"/>
<text fill="white" xml:space="preserve" style="white-space: pre" font-family="Montserrat" font-size="12" font-weight="500" letter-spacing="0em"><tspan x="179.777" y="170.802"> </tspan></text>
<text fill="white" xml:space="preserve" style="white-space: pre" font-family="Montserrat" font-size="12" font-weight="500" letter-spacing="0em"><tspan x="160.77" y="170.802"> on</tspan></text>
<text fill="white" xml:space="preserve" style="white-space: pre" font-family="Montserrat" font-size="12" font-weight="500" letter-spacing="0em"><tspan x="183" y="170.802">Computer</tspan></text>
<text fill="white" xml:space="preserve" style="white-space: pre" font-family="Montserrat" font-size="12" font-weight="500" letter-spacing="0em"><tspan x="135" y="170.802">Play</tspan></text>
<text fill="white" xml:space="preserve" style="white-space: pre" font-family="Montserrat" font-size="12" font-weight="500" letter-spacing="0em"><tspan x="160.77" y="275.802"> on Mobile</tspan></text>
<text fill="white" xml:space="preserve" style="white-space: pre" font-family="Montserrat" font-size="12" font-weight="500" letter-spacing="0em"><tspan x="135" y="275.802">Play</tspan></text>
<rect x="100.5" y="255.5" width="19" height="31" rx="3.5" stroke="white"/>
<rect x="102.5" y="257.5" width="15" height="12" rx="3.5" stroke="white"/>
<rect x="102.5" y="271.5" width="3" height="3" rx="0.5" stroke="white"/>
<rect x="102.5" y="276.5" width="3" height="3" rx="0.5" stroke="white"/>
<rect x="102.5" y="281.5" width="3" height="3" rx="0.5" stroke="white"/>
<rect x="114.5" y="271.5" width="3" height="3" rx="0.5" stroke="white"/>
<rect x="114.5" y="276.5" width="3" height="3" rx="0.5" stroke="white"/>
<rect x="114.5" y="281.5" width="3" height="3" rx="0.5" stroke="white"/>
<rect x="108.5" y="271.5" width="3" height="3" rx="0.5" stroke="white"/>
<rect x="108.5" y="276.5" width="3" height="3" rx="0.5" stroke="white"/>
<rect x="108.5" y="281.5" width="3" height="3" rx="0.5" stroke="white"/>
</g>
<defs>
<filter id="filter0_d" x="86" y="251" width="177" height="42" filterUnits="userSpaceOnUse" color-interpolation-filters="sRGB">
<feFlood flood-opacity="0" result="BackgroundImageFix"/>
<feColorMatrix in="SourceAlpha" type="matrix" values="0 0 0 0 0 0 0 0 0 0 0 0 0 0 0 0 0 0 127 0"/>
<feOffset dy="1"/>
<feGaussianBlur stdDeviation="0.5"/>
<feColorMatrix type="matrix" values="0 0 0 0 0 0 0 0 0 0 0 0 0 0 0 0 0 0 0.25 0"/>
<feBlend mode="normal" in2="BackgroundImageFix" result="effect1_dropShadow"/>
<feBlend mode="normal" in="SourceGraphic" in2="effect1_dropShadow" result="shape"/>
</filter>
<filter id="filter1_d" x="86" y="147" width="177" height="42" filterUnits="userSpaceOnUse" color-interpolation-filters="sRGB">
<feFlood flood-opacity="0" result="BackgroundImageFix"/>
<feColorMatrix in="SourceAlpha" type="matrix" values="0 0 0 0 0 0 0 0 0 0 0 0 0 0 0 0 0 0 127 0"/>
<feOffset dy="1"/>
<feGaussianBlur stdDeviation="0.5"/>
<feColorMatrix type="matrix" values="0 0 0 0 0 0 0 0 0 0 0 0 0 0 0 0 0 0 0.25 0"/>
<feBlend mode="normal" in2="BackgroundImageFix" result="effect1_dropShadow"/>
<feBlend mode="normal" in="SourceGraphic" in2="effect1_dropShadow" result="shape"/>
</filter>
<linearGradient id="paint0_linear" x1="111.818" y1="39" x2="295" y2="39" gradientUnits="userSpaceOnUse">
<stop offset="0.416667" stop-color="#C4C4C4"/>
<stop offset="0.817708" stop-color="#6078F4"/>
<stop offset="1" stop-color="#6078F4"/>
</linearGradient>
<linearGradient id="paint1_linear" x1="288.684" y1="30.5455" x2="290.373" y2="50.1041" gradientUnits="userSpaceOnUse">
<stop stop-color="#6178F5"/>
<stop offset="1" stop-color="#195AA9"/>
</linearGradient>
<linearGradient id="paint2_linear" x1="60" y1="215.382" x2="112.787" y2="327.046" gradientUnits="userSpaceOnUse">
<stop stop-color="#34DD96"/>
<stop offset="1" stop-color="#15C0A1"/>
</linearGradient>
<linearGradient id="paint3_linear" x1="83.6313" y1="163.491" x2="84.5322" y2="173.922" gradientUnits="userSpaceOnUse">
<stop stop-color="#34DD96"/>
<stop offset="1" stop-color="#15C0A1"/>
</linearGradient>
<linearGradient id="paint4_linear" x1="288.957" y1="294.816" x2="273.047" y2="360.868" gradientUnits="userSpaceOnUse">
<stop stop-color="#34DD96"/>
<stop offset="1" stop-color="#15C0A1"/>
</linearGradient>
<linearGradient id="paint5_linear" x1="4.63158" y1="3.49091" x2="5.53246" y2="13.9222" gradientUnits="userSpaceOnUse">
<stop stop-color="#34DD96"/>
<stop offset="1" stop-color="#15C0A1"/>
</linearGradient>
<clipPath id="clip0">
<rect width="350" height="378" fill="white"/>
</clipPath>
</defs>
</svg>
