<svg width="282" height="44" viewBox="0 0 282 44" fill="none" xmlns="http://www.w3.org/2000/svg">
<g id="Group 197">
<path id="Vector 21" d="M12 22H260" stroke="url(#paint0_linear)" stroke-width="4" stroke-linecap="round" stroke-dasharray="1 8"/>
<circle id="Ellipse28" cx="20" cy="22" r="15" fill="url(#paint1_linear)"/>
<circle id="Ellipse29" cx="100" cy="22" r="15" fill="#C4C4C4"/>
<circle id="Ellipse30" cx="180" cy="22" r="15" fill="#C4C4C4"/>
<path id="1" d="M23.1527 13.2V30H18.4007V16.872H15.2807V13.2H23.1527Z" fill="white"/>
<path id="2" d="M106.616 26.232V30H93.5364V27.024L99.8244 21.144C100.432 20.568 100.84 20.08 101.048 19.68C101.256 19.264 101.36 18.848 101.36 18.432C101.36 17.888 101.176 17.464 100.808 17.16C100.44 16.856 99.9044 16.704 99.2004 16.704C98.5764 16.704 98.0004 16.848 97.4724 17.136C96.9604 17.408 96.5364 17.808 96.2004 18.336L92.6724 16.368C93.3284 15.28 94.2484 14.424 95.4324 13.8C96.6164 13.176 98.0164 12.864 99.6324 12.864C100.912 12.864 102.04 13.072 103.016 13.488C104.008 13.904 104.776 14.504 105.32 15.288C105.88 16.056 106.16 16.952 106.16 17.976C106.16 18.888 105.96 19.752 105.56 20.568C105.176 21.368 104.424 22.28 103.304 23.304L100.136 26.232H106.616Z" fill="white"/>
<path id="3" d="M182.202 19.92C183.594 20.208 184.658 20.784 185.394 21.648C186.146 22.496 186.522 23.528 186.522 24.744C186.522 25.736 186.25 26.656 185.706 27.504C185.178 28.352 184.362 29.04 183.258 29.568C182.17 30.08 180.818 30.336 179.202 30.336C178.018 30.336 176.842 30.192 175.674 29.904C174.522 29.616 173.522 29.208 172.674 28.68L174.402 25.104C175.058 25.552 175.794 25.896 176.61 26.136C177.442 26.376 178.258 26.496 179.058 26.496C179.874 26.496 180.522 26.344 181.002 26.04C181.482 25.736 181.722 25.304 181.722 24.744C181.722 23.656 180.866 23.112 179.154 23.112H177.162V20.112L180.162 16.872H173.538V13.2H185.682V16.176L182.202 19.92Z" fill="white"/>
<g id="Group 198">
<circle id="Ellipse31" cx="260" cy="22" r="15" fill="#C4C4C4"/>
<path id="4" d="M268.254 26.784H265.758V30H261.126V26.784H252.246V23.688L259.782 13.2H264.702L257.862 23.016H261.27V20.16H265.758V23.016H268.254V26.784Z" fill="white"/>
</g>
</g>
<defs>
<linearGradient id="paint0_linear" x1="12" y1="22" x2="260" y2="22" gradientUnits="userSpaceOnUse">
<stop stop-color="#C4C4C4"/>
<stop offset="0.0201613" stop-color="#6078F4"/>
<stop offset="0.221774" stop-color="#6078F4"/>
<stop offset="0.375" stop-color="#C4C4C4"/>
<stop offset="1" stop-color="#C4C4C4" stop-opacity="0"/>
</linearGradient>
<linearGradient id="paint1_linear" x1="13.6842" y1="13.5455" x2="15.3734" y2="33.1041" gradientUnits="userSpaceOnUse">
<stop stop-color="#6178F5"/>
<stop offset="1" stop-color="#195AA9"/>
</linearGradient>
</defs>
</svg>
