<svg width="32" height="32" viewBox="0 0 32 32" fill="none" xmlns="http://www.w3.org/2000/svg">
<path d="M0 7.36C0 3.29518 3.29518 0 7.36 0H24.64C28.7048 0 32 3.29518 32 7.36V24.64C32 28.7048 28.7048 32 24.64 32H7.36C3.29518 32 0 28.7048 0 24.64V7.36Z" fill="url(#paint0_linear)"/>
<path d="M13.384 26.2617C13.384 30.7831 13.3362 31.9999 13.1584 31.9999H18.9597C18.7544 31.9999 18.7132 31.0391 18.7132 26.2617V20.5236H20.6532H22.593L22.6921 20.038C22.8619 19.2054 23.3318 16.1269 23.3318 15.8467C23.3318 15.6223 22.9621 15.5799 21.0038 15.5799H18.6757L18.7389 13.4974C18.8315 10.4404 19.3098 9.93002 22.0826 9.93002H23.5094V7.81466V5.69931L23.0209 5.57077C22.7523 5.50015 21.4932 5.43906 20.2231 5.435C18.0985 5.42829 17.8349 5.46448 16.9286 5.88699C15.5227 6.54238 14.7193 7.31765 14.0538 8.66108C13.4811 9.81684 13.4719 9.87511 13.4101 12.7068L13.3474 15.5799H11.234H9.12061V18.0517V20.5236H11.2523H13.384V26.2617Z" fill="white"/>
<defs>
<linearGradient id="paint0_linear" x1="16" y1="0" x2="16" y2="32" gradientUnits="userSpaceOnUse">
<stop stop-color="#19AEFF"/>
<stop offset="1" stop-color="#0062E0"/>
</linearGradient>
</defs>
</svg>
