<svg width="32" height="32" viewBox="0 0 32 32" fill="none" xmlns="http://www.w3.org/2000/svg">
<path d="M0 7.36C0 3.29518 3.29518 0 7.36 0H24.64C28.7048 0 32 3.29518 32 7.36V24.64C32 28.7048 28.7048 32 24.64 32H7.36C3.29518 32 0 28.7048 0 24.64V7.36Z" fill="#45668E"/>
<path fill-rule="evenodd" clip-rule="evenodd" d="M17.4685 13.8725C17.6031 15.353 17.9335 16.5642 18.2026 16.5642C18.4718 16.5642 19.3116 15.4083 20.0688 13.9948C21.4078 11.4964 21.5052 11.4254 23.5881 11.4254C24.7666 11.4254 25.8536 11.6241 26.0034 11.8669C26.1536 12.1096 25.5061 13.4531 24.564 14.8523C23.6224 16.252 22.8521 17.5132 22.8521 17.6551C22.8521 17.7976 23.6302 18.7754 24.5816 19.8281C25.533 20.8814 26.1805 21.9541 26.021 22.2121C25.8614 22.4705 24.7099 22.6819 23.4619 22.6819C21.6828 22.6819 20.9047 22.4059 19.8598 21.405C18.4395 20.044 17.4685 20.1771 17.4685 21.7319C17.4685 22.5175 17.122 22.6819 15.4639 22.6819C13.4235 22.6819 11.2261 21.5073 9.53222 19.5115C8.20934 17.9527 5.22051 12.0905 5.56995 11.7411C5.74369 11.5674 6.73523 11.4254 7.77377 11.4254C9.36289 11.4254 9.73973 11.6295 10.1518 12.7131C10.8879 14.6492 12.5891 16.8574 13.101 16.5412C13.6829 16.1815 13.6741 13.3532 13.0888 12.4277C12.3713 11.2933 13.0041 10.8734 15.1888 11.0324L17.2238 11.1807L17.4685 13.8725Z" fill="white"/>
</svg>
