<svg width="42" height="35" viewBox="0 0 42 35" fill="none" xmlns="http://www.w3.org/2000/svg">
<path fill-rule="evenodd" clip-rule="evenodd" d="M4.06916 32.4243C3.47784 31.6394 2.92694 30.8115 2.42098 29.9417C1.8048 28.8823 1.27624 27.7966 0.833038 26.6928C1.51321 26.3 2.50594 25.7298 3.89311 24.9349C4.25853 24.7255 4.9893 24.3043 5.51705 23.9988C6.04486 23.6933 7.02475 23.1281 7.69461 22.7427L8.41282 22.3291C8.38482 22.2629 8.3575 22.1975 8.33094 22.1328C7.65452 20.3373 7.29791 18.0873 7.36743 16.0515C7.4472 13.7149 7.88364 11.8958 8.85342 9.85833C10.2179 6.99138 12.128 4.82085 14.8695 3.02175C17.1061 1.55392 19.5554 0.574098 21.7367 0.274374C22.7129 0.14032 24.7266 0.139568 25.7374 0.272938C28.4098 0.625588 31.0139 1.85986 33.4135 3.91116C33.8321 4.26893 34.3862 4.79121 34.645 5.07188C35.8259 6.35266 37.189 8.24654 37.7184 9.34212C38.206 10.3512 38.2067 11.3723 37.7202 12.365C37.3465 13.1278 36.8244 13.5977 35.5032 14.3599C34.8942 14.7114 33.7316 15.3814 32.9197 15.8489C29.1211 18.0361 28.4602 18.417 26.9407 19.2946C24.3402 20.7969 20.4896 23.0154 19.9282 23.3349C19.6441 23.4967 19.1012 23.8107 18.7219 24.0328L18.0323 24.4365L18.316 24.7284C18.9962 25.4286 20.2363 26.1988 21.3709 26.6258C22.6996 27.1259 23.0562 27.1847 24.7631 27.1847C26.175 27.1847 26.3283 27.1711 27.0514 26.9826C28.0083 26.7332 28.7337 26.4571 29.6806 25.9819C31.8353 24.9005 33.4143 23.2521 34.6845 20.7575C35.0338 20.0716 35.1899 19.8528 35.6178 19.4497C36.6582 18.4694 37.8273 18.1198 39.0792 18.4144C41.164 18.9053 42.2557 20.6701 41.6333 22.5428C40.6659 25.4537 37.5795 29.184 34.4329 31.2455C33.6729 31.7434 32.0402 32.583 31.0374 32.9914C27.5359 34.4179 23.9043 34.6979 20.3743 33.8138C18.9605 33.4598 17.3416 32.798 16.1558 32.0897C14.5129 31.1081 12.6848 29.4913 11.6271 28.0844L11.6198 28.0747L11.5699 28.1035C8.96938 29.6057 5.11878 31.8243 4.55744 32.1438C4.43267 32.2148 4.25799 32.3151 4.06916 32.4243ZM27.8999 8.71522C26.948 8.07364 25.965 7.64443 24.8 7.36165C23.121 6.95409 21.2138 7.31808 19.3325 8.40518C16.8315 9.85047 15.3935 11.6044 14.7566 13.9871C14.4925 14.9745 14.4231 16.7918 14.6086 17.8573C14.7375 18.5977 14.8041 18.7411 14.9611 18.6164C15.0428 18.5514 16.1764 17.8953 19.264 16.1261C19.6292 15.9167 20.3601 15.4955 20.8879 15.1899C21.4156 14.8845 22.3955 14.3192 23.0654 13.9338C23.7353 13.5484 24.848 12.9071 25.5382 12.5085C26.2283 12.1101 27.3909 11.4398 28.1217 11.0193C28.8524 10.5987 29.477 10.2283 29.5096 10.1963C29.5911 10.1161 28.5307 9.14033 27.8999 8.71522Z" fill="white"/>
</svg>
