<svg width="147" height="44" viewBox="0 0 147 44" fill="none" xmlns="http://www.w3.org/2000/svg">
<path fill-rule="evenodd" clip-rule="evenodd" d="M72.9608 25.7252C72.9608 25.7252 72.9608 26.1469 72.889 26.8498H61.2519C61.4674 27.8338 61.9702 28.5367 62.7604 29.099C63.5505 29.6613 64.4844 29.8721 65.6337 29.8721C66.4957 29.8721 67.1422 29.8018 67.7888 29.591C68.4353 29.3098 69.0099 28.9584 69.5128 28.4664L71.8833 30.9967C70.4466 32.6133 68.3634 33.3865 65.5619 33.3865C63.8379 33.3865 62.2575 33.1054 60.9645 32.4025C59.5997 31.7699 58.594 30.8562 57.8757 29.6613C57.0855 28.4664 56.7263 27.1309 56.7263 25.6549C56.7263 24.1788 57.0855 22.8434 57.8038 21.6485C58.5222 20.4536 59.5278 19.5399 60.749 18.9073C62.042 18.2044 63.4069 17.853 64.9872 17.853C66.4957 17.853 67.8606 18.2044 69.0818 18.837C70.3029 19.4696 71.2368 20.3833 71.9551 21.5782C72.6735 22.7731 72.9608 24.1086 72.9608 25.7252ZM64.9872 21.1565C63.9816 21.1565 63.1195 21.4376 62.473 21.9999C61.7547 22.5622 61.3237 23.3354 61.18 24.3194H68.7944C68.6508 23.3354 68.2198 22.6325 67.5014 22.0702C66.8549 21.4376 65.9929 21.1565 64.9872 21.1565ZM76.2652 13.5654H80.9344V29.4504H90.9911V33.1756H76.2652V13.5654ZM99.6112 17.853C102.054 17.853 103.849 18.4153 105.142 19.5399C106.435 20.6645 107.082 22.3514 107.082 24.6006V33.1756H102.916V31.2779C102.054 32.6836 100.473 33.3865 98.1745 33.3865C97.0252 33.3865 95.9477 33.1756 95.0857 32.8242C94.2237 32.4025 93.5772 31.9105 93.1461 31.2076C92.6433 30.5047 92.4278 29.7316 92.4278 28.8178C92.4278 27.4121 92.9306 26.3578 94.0082 25.5143C95.0857 24.7411 96.8097 24.3194 99.0365 24.3194H102.628C102.628 23.3354 102.269 22.6325 101.694 22.1405C101.12 21.5782 100.258 21.3673 99.0365 21.3673C98.2464 21.3673 97.3844 21.5079 96.5942 21.7188C95.804 21.9999 95.1575 22.3514 94.5828 22.7731L93.0025 19.6804C93.8645 19.1181 94.8702 18.6964 96.0195 18.345C97.1688 18.0638 98.39 17.853 99.6112 17.853ZM99.3239 30.4344C100.042 30.4344 100.761 30.2939 101.335 29.9424C101.91 29.591 102.341 29.099 102.628 28.3961V26.8498H99.5394C97.6717 26.8498 96.8097 27.4824 96.8097 28.607C96.8097 29.1693 97.0252 29.6613 97.4562 30.0127C97.8872 30.2939 98.5337 30.4344 99.3239 30.4344ZM120.443 17.853C122.383 17.853 123.891 18.4153 125.112 19.5399C126.262 20.6645 126.836 22.3514 126.836 24.5303V33.1756H122.383V25.2332C122.383 24.0383 122.095 23.1245 121.592 22.5622C121.09 21.9296 120.299 21.6485 119.294 21.6485C118.144 21.6485 117.282 21.9999 116.564 22.7028C115.918 23.3354 115.558 24.3897 115.558 25.7252V33.1756H111.105V18.0638H115.343V19.8913C115.989 19.2587 116.708 18.7667 117.57 18.4153C118.432 18.0638 119.437 17.853 120.443 17.853ZM146.95 18.0638V30.6453C146.95 33.4568 146.231 35.4951 144.795 36.8306C143.286 38.1661 141.131 38.8689 138.33 38.8689C136.821 38.8689 135.456 38.6581 134.092 38.3066C132.727 37.9552 131.649 37.4632 130.787 36.7603L132.511 33.5974C133.23 34.1597 134.02 34.5814 135.025 34.8626C136.031 35.1437 136.965 35.3546 137.971 35.3546C139.551 35.3546 140.7 35.0031 141.419 34.3002C142.137 33.5974 142.496 32.6133 142.496 31.2076V30.575C141.347 31.8402 139.695 32.4728 137.611 32.4728C136.247 32.4728 134.954 32.1213 133.732 31.559C132.583 30.9264 131.649 30.083 131.003 28.9584C130.284 27.9041 129.925 26.5686 129.925 25.1629C129.925 23.7571 130.284 22.4217 131.003 21.3673C131.649 20.2427 132.583 19.3993 133.732 18.7667C134.954 18.2044 136.247 17.853 137.611 17.853C139.91 17.853 141.562 18.6261 142.712 20.0319V18.0638H146.95ZM138.545 28.8881C139.695 28.8881 140.7 28.5367 141.419 27.8338C142.209 27.1309 142.568 26.2875 142.568 25.1629C142.568 24.0383 142.209 23.1948 141.419 22.4919C140.7 21.7891 139.695 21.4376 138.545 21.4376C137.324 21.4376 136.39 21.7891 135.6 22.4919C134.882 23.1948 134.451 24.0383 134.451 25.1629C134.451 26.2875 134.882 27.1309 135.6 27.8338C136.39 28.5367 137.324 28.8881 138.545 28.8881Z" fill="white"/>
<path fill-rule="evenodd" clip-rule="evenodd" d="M33.7398 41.0479C44.5149 34.9328 48.1784 21.5079 42.0007 10.9648C35.7512 0.491956 22.0309 -3.09271 11.2558 2.95202C1.34268 8.57502 -2.53636 20.5239 1.84552 30.6453L8.16691 27.0606C5.65272 20.3833 8.38241 12.722 14.9193 9.06703C22.1745 4.92007 31.513 7.38013 35.7512 14.5495C36.5413 15.8849 36.3977 17.5015 34.8891 18.345L16.7151 28.607C19.5167 30.9265 23.6112 31.4185 26.9874 29.5207C28.7833 28.4664 30.0763 26.9201 30.7946 25.1629C31.3693 23.8274 32.806 23.0543 34.2426 23.3354H34.53C35.392 23.5463 36.1103 24.0383 36.6132 24.8817C37.0442 25.6549 37.116 26.4983 36.7568 27.3418C35.5357 30.4344 33.3088 33.1757 30.1481 34.9328C23.7549 38.5878 15.7095 37.1118 11.0403 31.8402L4.71888 35.4249C11.4713 43.9999 23.8985 46.6006 33.7398 41.0479ZM13.8418 23.8977L28.5678 15.6038C25.7662 13.0734 21.528 12.5111 18.08 14.4792C14.632 16.3769 13.0516 20.2428 13.8418 23.8977Z" fill="white"/>
</svg>
