<svg width="21" height="21" viewBox="0 0 21 21" fill="none" xmlns="http://www.w3.org/2000/svg">
<path d="M10.5 1.75C5.67787 1.75 1.75 5.67787 1.75 10.5C1.75 15.3221 5.67787 19.25 10.5 19.25C15.3221 19.25 19.25 15.3221 19.25 10.5C19.25 5.67787 15.3221 1.75 10.5 1.75ZM10.5 3.5C10.797 3.5 11.0879 3.5242 11.375 3.55982V4.38184L8.74317 4.40235C8.26279 4.40585 7.875 4.79697 7.875 5.27735V7H7C6.517 7 6.125 7.39113 6.125 7.875V8.91236L4.35278 7.14014C5.53885 4.9681 7.84268 3.5 10.5 3.5ZM13.125 4.01099C15.6932 5.04644 17.5 7.55357 17.5 10.5C17.5 11.8439 17.1182 13.0931 16.4661 14.1572C16.1911 13.5504 15.5836 13.125 14.875 13.125H14V11.375C14 10.8911 13.608 10.5 13.125 10.5H7.875V8.75H8.75C9.233 8.75 9.625 8.35888 9.625 7.875V6.14551L11.3887 6.13184C12.3459 6.12571 13.125 5.33996 13.125 4.38184L13.125 4.01099ZM3.67944 8.94141L7.875 13.137V14C7.875 14.9651 8.65988 15.75 9.625 15.75V17.4402C6.16505 17.011 3.5 14.0793 3.5 10.5C3.5 9.96303 3.56587 9.44319 3.67944 8.94141ZM9.43189 12.25H12.25V14C12.25 14.4839 12.642 14.875 13.125 14.875H14.875V15.967C13.892 16.7538 12.6915 17.2769 11.375 17.4402V14.875C11.375 14.3911 10.983 14 10.5 14H9.625V12.7747C9.625 12.5805 9.54854 12.4016 9.43189 12.25Z" fill="#195AA9"/>
<path d="M10.5 3.5C10.797 3.5 11.0879 3.5242 11.375 3.55982V4.38184L8.74317 4.40235C8.26279 4.40585 7.875 4.79697 7.875 5.27735V7H7C6.517 7 6.125 7.39113 6.125 7.875V8.91236L4.35278 7.14014C5.53885 4.9681 7.84268 3.5 10.5 3.5Z" fill="#195AA9"/>
<path d="M9.43189 12.25H12.25V14C12.25 14.4839 12.642 14.875 13.125 14.875H14.875V15.967C13.892 16.7538 12.6915 17.2769 11.375 17.4402V14.875C11.375 14.3911 10.983 14 10.5 14H9.625V12.7747C9.625 12.5805 9.54854 12.4016 9.43189 12.25Z" fill="#195AA9"/>
</svg>
