<svg width="45" height="44" viewBox="0 0 45 44" fill="none" xmlns="http://www.w3.org/2000/svg">
<path fill-rule="evenodd" clip-rule="evenodd" d="M33.7398 41.0479C44.5149 34.9328 48.1784 21.5079 42.0007 10.9648C35.7512 0.491956 22.0309 -3.09271 11.2558 2.95202C1.34268 8.57502 -2.53636 20.5239 1.84552 30.6453L8.16691 27.0606C5.65272 20.3833 8.38241 12.722 14.9193 9.06703C22.1745 4.92007 31.513 7.38013 35.7512 14.5495C36.5413 15.8849 36.3977 17.5015 34.8891 18.345L16.7151 28.607C19.5167 30.9265 23.6112 31.4185 26.9874 29.5207C28.7833 28.4664 30.0763 26.9201 30.7946 25.1629C31.3693 23.8274 32.806 23.0543 34.2426 23.3354H34.53C35.392 23.5463 36.1103 24.0383 36.6132 24.8817C37.0442 25.6549 37.116 26.4983 36.7568 27.3418C35.5357 30.4344 33.3088 33.1757 30.1481 34.9328C23.7549 38.5878 15.7095 37.1118 11.0403 31.8402L4.71888 35.4249C11.4713 43.9999 23.8985 46.6006 33.7398 41.0479ZM13.8418 23.8977L28.5678 15.6038C25.7662 13.0734 21.528 12.5111 18.08 14.4792C14.632 16.3769 13.0516 20.2428 13.8418 23.8977Z" fill="#1E4B8E"/>
</svg>
