<svg width="91" height="26" viewBox="0 0 91 26" fill="none" xmlns="http://www.w3.org/2000/svg">
<path fill-rule="evenodd" clip-rule="evenodd" d="M16.9608 12.7252C16.9608 12.7252 16.9608 13.1469 16.889 13.8498H5.25186C5.46736 14.8338 5.9702 15.5367 6.76037 16.099C7.55055 16.6613 8.48439 16.8721 9.63373 16.8721C10.4957 16.8721 11.1422 16.8018 11.7888 16.591C12.4353 16.3098 13.0099 15.9584 13.5128 15.4664L15.8833 17.9967C14.4466 19.6133 12.3634 20.3865 9.5619 20.3865C7.83788 20.3865 6.25753 20.1054 4.96452 19.4025C3.59968 18.7699 2.594 17.8562 1.87566 16.6613C1.08549 15.4664 0.726318 14.1309 0.726318 12.6549C0.726318 11.1788 1.08549 9.84338 1.80383 8.64849C2.52217 7.45361 3.52784 6.53987 4.74902 5.90728C6.04203 5.20441 7.40688 4.85297 8.98723 4.85297C10.4957 4.85297 11.8606 5.20441 13.0818 5.83699C14.3029 6.46958 15.2368 7.38332 15.9551 8.57821C16.6735 9.7731 16.9608 11.1086 16.9608 12.7252ZM8.98723 8.15648C7.98155 8.15648 7.11954 8.43763 6.47304 8.99993C5.7547 9.56223 5.32369 10.3354 5.18003 11.3194H12.7944C12.6508 10.3354 12.2198 9.63252 11.5014 9.07022C10.8549 8.43763 9.9929 8.15648 8.98723 8.15648ZM20.2652 0.56543H24.9344V16.4504H34.9911V20.1756H20.2652V0.56543ZM43.6112 4.85297C46.0536 4.85297 47.8494 5.41527 49.1424 6.53987C50.4354 7.66447 51.0819 9.35137 51.0819 11.6006V20.1756H46.9156V18.2779C46.0536 19.6836 44.4732 20.3865 42.1745 20.3865C41.0252 20.3865 39.9477 20.1756 39.0857 19.8242C38.2237 19.4025 37.5772 18.9105 37.1461 18.2076C36.6433 17.5047 36.4278 16.7316 36.4278 15.8178C36.4278 14.4121 36.9306 13.3578 38.0082 12.5143C39.0857 11.7411 40.8097 11.3194 43.0365 11.3194H46.6282C46.6282 10.3354 46.2691 9.63252 45.6944 9.14051C45.1197 8.57821 44.2577 8.36734 43.0365 8.36734C42.2464 8.36734 41.3844 8.50792 40.5942 8.71878C39.804 8.99993 39.1575 9.35137 38.5828 9.7731L37.0025 6.68044C37.8645 6.11814 38.8702 5.69642 40.0195 5.34498C41.1688 5.06383 42.39 4.85297 43.6112 4.85297ZM43.3239 17.4344C44.0422 17.4344 44.7606 17.2939 45.3352 16.9424C45.9099 16.591 46.3409 16.099 46.6282 15.3961V13.8498H43.5394C41.6717 13.8498 40.8097 14.4824 40.8097 15.607C40.8097 16.1693 41.0252 16.6613 41.4562 17.0127C41.8872 17.2939 42.5337 17.4344 43.3239 17.4344ZM64.4431 4.85297C66.3826 4.85297 67.8911 5.41527 69.1123 6.53987C70.2616 7.66447 70.8363 9.35137 70.8363 11.5303V20.1756H66.3826V12.2332C66.3826 11.0383 66.0952 10.1245 65.5924 9.56223C65.0896 8.92965 64.2994 8.64849 63.2937 8.64849C62.1444 8.64849 61.2824 8.99993 60.564 9.70281C59.9175 10.3354 59.5583 11.3897 59.5583 12.7252V20.1756H55.1046V5.06383H59.3428V6.89131C59.9894 6.25872 60.7077 5.76671 61.5697 5.41527C62.4317 5.06383 63.4374 4.85297 64.4431 4.85297ZM90.9498 5.06383V17.6453C90.9498 20.4568 90.2315 22.4951 88.7948 23.8306C87.2863 25.1661 85.1312 25.8689 82.3297 25.8689C80.8212 25.8689 79.4564 25.6581 78.0915 25.3066C76.7267 24.9552 75.6492 24.4632 74.7872 23.7603L76.5112 20.5974C77.2295 21.1597 78.0197 21.5814 79.0254 21.8626C80.031 22.1437 80.9649 22.3546 81.9706 22.3546C83.5509 22.3546 84.7002 22.0031 85.4186 21.3002C86.1369 20.5974 86.4961 19.6133 86.4961 18.2076V17.575C85.3467 18.8402 83.6946 19.4728 81.6114 19.4728C80.2465 19.4728 78.9535 19.1213 77.7323 18.559C76.583 17.9264 75.6492 17.083 75.0027 15.9584C74.2843 14.9041 73.9251 13.5686 73.9251 12.1629C73.9251 10.7571 74.2843 9.42166 75.0027 8.36734C75.6492 7.24274 76.583 6.39929 77.7323 5.76671C78.9535 5.20441 80.2465 4.85297 81.6114 4.85297C83.9101 4.85297 85.5623 5.62613 86.7116 7.03188V5.06383H90.9498ZM82.5452 15.8881C83.6946 15.8881 84.7002 15.5367 85.4186 14.8338C86.2088 14.1309 86.5679 13.2875 86.5679 12.1629C86.5679 11.0383 86.2088 10.1948 85.4186 9.49195C84.7002 8.78907 83.6946 8.43763 82.5452 8.43763C81.3241 8.43763 80.3902 8.78907 79.6 9.49195C78.8817 10.1948 78.4507 11.0383 78.4507 12.1629C78.4507 13.2875 78.8817 14.1309 79.6 14.8338C80.3902 15.5367 81.3241 15.8881 82.5452 15.8881Z" fill="#1E4B8E"/>
</svg>
