<svg width="64" height="64" viewBox="0 0 64 64" fill="none" xmlns="http://www.w3.org/2000/svg">
<rect x="0.5" y="0.5" width="63" height="63" rx="12.5" fill="white" fill-opacity="0.1" stroke="#3498DB"/>
<path d="M46.2175 17.2634C42.4943 13.4107 37.2737 10.9987 31.5 10.9987C20.1954 10.9987 10.9987 20.1954 10.9987 31.5C10.9987 42.8046 20.1954 52.0013 31.5 52.0013C42.2744 52.0013 51.1333 43.6474 51.9412 33.0765C52.0343 31.8583 51.0368 30.905 49.875 30.905C48.6881 30.905 47.7828 31.8621 47.6829 32.9771C46.9398 41.2717 39.9927 47.7487 31.5 47.7487C22.5095 47.7487 15.2513 40.4905 15.2513 31.5C15.2513 22.5095 22.5095 15.2513 31.5 15.2513C36.821 15.2513 41.5172 17.7828 44.4747 21.7175H39.1562C37.982 21.7175 37.03 22.6695 37.03 23.8438C37.03 25.018 37.982 25.97 39.1562 25.97H49.875C50.2036 25.97 50.47 25.7036 50.47 25.375V14.6562C50.47 13.482 49.518 12.53 48.3438 12.53C47.1695 12.53 46.2175 13.482 46.2175 14.6562V17.2634Z" fill="#3498DB" stroke="#3498DB" stroke-width="1.19" stroke-linejoin="round"/>
<path d="M29.9595 28.0474H32.1343C33.3794 28.0474 34.1597 28.7612 34.1597 29.8984C34.1597 31.0522 33.4209 31.7329 32.1592 31.7329H29.9595V28.0474ZM29.9595 33.6587H32.0098L34.2427 38H37.0815L34.5581 33.2686C35.936 32.7207 36.7329 31.3926 36.7329 29.8652C36.7329 27.4829 35.1143 26.022 32.4829 26.022H27.4526V38H29.9595V33.6587Z" fill="#1890FF"/>
</svg>
