<svg width="336" height="142" viewBox="0 0 336 142" fill="none" xmlns="http://www.w3.org/2000/svg">
<rect x="2.5" y="2.5" width="331" height="137" rx="7.5" fill="white"/>
<path d="M99.8848 51.2627C99.8848 54.6904 99.0156 57.3857 97.2773 59.3486C95.5488 61.3115 93.1416 62.293 90.0557 62.293C86.9014 62.293 84.4648 61.3311 82.7461 59.4072C81.0371 57.4736 80.1826 54.749 80.1826 51.2334C80.1826 47.7471 81.042 45.0469 82.7607 43.1328C84.4795 41.209 86.9209 40.2471 90.085 40.2471C93.1611 40.2471 95.5635 41.2236 97.292 43.1768C99.0205 45.1299 99.8848 47.8252 99.8848 51.2627ZM82.8193 51.2627C82.8193 54.1631 83.4346 56.3652 84.665 57.8691C85.9053 59.3633 87.7021 60.1104 90.0557 60.1104C92.4287 60.1104 94.2207 59.3633 95.4316 57.8691C96.6426 56.375 97.248 54.1729 97.248 51.2627C97.248 48.3818 96.6426 46.1992 95.4316 44.7148C94.2305 43.2207 92.4482 42.4736 90.085 42.4736C87.7119 42.4736 85.9053 43.2256 84.665 44.7295C83.4346 46.2236 82.8193 48.4014 82.8193 51.2627ZM115.134 48.0254H109.919V62H107.487V48.0254H102.331V45.9453H115.134V48.0254ZM127.673 45.9453H130.339L123.41 53.6943L130.91 62H128.068L120.744 53.8701V62H118.312V45.9453H120.744V53.7529L127.673 45.9453ZM141.369 62.293C140.324 62.293 139.367 62.1025 138.498 61.7217C137.639 61.3311 136.916 60.7354 136.33 59.9346H136.154C136.271 60.8721 136.33 61.7607 136.33 62.6006V69.207H133.898V45.9453H135.876L136.213 48.1426H136.33C136.955 47.2637 137.683 46.6289 138.513 46.2383C139.343 45.8477 140.295 45.6523 141.369 45.6523C143.498 45.6523 145.139 46.3799 146.291 47.835C147.453 49.29 148.034 51.3311 148.034 53.958C148.034 56.5947 147.443 58.6455 146.262 60.1104C145.09 61.5654 143.459 62.293 141.369 62.293ZM141.018 47.7178C139.377 47.7178 138.19 48.1719 137.458 49.0801C136.726 49.9883 136.35 51.4336 136.33 53.416V53.958C136.33 56.2139 136.706 57.8301 137.458 58.8066C138.21 59.7734 139.416 60.2568 141.076 60.2568C142.463 60.2568 143.547 59.6953 144.328 58.5723C145.119 57.4492 145.515 55.9014 145.515 53.9287C145.515 51.9268 145.119 50.3936 144.328 49.3291C143.547 48.2549 142.443 47.7178 141.018 47.7178ZM166.154 53.958C166.154 56.5752 165.495 58.6211 164.177 60.0957C162.858 61.5605 161.037 62.293 158.713 62.293C157.277 62.293 156.003 61.9561 154.89 61.2822C153.776 60.6084 152.917 59.6416 152.312 58.3818C151.706 57.1221 151.403 55.6475 151.403 53.958C151.403 51.3408 152.058 49.3047 153.366 47.8496C154.675 46.3848 156.491 45.6523 158.815 45.6523C161.062 45.6523 162.844 46.3994 164.162 47.8936C165.49 49.3877 166.154 51.4092 166.154 53.958ZM153.923 53.958C153.923 56.0088 154.333 57.5713 155.153 58.6455C155.974 59.7197 157.18 60.2568 158.771 60.2568C160.363 60.2568 161.569 59.7246 162.39 58.6602C163.22 57.5859 163.635 56.0186 163.635 53.958C163.635 51.917 163.22 50.3691 162.39 49.3145C161.569 48.25 160.354 47.7178 158.742 47.7178C157.15 47.7178 155.949 48.2402 155.139 49.2852C154.328 50.3301 153.923 51.8877 153.923 53.958ZM172.717 45.9453V56.126L172.614 58.792L172.57 59.627L181.257 45.9453H184.289V62H182.019V52.1855L182.062 50.252L182.136 48.3477L173.464 62H170.432V45.9453H172.717ZM177.302 43.8213C175.495 43.8213 174.177 43.4746 173.347 42.7812C172.517 42.0781 172.053 40.9258 171.955 39.3242H174.24C174.328 40.3398 174.592 41.0479 175.031 41.4482C175.48 41.8486 176.257 42.0488 177.36 42.0488C178.366 42.0488 179.108 41.834 179.587 41.4043C180.075 40.9746 180.373 40.2812 180.48 39.3242H182.78C182.663 40.8672 182.17 42.0049 181.301 42.7373C180.432 43.46 179.099 43.8213 177.302 43.8213ZM204.196 62H201.706V42.7959H194.924V40.584H210.979V42.7959H204.196V62ZM226.154 62H214.216V40.584H226.154V42.7959H216.706V49.6953H225.583V51.8926H216.706V59.7734H226.154V62ZM248.01 51.0869C248.01 54.6221 247.048 57.3271 245.124 59.2021C243.21 61.0674 240.451 62 236.848 62H230.915V40.584H237.478C240.808 40.584 243.396 41.5068 245.241 43.3525C247.087 45.1982 248.01 47.7764 248.01 51.0869ZM245.373 51.1748C245.373 48.3818 244.67 46.2773 243.264 44.8613C241.867 43.4453 239.787 42.7373 237.023 42.7373H233.405V59.8467H236.438C239.406 59.8467 241.638 59.1191 243.132 57.6641C244.626 56.1992 245.373 54.0361 245.373 51.1748ZM55.2656 86.9453V97.126L55.1631 99.792L55.1191 100.627L63.8057 86.9453H66.8379V103H64.5674V93.1855L64.6113 91.252L64.6846 89.3477L56.0127 103H52.9805V86.9453H55.2656ZM92.8096 90.9736C92.8096 92.0186 92.5068 92.8145 91.9014 93.3613C91.3057 93.8984 90.4658 94.2598 89.3818 94.4453V94.5771C90.749 94.7627 91.7451 95.1631 92.3701 95.7783C93.0049 96.3936 93.3223 97.2432 93.3223 98.3271C93.3223 99.8213 92.7705 100.974 91.667 101.784C90.5732 102.595 88.9717 103 86.8623 103H79.7871V86.9453H86.833C90.8174 86.9453 92.8096 88.2881 92.8096 90.9736ZM90.8906 98.166C90.8906 97.2969 90.5586 96.667 89.8945 96.2764C89.2402 95.876 88.1514 95.6758 86.6279 95.6758H82.2188V100.964H86.6865C89.4893 100.964 90.8906 100.031 90.8906 98.166ZM90.4365 91.208C90.4365 90.4268 90.1338 89.875 89.5283 89.5527C88.9326 89.2207 88.0244 89.0547 86.8037 89.0547H82.2188V93.5811H86.335C87.8389 93.5811 88.8984 93.3955 89.5137 93.0244C90.1289 92.6533 90.4365 92.0479 90.4365 91.208ZM99.2988 93.5811H103.679C105.72 93.5811 107.229 93.9619 108.205 94.7236C109.191 95.4756 109.685 96.6035 109.685 98.1074C109.685 99.7188 109.162 100.939 108.117 101.77C107.082 102.59 105.554 103 103.532 103H96.8672V86.9453H99.2988V93.5811ZM114.812 103H112.38V86.9453H114.812V103ZM99.2988 95.6758V100.964H103.415C105.993 100.964 107.282 100.061 107.282 98.2539C107.282 97.3555 106.984 96.7012 106.389 96.291C105.793 95.8809 104.777 95.6758 103.342 95.6758H99.2988ZM119.147 93.376C119.147 89.8604 119.665 87.1211 120.7 85.1582C121.735 83.1855 123.376 81.9551 125.622 81.4668C128.415 80.8711 130.876 80.3877 133.005 80.0166L133.459 82.1553C130.07 82.7217 127.648 83.1709 126.193 83.5029C124.777 83.8252 123.713 84.5869 123 85.7881C122.297 86.9893 121.911 88.625 121.843 90.6953H122.019C122.624 89.875 123.405 89.2305 124.362 88.7617C125.319 88.293 126.32 88.0586 127.365 88.0586C129.338 88.0586 130.876 88.6982 131.979 89.9775C133.083 91.2568 133.635 93.0293 133.635 95.2949C133.635 97.8047 132.995 99.7676 131.716 101.184C130.437 102.59 128.654 103.293 126.369 103.293C124.113 103.293 122.346 102.429 121.066 100.7C119.787 98.9717 119.147 96.5303 119.147 93.376ZM126.589 101.257C129.567 101.257 131.057 99.3574 131.057 95.5586C131.057 91.9355 129.704 90.124 126.999 90.124C126.257 90.124 125.539 90.2803 124.846 90.5928C124.162 90.8955 123.532 91.3008 122.956 91.8086C122.39 92.3164 121.95 92.8389 121.638 93.376C121.638 95.9443 122.043 97.9023 122.854 99.25C123.664 100.588 124.909 101.257 126.589 101.257ZM144.665 103.293C142.292 103.293 140.417 102.57 139.04 101.125C137.673 99.6797 136.989 97.6729 136.989 95.1045C136.989 92.5166 137.624 90.4609 138.894 88.9375C140.173 87.4141 141.887 86.6523 144.035 86.6523C146.047 86.6523 147.639 87.3164 148.811 88.6445C149.982 89.9629 150.568 91.7061 150.568 93.874V95.4121H139.509C139.558 97.2969 140.031 98.7275 140.93 99.7041C141.838 100.681 143.112 101.169 144.753 101.169C146.481 101.169 148.19 100.808 149.88 100.085V102.253C149.021 102.624 148.205 102.888 147.434 103.044C146.672 103.21 145.749 103.293 144.665 103.293ZM144.006 88.6885C142.717 88.6885 141.687 89.1084 140.915 89.9482C140.153 90.7881 139.704 91.9502 139.567 93.4346H147.961C147.961 91.9014 147.619 90.7295 146.936 89.9189C146.252 89.0986 145.275 88.6885 144.006 88.6885ZM162.199 103.293C161.154 103.293 160.197 103.103 159.328 102.722C158.469 102.331 157.746 101.735 157.16 100.935H156.984C157.102 101.872 157.16 102.761 157.16 103.601V110.207H154.729V86.9453H156.706L157.043 89.1426H157.16C157.785 88.2637 158.513 87.6289 159.343 87.2383C160.173 86.8477 161.125 86.6523 162.199 86.6523C164.328 86.6523 165.969 87.3799 167.121 88.835C168.283 90.29 168.864 92.3311 168.864 94.958C168.864 97.5947 168.273 99.6455 167.092 101.11C165.92 102.565 164.289 103.293 162.199 103.293ZM161.848 88.7178C160.207 88.7178 159.021 89.1719 158.288 90.0801C157.556 90.9883 157.18 92.4336 157.16 94.416V94.958C157.16 97.2139 157.536 98.8301 158.288 99.8066C159.04 100.773 160.246 101.257 161.906 101.257C163.293 101.257 164.377 100.695 165.158 99.5723C165.949 98.4492 166.345 96.9014 166.345 94.9287C166.345 92.9268 165.949 91.3936 165.158 90.3291C164.377 89.2549 163.273 88.7178 161.848 88.7178ZM175.412 86.9453V97.126L175.31 99.792L175.266 100.627L183.952 86.9453H186.984V103H184.714V93.1855L184.758 91.252L184.831 89.3477L176.159 103H173.127V86.9453H175.412ZM212.956 90.9736C212.956 92.0186 212.653 92.8145 212.048 93.3613C211.452 93.8984 210.612 94.2598 209.528 94.4453V94.5771C210.896 94.7627 211.892 95.1631 212.517 95.7783C213.151 96.3936 213.469 97.2432 213.469 98.3271C213.469 99.8213 212.917 100.974 211.813 101.784C210.72 102.595 209.118 103 207.009 103H199.934V86.9453H206.979C210.964 86.9453 212.956 88.2881 212.956 90.9736ZM211.037 98.166C211.037 97.2969 210.705 96.667 210.041 96.2764C209.387 95.876 208.298 95.6758 206.774 95.6758H202.365V100.964H206.833C209.636 100.964 211.037 100.031 211.037 98.166ZM210.583 91.208C210.583 90.4268 210.28 89.875 209.675 89.5527C209.079 89.2207 208.171 89.0547 206.95 89.0547H202.365V93.5811H206.481C207.985 93.5811 209.045 93.3955 209.66 93.0244C210.275 92.6533 210.583 92.0479 210.583 91.208ZM219.299 86.9453V97.126L219.196 99.792L219.152 100.627L227.839 86.9453H230.871V103H228.601V93.1855L228.645 91.252L228.718 89.3477L220.046 103H217.014V86.9453H219.299ZM249.973 108.552H247.614V103H236.394V108.552H234.05V100.905H235.31C236.618 99.1279 237.644 97.043 238.386 94.6504C239.128 92.2578 239.514 89.6895 239.543 86.9453H247.673V100.905H249.973V108.552ZM245.329 100.905V88.8643H241.726C241.599 91.0322 241.179 93.2295 240.466 95.4561C239.763 97.6729 238.884 99.4893 237.829 100.905H245.329ZM259.978 103.293C257.604 103.293 255.729 102.57 254.353 101.125C252.985 99.6797 252.302 97.6729 252.302 95.1045C252.302 92.5166 252.937 90.4609 254.206 88.9375C255.485 87.4141 257.199 86.6523 259.348 86.6523C261.359 86.6523 262.951 87.3164 264.123 88.6445C265.295 89.9629 265.881 91.7061 265.881 93.874V95.4121H254.821C254.87 97.2969 255.344 98.7275 256.242 99.7041C257.15 100.681 258.425 101.169 260.065 101.169C261.794 101.169 263.503 100.808 265.192 100.085V102.253C264.333 102.624 263.518 102.888 262.746 103.044C261.984 103.21 261.062 103.293 259.978 103.293ZM259.318 88.6885C258.029 88.6885 256.999 89.1084 256.228 89.9482C255.466 90.7881 255.017 91.9502 254.88 93.4346H263.273C263.273 91.9014 262.932 90.7295 262.248 89.9189C261.564 89.0986 260.588 88.6885 259.318 88.6885ZM283.898 94.958C283.898 97.5752 283.239 99.6211 281.921 101.096C280.603 102.561 278.781 103.293 276.457 103.293C275.021 103.293 273.747 102.956 272.634 102.282C271.521 101.608 270.661 100.642 270.056 99.3818C269.45 98.1221 269.147 96.6475 269.147 94.958C269.147 92.3408 269.802 90.3047 271.11 88.8496C272.419 87.3848 274.235 86.6523 276.56 86.6523C278.806 86.6523 280.588 87.3994 281.906 88.8936C283.234 90.3877 283.898 92.4092 283.898 94.958ZM271.667 94.958C271.667 97.0088 272.077 98.5713 272.897 99.6455C273.718 100.72 274.924 101.257 276.516 101.257C278.107 101.257 279.313 100.725 280.134 99.6602C280.964 98.5859 281.379 97.0186 281.379 94.958C281.379 92.917 280.964 91.3691 280.134 90.3145C279.313 89.25 278.098 88.7178 276.486 88.7178C274.895 88.7178 273.693 89.2402 272.883 90.2852C272.072 91.3301 271.667 92.8877 271.667 94.958Z" fill="black"/>
<rect x="2.5" y="2.5" width="331" height="137" rx="7.5" stroke="#40A9FF" stroke-width="5"/>
</svg>
