<svg width="514" height="142" viewBox="0 0 514 142" fill="none" xmlns="http://www.w3.org/2000/svg">
<rect x="2.5" y="2.5" width="509" height="137" rx="7.5" fill="white"/>
<path d="M83.3281 40.584H89.3779C92.2197 40.584 94.2754 41.0088 95.5449 41.8584C96.8145 42.708 97.4492 44.0508 97.4492 45.8867C97.4492 47.1562 97.0928 48.2061 96.3799 49.0361C95.6768 49.8564 94.6465 50.3887 93.2891 50.6328V50.7793C96.541 51.3359 98.167 53.0449 98.167 55.9062C98.167 57.8203 97.5176 59.3145 96.2188 60.3887C94.9297 61.4629 93.123 62 90.7988 62H83.3281V40.584ZM85.8184 49.7539H89.9199C91.6777 49.7539 92.9424 49.4805 93.7139 48.9336C94.4854 48.377 94.8711 47.4443 94.8711 46.1357C94.8711 44.9346 94.4414 44.0703 93.582 43.543C92.7227 43.0059 91.3555 42.7373 89.4805 42.7373H85.8184V49.7539ZM85.8184 51.8633V59.876H90.2861C92.0146 59.876 93.3135 59.5439 94.1826 58.8799C95.0615 58.2061 95.501 57.1562 95.501 55.7305C95.501 54.4023 95.0518 53.4258 94.1533 52.8008C93.2646 52.1758 91.9072 51.8633 90.0811 51.8633H85.8184ZM104.847 52.5811H109.227C111.268 52.5811 112.776 52.9619 113.753 53.7236C114.739 54.4756 115.232 55.6035 115.232 57.1074C115.232 58.7188 114.71 59.9395 113.665 60.7695C112.63 61.5898 111.102 62 109.08 62H102.415V45.9453H104.847V52.5811ZM120.359 62H117.928V45.9453H120.359V62ZM104.847 54.6758V59.9639H108.963C111.541 59.9639 112.83 59.0605 112.83 57.2539C112.83 56.3555 112.532 55.7012 111.937 55.291C111.341 54.8809 110.325 54.6758 108.89 54.6758H104.847ZM139.476 67.5518H137.117V62H125.896V67.5518H123.553V59.9053H124.812C126.121 58.1279 127.146 56.043 127.889 53.6504C128.631 51.2578 129.017 48.6895 129.046 45.9453H137.176V59.9053H139.476V67.5518ZM134.832 59.9053V47.8643H131.229C131.102 50.0322 130.682 52.2295 129.969 54.4561C129.266 56.6729 128.387 58.4893 127.332 59.9053H134.832ZM149.48 62.293C147.107 62.293 145.232 61.5703 143.855 60.125C142.488 58.6797 141.805 56.6729 141.805 54.1045C141.805 51.5166 142.439 49.4609 143.709 47.9375C144.988 46.4141 146.702 45.6523 148.851 45.6523C150.862 45.6523 152.454 46.3164 153.626 47.6445C154.798 48.9629 155.384 50.7061 155.384 52.874V54.4121H144.324C144.373 56.2969 144.847 57.7275 145.745 58.7041C146.653 59.6807 147.928 60.1689 149.568 60.1689C151.297 60.1689 153.006 59.8076 154.695 59.085V61.2529C153.836 61.624 153.021 61.8877 152.249 62.0439C151.487 62.21 150.564 62.293 149.48 62.293ZM148.821 47.6885C147.532 47.6885 146.502 48.1084 145.73 48.9482C144.969 49.7881 144.52 50.9502 144.383 52.4346H152.776C152.776 50.9014 152.435 49.7295 151.751 48.9189C151.067 48.0986 150.091 47.6885 148.821 47.6885ZM171.512 62H169.051V48.0254H164.231C163.968 51.502 163.602 54.2607 163.133 56.3018C162.664 58.3428 162.054 59.8369 161.302 60.7842C160.56 61.7314 159.612 62.2051 158.46 62.2051C157.933 62.2051 157.513 62.1465 157.2 62.0293V60.2275C157.415 60.2861 157.659 60.3154 157.933 60.3154C159.056 60.3154 159.949 59.1289 160.613 56.7559C161.277 54.3828 161.78 50.7793 162.122 45.9453H171.512V62ZM178.968 45.9453V56.126L178.865 58.792L178.821 59.627L187.508 45.9453H190.54V62H188.27V52.1855L188.313 50.252L188.387 48.3477L179.715 62H176.683V45.9453H178.968ZM212.85 45.9453H215.516L208.587 53.6943L216.087 62H213.245L205.921 53.8701V62H203.489V45.9453H205.921V53.7529L212.85 45.9453ZM216.526 45.9453H219.134L222.649 55.1006C223.421 57.1904 223.899 58.6992 224.085 59.627H224.202C224.329 59.1289 224.593 58.2793 224.993 57.0781C225.403 55.8672 226.731 52.1562 228.978 45.9453H231.585L224.686 64.2266C224.002 66.0332 223.201 67.3125 222.283 68.0645C221.375 68.8262 220.257 69.207 218.929 69.207C218.187 69.207 217.454 69.124 216.731 68.958V67.0098C217.269 67.127 217.869 67.1855 218.533 67.1855C220.203 67.1855 221.395 66.248 222.107 64.373L223.001 62.0879L216.526 45.9453ZM241.663 62.293C240.618 62.293 239.661 62.1025 238.792 61.7217C237.933 61.3311 237.21 60.7354 236.624 59.9346H236.448C236.565 60.8721 236.624 61.7607 236.624 62.6006V69.207H234.192V45.9453H236.17L236.507 48.1426H236.624C237.249 47.2637 237.977 46.6289 238.807 46.2383C239.637 45.8477 240.589 45.6523 241.663 45.6523C243.792 45.6523 245.433 46.3799 246.585 47.835C247.747 49.29 248.328 51.3311 248.328 53.958C248.328 56.5947 247.737 58.6455 246.556 60.1104C245.384 61.5654 243.753 62.293 241.663 62.293ZM241.312 47.7178C239.671 47.7178 238.484 48.1719 237.752 49.0801C237.02 49.9883 236.644 51.4336 236.624 53.416V53.958C236.624 56.2139 237 57.8301 237.752 58.8066C238.504 59.7734 239.71 60.2568 241.37 60.2568C242.757 60.2568 243.841 59.6953 244.622 58.5723C245.413 57.4492 245.809 55.9014 245.809 53.9287C245.809 51.9268 245.413 50.3936 244.622 49.3291C243.841 48.2549 242.737 47.7178 241.312 47.7178ZM259.007 62.293C256.683 62.293 254.881 61.5801 253.602 60.1543C252.332 58.7188 251.697 56.6924 251.697 54.0752C251.697 51.3896 252.342 49.3145 253.631 47.8496C254.93 46.3848 256.775 45.6523 259.168 45.6523C259.939 45.6523 260.711 45.7354 261.482 45.9014C262.254 46.0674 262.859 46.2627 263.299 46.4873L262.552 48.5527C262.015 48.3379 261.429 48.1621 260.794 48.0254C260.159 47.8789 259.598 47.8057 259.109 47.8057C255.848 47.8057 254.217 49.8857 254.217 54.0459C254.217 56.0186 254.612 57.5322 255.403 58.5869C256.204 59.6416 257.386 60.1689 258.948 60.1689C260.286 60.1689 261.658 59.8809 263.064 59.3047V61.458C261.99 62.0146 260.638 62.293 259.007 62.293ZM280.745 53.958C280.745 56.5752 280.086 58.6211 278.768 60.0957C277.449 61.5605 275.628 62.293 273.304 62.293C271.868 62.293 270.594 61.9561 269.48 61.2822C268.367 60.6084 267.508 59.6416 266.902 58.3818C266.297 57.1221 265.994 55.6475 265.994 53.958C265.994 51.3408 266.648 49.3047 267.957 47.8496C269.266 46.3848 271.082 45.6523 273.406 45.6523C275.652 45.6523 277.435 46.3994 278.753 47.8936C280.081 49.3877 280.745 51.4092 280.745 53.958ZM268.514 53.958C268.514 56.0088 268.924 57.5713 269.744 58.6455C270.564 59.7197 271.771 60.2568 273.362 60.2568C274.954 60.2568 276.16 59.7246 276.98 58.6602C277.811 57.5859 278.226 56.0186 278.226 53.958C278.226 51.917 277.811 50.3691 276.98 49.3145C276.16 48.25 274.944 47.7178 273.333 47.7178C271.741 47.7178 270.54 48.2402 269.729 49.2852C268.919 50.3301 268.514 51.8877 268.514 53.958ZM292.493 62.293C291.448 62.293 290.491 62.1025 289.622 61.7217C288.763 61.3311 288.04 60.7354 287.454 59.9346H287.278C287.396 60.8721 287.454 61.7607 287.454 62.6006V69.207H285.022V45.9453H287L287.337 48.1426H287.454C288.079 47.2637 288.807 46.6289 289.637 46.2383C290.467 45.8477 291.419 45.6523 292.493 45.6523C294.622 45.6523 296.263 46.3799 297.415 47.835C298.577 49.29 299.158 51.3311 299.158 53.958C299.158 56.5947 298.567 58.6455 297.386 60.1104C296.214 61.5654 294.583 62.293 292.493 62.293ZM292.142 47.7178C290.501 47.7178 289.314 48.1719 288.582 49.0801C287.85 49.9883 287.474 51.4336 287.454 53.416V53.958C287.454 56.2139 287.83 57.8301 288.582 58.8066C289.334 59.7734 290.54 60.2568 292.2 60.2568C293.587 60.2568 294.671 59.6953 295.452 58.5723C296.243 57.4492 296.639 55.9014 296.639 53.9287C296.639 51.9268 296.243 50.3936 295.452 49.3291C294.671 48.2549 293.567 47.7178 292.142 47.7178ZM317.278 53.958C317.278 56.5752 316.619 58.6211 315.301 60.0957C313.982 61.5605 312.161 62.293 309.837 62.293C308.401 62.293 307.127 61.9561 306.014 61.2822C304.9 60.6084 304.041 59.6416 303.436 58.3818C302.83 57.1221 302.527 55.6475 302.527 53.958C302.527 51.3408 303.182 49.3047 304.49 47.8496C305.799 46.3848 307.615 45.6523 309.939 45.6523C312.186 45.6523 313.968 46.3994 315.286 47.8936C316.614 49.3877 317.278 51.4092 317.278 53.958ZM305.047 53.958C305.047 56.0088 305.457 57.5713 306.277 58.6455C307.098 59.7197 308.304 60.2568 309.896 60.2568C311.487 60.2568 312.693 59.7246 313.514 58.6602C314.344 57.5859 314.759 56.0186 314.759 53.958C314.759 51.917 314.344 50.3691 313.514 49.3145C312.693 48.25 311.478 47.7178 309.866 47.7178C308.274 47.7178 307.073 48.2402 306.263 49.2852C305.452 50.3301 305.047 51.8877 305.047 53.958ZM329.891 59.6562L330.345 58.2939L330.975 56.5654L335.325 45.9746H338.416V62H336.263V48.7432L335.97 49.5928L335.12 51.834L330.975 62H328.938L324.793 51.8047C324.275 50.4961 323.919 49.4756 323.724 48.7432V62H321.556V45.9746H324.529L328.733 56.1553C329.153 57.2295 329.539 58.3965 329.891 59.6562ZM357.825 62.293C355.501 62.293 353.699 61.5801 352.42 60.1543C351.15 58.7188 350.516 56.6924 350.516 54.0752C350.516 51.3896 351.16 49.3145 352.449 47.8496C353.748 46.3848 355.594 45.6523 357.986 45.6523C358.758 45.6523 359.529 45.7354 360.301 45.9014C361.072 46.0674 361.678 46.2627 362.117 46.4873L361.37 48.5527C360.833 48.3379 360.247 48.1621 359.612 48.0254C358.978 47.8789 358.416 47.8057 357.928 47.8057C354.666 47.8057 353.035 49.8857 353.035 54.0459C353.035 56.0186 353.431 57.5322 354.222 58.5869C355.022 59.6416 356.204 60.1689 357.767 60.1689C359.104 60.1689 360.477 59.8809 361.883 59.3047V61.458C360.809 62.0146 359.456 62.293 357.825 62.293ZM377.674 62H375.213V48.0254H370.394C370.13 51.502 369.764 54.2607 369.295 56.3018C368.826 58.3428 368.216 59.8369 367.464 60.7842C366.722 61.7314 365.774 62.2051 364.622 62.2051C364.095 62.2051 363.675 62.1465 363.362 62.0293V60.2275C363.577 60.2861 363.821 60.3154 364.095 60.3154C365.218 60.3154 366.111 59.1289 366.775 56.7559C367.439 54.3828 367.942 50.7793 368.284 45.9453H377.674V62ZM396.702 53.958C396.702 56.5752 396.043 58.6211 394.725 60.0957C393.406 61.5605 391.585 62.293 389.261 62.293C387.825 62.293 386.551 61.9561 385.438 61.2822C384.324 60.6084 383.465 59.6416 382.859 58.3818C382.254 57.1221 381.951 55.6475 381.951 53.958C381.951 51.3408 382.605 49.3047 383.914 47.8496C385.223 46.3848 387.039 45.6523 389.363 45.6523C391.609 45.6523 393.392 46.3994 394.71 47.8936C396.038 49.3877 396.702 51.4092 396.702 53.958ZM384.471 53.958C384.471 56.0088 384.881 57.5713 385.701 58.6455C386.521 59.7197 387.728 60.2568 389.319 60.2568C390.911 60.2568 392.117 59.7246 392.938 58.6602C393.768 57.5859 394.183 56.0186 394.183 53.958C394.183 51.917 393.768 50.3691 392.938 49.3145C392.117 48.25 390.901 47.7178 389.29 47.7178C387.698 47.7178 386.497 48.2402 385.687 49.2852C384.876 50.3301 384.471 51.8877 384.471 53.958ZM414.002 49.9736C414.002 51.0186 413.699 51.8145 413.094 52.3613C412.498 52.8984 411.658 53.2598 410.574 53.4453V53.5771C411.941 53.7627 412.938 54.1631 413.562 54.7783C414.197 55.3936 414.515 56.2432 414.515 57.3271C414.515 58.8213 413.963 59.9736 412.859 60.7842C411.766 61.5947 410.164 62 408.055 62H400.979V45.9453H408.025C412.01 45.9453 414.002 47.2881 414.002 49.9736ZM412.083 57.166C412.083 56.2969 411.751 55.667 411.087 55.2764C410.433 54.876 409.344 54.6758 407.82 54.6758H403.411V59.9639H407.879C410.682 59.9639 412.083 59.0312 412.083 57.166ZM411.629 50.208C411.629 49.4268 411.326 48.875 410.721 48.5527C410.125 48.2207 409.217 48.0547 407.996 48.0547H403.411V52.5811H407.527C409.031 52.5811 410.091 52.3955 410.706 52.0244C411.321 51.6533 411.629 51.0479 411.629 50.208ZM431.917 53.958C431.917 56.5752 431.258 58.6211 429.939 60.0957C428.621 61.5605 426.8 62.293 424.476 62.293C423.04 62.293 421.766 61.9561 420.652 61.2822C419.539 60.6084 418.68 59.6416 418.074 58.3818C417.469 57.1221 417.166 55.6475 417.166 53.958C417.166 51.3408 417.82 49.3047 419.129 47.8496C420.438 46.3848 422.254 45.6523 424.578 45.6523C426.824 45.6523 428.606 46.3994 429.925 47.8936C431.253 49.3877 431.917 51.4092 431.917 53.958ZM419.686 53.958C419.686 56.0088 420.096 57.5713 420.916 58.6455C421.736 59.7197 422.942 60.2568 424.534 60.2568C426.126 60.2568 427.332 59.7246 428.152 58.6602C428.982 57.5859 429.397 56.0186 429.397 53.958C429.397 51.917 428.982 50.3691 428.152 49.3145C427.332 48.25 426.116 47.7178 424.505 47.7178C422.913 47.7178 421.712 48.2402 420.901 49.2852C420.091 50.3301 419.686 51.8877 419.686 53.958ZM55.2031 86.9453V97.126L55.1006 99.792L55.0566 100.627L63.7432 86.9453H66.7754V103H64.5049V93.1855L64.5488 91.252L64.6221 89.3477L55.9502 103H52.918V86.9453H55.2031ZM83.8994 103H81.4385V89.0254H76.6191C76.3555 92.502 75.9893 95.2607 75.5205 97.3018C75.0518 99.3428 74.4414 100.837 73.6895 101.784C72.9473 102.731 72 103.205 70.8477 103.205C70.3203 103.205 69.9004 103.146 69.5879 103.029V101.228C69.8027 101.286 70.0469 101.315 70.3203 101.315C71.4434 101.315 72.3369 100.129 73.001 97.7559C73.665 95.3828 74.168 91.7793 74.5098 86.9453H83.8994V103ZM91.3555 86.9453V97.126L91.2529 99.792L91.209 100.627L99.8955 86.9453H102.928V103H100.657V93.1855L100.701 91.252L100.774 89.3477L92.1025 103H89.0703V86.9453H91.3555ZM122.659 103.293C120.286 103.293 118.411 102.57 117.034 101.125C115.667 99.6797 114.983 97.6729 114.983 95.1045C114.983 92.5166 115.618 90.4609 116.888 88.9375C118.167 87.4141 119.881 86.6523 122.029 86.6523C124.041 86.6523 125.633 87.3164 126.805 88.6445C127.977 89.9629 128.562 91.7061 128.562 93.874V95.4121H117.503C117.552 97.2969 118.025 98.7275 118.924 99.7041C119.832 100.681 121.106 101.169 122.747 101.169C124.476 101.169 126.185 100.808 127.874 100.085V102.253C127.015 102.624 126.199 102.888 125.428 103.044C124.666 103.21 123.743 103.293 122.659 103.293ZM122 88.6885C120.711 88.6885 119.681 89.1084 118.909 89.9482C118.147 90.7881 117.698 91.9502 117.562 93.4346H125.955C125.955 91.9014 125.613 90.7295 124.93 89.9189C124.246 89.0986 123.27 88.6885 122 88.6885ZM142.391 89.0254H135.154V103H132.723V86.9453H142.391V89.0254ZM159.441 94.958C159.441 97.5752 158.782 99.6211 157.464 101.096C156.146 102.561 154.324 103.293 152 103.293C150.564 103.293 149.29 102.956 148.177 102.282C147.063 101.608 146.204 100.642 145.599 99.3818C144.993 98.1221 144.69 96.6475 144.69 94.958C144.69 92.3408 145.345 90.3047 146.653 88.8496C147.962 87.3848 149.778 86.6523 152.103 86.6523C154.349 86.6523 156.131 87.3994 157.449 88.8936C158.777 90.3877 159.441 92.4092 159.441 94.958ZM147.21 94.958C147.21 97.0088 147.62 98.5713 148.44 99.6455C149.261 100.72 150.467 101.257 152.059 101.257C153.65 101.257 154.856 100.725 155.677 99.6602C156.507 98.5859 156.922 97.0186 156.922 94.958C156.922 92.917 156.507 91.3691 155.677 90.3145C154.856 89.25 153.641 88.7178 152.029 88.7178C150.438 88.7178 149.236 89.2402 148.426 90.2852C147.615 91.3301 147.21 92.8877 147.21 94.958ZM173.65 86.9453V92.8047C173.65 94.6797 174.72 95.6172 176.858 95.6172C177.747 95.6172 178.597 95.4805 179.407 95.207C180.218 94.9336 181.136 94.4697 182.161 93.8154V86.9453H184.593V103H182.161V95.7344C181.136 96.4375 180.184 96.9355 179.305 97.2285C178.436 97.5117 177.449 97.6533 176.346 97.6533C174.744 97.6533 173.489 97.2334 172.581 96.3936C171.673 95.5537 171.219 94.416 171.219 92.9805V86.9453H173.65ZM199.637 103L199.153 100.715H199.036C198.235 101.721 197.435 102.404 196.634 102.766C195.843 103.117 194.852 103.293 193.66 103.293C192.068 103.293 190.818 102.883 189.91 102.062C189.012 101.242 188.562 100.075 188.562 98.5615C188.562 95.3193 191.155 93.6201 196.341 93.4639L199.065 93.376V92.3799C199.065 91.1201 198.792 90.1924 198.245 89.5967C197.708 88.9912 196.844 88.6885 195.652 88.6885C194.314 88.6885 192.801 89.0986 191.111 89.9189L190.364 88.0586C191.155 87.6289 192.02 87.292 192.957 87.0479C193.904 86.8037 194.852 86.6816 195.799 86.6816C197.713 86.6816 199.129 87.1064 200.047 87.9561C200.975 88.8057 201.438 90.168 201.438 92.043V103H199.637ZM194.144 101.286C195.657 101.286 196.844 100.871 197.703 100.041C198.572 99.2109 199.007 98.0488 199.007 96.5547V95.1045L196.575 95.207C194.642 95.2754 193.245 95.5781 192.386 96.1152C191.536 96.6426 191.111 97.4678 191.111 98.5908C191.111 99.4697 191.375 100.139 191.902 100.598C192.439 101.057 193.187 101.286 194.144 101.286ZM212.879 103.293C210.555 103.293 208.753 102.58 207.474 101.154C206.204 99.7188 205.569 97.6924 205.569 95.0752C205.569 92.3896 206.214 90.3145 207.503 88.8496C208.802 87.3848 210.647 86.6523 213.04 86.6523C213.812 86.6523 214.583 86.7354 215.354 86.9014C216.126 87.0674 216.731 87.2627 217.171 87.4873L216.424 89.5527C215.887 89.3379 215.301 89.1621 214.666 89.0254C214.031 88.8789 213.47 88.8057 212.981 88.8057C209.72 88.8057 208.089 90.8857 208.089 95.0459C208.089 97.0186 208.484 98.5322 209.275 99.5869C210.076 100.642 211.258 101.169 212.82 101.169C214.158 101.169 215.53 100.881 216.937 100.305V102.458C215.862 103.015 214.51 103.293 212.879 103.293ZM231.585 89.0254H226.37V103H223.938V89.0254H218.782V86.9453H231.585V89.0254ZM237.195 93.5811H242.146C246.248 93.5811 248.299 95.0898 248.299 98.1074C248.299 99.6895 247.762 100.9 246.688 101.74C245.623 102.58 244.061 103 242 103H234.764V86.9453H237.195V93.5811ZM237.195 95.6758V100.964H241.883C243.172 100.964 244.158 100.739 244.842 100.29C245.525 99.8408 245.867 99.1621 245.867 98.2539C245.867 97.3652 245.55 96.7158 244.915 96.3057C244.29 95.8857 243.255 95.6758 241.81 95.6758H237.195ZM255.066 99.5137L255.286 99.8506C255.032 100.827 254.666 101.96 254.188 103.249C253.709 104.548 253.211 105.754 252.693 106.867H250.862C251.126 105.852 251.414 104.597 251.727 103.103C252.049 101.608 252.273 100.412 252.4 99.5137H255.066ZM281.609 108.552H279.251V103H268.03V108.552H265.687V100.905H266.946C268.255 99.1279 269.28 97.043 270.022 94.6504C270.765 92.2578 271.15 89.6895 271.18 86.9453H279.31V100.905H281.609V108.552ZM276.966 100.905V88.8643H273.362C273.235 91.0322 272.815 93.2295 272.103 95.4561C271.399 97.6729 270.521 99.4893 269.466 100.905H276.966ZM296.8 103H294.339V89.0254H289.52C289.256 92.502 288.89 95.2607 288.421 97.3018C287.952 99.3428 287.342 100.837 286.59 101.784C285.848 102.731 284.9 103.205 283.748 103.205C283.221 103.205 282.801 103.146 282.488 103.029V101.228C282.703 101.286 282.947 101.315 283.221 101.315C284.344 101.315 285.237 100.129 285.901 97.7559C286.565 95.3828 287.068 91.7793 287.41 86.9453H296.8V103ZM302.776 103H299.935L304.549 96.2178C303.309 95.9443 302.356 95.417 301.692 94.6357C301.038 93.8447 300.711 92.8535 300.711 91.6621C300.711 90.1973 301.204 89.0449 302.19 88.2051C303.177 87.3652 304.554 86.9453 306.321 86.9453H313.47V103H311.038V96.584H306.98L302.776 103ZM303.084 91.6914C303.084 93.5469 304.432 94.4746 307.127 94.4746H311.038V89.0547H306.629C304.266 89.0547 303.084 89.9336 303.084 91.6914ZM328.865 103H326.434V86.9453H339.91V103H337.449V89.0547H328.865V103ZM351.849 103.293C349.476 103.293 347.601 102.57 346.224 101.125C344.856 99.6797 344.173 97.6729 344.173 95.1045C344.173 92.5166 344.808 90.4609 346.077 88.9375C347.356 87.4141 349.07 86.6523 351.219 86.6523C353.23 86.6523 354.822 87.3164 355.994 88.6445C357.166 89.9629 357.752 91.7061 357.752 93.874V95.4121H346.692C346.741 97.2969 347.215 98.7275 348.113 99.7041C349.021 100.681 350.296 101.169 351.937 101.169C353.665 101.169 355.374 100.808 357.063 100.085V102.253C356.204 102.624 355.389 102.888 354.617 103.044C353.855 103.21 352.933 103.293 351.849 103.293ZM351.189 88.6885C349.9 88.6885 348.87 89.1084 348.099 89.9482C347.337 90.7881 346.888 91.9502 346.751 93.4346H355.145C355.145 91.9014 354.803 90.7295 354.119 89.9189C353.436 89.0986 352.459 88.6885 351.189 88.6885ZM369.383 103.293C368.338 103.293 367.381 103.103 366.512 102.722C365.652 102.331 364.93 101.735 364.344 100.935H364.168C364.285 101.872 364.344 102.761 364.344 103.601V110.207H361.912V86.9453H363.89L364.227 89.1426H364.344C364.969 88.2637 365.696 87.6289 366.526 87.2383C367.356 86.8477 368.309 86.6523 369.383 86.6523C371.512 86.6523 373.152 87.3799 374.305 88.835C375.467 90.29 376.048 92.3311 376.048 94.958C376.048 97.5947 375.457 99.6455 374.275 101.11C373.104 102.565 371.473 103.293 369.383 103.293ZM369.031 88.7178C367.391 88.7178 366.204 89.1719 365.472 90.0801C364.739 90.9883 364.363 92.4336 364.344 94.416V94.958C364.344 97.2139 364.72 98.8301 365.472 99.8066C366.224 100.773 367.43 101.257 369.09 101.257C370.477 101.257 371.561 100.695 372.342 99.5723C373.133 98.4492 373.528 96.9014 373.528 94.9287C373.528 92.9268 373.133 91.3936 372.342 90.3291C371.561 89.2549 370.457 88.7178 369.031 88.7178ZM387.093 103.293C384.72 103.293 382.845 102.57 381.468 101.125C380.101 99.6797 379.417 97.6729 379.417 95.1045C379.417 92.5166 380.052 90.4609 381.321 88.9375C382.601 87.4141 384.314 86.6523 386.463 86.6523C388.475 86.6523 390.066 87.3164 391.238 88.6445C392.41 89.9629 392.996 91.7061 392.996 93.874V95.4121H381.937C381.985 97.2969 382.459 98.7275 383.357 99.7041C384.266 100.681 385.54 101.169 387.181 101.169C388.909 101.169 390.618 100.808 392.308 100.085V102.253C391.448 102.624 390.633 102.888 389.861 103.044C389.1 103.21 388.177 103.293 387.093 103.293ZM386.434 88.6885C385.145 88.6885 384.114 89.1084 383.343 89.9482C382.581 90.7881 382.132 91.9502 381.995 93.4346H390.389C390.389 91.9014 390.047 90.7295 389.363 89.9189C388.68 89.0986 387.703 88.6885 386.434 88.6885ZM410.179 90.9736C410.179 92.0186 409.876 92.8145 409.271 93.3613C408.675 93.8984 407.835 94.2598 406.751 94.4453V94.5771C408.118 94.7627 409.114 95.1631 409.739 95.7783C410.374 96.3936 410.691 97.2432 410.691 98.3271C410.691 99.8213 410.14 100.974 409.036 101.784C407.942 102.595 406.341 103 404.231 103H397.156V86.9453H404.202C408.187 86.9453 410.179 88.2881 410.179 90.9736ZM408.26 98.166C408.26 97.2969 407.928 96.667 407.264 96.2764C406.609 95.876 405.521 95.6758 403.997 95.6758H399.588V100.964H404.056C406.858 100.964 408.26 100.031 408.26 98.166ZM407.806 91.208C407.806 90.4268 407.503 89.875 406.897 89.5527C406.302 89.2207 405.394 89.0547 404.173 89.0547H399.588V93.5811H403.704C405.208 93.5811 406.268 93.3955 406.883 93.0244C407.498 92.6533 407.806 92.0479 407.806 91.208ZM428.094 94.958C428.094 97.5752 427.435 99.6211 426.116 101.096C424.798 102.561 422.977 103.293 420.652 103.293C419.217 103.293 417.942 102.956 416.829 102.282C415.716 101.608 414.856 100.642 414.251 99.3818C413.646 98.1221 413.343 96.6475 413.343 94.958C413.343 92.3408 413.997 90.3047 415.306 88.8496C416.614 87.3848 418.431 86.6523 420.755 86.6523C423.001 86.6523 424.783 87.3994 426.102 88.8936C427.43 90.3877 428.094 92.4092 428.094 94.958ZM415.862 94.958C415.862 97.0088 416.272 98.5713 417.093 99.6455C417.913 100.72 419.119 101.257 420.711 101.257C422.303 101.257 423.509 100.725 424.329 99.6602C425.159 98.5859 425.574 97.0186 425.574 94.958C425.574 92.917 425.159 91.3691 424.329 90.3145C423.509 89.25 422.293 88.7178 420.682 88.7178C419.09 88.7178 417.889 89.2402 417.078 90.2852C416.268 91.3301 415.862 92.8877 415.862 94.958ZM446.316 108.552H443.958V103H432.737V108.552H430.394V100.905H431.653C432.962 99.1279 433.987 97.043 434.729 94.6504C435.472 92.2578 435.857 89.6895 435.887 86.9453H444.017V100.905H446.316V108.552ZM441.673 100.905V88.8643H438.069C437.942 91.0322 437.522 93.2295 436.81 95.4561C436.106 97.6729 435.228 99.4893 434.173 100.905H441.673ZM459.412 103L458.929 100.715H458.812C458.011 101.721 457.21 102.404 456.409 102.766C455.618 103.117 454.627 103.293 453.436 103.293C451.844 103.293 450.594 102.883 449.686 102.062C448.787 101.242 448.338 100.075 448.338 98.5615C448.338 95.3193 450.931 93.6201 456.116 93.4639L458.841 93.376V92.3799C458.841 91.1201 458.567 90.1924 458.021 89.5967C457.483 88.9912 456.619 88.6885 455.428 88.6885C454.09 88.6885 452.576 89.0986 450.887 89.9189L450.14 88.0586C450.931 87.6289 451.795 87.292 452.732 87.0479C453.68 86.8037 454.627 86.6816 455.574 86.6816C457.488 86.6816 458.904 87.1064 459.822 87.9561C460.75 88.8057 461.214 90.168 461.214 92.043V103H459.412ZM453.919 101.286C455.433 101.286 456.619 100.871 457.479 100.041C458.348 99.2109 458.782 98.0488 458.782 96.5547V95.1045L456.351 95.207C454.417 95.2754 453.021 95.5781 452.161 96.1152C451.312 96.6426 450.887 97.4678 450.887 98.5908C450.887 99.4697 451.15 100.139 451.678 100.598C452.215 101.057 452.962 101.286 453.919 101.286Z" fill="black"/>
<rect x="2.5" y="2.5" width="509" height="137" rx="7.5" stroke="#40A9FF" stroke-width="5"/>
</svg>
