<svg width="679" height="142" viewBox="0 0 679 142" fill="none" xmlns="http://www.w3.org/2000/svg">
<rect x="2.5" y="2.5" width="674" height="137" rx="7.5" fill="white"/>
<path d="M69.1631 62H66.6729V42.7959H55.6719V62H53.1816V40.584H69.1631V62ZM88.5576 53.958C88.5576 56.5752 87.8984 58.6211 86.5801 60.0957C85.2617 61.5605 83.4404 62.293 81.1162 62.293C79.6807 62.293 78.4062 61.9561 77.293 61.2822C76.1797 60.6084 75.3203 59.6416 74.7148 58.3818C74.1094 57.1221 73.8066 55.6475 73.8066 53.958C73.8066 51.3408 74.4609 49.3047 75.7695 47.8496C77.0781 46.3848 78.8945 45.6523 81.2188 45.6523C83.4648 45.6523 85.2471 46.3994 86.5654 47.8936C87.8936 49.3877 88.5576 51.4092 88.5576 53.958ZM76.3262 53.958C76.3262 56.0088 76.7363 57.5713 77.5566 58.6455C78.377 59.7197 79.583 60.2568 81.1748 60.2568C82.7666 60.2568 83.9727 59.7246 84.793 58.6602C85.623 57.5859 86.0381 56.0186 86.0381 53.958C86.0381 51.917 85.623 50.3691 84.793 49.3145C83.9727 48.25 82.7568 47.7178 81.1455 47.7178C79.5537 47.7178 78.3525 48.2402 77.542 49.2852C76.7314 50.3301 76.3262 51.8877 76.3262 53.958ZM95.2666 62H92.835V45.9453H106.312V62H103.851V48.0547H95.2666V62ZM118.938 62.293C117.894 62.293 116.937 62.1025 116.067 61.7217C115.208 61.3311 114.485 60.7354 113.899 59.9346H113.724C113.841 60.8721 113.899 61.7607 113.899 62.6006V69.207H111.468V45.9453H113.445L113.782 48.1426H113.899C114.524 47.2637 115.252 46.6289 116.082 46.2383C116.912 45.8477 117.864 45.6523 118.938 45.6523C121.067 45.6523 122.708 46.3799 123.86 47.835C125.022 49.29 125.604 51.3311 125.604 53.958C125.604 56.5947 125.013 58.6455 123.831 60.1104C122.659 61.5654 121.028 62.293 118.938 62.293ZM118.587 47.7178C116.946 47.7178 115.76 48.1719 115.027 49.0801C114.295 49.9883 113.919 51.4336 113.899 53.416V53.958C113.899 56.2139 114.275 57.8301 115.027 58.8066C115.779 59.7734 116.985 60.2568 118.646 60.2568C120.032 60.2568 121.116 59.6953 121.897 58.5723C122.688 57.4492 123.084 55.9014 123.084 53.9287C123.084 51.9268 122.688 50.3936 121.897 49.3291C121.116 48.2549 120.013 47.7178 118.587 47.7178ZM143.724 53.958C143.724 56.5752 143.064 58.6211 141.746 60.0957C140.428 61.5605 138.606 62.293 136.282 62.293C134.847 62.293 133.572 61.9561 132.459 61.2822C131.346 60.6084 130.486 59.6416 129.881 58.3818C129.275 57.1221 128.973 55.6475 128.973 53.958C128.973 51.3408 129.627 49.3047 130.936 47.8496C132.244 46.3848 134.061 45.6523 136.385 45.6523C138.631 45.6523 140.413 46.3994 141.731 47.8936C143.06 49.3877 143.724 51.4092 143.724 53.958ZM131.492 53.958C131.492 56.0088 131.902 57.5713 132.723 58.6455C133.543 59.7197 134.749 60.2568 136.341 60.2568C137.933 60.2568 139.139 59.7246 139.959 58.6602C140.789 57.5859 141.204 56.0186 141.204 53.958C141.204 51.917 140.789 50.3691 139.959 49.3145C139.139 48.25 137.923 47.7178 136.312 47.7178C134.72 47.7178 133.519 48.2402 132.708 49.2852C131.897 50.3301 131.492 51.8877 131.492 53.958ZM147.166 52.376C147.166 48.8604 147.684 46.1211 148.719 44.1582C149.754 42.1855 151.395 40.9551 153.641 40.4668C156.434 39.8711 158.895 39.3877 161.023 39.0166L161.478 41.1553C158.089 41.7217 155.667 42.1709 154.212 42.5029C152.796 42.8252 151.731 43.5869 151.019 44.7881C150.315 45.9893 149.93 47.625 149.861 49.6953H150.037C150.643 48.875 151.424 48.2305 152.381 47.7617C153.338 47.293 154.339 47.0586 155.384 47.0586C157.356 47.0586 158.895 47.6982 159.998 48.9775C161.102 50.2568 161.653 52.0293 161.653 54.2949C161.653 56.8047 161.014 58.7676 159.734 60.1836C158.455 61.5898 156.673 62.293 154.388 62.293C152.132 62.293 150.364 61.4287 149.085 59.7002C147.806 57.9717 147.166 55.5303 147.166 52.376ZM154.607 60.2568C157.586 60.2568 159.075 58.3574 159.075 54.5586C159.075 50.9355 157.723 49.124 155.018 49.124C154.275 49.124 153.558 49.2803 152.864 49.5928C152.181 49.8955 151.551 50.3008 150.975 50.8086C150.408 51.3164 149.969 51.8389 149.656 52.376C149.656 54.9443 150.062 56.9023 150.872 58.25C151.683 59.5879 152.928 60.2568 154.607 60.2568ZM163.353 45.9453H165.96L169.476 55.1006C170.247 57.1904 170.726 58.6992 170.911 59.627H171.028C171.155 59.1289 171.419 58.2793 171.819 57.0781C172.229 55.8672 173.558 52.1562 175.804 45.9453H178.411L171.512 64.2266C170.828 66.0332 170.027 67.3125 169.109 68.0645C168.201 68.8262 167.083 69.207 165.755 69.207C165.013 69.207 164.28 69.124 163.558 68.958V67.0098C164.095 67.127 164.695 67.1855 165.359 67.1855C167.029 67.1855 168.221 66.248 168.934 64.373L169.827 62.0879L163.353 45.9453ZM183.304 45.9453V56.126L183.201 58.792L183.157 59.627L191.844 45.9453H194.876V62H192.605V52.1855L192.649 50.252L192.723 48.3477L184.051 62H181.019V45.9453H183.304ZM187.889 43.8213C186.082 43.8213 184.764 43.4746 183.934 42.7812C183.104 42.0781 182.64 40.9258 182.542 39.3242H184.827C184.915 40.3398 185.179 41.0479 185.618 41.4482C186.067 41.8486 186.844 42.0488 187.947 42.0488C188.953 42.0488 189.695 41.834 190.174 41.4043C190.662 40.9746 190.96 40.2812 191.067 39.3242H193.367C193.25 40.8672 192.757 42.0049 191.888 42.7373C191.019 43.46 189.686 43.8213 187.889 43.8213ZM210.257 62H207.825V45.9453H221.302V62H218.841V48.0547H210.257V62ZM233.24 62.293C230.867 62.293 228.992 61.5703 227.615 60.125C226.248 58.6797 225.564 56.6729 225.564 54.1045C225.564 51.5166 226.199 49.4609 227.469 47.9375C228.748 46.4141 230.462 45.6523 232.61 45.6523C234.622 45.6523 236.214 46.3164 237.386 47.6445C238.558 48.9629 239.144 50.7061 239.144 52.874V54.4121H228.084C228.133 56.2969 228.606 57.7275 229.505 58.7041C230.413 59.6807 231.688 60.1689 233.328 60.1689C235.057 60.1689 236.766 59.8076 238.455 59.085V61.2529C237.596 61.624 236.78 61.8877 236.009 62.0439C235.247 62.21 234.324 62.293 233.24 62.293ZM232.581 47.6885C231.292 47.6885 230.262 48.1084 229.49 48.9482C228.729 49.7881 228.279 50.9502 228.143 52.4346H236.536C236.536 50.9014 236.194 49.7295 235.511 48.9189C234.827 48.0986 233.851 47.6885 232.581 47.6885ZM250.774 62.293C249.729 62.293 248.772 62.1025 247.903 61.7217C247.044 61.3311 246.321 60.7354 245.735 59.9346H245.56C245.677 60.8721 245.735 61.7607 245.735 62.6006V69.207H243.304V45.9453H245.281L245.618 48.1426H245.735C246.36 47.2637 247.088 46.6289 247.918 46.2383C248.748 45.8477 249.7 45.6523 250.774 45.6523C252.903 45.6523 254.544 46.3799 255.696 47.835C256.858 49.29 257.439 51.3311 257.439 53.958C257.439 56.5947 256.849 58.6455 255.667 60.1104C254.495 61.5654 252.864 62.293 250.774 62.293ZM250.423 47.7178C248.782 47.7178 247.596 48.1719 246.863 49.0801C246.131 49.9883 245.755 51.4336 245.735 53.416V53.958C245.735 56.2139 246.111 57.8301 246.863 58.8066C247.615 59.7734 248.821 60.2568 250.481 60.2568C251.868 60.2568 252.952 59.6953 253.733 58.5723C254.524 57.4492 254.92 55.9014 254.92 53.9287C254.92 51.9268 254.524 50.3936 253.733 49.3291C252.952 48.2549 251.849 47.7178 250.423 47.7178ZM268.484 62.293C266.111 62.293 264.236 61.5703 262.859 60.125C261.492 58.6797 260.809 56.6729 260.809 54.1045C260.809 51.5166 261.443 49.4609 262.713 47.9375C263.992 46.4141 265.706 45.6523 267.854 45.6523C269.866 45.6523 271.458 46.3164 272.63 47.6445C273.802 48.9629 274.388 50.7061 274.388 52.874V54.4121H263.328C263.377 56.2969 263.851 57.7275 264.749 58.7041C265.657 59.6807 266.932 60.1689 268.572 60.1689C270.301 60.1689 272.01 59.8076 273.699 59.085V61.2529C272.84 61.624 272.024 61.8877 271.253 62.0439C270.491 62.21 269.568 62.293 268.484 62.293ZM267.825 47.6885C266.536 47.6885 265.506 48.1084 264.734 48.9482C263.973 49.7881 263.523 50.9502 263.387 52.4346H271.78C271.78 50.9014 271.438 49.7295 270.755 48.9189C270.071 48.0986 269.095 47.6885 267.825 47.6885ZM286.883 59.6562L287.337 58.2939L287.967 56.5654L292.317 45.9746H295.408V62H293.255V48.7432L292.962 49.5928L292.112 51.834L287.967 62H285.931L281.785 51.8047C281.268 50.4961 280.911 49.4756 280.716 48.7432V62H278.548V45.9746H281.521L285.726 56.1553C286.146 57.2295 286.531 58.3965 286.883 59.6562ZM307.391 62.293C305.018 62.293 303.143 61.5703 301.766 60.125C300.398 58.6797 299.715 56.6729 299.715 54.1045C299.715 51.5166 300.35 49.4609 301.619 47.9375C302.898 46.4141 304.612 45.6523 306.761 45.6523C308.772 45.6523 310.364 46.3164 311.536 47.6445C312.708 48.9629 313.294 50.7061 313.294 52.874V54.4121H302.234C302.283 56.2969 302.757 57.7275 303.655 58.7041C304.563 59.6807 305.838 60.1689 307.479 60.1689C309.207 60.1689 310.916 59.8076 312.605 59.085V61.2529C311.746 61.624 310.931 61.8877 310.159 62.0439C309.397 62.21 308.475 62.293 307.391 62.293ZM306.731 47.6885C305.442 47.6885 304.412 48.1084 303.641 48.9482C302.879 49.7881 302.43 50.9502 302.293 52.4346H310.687C310.687 50.9014 310.345 49.7295 309.661 48.9189C308.978 48.0986 308.001 47.6885 306.731 47.6885ZM323.87 62.293C321.546 62.293 319.744 61.5801 318.465 60.1543C317.195 58.7188 316.561 56.6924 316.561 54.0752C316.561 51.3896 317.205 49.3145 318.494 47.8496C319.793 46.3848 321.639 45.6523 324.031 45.6523C324.803 45.6523 325.574 45.7354 326.346 45.9014C327.117 46.0674 327.723 46.2627 328.162 46.4873L327.415 48.5527C326.878 48.3379 326.292 48.1621 325.657 48.0254C325.022 47.8789 324.461 47.8057 323.973 47.8057C320.711 47.8057 319.08 49.8857 319.08 54.0459C319.08 56.0186 319.476 57.5322 320.267 58.5869C321.067 59.6416 322.249 60.1689 323.812 60.1689C325.149 60.1689 326.521 59.8809 327.928 59.3047V61.458C326.854 62.0146 325.501 62.293 323.87 62.293ZM342.576 48.0254H337.361V62H334.93V48.0254H329.773V45.9453H342.576V48.0254ZM348.04 45.9453V56.126L347.938 58.792L347.894 59.627L356.58 45.9453H359.612V62H357.342V52.1855L357.386 50.252L357.459 48.3477L348.787 62H345.755V45.9453H348.04ZM375.594 48.0254H370.379V62H367.947V48.0254H362.791V45.9453H375.594V48.0254ZM381.204 52.5811H386.155C390.257 52.5811 392.308 54.0898 392.308 57.1074C392.308 58.6895 391.771 59.9004 390.696 60.7402C389.632 61.5801 388.069 62 386.009 62H378.772V45.9453H381.204V52.5811ZM381.204 54.6758V59.9639H385.892C387.181 59.9639 388.167 59.7393 388.851 59.29C389.534 58.8408 389.876 58.1621 389.876 57.2539C389.876 56.3652 389.559 55.7158 388.924 55.3057C388.299 54.8857 387.264 54.6758 385.818 54.6758H381.204ZM402.942 62.293C400.618 62.293 398.816 61.5801 397.537 60.1543C396.268 58.7188 395.633 56.6924 395.633 54.0752C395.633 51.3896 396.277 49.3145 397.566 47.8496C398.865 46.3848 400.711 45.6523 403.104 45.6523C403.875 45.6523 404.646 45.7354 405.418 45.9014C406.189 46.0674 406.795 46.2627 407.234 46.4873L406.487 48.5527C405.95 48.3379 405.364 48.1621 404.729 48.0254C404.095 47.8789 403.533 47.8057 403.045 47.8057C399.783 47.8057 398.152 49.8857 398.152 54.0459C398.152 56.0186 398.548 57.5322 399.339 58.5869C400.14 59.6416 401.321 60.1689 402.884 60.1689C404.222 60.1689 405.594 59.8809 407 59.3047V61.458C405.926 62.0146 404.573 62.293 402.942 62.293ZM411.629 62H408.787L413.401 55.2178C412.161 54.9443 411.209 54.417 410.545 53.6357C409.891 52.8447 409.563 51.8535 409.563 50.6621C409.563 49.1973 410.057 48.0449 411.043 47.2051C412.029 46.3652 413.406 45.9453 415.174 45.9453H422.322V62H419.891V55.584H415.833L411.629 62ZM411.937 50.6914C411.937 52.5469 413.284 53.4746 415.979 53.4746H419.891V48.0547H415.481C413.118 48.0547 411.937 48.9336 411.937 50.6914ZM437.718 62H435.286V45.9453H448.763V62H446.302V48.0547H437.718V62ZM467.776 53.958C467.776 56.5752 467.117 58.6211 465.799 60.0957C464.48 61.5605 462.659 62.293 460.335 62.293C458.899 62.293 457.625 61.9561 456.512 61.2822C455.398 60.6084 454.539 59.6416 453.934 58.3818C453.328 57.1221 453.025 55.6475 453.025 53.958C453.025 51.3408 453.68 49.3047 454.988 47.8496C456.297 46.3848 458.113 45.6523 460.438 45.6523C462.684 45.6523 464.466 46.3994 465.784 47.8936C467.112 49.3877 467.776 51.4092 467.776 53.958ZM455.545 53.958C455.545 56.0088 455.955 57.5713 456.775 58.6455C457.596 59.7197 458.802 60.2568 460.394 60.2568C461.985 60.2568 463.191 59.7246 464.012 58.6602C464.842 57.5859 465.257 56.0186 465.257 53.958C465.257 51.917 464.842 50.3691 464.012 49.3145C463.191 48.25 461.976 47.7178 460.364 47.7178C458.772 47.7178 457.571 48.2402 456.761 49.2852C455.95 50.3301 455.545 51.8877 455.545 53.958ZM486.263 62.293C483.938 62.293 482.137 61.5801 480.857 60.1543C479.588 58.7188 478.953 56.6924 478.953 54.0752C478.953 51.3896 479.598 49.3145 480.887 47.8496C482.186 46.3848 484.031 45.6523 486.424 45.6523C487.195 45.6523 487.967 45.7354 488.738 45.9014C489.51 46.0674 490.115 46.2627 490.555 46.4873L489.808 48.5527C489.271 48.3379 488.685 48.1621 488.05 48.0254C487.415 47.8789 486.854 47.8057 486.365 47.8057C483.104 47.8057 481.473 49.8857 481.473 54.0459C481.473 56.0186 481.868 57.5322 482.659 58.5869C483.46 59.6416 484.642 60.1689 486.204 60.1689C487.542 60.1689 488.914 59.8809 490.32 59.3047V61.458C489.246 62.0146 487.894 62.293 486.263 62.293ZM491.595 45.9453H494.202L497.718 55.1006C498.489 57.1904 498.968 58.6992 499.153 59.627H499.271C499.397 59.1289 499.661 58.2793 500.062 57.0781C500.472 55.8672 501.8 52.1562 504.046 45.9453H506.653L499.754 64.2266C499.07 66.0332 498.27 67.3125 497.352 68.0645C496.443 68.8262 495.325 69.207 493.997 69.207C493.255 69.207 492.522 69.124 491.8 68.958V67.0098C492.337 67.127 492.938 67.1855 493.602 67.1855C495.271 67.1855 496.463 66.248 497.176 64.373L498.069 62.0879L491.595 45.9453ZM508.426 52.376C508.426 48.8604 508.943 46.1211 509.979 44.1582C511.014 42.1855 512.654 40.9551 514.9 40.4668C517.693 39.8711 520.154 39.3877 522.283 39.0166L522.737 41.1553C519.349 41.7217 516.927 42.1709 515.472 42.5029C514.056 42.8252 512.991 43.5869 512.278 44.7881C511.575 45.9893 511.189 47.625 511.121 49.6953H511.297C511.902 48.875 512.684 48.2305 513.641 47.7617C514.598 47.293 515.599 47.0586 516.644 47.0586C518.616 47.0586 520.154 47.6982 521.258 48.9775C522.361 50.2568 522.913 52.0293 522.913 54.2949C522.913 56.8047 522.273 58.7676 520.994 60.1836C519.715 61.5898 517.933 62.293 515.647 62.293C513.392 62.293 511.624 61.4287 510.345 59.7002C509.065 57.9717 508.426 55.5303 508.426 52.376ZM515.867 60.2568C518.846 60.2568 520.335 58.3574 520.335 54.5586C520.335 50.9355 518.982 49.124 516.277 49.124C515.535 49.124 514.817 49.2803 514.124 49.5928C513.44 49.8955 512.811 50.3008 512.234 50.8086C511.668 51.3164 511.229 51.8389 510.916 52.376C510.916 54.9443 511.321 56.9023 512.132 58.25C512.942 59.5879 514.188 60.2568 515.867 60.2568ZM537.986 48.0254H532.771V62H530.34V48.0254H525.184V45.9453H537.986V48.0254ZM543.45 45.9453V56.126L543.348 58.792L543.304 59.627L551.99 45.9453H555.022V62H552.752V52.1855L552.796 50.252L552.869 48.3477L544.197 62H541.165V45.9453H543.45ZM571.004 48.0254H565.789V62H563.357V48.0254H558.201V45.9453H571.004V48.0254ZM581.653 62.293C580.608 62.293 579.651 62.1025 578.782 61.7217C577.923 61.3311 577.2 60.7354 576.614 59.9346H576.438C576.556 60.8721 576.614 61.7607 576.614 62.6006V69.207H574.183V45.9453H576.16L576.497 48.1426H576.614C577.239 47.2637 577.967 46.6289 578.797 46.2383C579.627 45.8477 580.579 45.6523 581.653 45.6523C583.782 45.6523 585.423 46.3799 586.575 47.835C587.737 49.29 588.318 51.3311 588.318 53.958C588.318 56.5947 587.728 58.6455 586.546 60.1104C585.374 61.5654 583.743 62.293 581.653 62.293ZM581.302 47.7178C579.661 47.7178 578.475 48.1719 577.742 49.0801C577.01 49.9883 576.634 51.4336 576.614 53.416V53.958C576.614 56.2139 576.99 57.8301 577.742 58.8066C578.494 59.7734 579.7 60.2568 581.36 60.2568C582.747 60.2568 583.831 59.6953 584.612 58.5723C585.403 57.4492 585.799 55.9014 585.799 53.9287C585.799 51.9268 585.403 50.3936 584.612 49.3291C583.831 48.2549 582.728 47.7178 581.302 47.7178ZM602.454 62L601.971 59.7148H601.854C601.053 60.7207 600.252 61.4043 599.451 61.7656C598.66 62.1172 597.669 62.293 596.478 62.293C594.886 62.293 593.636 61.8828 592.728 61.0625C591.829 60.2422 591.38 59.0752 591.38 57.5615C591.38 54.3193 593.973 52.6201 599.158 52.4639L601.883 52.376V51.3799C601.883 50.1201 601.609 49.1924 601.062 48.5967C600.525 47.9912 599.661 47.6885 598.47 47.6885C597.132 47.6885 595.618 48.0986 593.929 48.9189L593.182 47.0586C593.973 46.6289 594.837 46.292 595.774 46.0479C596.722 45.8037 597.669 45.6816 598.616 45.6816C600.53 45.6816 601.946 46.1064 602.864 46.9561C603.792 47.8057 604.256 49.168 604.256 51.043V62H602.454ZM596.961 60.2861C598.475 60.2861 599.661 59.8711 600.521 59.041C601.39 58.2109 601.824 57.0488 601.824 55.5547V54.1045L599.393 54.207C597.459 54.2754 596.062 54.5781 595.203 55.1152C594.354 55.6426 593.929 56.4678 593.929 57.5908C593.929 58.4697 594.192 59.1387 594.72 59.5977C595.257 60.0566 596.004 60.2861 596.961 60.2861ZM617.615 59.6562L618.069 58.2939L618.699 56.5654L623.05 45.9746H626.141V62H623.987V48.7432L623.694 49.5928L622.845 51.834L618.699 62H616.663L612.518 51.8047C612 50.4961 611.644 49.4756 611.448 48.7432V62H609.28V45.9746H612.254L616.458 56.1553C616.878 57.2295 617.264 58.3965 617.615 59.6562ZM135.74 103.293C133.416 103.293 131.614 102.58 130.335 101.154C129.065 99.7188 128.431 97.6924 128.431 95.0752C128.431 92.3896 129.075 90.3145 130.364 88.8496C131.663 87.3848 133.509 86.6523 135.901 86.6523C136.673 86.6523 137.444 86.7354 138.216 86.9014C138.987 87.0674 139.593 87.2627 140.032 87.4873L139.285 89.5527C138.748 89.3379 138.162 89.1621 137.527 89.0254C136.893 88.8789 136.331 88.8057 135.843 88.8057C132.581 88.8057 130.95 90.8857 130.95 95.0459C130.95 97.0186 131.346 98.5322 132.137 99.5869C132.938 100.642 134.119 101.169 135.682 101.169C137.02 101.169 138.392 100.881 139.798 100.305V102.458C138.724 103.015 137.371 103.293 135.74 103.293ZM153.846 103H151.414V86.9453H164.891V103H162.43V89.0547H153.846V103ZM183.904 94.958C183.904 97.5752 183.245 99.6211 181.927 101.096C180.608 102.561 178.787 103.293 176.463 103.293C175.027 103.293 173.753 102.956 172.64 102.282C171.526 101.608 170.667 100.642 170.062 99.3818C169.456 98.1221 169.153 96.6475 169.153 94.958C169.153 92.3408 169.808 90.3047 171.116 88.8496C172.425 87.3848 174.241 86.6523 176.565 86.6523C178.812 86.6523 180.594 87.3994 181.912 88.8936C183.24 90.3877 183.904 92.4092 183.904 94.958ZM171.673 94.958C171.673 97.0088 172.083 98.5713 172.903 99.6455C173.724 100.72 174.93 101.257 176.521 101.257C178.113 101.257 179.319 100.725 180.14 99.6602C180.97 98.5859 181.385 97.0186 181.385 94.958C181.385 92.917 180.97 91.3691 180.14 90.3145C179.319 89.25 178.104 88.7178 176.492 88.7178C174.9 88.7178 173.699 89.2402 172.889 90.2852C172.078 91.3301 171.673 92.8877 171.673 94.958ZM196.517 100.656L196.971 99.2939L197.601 97.5654L201.951 86.9746H205.042V103H202.889V89.7432L202.596 90.5928L201.746 92.834L197.601 103H195.564L191.419 92.8047C190.901 91.4961 190.545 90.4756 190.35 89.7432V103H188.182V86.9746H191.155L195.359 97.1553C195.779 98.2295 196.165 99.3965 196.517 100.656ZM224.1 94.958C224.1 97.5752 223.44 99.6211 222.122 101.096C220.804 102.561 218.982 103.293 216.658 103.293C215.223 103.293 213.948 102.956 212.835 102.282C211.722 101.608 210.862 100.642 210.257 99.3818C209.651 98.1221 209.349 96.6475 209.349 94.958C209.349 92.3408 210.003 90.3047 211.312 88.8496C212.62 87.3848 214.437 86.6523 216.761 86.6523C219.007 86.6523 220.789 87.3994 222.107 88.8936C223.436 90.3877 224.1 92.4092 224.1 94.958ZM211.868 94.958C211.868 97.0088 212.278 98.5713 213.099 99.6455C213.919 100.72 215.125 101.257 216.717 101.257C218.309 101.257 219.515 100.725 220.335 99.6602C221.165 98.5859 221.58 97.0186 221.58 94.958C221.58 92.917 221.165 91.3691 220.335 90.3145C219.515 89.25 218.299 88.7178 216.688 88.7178C215.096 88.7178 213.895 89.2402 213.084 90.2852C212.273 91.3301 211.868 92.8877 211.868 94.958ZM240.345 100.905H247.464V86.9746H249.896V100.905H252.195V108.522H249.734V103H228.377V86.9746H230.809V100.905H237.913V86.9746H240.345V100.905ZM257.732 93.5811H262.684C266.785 93.5811 268.836 95.0898 268.836 98.1074C268.836 99.6895 268.299 100.9 267.225 101.74C266.16 102.58 264.598 103 262.537 103H255.301V86.9453H257.732V93.5811ZM257.732 95.6758V100.964H262.42C263.709 100.964 264.695 100.739 265.379 100.29C266.062 99.8408 266.404 99.1621 266.404 98.2539C266.404 97.3652 266.087 96.7158 265.452 96.3057C264.827 95.8857 263.792 95.6758 262.347 95.6758H257.732ZM293.724 94.958C293.724 97.585 293.094 99.6309 291.834 101.096C290.584 102.561 288.865 103.293 286.678 103.293C284.598 103.293 282.947 102.644 281.727 101.345C280.506 100.036 279.827 98.1758 279.69 95.7637H275.486V103H273.055V86.9453H275.486V93.6689H279.72C279.915 91.4424 280.628 89.7188 281.858 88.498C283.089 87.2676 284.715 86.6523 286.736 86.6523C288.885 86.6523 290.584 87.3994 291.834 88.8936C293.094 90.3779 293.724 92.3994 293.724 94.958ZM282.21 94.958C282.21 97.0186 282.566 98.5859 283.279 99.6602C283.992 100.725 285.135 101.257 286.707 101.257C288.25 101.257 289.383 100.739 290.105 99.7041C290.838 98.6592 291.204 97.0771 291.204 94.958C291.204 92.9072 290.848 91.3545 290.135 90.2998C289.422 89.2451 288.279 88.7178 286.707 88.7178C285.135 88.7178 283.992 89.2451 283.279 90.2998C282.566 91.3545 282.21 92.9072 282.21 94.958ZM315.447 89.0254H308.211V103H305.779V86.9453H315.447V89.0254ZM332.498 94.958C332.498 97.5752 331.839 99.6211 330.521 101.096C329.202 102.561 327.381 103.293 325.057 103.293C323.621 103.293 322.347 102.956 321.233 102.282C320.12 101.608 319.261 100.642 318.655 99.3818C318.05 98.1221 317.747 96.6475 317.747 94.958C317.747 92.3408 318.401 90.3047 319.71 88.8496C321.019 87.3848 322.835 86.6523 325.159 86.6523C327.405 86.6523 329.188 87.3994 330.506 88.8936C331.834 90.3877 332.498 92.4092 332.498 94.958ZM320.267 94.958C320.267 97.0088 320.677 98.5713 321.497 99.6455C322.317 100.72 323.523 101.257 325.115 101.257C326.707 101.257 327.913 100.725 328.733 99.6602C329.563 98.5859 329.979 97.0186 329.979 94.958C329.979 92.917 329.563 91.3691 328.733 90.3145C327.913 89.25 326.697 88.7178 325.086 88.7178C323.494 88.7178 322.293 89.2402 321.482 90.2852C320.672 91.3301 320.267 92.8877 320.267 94.958ZM344.246 103.293C343.201 103.293 342.244 103.103 341.375 102.722C340.516 102.331 339.793 101.735 339.207 100.935H339.031C339.148 101.872 339.207 102.761 339.207 103.601V110.207H336.775V86.9453H338.753L339.09 89.1426H339.207C339.832 88.2637 340.56 87.6289 341.39 87.2383C342.22 86.8477 343.172 86.6523 344.246 86.6523C346.375 86.6523 348.016 87.3799 349.168 88.835C350.33 90.29 350.911 92.3311 350.911 94.958C350.911 97.5947 350.32 99.6455 349.139 101.11C347.967 102.565 346.336 103.293 344.246 103.293ZM343.895 88.7178C342.254 88.7178 341.067 89.1719 340.335 90.0801C339.603 90.9883 339.227 92.4336 339.207 94.416V94.958C339.207 97.2139 339.583 98.8301 340.335 99.8066C341.087 100.773 342.293 101.257 343.953 101.257C345.34 101.257 346.424 100.695 347.205 99.5723C347.996 98.4492 348.392 96.9014 348.392 94.9287C348.392 92.9268 347.996 91.3936 347.205 90.3291C346.424 89.2549 345.32 88.7178 343.895 88.7178ZM355.979 103H353.138L357.752 96.2178C356.512 95.9443 355.56 95.417 354.896 94.6357C354.241 93.8447 353.914 92.8535 353.914 91.6621C353.914 90.1973 354.407 89.0449 355.394 88.2051C356.38 87.3652 357.757 86.9453 359.524 86.9453H366.673V103H364.241V96.584H360.184L355.979 103ZM356.287 91.6914C356.287 93.5469 357.635 94.4746 360.33 94.4746H364.241V89.0547H359.832C357.469 89.0547 356.287 89.9336 356.287 91.6914ZM373.982 86.9453V92.8047C373.982 94.6797 375.052 95.6172 377.19 95.6172C378.079 95.6172 378.929 95.4805 379.739 95.207C380.55 94.9336 381.468 94.4697 382.493 93.8154V86.9453H384.925V103H382.493V95.7344C381.468 96.4375 380.516 96.9355 379.637 97.2285C378.768 97.5117 377.781 97.6533 376.678 97.6533C375.076 97.6533 373.821 97.2334 372.913 96.3936C372.005 95.5537 371.551 94.416 371.551 92.9805V86.9453H373.982ZM392.381 86.9453V97.126L392.278 99.792L392.234 100.627L400.921 86.9453H403.953V103H401.683V93.1855L401.727 91.252L401.8 89.3477L393.128 103H390.096V86.9453H392.381ZM412.977 94.7822L407.396 86.9453H410.164L414.397 93.0977L418.616 86.9453H421.355L415.774 94.7822L421.648 103H418.895L414.397 96.4961L409.856 103H407.103L412.977 94.7822ZM441.995 86.9453H444.661L437.732 94.6943L445.232 103H442.391L435.066 94.8701V103H432.635V86.9453H435.066V94.7529L441.995 86.9453ZM460.188 103H457.728V89.0254H452.908C452.645 92.502 452.278 95.2607 451.81 97.3018C451.341 99.3428 450.73 100.837 449.979 101.784C449.236 102.731 448.289 103.205 447.137 103.205C446.609 103.205 446.189 103.146 445.877 103.029V101.228C446.092 101.286 446.336 101.315 446.609 101.315C447.732 101.315 448.626 100.129 449.29 97.7559C449.954 95.3828 450.457 91.7793 450.799 86.9453H460.188V103ZM475.232 103L474.749 100.715H474.632C473.831 101.721 473.03 102.404 472.229 102.766C471.438 103.117 470.447 103.293 469.256 103.293C467.664 103.293 466.414 102.883 465.506 102.062C464.607 101.242 464.158 100.075 464.158 98.5615C464.158 95.3193 466.751 93.6201 471.937 93.4639L474.661 93.376V92.3799C474.661 91.1201 474.388 90.1924 473.841 89.5967C473.304 88.9912 472.439 88.6885 471.248 88.6885C469.91 88.6885 468.396 89.0986 466.707 89.9189L465.96 88.0586C466.751 87.6289 467.615 87.292 468.553 87.0479C469.5 86.8037 470.447 86.6816 471.395 86.6816C473.309 86.6816 474.725 87.1064 475.643 87.9561C476.57 88.8057 477.034 90.168 477.034 92.043V103H475.232ZM469.739 101.286C471.253 101.286 472.439 100.871 473.299 100.041C474.168 99.2109 474.603 98.0488 474.603 96.5547V95.1045L472.171 95.207C470.237 95.2754 468.841 95.5781 467.981 96.1152C467.132 96.6426 466.707 97.4678 466.707 98.5908C466.707 99.4697 466.971 100.139 467.498 100.598C468.035 101.057 468.782 101.286 469.739 101.286ZM495.081 90.9736C495.081 92.0186 494.778 92.8145 494.173 93.3613C493.577 93.8984 492.737 94.2598 491.653 94.4453V94.5771C493.021 94.7627 494.017 95.1631 494.642 95.7783C495.276 96.3936 495.594 97.2432 495.594 98.3271C495.594 99.8213 495.042 100.974 493.938 101.784C492.845 102.595 491.243 103 489.134 103H482.059V86.9453H489.104C493.089 86.9453 495.081 88.2881 495.081 90.9736ZM493.162 98.166C493.162 97.2969 492.83 96.667 492.166 96.2764C491.512 95.876 490.423 95.6758 488.899 95.6758H484.49V100.964H488.958C491.761 100.964 493.162 100.031 493.162 98.166ZM492.708 91.208C492.708 90.4268 492.405 89.875 491.8 89.5527C491.204 89.2207 490.296 89.0547 489.075 89.0547H484.49V93.5811H488.606C490.11 93.5811 491.17 93.3955 491.785 93.0244C492.4 92.6533 492.708 92.0479 492.708 91.208ZM501.424 86.9453V97.126L501.321 99.792L501.277 100.627L509.964 86.9453H512.996V103H510.726V93.1855L510.77 91.252L510.843 89.3477L502.171 103H499.139V86.9453H501.424ZM530.12 100.905H537.239V86.9453H539.7V103H518.152V86.9453H520.584V100.905H527.688V86.9453H530.12V100.905ZM547.303 93.5811H552.254C556.355 93.5811 558.406 95.0898 558.406 98.1074C558.406 99.6895 557.869 100.9 556.795 101.74C555.73 102.58 554.168 103 552.107 103H544.871V86.9453H547.303V93.5811ZM547.303 95.6758V100.964H551.99C553.279 100.964 554.266 100.739 554.949 100.29C555.633 99.8408 555.975 99.1621 555.975 98.2539C555.975 97.3652 555.657 96.7158 555.022 96.3057C554.397 95.8857 553.362 95.6758 551.917 95.6758H547.303Z" fill="black"/>
<rect x="2.5" y="2.5" width="674" height="137" rx="7.5" stroke="#40A9FF" stroke-width="5"/>
</svg>
