<svg width="490" height="101" viewBox="0 0 490 101" fill="none" xmlns="http://www.w3.org/2000/svg">
<rect x="2.5" y="2.5" width="485" height="96" rx="7.5" fill="white"/>
<path d="M69.292 62H66.8018V42.7959H55.8008V62H53.3105V40.584H69.292V62ZM88.6865 53.958C88.6865 56.5752 88.0273 58.6211 86.709 60.0957C85.3906 61.5605 83.5693 62.293 81.2451 62.293C79.8096 62.293 78.5352 61.9561 77.4219 61.2822C76.3086 60.6084 75.4492 59.6416 74.8438 58.3818C74.2383 57.1221 73.9355 55.6475 73.9355 53.958C73.9355 51.3408 74.5898 49.3047 75.8984 47.8496C77.207 46.3848 79.0234 45.6523 81.3477 45.6523C83.5938 45.6523 85.376 46.3994 86.6943 47.8936C88.0225 49.3877 88.6865 51.4092 88.6865 53.958ZM76.4551 53.958C76.4551 56.0088 76.8652 57.5713 77.6855 58.6455C78.5059 59.7197 79.7119 60.2568 81.3037 60.2568C82.8955 60.2568 84.1016 59.7246 84.9219 58.6602C85.752 57.5859 86.167 56.0186 86.167 53.958C86.167 51.917 85.752 50.3691 84.9219 49.3145C84.1016 48.25 82.8857 47.7178 81.2744 47.7178C79.6826 47.7178 78.4814 48.2402 77.6709 49.2852C76.8604 50.3301 76.4551 51.8877 76.4551 53.958ZM105.986 49.9736C105.986 51.0186 105.684 51.8145 105.078 52.3613C104.482 52.8984 103.643 53.2598 102.559 53.4453V53.5771C103.926 53.7627 104.922 54.1631 105.547 54.7783C106.182 55.3936 106.499 56.2432 106.499 57.3271C106.499 58.8213 105.947 59.9736 104.844 60.7842C103.75 61.5947 102.148 62 100.039 62H92.9639V45.9453H100.01C103.994 45.9453 105.986 47.2881 105.986 49.9736ZM104.067 57.166C104.067 56.2969 103.735 55.667 103.071 55.2764C102.417 54.876 101.328 54.6758 99.8047 54.6758H95.3955V59.9639H99.8633C102.666 59.9639 104.067 59.0312 104.067 57.166ZM103.613 50.208C103.613 49.4268 103.311 48.875 102.705 48.5527C102.109 48.2207 101.201 48.0547 99.9805 48.0547H95.3955V52.5811H99.5117C101.016 52.5811 102.075 52.3955 102.69 52.0244C103.306 51.6533 103.613 51.0479 103.613 50.208ZM120.869 48.0254H115.654V62H113.223V48.0254H108.066V45.9453H120.869V48.0254ZM137.905 53.958C137.905 56.5752 137.246 58.6211 135.928 60.0957C134.609 61.5605 132.788 62.293 130.464 62.293C129.028 62.293 127.754 61.9561 126.641 61.2822C125.527 60.6084 124.668 59.6416 124.062 58.3818C123.457 57.1221 123.154 55.6475 123.154 53.958C123.154 51.3408 123.809 49.3047 125.117 47.8496C126.426 46.3848 128.242 45.6523 130.566 45.6523C132.812 45.6523 134.595 46.3994 135.913 47.8936C137.241 49.3877 137.905 51.4092 137.905 53.958ZM125.674 53.958C125.674 56.0088 126.084 57.5713 126.904 58.6455C127.725 59.7197 128.931 60.2568 130.522 60.2568C132.114 60.2568 133.32 59.7246 134.141 58.6602C134.971 57.5859 135.386 56.0186 135.386 53.958C135.386 51.917 134.971 50.3691 134.141 49.3145C133.32 48.25 132.104 47.7178 130.493 47.7178C128.901 47.7178 127.7 48.2402 126.89 49.2852C126.079 50.3301 125.674 51.8877 125.674 53.958ZM149.653 62.293C148.608 62.293 147.651 62.1025 146.782 61.7217C145.923 61.3311 145.2 60.7354 144.614 59.9346H144.438C144.556 60.8721 144.614 61.7607 144.614 62.6006V69.207H142.183V45.9453H144.16L144.497 48.1426H144.614C145.239 47.2637 145.967 46.6289 146.797 46.2383C147.627 45.8477 148.579 45.6523 149.653 45.6523C151.782 45.6523 153.423 46.3799 154.575 47.835C155.737 49.29 156.318 51.3311 156.318 53.958C156.318 56.5947 155.728 58.6455 154.546 60.1104C153.374 61.5654 151.743 62.293 149.653 62.293ZM149.302 47.7178C147.661 47.7178 146.475 48.1719 145.742 49.0801C145.01 49.9883 144.634 51.4336 144.614 53.416V53.958C144.614 56.2139 144.99 57.8301 145.742 58.8066C146.494 59.7734 147.7 60.2568 149.36 60.2568C150.747 60.2568 151.831 59.6953 152.612 58.5723C153.403 57.4492 153.799 55.9014 153.799 53.9287C153.799 51.9268 153.403 50.3936 152.612 49.3291C151.831 48.2549 150.728 47.7178 149.302 47.7178ZM162.866 45.9453V56.126L162.764 58.792L162.72 59.627L171.406 45.9453H174.438V62H172.168V52.1855L172.212 50.252L172.285 48.3477L163.613 62H160.581V45.9453H162.866ZM206.006 48.0254H200.791V62H198.359V48.0254H193.203V45.9453H206.006V48.0254ZM215.967 62.293C213.594 62.293 211.719 61.5703 210.342 60.125C208.975 58.6797 208.291 56.6729 208.291 54.1045C208.291 51.5166 208.926 49.4609 210.195 47.9375C211.475 46.4141 213.188 45.6523 215.337 45.6523C217.349 45.6523 218.94 46.3164 220.112 47.6445C221.284 48.9629 221.87 50.7061 221.87 52.874V54.4121H210.811C210.859 56.2969 211.333 57.7275 212.231 58.7041C213.14 59.6807 214.414 60.1689 216.055 60.1689C217.783 60.1689 219.492 59.8076 221.182 59.085V61.2529C220.322 61.624 219.507 61.8877 218.735 62.0439C217.974 62.21 217.051 62.293 215.967 62.293ZM215.308 47.6885C214.019 47.6885 212.988 48.1084 212.217 48.9482C211.455 49.7881 211.006 50.9502 210.869 52.4346H219.263C219.263 50.9014 218.921 49.7295 218.237 48.9189C217.554 48.0986 216.577 47.6885 215.308 47.6885ZM235.391 45.9453H238.057L231.128 53.6943L238.628 62H235.786L228.462 53.8701V62H226.03V45.9453H228.462V53.7529L235.391 45.9453ZM239.067 45.9453H241.675L245.19 55.1006C245.962 57.1904 246.44 58.6992 246.626 59.627H246.743C246.87 59.1289 247.134 58.2793 247.534 57.0781C247.944 55.8672 249.272 52.1562 251.519 45.9453H254.126L247.227 64.2266C246.543 66.0332 245.742 67.3125 244.824 68.0645C243.916 68.8262 242.798 69.207 241.47 69.207C240.728 69.207 239.995 69.124 239.272 68.958V67.0098C239.81 67.127 240.41 67.1855 241.074 67.1855C242.744 67.1855 243.936 66.248 244.648 64.373L245.542 62.0879L239.067 45.9453ZM268.701 59.9053H275.82V45.9746H278.252V59.9053H280.552V67.5225H278.091V62H256.733V45.9746H259.165V59.9053H266.27V45.9746H268.701V59.9053ZM285.942 45.9453V56.126L285.84 58.792L285.796 59.627L294.482 45.9453H297.515V62H295.244V52.1855L295.288 50.252L295.361 48.3477L286.689 62H283.657V45.9453H285.942ZM304.956 45.9453V56.126L304.854 58.792L304.81 59.627L313.496 45.9453H316.528V62H314.258V52.1855L314.302 50.252L314.375 48.3477L305.703 62H302.671V45.9453H304.956ZM309.541 43.8213C307.734 43.8213 306.416 43.4746 305.586 42.7812C304.756 42.0781 304.292 40.9258 304.194 39.3242H306.479C306.567 40.3398 306.831 41.0479 307.271 41.4482C307.72 41.8486 308.496 42.0488 309.6 42.0488C310.605 42.0488 311.348 41.834 311.826 41.4043C312.314 40.9746 312.612 40.2812 312.72 39.3242H315.02C314.902 40.8672 314.409 42.0049 313.54 42.7373C312.671 43.46 311.338 43.8213 309.541 43.8213ZM335.894 62.293C333.569 62.293 331.768 61.5801 330.488 60.1543C329.219 58.7188 328.584 56.6924 328.584 54.0752C328.584 51.3896 329.229 49.3145 330.518 47.8496C331.816 46.3848 333.662 45.6523 336.055 45.6523C336.826 45.6523 337.598 45.7354 338.369 45.9014C339.141 46.0674 339.746 46.2627 340.186 46.4873L339.438 48.5527C338.901 48.3379 338.315 48.1621 337.681 48.0254C337.046 47.8789 336.484 47.8057 335.996 47.8057C332.734 47.8057 331.104 49.8857 331.104 54.0459C331.104 56.0186 331.499 57.5322 332.29 58.5869C333.091 59.6416 334.272 60.1689 335.835 60.1689C337.173 60.1689 338.545 59.8809 339.951 59.3047V61.458C338.877 62.0146 337.524 62.293 335.894 62.293ZM341.226 45.9453H343.833L347.349 55.1006C348.12 57.1904 348.599 58.6992 348.784 59.627H348.901C349.028 59.1289 349.292 58.2793 349.692 57.0781C350.103 55.8672 351.431 52.1562 353.677 45.9453H356.284L349.385 64.2266C348.701 66.0332 347.9 67.3125 346.982 68.0645C346.074 68.8262 344.956 69.207 343.628 69.207C342.886 69.207 342.153 69.124 341.431 68.958V67.0098C341.968 67.127 342.568 67.1855 343.232 67.1855C344.902 67.1855 346.094 66.248 346.807 64.373L347.7 62.0879L341.226 45.9453ZM358.057 52.376C358.057 48.8604 358.574 46.1211 359.609 44.1582C360.645 42.1855 362.285 40.9551 364.531 40.4668C367.324 39.8711 369.785 39.3877 371.914 39.0166L372.368 41.1553C368.979 41.7217 366.558 42.1709 365.103 42.5029C363.687 42.8252 362.622 43.5869 361.909 44.7881C361.206 45.9893 360.82 47.625 360.752 49.6953H360.928C361.533 48.875 362.314 48.2305 363.271 47.7617C364.229 47.293 365.229 47.0586 366.274 47.0586C368.247 47.0586 369.785 47.6982 370.889 48.9775C371.992 50.2568 372.544 52.0293 372.544 54.2949C372.544 56.8047 371.904 58.7676 370.625 60.1836C369.346 61.5898 367.563 62.293 365.278 62.293C363.022 62.293 361.255 61.4287 359.976 59.7002C358.696 57.9717 358.057 55.5303 358.057 52.376ZM365.498 60.2568C368.477 60.2568 369.966 58.3574 369.966 54.5586C369.966 50.9355 368.613 49.124 365.908 49.124C365.166 49.124 364.448 49.2803 363.755 49.5928C363.071 49.8955 362.441 50.3008 361.865 50.8086C361.299 51.3164 360.859 51.8389 360.547 52.376C360.547 54.9443 360.952 56.9023 361.763 58.25C362.573 59.5879 363.818 60.2568 365.498 60.2568ZM387.617 48.0254H382.402V62H379.971V48.0254H374.814V45.9453H387.617V48.0254ZM393.081 45.9453V56.126L392.979 58.792L392.935 59.627L401.621 45.9453H404.653V62H402.383V52.1855L402.427 50.252L402.5 48.3477L393.828 62H390.796V45.9453H393.081ZM420.635 48.0254H415.42V62H412.988V48.0254H407.832V45.9453H420.635V48.0254ZM431.284 62.293C430.239 62.293 429.282 62.1025 428.413 61.7217C427.554 61.3311 426.831 60.7354 426.245 59.9346H426.069C426.187 60.8721 426.245 61.7607 426.245 62.6006V69.207H423.813V45.9453H425.791L426.128 48.1426H426.245C426.87 47.2637 427.598 46.6289 428.428 46.2383C429.258 45.8477 430.21 45.6523 431.284 45.6523C433.413 45.6523 435.054 46.3799 436.206 47.835C437.368 49.29 437.949 51.3311 437.949 53.958C437.949 56.5947 437.358 58.6455 436.177 60.1104C435.005 61.5654 433.374 62.293 431.284 62.293ZM430.933 47.7178C429.292 47.7178 428.105 48.1719 427.373 49.0801C426.641 49.9883 426.265 51.4336 426.245 53.416V53.958C426.245 56.2139 426.621 57.8301 427.373 58.8066C428.125 59.7734 429.331 60.2568 430.991 60.2568C432.378 60.2568 433.462 59.6953 434.243 58.5723C435.034 57.4492 435.43 55.9014 435.43 53.9287C435.43 51.9268 435.034 50.3936 434.243 49.3291C433.462 48.2549 432.358 47.7178 430.933 47.7178Z" fill="black"/>
<rect x="2.5" y="2.5" width="485" height="96" rx="7.5" stroke="#40A9FF" stroke-width="5"/>
</svg>
