<svg width="335" height="142" viewBox="0 0 335 142" fill="none" xmlns="http://www.w3.org/2000/svg">
<rect x="2.5" y="2.5" width="330" height="137" rx="7.5" fill="white"/>
<path d="M75.0537 67.5811H72.6807V62H57.7979V67.5811H55.4248V59.7441H57.0801C58.584 57.2148 59.8682 54.1387 60.9326 50.5156C62.0068 46.8926 62.6025 43.582 62.7197 40.584H72.3438V59.7441H75.0537V67.5811ZM69.8535 59.7441V42.8252H64.9756C64.7998 45.1885 64.209 48.0303 63.2031 51.3506C62.1973 54.6611 61.0254 57.459 59.6875 59.7441H69.8535ZM92.1631 53.958C92.1631 56.5752 91.5039 58.6211 90.1855 60.0957C88.8672 61.5605 87.0459 62.293 84.7217 62.293C83.2861 62.293 82.0117 61.9561 80.8984 61.2822C79.7852 60.6084 78.9258 59.6416 78.3203 58.3818C77.7148 57.1221 77.4121 55.6475 77.4121 53.958C77.4121 51.3408 78.0664 49.3047 79.375 47.8496C80.6836 46.3848 82.5 45.6523 84.8242 45.6523C87.0703 45.6523 88.8525 46.3994 90.1709 47.8936C91.499 49.3877 92.1631 51.4092 92.1631 53.958ZM79.9316 53.958C79.9316 56.0088 80.3418 57.5713 81.1621 58.6455C81.9824 59.7197 83.1885 60.2568 84.7803 60.2568C86.3721 60.2568 87.5781 59.7246 88.3984 58.6602C89.2285 57.5859 89.6436 56.0186 89.6436 53.958C89.6436 51.917 89.2285 50.3691 88.3984 49.3145C87.5781 48.25 86.3623 47.7178 84.751 47.7178C83.1592 47.7178 81.958 48.2402 81.1475 49.2852C80.3369 50.3301 79.9316 51.8877 79.9316 53.958ZM95.6055 52.376C95.6055 48.8604 96.123 46.1211 97.1582 44.1582C98.1934 42.1855 99.834 40.9551 102.08 40.4668C104.873 39.8711 107.334 39.3877 109.463 39.0166L109.917 41.1553C106.528 41.7217 104.106 42.1709 102.651 42.5029C101.235 42.8252 100.171 43.5869 99.458 44.7881C98.7549 45.9893 98.3691 47.625 98.3008 49.6953H98.4766C99.082 48.875 99.8633 48.2305 100.82 47.7617C101.777 47.293 102.778 47.0586 103.823 47.0586C105.796 47.0586 107.334 47.6982 108.438 48.9775C109.541 50.2568 110.093 52.0293 110.093 54.2949C110.093 56.8047 109.453 58.7676 108.174 60.1836C106.895 61.5898 105.112 62.293 102.827 62.293C100.571 62.293 98.8037 61.4287 97.5244 59.7002C96.2451 57.9717 95.6055 55.5303 95.6055 52.376ZM103.047 60.2568C106.025 60.2568 107.515 58.3574 107.515 54.5586C107.515 50.9355 106.162 49.124 103.457 49.124C102.715 49.124 101.997 49.2803 101.304 49.5928C100.62 49.8955 99.9902 50.3008 99.4141 50.8086C98.8477 51.3164 98.4082 51.8389 98.0957 52.376C98.0957 54.9443 98.501 56.9023 99.3115 58.25C100.122 59.5879 101.367 60.2568 103.047 60.2568ZM124.214 62L123.73 59.7148H123.613C122.812 60.7207 122.012 61.4043 121.211 61.7656C120.42 62.1172 119.429 62.293 118.237 62.293C116.646 62.293 115.396 61.8828 114.487 61.0625C113.589 60.2422 113.14 59.0752 113.14 57.5615C113.14 54.3193 115.732 52.6201 120.918 52.4639L123.643 52.376V51.3799C123.643 50.1201 123.369 49.1924 122.822 48.5967C122.285 47.9912 121.421 47.6885 120.229 47.6885C118.892 47.6885 117.378 48.0986 115.688 48.9189L114.941 47.0586C115.732 46.6289 116.597 46.292 117.534 46.0479C118.481 45.8037 119.429 45.6816 120.376 45.6816C122.29 45.6816 123.706 46.1064 124.624 46.9561C125.552 47.8057 126.016 49.168 126.016 51.043V62H124.214ZM118.721 60.2861C120.234 60.2861 121.421 59.8711 122.28 59.041C123.149 58.2109 123.584 57.0488 123.584 55.5547V54.1045L121.152 54.207C119.219 54.2754 117.822 54.5781 116.963 55.1152C116.113 55.6426 115.688 56.4678 115.688 57.5908C115.688 58.4697 115.952 59.1387 116.479 59.5977C117.017 60.0566 117.764 60.2861 118.721 60.2861ZM144.062 49.9736C144.062 51.0186 143.76 51.8145 143.154 52.3613C142.559 52.8984 141.719 53.2598 140.635 53.4453V53.5771C142.002 53.7627 142.998 54.1631 143.623 54.7783C144.258 55.3936 144.575 56.2432 144.575 57.3271C144.575 58.8213 144.023 59.9736 142.92 60.7842C141.826 61.5947 140.225 62 138.115 62H131.04V45.9453H138.086C142.07 45.9453 144.062 47.2881 144.062 49.9736ZM142.144 57.166C142.144 56.2969 141.812 55.667 141.147 55.2764C140.493 54.876 139.404 54.6758 137.881 54.6758H133.472V59.9639H137.939C140.742 59.9639 142.144 59.0312 142.144 57.166ZM141.689 50.208C141.689 49.4268 141.387 48.875 140.781 48.5527C140.186 48.2207 139.277 48.0547 138.057 48.0547H133.472V52.5811H137.588C139.092 52.5811 140.151 52.3955 140.767 52.0244C141.382 51.6533 141.689 51.0479 141.689 50.208ZM150.552 52.5811H155.503C159.604 52.5811 161.655 54.0898 161.655 57.1074C161.655 58.6895 161.118 59.9004 160.044 60.7402C158.979 61.5801 157.417 62 155.356 62H148.12V45.9453H150.552V52.5811ZM150.552 54.6758V59.9639H155.239C156.528 59.9639 157.515 59.7393 158.198 59.29C158.882 58.8408 159.224 58.1621 159.224 57.2539C159.224 56.3652 158.906 55.7158 158.271 55.3057C157.646 54.8857 156.611 54.6758 155.166 54.6758H150.552ZM186.689 49.9736C186.689 51.0186 186.387 51.8145 185.781 52.3613C185.186 52.8984 184.346 53.2598 183.262 53.4453V53.5771C184.629 53.7627 185.625 54.1631 186.25 54.7783C186.885 55.3936 187.202 56.2432 187.202 57.3271C187.202 58.8213 186.65 59.9736 185.547 60.7842C184.453 61.5947 182.852 62 180.742 62H173.667V45.9453H180.713C184.697 45.9453 186.689 47.2881 186.689 49.9736ZM184.771 57.166C184.771 56.2969 184.438 55.667 183.774 55.2764C183.12 54.876 182.031 54.6758 180.508 54.6758H176.099V59.9639H180.566C183.369 59.9639 184.771 59.0312 184.771 57.166ZM184.316 50.208C184.316 49.4268 184.014 48.875 183.408 48.5527C182.812 48.2207 181.904 48.0547 180.684 48.0547H176.099V52.5811H180.215C181.719 52.5811 182.778 52.3955 183.394 52.0244C184.009 51.6533 184.316 51.0479 184.316 50.208ZM205.498 62H203.008V42.7959H196.226V40.584H212.28V42.7959H205.498V62ZM217.437 45.9453V56.3604C217.437 57.6689 217.734 58.6455 218.33 59.29C218.926 59.9346 219.858 60.2568 221.128 60.2568C222.808 60.2568 224.033 59.7979 224.805 58.8799C225.586 57.9619 225.977 56.4629 225.977 54.3828V45.9453H228.408V62H226.401L226.05 59.8467H225.918C225.42 60.6377 224.727 61.2432 223.838 61.6631C222.959 62.083 221.953 62.293 220.82 62.293C218.867 62.293 217.402 61.8291 216.426 60.9014C215.459 59.9736 214.976 58.4893 214.976 56.4482V45.9453H217.437ZM238.765 60.2861C239.194 60.2861 239.609 60.2568 240.01 60.1982C240.41 60.1299 240.728 60.0615 240.962 59.9932V61.8535C240.698 61.9805 240.308 62.083 239.79 62.1611C239.282 62.249 238.823 62.293 238.413 62.293C235.308 62.293 233.755 60.6572 233.755 57.3857V47.835H231.455V46.6631L233.755 45.6523L234.78 42.2246H236.187V45.9453H240.845V47.835H236.187V57.2832C236.187 58.25 236.416 58.9922 236.875 59.5098C237.334 60.0273 237.964 60.2861 238.765 60.2861ZM258.042 53.958C258.042 56.5752 257.383 58.6211 256.064 60.0957C254.746 61.5605 252.925 62.293 250.601 62.293C249.165 62.293 247.891 61.9561 246.777 61.2822C245.664 60.6084 244.805 59.6416 244.199 58.3818C243.594 57.1221 243.291 55.6475 243.291 53.958C243.291 51.3408 243.945 49.3047 245.254 47.8496C246.562 46.3848 248.379 45.6523 250.703 45.6523C252.949 45.6523 254.731 46.3994 256.05 47.8936C257.378 49.3877 258.042 51.4092 258.042 53.958ZM245.811 53.958C245.811 56.0088 246.221 57.5713 247.041 58.6455C247.861 59.7197 249.067 60.2568 250.659 60.2568C252.251 60.2568 253.457 59.7246 254.277 58.6602C255.107 57.5859 255.522 56.0186 255.522 53.958C255.522 51.917 255.107 50.3691 254.277 49.3145C253.457 48.25 252.241 47.7178 250.63 47.7178C249.038 47.7178 247.837 48.2402 247.026 49.2852C246.216 50.3301 245.811 51.8877 245.811 53.958ZM269.644 45.6523C270.356 45.6523 270.996 45.7109 271.562 45.8281L271.226 48.084C270.562 47.9375 269.976 47.8643 269.468 47.8643C268.169 47.8643 267.056 48.3916 266.128 49.4463C265.21 50.501 264.751 51.8145 264.751 53.3867V62H262.319V45.9453H264.326L264.604 48.9189H264.722C265.317 47.874 266.035 47.0684 266.875 46.502C267.715 45.9355 268.638 45.6523 269.644 45.6523ZM66.6748 108.552H64.3164V103H53.0957V108.552H50.752V100.905H52.0117C53.3203 99.1279 54.3457 97.043 55.0879 94.6504C55.8301 92.2578 56.2158 89.6895 56.2451 86.9453H64.375V100.905H66.6748V108.552ZM62.0312 100.905V88.8643H58.4277C58.3008 91.0322 57.8809 93.2295 57.168 95.4561C56.4648 97.6729 55.5859 99.4893 54.5312 100.905H62.0312ZM81.8652 103H79.4043V89.0254H74.585C74.3213 92.502 73.9551 95.2607 73.4863 97.3018C73.0176 99.3428 72.4072 100.837 71.6553 101.784C70.9131 102.731 69.9658 103.205 68.8135 103.205C68.2861 103.205 67.8662 103.146 67.5537 103.029V101.228C67.7686 101.286 68.0127 101.315 68.2861 101.315C69.4092 101.315 70.3027 100.129 70.9668 97.7559C71.6309 95.3828 72.1338 91.7793 72.4756 86.9453H81.8652V103ZM87.8418 103H85L89.6143 96.2178C88.374 95.9443 87.4219 95.417 86.7578 94.6357C86.1035 93.8447 85.7764 92.8535 85.7764 91.6621C85.7764 90.1973 86.2695 89.0449 87.2559 88.2051C88.2422 87.3652 89.6191 86.9453 91.3867 86.9453H98.5352V103H96.1035V96.584H92.0459L87.8418 103ZM88.1494 91.6914C88.1494 93.5469 89.4971 94.4746 92.1924 94.4746H96.1035V89.0547H91.6943C89.3311 89.0547 88.1494 89.9336 88.1494 91.6914ZM113.931 103H111.499V86.9453H124.976V103H122.515V89.0547H113.931V103ZM143.989 94.958C143.989 97.5752 143.33 99.6211 142.012 101.096C140.693 102.561 138.872 103.293 136.548 103.293C135.112 103.293 133.838 102.956 132.725 102.282C131.611 101.608 130.752 100.642 130.146 99.3818C129.541 98.1221 129.238 96.6475 129.238 94.958C129.238 92.3408 129.893 90.3047 131.201 88.8496C132.51 87.3848 134.326 86.6523 136.65 86.6523C138.896 86.6523 140.679 87.3994 141.997 88.8936C143.325 90.3877 143.989 92.4092 143.989 94.958ZM131.758 94.958C131.758 97.0088 132.168 98.5713 132.988 99.6455C133.809 100.72 135.015 101.257 136.606 101.257C138.198 101.257 139.404 100.725 140.225 99.6602C141.055 98.5859 141.47 97.0186 141.47 94.958C141.47 92.917 141.055 91.3691 140.225 90.3145C139.404 89.25 138.188 88.7178 136.577 88.7178C134.985 88.7178 133.784 89.2402 132.974 90.2852C132.163 91.3301 131.758 92.8877 131.758 94.958ZM161.289 90.9736C161.289 92.0186 160.986 92.8145 160.381 93.3613C159.785 93.8984 158.945 94.2598 157.861 94.4453V94.5771C159.229 94.7627 160.225 95.1631 160.85 95.7783C161.484 96.3936 161.802 97.2432 161.802 98.3271C161.802 99.8213 161.25 100.974 160.146 101.784C159.053 102.595 157.451 103 155.342 103H148.267V86.9453H155.312C159.297 86.9453 161.289 88.2881 161.289 90.9736ZM159.37 98.166C159.37 97.2969 159.038 96.667 158.374 96.2764C157.72 95.876 156.631 95.6758 155.107 95.6758H150.698V100.964H155.166C157.969 100.964 159.37 100.031 159.37 98.166ZM158.916 91.208C158.916 90.4268 158.613 89.875 158.008 89.5527C157.412 89.2207 156.504 89.0547 155.283 89.0547H150.698V93.5811H154.814C156.318 93.5811 157.378 93.3955 157.993 93.0244C158.608 92.6533 158.916 92.0479 158.916 91.208ZM176.172 89.0254H170.957V103H168.525V89.0254H163.369V86.9453H176.172V89.0254ZM193.208 94.958C193.208 97.5752 192.549 99.6211 191.23 101.096C189.912 102.561 188.091 103.293 185.767 103.293C184.331 103.293 183.057 102.956 181.943 102.282C180.83 101.608 179.971 100.642 179.365 99.3818C178.76 98.1221 178.457 96.6475 178.457 94.958C178.457 92.3408 179.111 90.3047 180.42 88.8496C181.729 87.3848 183.545 86.6523 185.869 86.6523C188.115 86.6523 189.897 87.3994 191.216 88.8936C192.544 90.3877 193.208 92.4092 193.208 94.958ZM180.977 94.958C180.977 97.0088 181.387 98.5713 182.207 99.6455C183.027 100.72 184.233 101.257 185.825 101.257C187.417 101.257 188.623 100.725 189.443 99.6602C190.273 98.5859 190.688 97.0186 190.688 94.958C190.688 92.917 190.273 91.3691 189.443 90.3145C188.623 89.25 187.407 88.7178 185.796 88.7178C184.204 88.7178 183.003 89.2402 182.192 90.2852C181.382 91.3301 180.977 92.8877 180.977 94.958ZM204.956 103.293C203.911 103.293 202.954 103.103 202.085 102.722C201.226 102.331 200.503 101.735 199.917 100.935H199.741C199.858 101.872 199.917 102.761 199.917 103.601V110.207H197.485V86.9453H199.463L199.8 89.1426H199.917C200.542 88.2637 201.27 87.6289 202.1 87.2383C202.93 86.8477 203.882 86.6523 204.956 86.6523C207.085 86.6523 208.726 87.3799 209.878 88.835C211.04 90.29 211.621 92.3311 211.621 94.958C211.621 97.5947 211.03 99.6455 209.849 101.11C208.677 102.565 207.046 103.293 204.956 103.293ZM204.604 88.7178C202.964 88.7178 201.777 89.1719 201.045 90.0801C200.312 90.9883 199.937 92.4336 199.917 94.416V94.958C199.917 97.2139 200.293 98.8301 201.045 99.8066C201.797 100.773 203.003 101.257 204.663 101.257C206.05 101.257 207.134 100.695 207.915 99.5723C208.706 98.4492 209.102 96.9014 209.102 94.9287C209.102 92.9268 208.706 91.3936 207.915 90.3291C207.134 89.2549 206.03 88.7178 204.604 88.7178ZM222.666 103.293C220.293 103.293 218.418 102.57 217.041 101.125C215.674 99.6797 214.99 97.6729 214.99 95.1045C214.99 92.5166 215.625 90.4609 216.895 88.9375C218.174 87.4141 219.888 86.6523 222.036 86.6523C224.048 86.6523 225.64 87.3164 226.812 88.6445C227.983 89.9629 228.569 91.7061 228.569 93.874V95.4121H217.51C217.559 97.2969 218.032 98.7275 218.931 99.7041C219.839 100.681 221.113 101.169 222.754 101.169C224.482 101.169 226.191 100.808 227.881 100.085V102.253C227.021 102.624 226.206 102.888 225.435 103.044C224.673 103.21 223.75 103.293 222.666 103.293ZM222.007 88.6885C220.718 88.6885 219.688 89.1084 218.916 89.9482C218.154 90.7881 217.705 91.9502 217.568 93.4346H225.962C225.962 91.9014 225.62 90.7295 224.937 89.9189C224.253 89.0986 223.276 88.6885 222.007 88.6885ZM235.161 86.9453V93.6689H244.155V86.9453H246.587V103H244.155V95.7637H235.161V103H232.729V86.9453H235.161ZM254.028 86.9453V97.126L253.926 99.792L253.882 100.627L262.568 86.9453H265.601V103H263.33V93.1855L263.374 91.252L263.447 89.3477L254.775 103H251.743V86.9453H254.028ZM271.562 103H268.721L273.335 96.2178C272.095 95.9443 271.143 95.417 270.479 94.6357C269.824 93.8447 269.497 92.8535 269.497 91.6621C269.497 90.1973 269.99 89.0449 270.977 88.2051C271.963 87.3652 273.34 86.9453 275.107 86.9453H282.256V103H279.824V96.584H275.767L271.562 103ZM271.87 91.6914C271.87 93.5469 273.218 94.4746 275.913 94.4746H279.824V89.0547H275.415C273.052 89.0547 271.87 89.9336 271.87 91.6914Z" fill="black"/>
<rect x="2.5" y="2.5" width="330" height="137" rx="7.5" stroke="#40A9FF" stroke-width="5"/>
</svg>
