<svg width="406" height="183" viewBox="0 0 406 183" fill="none" xmlns="http://www.w3.org/2000/svg">
<rect x="2.5" y="2.5" width="401" height="178" rx="7.5" fill="white"/>
<path d="M71.999 51.2627C71.999 54.6904 71.1299 57.3857 69.3916 59.3486C67.6631 61.3115 65.2559 62.293 62.1699 62.293C59.0156 62.293 56.5791 61.3311 54.8604 59.4072C53.1514 57.4736 52.2969 54.749 52.2969 51.2334C52.2969 47.7471 53.1562 45.0469 54.875 43.1328C56.5938 41.209 59.0352 40.2471 62.1992 40.2471C65.2754 40.2471 67.6777 41.2236 69.4062 43.1768C71.1348 45.1299 71.999 47.8252 71.999 51.2627ZM54.9336 51.2627C54.9336 54.1631 55.5488 56.3652 56.7793 57.8691C58.0195 59.3633 59.8164 60.1104 62.1699 60.1104C64.543 60.1104 66.335 59.3633 67.5459 57.8691C68.7568 56.375 69.3623 54.1729 69.3623 51.2627C69.3623 48.3818 68.7568 46.1992 67.5459 44.7148C66.3447 43.2207 64.5625 42.4736 62.1992 42.4736C59.8262 42.4736 58.0195 43.2256 56.7793 44.7295C55.5488 46.2236 54.9336 48.4014 54.9336 51.2627ZM87.248 48.0254H82.0332V62H79.6016V48.0254H74.4453V45.9453H87.248V48.0254ZM99.7871 45.9453H102.453L95.5244 53.6943L103.024 62H100.183L92.8584 53.8701V62H90.4268V45.9453H92.8584V53.7529L99.7871 45.9453ZM113.483 62.293C112.438 62.293 111.481 62.1025 110.612 61.7217C109.753 61.3311 109.03 60.7354 108.444 59.9346H108.269C108.386 60.8721 108.444 61.7607 108.444 62.6006V69.207H106.013V45.9453H107.99L108.327 48.1426H108.444C109.069 47.2637 109.797 46.6289 110.627 46.2383C111.457 45.8477 112.409 45.6523 113.483 45.6523C115.612 45.6523 117.253 46.3799 118.405 47.835C119.567 49.29 120.148 51.3311 120.148 53.958C120.148 56.5947 119.558 58.6455 118.376 60.1104C117.204 61.5654 115.573 62.293 113.483 62.293ZM113.132 47.7178C111.491 47.7178 110.305 48.1719 109.572 49.0801C108.84 49.9883 108.464 51.4336 108.444 53.416V53.958C108.444 56.2139 108.82 57.8301 109.572 58.8066C110.324 59.7734 111.53 60.2568 113.19 60.2568C114.577 60.2568 115.661 59.6953 116.442 58.5723C117.233 57.4492 117.629 55.9014 117.629 53.9287C117.629 51.9268 117.233 50.3936 116.442 49.3291C115.661 48.2549 114.558 47.7178 113.132 47.7178ZM138.269 53.958C138.269 56.5752 137.609 58.6211 136.291 60.0957C134.973 61.5605 133.151 62.293 130.827 62.293C129.392 62.293 128.117 61.9561 127.004 61.2822C125.891 60.6084 125.031 59.6416 124.426 58.3818C123.82 57.1221 123.518 55.6475 123.518 53.958C123.518 51.3408 124.172 49.3047 125.48 47.8496C126.789 46.3848 128.605 45.6523 130.93 45.6523C133.176 45.6523 134.958 46.3994 136.276 47.8936C137.604 49.3877 138.269 51.4092 138.269 53.958ZM126.037 53.958C126.037 56.0088 126.447 57.5713 127.268 58.6455C128.088 59.7197 129.294 60.2568 130.886 60.2568C132.478 60.2568 133.684 59.7246 134.504 58.6602C135.334 57.5859 135.749 56.0186 135.749 53.958C135.749 51.917 135.334 50.3691 134.504 49.3145C133.684 48.25 132.468 47.7178 130.856 47.7178C129.265 47.7178 128.063 48.2402 127.253 49.2852C126.442 50.3301 126.037 51.8877 126.037 53.958ZM144.831 45.9453V56.126L144.729 58.792L144.685 59.627L153.371 45.9453H156.403V62H154.133V52.1855L154.177 50.252L154.25 48.3477L145.578 62H142.546V45.9453H144.831ZM149.416 43.8213C147.609 43.8213 146.291 43.4746 145.461 42.7812C144.631 42.0781 144.167 40.9258 144.069 39.3242H146.354C146.442 40.3398 146.706 41.0479 147.146 41.4482C147.595 41.8486 148.371 42.0488 149.475 42.0488C150.48 42.0488 151.223 41.834 151.701 41.4043C152.189 40.9746 152.487 40.2812 152.595 39.3242H154.895C154.777 40.8672 154.284 42.0049 153.415 42.7373C152.546 43.46 151.213 43.8213 149.416 43.8213ZM171.784 45.9453V52.6689H180.778V45.9453H183.21V62H180.778V54.7637H171.784V62H169.353V45.9453H171.784ZM198.239 62L197.756 59.7148H197.639C196.838 60.7207 196.037 61.4043 195.236 61.7656C194.445 62.1172 193.454 62.293 192.263 62.293C190.671 62.293 189.421 61.8828 188.513 61.0625C187.614 60.2422 187.165 59.0752 187.165 57.5615C187.165 54.3193 189.758 52.6201 194.943 52.4639L197.668 52.376V51.3799C197.668 50.1201 197.395 49.1924 196.848 48.5967C196.311 47.9912 195.446 47.6885 194.255 47.6885C192.917 47.6885 191.403 48.0986 189.714 48.9189L188.967 47.0586C189.758 46.6289 190.622 46.292 191.56 46.0479C192.507 45.8037 193.454 45.6816 194.401 45.6816C196.315 45.6816 197.731 46.1064 198.649 46.9561C199.577 47.8057 200.041 49.168 200.041 51.043V62H198.239ZM192.746 60.2861C194.26 60.2861 195.446 59.8711 196.306 59.041C197.175 58.2109 197.609 57.0488 197.609 55.5547V54.1045L195.178 54.207C193.244 54.2754 191.848 54.5781 190.988 55.1152C190.139 55.6426 189.714 56.4678 189.714 57.5908C189.714 58.4697 189.978 59.1387 190.505 59.5977C191.042 60.0566 191.789 60.2861 192.746 60.2861ZM211.481 62.293C209.157 62.293 207.355 61.5801 206.076 60.1543C204.807 58.7188 204.172 56.6924 204.172 54.0752C204.172 51.3896 204.816 49.3145 206.105 47.8496C207.404 46.3848 209.25 45.6523 211.643 45.6523C212.414 45.6523 213.186 45.7354 213.957 45.9014C214.729 46.0674 215.334 46.2627 215.773 46.4873L215.026 48.5527C214.489 48.3379 213.903 48.1621 213.269 48.0254C212.634 47.8789 212.072 47.8057 211.584 47.8057C208.322 47.8057 206.691 49.8857 206.691 54.0459C206.691 56.0186 207.087 57.5322 207.878 58.5869C208.679 59.6416 209.86 60.1689 211.423 60.1689C212.761 60.1689 214.133 59.8809 215.539 59.3047V61.458C214.465 62.0146 213.112 62.293 211.481 62.293ZM230.188 48.0254H224.973V62H222.541V48.0254H217.385V45.9453H230.188V48.0254ZM240.837 62.293C239.792 62.293 238.835 62.1025 237.966 61.7217C237.106 61.3311 236.384 60.7354 235.798 59.9346H235.622C235.739 60.8721 235.798 61.7607 235.798 62.6006V69.207H233.366V45.9453H235.344L235.681 48.1426H235.798C236.423 47.2637 237.15 46.6289 237.98 46.2383C238.811 45.8477 239.763 45.6523 240.837 45.6523C242.966 45.6523 244.606 46.3799 245.759 47.835C246.921 49.29 247.502 51.3311 247.502 53.958C247.502 56.5947 246.911 58.6455 245.729 60.1104C244.558 61.5654 242.927 62.293 240.837 62.293ZM240.485 47.7178C238.845 47.7178 237.658 48.1719 236.926 49.0801C236.193 49.9883 235.817 51.4336 235.798 53.416V53.958C235.798 56.2139 236.174 57.8301 236.926 58.8066C237.678 59.7734 238.884 60.2568 240.544 60.2568C241.931 60.2568 243.015 59.6953 243.796 58.5723C244.587 57.4492 244.982 55.9014 244.982 53.9287C244.982 51.9268 244.587 50.3936 243.796 49.3291C243.015 48.2549 241.911 47.7178 240.485 47.7178ZM265.622 53.958C265.622 56.5752 264.963 58.6211 263.645 60.0957C262.326 61.5605 260.505 62.293 258.181 62.293C256.745 62.293 255.471 61.9561 254.357 61.2822C253.244 60.6084 252.385 59.6416 251.779 58.3818C251.174 57.1221 250.871 55.6475 250.871 53.958C250.871 51.3408 251.525 49.3047 252.834 47.8496C254.143 46.3848 255.959 45.6523 258.283 45.6523C260.529 45.6523 262.312 46.3994 263.63 47.8936C264.958 49.3877 265.622 51.4092 265.622 53.958ZM253.391 53.958C253.391 56.0088 253.801 57.5713 254.621 58.6455C255.441 59.7197 256.647 60.2568 258.239 60.2568C259.831 60.2568 261.037 59.7246 261.857 58.6602C262.688 57.5859 263.103 56.0186 263.103 53.958C263.103 51.917 262.688 50.3691 261.857 49.3145C261.037 48.25 259.821 47.7178 258.21 47.7178C256.618 47.7178 255.417 48.2402 254.606 49.2852C253.796 50.3301 253.391 51.8877 253.391 53.958ZM272.185 45.9453V56.126L272.082 58.792L272.038 59.627L280.725 45.9453H283.757V62H281.486V52.1855L281.53 50.252L281.604 48.3477L272.932 62H269.899V45.9453H272.185ZM276.77 43.8213C274.963 43.8213 273.645 43.4746 272.814 42.7812C271.984 42.0781 271.521 40.9258 271.423 39.3242H273.708C273.796 40.3398 274.06 41.0479 274.499 41.4482C274.948 41.8486 275.725 42.0488 276.828 42.0488C277.834 42.0488 278.576 41.834 279.055 41.4043C279.543 40.9746 279.841 40.2812 279.948 39.3242H282.248C282.131 40.8672 281.638 42.0049 280.769 42.7373C279.899 43.46 278.566 43.8213 276.77 43.8213ZM298.273 45.9453H300.939L294.011 53.6943L301.511 62H298.669L291.345 53.8701V62H288.913V45.9453H291.345V53.7529L298.273 45.9453ZM306.784 45.9453V56.126L306.682 58.792L306.638 59.627L315.324 45.9453H318.356V62H316.086V52.1855L316.13 50.252L316.203 48.3477L307.531 62H304.499V45.9453H306.784ZM333.591 45.9453V56.126L333.488 58.792L333.444 59.627L342.131 45.9453H345.163V62H342.893V52.1855L342.937 50.252L343.01 48.3477L334.338 62H331.306V45.9453H333.591ZM72.2041 90.9736C72.2041 92.0186 71.9014 92.8145 71.2959 93.3613C70.7002 93.8984 69.8604 94.2598 68.7764 94.4453V94.5771C70.1436 94.7627 71.1396 95.1631 71.7646 95.7783C72.3994 96.3936 72.7168 97.2432 72.7168 98.3271C72.7168 99.8213 72.165 100.974 71.0615 101.784C69.9678 102.595 68.3662 103 66.2568 103H59.1816V86.9453H66.2275C70.2119 86.9453 72.2041 88.2881 72.2041 90.9736ZM70.2852 98.166C70.2852 97.2969 69.9531 96.667 69.2891 96.2764C68.6348 95.876 67.5459 95.6758 66.0225 95.6758H61.6133V100.964H66.0811C68.8838 100.964 70.2852 100.031 70.2852 98.166ZM69.8311 91.208C69.8311 90.4268 69.5283 89.875 68.9229 89.5527C68.3271 89.2207 67.4189 89.0547 66.1982 89.0547H61.6133V93.5811H65.7295C67.2334 93.5811 68.293 93.3955 68.9082 93.0244C69.5234 92.6533 69.8311 92.0479 69.8311 91.208ZM78.6934 93.5811H83.0732C85.1143 93.5811 86.623 93.9619 87.5996 94.7236C88.5859 95.4756 89.0791 96.6035 89.0791 98.1074C89.0791 99.7188 88.5566 100.939 87.5117 101.77C86.4766 102.59 84.9482 103 82.9268 103H76.2617V86.9453H78.6934V93.5811ZM94.2061 103H91.7744V86.9453H94.2061V103ZM78.6934 95.6758V100.964H82.8096C85.3877 100.964 86.6768 100.061 86.6768 98.2539C86.6768 97.3555 86.3789 96.7012 85.7832 96.291C85.1875 95.8809 84.1719 95.6758 82.7363 95.6758H78.6934ZM98.542 93.376C98.542 89.8604 99.0596 87.1211 100.095 85.1582C101.13 83.1855 102.771 81.9551 105.017 81.4668C107.81 80.8711 110.271 80.3877 112.399 80.0166L112.854 82.1553C109.465 82.7217 107.043 83.1709 105.588 83.5029C104.172 83.8252 103.107 84.5869 102.395 85.7881C101.691 86.9893 101.306 88.625 101.237 90.6953H101.413C102.019 89.875 102.8 89.2305 103.757 88.7617C104.714 88.293 105.715 88.0586 106.76 88.0586C108.732 88.0586 110.271 88.6982 111.374 89.9775C112.478 91.2568 113.029 93.0293 113.029 95.2949C113.029 97.8047 112.39 99.7676 111.11 101.184C109.831 102.59 108.049 103.293 105.764 103.293C103.508 103.293 101.74 102.429 100.461 100.7C99.1816 98.9717 98.542 96.5303 98.542 93.376ZM105.983 101.257C108.962 101.257 110.451 99.3574 110.451 95.5586C110.451 91.9355 109.099 90.124 106.394 90.124C105.651 90.124 104.934 90.2803 104.24 90.5928C103.557 90.8955 102.927 91.3008 102.351 91.8086C101.784 92.3164 101.345 92.8389 101.032 93.376C101.032 95.9443 101.438 97.9023 102.248 99.25C103.059 100.588 104.304 101.257 105.983 101.257ZM124.06 103.293C121.687 103.293 119.812 102.57 118.435 101.125C117.067 99.6797 116.384 97.6729 116.384 95.1045C116.384 92.5166 117.019 90.4609 118.288 88.9375C119.567 87.4141 121.281 86.6523 123.43 86.6523C125.441 86.6523 127.033 87.3164 128.205 88.6445C129.377 89.9629 129.963 91.7061 129.963 93.874V95.4121H118.903C118.952 97.2969 119.426 98.7275 120.324 99.7041C121.232 100.681 122.507 101.169 124.147 101.169C125.876 101.169 127.585 100.808 129.274 100.085V102.253C128.415 102.624 127.6 102.888 126.828 103.044C126.066 103.21 125.144 103.293 124.06 103.293ZM123.4 88.6885C122.111 88.6885 121.081 89.1084 120.31 89.9482C119.548 90.7881 119.099 91.9502 118.962 93.4346H127.355C127.355 91.9014 127.014 90.7295 126.33 89.9189C125.646 89.0986 124.67 88.6885 123.4 88.6885ZM141.594 103.293C140.549 103.293 139.592 103.103 138.723 102.722C137.863 102.331 137.141 101.735 136.555 100.935H136.379C136.496 101.872 136.555 102.761 136.555 103.601V110.207H134.123V86.9453H136.101L136.438 89.1426H136.555C137.18 88.2637 137.907 87.6289 138.737 87.2383C139.567 86.8477 140.52 86.6523 141.594 86.6523C143.723 86.6523 145.363 87.3799 146.516 88.835C147.678 90.29 148.259 92.3311 148.259 94.958C148.259 97.5947 147.668 99.6455 146.486 101.11C145.314 102.565 143.684 103.293 141.594 103.293ZM141.242 88.7178C139.602 88.7178 138.415 89.1719 137.683 90.0801C136.95 90.9883 136.574 92.4336 136.555 94.416V94.958C136.555 97.2139 136.931 98.8301 137.683 99.8066C138.435 100.773 139.641 101.257 141.301 101.257C142.688 101.257 143.771 100.695 144.553 99.5723C145.344 98.4492 145.739 96.9014 145.739 94.9287C145.739 92.9268 145.344 91.3936 144.553 90.3291C143.771 89.2549 142.668 88.7178 141.242 88.7178ZM154.807 86.9453V97.126L154.704 99.792L154.66 100.627L163.347 86.9453H166.379V103H164.108V93.1855L164.152 91.252L164.226 89.3477L155.554 103H152.521V86.9453H154.807ZM181.76 103H179.328V86.9453H192.805V103H190.344V89.0547H181.76V103ZM207.834 103L207.351 100.715H207.233C206.433 101.721 205.632 102.404 204.831 102.766C204.04 103.117 203.049 103.293 201.857 103.293C200.266 103.293 199.016 102.883 198.107 102.062C197.209 101.242 196.76 100.075 196.76 98.5615C196.76 95.3193 199.353 93.6201 204.538 93.4639L207.263 93.376V92.3799C207.263 91.1201 206.989 90.1924 206.442 89.5967C205.905 88.9912 205.041 88.6885 203.85 88.6885C202.512 88.6885 200.998 89.0986 199.309 89.9189L198.562 88.0586C199.353 87.6289 200.217 87.292 201.154 87.0479C202.102 86.8037 203.049 86.6816 203.996 86.6816C205.91 86.6816 207.326 87.1064 208.244 87.9561C209.172 88.8057 209.636 90.168 209.636 92.043V103H207.834ZM202.341 101.286C203.854 101.286 205.041 100.871 205.9 100.041C206.77 99.2109 207.204 98.0488 207.204 96.5547V95.1045L204.772 95.207C202.839 95.2754 201.442 95.5781 200.583 96.1152C199.733 96.6426 199.309 97.4678 199.309 98.5908C199.309 99.4697 199.572 100.139 200.1 100.598C200.637 101.057 201.384 101.286 202.341 101.286ZM222.131 103.293C221.086 103.293 220.129 103.103 219.26 102.722C218.4 102.331 217.678 101.735 217.092 100.935H216.916C217.033 101.872 217.092 102.761 217.092 103.601V110.207H214.66V86.9453H216.638L216.975 89.1426H217.092C217.717 88.2637 218.444 87.6289 219.274 87.2383C220.104 86.8477 221.057 86.6523 222.131 86.6523C224.26 86.6523 225.9 87.3799 227.053 88.835C228.215 90.29 228.796 92.3311 228.796 94.958C228.796 97.5947 228.205 99.6455 227.023 101.11C225.852 102.565 224.221 103.293 222.131 103.293ZM221.779 88.7178C220.139 88.7178 218.952 89.1719 218.22 90.0801C217.487 90.9883 217.111 92.4336 217.092 94.416V94.958C217.092 97.2139 217.468 98.8301 218.22 99.8066C218.972 100.773 220.178 101.257 221.838 101.257C223.225 101.257 224.309 100.695 225.09 99.5723C225.881 98.4492 226.276 96.9014 226.276 94.9287C226.276 92.9268 225.881 91.3936 225.09 90.3291C224.309 89.2549 223.205 88.7178 221.779 88.7178ZM242.932 103L242.448 100.715H242.331C241.53 101.721 240.729 102.404 239.929 102.766C239.138 103.117 238.146 103.293 236.955 103.293C235.363 103.293 234.113 102.883 233.205 102.062C232.307 101.242 231.857 100.075 231.857 98.5615C231.857 95.3193 234.45 93.6201 239.636 93.4639L242.36 93.376V92.3799C242.36 91.1201 242.087 90.1924 241.54 89.5967C241.003 88.9912 240.139 88.6885 238.947 88.6885C237.609 88.6885 236.096 89.0986 234.406 89.9189L233.659 88.0586C234.45 87.6289 235.314 87.292 236.252 87.0479C237.199 86.8037 238.146 86.6816 239.094 86.6816C241.008 86.6816 242.424 87.1064 243.342 87.9561C244.27 88.8057 244.733 90.168 244.733 92.043V103H242.932ZM237.438 101.286C238.952 101.286 240.139 100.871 240.998 100.041C241.867 99.2109 242.302 98.0488 242.302 96.5547V95.1045L239.87 95.207C237.937 95.2754 236.54 95.5781 235.681 96.1152C234.831 96.6426 234.406 97.4678 234.406 98.5908C234.406 99.4697 234.67 100.139 235.197 100.598C235.734 101.057 236.481 101.286 237.438 101.286ZM258.093 100.656L258.547 99.2939L259.177 97.5654L263.527 86.9746H266.618V103H264.465V89.7432L264.172 90.5928L263.322 92.834L259.177 103H257.141L252.995 92.8047C252.478 91.4961 252.121 90.4756 251.926 89.7432V103H249.758V86.9746H252.731L256.936 97.1553C257.355 98.2295 257.741 99.3965 258.093 100.656ZM278.601 103.293C276.228 103.293 274.353 102.57 272.976 101.125C271.608 99.6797 270.925 97.6729 270.925 95.1045C270.925 92.5166 271.56 90.4609 272.829 88.9375C274.108 87.4141 275.822 86.6523 277.971 86.6523C279.982 86.6523 281.574 87.3164 282.746 88.6445C283.918 89.9629 284.504 91.7061 284.504 93.874V95.4121H273.444C273.493 97.2969 273.967 98.7275 274.865 99.7041C275.773 100.681 277.048 101.169 278.688 101.169C280.417 101.169 282.126 100.808 283.815 100.085V102.253C282.956 102.624 282.141 102.888 281.369 103.044C280.607 103.21 279.685 103.293 278.601 103.293ZM277.941 88.6885C276.652 88.6885 275.622 89.1084 274.851 89.9482C274.089 90.7881 273.64 91.9502 273.503 93.4346H281.896C281.896 91.9014 281.555 90.7295 280.871 89.9189C280.188 89.0986 279.211 88.6885 277.941 88.6885ZM299.489 89.0254H294.274V103H291.843V89.0254H286.687V86.9453H299.489V89.0254ZM310.139 103.293C309.094 103.293 308.137 103.103 307.268 102.722C306.408 102.331 305.686 101.735 305.1 100.935H304.924C305.041 101.872 305.1 102.761 305.1 103.601V110.207H302.668V86.9453H304.646L304.982 89.1426H305.1C305.725 88.2637 306.452 87.6289 307.282 87.2383C308.112 86.8477 309.064 86.6523 310.139 86.6523C312.268 86.6523 313.908 87.3799 315.061 88.835C316.223 90.29 316.804 92.3311 316.804 94.958C316.804 97.5947 316.213 99.6455 315.031 101.11C313.859 102.565 312.229 103.293 310.139 103.293ZM309.787 88.7178C308.146 88.7178 306.96 89.1719 306.228 90.0801C305.495 90.9883 305.119 92.4336 305.1 94.416V94.958C305.1 97.2139 305.476 98.8301 306.228 99.8066C306.979 100.773 308.186 101.257 309.846 101.257C311.232 101.257 312.316 100.695 313.098 99.5723C313.889 98.4492 314.284 96.9014 314.284 94.9287C314.284 92.9268 313.889 91.3936 313.098 90.3291C312.316 89.2549 311.213 88.7178 309.787 88.7178ZM323.498 93.5811H327.878C329.919 93.5811 331.428 93.9619 332.404 94.7236C333.391 95.4756 333.884 96.6035 333.884 98.1074C333.884 99.7188 333.361 100.939 332.316 101.77C331.281 102.59 329.753 103 327.731 103H321.066V86.9453H323.498V93.5811ZM339.011 103H336.579V86.9453H339.011V103ZM323.498 95.6758V100.964H327.614C330.192 100.964 331.481 100.061 331.481 98.2539C331.481 97.3555 331.184 96.7012 330.588 96.291C329.992 95.8809 328.977 95.6758 327.541 95.6758H323.498ZM80.6123 144H78.1807V127.945H91.6572V144H89.1963V130.055H80.6123V144ZM104.284 144.293C103.239 144.293 102.282 144.103 101.413 143.722C100.554 143.331 99.8311 142.735 99.2451 141.935H99.0693C99.1865 142.872 99.2451 143.761 99.2451 144.601V151.207H96.8135V127.945H98.791L99.1279 130.143H99.2451C99.8701 129.264 100.598 128.629 101.428 128.238C102.258 127.848 103.21 127.652 104.284 127.652C106.413 127.652 108.054 128.38 109.206 129.835C110.368 131.29 110.949 133.331 110.949 135.958C110.949 138.595 110.358 140.646 109.177 142.11C108.005 143.565 106.374 144.293 104.284 144.293ZM103.933 129.718C102.292 129.718 101.105 130.172 100.373 131.08C99.6406 131.988 99.2646 133.434 99.2451 135.416V135.958C99.2451 138.214 99.6211 139.83 100.373 140.807C101.125 141.773 102.331 142.257 103.991 142.257C105.378 142.257 106.462 141.695 107.243 140.572C108.034 139.449 108.43 137.901 108.43 135.929C108.43 133.927 108.034 132.394 107.243 131.329C106.462 130.255 105.358 129.718 103.933 129.718ZM129.069 135.958C129.069 138.575 128.41 140.621 127.092 142.096C125.773 143.561 123.952 144.293 121.628 144.293C120.192 144.293 118.918 143.956 117.805 143.282C116.691 142.608 115.832 141.642 115.227 140.382C114.621 139.122 114.318 137.647 114.318 135.958C114.318 133.341 114.973 131.305 116.281 129.85C117.59 128.385 119.406 127.652 121.73 127.652C123.977 127.652 125.759 128.399 127.077 129.894C128.405 131.388 129.069 133.409 129.069 135.958ZM116.838 135.958C116.838 138.009 117.248 139.571 118.068 140.646C118.889 141.72 120.095 142.257 121.687 142.257C123.278 142.257 124.484 141.725 125.305 140.66C126.135 139.586 126.55 138.019 126.55 135.958C126.55 133.917 126.135 132.369 125.305 131.314C124.484 130.25 123.269 129.718 121.657 129.718C120.065 129.718 118.864 130.24 118.054 131.285C117.243 132.33 116.838 133.888 116.838 135.958ZM139.763 144.293C137.438 144.293 135.637 143.58 134.357 142.154C133.088 140.719 132.453 138.692 132.453 136.075C132.453 133.39 133.098 131.314 134.387 129.85C135.686 128.385 137.531 127.652 139.924 127.652C140.695 127.652 141.467 127.735 142.238 127.901C143.01 128.067 143.615 128.263 144.055 128.487L143.308 130.553C142.771 130.338 142.185 130.162 141.55 130.025C140.915 129.879 140.354 129.806 139.865 129.806C136.604 129.806 134.973 131.886 134.973 136.046C134.973 138.019 135.368 139.532 136.159 140.587C136.96 141.642 138.142 142.169 139.704 142.169C141.042 142.169 142.414 141.881 143.82 141.305V143.458C142.746 144.015 141.394 144.293 139.763 144.293ZM155.979 141.656L156.433 140.294L157.062 138.565L161.413 127.975H164.504V144H162.351V130.743L162.058 131.593L161.208 133.834L157.062 144H155.026L150.881 133.805C150.363 132.496 150.007 131.476 149.812 130.743V144H147.644V127.975H150.617L154.821 138.155C155.241 139.229 155.627 140.396 155.979 141.656ZM183.562 135.958C183.562 138.575 182.902 140.621 181.584 142.096C180.266 143.561 178.444 144.293 176.12 144.293C174.685 144.293 173.41 143.956 172.297 143.282C171.184 142.608 170.324 141.642 169.719 140.382C169.113 139.122 168.811 137.647 168.811 135.958C168.811 133.341 169.465 131.305 170.773 129.85C172.082 128.385 173.898 127.652 176.223 127.652C178.469 127.652 180.251 128.399 181.569 129.894C182.897 131.388 183.562 133.409 183.562 135.958ZM171.33 135.958C171.33 138.009 171.74 139.571 172.561 140.646C173.381 141.72 174.587 142.257 176.179 142.257C177.771 142.257 178.977 141.725 179.797 140.66C180.627 139.586 181.042 138.019 181.042 135.958C181.042 133.917 180.627 132.369 179.797 131.314C178.977 130.25 177.761 129.718 176.149 129.718C174.558 129.718 173.356 130.24 172.546 131.285C171.735 132.33 171.33 133.888 171.33 135.958ZM198.664 130.025H193.449V144H191.018V130.025H185.861V127.945H198.664V130.025ZM209.313 144.293C208.269 144.293 207.312 144.103 206.442 143.722C205.583 143.331 204.86 142.735 204.274 141.935H204.099C204.216 142.872 204.274 143.761 204.274 144.601V151.207H201.843V127.945H203.82L204.157 130.143H204.274C204.899 129.264 205.627 128.629 206.457 128.238C207.287 127.848 208.239 127.652 209.313 127.652C211.442 127.652 213.083 128.38 214.235 129.835C215.397 131.29 215.979 133.331 215.979 135.958C215.979 138.595 215.388 140.646 214.206 142.11C213.034 143.565 211.403 144.293 209.313 144.293ZM208.962 129.718C207.321 129.718 206.135 130.172 205.402 131.08C204.67 131.988 204.294 133.434 204.274 135.416V135.958C204.274 138.214 204.65 139.83 205.402 140.807C206.154 141.773 207.36 142.257 209.021 142.257C210.407 142.257 211.491 141.695 212.272 140.572C213.063 139.449 213.459 137.901 213.459 135.929C213.459 133.927 213.063 132.394 212.272 131.329C211.491 130.255 210.388 129.718 208.962 129.718ZM230.114 144L229.631 141.715H229.514C228.713 142.721 227.912 143.404 227.111 143.766C226.32 144.117 225.329 144.293 224.138 144.293C222.546 144.293 221.296 143.883 220.388 143.062C219.489 142.242 219.04 141.075 219.04 139.562C219.04 136.319 221.633 134.62 226.818 134.464L229.543 134.376V133.38C229.543 132.12 229.27 131.192 228.723 130.597C228.186 129.991 227.321 129.688 226.13 129.688C224.792 129.688 223.278 130.099 221.589 130.919L220.842 129.059C221.633 128.629 222.497 128.292 223.435 128.048C224.382 127.804 225.329 127.682 226.276 127.682C228.19 127.682 229.606 128.106 230.524 128.956C231.452 129.806 231.916 131.168 231.916 133.043V144H230.114ZM224.621 142.286C226.135 142.286 227.321 141.871 228.181 141.041C229.05 140.211 229.484 139.049 229.484 137.555V136.104L227.053 136.207C225.119 136.275 223.723 136.578 222.863 137.115C222.014 137.643 221.589 138.468 221.589 139.591C221.589 140.47 221.853 141.139 222.38 141.598C222.917 142.057 223.664 142.286 224.621 142.286ZM257.756 131.974C257.756 133.019 257.453 133.814 256.848 134.361C256.252 134.898 255.412 135.26 254.328 135.445V135.577C255.695 135.763 256.691 136.163 257.316 136.778C257.951 137.394 258.269 138.243 258.269 139.327C258.269 140.821 257.717 141.974 256.613 142.784C255.52 143.595 253.918 144 251.809 144H244.733V127.945H251.779C255.764 127.945 257.756 129.288 257.756 131.974ZM255.837 139.166C255.837 138.297 255.505 137.667 254.841 137.276C254.187 136.876 253.098 136.676 251.574 136.676H247.165V141.964H251.633C254.436 141.964 255.837 141.031 255.837 139.166ZM255.383 132.208C255.383 131.427 255.08 130.875 254.475 130.553C253.879 130.221 252.971 130.055 251.75 130.055H247.165V134.581H251.281C252.785 134.581 253.845 134.396 254.46 134.024C255.075 133.653 255.383 133.048 255.383 132.208ZM264.099 127.945V138.126L263.996 140.792L263.952 141.627L272.639 127.945H275.671V144H273.4V134.186L273.444 132.252L273.518 130.348L264.846 144H261.813V127.945H264.099ZM294.772 149.552H292.414V144H281.193V149.552H278.85V141.905H280.109C281.418 140.128 282.443 138.043 283.186 135.65C283.928 133.258 284.313 130.689 284.343 127.945H292.473V141.905H294.772V149.552ZM290.129 141.905V129.864H286.525C286.398 132.032 285.979 134.229 285.266 136.456C284.562 138.673 283.684 140.489 282.629 141.905H290.129ZM304.777 144.293C302.404 144.293 300.529 143.57 299.152 142.125C297.785 140.68 297.102 138.673 297.102 136.104C297.102 133.517 297.736 131.461 299.006 129.938C300.285 128.414 301.999 127.652 304.147 127.652C306.159 127.652 307.751 128.316 308.923 129.645C310.095 130.963 310.681 132.706 310.681 134.874V136.412H299.621C299.67 138.297 300.144 139.728 301.042 140.704C301.95 141.681 303.225 142.169 304.865 142.169C306.594 142.169 308.303 141.808 309.992 141.085V143.253C309.133 143.624 308.317 143.888 307.546 144.044C306.784 144.21 305.861 144.293 304.777 144.293ZM304.118 129.688C302.829 129.688 301.799 130.108 301.027 130.948C300.266 131.788 299.816 132.95 299.68 134.435H308.073C308.073 132.901 307.731 131.729 307.048 130.919C306.364 130.099 305.388 129.688 304.118 129.688ZM328.698 135.958C328.698 138.575 328.039 140.621 326.721 142.096C325.402 143.561 323.581 144.293 321.257 144.293C319.821 144.293 318.547 143.956 317.434 143.282C316.32 142.608 315.461 141.642 314.855 140.382C314.25 139.122 313.947 137.647 313.947 135.958C313.947 133.341 314.602 131.305 315.91 129.85C317.219 128.385 319.035 127.652 321.359 127.652C323.605 127.652 325.388 128.399 326.706 129.894C328.034 131.388 328.698 133.409 328.698 135.958ZM316.467 135.958C316.467 138.009 316.877 139.571 317.697 140.646C318.518 141.72 319.724 142.257 321.315 142.257C322.907 142.257 324.113 141.725 324.934 140.66C325.764 139.586 326.179 138.019 326.179 135.958C326.179 133.917 325.764 132.369 324.934 131.314C324.113 130.25 322.897 129.718 321.286 129.718C319.694 129.718 318.493 130.24 317.683 131.285C316.872 132.33 316.467 133.888 316.467 135.958Z" fill="black"/>
<rect x="2.5" y="2.5" width="401" height="178" rx="7.5" stroke="#40A9FF" stroke-width="5"/>
</svg>
