<svg width="583" height="183" viewBox="0 0 583 183" fill="none" xmlns="http://www.w3.org/2000/svg">
<rect x="2.5" y="2.5" width="578" height="178" rx="7.5" fill="white"/>
<path d="M71.7148 51.2627C71.7148 54.6904 70.8457 57.3857 69.1074 59.3486C67.3789 61.3115 64.9717 62.293 61.8857 62.293C58.7314 62.293 56.2949 61.3311 54.5762 59.4072C52.8672 57.4736 52.0127 54.749 52.0127 51.2334C52.0127 47.7471 52.8721 45.0469 54.5908 43.1328C56.3096 41.209 58.751 40.2471 61.915 40.2471C64.9912 40.2471 67.3936 41.2236 69.1221 43.1768C70.8506 45.1299 71.7148 47.8252 71.7148 51.2627ZM54.6494 51.2627C54.6494 54.1631 55.2646 56.3652 56.4951 57.8691C57.7354 59.3633 59.5322 60.1104 61.8857 60.1104C64.2588 60.1104 66.0508 59.3633 67.2617 57.8691C68.4727 56.375 69.0781 54.1729 69.0781 51.2627C69.0781 48.3818 68.4727 46.1992 67.2617 44.7148C66.0605 43.2207 64.2783 42.4736 61.915 42.4736C59.542 42.4736 57.7354 43.2256 56.4951 44.7295C55.2646 46.2236 54.6494 48.4014 54.6494 51.2627ZM86.9639 48.0254H81.749V62H79.3174V48.0254H74.1611V45.9453H86.9639V48.0254ZM99.5029 45.9453H102.169L95.2402 53.6943L102.74 62H99.8984L92.5742 53.8701V62H90.1426V45.9453H92.5742V53.7529L99.5029 45.9453ZM113.199 62.293C112.154 62.293 111.197 62.1025 110.328 61.7217C109.469 61.3311 108.746 60.7354 108.16 59.9346H107.984C108.102 60.8721 108.16 61.7607 108.16 62.6006V69.207H105.729V45.9453H107.706L108.043 48.1426H108.16C108.785 47.2637 109.513 46.6289 110.343 46.2383C111.173 45.8477 112.125 45.6523 113.199 45.6523C115.328 45.6523 116.969 46.3799 118.121 47.835C119.283 49.29 119.864 51.3311 119.864 53.958C119.864 56.5947 119.273 58.6455 118.092 60.1104C116.92 61.5654 115.289 62.293 113.199 62.293ZM112.848 47.7178C111.207 47.7178 110.021 48.1719 109.288 49.0801C108.556 49.9883 108.18 51.4336 108.16 53.416V53.958C108.16 56.2139 108.536 57.8301 109.288 58.8066C110.04 59.7734 111.246 60.2568 112.906 60.2568C114.293 60.2568 115.377 59.6953 116.158 58.5723C116.949 57.4492 117.345 55.9014 117.345 53.9287C117.345 51.9268 116.949 50.3936 116.158 49.3291C115.377 48.2549 114.273 47.7178 112.848 47.7178ZM137.984 53.958C137.984 56.5752 137.325 58.6211 136.007 60.0957C134.688 61.5605 132.867 62.293 130.543 62.293C129.107 62.293 127.833 61.9561 126.72 61.2822C125.606 60.6084 124.747 59.6416 124.142 58.3818C123.536 57.1221 123.233 55.6475 123.233 53.958C123.233 51.3408 123.888 49.3047 125.196 47.8496C126.505 46.3848 128.321 45.6523 130.646 45.6523C132.892 45.6523 134.674 46.3994 135.992 47.8936C137.32 49.3877 137.984 51.4092 137.984 53.958ZM125.753 53.958C125.753 56.0088 126.163 57.5713 126.983 58.6455C127.804 59.7197 129.01 60.2568 130.602 60.2568C132.193 60.2568 133.399 59.7246 134.22 58.6602C135.05 57.5859 135.465 56.0186 135.465 53.958C135.465 51.917 135.05 50.3691 134.22 49.3145C133.399 48.25 132.184 47.7178 130.572 47.7178C128.98 47.7178 127.779 48.2402 126.969 49.2852C126.158 50.3301 125.753 51.8877 125.753 53.958ZM144.547 45.9453V56.126L144.444 58.792L144.4 59.627L153.087 45.9453H156.119V62H153.849V52.1855L153.893 50.252L153.966 48.3477L145.294 62H142.262V45.9453H144.547ZM149.132 43.8213C147.325 43.8213 146.007 43.4746 145.177 42.7812C144.347 42.0781 143.883 40.9258 143.785 39.3242H146.07C146.158 40.3398 146.422 41.0479 146.861 41.4482C147.311 41.8486 148.087 42.0488 149.19 42.0488C150.196 42.0488 150.938 41.834 151.417 41.4043C151.905 40.9746 152.203 40.2812 152.311 39.3242H154.61C154.493 40.8672 154 42.0049 153.131 42.7373C152.262 43.46 150.929 43.8213 149.132 43.8213ZM171.354 45.9453V56.126L171.251 58.792L171.207 59.627L179.894 45.9453H182.926V62H180.655V52.1855L180.699 50.252L180.772 48.3477L172.101 62H169.068V45.9453H171.354ZM197.75 48.0254H190.514V62H188.082V45.9453H197.75V48.0254ZM208.414 62.293C207.369 62.293 206.412 62.1025 205.543 61.7217C204.684 61.3311 203.961 60.7354 203.375 59.9346H203.199C203.316 60.8721 203.375 61.7607 203.375 62.6006V69.207H200.943V45.9453H202.921L203.258 48.1426H203.375C204 47.2637 204.728 46.6289 205.558 46.2383C206.388 45.8477 207.34 45.6523 208.414 45.6523C210.543 45.6523 212.184 46.3799 213.336 47.835C214.498 49.29 215.079 51.3311 215.079 53.958C215.079 56.5947 214.488 58.6455 213.307 60.1104C212.135 61.5654 210.504 62.293 208.414 62.293ZM208.062 47.7178C206.422 47.7178 205.235 48.1719 204.503 49.0801C203.771 49.9883 203.395 51.4336 203.375 53.416V53.958C203.375 56.2139 203.751 57.8301 204.503 58.8066C205.255 59.7734 206.461 60.2568 208.121 60.2568C209.508 60.2568 210.592 59.6953 211.373 58.5723C212.164 57.4492 212.56 55.9014 212.56 53.9287C212.56 51.9268 212.164 50.3936 211.373 49.3291C210.592 48.2549 209.488 47.7178 208.062 47.7178ZM221.773 52.5811H226.153C228.194 52.5811 229.703 52.9619 230.68 53.7236C231.666 54.4756 232.159 55.6035 232.159 57.1074C232.159 58.7188 231.637 59.9395 230.592 60.7695C229.557 61.5898 228.028 62 226.007 62H219.342V45.9453H221.773V52.5811ZM237.286 62H234.854V45.9453H237.286V62ZM221.773 54.6758V59.9639H225.89C228.468 59.9639 229.757 59.0605 229.757 57.2539C229.757 56.3555 229.459 55.7012 228.863 55.291C228.268 54.8809 227.252 54.6758 225.816 54.6758H221.773ZM263.272 49.9736C263.272 51.0186 262.97 51.8145 262.364 52.3613C261.769 52.8984 260.929 53.2598 259.845 53.4453V53.5771C261.212 53.7627 262.208 54.1631 262.833 54.7783C263.468 55.3936 263.785 56.2432 263.785 57.3271C263.785 58.8213 263.233 59.9736 262.13 60.7842C261.036 61.5947 259.435 62 257.325 62H250.25V45.9453H257.296C261.28 45.9453 263.272 47.2881 263.272 49.9736ZM261.354 57.166C261.354 56.2969 261.021 55.667 260.357 55.2764C259.703 54.876 258.614 54.6758 257.091 54.6758H252.682V59.9639H257.149C259.952 59.9639 261.354 59.0312 261.354 57.166ZM260.899 50.208C260.899 49.4268 260.597 48.875 259.991 48.5527C259.396 48.2207 258.487 48.0547 257.267 48.0547H252.682V52.5811H256.798C258.302 52.5811 259.361 52.3955 259.977 52.0244C260.592 51.6533 260.899 51.0479 260.899 50.208ZM282.081 62H279.591V42.7959H272.809V40.584H288.863V42.7959H282.081V62ZM294.02 45.9453V56.3604C294.02 57.6689 294.317 58.6455 294.913 59.29C295.509 59.9346 296.441 60.2568 297.711 60.2568C299.391 60.2568 300.616 59.7979 301.388 58.8799C302.169 57.9619 302.56 56.4629 302.56 54.3828V45.9453H304.991V62H302.984L302.633 59.8467H302.501C302.003 60.6377 301.31 61.2432 300.421 61.6631C299.542 62.083 298.536 62.293 297.403 62.293C295.45 62.293 293.985 61.8291 293.009 60.9014C292.042 59.9736 291.559 58.4893 291.559 56.4482V45.9453H294.02ZM315.348 60.2861C315.777 60.2861 316.192 60.2568 316.593 60.1982C316.993 60.1299 317.311 60.0615 317.545 59.9932V61.8535C317.281 61.9805 316.891 62.083 316.373 62.1611C315.865 62.249 315.406 62.293 314.996 62.293C311.891 62.293 310.338 60.6572 310.338 57.3857V47.835H308.038V46.6631L310.338 45.6523L311.363 42.2246H312.77V45.9453H317.428V47.835H312.77V57.2832C312.77 58.25 312.999 58.9922 313.458 59.5098C313.917 60.0273 314.547 60.2861 315.348 60.2861ZM334.625 53.958C334.625 56.5752 333.966 58.6211 332.647 60.0957C331.329 61.5605 329.508 62.293 327.184 62.293C325.748 62.293 324.474 61.9561 323.36 61.2822C322.247 60.6084 321.388 59.6416 320.782 58.3818C320.177 57.1221 319.874 55.6475 319.874 53.958C319.874 51.3408 320.528 49.3047 321.837 47.8496C323.146 46.3848 324.962 45.6523 327.286 45.6523C329.532 45.6523 331.314 46.3994 332.633 47.8936C333.961 49.3877 334.625 51.4092 334.625 53.958ZM322.394 53.958C322.394 56.0088 322.804 57.5713 323.624 58.6455C324.444 59.7197 325.65 60.2568 327.242 60.2568C328.834 60.2568 330.04 59.7246 330.86 58.6602C331.69 57.5859 332.105 56.0186 332.105 53.958C332.105 51.917 331.69 50.3691 330.86 49.3145C330.04 48.25 328.824 47.7178 327.213 47.7178C325.621 47.7178 324.42 48.2402 323.609 49.2852C322.799 50.3301 322.394 51.8877 322.394 53.958ZM346.227 45.6523C346.939 45.6523 347.579 45.7109 348.146 45.8281L347.809 48.084C347.145 47.9375 346.559 47.8643 346.051 47.8643C344.752 47.8643 343.639 48.3916 342.711 49.4463C341.793 50.501 341.334 51.8145 341.334 53.3867V62H338.902V45.9453H340.909L341.188 48.9189H341.305C341.9 47.874 342.618 47.0684 343.458 46.502C344.298 45.9355 345.221 45.6523 346.227 45.6523ZM365.357 62.293C363.033 62.293 361.231 61.5801 359.952 60.1543C358.683 58.7188 358.048 56.6924 358.048 54.0752C358.048 51.3896 358.692 49.3145 359.981 47.8496C361.28 46.3848 363.126 45.6523 365.519 45.6523C366.29 45.6523 367.062 45.7354 367.833 45.9014C368.604 46.0674 369.21 46.2627 369.649 46.4873L368.902 48.5527C368.365 48.3379 367.779 48.1621 367.145 48.0254C366.51 47.8789 365.948 47.8057 365.46 47.8057C362.198 47.8057 360.567 49.8857 360.567 54.0459C360.567 56.0186 360.963 57.5322 361.754 58.5869C362.555 59.6416 363.736 60.1689 365.299 60.1689C366.637 60.1689 368.009 59.8809 369.415 59.3047V61.458C368.341 62.0146 366.988 62.293 365.357 62.293ZM383.463 62H381.031V45.9453H394.508V62H392.047V48.0547H383.463V62ZM413.521 53.958C413.521 56.5752 412.862 58.6211 411.544 60.0957C410.226 61.5605 408.404 62.293 406.08 62.293C404.645 62.293 403.37 61.9561 402.257 61.2822C401.144 60.6084 400.284 59.6416 399.679 58.3818C399.073 57.1221 398.771 55.6475 398.771 53.958C398.771 51.3408 399.425 49.3047 400.733 47.8496C402.042 46.3848 403.858 45.6523 406.183 45.6523C408.429 45.6523 410.211 46.3994 411.529 47.8936C412.857 49.3877 413.521 51.4092 413.521 53.958ZM401.29 53.958C401.29 56.0088 401.7 57.5713 402.521 58.6455C403.341 59.7197 404.547 60.2568 406.139 60.2568C407.73 60.2568 408.937 59.7246 409.757 58.6602C410.587 57.5859 411.002 56.0186 411.002 53.958C411.002 51.917 410.587 50.3691 409.757 49.3145C408.937 48.25 407.721 47.7178 406.109 47.7178C404.518 47.7178 403.316 48.2402 402.506 49.2852C401.695 50.3301 401.29 51.8877 401.29 53.958ZM426.134 59.6562L426.588 58.2939L427.218 56.5654L431.568 45.9746H434.659V62H432.506V48.7432L432.213 49.5928L431.363 51.834L427.218 62H425.182L421.036 51.8047C420.519 50.4961 420.162 49.4756 419.967 48.7432V62H417.799V45.9746H420.772L424.977 56.1553C425.396 57.2295 425.782 58.3965 426.134 59.6562ZM453.717 53.958C453.717 56.5752 453.058 58.6211 451.739 60.0957C450.421 61.5605 448.6 62.293 446.275 62.293C444.84 62.293 443.565 61.9561 442.452 61.2822C441.339 60.6084 440.479 59.6416 439.874 58.3818C439.269 57.1221 438.966 55.6475 438.966 53.958C438.966 51.3408 439.62 49.3047 440.929 47.8496C442.237 46.3848 444.054 45.6523 446.378 45.6523C448.624 45.6523 450.406 46.3994 451.725 47.8936C453.053 49.3877 453.717 51.4092 453.717 53.958ZM441.485 53.958C441.485 56.0088 441.896 57.5713 442.716 58.6455C443.536 59.7197 444.742 60.2568 446.334 60.2568C447.926 60.2568 449.132 59.7246 449.952 58.6602C450.782 57.5859 451.197 56.0186 451.197 53.958C451.197 51.917 450.782 50.3691 449.952 49.3145C449.132 48.25 447.916 47.7178 446.305 47.7178C444.713 47.7178 443.512 48.2402 442.701 49.2852C441.891 50.3301 441.485 51.8877 441.485 53.958ZM469.962 59.9053H477.081V45.9746H479.513V59.9053H481.812V67.5225H479.352V62H457.994V45.9746H460.426V59.9053H467.53V45.9746H469.962V59.9053ZM487.35 52.5811H492.301C496.402 52.5811 498.453 54.0898 498.453 57.1074C498.453 58.6895 497.916 59.9004 496.842 60.7402C495.777 61.5801 494.215 62 492.154 62H484.918V45.9453H487.35V52.5811ZM487.35 54.6758V59.9639H492.037C493.326 59.9639 494.312 59.7393 494.996 59.29C495.68 58.8408 496.021 58.1621 496.021 57.2539C496.021 56.3652 495.704 55.7158 495.069 55.3057C494.444 54.8857 493.409 54.6758 491.964 54.6758H487.35ZM523.341 53.958C523.341 56.585 522.711 58.6309 521.451 60.0957C520.201 61.5605 518.482 62.293 516.295 62.293C514.215 62.293 512.564 61.6436 511.344 60.3447C510.123 59.0361 509.444 57.1758 509.308 54.7637H505.104V62H502.672V45.9453H505.104V52.6689H509.337C509.532 50.4424 510.245 48.7188 511.476 47.498C512.706 46.2676 514.332 45.6523 516.354 45.6523C518.502 45.6523 520.201 46.3994 521.451 47.8936C522.711 49.3779 523.341 51.3994 523.341 53.958ZM511.827 53.958C511.827 56.0186 512.184 57.5859 512.896 58.6602C513.609 59.7246 514.752 60.2568 516.324 60.2568C517.867 60.2568 519 59.7393 519.723 58.7041C520.455 57.6592 520.821 56.0771 520.821 53.958C520.821 51.9072 520.465 50.3545 519.752 49.2998C519.039 48.2451 517.896 47.7178 516.324 47.7178C514.752 47.7178 513.609 48.2451 512.896 49.2998C512.184 50.3545 511.827 51.9072 511.827 53.958ZM138.38 100.656L138.834 99.2939L139.464 97.5654L143.814 86.9746H146.905V103H144.752V89.7432L144.459 90.5928L143.609 92.834L139.464 103H137.428L133.282 92.8047C132.765 91.4961 132.408 90.4756 132.213 89.7432V103H130.045V86.9746H133.019L137.223 97.1553C137.643 98.2295 138.028 99.3965 138.38 100.656ZM165.963 94.958C165.963 97.5752 165.304 99.6211 163.985 101.096C162.667 102.561 160.846 103.293 158.521 103.293C157.086 103.293 155.812 102.956 154.698 102.282C153.585 101.608 152.726 100.642 152.12 99.3818C151.515 98.1221 151.212 96.6475 151.212 94.958C151.212 92.3408 151.866 90.3047 153.175 88.8496C154.483 87.3848 156.3 86.6523 158.624 86.6523C160.87 86.6523 162.652 87.3994 163.971 88.8936C165.299 90.3877 165.963 92.4092 165.963 94.958ZM153.731 94.958C153.731 97.0088 154.142 98.5713 154.962 99.6455C155.782 100.72 156.988 101.257 158.58 101.257C160.172 101.257 161.378 100.725 162.198 99.6602C163.028 98.5859 163.443 97.0186 163.443 94.958C163.443 92.917 163.028 91.3691 162.198 90.3145C161.378 89.25 160.162 88.7178 158.551 88.7178C156.959 88.7178 155.758 89.2402 154.947 90.2852C154.137 91.3301 153.731 92.8877 153.731 94.958ZM169.405 93.376C169.405 89.8604 169.923 87.1211 170.958 85.1582C171.993 83.1855 173.634 81.9551 175.88 81.4668C178.673 80.8711 181.134 80.3877 183.263 80.0166L183.717 82.1553C180.328 82.7217 177.906 83.1709 176.451 83.5029C175.035 83.8252 173.971 84.5869 173.258 85.7881C172.555 86.9893 172.169 88.625 172.101 90.6953H172.276C172.882 89.875 173.663 89.2305 174.62 88.7617C175.577 88.293 176.578 88.0586 177.623 88.0586C179.596 88.0586 181.134 88.6982 182.237 89.9775C183.341 91.2568 183.893 93.0293 183.893 95.2949C183.893 97.8047 183.253 99.7676 181.974 101.184C180.694 102.59 178.912 103.293 176.627 103.293C174.371 103.293 172.604 102.429 171.324 100.7C170.045 98.9717 169.405 96.5303 169.405 93.376ZM176.847 101.257C179.825 101.257 181.314 99.3574 181.314 95.5586C181.314 91.9355 179.962 90.124 177.257 90.124C176.515 90.124 175.797 90.2803 175.104 90.5928C174.42 90.8955 173.79 91.3008 173.214 91.8086C172.647 92.3164 172.208 92.8389 171.896 93.376C171.896 95.9443 172.301 97.9023 173.111 99.25C173.922 100.588 175.167 101.257 176.847 101.257ZM190.426 86.9453V97.126L190.323 99.792L190.279 100.627L198.966 86.9453H201.998V103H199.728V93.1855L199.771 91.252L199.845 89.3477L191.173 103H188.141V86.9453H190.426ZM219.122 103H216.661V89.0254H211.842C211.578 92.502 211.212 95.2607 210.743 97.3018C210.274 99.3428 209.664 100.837 208.912 101.784C208.17 102.731 207.223 103.205 206.07 103.205C205.543 103.205 205.123 103.146 204.811 103.029V101.228C205.025 101.286 205.27 101.315 205.543 101.315C206.666 101.315 207.56 100.129 208.224 97.7559C208.888 95.3828 209.391 91.7793 209.732 86.9453H219.122V103ZM226.725 93.5811H231.676C235.777 93.5811 237.828 95.0898 237.828 98.1074C237.828 99.6895 237.291 100.9 236.217 101.74C235.152 102.58 233.59 103 231.529 103H224.293V86.9453H226.725V93.5811ZM226.725 95.6758V100.964H231.412C232.701 100.964 233.688 100.739 234.371 100.29C235.055 99.8408 235.396 99.1621 235.396 98.2539C235.396 97.3652 235.079 96.7158 234.444 96.3057C233.819 95.8857 232.784 95.6758 231.339 95.6758H226.725ZM244.479 86.9453V93.6689H253.473V86.9453H255.904V103H253.473V95.7637H244.479V103H242.047V86.9453H244.479ZM274.918 94.958C274.918 97.5752 274.259 99.6211 272.94 101.096C271.622 102.561 269.801 103.293 267.477 103.293C266.041 103.293 264.767 102.956 263.653 102.282C262.54 101.608 261.681 100.642 261.075 99.3818C260.47 98.1221 260.167 96.6475 260.167 94.958C260.167 92.3408 260.821 90.3047 262.13 88.8496C263.438 87.3848 265.255 86.6523 267.579 86.6523C269.825 86.6523 271.607 87.3994 272.926 88.8936C274.254 90.3877 274.918 92.4092 274.918 94.958ZM262.687 94.958C262.687 97.0088 263.097 98.5713 263.917 99.6455C264.737 100.72 265.943 101.257 267.535 101.257C269.127 101.257 270.333 100.725 271.153 99.6602C271.983 98.5859 272.398 97.0186 272.398 94.958C272.398 92.917 271.983 91.3691 271.153 90.3145C270.333 89.25 269.117 88.7178 267.506 88.7178C265.914 88.7178 264.713 89.2402 263.902 90.2852C263.092 91.3301 262.687 92.8877 262.687 94.958ZM288.863 89.0254H281.627V103H279.195V86.9453H288.863V89.0254ZM305.914 94.958C305.914 97.5752 305.255 99.6211 303.937 101.096C302.618 102.561 300.797 103.293 298.473 103.293C297.037 103.293 295.763 102.956 294.649 102.282C293.536 101.608 292.677 100.642 292.071 99.3818C291.466 98.1221 291.163 96.6475 291.163 94.958C291.163 92.3408 291.817 90.3047 293.126 88.8496C294.435 87.3848 296.251 86.6523 298.575 86.6523C300.821 86.6523 302.604 87.3994 303.922 88.8936C305.25 90.3877 305.914 92.4092 305.914 94.958ZM293.683 94.958C293.683 97.0088 294.093 98.5713 294.913 99.6455C295.733 100.72 296.939 101.257 298.531 101.257C300.123 101.257 301.329 100.725 302.149 99.6602C302.979 98.5859 303.395 97.0186 303.395 94.958C303.395 92.917 302.979 91.3691 302.149 90.3145C301.329 89.25 300.113 88.7178 298.502 88.7178C296.91 88.7178 295.709 89.2402 294.898 90.2852C294.088 91.3301 293.683 92.8877 293.683 94.958ZM328.81 89.0254H323.595V103H321.163V89.0254H316.007V86.9453H328.81V89.0254ZM338.771 103.293C336.397 103.293 334.522 102.57 333.146 101.125C331.778 99.6797 331.095 97.6729 331.095 95.1045C331.095 92.5166 331.729 90.4609 332.999 88.9375C334.278 87.4141 335.992 86.6523 338.141 86.6523C340.152 86.6523 341.744 87.3164 342.916 88.6445C344.088 89.9629 344.674 91.7061 344.674 93.874V95.4121H333.614C333.663 97.2969 334.137 98.7275 335.035 99.7041C335.943 100.681 337.218 101.169 338.858 101.169C340.587 101.169 342.296 100.808 343.985 100.085V102.253C343.126 102.624 342.311 102.888 341.539 103.044C340.777 103.21 339.854 103.293 338.771 103.293ZM338.111 88.6885C336.822 88.6885 335.792 89.1084 335.021 89.9482C334.259 90.7881 333.81 91.9502 333.673 93.4346H342.066C342.066 91.9014 341.725 90.7295 341.041 89.9189C340.357 89.0986 339.381 88.6885 338.111 88.6885ZM360.802 103H358.341V89.0254H353.521C353.258 92.502 352.892 95.2607 352.423 97.3018C351.954 99.3428 351.344 100.837 350.592 101.784C349.85 102.731 348.902 103.205 347.75 103.205C347.223 103.205 346.803 103.146 346.49 103.029V101.228C346.705 101.286 346.949 101.315 347.223 101.315C348.346 101.315 349.239 100.129 349.903 97.7559C350.567 95.3828 351.07 91.7793 351.412 86.9453H360.802V103ZM372.755 103.293C370.382 103.293 368.507 102.57 367.13 101.125C365.763 99.6797 365.079 97.6729 365.079 95.1045C365.079 92.5166 365.714 90.4609 366.983 88.9375C368.263 87.4141 369.977 86.6523 372.125 86.6523C374.137 86.6523 375.729 87.3164 376.9 88.6445C378.072 89.9629 378.658 91.7061 378.658 93.874V95.4121H367.599C367.647 97.2969 368.121 98.7275 369.02 99.7041C369.928 100.681 371.202 101.169 372.843 101.169C374.571 101.169 376.28 100.808 377.97 100.085V102.253C377.11 102.624 376.295 102.888 375.523 103.044C374.762 103.21 373.839 103.293 372.755 103.293ZM372.096 88.6885C370.807 88.6885 369.776 89.1084 369.005 89.9482C368.243 90.7881 367.794 91.9502 367.657 93.4346H376.051C376.051 91.9014 375.709 90.7295 375.025 89.9189C374.342 89.0986 373.365 88.6885 372.096 88.6885ZM400.016 94.958C400.016 97.3896 399.322 99.3281 397.936 100.773C396.559 102.209 394.63 103.029 392.149 103.234V110.207H389.747V103.234C387.325 103.049 385.411 102.219 384.005 100.744C382.599 99.2695 381.896 97.3408 381.896 94.958C381.896 92.5264 382.594 90.5928 383.99 89.1572C385.396 87.7217 387.345 86.9062 389.835 86.7109V80.207H392.149V86.7109C394.601 86.9355 396.524 87.7803 397.921 89.2451C399.317 90.71 400.016 92.6143 400.016 94.958ZM384.444 94.958C384.444 96.833 384.874 98.3027 385.733 99.3672C386.593 100.432 387.96 101.052 389.835 101.228V88.7471C388.028 88.9131 386.676 89.5039 385.777 90.5195C384.889 91.5254 384.444 93.0049 384.444 94.958ZM397.496 94.958C397.496 91.2178 395.714 89.1572 392.149 88.7764V101.228C394.005 101.042 395.357 100.417 396.207 99.3525C397.066 98.2881 397.496 96.8232 397.496 94.958ZM418.121 94.958C418.121 97.5752 417.462 99.6211 416.144 101.096C414.825 102.561 413.004 103.293 410.68 103.293C409.244 103.293 407.97 102.956 406.856 102.282C405.743 101.608 404.884 100.642 404.278 99.3818C403.673 98.1221 403.37 96.6475 403.37 94.958C403.37 92.3408 404.024 90.3047 405.333 88.8496C406.642 87.3848 408.458 86.6523 410.782 86.6523C413.028 86.6523 414.811 87.3994 416.129 88.8936C417.457 90.3877 418.121 92.4092 418.121 94.958ZM405.89 94.958C405.89 97.0088 406.3 98.5713 407.12 99.6455C407.94 100.72 409.146 101.257 410.738 101.257C412.33 101.257 413.536 100.725 414.356 99.6602C415.187 98.5859 415.602 97.0186 415.602 94.958C415.602 92.917 415.187 91.3691 414.356 90.3145C413.536 89.25 412.32 88.7178 410.709 88.7178C409.117 88.7178 407.916 89.2402 407.105 90.2852C406.295 91.3301 405.89 92.8877 405.89 94.958ZM424.83 86.9453V93.6689H433.824V86.9453H436.256V103H433.824V95.7637H424.83V103H422.398V86.9453H424.83ZM451.285 103L450.802 100.715H450.685C449.884 101.721 449.083 102.404 448.282 102.766C447.491 103.117 446.5 103.293 445.309 103.293C443.717 103.293 442.467 102.883 441.559 102.062C440.66 101.242 440.211 100.075 440.211 98.5615C440.211 95.3193 442.804 93.6201 447.989 93.4639L450.714 93.376V92.3799C450.714 91.1201 450.44 90.1924 449.894 89.5967C449.356 88.9912 448.492 88.6885 447.301 88.6885C445.963 88.6885 444.449 89.0986 442.76 89.9189L442.013 88.0586C442.804 87.6289 443.668 87.292 444.605 87.0479C445.553 86.8037 446.5 86.6816 447.447 86.6816C449.361 86.6816 450.777 87.1064 451.695 87.9561C452.623 88.8057 453.087 90.168 453.087 92.043V103H451.285ZM445.792 101.286C447.306 101.286 448.492 100.871 449.352 100.041C450.221 99.2109 450.655 98.0488 450.655 96.5547V95.1045L448.224 95.207C446.29 95.2754 444.894 95.5781 444.034 96.1152C443.185 96.6426 442.76 97.4678 442.76 98.5908C442.76 99.4697 443.023 100.139 443.551 100.598C444.088 101.057 444.835 101.286 445.792 101.286ZM185.094 127.945V138.126L184.991 140.792L184.947 141.627L193.634 127.945H196.666V144H194.396V134.186L194.439 132.252L194.513 130.348L185.841 144H182.809V127.945H185.094ZM213.79 144H211.329V130.025H206.51C206.246 133.502 205.88 136.261 205.411 138.302C204.942 140.343 204.332 141.837 203.58 142.784C202.838 143.731 201.891 144.205 200.738 144.205C200.211 144.205 199.791 144.146 199.479 144.029V142.228C199.693 142.286 199.938 142.315 200.211 142.315C201.334 142.315 202.228 141.129 202.892 138.756C203.556 136.383 204.059 132.779 204.4 127.945H213.79V144ZM221.246 127.945V138.126L221.144 140.792L221.1 141.627L229.786 127.945H232.818V144H230.548V134.186L230.592 132.252L230.665 130.348L221.993 144H218.961V127.945H221.246ZM258.79 131.974C258.79 133.019 258.487 133.814 257.882 134.361C257.286 134.898 256.446 135.26 255.362 135.445V135.577C256.729 135.763 257.726 136.163 258.351 136.778C258.985 137.394 259.303 138.243 259.303 139.327C259.303 140.821 258.751 141.974 257.647 142.784C256.554 143.595 254.952 144 252.843 144H245.768V127.945H252.813C256.798 127.945 258.79 129.288 258.79 131.974ZM256.871 139.166C256.871 138.297 256.539 137.667 255.875 137.276C255.221 136.876 254.132 136.676 252.608 136.676H248.199V141.964H252.667C255.47 141.964 256.871 141.031 256.871 139.166ZM256.417 132.208C256.417 131.427 256.114 130.875 255.509 130.553C254.913 130.221 254.005 130.055 252.784 130.055H248.199V134.581H252.315C253.819 134.581 254.879 134.396 255.494 134.024C256.109 133.653 256.417 133.048 256.417 132.208ZM269.806 134.376C269.806 130.86 270.323 128.121 271.358 126.158C272.394 124.186 274.034 122.955 276.28 122.467C279.073 121.871 281.534 121.388 283.663 121.017L284.117 123.155C280.729 123.722 278.307 124.171 276.852 124.503C275.436 124.825 274.371 125.587 273.658 126.788C272.955 127.989 272.569 129.625 272.501 131.695H272.677C273.282 130.875 274.063 130.23 275.021 129.762C275.978 129.293 276.979 129.059 278.023 129.059C279.996 129.059 281.534 129.698 282.638 130.978C283.741 132.257 284.293 134.029 284.293 136.295C284.293 138.805 283.653 140.768 282.374 142.184C281.095 143.59 279.312 144.293 277.027 144.293C274.771 144.293 273.004 143.429 271.725 141.7C270.445 139.972 269.806 137.53 269.806 134.376ZM277.247 142.257C280.226 142.257 281.715 140.357 281.715 136.559C281.715 132.936 280.362 131.124 277.657 131.124C276.915 131.124 276.197 131.28 275.504 131.593C274.82 131.896 274.19 132.301 273.614 132.809C273.048 133.316 272.608 133.839 272.296 134.376C272.296 136.944 272.701 138.902 273.512 140.25C274.322 141.588 275.567 142.257 277.247 142.257ZM296.012 144.293C294.967 144.293 294.01 144.103 293.141 143.722C292.281 143.331 291.559 142.735 290.973 141.935H290.797C290.914 142.872 290.973 143.761 290.973 144.601V151.207H288.541V127.945H290.519L290.855 130.143H290.973C291.598 129.264 292.325 128.629 293.155 128.238C293.985 127.848 294.938 127.652 296.012 127.652C298.141 127.652 299.781 128.38 300.934 129.835C302.096 131.29 302.677 133.331 302.677 135.958C302.677 138.595 302.086 140.646 300.904 142.11C299.732 143.565 298.102 144.293 296.012 144.293ZM295.66 129.718C294.02 129.718 292.833 130.172 292.101 131.08C291.368 131.988 290.992 133.434 290.973 135.416V135.958C290.973 138.214 291.349 139.83 292.101 140.807C292.853 141.773 294.059 142.257 295.719 142.257C297.105 142.257 298.189 141.695 298.971 140.572C299.762 139.449 300.157 137.901 300.157 135.929C300.157 133.927 299.762 132.394 298.971 131.329C298.189 130.255 297.086 129.718 295.66 129.718ZM316.812 144L316.329 141.715H316.212C315.411 142.721 314.61 143.404 313.81 143.766C313.019 144.117 312.027 144.293 310.836 144.293C309.244 144.293 307.994 143.883 307.086 143.062C306.188 142.242 305.738 141.075 305.738 139.562C305.738 136.319 308.331 134.62 313.517 134.464L316.241 134.376V133.38C316.241 132.12 315.968 131.192 315.421 130.597C314.884 129.991 314.02 129.688 312.828 129.688C311.49 129.688 309.977 130.099 308.287 130.919L307.54 129.059C308.331 128.629 309.195 128.292 310.133 128.048C311.08 127.804 312.027 127.682 312.975 127.682C314.889 127.682 316.305 128.106 317.223 128.956C318.15 129.806 318.614 131.168 318.614 133.043V144H316.812ZM311.319 142.286C312.833 142.286 314.02 141.871 314.879 141.041C315.748 140.211 316.183 139.049 316.183 137.555V136.104L313.751 136.207C311.817 136.275 310.421 136.578 309.562 137.115C308.712 137.643 308.287 138.468 308.287 139.591C308.287 140.47 308.551 141.139 309.078 141.598C309.615 142.057 310.362 142.286 311.319 142.286ZM321.09 127.945H323.697L327.213 137.101C327.984 139.19 328.463 140.699 328.648 141.627H328.766C328.893 141.129 329.156 140.279 329.557 139.078C329.967 137.867 331.295 134.156 333.541 127.945H336.148L329.249 146.227C328.565 148.033 327.765 149.312 326.847 150.064C325.938 150.826 324.82 151.207 323.492 151.207C322.75 151.207 322.018 151.124 321.295 150.958V149.01C321.832 149.127 322.433 149.186 323.097 149.186C324.767 149.186 325.958 148.248 326.671 146.373L327.564 144.088L321.09 127.945ZM341.817 134.61C344.854 134.61 346.373 133.771 346.373 132.091C346.373 130.509 345.143 129.718 342.682 129.718C341.93 129.718 341.246 129.786 340.631 129.923C340.016 130.06 339.21 130.333 338.214 130.743L337.35 128.766C339.01 128.023 340.821 127.652 342.784 127.652C344.63 127.652 346.085 128.033 347.149 128.795C348.214 129.547 348.746 130.577 348.746 131.886C348.746 133.683 347.745 134.859 345.743 135.416V135.533C346.974 135.895 347.872 136.412 348.438 137.086C349.005 137.75 349.288 138.585 349.288 139.591C349.288 141.075 348.688 142.232 347.486 143.062C346.295 143.883 344.645 144.293 342.535 144.293C340.221 144.293 338.434 143.946 337.174 143.253V141.026C338.961 141.866 340.768 142.286 342.594 142.286C344 142.286 345.06 142.047 345.772 141.568C346.495 141.08 346.856 140.382 346.856 139.474C346.856 137.608 345.338 136.676 342.301 136.676H340.074V134.61H341.817ZM360.04 144.293C357.667 144.293 355.792 143.57 354.415 142.125C353.048 140.68 352.364 138.673 352.364 136.104C352.364 133.517 352.999 131.461 354.269 129.938C355.548 128.414 357.262 127.652 359.41 127.652C361.422 127.652 363.014 128.316 364.186 129.645C365.357 130.963 365.943 132.706 365.943 134.874V136.412H354.884C354.933 138.297 355.406 139.728 356.305 140.704C357.213 141.681 358.487 142.169 360.128 142.169C361.856 142.169 363.565 141.808 365.255 141.085V143.253C364.396 143.624 363.58 143.888 362.809 144.044C362.047 144.21 361.124 144.293 360.04 144.293ZM359.381 129.688C358.092 129.688 357.062 130.108 356.29 130.948C355.528 131.788 355.079 132.95 354.942 134.435H363.336C363.336 132.901 362.994 131.729 362.311 130.919C361.627 130.099 360.65 129.688 359.381 129.688ZM377.574 144.293C376.529 144.293 375.572 144.103 374.703 143.722C373.844 143.331 373.121 142.735 372.535 141.935H372.359C372.477 142.872 372.535 143.761 372.535 144.601V151.207H370.104V127.945H372.081L372.418 130.143H372.535C373.16 129.264 373.888 128.629 374.718 128.238C375.548 127.848 376.5 127.652 377.574 127.652C379.703 127.652 381.344 128.38 382.496 129.835C383.658 131.29 384.239 133.331 384.239 135.958C384.239 138.595 383.648 140.646 382.467 142.11C381.295 143.565 379.664 144.293 377.574 144.293ZM377.223 129.718C375.582 129.718 374.396 130.172 373.663 131.08C372.931 131.988 372.555 133.434 372.535 135.416V135.958C372.535 138.214 372.911 139.83 373.663 140.807C374.415 141.773 375.621 142.257 377.281 142.257C378.668 142.257 379.752 141.695 380.533 140.572C381.324 139.449 381.72 137.901 381.72 135.929C381.72 133.927 381.324 132.394 380.533 131.329C379.752 130.255 378.648 129.718 377.223 129.718ZM395.284 144.293C392.911 144.293 391.036 143.57 389.659 142.125C388.292 140.68 387.608 138.673 387.608 136.104C387.608 133.517 388.243 131.461 389.513 129.938C390.792 128.414 392.506 127.652 394.654 127.652C396.666 127.652 398.258 128.316 399.43 129.645C400.602 130.963 401.188 132.706 401.188 134.874V136.412H390.128C390.177 138.297 390.65 139.728 391.549 140.704C392.457 141.681 393.731 142.169 395.372 142.169C397.101 142.169 398.81 141.808 400.499 141.085V143.253C399.64 143.624 398.824 143.888 398.053 144.044C397.291 144.21 396.368 144.293 395.284 144.293ZM394.625 129.688C393.336 129.688 392.306 130.108 391.534 130.948C390.772 131.788 390.323 132.95 390.187 134.435H398.58C398.58 132.901 398.238 131.729 397.555 130.919C396.871 130.099 395.895 129.688 394.625 129.688Z" fill="black"/>
<rect x="2.5" y="2.5" width="578" height="178" rx="7.5" stroke="#40A9FF" stroke-width="5"/>
</svg>
