<svg width="161" height="135" viewBox="0 0 161 135" fill="none" xmlns="http://www.w3.org/2000/svg">
<path fill-rule="evenodd" clip-rule="evenodd" d="M86.0016 91.7336H19.1825L16.7077 135.102H90.9512L86.0016 91.7336Z" fill="#45B8FF"/>
<path fill-rule="evenodd" clip-rule="evenodd" d="M58.8249 8.37085C57.4318 3.49901 50.9543 2.25989 48.0496 6.30957L25.7095 37.4556C14.9232 43.6935 7.36091 53.5835 5.89419 65.2177C3.19589 86.621 22.1497 105.822 48.2287 108.105C74.1106 110.371 97.2835 95.1211 100.27 73.9688L100.455 74.0921L110.998 31.5173C112.212 26.6182 106.785 22.9913 102.082 25.5586L80.2898 37.4566C75.8802 34.9135 70.9028 32.9611 65.5118 31.7558L58.8249 8.37085Z" fill="#45B8FF"/>
<path fill-rule="evenodd" clip-rule="evenodd" d="M46.0016 69.3316C44.6475 70.24 42.8245 69.878 41.9626 68.5295C40.602 66.4006 42.5235 63.6522 45.0251 64.1491C47.5268 64.6459 48.1395 67.8976 46.0016 69.3316Z" fill="white"/>
<path fill-rule="evenodd" clip-rule="evenodd" d="M17.6048 56.7614C16.8261 60.0666 19.1422 63.2879 22.778 63.9564C26.4137 64.625 29.9923 62.4877 30.7711 59.1825C31.5498 55.8774 29.2337 52.6561 25.5979 51.9875C21.9622 51.319 18.3835 53.4563 17.6048 56.7614ZM61.25 65.4297C60.4713 68.7348 62.7874 71.9562 66.4231 72.6248C70.0589 73.2933 73.6375 71.156 74.4162 67.8508C75.1949 64.5457 72.8788 61.3243 69.2431 60.6558C65.6073 59.9872 62.0287 62.1245 61.25 65.4297Z" fill="white"/>
<path fill-rule="evenodd" clip-rule="evenodd" d="M113.424 135.102C113.424 135.102 122.028 123.311 113.424 113.606C103.833 102.788 102.34 89.4022 114.464 80.103C126.206 71.0963 146.609 69.4383 156.51 86.8206C166.41 104.203 153.914 108.709 150.195 104.473C146.476 100.237 149.635 85.5698 132.543 87.2618C115.451 88.9539 120.115 101.181 127.668 110.147C134.572 118.343 131.541 128.917 128.79 135.102H113.424Z" fill="#45B8FF"/>
</svg>
