<svg width="700" height="400" viewBox="0 0 700 400" fill="none" xmlns="http://www.w3.org/2000/svg">
<rect width="700" height="400" fill="white"/>
<path d="M516.663 143.616L512.063 205.843L573.505 189.828M593.021 184.795L573.505 189.828M573.505 189.828L573.702 138.125L572.782 258.918" stroke="#6DE4FE" stroke-width="34" stroke-linecap="round" stroke-linejoin="round"/>
<path d="M106.979 143.616L102.379 205.843L163.822 189.828M183.337 184.795L163.822 189.828M163.822 189.828L164.018 138.125L163.098 258.918" stroke="#6DE4FE" stroke-width="34" stroke-linecap="round" stroke-linejoin="round"/>
<ellipse opacity="0.4" cx="516.663" cy="143.616" rx="8.27982" ry="8.23591" fill="white"/>
<ellipse opacity="0.4" cx="593.021" cy="184.795" rx="8.27982" ry="8.23591" fill="white"/>
<ellipse opacity="0.4" cx="572.782" cy="258.919" rx="8.27982" ry="8.23591" fill="white"/>
<ellipse opacity="0.4" cx="573.702" cy="138.125" rx="8.27982" ry="8.23591" fill="white"/>
<ellipse opacity="0.4" cx="106.979" cy="143.616" rx="8.27982" ry="8.23591" fill="white"/>
<ellipse opacity="0.4" cx="183.337" cy="184.795" rx="8.27982" ry="8.23591" fill="white"/>
<ellipse opacity="0.4" cx="163.098" cy="258.919" rx="8.27982" ry="8.23591" fill="white"/>
<ellipse opacity="0.4" cx="164.018" cy="138.125" rx="8.27982" ry="8.23591" fill="white"/>
<path fill-rule="evenodd" clip-rule="evenodd" d="M384.625 264.106L337.308 264.106L325.496 308.334L378.569 312.82L384.625 264.106Z" fill="#45B8FF"/>
<path fill-rule="evenodd" clip-rule="evenodd" d="M372.846 203.321C375.638 199.151 382.012 200.047 383.545 204.826L392.863 233.862L392.701 233.84C392.907 234.281 393.102 234.731 393.287 235.187C399.844 251.417 390.016 270.693 371.334 278.241C352.955 285.667 332.853 278.974 325.964 263.299L310.9 235.206C308.436 230.61 312.603 225.275 317.659 226.554L332.251 230.244C336.218 225.727 341.42 221.957 347.588 219.466C353.056 217.256 358.677 216.297 364.056 216.452L372.846 203.321Z" fill="#45B8FF"/>
<path fill-rule="evenodd" clip-rule="evenodd" d="M361.502 248.868C362.325 249.217 363.275 248.834 363.624 248.011L364.053 247C364.63 245.643 362.957 244.453 361.863 245.442V245.442C361.622 245.66 361.31 245.786 360.985 245.797V245.797C359.511 245.845 359.134 247.863 360.492 248.439L361.502 248.868Z" fill="white"/>
<path fill-rule="evenodd" clip-rule="evenodd" d="M378.448 239.839C381.152 238.747 382.547 235.889 381.563 233.456C380.58 231.023 377.592 229.936 374.889 231.028C372.185 232.121 370.79 234.979 371.773 237.412C372.757 239.845 375.745 240.932 378.448 239.839Z" fill="white"/>
<path fill-rule="evenodd" clip-rule="evenodd" d="M345.162 253.288C347.866 252.196 349.261 249.338 348.278 246.905C347.295 244.472 344.306 243.385 341.603 244.477C338.899 245.569 337.505 248.427 338.488 250.86C339.471 253.293 342.459 254.38 345.162 253.288Z" fill="white"/>
<path d="M302.145 302.488C297.749 289.718 300.863 285.14 307.167 281.763C324.582 272.434 302.145 249.204 291.554 266.098" stroke="#45B8FF" stroke-width="14" stroke-linecap="round" stroke-linejoin="round"/>
<path d="M305.625 315.883C332.391 326.317 361.103 320.925 385.199 306.084C409.284 291.249 429.716 266.544 441.676 235.863C453.636 205.181 455.313 173.166 447.622 145.944C439.928 118.711 422.439 95.3102 395.673 84.8766C368.907 74.443 340.195 79.8343 316.1 94.6756C292.015 109.511 271.582 134.215 259.622 164.897C247.662 195.578 245.985 227.594 253.676 254.816C261.371 282.049 278.859 305.449 305.625 315.883Z" stroke="#6DE4FE" stroke-width="33"/>
<path fill-rule="evenodd" clip-rule="evenodd" d="M369.122 144.912C369.122 135.618 361.496 129.589 354.007 128.369C350.153 127.741 345.966 128.278 342.346 130.469C338.662 132.699 335.9 136.441 334.652 141.566C334.129 143.713 335.445 145.877 337.592 146.399C339.738 146.922 341.902 145.606 342.424 143.459C343.221 140.188 344.805 138.332 346.488 137.313C348.236 136.255 350.44 135.893 352.72 136.265C357.501 137.044 361.122 140.611 361.122 144.912C361.122 147.622 360.458 149.192 359.772 150.133C359.072 151.093 358.103 151.732 356.96 152.154C355.791 152.585 354.55 152.743 353.545 152.778C353.056 152.794 352.655 152.781 352.391 152.765C352.259 152.757 352.164 152.748 352.112 152.743C352.089 152.74 352.074 152.739 352.068 152.738C350.933 152.594 349.79 152.943 348.928 153.697C348.061 154.457 347.564 155.554 347.564 156.706V166.303C347.564 168.512 349.355 170.303 351.564 170.303C353.773 170.303 355.564 168.512 355.564 166.303V160.64C356.815 160.491 358.255 160.203 359.726 159.66C361.972 158.833 364.393 157.373 366.235 154.847C368.091 152.302 369.122 148.999 369.122 144.912ZM352.09 152.741L352.087 152.741C352.089 152.741 352.084 152.79 351.564 156.706L352.09 152.741ZM352.065 152.738C352.065 152.738 352.065 152.738 352.066 152.738L352.065 152.738ZM352.78 189.089C356.45 189.089 359.426 186.113 359.426 182.443C359.426 178.772 356.45 175.797 352.78 175.797C349.109 175.797 346.134 178.772 346.134 182.443C346.134 186.113 349.109 189.089 352.78 189.089Z" fill="#45B8FE"/>
</svg>
