<svg width="1938" height="1834" viewBox="0 0 1938 1834" fill="none" xmlns="http://www.w3.org/2000/svg">
<path opacity="0.84" d="M1604.7 1396.66L1669.05 1349.93L1676 1312.42L1610.87 1363.31L1546.88 1327.9L1417.38 1385.49L1443.29 1405.99L1541.09 1359.15L1604.7 1396.66Z" fill="url(#paint0_linear)"/>
<path opacity="0.84" d="M1284.12 1288.88L1372.14 1213.13L1383.27 1153.04L1294.01 1235.47L1210.6 1179.87L1035.32 1274.04L1068.78 1306.41L1201.32 1229.94L1284.12 1288.88Z" fill="url(#paint1_linear)"/>
<path opacity="0.97" d="M1335.45 1334.27L1378.16 1300.93L1381.88 1270.7L1338.67 1307.07C1334.71 1310.4 1329.28 1311.14 1325.01 1308.94L1284.15 1287.85C1280.89 1286.17 1276.89 1286.17 1273.36 1287.86L1177.84 1333.48L1199.66 1349.53L1269.94 1313.42C1273.64 1311.51 1277.92 1311.49 1281.33 1313.37L1321.92 1335.69C1326.07 1337.97 1331.43 1337.41 1335.45 1334.27Z" fill="url(#paint2_linear)"/>
<path opacity="0.97" d="M1074.28 1175.33L1116.99 1141.98L1120.71 1111.76L1077.5 1148.13C1073.55 1151.46 1068.12 1152.2 1063.84 1149.99L1022.98 1128.91C1019.72 1127.23 1015.72 1127.23 1012.19 1128.92L916.676 1174.53L938.491 1190.59L1008.77 1154.47C1012.47 1152.57 1016.75 1152.55 1020.16 1154.42L1060.75 1176.74C1064.9 1179.03 1070.26 1178.47 1074.28 1175.33Z" fill="url(#paint3_linear)"/>
<rect opacity="0.76" width="87.8383" height="27.7305" transform="matrix(-0.122325 0.99249 -0.999214 -0.0396424 1069.34 1520.91)" fill="url(#paint4_linear)"/>
<rect opacity="0.76" width="87.8383" height="27.7305" transform="matrix(-0.122325 0.99249 -0.999214 -0.0396424 808.169 1361.96)" fill="url(#paint5_linear)"/>
<path opacity="0.71" d="M847.269 1396.22C838.615 1398.01 827.731 1393.43 822.96 1385.99L815.949 1375.06C811.177 1367.63 814.325 1360.15 822.979 1358.36L874.046 1347.81L898.335 1385.68L847.269 1396.22Z" fill="#D8592C"/>
<path opacity="0.71" d="M586.1 1237.28C577.446 1239.07 566.563 1234.49 561.792 1227.05L554.78 1216.12C550.009 1208.68 553.156 1201.2 561.81 1199.42L612.877 1188.87L637.167 1226.73L586.1 1237.28Z" fill="#D8592C"/>
<path opacity="0.99" d="M539.623 1431.73L558.833 1452.24L592.784 1463.36L570.348 1441.33C565.43 1436.5 570.964 1428.78 580.969 1426.52L592.995 1423.81C601.518 1421.88 607.136 1415.83 604.962 1410.91L585.438 1366.78L559.751 1369.78L575.796 1401.18C578.371 1406.22 572.447 1412.62 563.508 1414.45L550.907 1417.04C540.854 1419.11 534.971 1426.77 539.623 1431.73Z" fill="url(#paint6_linear)"/>
<path opacity="0.99" d="M132.006 1176.21L218.931 1218.4L332.91 1255.73L233.112 1208.64C222.088 1203.44 233.696 1190.33 248.133 1191.67L249.606 1191.81C263.315 1193.09 274.983 1181.09 265.601 1175.37L138.829 1097.99L73.1277 1087.88L167.478 1143.23C177.197 1148.94 165.254 1161.2 151.404 1159.74L147.36 1159.32C132.973 1157.8 121.067 1170.9 132.006 1176.21Z" fill="url(#paint7_linear)"/>
<path opacity="0.74" d="M1502.15 1108.97C1510.23 1105.38 1522.57 1106.69 1529.72 1111.88L1570.87 1141.77C1578.02 1146.96 1577.27 1154.07 1569.19 1157.65L1512.64 1182.72C1504.56 1186.3 1492.21 1185 1485.06 1179.8L1430.97 1140.52L1502.15 1108.97Z" fill="#6AB2F5"/>
<g opacity="0.74" filter="url(#filter0_f)">
<path d="M1295.29 1057.3C1303.37 1053.72 1315.71 1055.03 1322.86 1060.22L1364.01 1090.1C1371.16 1095.29 1370.41 1102.41 1362.33 1105.99L1305.77 1131.06C1297.69 1134.64 1285.35 1133.33 1278.2 1128.14L1224.1 1088.86L1295.29 1057.3Z" fill="#6FCC86"/>
</g>
<path opacity="0.74" d="M1060.54 1203.79C1067.94 1208.62 1067.52 1215.7 1059.59 1219.61L1026.12 1236.12C1018.19 1240.03 1005.77 1239.28 998.367 1234.45L971.117 1216.67C963.717 1211.84 964.143 1204.75 972.068 1200.85L1019.89 1177.26L1060.54 1203.79Z" fill="#6FCC86"/>
<path opacity="0.79" d="M871.81 1282.4C880.239 1285.05 882.067 1292.33 875.892 1298.65L849.592 1325.57C843.417 1331.89 831.577 1334.86 823.148 1332.21L765.885 1314.2C757.455 1311.55 755.628 1304.28 761.803 1297.96L799.284 1259.59L871.81 1282.4Z" fill="#6FCC86"/>
<g opacity="0.79" filter="url(#filter1_f)">
<path d="M610.642 1123.46C619.072 1126.11 620.899 1133.38 614.724 1139.7L588.424 1166.62C582.249 1172.94 570.41 1175.92 561.98 1173.27L504.717 1155.26C496.288 1152.61 494.46 1145.33 500.636 1139.01L538.116 1100.65L610.642 1123.46Z" fill="#6FCC86"/>
</g>
<path opacity="0.96" d="M797.977 1309.64L783.568 1340.14L796.192 1363.57L809.532 1330.73C811.209 1326.61 816.436 1324.66 822.321 1325.96L859.168 1334.1C863.711 1335.11 867.968 1334.19 870.422 1331.66L918.142 1282.64L893.478 1274.11L859.962 1311.7C857.493 1314.47 852.953 1315.47 848.136 1314.3L810.952 1305.3C805.138 1303.9 799.856 1305.66 797.977 1309.64Z" fill="url(#paint8_linear)"/>
<path opacity="0.96" d="M536.809 1150.7L522.4 1181.19L535.025 1204.62L548.365 1171.79C550.041 1167.67 555.269 1165.71 561.154 1167.01L598.001 1175.16C602.543 1176.16 606.8 1175.24 609.254 1172.72L656.975 1123.69L632.31 1115.16L598.795 1152.76C596.326 1155.53 591.785 1156.53 586.968 1155.36L549.785 1146.36C543.97 1144.95 538.688 1146.72 536.809 1150.7Z" fill="url(#paint9_linear)"/>
<path opacity="0.77" d="M405.158 1194.37C410.11 1187.05 421.124 1182.64 429.758 1184.52L480.705 1195.62C489.339 1197.5 492.324 1204.96 487.373 1212.28L473.745 1232.42C468.794 1239.74 457.78 1244.15 449.146 1242.26L382.565 1227.76L405.158 1194.37Z" fill="#6FCC86"/>
<path opacity="0.82" d="M1540.64 954.87C1549.07 952.219 1560.91 955.194 1567.08 961.515L1572.26 966.818C1578.44 973.139 1576.61 980.412 1568.18 983.063L1549.02 989.091C1540.59 991.742 1528.75 988.767 1522.57 982.446L1506.21 965.698L1540.64 954.87Z" fill="#6FCC86"/>
<g opacity="0.75" filter="url(#filter2_f)">
<path d="M1136.22 1075.92L1122.85 1040.23L1094.43 1023.53L1110.96 1061.08L1056.22 1064.19L1052.84 1121.6L1080.13 1122.78L1079.9 1078.1L1136.22 1075.92Z" fill="url(#paint10_linear)"/>
</g>
<g opacity="0.98" filter="url(#filter3_f)">
<path d="M847.518 1091.56L776.57 1077.69L730.068 1083.78L806.183 1096.97L778.764 1129.89L877.936 1166.31L896.416 1151.54L817.516 1124.82L847.518 1091.56Z" fill="url(#paint11_linear)"/>
</g>
<path d="M843.37 1093.92C852.171 1094.72 857.38 1102.26 855.004 1110.77L853.831 1114.97C851.455 1123.48 842.395 1129.74 833.594 1128.95L787.802 1124.83L797.579 1089.81L843.37 1093.92Z" fill="#D8592C"/>
<path d="M396.154 1091.25C404.955 1092.04 410.163 1099.58 407.787 1108.09L402.164 1128.24C399.788 1136.75 390.727 1143.01 381.926 1142.22L308.031 1135.58L322.258 1084.61L396.154 1091.25Z" fill="#D8592C"/>
<path opacity="0.97" d="M211.328 1011.66L236.224 1031.11L274.679 1039.92L245.958 1019.08C239.663 1014.51 244.252 1005.07 254.357 1001.79L263.278 998.906C272.024 996.074 276.985 988.372 273.343 983.28L241.919 939.353L215.786 944.643L240.22 975.532C244.296 980.686 239.081 988.799 229.924 991.55L220.382 994.416C210.204 997.474 205.248 1006.91 211.328 1011.66Z" fill="url(#paint12_linear)"/>
<g opacity="0.2" filter="url(#filter4_f)">
<path d="M1451.5 887.065C1450.42 895.835 1442.38 902.661 1433.55 902.311L1420.19 901.78C1411.36 901.43 1405.08 894.036 1406.16 885.266L1407.37 875.421L1452.71 877.22L1451.5 887.065Z" fill="#965FFB"/>
</g>
<g opacity="0.2" filter="url(#filter5_f)">
<path d="M1240.9 883.633C1232.35 881.373 1229.98 874.007 1235.59 867.18L1253.69 845.159C1259.3 838.332 1270.77 834.63 1279.32 836.89L1330.77 850.502C1339.31 852.762 1341.69 860.129 1336.08 866.955L1307.82 901.338L1240.9 883.633Z" fill="#6AB2F5"/>
</g>
<path opacity="0.8" d="M90.8732 359.521L184.793 369.6L241.435 357.074L141.222 348.387L165.119 304.027L28.3211 268.468L9.81222 289.014L117.918 314.465L90.8732 359.521Z" fill="url(#paint13_linear)"/>
<path opacity="0.8" d="M1221.74 222.629L1277.06 232.592L1312.81 227.386L1253.52 218.002L1273.63 192.252L1195.74 165.156L1181.94 176.774L1243.83 196.59L1221.74 222.629Z" fill="url(#paint14_linear)"/>
<g opacity="0.2" filter="url(#filter6_f)">
<path d="M496.626 847.872C492.235 855.54 481.63 860.458 472.94 858.856L439.568 852.704C430.878 851.102 427.393 843.587 431.785 835.919L444.902 813.015L509.743 824.968L496.626 847.872Z" fill="#965FFB"/>
</g>
<g opacity="0.92" filter="url(#filter7_f)">
<path d="M165.885 897.823C157.456 895.172 155.628 887.899 161.804 881.579L170.658 872.516C176.834 866.195 188.673 863.22 197.103 865.871L222.894 873.982C231.323 876.633 233.151 883.906 226.976 890.227L206.94 910.734L165.885 897.823Z" fill="#6FCC86"/>
</g>
<g opacity="0.77" filter="url(#filter8_f)">
<ellipse rx="16.7843" ry="22.1822" transform="matrix(0.698834 -0.715284 0.953938 0.300005 1282.23 392.486)" fill="#69BAFB"/>
</g>
<path opacity="0.82" d="M501.997 221.876C502.349 230.706 495.471 237.955 486.635 238.068L470.352 238.277C461.516 238.39 454.068 231.325 453.716 222.495L453.262 211.09L501.543 210.471L501.997 221.876Z" fill="#965FFB"/>
<path d="M401.353 153.311L447.399 119.524L452.878 88.411L406.149 125.323C402.007 128.595 396.498 129.245 392.316 126.954L351.017 104.33C347.828 102.583 343.798 102.518 340.155 104.156L239.021 149.609L260.654 166.547L335.25 130.447C339.076 128.595 343.387 128.65 346.717 130.594L387.676 154.495C391.73 156.862 397.154 156.392 401.353 153.311Z" fill="url(#paint15_linear)"/>
<path d="M1438.85 109.199L1467.5 92.7194L1474.8 74.1922L1445.31 92.3986C1440.38 95.4422 1434.45 95.6945 1430.63 93.0239L1413.35 80.9646C1410.42 78.9156 1406.17 78.5513 1402.03 79.9921L1338.03 102.23L1348.89 113.335L1395.52 95.7837C1399.89 94.1366 1404.43 94.5121 1407.47 96.7722L1424.4 109.389C1428.08 112.129 1433.88 112.053 1438.85 109.199Z" fill="url(#paint16_linear)"/>
<g opacity="0.2" filter="url(#filter9_f)">
<ellipse rx="21.9859" ry="38.3459" transform="matrix(-0.152403 0.988319 -0.99877 -0.0495764 372.569 525.306)" fill="#69BAFB"/>
</g>
<ellipse opacity="0.81" rx="21.3513" ry="16.2606" transform="matrix(-0.952531 0.304442 -0.704588 -0.709617 1117.29 99.3197)" fill="#69BAFB"/>
<g opacity="0.2" filter="url(#filter10_f)">
<path d="M245.601 637.006C243.732 645.643 235.07 652.146 226.255 651.532L211.373 650.495C202.558 649.881 196.927 642.382 198.796 633.746L201.158 622.828L247.964 626.089L245.601 637.006Z" fill="#965FFB"/>
</g>
<defs>
<filter id="filter0_f" x="1220.1" y="1051.28" width="152.814" height="85.7954" filterUnits="userSpaceOnUse" color-interpolation-filters="sRGB">
<feFlood flood-opacity="0" result="BackgroundImageFix"/>
<feBlend mode="normal" in="SourceGraphic" in2="BackgroundImageFix" result="shape"/>
<feGaussianBlur stdDeviation="2" result="effect1_foregroundBlur"/>
</filter>
<filter id="filter1_f" x="482.977" y="1086.65" width="149.406" height="101.585" filterUnits="userSpaceOnUse" color-interpolation-filters="sRGB">
<feFlood flood-opacity="0" result="BackgroundImageFix"/>
<feBlend mode="normal" in="SourceGraphic" in2="BackgroundImageFix" result="shape"/>
<feGaussianBlur stdDeviation="7" result="effect1_foregroundBlur"/>
</filter>
<filter id="filter2_f" x="1038.84" y="1009.53" width="111.374" height="127.252" filterUnits="userSpaceOnUse" color-interpolation-filters="sRGB">
<feFlood flood-opacity="0" result="BackgroundImageFix"/>
<feBlend mode="normal" in="SourceGraphic" in2="BackgroundImageFix" result="shape"/>
<feGaussianBlur stdDeviation="7" result="effect1_foregroundBlur"/>
</filter>
<filter id="filter3_f" x="716.068" y="1063.69" width="194.348" height="116.617" filterUnits="userSpaceOnUse" color-interpolation-filters="sRGB">
<feFlood flood-opacity="0" result="BackgroundImageFix"/>
<feBlend mode="normal" in="SourceGraphic" in2="BackgroundImageFix" result="shape"/>
<feGaussianBlur stdDeviation="7" result="effect1_foregroundBlur"/>
</filter>
<filter id="filter4_f" x="1392.04" y="861.421" width="74.6759" height="54.9023" filterUnits="userSpaceOnUse" color-interpolation-filters="sRGB">
<feFlood flood-opacity="0" result="BackgroundImageFix"/>
<feBlend mode="normal" in="SourceGraphic" in2="BackgroundImageFix" result="shape"/>
<feGaussianBlur stdDeviation="7" result="effect1_foregroundBlur"/>
</filter>
<filter id="filter5_f" x="1218.55" y="822.227" width="134.567" height="93.1109" filterUnits="userSpaceOnUse" color-interpolation-filters="sRGB">
<feFlood flood-opacity="0" result="BackgroundImageFix"/>
<feBlend mode="normal" in="SourceGraphic" in2="BackgroundImageFix" result="shape"/>
<feGaussianBlur stdDeviation="7" result="effect1_foregroundBlur"/>
</filter>
<filter id="filter6_f" x="415.886" y="799.015" width="107.857" height="74.1435" filterUnits="userSpaceOnUse" color-interpolation-filters="sRGB">
<feFlood flood-opacity="0" result="BackgroundImageFix"/>
<feBlend mode="normal" in="SourceGraphic" in2="BackgroundImageFix" result="shape"/>
<feGaussianBlur stdDeviation="7" result="effect1_foregroundBlur"/>
</filter>
<filter id="filter7_f" x="144.145" y="850.902" width="100.489" height="73.8324" filterUnits="userSpaceOnUse" color-interpolation-filters="sRGB">
<feFlood flood-opacity="0" result="BackgroundImageFix"/>
<feBlend mode="normal" in="SourceGraphic" in2="BackgroundImageFix" result="shape"/>
<feGaussianBlur stdDeviation="7" result="effect1_foregroundBlur"/>
</filter>
<filter id="filter8_f" x="1244.04" y="364.757" width="76.3965" height="55.4581" filterUnits="userSpaceOnUse" color-interpolation-filters="sRGB">
<feFlood flood-opacity="0" result="BackgroundImageFix"/>
<feBlend mode="normal" in="SourceGraphic" in2="BackgroundImageFix" result="shape"/>
<feGaussianBlur stdDeviation="7" result="effect1_foregroundBlur"/>
</filter>
<filter id="filter9_f" x="320.122" y="489.493" width="104.895" height="71.6268" filterUnits="userSpaceOnUse" color-interpolation-filters="sRGB">
<feFlood flood-opacity="0" result="BackgroundImageFix"/>
<feBlend mode="normal" in="SourceGraphic" in2="BackgroundImageFix" result="shape"/>
<feGaussianBlur stdDeviation="7" result="effect1_foregroundBlur"/>
</filter>
<filter id="filter10_f" x="184.438" y="608.828" width="77.526" height="56.7441" filterUnits="userSpaceOnUse" color-interpolation-filters="sRGB">
<feFlood flood-opacity="0" result="BackgroundImageFix"/>
<feBlend mode="normal" in="SourceGraphic" in2="BackgroundImageFix" result="shape"/>
<feGaussianBlur stdDeviation="7" result="effect1_foregroundBlur"/>
</filter>
<linearGradient id="paint0_linear" x1="1535.11" y1="1411.47" x2="1541.5" y2="1304.4" gradientUnits="userSpaceOnUse">
<stop stop-color="#E2441F"/>
<stop offset="1" stop-color="#E76E27"/>
</linearGradient>
<linearGradient id="paint1_linear" x1="1190.74" y1="1313.69" x2="1200.97" y2="1142.17" gradientUnits="userSpaceOnUse">
<stop stop-color="#E2441F"/>
<stop offset="1" stop-color="#E76E27"/>
</linearGradient>
<linearGradient id="paint2_linear" x1="1361.43" y1="1291.82" x2="1215.11" y2="1386.86" gradientUnits="userSpaceOnUse">
<stop stop-color="#6078F4"/>
<stop offset="1" stop-color="#245FAB"/>
</linearGradient>
<linearGradient id="paint3_linear" x1="1100.27" y1="1132.88" x2="953.939" y2="1227.92" gradientUnits="userSpaceOnUse">
<stop stop-color="#6078F4"/>
<stop offset="1" stop-color="#245FAB"/>
</linearGradient>
<linearGradient id="paint4_linear" x1="0" y1="27.7305" x2="87.8383" y2="27.7305" gradientUnits="userSpaceOnUse">
<stop stop-color="#5FA0F2"/>
<stop offset="1" stop-color="#98C6FF"/>
</linearGradient>
<linearGradient id="paint5_linear" x1="0" y1="27.7305" x2="87.8383" y2="27.7305" gradientUnits="userSpaceOnUse">
<stop stop-color="#5FA0F2"/>
<stop offset="1" stop-color="#98C6FF"/>
</linearGradient>
<linearGradient id="paint6_linear" x1="574.798" y1="1448.9" x2="579.469" y2="1367.46" gradientUnits="userSpaceOnUse">
<stop stop-color="#6078F4"/>
<stop offset="1" stop-color="#245FAB"/>
</linearGradient>
<linearGradient id="paint7_linear" x1="257.126" y1="1222.35" x2="278.279" y2="1131.74" gradientUnits="userSpaceOnUse">
<stop stop-color="#6078F4"/>
<stop offset="1" stop-color="#245FAB"/>
</linearGradient>
<linearGradient id="paint8_linear" x1="800.839" y1="1344.26" x2="862.826" y2="1248.52" gradientUnits="userSpaceOnUse">
<stop stop-color="#6078F4"/>
<stop offset="1" stop-color="#245FAB"/>
</linearGradient>
<linearGradient id="paint9_linear" x1="539.671" y1="1185.31" x2="601.659" y2="1089.57" gradientUnits="userSpaceOnUse">
<stop stop-color="#6078F4"/>
<stop offset="1" stop-color="#245FAB"/>
</linearGradient>
<linearGradient id="paint10_linear" x1="1121" y1="1100.39" x2="1082.48" y2="1030.08" gradientUnits="userSpaceOnUse">
<stop stop-color="#E2441F"/>
<stop offset="1" stop-color="#E76E27"/>
</linearGradient>
<linearGradient id="paint11_linear" x1="881.505" y1="1114.89" x2="762.442" y2="1163.34" gradientUnits="userSpaceOnUse">
<stop stop-color="#E2441F"/>
<stop offset="1" stop-color="#E76E27"/>
</linearGradient>
<linearGradient id="paint12_linear" x1="252.085" y1="1026.28" x2="250.186" y2="940.244" gradientUnits="userSpaceOnUse">
<stop stop-color="#6078F4"/>
<stop offset="1" stop-color="#245FAB"/>
</linearGradient>
<linearGradient id="paint13_linear" x1="40.475" y1="333.647" x2="166.067" y2="247.367" gradientUnits="userSpaceOnUse">
<stop stop-color="#E2441F"/>
<stop offset="1" stop-color="#E76E27"/>
</linearGradient>
<linearGradient id="paint14_linear" x1="1194.69" y1="204.948" x2="1284.32" y2="164.402" gradientUnits="userSpaceOnUse">
<stop stop-color="#E2441F"/>
<stop offset="1" stop-color="#E76E27"/>
</linearGradient>
<linearGradient id="paint15_linear" x1="430.641" y1="109.845" x2="273.117" y2="202.862" gradientUnits="userSpaceOnUse">
<stop stop-color="#6078F4"/>
<stop offset="1" stop-color="#245FAB"/>
</linearGradient>
<linearGradient id="paint16_linear" x1="1458.64" y1="86.1919" x2="1348.28" y2="126.201" gradientUnits="userSpaceOnUse">
<stop stop-color="#6078F4"/>
<stop offset="1" stop-color="#245FAB"/>
</linearGradient>
</defs>
</svg>
