<svg width="200" height="329" viewBox="0 0 200 329" fill="none" xmlns="http://www.w3.org/2000/svg">
<g clip-path="url(#clip0)">
<path d="M57.5355 67.4645L96.4645 28.5355C98.4171 26.5829 101.583 26.5829 103.536 28.5355L142.464 67.4645C145.614 70.6143 143.383 76 138.929 76H61.0711C56.6165 76 54.3857 70.6143 57.5355 67.4645Z" fill="#195AA9"/>
<rect x="74" y="74.5" width="51" height="76" fill="#195AA9"/>
<path d="M149.992 315.588C197.813 287.979 214.198 226.83 186.588 179.008C158.979 131.187 97.8299 114.802 50.0083 142.412C2.18704 170.022 -14.1978 231.17 13.412 278.992C41.0217 326.813 102.17 343.197 149.992 315.588Z" fill="#195AA9"/>
<path fill-rule="evenodd" clip-rule="evenodd" d="M20.277 290.697C17.9117 287.557 15.7081 284.246 13.6843 280.766C11.2196 276.529 9.10533 272.186 7.33252 267.771C10.0532 266.2 14.0241 263.919 19.5728 260.739C21.0345 259.902 23.9576 258.217 26.0686 256.995C28.1798 255.773 32.0994 253.512 34.7788 251.97L37.6516 250.316C37.5396 250.052 37.4304 249.79 37.3241 249.531C34.6185 242.349 33.192 233.349 33.4701 225.206C33.7892 215.859 35.5349 208.583 39.4141 200.433C44.8721 188.965 52.5124 180.283 63.4784 173.087C72.4246 167.216 82.2221 163.296 90.9473 162.097C94.8519 161.561 102.907 161.558 106.95 162.092C117.639 163.502 128.056 168.439 137.654 176.644C139.329 178.076 141.545 180.165 142.58 181.287C147.304 186.41 152.757 193.986 154.874 198.368C156.824 202.405 156.827 206.489 154.881 210.46C153.386 213.511 151.298 215.391 146.013 218.44C143.577 219.846 138.927 222.525 135.679 224.396C120.485 233.144 117.841 234.668 111.763 238.178C101.361 244.187 85.9586 253.061 83.7132 254.34C82.5766 254.986 80.4053 256.242 78.8881 257.131L76.1298 258.746L77.2642 259.913C79.9851 262.714 84.9457 265.795 89.484 267.503C94.7989 269.504 96.2253 269.739 103.053 269.739C108.7 269.739 109.314 269.684 112.206 268.93C116.034 267.933 118.935 266.828 122.723 264.927C131.342 260.602 137.658 254.008 142.738 244.03C144.136 241.286 144.76 240.411 146.472 238.798C150.633 234.878 155.31 233.479 160.317 234.658C168.656 236.621 173.023 243.68 170.534 251.171C166.664 262.815 154.318 277.736 141.732 285.982C138.692 287.974 132.161 291.332 128.15 292.965C114.144 298.671 99.6174 299.791 85.4978 296.255C79.8423 294.839 73.3668 292.192 68.6236 289.358C62.0519 285.432 54.7397 278.965 50.5087 273.338L50.4798 273.299L50.2798 273.414C39.8779 279.423 24.4755 288.297 22.2301 289.575C21.731 289.859 21.0323 290.26 20.277 290.697ZM115.6 195.861C111.792 193.294 107.86 191.578 103.2 190.446C96.4843 188.816 88.8557 190.272 81.3305 194.621C71.3262 200.402 65.5743 207.418 63.0268 216.948C61.9705 220.898 61.6927 228.167 62.4349 232.429C62.9503 235.39 63.2167 235.964 63.8449 235.465C64.1716 235.205 68.7061 232.581 81.0562 225.504C82.5173 224.667 85.4407 222.982 87.552 221.76C89.6627 220.538 93.5822 218.277 96.2619 216.735C98.9416 215.194 103.392 212.628 106.153 211.034C108.914 209.44 113.564 206.759 116.487 205.077C119.41 203.394 121.908 201.913 122.039 201.785C122.365 201.464 118.123 197.561 115.6 195.861Z" fill="white"/>
</g>
<defs>
<clipPath id="clip0">
<rect width="200" height="329" fill="white"/>
</clipPath>
</defs>
</svg>
