<svg width="1920" height="1565" viewBox="0 0 1920 1565" fill="none" xmlns="http://www.w3.org/2000/svg">
<rect width="1920" height="1565" fill="url(#paint0_linear)"/>
<path opacity="0.1" fill-rule="evenodd" clip-rule="evenodd" d="M1365.94 1445.99C1368.36 1409.9 1370.25 1375.24 1370.68 1350.32C1371.7 1291.1 1368.01 1248.93 1364.71 1211.15C1360.31 1160.78 1356.59 1118.21 1365.62 1053.44C1374.54 989.54 1406.96 936.721 1438.74 884.933C1459.74 850.722 1480.47 816.961 1493.95 780.753C1540.17 656.675 1586.99 861.815 1528.12 1057.38C1516.73 1095.22 1498.48 1135.67 1478.54 1179.87C1451.55 1239.69 1421.46 1306.39 1401.08 1382.78C1396.16 1401.21 1394.05 1425.77 1392.34 1454.57C1410.58 1389.16 1437.2 1316.21 1470.24 1261.99C1548.4 1133.69 1779.84 1048.55 1830.7 1068.85C1853.14 1077.81 1818.98 1099.02 1773.18 1127.45L1773.18 1127.45C1753.21 1139.85 1731.03 1153.62 1710.36 1168.35C1684.04 1187.11 1667.9 1209.3 1650.96 1232.58C1624.1 1269.51 1595.24 1309.18 1520.61 1342.27C1437.02 1379.33 1406.39 1488.74 1388.97 1556.84C1404.7 1519.04 1433.44 1466.75 1483.59 1420.58C1575 1336.42 1726.88 1277.92 1812.24 1261.47C1835.29 1257.02 1808.03 1281.82 1752.51 1332.31L1752.5 1332.32C1731.78 1351.17 1707.11 1373.6 1679.66 1399.42C1678 1400.99 1676.33 1402.53 1674.65 1404.03C1671.46 1420.54 1667.67 1440.15 1663.79 1462.41C1656.22 1505.86 1632.49 1537.01 1612.87 1562.76C1609.8 1566.8 1606.82 1570.71 1604.02 1574.51H1568.13C1568.33 1563.52 1569.38 1551.97 1571.6 1540.05C1577.08 1510.67 1589.13 1480.04 1604 1451.46C1572.74 1467.04 1541.56 1477.17 1513.59 1486.26L1513.59 1486.26C1468.08 1501.04 1431.08 1513.06 1416.08 1541.28C1410.29 1552.17 1405.77 1563.85 1402.33 1574.51H1335.17C1334.29 1560.88 1332.29 1544.36 1327.92 1528.79C1319.14 1497.48 1285.17 1478.76 1243.4 1455.74C1196.57 1429.94 1139.94 1398.73 1097.95 1338.31C1076.36 1307.23 1056.8 1280.1 1040.36 1257.3C996.32 1196.22 974.695 1166.22 996.513 1174.79C1077.28 1206.5 1214.76 1292.64 1287.04 1394.24C1315.69 1434.51 1332.62 1476.05 1342.63 1511.54C1342.78 1473.34 1341.21 1432.9 1335.28 1407.89C1329.81 1384.81 1310.71 1361.7 1288.17 1334.44C1253.26 1292.21 1210.1 1240 1196.53 1162.47C1174.2 1034.86 1168.04 978.655 1186.26 990.908C1248.86 1033 1336.76 1157.31 1358.18 1271.15C1367.03 1318.18 1367.93 1384.43 1365.94 1445.99ZM1071.59 1574.51C1059.43 1524.14 1041.44 1461 1020.1 1421.26C980.013 1346.6 887.243 1273.35 830.891 1252.77C814.484 1246.78 830.926 1284.21 874.583 1368.12C901.109 1419.11 944.813 1449.07 980.161 1473.29C1002.99 1488.94 1022.33 1502.2 1031.31 1517.19C1039.53 1530.9 1047.68 1552.48 1054.76 1574.51H1071.59ZM1030.67 1574.51H1051.24C1017.48 1541.69 968.939 1497.81 930.841 1476.71C865.671 1440.61 762.239 1430.64 710.795 1442.26C695.818 1445.65 725.787 1465.48 797.999 1506.71C841.876 1531.77 888.437 1533.1 926.096 1534.18H926.096C950.415 1534.88 971.021 1535.47 984.795 1542.27C997.732 1548.66 1014.57 1561.21 1030.67 1574.51ZM1682.99 1574.51H1666.08C1683.93 1524.61 1710 1459.69 1736.85 1420.55C1785.09 1350.2 1885.58 1286.39 1943.93 1271.41C1960.92 1267.05 1940.37 1302.67 1887.53 1381.87C1855.43 1430 1808.6 1455.54 1770.73 1476.19C1746.27 1489.53 1725.55 1500.83 1714.93 1514.86C1704.48 1528.69 1693.06 1551.6 1682.99 1574.51ZM1767.41 1574.51H1746.83C1760.3 1553.61 1780.31 1528.88 1808.58 1507.97C1871.47 1461.43 1968.32 1436.36 2021.21 1432.82C2039.68 1431.59 2002.92 1459.37 1940.35 1506.66L1940.05 1506.89C1936.28 1509.74 1932.43 1512.65 1928.49 1515.63C1891.66 1543.49 1852.67 1551.29 1820.44 1557.73C1798.83 1562.05 1780.26 1565.76 1767.41 1574.51Z" fill="#132E52"/>
<path fill-rule="evenodd" clip-rule="evenodd" d="M1262.43 1479.54H1130.74L1125.87 1565.01H1272.19L1262.43 1479.54Z" fill="#45B8FF"/>
<path fill-rule="evenodd" clip-rule="evenodd" d="M1209.13 1315.67C1206.72 1305.78 1193.38 1303.53 1187.39 1312L1143.1 1374.72C1123.79 1387.63 1110.09 1406.75 1106.75 1428.79C1100.22 1471.81 1135.61 1509.65 1185.8 1513.31C1235.09 1516.91 1280.32 1486.2 1288.1 1444.35L1288.73 1444.77L1311.91 1360.88C1314.63 1351 1304.01 1343.87 1294.48 1349.19L1254.07 1371.75C1244.13 1365.49 1232.48 1360.98 1219.63 1358.77L1209.13 1315.67Z" fill="#45B8FF"/>
<path fill-rule="evenodd" clip-rule="evenodd" d="M1183.6 1435.38C1180.93 1437.17 1177.34 1436.46 1175.64 1433.8C1172.96 1429.61 1176.75 1424.19 1181.68 1425.17C1186.61 1426.15 1187.81 1432.56 1183.6 1435.38Z" fill="white"/>
<path fill-rule="evenodd" clip-rule="evenodd" d="M1128.16 1410.99C1126.34 1417.71 1130.43 1424.06 1137.3 1425.17C1144.17 1426.28 1151.22 1421.73 1153.05 1415C1154.88 1408.28 1150.79 1401.93 1143.92 1400.82C1137.04 1399.71 1129.99 1404.27 1128.16 1410.99ZM1214.18 1428.07C1212.35 1434.8 1216.44 1441.15 1223.32 1442.25C1230.19 1443.36 1237.24 1438.81 1239.07 1432.09C1240.9 1425.36 1236.81 1419.01 1229.93 1417.91C1223.06 1416.8 1216.01 1421.35 1214.18 1428.07Z" fill="white"/>
<path fill-rule="evenodd" clip-rule="evenodd" d="M1316.48 1565.01C1316.48 1565.01 1333.44 1541.77 1316.48 1522.64C1297.58 1501.32 1294.63 1474.94 1318.53 1456.61C1341.67 1438.86 1381.88 1435.59 1401.39 1469.85C1420.91 1504.11 1396.28 1512.99 1388.95 1504.64C1381.62 1496.29 1387.84 1467.39 1354.16 1470.72C1320.47 1474.06 1329.67 1498.15 1344.55 1515.82C1358.16 1531.98 1352.18 1552.82 1346.76 1565.01H1316.48Z" fill="#45B8FF"/>
<defs>
<linearGradient id="paint0_linear" x1="960" y1="0" x2="960" y2="1565" gradientUnits="userSpaceOnUse">
<stop stop-color="#1F4370"/>
<stop offset="1" stop-color="#195AA9"/>
</linearGradient>
</defs>
</svg>
