<svg width="40" height="40" viewBox="0 0 40 40" fill="none" xmlns="http://www.w3.org/2000/svg">
<path fill-rule="evenodd" clip-rule="evenodd" d="M15.1406 22.338C14.6505 22.4061 14.1498 22.4413 13.6408 22.4413C13.6408 22.4413 13.6407 22.4413 13.6406 22.4413V35.5623C13.6406 36.6669 14.5361 37.5623 15.6406 37.5623H33.242C34.3466 37.5623 35.242 36.6669 35.242 35.5623V9.32031C35.242 8.21574 34.3466 7.32031 33.242 7.32031H23.5428C23.7537 7.80295 23.9303 8.30397 24.0696 8.82031H33.242C33.5182 8.82031 33.742 9.04417 33.742 9.32031V35.5623C33.742 35.8384 33.5182 36.0623 33.242 36.0623H15.6406C15.3645 36.0623 15.1406 35.8384 15.1406 35.5623V22.338Z" fill="url(#paint0_linear)"/>
<circle cx="13.6406" cy="11.6406" r="8.64056" stroke="url(#paint1_linear)" stroke-width="1.5"/>
<path d="M13.6406 6.24023V11.6406H19.041" stroke="url(#paint2_linear)" stroke-width="1.5" stroke-linecap="round" stroke-linejoin="round"/>
<path d="M19.728 20.2811H29.1541" stroke="url(#paint3_linear)" stroke-width="1.5" stroke-linecap="round"/>
<path d="M19.728 24.9941H29.1541" stroke="url(#paint4_linear)" stroke-width="1.5" stroke-linecap="round"/>
<path d="M19.728 29.7072H29.1541" stroke="url(#paint5_linear)" stroke-width="1.5" stroke-linecap="round"/>
<defs>
<linearGradient id="paint0_linear" x1="19.8937" y1="13.9186" x2="22.2607" y2="33.4958" gradientUnits="userSpaceOnUse">
<stop stop-color="#6178F5"/>
<stop offset="1" stop-color="#195AA9"/>
</linearGradient>
<linearGradient id="paint1_linear" x1="10.0024" y1="6.77043" x2="10.9755" y2="18.037" gradientUnits="userSpaceOnUse">
<stop stop-color="#6178F5"/>
<stop offset="1" stop-color="#195AA9"/>
</linearGradient>
<linearGradient id="paint2_linear" x1="15.2039" y1="7.41849" x2="15.508" y2="10.9393" gradientUnits="userSpaceOnUse">
<stop stop-color="#6178F5"/>
<stop offset="1" stop-color="#195AA9"/>
</linearGradient>
<linearGradient id="paint3_linear" x1="22.4566" y1="20.4993" x2="22.4626" y2="21.1561" gradientUnits="userSpaceOnUse">
<stop stop-color="#6178F5"/>
<stop offset="1" stop-color="#195AA9"/>
</linearGradient>
<linearGradient id="paint4_linear" x1="22.4566" y1="25.2123" x2="22.4626" y2="25.8691" gradientUnits="userSpaceOnUse">
<stop stop-color="#6178F5"/>
<stop offset="1" stop-color="#195AA9"/>
</linearGradient>
<linearGradient id="paint5_linear" x1="22.4566" y1="29.9254" x2="22.4626" y2="30.5822" gradientUnits="userSpaceOnUse">
<stop stop-color="#6178F5"/>
<stop offset="1" stop-color="#195AA9"/>
</linearGradient>
</defs>
</svg>
