<svg width="36" height="36" viewBox="0 0 36 36" fill="none" xmlns="http://www.w3.org/2000/svg">
<path d="M18.0001 0.599976C8.3993 0.599976 0.600098 8.39918 0.600098 18C0.600098 27.6008 8.3993 35.4 18.0001 35.4C27.6009 35.4 35.4001 27.6008 35.4001 18C35.4001 8.39918 27.6009 0.599976 18.0001 0.599976ZM18.0001 2.11302C26.7832 2.11302 33.8871 9.21689 33.8871 18C33.8871 26.7831 26.7832 33.8869 18.0001 33.8869C9.21702 33.8869 2.11314 26.7831 2.11314 18C2.11314 9.21689 9.21702 2.11302 18.0001 2.11302ZM17.2436 8.92171V17.2435H8.92184V18.7565H17.2436V27.0782H18.7566V18.7565H27.0784V17.2435H18.7566V8.92171H17.2436Z" fill="url(#paint0_linear)"/>
<defs>
<linearGradient id="paint0_linear" x1="10.6738" y1="8.1927" x2="12.6332" y2="30.8808" gradientUnits="userSpaceOnUse">
<stop stop-color="#6178F5"/>
<stop offset="1" stop-color="#195AA9"/>
</linearGradient>
</defs>
</svg>
