<svg width="36" height="36" viewBox="0 0 36 36" fill="none" xmlns="http://www.w3.org/2000/svg">
<path d="M2.7999 0.400024C1.44053 0.400024 0.399902 1.44065 0.399902 2.80002V18.8C0.399902 20.1594 1.44053 21.2 2.7999 21.2H3.1249L4.3999 19.6H2.7999C2.31865 19.6 1.9999 19.2813 1.9999 18.8V2.80002C1.9999 2.31877 2.31865 2.00002 2.7999 2.00002H18.7999C19.2812 2.00002 19.5999 2.31877 19.5999 2.80002V14.8H17.1999C15.8405 14.8 14.7999 15.8406 14.7999 17.2V19.6H10.7999L12.0749 21.2H14.7999V23.925L16.3999 25.275V17.2C16.3999 16.7188 16.7187 16.4 17.1999 16.4H33.1999C33.6811 16.4 33.9999 16.7188 33.9999 17.2V33.2C33.9999 33.6813 33.6811 34 33.1999 34H17.1999C16.7187 34 16.3999 33.6813 16.3999 33.2V31.6L14.7999 32.95V33.2C14.7999 34.5594 15.8405 35.6 17.1999 35.6H33.1999C34.5593 35.6 35.5999 34.5594 35.5999 33.2V17.2C35.5999 15.8406 34.5593 14.8 33.1999 14.8H21.1999V2.80002C21.1999 1.44065 20.1593 0.400024 18.7999 0.400024H2.7999ZM10.7999 4.40002V6.00002H4.3999V7.60002H13.9249C13.678 9.38127 12.6343 10.8438 11.3249 12.025C9.31865 10.2656 8.2999 8.42502 8.2999 8.42502L6.8999 9.17502C6.8999 9.17502 7.94677 11.1031 10.0499 13.025C9.99677 13.0625 9.95303 13.1125 9.8999 13.15C7.7874 14.6063 5.6749 15.325 5.6749 15.325L6.1749 16.85C6.1749 16.85 8.4999 16.0781 10.8249 14.475C10.9905 14.3594 11.1593 14.225 11.3249 14.1C12.2374 14.775 13.2999 15.3938 14.4999 15.875L15.0999 14.375C14.1812 14.0094 13.3593 13.5344 12.6249 13.025C14.0874 11.6406 15.3093 9.8344 15.5499 7.60002H17.9999V6.00002H12.3999V4.40002H10.7999ZM7.5999 18L3.5999 22.8H5.9999V26H9.1999V22.8H11.5999L7.5999 18ZM24.3999 19.125L20.2499 30.15H22.2499L23.1249 27.6H27.3499L28.2499 30.15H30.2499L26.0749 19.125H24.3999ZM25.1999 21.525L26.7999 26.075H23.5999L25.1999 21.525ZM13.1999 24.4V26.8H5.9999L9.1999 30H13.1999V32.4L17.9999 28.4L13.1999 24.4Z" fill="url(#paint0_linear)"/>
<defs>
<linearGradient id="paint0_linear" x1="10.5894" y1="8.08002" x2="12.5713" y2="31.0289" gradientUnits="userSpaceOnUse">
<stop stop-color="#6178F5"/>
<stop offset="1" stop-color="#195AA9"/>
</linearGradient>
</defs>
</svg>
