<svg width="39" height="36" viewBox="0 0 39 36" fill="none" xmlns="http://www.w3.org/2000/svg">
<path d="M34.2469 -2.99641C34.2134 -2.99019 34.1798 -2.98087 34.1494 -2.97155C33.7868 -2.88767 33.5309 -2.55524 33.54 -2.17622C33.54 -0.666315 32.8545 0.163197 31.59 0.980281C30.3256 1.79737 28.4974 2.45911 26.6175 3.26688C24.7376 4.07464 22.7906 5.04707 21.2794 6.67192C19.9052 8.15075 18.9516 10.1826 18.7931 12.9103C17.3855 12.8016 16.5598 12.3573 15.5756 11.8416C14.4361 11.2451 13.0833 10.5492 10.92 10.5492C9.58547 10.5492 8.30883 11.3445 7.09312 12.5127C5.87742 13.6808 4.70133 15.2684 3.65625 17.1107C1.56609 20.7954 0 25.4525 0 29.6373C0 31.3616 0.42047 32.8994 1.21875 34.0614C2.01703 35.2233 3.25101 36 4.68 36C8.44899 36 11.1851 34.0583 13.455 32.247C15.7249 30.4357 17.55 28.842 19.5 28.842C21.45 28.842 23.2751 30.4357 25.545 32.247C27.8149 34.0583 30.551 36 34.32 36C35.749 36 36.983 35.2233 37.7812 34.0614C38.5795 32.8994 39 31.3616 39 29.6373C39 25.4525 37.4339 20.7954 35.3438 17.1107C34.2987 15.2684 33.1226 13.6808 31.9069 12.5127C30.6912 11.3445 29.4145 10.5492 28.08 10.5492C25.9167 10.5492 24.5639 11.2451 23.4244 11.8416C22.4798 12.3356 21.6816 12.755 20.3775 12.8855C20.5298 10.5461 21.2946 8.98026 22.425 7.76551C23.6864 6.40784 25.4109 5.49134 27.2269 4.70843C29.0428 3.92552 30.9105 3.29484 32.4188 2.32241C33.927 1.34999 35.1 -0.107093 35.1 -2.17622C35.1091 -2.40612 35.0177 -2.6267 34.8563 -2.78204C34.6917 -2.94048 34.4693 -3.01815 34.2469 -2.99641ZM10.92 12.1399C12.7816 12.1399 13.7048 12.6369 14.8444 13.2335C15.9839 13.83 17.3367 14.5259 19.5 14.5259C19.5762 14.5259 19.6462 14.529 19.7194 14.5259C19.7285 14.5259 19.7346 14.5259 19.7437 14.5259C21.7638 14.4762 23.0618 13.8082 24.1556 13.2335C25.2952 12.6369 26.2184 12.1399 28.08 12.1399C28.7564 12.1399 29.771 12.6369 30.8344 13.656C31.8977 14.675 32.9916 16.1694 33.9787 17.9061C35.9531 21.3795 37.44 25.8688 37.44 29.6373C37.44 31.0944 37.0805 32.3402 36.5138 33.1666C35.947 33.993 35.231 34.4093 34.32 34.4093C31.069 34.4093 28.7351 32.772 26.52 31.0043C24.3049 29.2365 22.23 27.2513 19.5 27.2513C16.77 27.2513 14.6951 29.2365 12.48 31.0043C10.2649 32.772 7.93102 34.4093 4.68 34.4093C3.76898 34.4093 3.05297 33.993 2.48625 33.1666C1.91953 32.3402 1.56 31.0944 1.56 29.6373C1.56 25.8688 3.04688 21.3795 5.02125 17.9061C6.00844 16.1694 7.10227 14.675 8.16563 13.656C9.22898 12.6369 10.2436 12.1399 10.92 12.1399ZM28.86 17.7072C27.9977 17.7072 27.3 18.4187 27.3 19.2979C27.3 20.1771 27.9977 20.8886 28.86 20.8886C29.7223 20.8886 30.42 20.1771 30.42 19.2979C30.42 18.4187 29.7223 17.7072 28.86 17.7072ZM9.36 18.5026V20.8886H7.02V23.2746H9.36V25.6606H11.7V23.2746H14.04V20.8886H11.7V18.5026H9.36ZM25.74 20.8886C24.8777 20.8886 24.18 21.6 24.18 22.4793C24.18 23.3585 24.8777 24.0699 25.74 24.0699C26.6023 24.0699 27.3 23.3585 27.3 22.4793C27.3 21.6 26.6023 20.8886 25.74 20.8886ZM31.98 20.8886C31.1177 20.8886 30.42 21.6 30.42 22.4793C30.42 23.3585 31.1177 24.0699 31.98 24.0699C32.8423 24.0699 33.54 23.3585 33.54 22.4793C33.54 21.6 32.8423 20.8886 31.98 20.8886ZM28.86 24.0699C27.9977 24.0699 27.3 24.7814 27.3 25.6606C27.3 26.5398 27.9977 27.2513 28.86 27.2513C29.7223 27.2513 30.42 26.5398 30.42 25.6606C30.42 24.7814 29.7223 24.0699 28.86 24.0699Z" fill="url(#paint0_linear)"/>
<defs>
<linearGradient id="paint0_linear" x1="11.2895" y1="5.50909" x2="13.4854" y2="30.9354" gradientUnits="userSpaceOnUse">
<stop stop-color="#6178F5"/>
<stop offset="1" stop-color="#195AA9"/>
</linearGradient>
</defs>
</svg>
