<svg width="500" height="735" viewBox="0 0 500 735" fill="none" xmlns="http://www.w3.org/2000/svg">
<path opacity="0.84" d="M98.4514 -26.1237L66.2408 22.7366L62.1673 61.4928L94.8307 8.32626L125.357 44.1883L189.502 -16.5539L177.256 -37.4332L128.751 11.8915L98.4514 -26.1237Z" fill="url(#paint0_linear)"/>
<path opacity="0.97" d="M168.933 55.8014L159.614 68.6272L158.25 88.1239L168.103 73.5056C172.513 66.9642 181.699 65.8582 187.535 71.1664C192.33 75.528 199.613 75.6677 204.572 71.4934L232.919 47.6305L224.936 37.2762L206.011 54.4175C200.969 58.9849 193.247 58.8547 188.361 54.1199C182.722 48.6549 173.55 49.4487 168.933 55.8014Z" fill="url(#paint1_linear)"/>
<path opacity="0.71" d="M347.418 9.5161C354.162 7.06147 361.619 10.5387 364.074 17.2828C366.528 24.0268 363.051 31.4838 356.307 33.9385L344.096 38.383L335.207 13.9606L347.418 9.5161Z" fill="#D8592C"/>
<path opacity="0.99" d="M519.139 45.7519L488.262 19.3378L446.55 -4.74432L482.449 25.1123C487.54 29.3474 483.775 37.594 477.24 36.5205C471.129 35.5164 467.21 42.8203 471.427 47.3567L517.575 97.0029L541.619 103.522L507.657 68.4055C503.176 63.7711 507.287 56.1157 513.626 57.2929C520.285 58.5295 524.285 50.1543 519.139 45.7519Z" fill="url(#paint2_linear)"/>
<path opacity="0.74" d="M27.8736 82.7275C19.8303 89.0116 8.21549 87.5855 1.93141 79.5422L0.153522 77.2666C-6.1306 69.2233 -4.7045 57.6087 3.33881 51.3245L5.61443 49.5466C13.6577 43.2625 25.2724 44.6886 31.5565 52.7319L44.7128 69.5712L27.8736 82.7275Z" fill="#6AB2F5"/>
<g opacity="0.74" filter="url(#filter0_f)">
<path opacity="0.74" d="M103.576 116.052C95.5328 122.335 83.9181 120.91 77.634 112.866L75.8561 110.591C69.572 102.548 70.9981 90.9329 79.0414 84.6487L81.3169 82.8709C89.3603 76.5868 100.975 78.0128 107.259 86.0562L120.416 102.895L103.576 116.052Z" fill="#6FCC86"/>
</g>
<path opacity="0.74" d="M185.257 34.4968C179.795 28.2138 180.462 18.6926 186.744 13.2309C193.027 7.76901 202.548 8.4348 208.01 14.7179C213.472 21.001 212.807 30.5221 206.523 35.9839L195.146 45.8734L185.257 34.4968Z" fill="#6FCC86"/>
<g opacity="0.79" filter="url(#filter1_f)">
<path opacity="0.79" d="M355.392 86.3829C346.52 81.4654 343.316 70.287 348.233 61.4155C353.15 52.544 364.328 49.3386 373.2 54.2562C382.072 59.1738 385.277 70.352 380.36 79.2236L371.455 95.287L355.392 86.3829Z" fill="#6FCC86"/>
</g>
<path opacity="0.96" d="M373.888 55.7167L377.208 43.3351L372.587 28.2238L369.385 42.1127C367.953 48.3278 361.339 51.8245 355.396 49.5087C350.513 47.6059 344.976 49.6103 342.441 54.1978L327.959 80.4235L336.985 85.9258L346.303 67.5041C348.786 62.5956 354.652 60.4565 359.711 62.6147C365.552 65.1058 372.244 61.8492 373.888 55.7167Z" fill="url(#paint3_linear)"/>
<path opacity="0.77" d="M422.606 28.34C419.416 36.6482 410.096 40.798 401.787 37.6088C393.479 34.4196 389.329 25.099 392.519 16.7908C395.708 8.48253 405.028 4.33276 413.337 7.52199L428.38 13.2966L422.606 28.34Z" fill="#6FCC86"/>
<path opacity="0.82" d="M8.08488 187.374C3.06325 190.158 -3.26408 188.343 -6.04762 183.321C-8.83116 178.3 -7.01682 171.972 -1.99519 169.189C3.02643 166.406 9.35376 168.22 12.1373 173.242L17.1774 182.333L8.08488 187.374Z" fill="#6FCC86"/>
<g opacity="0.75" filter="url(#filter2_f)">
<path opacity="0.75" d="M152.577 111.238L157.469 134.262L167.868 145.031L161.821 120.809L181.854 118.806L183.088 81.7737L173.103 81.0112L173.188 109.833L152.577 111.238Z" fill="url(#paint4_linear)"/>
</g>
<g opacity="0.98" filter="url(#filter3_f)">
<path opacity="0.98" d="M258.228 101.153L284.193 110.096L301.21 106.167L273.356 97.661L283.389 76.4241L247.097 52.9371L240.335 62.4648L269.208 79.6981L258.228 101.153Z" fill="url(#paint5_linear)"/>
</g>
<path d="M265.209 100.491C258.971 99.503 254.715 93.6453 255.703 87.4074C256.691 81.1695 262.549 76.9137 268.787 77.9016L280.082 79.6905L276.503 102.28L265.209 100.491Z" fill="#D8592C"/>
<path d="M434.013 103.031C424.935 101.593 418.741 93.0681 420.18 83.9902C421.618 74.9124 430.142 68.7188 439.22 70.1566L455.657 72.76L450.45 105.634L434.013 103.031Z" fill="#D8592C"/>
<path opacity="0.97" d="M489.171 150.107L481.935 140.145L467.862 134.459L476.294 145.244C480.067 150.072 478.679 157.122 473.358 160.159C468.986 162.653 467.135 167.999 469.029 172.663L479.851 199.326L489.414 195.915L481.295 177.824C479.132 173.004 481.081 167.331 485.751 164.859C491.141 162.005 492.754 155.041 489.171 150.107Z" fill="url(#paint6_linear)"/>
<g opacity="0.2" filter="url(#filter4_f)">
<path opacity="0.2" d="M37.3352 231.107C37.6556 226.525 41.6298 223.07 46.2119 223.39C50.7938 223.712 54.2486 227.685 53.9282 232.267L53.348 240.563L36.7551 239.404L37.3352 231.107Z" fill="#965FFB"/>
</g>
<g opacity="0.2" filter="url(#filter5_f)">
<path opacity="0.2" d="M104.855 230.876C113.18 234.759 116.782 244.656 112.9 252.982C109.017 261.306 99.1211 264.909 90.7955 261.027C82.4698 257.145 78.8677 247.248 82.75 238.922L89.7796 223.847L104.855 230.876Z" fill="#6AB2F5"/>
</g>
<path opacity="0.8" d="M535.126 573.327L500.754 566.826L480.026 574.906L516.701 580.509L507.954 609.121L558.016 632.058L564.79 618.806L525.229 602.389L535.126 573.327Z" fill="url(#paint7_linear)"/>
<path opacity="0.8" d="M121.28 661.625L101.036 655.199L87.9523 658.557L109.65 664.61L102.291 681.219L130.794 698.696L135.843 691.202L113.194 678.42L121.28 661.625Z" fill="url(#paint8_linear)"/>
<g opacity="0.2" filter="url(#filter6_f)">
<path opacity="0.2" d="M385.693 261.242C387.822 254.69 394.86 251.104 401.412 253.232C407.965 255.362 411.551 262.399 409.422 268.952L405.566 280.817L381.838 273.107L385.693 261.242Z" fill="#965FFB"/>
</g>
<g opacity="0.92" filter="url(#filter7_f)">
<path opacity="0.92" d="M502.955 223.498C508.646 226.652 510.702 233.823 507.548 239.514C504.393 245.206 497.222 247.263 491.531 244.108C485.84 240.953 483.784 233.782 486.938 228.091L492.65 217.786L502.955 223.498Z" fill="#6FCC86"/>
</g>
<g opacity="0.77" filter="url(#filter8_f)">
<path opacity="0.77" d="M91.3972 547.773C89.0266 552.049 90.5718 557.438 94.8486 559.809C99.1253 562.179 104.514 560.634 106.885 556.357C109.255 552.081 107.71 546.692 103.433 544.321C99.1567 541.951 93.7679 543.496 91.3972 547.773Z" fill="#69BAFB"/>
</g>
<path opacity="0.82" d="M384.641 660.633C384.53 655.754 388.396 651.709 393.275 651.599C398.154 651.488 402.198 655.354 402.309 660.233L402.509 669.068L384.84 669.467L384.641 660.633Z" fill="#965FFB"/>
<path d="M414.66 715.187L404.654 728.13L402.648 748.198L413.26 733.423C418.009 726.811 427.52 725.952 433.375 731.607C438.187 736.253 445.694 736.62 450.937 732.468L480.91 708.724L472.993 697.8L452.947 714.898C447.605 719.454 439.645 719.083 434.751 714.049C429.101 708.239 419.618 708.776 414.66 715.187Z" fill="url(#paint9_linear)"/>
<path d="M38.3189 738.347L31.3425 745.419L28.67 757.369L36.1447 749.237C39.4894 745.598 45.2845 745.774 48.402 749.609C50.9636 752.762 55.4619 753.531 58.9251 751.41L78.7238 739.284L74.7487 732.121L61.4178 740.966C57.8658 743.322 53.0944 742.518 50.5116 739.127C47.5304 735.212 41.7743 734.845 38.3189 738.347Z" fill="url(#paint10_linear)"/>
<g opacity="0.2" filter="url(#filter9_f)">
<path opacity="0.2" d="M446.053 467.62C446.731 459.879 441.005 453.055 433.264 452.378C425.523 451.701 418.699 457.427 418.022 465.167C417.345 472.908 423.071 479.732 430.812 480.409C438.552 481.086 445.376 475.36 446.053 467.62Z" fill="#69BAFB"/>
</g>
<path opacity="0.81" d="M163.697 748.605C167.808 746.289 169.263 741.08 166.947 736.969C164.632 732.859 159.422 731.404 155.312 733.719C151.201 736.035 149.746 741.244 152.062 745.355C154.377 749.465 159.587 750.92 163.697 748.605Z" fill="#69BAFB"/>
<g opacity="0.2" filter="url(#filter10_f)">
<path opacity="0.2" d="M478.69 392.823C479.27 388.093 483.575 384.729 488.305 385.31C493.035 385.891 496.399 390.196 495.818 394.926L494.766 403.49L477.637 401.387L478.69 392.823Z" fill="#965FFB"/>
</g>
<defs>
<filter id="filter0_f" x="67.9374" y="74.9521" width="56.4784" height="49.0181" filterUnits="userSpaceOnUse" color-interpolation-filters="sRGB">
<feFlood flood-opacity="0" result="BackgroundImageFix"/>
<feBlend mode="normal" in="SourceGraphic" in2="BackgroundImageFix" result="shape"/>
<feGaussianBlur stdDeviation="2" result="effect1_foregroundBlur"/>
</filter>
<filter id="filter1_f" x="331.927" y="37.9501" width="64.7388" height="71.3369" filterUnits="userSpaceOnUse" color-interpolation-filters="sRGB">
<feFlood flood-opacity="0" result="BackgroundImageFix"/>
<feBlend mode="normal" in="SourceGraphic" in2="BackgroundImageFix" result="shape"/>
<feGaussianBlur stdDeviation="7" result="effect1_foregroundBlur"/>
</filter>
<filter id="filter2_f" x="138.577" y="67.0112" width="58.5108" height="92.0195" filterUnits="userSpaceOnUse" color-interpolation-filters="sRGB">
<feFlood flood-opacity="0" result="BackgroundImageFix"/>
<feBlend mode="normal" in="SourceGraphic" in2="BackgroundImageFix" result="shape"/>
<feGaussianBlur stdDeviation="7" result="effect1_foregroundBlur"/>
</filter>
<filter id="filter3_f" x="226.335" y="38.9371" width="88.875" height="85.159" filterUnits="userSpaceOnUse" color-interpolation-filters="sRGB">
<feFlood flood-opacity="0" result="BackgroundImageFix"/>
<feBlend mode="normal" in="SourceGraphic" in2="BackgroundImageFix" result="shape"/>
<feGaussianBlur stdDeviation="7" result="effect1_foregroundBlur"/>
</filter>
<filter id="filter4_f" x="22.7551" y="209.37" width="45.1937" height="45.1934" filterUnits="userSpaceOnUse" color-interpolation-filters="sRGB">
<feFlood flood-opacity="0" result="BackgroundImageFix"/>
<feBlend mode="normal" in="SourceGraphic" in2="BackgroundImageFix" result="shape"/>
<feGaussianBlur stdDeviation="7" result="effect1_foregroundBlur"/>
</filter>
<filter id="filter5_f" x="67.1876" y="209.847" width="61.2744" height="66.7426" filterUnits="userSpaceOnUse" color-interpolation-filters="sRGB">
<feFlood flood-opacity="0" result="BackgroundImageFix"/>
<feBlend mode="normal" in="SourceGraphic" in2="BackgroundImageFix" result="shape"/>
<feGaussianBlur stdDeviation="7" result="effect1_foregroundBlur"/>
</filter>
<filter id="filter6_f" x="367.838" y="238.619" width="56.1977" height="56.1987" filterUnits="userSpaceOnUse" color-interpolation-filters="sRGB">
<feFlood flood-opacity="0" result="BackgroundImageFix"/>
<feBlend mode="normal" in="SourceGraphic" in2="BackgroundImageFix" result="shape"/>
<feGaussianBlur stdDeviation="7" result="effect1_foregroundBlur"/>
</filter>
<filter id="filter7_f" x="471.459" y="203.786" width="51.5681" height="55.8015" filterUnits="userSpaceOnUse" color-interpolation-filters="sRGB">
<feFlood flood-opacity="0" result="BackgroundImageFix"/>
<feBlend mode="normal" in="SourceGraphic" in2="BackgroundImageFix" result="shape"/>
<feGaussianBlur stdDeviation="7" result="effect1_foregroundBlur"/>
</filter>
<filter id="filter8_f" x="76.2855" y="529.21" width="45.711" height="45.7109" filterUnits="userSpaceOnUse" color-interpolation-filters="sRGB">
<feFlood flood-opacity="0" result="BackgroundImageFix"/>
<feBlend mode="normal" in="SourceGraphic" in2="BackgroundImageFix" result="shape"/>
<feGaussianBlur stdDeviation="7" result="effect1_foregroundBlur"/>
</filter>
<filter id="filter9_f" x="402.796" y="437.152" width="58.4836" height="58.4835" filterUnits="userSpaceOnUse" color-interpolation-filters="sRGB">
<feFlood flood-opacity="0" result="BackgroundImageFix"/>
<feBlend mode="normal" in="SourceGraphic" in2="BackgroundImageFix" result="shape"/>
<feGaussianBlur stdDeviation="7" result="effect1_foregroundBlur"/>
</filter>
<filter id="filter10_f" x="463.637" y="371.245" width="46.2454" height="46.2454" filterUnits="userSpaceOnUse" color-interpolation-filters="sRGB">
<feFlood flood-opacity="0" result="BackgroundImageFix"/>
<feBlend mode="normal" in="SourceGraphic" in2="BackgroundImageFix" result="shape"/>
<feGaussianBlur stdDeviation="7" result="effect1_foregroundBlur"/>
</filter>
<linearGradient id="paint0_linear" x1="132.624" y1="-42.1241" x2="121.082" y2="67.685" gradientUnits="userSpaceOnUse">
<stop stop-color="#E2441F"/>
<stop offset="1" stop-color="#E76E27"/>
</linearGradient>
<linearGradient id="paint1_linear" x1="165.734" y1="74.4973" x2="232.768" y2="49.7967" gradientUnits="userSpaceOnUse">
<stop stop-color="#6078F4"/>
<stop offset="1" stop-color="#245FAB"/>
</linearGradient>
<linearGradient id="paint2_linear" x1="474.284" y1="16.7897" x2="452.596" y2="69.4974" gradientUnits="userSpaceOnUse">
<stop stop-color="#6078F4"/>
<stop offset="1" stop-color="#245FAB"/>
</linearGradient>
<linearGradient id="paint3_linear" x1="370.887" y1="40.6775" x2="327.446" y2="78.7445" gradientUnits="userSpaceOnUse">
<stop stop-color="#6078F4"/>
<stop offset="1" stop-color="#245FAB"/>
</linearGradient>
<linearGradient id="paint4_linear" x1="158.147" y1="95.4543" x2="187.61" y2="125.966" gradientUnits="userSpaceOnUse">
<stop stop-color="#E2441F"/>
<stop offset="1" stop-color="#E76E27"/>
</linearGradient>
<linearGradient id="paint5_linear" x1="245.79" y1="86.1001" x2="294.006" y2="74.9685" gradientUnits="userSpaceOnUse">
<stop stop-color="#E2441F"/>
<stop offset="1" stop-color="#E76E27"/>
</linearGradient>
<linearGradient id="paint6_linear" x1="476.13" y1="143.256" x2="478.287" y2="198.694" gradientUnits="userSpaceOnUse">
<stop stop-color="#6078F4"/>
<stop offset="1" stop-color="#245FAB"/>
</linearGradient>
<linearGradient id="paint7_linear" x1="553.569" y1="590.016" x2="494.838" y2="612.908" gradientUnits="userSpaceOnUse">
<stop stop-color="#E2441F"/>
<stop offset="1" stop-color="#E76E27"/>
</linearGradient>
<linearGradient id="paint8_linear" x1="131.18" y1="673.029" x2="94.1085" y2="682.544" gradientUnits="userSpaceOnUse">
<stop stop-color="#E2441F"/>
<stop offset="1" stop-color="#E76E27"/>
</linearGradient>
<linearGradient id="paint9_linear" x1="410.786" y1="734.372" x2="480.687" y2="710.954" gradientUnits="userSpaceOnUse">
<stop stop-color="#6078F4"/>
<stop offset="1" stop-color="#245FAB"/>
</linearGradient>
<linearGradient id="paint10_linear" x1="34.5836" y1="749.629" x2="78.4268" y2="740.612" gradientUnits="userSpaceOnUse">
<stop stop-color="#6078F4"/>
<stop offset="1" stop-color="#245FAB"/>
</linearGradient>
</defs>
</svg>
