<svg width="108" height="108" viewBox="0 0 108 108" fill="none" xmlns="http://www.w3.org/2000/svg">
<path d="M54.7733 47.2301C67.8155 47.2301 78.3884 36.6573 78.3884 23.6151C78.3884 10.5728 67.8155 0 54.7733 0C41.731 0 31.1582 10.5728 31.1582 23.6151C31.1582 36.6573 41.731 47.2301 54.7733 47.2301Z" fill="#8CACD5"/>
<path d="M54.7717 23.2847C60.065 23.2847 64.356 18.9937 64.356 13.7005C64.356 8.40722 60.065 4.11621 54.7717 4.11621C49.4785 4.11621 45.1875 8.40722 45.1875 13.7005C45.1875 18.9937 49.4785 23.2847 54.7717 23.2847Z" fill="#195AA9"/>
<path fill-rule="evenodd" clip-rule="evenodd" d="M73.9415 37.4057C70.276 30.6156 63.0653 25.9888 54.773 25.9888C46.5107 25.9888 39.3 30.6156 35.6045 37.4057C39.9009 43.3546 46.8712 47.2303 54.773 47.2303C62.6747 47.2303 69.6751 43.3546 73.9415 37.4057Z" fill="#195AA9"/>
<path d="M103.387 56.334H6.16218C3.97188 56.334 2.19629 57.5446 2.19629 59.038V73.5796C2.19629 75.073 3.97188 76.2836 6.16218 76.2836H103.387C105.577 76.2836 107.352 75.073 107.352 73.5796V59.038C107.352 57.5446 105.577 56.334 103.387 56.334Z" fill="#195AA9"/>
<path fill-rule="evenodd" clip-rule="evenodd" d="M93.3804 97.1343C93.3804 96.2329 93.6207 95.3917 94.0714 94.6706C94.9126 93.2585 96.4449 92.2971 98.2175 92.2971C99.5095 92.2971 100.741 92.8079 101.643 93.7092L102.033 94.0998L105.068 91.0653L104.677 90.7047C102.965 88.9621 100.681 88.0308 98.2175 88.0308C95.7839 88.0308 93.5005 88.9621 91.758 90.7047C91.4876 90.9751 91.2172 91.2756 90.9768 91.6061C89.745 93.1684 89.084 95.1213 89.084 97.1343C89.084 99.1773 89.745 101.13 90.9768 102.693C91.2172 103.023 91.4876 103.323 91.758 103.594C93.5005 105.336 95.7839 106.268 98.2175 106.268C100.261 106.268 102.183 105.607 103.776 104.405C104.106 104.165 104.407 103.894 104.677 103.594C106.42 101.881 107.351 99.5979 107.351 97.1343C107.351 96.5935 107.321 96.0226 107.201 95.4818L107.141 95.0612H98.2175V99.3275H102.574C102.153 100.169 101.492 100.86 100.711 101.31C99.9902 101.761 99.1189 102.002 98.2175 102.002C96.4449 102.002 94.9126 101.04 94.0714 99.628C93.6207 98.9069 93.3804 98.0657 93.3804 97.1343Z" fill="#195AA9"/>
<path d="M10.9377 91.7561C12.1695 91.7561 13.3413 92.0566 14.483 92.6875V97.9153C14.483 98.7866 14.5731 99.3875 14.7233 99.718C14.9036 100.079 15.174 100.229 15.5646 100.229C16.1655 100.229 16.6161 99.8982 16.9466 99.1772C17.2771 98.4861 17.4574 97.3444 17.4574 95.722C17.4574 93.7992 16.8865 92.2969 15.8049 91.2153C14.6933 90.1638 13.0709 89.623 10.9077 89.623C9.40542 89.623 8.14355 89.9234 7.0319 90.5844C5.95029 91.2153 5.13909 92.0866 4.56824 93.2584C3.9974 94.4001 3.69695 95.692 3.69695 97.1942C3.69695 98.6964 3.9974 100.018 4.5382 101.16C5.10905 102.272 5.92025 103.143 7.00186 103.744C8.08346 104.345 9.37538 104.645 10.9377 104.645C11.6287 104.645 12.3498 104.585 13.0709 104.465C13.7919 104.315 14.4529 104.135 15.0238 103.924L15.7749 106.027C14.1825 106.628 12.5902 106.899 10.9077 106.899C8.92471 106.899 7.18212 106.508 5.67989 105.727C4.17766 104.916 3.00592 103.804 2.19472 102.332C1.35347 100.86 0.962891 99.1471 0.962891 97.2243C0.962891 95.3315 1.38352 93.679 2.22476 92.1768C3.06601 90.6745 4.2678 89.5028 5.77003 88.6615C7.3023 87.8203 8.9848 87.3696 10.9077 87.3696C12.8005 87.3696 14.483 87.7602 15.865 88.5414C17.2771 89.2925 18.3587 90.314 19.0798 91.5759C19.8309 92.8377 20.1914 94.1898 20.1914 95.6619C20.1914 96.9238 20.0112 98.0355 19.6506 99.0269C19.2901 99.9884 18.7493 100.77 18.0883 101.34C17.3973 101.911 16.6161 102.182 15.6847 102.182C14.9036 102.182 14.3027 101.971 13.822 101.521C13.3413 101.1 13.0408 100.619 12.9206 100.018C12.6502 100.649 12.2597 101.16 11.7489 101.521C11.2381 101.911 10.6373 102.091 9.88614 102.091C8.65431 102.091 7.72293 101.671 7.06194 100.8C6.43101 99.9583 6.10052 98.8166 6.10052 97.4045C6.10052 95.6319 6.55119 94.2799 7.39244 93.2584C8.23368 92.2669 9.43547 91.7561 10.9377 91.7561ZM10.2767 100.169C11.0278 100.169 11.5987 99.748 11.9292 98.9068V93.9194C11.5686 93.7391 11.2081 93.679 10.8476 93.679C10.1866 93.679 9.67582 93.9794 9.34533 94.5503C8.9848 95.1512 8.83458 96.0826 8.83458 97.4045C8.83458 98.396 8.92471 99.087 9.16507 99.5377C9.40542 99.9583 9.76596 100.169 10.2767 100.169Z" fill="#195AA9"/>
<path fill-rule="evenodd" clip-rule="evenodd" d="M62.223 88.6318H47.0505C46.5398 88.6318 46.1191 89.0525 46.1191 89.5632V104.736C46.1191 105.247 46.5398 105.667 47.0505 105.667H55.1926V99.1474H52.9393V96.5336H55.1926V94.6408C55.1926 92.4175 56.5446 91.1856 58.5275 91.1856C59.4589 91.1856 60.2701 91.2758 60.5105 91.3058V93.6192H59.1585C58.0769 93.6192 57.8666 94.13 57.8666 94.8811V96.5336H60.4504L60.1199 99.1474H57.8666V105.667H62.223C62.7338 105.667 63.1544 105.247 63.1544 104.736V89.5632C63.1544 89.0525 62.7338 88.6318 62.223 88.6318Z" fill="#195AA9"/>
<path d="M33.6035 86.7988H32.6904V107.668H33.6035V86.7988Z" fill="#8CACD5"/>
<path d="M76.5966 86.7988H75.6836V107.668H76.5966V86.7988Z" fill="#8CACD5"/>
<path d="M36.6579 60.9907C37.2587 60.9907 37.7395 61.0809 38.1601 61.2311C38.5807 61.4113 38.9713 61.6517 39.3619 62.0122L38.7009 62.7333C38.3704 62.493 38.07 62.2826 37.7395 62.1625C37.409 62.0423 37.0785 61.9822 36.7179 61.9822C36.2673 61.9822 35.8767 62.0723 35.5762 62.2826C35.2758 62.523 35.1256 62.8234 35.1256 63.214C35.1256 63.4844 35.1857 63.6947 35.2758 63.875C35.396 64.0553 35.5762 64.2055 35.8466 64.3557C36.117 64.4759 36.5377 64.6261 37.0484 64.8064C37.6193 64.9867 38.07 65.1669 38.4305 65.3472C38.791 65.5575 39.0915 65.8279 39.3018 66.1584C39.5421 66.4889 39.6623 66.9396 39.6623 67.4503C39.6623 67.9611 39.5421 68.4117 39.2717 68.8023C39.0314 69.1929 38.6708 69.4933 38.1901 69.7337C37.7395 69.944 37.1686 70.0642 36.5377 70.0642C35.3058 70.0642 34.3144 69.6736 33.5332 68.9225L34.2242 68.1714C34.5547 68.4718 34.9153 68.6821 35.2758 68.8324C35.6664 68.9826 36.057 69.0727 36.5076 69.0727C37.0484 69.0727 37.4991 68.9225 37.8596 68.6521C38.2202 68.3817 38.4004 68.0212 38.4004 67.5104C38.4004 67.21 38.3404 66.9696 38.2202 66.7893C38.13 66.579 37.9197 66.4288 37.6493 66.2786C37.409 66.0983 37.0184 65.9481 36.5076 65.7979C35.6063 65.5275 34.9453 65.197 34.5247 64.8364C34.1041 64.4459 33.8937 63.9351 33.8937 63.2741C33.8937 62.8234 34.0139 62.4329 34.2543 62.1024C34.4946 61.7418 34.8251 61.4714 35.2458 61.2912C35.6664 61.0809 36.117 60.9907 36.6579 60.9907Z" fill="white"/>
<path d="M42.5439 63.2136V69.9135H41.3722V63.2136H42.5439ZM41.943 59.9688C42.1834 59.9688 42.3937 60.0589 42.5439 60.2091C42.6941 60.3593 42.7542 60.5396 42.7542 60.78C42.7542 61.0203 42.6941 61.2006 42.5439 61.3508C42.3937 61.501 42.1834 61.5611 41.943 61.5611C41.7027 61.5611 41.4924 61.501 41.3421 61.3508C41.1919 61.2006 41.1318 61.0203 41.1318 60.78C41.1318 60.5396 41.1919 60.3593 41.3421 60.2091C41.4924 60.0589 41.7027 59.9688 41.943 59.9688Z" fill="white"/>
<path d="M50.3545 63.5145C50.1142 63.6046 49.8137 63.6346 49.5133 63.6647C49.2128 63.6947 48.8523 63.6947 48.4016 63.6947C49.1828 64.0553 49.5734 64.6261 49.5734 65.4073C49.5734 66.0682 49.3631 66.609 48.8823 67.0297C48.4317 67.4503 47.8007 67.6907 47.0196 67.6907C46.7191 67.6907 46.4487 67.6306 46.1783 67.5404C46.0581 67.6306 45.9981 67.7207 45.938 67.8108C45.8779 67.931 45.8478 68.0512 45.8478 68.1714C45.8478 68.5319 46.1483 68.7122 46.7191 68.7122H47.8007C48.2514 68.7122 48.642 68.8023 48.9725 68.9525C49.333 69.1328 49.6034 69.3431 49.7837 69.6135C49.994 69.914 50.0841 70.2144 50.0841 70.5749C50.0841 71.2359 49.8137 71.7467 49.2729 72.0772C48.7321 72.4377 47.951 72.618 46.9294 72.618C46.2084 72.618 45.6375 72.5278 45.2169 72.3776C44.7963 72.2274 44.4958 72.0171 44.3156 71.7166C44.1653 71.4162 44.0752 71.0556 44.0752 70.5749H45.1268C45.1268 70.8453 45.1568 71.0556 45.277 71.2059C45.3671 71.3861 45.5474 71.5063 45.8178 71.5664C46.0882 71.6565 46.4487 71.6866 46.9294 71.6866C47.6505 71.6866 48.1312 71.5964 48.4317 71.4462C48.7321 71.266 48.8823 70.9956 48.8823 70.6651C48.8823 70.3346 48.7622 70.0942 48.5519 69.944C48.3115 69.7938 47.981 69.7036 47.5604 69.7036H46.4788C45.938 69.7036 45.4873 69.5835 45.1868 69.3431C44.9164 69.1027 44.7662 68.8023 44.7662 68.4418C44.7662 68.2014 44.8263 67.9911 44.9465 67.7808C45.0667 67.6005 45.277 67.4202 45.4873 67.24C45.0967 67.0297 44.8263 66.7893 44.646 66.4889C44.4658 66.1884 44.3756 65.8279 44.3756 65.3772C44.3756 64.9265 44.4658 64.536 44.7061 64.1754C44.9164 63.8149 45.2469 63.5445 45.6375 63.3342C46.0281 63.1539 46.4788 63.0337 46.9595 63.0337C47.4702 63.0638 47.9209 63.0337 48.2815 63.0037C48.642 62.9436 48.9124 62.8835 49.1528 62.7934C49.3931 62.7333 49.6635 62.6131 50.024 62.4629L50.3545 63.5145ZM46.9595 63.875C46.5088 63.875 46.1783 64.0252 45.938 64.2956C45.6976 64.566 45.5774 64.9265 45.5774 65.3772C45.5774 65.8579 45.6976 66.2185 45.938 66.4889C46.1783 66.7593 46.5389 66.9095 46.9895 66.9095C47.4402 66.9095 47.7707 66.7593 48.0111 66.4889C48.2514 66.2185 48.4016 65.8579 48.4016 65.3772C48.4016 64.3857 47.9209 63.875 46.9595 63.875Z" fill="white"/>
<path d="M54.7123 63.0337C55.3432 63.0337 55.824 63.244 56.1545 63.6045C56.4849 63.9651 56.6652 64.4458 56.6652 65.1068V69.9139H55.4935V65.257C55.4935 64.7763 55.4033 64.4458 55.2231 64.2655C55.0428 64.0552 54.8024 63.9651 54.4419 63.9651C54.0814 63.9651 53.7809 64.0552 53.5105 64.2655C53.2401 64.4758 52.9697 64.7763 52.7294 65.1368V69.9139H51.5576V63.214H52.5791L52.6693 64.2054C52.9096 63.8449 53.2101 63.5444 53.5706 63.3642C53.9011 63.1539 54.2917 63.0337 54.7123 63.0337Z" fill="white"/>
<path d="M68.4746 67.0899C68.4746 67.6908 68.3244 68.2016 68.084 68.6222C67.8436 69.0729 67.5131 69.4334 67.0324 69.6738C66.5818 69.9442 66.041 70.0644 65.38 70.0644C64.4186 70.0644 63.6674 69.794 63.1266 69.2532C62.5858 68.7124 62.3154 67.9913 62.3154 67.0899V61.1411H63.5473V66.9998C63.5473 67.6908 63.6975 68.2016 63.9979 68.5321C64.2984 68.8626 64.749 69.0428 65.38 69.0428C66.0109 69.0428 66.4616 68.8626 66.7921 68.5321C67.0925 68.2016 67.2427 67.6908 67.2427 66.9998V61.1411H68.4746V67.0899Z" fill="white"/>
<path d="M73.88 63.0337C74.7513 63.0337 75.3822 63.3642 75.7728 63.9651C76.1634 64.566 76.3737 65.4373 76.3737 66.5489C76.3737 67.6005 76.1333 68.4417 75.6827 69.1027C75.232 69.7336 74.571 70.0641 73.7298 70.0641C72.9787 70.0641 72.4078 69.7937 71.9872 69.283V72.4677L70.8154 72.6179V63.214H71.8069L71.897 64.1153C72.1374 63.7548 72.4378 63.5144 72.7984 63.3341C73.1289 63.1238 73.5195 63.0337 73.88 63.0337ZM73.4594 69.1027C74.571 69.1027 75.1118 68.2615 75.1118 66.5489C75.1118 64.8364 74.6011 63.9651 73.6096 63.9651C73.2791 63.9651 72.9787 64.0853 72.6782 64.2655C72.4078 64.4758 72.1975 64.7162 71.9872 65.0166V68.2915C72.1374 68.5619 72.3477 68.7422 72.6181 68.8924C72.8585 69.0426 73.1589 69.1027 73.4594 69.1027Z" fill="white"/>
</svg>
