<svg width="112" height="82" viewBox="0 0 112 82" fill="none" xmlns="http://www.w3.org/2000/svg">
<path d="M66.0254 56.4243H45.3848C45.1027 56.4243 44.874 56.8548 44.874 57.3857V78.4771C44.874 79.0081 45.1027 79.4385 45.3848 79.4385H66.0254C66.3075 79.4385 66.5362 79.0081 66.5362 78.4771V57.3857C66.5362 56.8548 66.3075 56.4243 66.0254 56.4243Z" fill="#195AA9"/>
<path fill-rule="evenodd" clip-rule="evenodd" d="M2.84074 0.30127H53.7964V36.2346L42.3795 24.6374L39.7956 27.2513L55.6292 43.3853L71.4627 27.2513L68.8788 24.6374L57.4619 36.2346V0.30127H108.598C110.1 0.30127 111.302 1.5331 111.302 3.06538V63.6654C111.302 65.1676 110.1 66.3995 108.598 66.3995H2.84074C1.3385 66.3995 0.136719 65.1676 0.136719 63.6654V3.06538C0.136719 1.5331 1.3385 0.30127 2.84074 0.30127ZM32.9755 11.0572H44.4826V14.0617H34.4777V46.6301H76.9909V14.0617H66.956V11.0572H79.9954V49.6345H31.4733V11.0572H32.9755Z" fill="#195AA9"/>
<path fill-rule="evenodd" clip-rule="evenodd" d="M18.7045 77.666H92.7344C94.2066 77.666 95.3784 78.8678 95.3784 80.3099V81.692H16.0605V80.3099C16.0605 78.8678 17.2323 77.666 18.7045 77.666Z" fill="#195AA9"/>
<path d="M55.7201 61.8929C56.9646 61.8929 57.9735 60.8841 57.9735 59.6396C57.9735 58.3951 56.9646 57.3862 55.7201 57.3862C54.4757 57.3862 53.4668 58.3951 53.4668 59.6396C53.4668 60.8841 54.4757 61.8929 55.7201 61.8929Z" fill="white"/>
</svg>
