<svg width="114" height="74" viewBox="0 0 114 74" fill="none" xmlns="http://www.w3.org/2000/svg">
<path d="M113.653 0.30127H0.985352V73.3097H113.653V0.30127Z" fill="#DCE6F2"/>
<path d="M113.653 0.30127H0.985352V7.90256H113.653V0.30127Z" fill="#195AA9"/>
<path fill-rule="evenodd" clip-rule="evenodd" d="M15.824 38.6983C19.0087 33.11 37.9368 31.6378 42.4435 35.6037C44.5767 37.4665 46.5596 53.5403 47.2807 53.9309C48.4224 54.5618 50.4053 60.8111 49.7143 63.6654L16.6953 64.8371C11.9783 57.0555 11.7379 45.7888 15.824 38.6983Z" fill="#195AA9"/>
<path fill-rule="evenodd" clip-rule="evenodd" d="M24.2701 32.5088L29.5579 30.5259L33.9144 31.7577C34.6054 31.968 35.0561 32.5689 35.0861 33.29L35.1462 50.8961L23.549 34.9124C23.2486 34.4918 23.1584 34.0111 23.3087 33.5303C23.4589 33.0496 23.7894 32.6891 24.2701 32.5088Z" fill="#8CACD5"/>
<path d="M74.1439 38.2178H63.2677C62.3363 38.2178 61.6152 38.9689 61.6152 39.8702V50.7464C61.6152 51.6477 62.3363 52.3688 63.2677 52.3688H74.1439C75.0452 52.3688 75.7663 51.6477 75.7663 50.7464V39.8702C75.7663 38.9689 75.0452 38.2178 74.1439 38.2178Z" fill="#195AA9"/>
<path d="M78.8907 38.2178H89.7369C90.6683 38.2178 91.3893 38.9689 91.3893 39.8702V50.7464C91.3893 51.6477 90.6683 52.3688 89.7369 52.3688H78.8907C77.9594 52.3688 77.2383 51.6477 77.2383 50.7464V39.8702C77.2383 38.9689 77.9594 38.2178 78.8907 38.2178Z" fill="white"/>
<path d="M105.358 38.2178H94.4818C93.5804 38.2178 92.8594 38.9689 92.8594 39.8702V50.7464C92.8594 51.6477 93.5804 52.3688 94.4818 52.3688H105.358C106.259 52.3688 107.01 51.6477 107.01 50.7464V39.8702C107.01 38.9689 106.259 38.2178 105.358 38.2178Z" fill="#195AA9"/>
<path d="M78.8907 36.7453H89.7369C90.6683 36.7453 91.3893 36.0242 91.3893 35.1228V24.2467C91.3893 23.3454 90.6683 22.5942 89.7369 22.5942H78.8907C77.9594 22.5942 77.2383 23.3454 77.2383 24.2467V35.1228C77.2383 36.0242 77.9594 36.7453 78.8907 36.7453Z" fill="white"/>
<path fill-rule="evenodd" clip-rule="evenodd" d="M81.6826 30.6767L84.2965 26.9512L86.9404 30.6467L81.6826 30.6767Z" fill="#8CACD5"/>
<path fill-rule="evenodd" clip-rule="evenodd" d="M81.6826 44.3164L84.2965 48.042L86.9404 44.3164H81.6826Z" fill="#8CACD5"/>
<path fill-rule="evenodd" clip-rule="evenodd" d="M98.96 47.9219L102.655 45.308L98.96 42.6641V47.9219Z" fill="white"/>
<path fill-rule="evenodd" clip-rule="evenodd" d="M69.6652 47.9219L65.9697 45.308L69.6652 42.6641V47.9219Z" fill="white"/>
<path fill-rule="evenodd" clip-rule="evenodd" d="M43.858 24.9679L37.4585 30.0755L47.9741 26.4101C50.4377 27.041 53.2319 27.3415 56.1763 27.2814C66.9322 27.011 75.8555 21.6931 76.0958 15.4138C76.3061 9.13443 67.8035 4.2672 57.0476 4.5376C46.2916 4.808 37.3684 10.0959 37.128 16.3752C37.0078 19.8904 39.6217 22.985 43.858 24.9679Z" fill="white"/>
<path d="M68.1954 10.9971H45.5117V12.7697H68.1954V10.9971Z" fill="#195AA9"/>
<path d="M70.9272 14.5728H42.7754V16.3454H70.9272V14.5728Z" fill="#195AA9"/>
<path d="M64.8893 18.1479H48.8154V19.9206H64.8893V18.1479Z" fill="#195AA9"/>
<path fill-rule="evenodd" clip-rule="evenodd" d="M19.5239 22.7145L20.3351 22.4741L21.8373 27.3714L21.0261 27.6418C19.6741 28.0624 18.2319 27.2813 17.8113 25.9292C17.3907 24.5772 18.1719 23.1351 19.5239 22.7145Z" fill="white"/>
<path fill-rule="evenodd" clip-rule="evenodd" d="M19.7631 23.7959C18.6214 20.1004 20.7245 16.1646 24.42 15.0229H24.45L25.6218 14.6624C28.7765 13.7009 32.2917 15.0529 33.9141 17.9072L34.4248 19.4695C34.6351 20.1305 36.558 26.4699 36.558 26.4699C37.6997 30.1954 35.6266 34.1012 31.9011 35.2429L30.7294 35.6035C27.0339 36.7452 23.098 34.6721 21.9563 30.9766C21.9563 30.9465 21.9563 30.9465 21.9563 30.9465L21.8963 30.8264C21.716 30.1654 19.7631 23.7959 19.7631 23.7959Z" fill="white"/>
<path d="M31.7525 22.6544C31.1816 22.8347 30.5507 22.5042 30.3704 21.9333C30.1901 21.3324 30.5206 20.7315 31.1216 20.5513C31.6924 20.371 32.3234 20.7015 32.5036 21.2723C32.6839 21.8732 32.3534 22.4741 31.7525 22.6544Z" fill="#195AA9"/>
<path d="M25.2007 24.6676C24.6299 24.8478 23.9989 24.5174 23.8187 23.9165C23.6384 23.3456 23.9689 22.7147 24.5698 22.5645C25.1406 22.3842 25.7415 22.7147 25.9218 23.2855C26.1021 23.8564 25.7716 24.4873 25.2007 24.6676Z" fill="#195AA9"/>
<path fill-rule="evenodd" clip-rule="evenodd" d="M20.9954 18.2679L20.094 15.2935C18.8321 17.1863 18.4716 19.5598 19.1326 21.723L19.5532 23.045C20.9353 21.9033 21.5062 20.0105 20.9954 18.2679Z" fill="#195AA9"/>
<path fill-rule="evenodd" clip-rule="evenodd" d="M34.1526 18.5986L33.2813 18.5085C31.7491 17.8775 30.8778 17.4269 30.2769 15.4139L20.3321 18.4784C18.86 18.8991 17.2977 18.0879 16.847 16.6157L16.2461 14.6327L19.7613 14.2722L27.7231 11.8386C29.9464 11.1776 32.2598 12.4094 32.9208 14.6027L34.1526 18.5986Z" fill="#195AA9"/>
<path fill-rule="evenodd" clip-rule="evenodd" d="M23.2772 28.7836C23.9081 29.2042 24.7794 29.054 25.2301 28.4231C26.8826 26.1998 29.7969 25.2984 32.4108 26.2298C33.1318 26.5002 33.9431 26.1397 34.2435 25.4186L35.4152 22.7446C35.9861 24.5774 36.5569 26.5002 36.5569 26.5002C37.6986 30.1957 35.5955 34.1015 31.9 35.2432L30.6982 35.6037C27.0027 36.7454 23.0969 34.6423 21.9552 30.9468L21.8951 30.8266C21.805 30.4661 21.2342 28.5733 20.6934 26.8307L23.2772 28.7836Z" fill="#195AA9"/>
<path fill-rule="evenodd" clip-rule="evenodd" d="M31.6015 29.1441L31.3611 28.6333C31.271 28.423 31.0306 28.3329 30.7903 28.423C29.9791 28.7535 28.8975 28.9037 27.8159 28.7835C27.5755 28.7535 27.3652 28.9037 27.3352 29.1441L27.245 29.6548C27.215 29.8952 27.3652 30.1355 27.6056 30.1656C29.0477 30.436 30.3095 30.2858 31.3911 29.7149C31.6315 29.5947 31.6916 29.3544 31.6015 29.1441Z" fill="#8CACD5"/>
<path d="M29.077 26.0493L27.3645 22.2036C27.2142 21.8731 27.3645 21.4525 27.725 21.3023C28.0555 21.122 28.4761 21.3023 28.6264 21.6328L30.3389 25.4785C30.4891 25.839 30.3389 26.2296 30.0084 26.4099C29.6479 26.5601 29.2272 26.4099 29.077 26.0493Z" fill="#8CACD5"/>
<path d="M5.49117 5.85975C6.48677 5.85975 7.29387 5.05266 7.29387 4.05707C7.29387 3.06148 6.48677 2.25439 5.49117 2.25439C4.49557 2.25439 3.68848 3.06148 3.68848 4.05707C3.68848 5.05266 4.49557 5.85975 5.49117 5.85975Z" fill="white"/>
<path d="M11.5009 5.85975C12.4965 5.85975 13.3036 5.05266 13.3036 4.05707C13.3036 3.06148 12.4965 2.25439 11.5009 2.25439C10.5053 2.25439 9.69824 3.06148 9.69824 4.05707C9.69824 5.05266 10.5053 5.85975 11.5009 5.85975Z" fill="white"/>
<path d="M17.5097 5.85975C18.5053 5.85975 19.3124 5.05266 19.3124 4.05707C19.3124 3.06148 18.5053 2.25439 17.5097 2.25439C16.5141 2.25439 15.707 3.06148 15.707 4.05707C15.707 5.05266 16.5141 5.85975 17.5097 5.85975Z" fill="white"/>
<path d="M113.652 58.7383H0.984375V73.3099H113.652V58.7383Z" fill="#8CACD5"/>
<path d="M80.0019 61.7427H34.6045V63.4252H80.0019V61.7427Z" fill="white"/>
<path d="M83.2775 65.1074H31.3604V66.7899H83.2775V65.1074Z" fill="white"/>
<path d="M69.7876 68.5024H44.8506V70.1849H69.7876V68.5024Z" fill="white"/>
</svg>
