<svg width="110" height="110" viewBox="0 0 110 110" fill="none" xmlns="http://www.w3.org/2000/svg">
<path d="M75.0727 89.9119C94.2044 78.8662 100.759 54.4026 89.7137 35.2709C78.668 16.1392 54.2044 9.58419 35.0727 20.6299C15.941 31.6756 9.38595 56.1392 20.4316 75.2709C31.4773 94.4026 55.941 100.958 75.0727 89.9119Z" fill="#3CAFFF"/>
<path fill-rule="evenodd" clip-rule="evenodd" d="M23.0672 79.2704C22.1215 78.0059 21.2404 76.672 20.4313 75.2705C19.4458 73.5638 18.6004 71.8144 17.8916 70.036C18.9794 69.4031 20.5671 68.4844 22.7856 67.2036C23.37 66.8663 24.5387 66.1876 25.3828 65.6954C26.2268 65.2033 27.794 64.2925 28.8653 63.6715L30.0139 63.0053C29.9692 62.8986 29.9255 62.7931 29.883 62.6889C28.8012 59.796 28.2309 56.1708 28.342 52.8909C28.4697 49.126 29.1677 46.1953 30.7187 42.9124C32.9009 38.2933 35.9557 34.7961 40.3402 31.8974C43.917 29.5325 47.8343 27.9538 51.3229 27.4709C52.884 27.2548 56.1045 27.2536 57.7212 27.4685C61.995 28.0368 66.1599 30.0254 69.9975 33.3304C70.667 33.9069 71.5532 34.7484 71.967 35.2005C73.8557 37.2641 76.0358 40.3155 76.8824 42.0808C77.6622 43.7066 77.6633 45.3518 76.8853 46.9513C76.2875 48.1801 75.4525 48.9373 73.3395 50.1654C72.3657 50.7316 70.5063 51.8111 69.2078 52.5644C63.1327 56.0883 62.0758 56.702 59.6455 58.1161C55.4865 60.5365 49.3283 64.111 48.4305 64.6258C47.976 64.8864 47.1079 65.3923 46.5013 65.7501L45.3984 66.4006L45.852 66.8709C46.9399 67.999 48.9233 69.24 50.7378 69.928C52.8628 70.7338 53.4332 70.8285 56.163 70.8285C58.4209 70.8285 58.6662 70.8066 59.8227 70.5029C61.3529 70.101 62.513 69.6561 64.0274 68.8905C67.4735 67.1483 69.9988 64.4924 72.0303 60.4731C72.5889 59.368 72.8385 59.0155 73.5229 58.3659C75.1867 56.7865 77.0565 56.2231 79.0588 56.698C82.3929 57.4889 84.1388 60.3321 83.1434 63.3496C81.5963 68.0395 76.6602 74.0498 71.6278 77.3713C70.4123 78.1735 67.8012 79.5261 66.1974 80.1842C60.5974 82.4825 54.7894 82.9338 49.144 81.5093C46.8828 80.9388 44.2938 79.8726 42.3973 78.7313C39.7698 77.1499 36.8462 74.5449 35.1545 72.2781L35.1429 72.2624L35.063 72.3089C30.904 74.7293 24.7458 78.3038 23.8481 78.8185C23.6485 78.9329 23.3692 79.0946 23.0672 79.2704ZM61.1797 41.0706C59.6573 40.037 58.0852 39.3454 56.222 38.8898C53.5367 38.2331 50.4867 38.8196 47.4778 40.5711C43.4779 42.8998 41.1782 45.7258 40.1595 49.5646C39.7373 51.1555 39.6262 54.0836 39.9229 55.8003C40.129 56.9931 40.2355 57.2243 40.4867 57.0233C40.6173 56.9185 42.4303 55.8615 47.3682 53.011C47.9524 52.6736 49.1212 51.9949 49.9653 51.5026C50.8093 51.0105 52.3764 50.0998 53.4478 49.4788C54.5192 48.8579 56.2988 47.8245 57.4025 47.1824C58.5063 46.5404 60.3657 45.4605 61.5344 44.783C62.703 44.1053 63.7019 43.5085 63.754 43.457C63.8844 43.3278 62.1884 41.7556 61.1797 41.0706Z" fill="white"/>
</svg>
