<svg width="516" height="204" viewBox="0 0 516 204" fill="none" xmlns="http://www.w3.org/2000/svg">
<rect width="516" height="204" rx="13" fill="#2F2F2F"/>
<rect x="40" y="31" width="30" height="30" rx="6" fill="#4C4C4C"/>
<rect x="72.5" y="31" width="30" height="30" rx="6" fill="#4C4C4C"/>
<rect x="137.5" y="31" width="30" height="30" rx="6" fill="#40A9FF"/>
<rect x="105" y="31" width="30" height="30" rx="6" fill="#4C4C4C"/>
<rect x="170" y="31" width="30" height="30" rx="6" fill="#4C4C4C"/>
<rect x="202.5" y="31" width="30" height="30" rx="6" fill="#4C4C4C"/>
<rect x="235" y="31" width="30" height="30" rx="6" fill="#4C4C4C"/>
<rect x="267.5" y="31" width="30" height="30" rx="6" fill="#4C4C4C"/>
<rect x="300" y="31" width="30" height="30" rx="6" fill="#4C4C4C"/>
<rect x="365" y="31" width="30" height="30" rx="6" fill="#4C4C4C"/>
<rect x="332.5" y="31" width="30" height="30" rx="6" fill="#696969"/>
<rect x="460" y="97" width="30" height="30" rx="6" fill="#696969"/>
<rect x="40.5" y="97" width="30" height="30" rx="6" fill="#4C4C4C"/>
<rect x="73" y="97" width="30" height="30" rx="6" fill="#4C4C4C"/>
<rect x="105.5" y="97" width="30" height="30" rx="6" fill="#4C4C4C"/>
<rect x="138" y="97" width="30" height="30" rx="6" fill="#4C4C4C"/>
<rect x="170.5" y="97" width="30" height="30" rx="6" fill="#4C4C4C"/>
<rect x="203" y="97" width="30" height="30" rx="6" fill="#4C4C4C"/>
<rect x="235.5" y="97" width="30" height="30" rx="6" fill="#696969"/>
<rect x="268" y="97" width="30" height="30" rx="6" fill="#4C4C4C"/>
<rect x="300.5" y="97" width="30" height="30" rx="6" fill="#4C4C4C"/>
<rect x="333" y="97" width="30" height="30" rx="6" fill="#4C4C4C"/>
<rect x="395" y="97" width="30" height="30" rx="6" fill="#696969"/>
<rect x="427.5" y="97" width="30" height="30" rx="6" fill="#40A9FF"/>
<rect x="25" y="64" width="30" height="30" rx="6" fill="#4C4C4C"/>
<rect x="57.5" y="64" width="30" height="30" rx="6" fill="#696969"/>
<rect x="90" y="64" width="30" height="30" rx="6" fill="#4C4C4C"/>
<rect x="122.5" y="64" width="30" height="30" rx="6" fill="#4C4C4C"/>
<rect x="155" y="64" width="30" height="30" rx="6" fill="#4C4C4C"/>
<rect x="187.5" y="64" width="30" height="30" rx="6" fill="#4C4C4C"/>
<rect x="220" y="64" width="30" height="30" rx="6" fill="#4C4C4C"/>
<rect x="252.5" y="64" width="30" height="30" rx="6" fill="#4C4C4C"/>
<rect x="285" y="64" width="30" height="30" rx="6" fill="#4C4C4C"/>
<rect x="317.5" y="64" width="30" height="30" rx="6" fill="#4C4C4C"/>
<rect x="350" y="64" width="30" height="30" rx="6" fill="#4C4C4C"/>
<rect x="427.5" y="64" width="30" height="30" rx="6" fill="#696969"/>
<path d="M152 60.75V103V167.5" stroke="#40A9FF" stroke-width="2"/>
<path d="M274 167L151 167" stroke="#40A9FF" stroke-width="2"/>
<path d="M443 126L443 167L301 167" stroke="#40A9FF" stroke-width="2"/>
<path d="M149.055 40.4707H152.443C154.26 40.4707 155.354 41.4766 155.354 43.166C155.354 44.8945 154.328 45.8613 152.521 45.8613H149.055V40.4707ZM149.055 47.4238H152.521L155.539 53H157.6L154.338 47.1504C156.105 46.5938 157.17 45.0703 157.17 43.1074C157.17 40.5684 155.393 38.9082 152.678 38.9082H147.297V53H149.055V47.4238Z" fill="white"/>
<path d="M342.797 39.9082V54H344.555V48.9707H348.1C350.746 48.9707 352.631 47.1055 352.631 44.4688C352.631 41.7832 350.785 39.9082 348.119 39.9082H342.797ZM344.555 41.4707H347.66C349.701 41.4707 350.824 42.5352 350.824 44.4688C350.824 46.334 349.662 47.4082 347.66 47.4082H344.555V41.4707Z" fill="#B9B9B9"/>
<path d="M246.535 119V108.072H246.691L254.338 119H256.047V104.908H254.309V115.875H254.152L246.506 104.908H244.797V119H246.535Z" fill="#B9B9B9"/>
<path d="M67.123 82.3184C67.3086 84.75 69.3691 86.332 72.3574 86.332C75.5801 86.332 77.6211 84.6816 77.6211 82.0938C77.6211 80.0234 76.4492 78.8906 73.5293 78.1582L72.0547 77.7676C70.1113 77.2695 69.3398 76.6348 69.3398 75.5312C69.3398 74.1055 70.5801 73.168 72.4551 73.168C74.2129 73.168 75.4043 74.0273 75.6484 75.4727H77.416C77.2695 73.1973 75.2383 71.5762 72.5137 71.5762C69.5352 71.5762 67.5332 73.1973 67.5332 75.5898C67.5332 77.5918 68.6367 78.7441 71.1855 79.3887L72.9922 79.8574C74.9355 80.3457 75.8145 81.1074 75.8145 82.3086C75.8145 83.7051 74.418 84.7305 72.5234 84.7305C70.5215 84.7305 69.1152 83.793 68.9004 82.3184H67.123Z" fill="#B9B9B9"/>
<path d="M468.584 112.5H481.417" stroke="#B9B9B9" stroke-width="2" stroke-linecap="round" stroke-linejoin="round"/>
<path d="M475 118.917L481.417 112.5L475 106.083" stroke="#B9B9B9" stroke-width="2" stroke-linecap="round" stroke-linejoin="round"/>
<path d="M416.416 112.5H403.583" stroke="#B9B9B9" stroke-width="2" stroke-linecap="round" stroke-linejoin="round"/>
<path d="M410 118.917L403.583 112.5L410 106.083" stroke="#B9B9B9" stroke-width="2" stroke-linecap="round" stroke-linejoin="round"/>
<path d="M442.5 106.083V118.917" stroke="white" stroke-width="2" stroke-linecap="round" stroke-linejoin="round"/>
<path d="M448.917 112.5L442.5 118.917L436.084 112.5" stroke="white" stroke-width="2" stroke-linecap="round" stroke-linejoin="round"/>
<path d="M442.5 85.4167V72.5833" stroke="#B9B9B9" stroke-width="2" stroke-linecap="round" stroke-linejoin="round"/>
<path d="M436.083 79L442.5 72.5833L448.916 79" stroke="#B9B9B9" stroke-width="2" stroke-linecap="round" stroke-linejoin="round"/>
<path d="M281.848 165.964C281.848 165.188 281.999 164.49 282.302 163.87C282.609 163.25 283.034 162.771 283.576 162.434C284.123 162.097 284.746 161.929 285.444 161.929C286.523 161.929 287.395 162.302 288.059 163.049C288.728 163.796 289.062 164.79 289.062 166.03V166.125C289.062 166.897 288.913 167.59 288.615 168.206C288.322 168.816 287.9 169.292 287.348 169.634C286.801 169.976 286.171 170.146 285.458 170.146C284.384 170.146 283.513 169.773 282.844 169.026C282.18 168.279 281.848 167.29 281.848 166.06V165.964ZM283.21 166.125C283.21 167.004 283.413 167.71 283.818 168.242C284.228 168.774 284.775 169.041 285.458 169.041C286.147 169.041 286.694 168.772 287.099 168.235C287.504 167.693 287.707 166.936 287.707 165.964C287.707 165.095 287.5 164.392 287.084 163.855C286.674 163.313 286.127 163.042 285.444 163.042C284.775 163.042 284.235 163.308 283.825 163.84C283.415 164.373 283.21 165.134 283.21 166.125ZM294.592 163.291C294.387 163.257 294.165 163.24 293.925 163.24C293.037 163.24 292.434 163.618 292.116 164.375V170H290.761V162.075H292.08L292.102 162.991C292.546 162.283 293.176 161.929 293.991 161.929C294.255 161.929 294.455 161.963 294.592 162.031V163.291Z" fill="white"/>
<path d="M217.143 17.5488H215.139V21H214.008V12.4688H216.832C217.793 12.4688 218.531 12.6875 219.047 13.125C219.566 13.5625 219.826 14.1992 219.826 15.0352C219.826 15.5664 219.682 16.0293 219.393 16.4238C219.107 16.8184 218.709 17.1133 218.197 17.3086L220.201 20.9297V21H218.994L217.143 17.5488ZM215.139 16.6289H216.867C217.426 16.6289 217.869 16.4844 218.197 16.1953C218.529 15.9062 218.695 15.5195 218.695 15.0352C218.695 14.5078 218.537 14.1035 218.221 13.8223C217.908 13.541 217.455 13.3984 216.861 13.3945H215.139V16.6289ZM223.869 21.1172C223.01 21.1172 222.311 20.8359 221.771 20.2734C221.232 19.707 220.963 18.9512 220.963 18.0059V17.8066C220.963 17.1777 221.082 16.6172 221.32 16.125C221.562 15.6289 221.898 15.2422 222.328 14.9648C222.762 14.6836 223.23 14.543 223.734 14.543C224.559 14.543 225.199 14.8145 225.656 15.3574C226.113 15.9004 226.342 16.6777 226.342 17.6895V18.1406H222.047C222.062 18.7656 222.244 19.2715 222.592 19.6582C222.943 20.041 223.389 20.2324 223.928 20.2324C224.311 20.2324 224.635 20.1543 224.9 19.998C225.166 19.8418 225.398 19.6348 225.598 19.377L226.26 19.8926C225.729 20.709 224.932 21.1172 223.869 21.1172ZM223.734 15.4336C223.297 15.4336 222.93 15.5938 222.633 15.9141C222.336 16.2305 222.152 16.6758 222.082 17.25H225.258V17.168C225.227 16.6172 225.078 16.1914 224.812 15.8906C224.547 15.5859 224.188 15.4336 223.734 15.4336ZM232.957 17.9004C232.957 18.8652 232.736 19.6426 232.295 20.2324C231.854 20.8223 231.256 21.1172 230.502 21.1172C229.732 21.1172 229.127 20.873 228.686 20.3848V23.4375H227.602V14.6602H228.592L228.645 15.3633C229.086 14.8164 229.699 14.543 230.484 14.543C231.246 14.543 231.848 14.8301 232.289 15.4043C232.734 15.9785 232.957 16.7773 232.957 17.8008V17.9004ZM231.873 17.7773C231.873 17.0625 231.721 16.498 231.416 16.084C231.111 15.6699 230.693 15.4629 230.162 15.4629C229.506 15.4629 229.014 15.7539 228.686 16.3359V19.3652C229.01 19.9434 229.506 20.2324 230.174 20.2324C230.693 20.2324 231.105 20.0273 231.41 19.6172C231.719 19.2031 231.873 18.5898 231.873 17.7773ZM236.971 21.1172C236.111 21.1172 235.412 20.8359 234.873 20.2734C234.334 19.707 234.064 18.9512 234.064 18.0059V17.8066C234.064 17.1777 234.184 16.6172 234.422 16.125C234.664 15.6289 235 15.2422 235.43 14.9648C235.863 14.6836 236.332 14.543 236.836 14.543C237.66 14.543 238.301 14.8145 238.758 15.3574C239.215 15.9004 239.443 16.6777 239.443 17.6895V18.1406H235.148C235.164 18.7656 235.346 19.2715 235.693 19.6582C236.045 20.041 236.49 20.2324 237.029 20.2324C237.412 20.2324 237.736 20.1543 238.002 19.998C238.268 19.8418 238.5 19.6348 238.699 19.377L239.361 19.8926C238.83 20.709 238.033 21.1172 236.971 21.1172ZM236.836 15.4336C236.398 15.4336 236.031 15.5938 235.734 15.9141C235.438 16.2305 235.254 16.6758 235.184 17.25H238.359V17.168C238.328 16.6172 238.18 16.1914 237.914 15.8906C237.648 15.5859 237.289 15.4336 236.836 15.4336ZM244.617 21C244.555 20.875 244.504 20.6523 244.465 20.332C243.961 20.8555 243.359 21.1172 242.66 21.1172C242.035 21.1172 241.521 20.9414 241.119 20.5898C240.721 20.2344 240.521 19.7852 240.521 19.2422C240.521 18.582 240.771 18.0703 241.271 17.707C241.775 17.3398 242.482 17.1562 243.393 17.1562H244.447V16.6582C244.447 16.2793 244.334 15.9785 244.107 15.7559C243.881 15.5293 243.547 15.416 243.105 15.416C242.719 15.416 242.395 15.5137 242.133 15.709C241.871 15.9043 241.74 16.1406 241.74 16.418H240.65C240.65 16.1016 240.762 15.7969 240.984 15.5039C241.211 15.207 241.516 14.9727 241.898 14.8008C242.285 14.6289 242.709 14.543 243.17 14.543C243.9 14.543 244.473 14.7266 244.887 15.0938C245.301 15.457 245.516 15.959 245.531 16.5996V19.5176C245.531 20.0996 245.605 20.5625 245.754 20.9062V21H244.617ZM242.818 20.1738C243.158 20.1738 243.48 20.0859 243.785 19.9102C244.09 19.7344 244.311 19.5059 244.447 19.2246V17.9238H243.598C242.27 17.9238 241.605 18.3125 241.605 19.0898C241.605 19.4297 241.719 19.6953 241.945 19.8867C242.172 20.0781 242.463 20.1738 242.818 20.1738ZM248.701 13.125V14.6602H249.885V15.498H248.701V19.4297C248.701 19.6836 248.754 19.875 248.859 20.0039C248.965 20.1289 249.145 20.1914 249.398 20.1914C249.523 20.1914 249.695 20.168 249.914 20.1211V21C249.629 21.0781 249.352 21.1172 249.082 21.1172C248.598 21.1172 248.232 20.9707 247.986 20.6777C247.74 20.3848 247.617 19.9688 247.617 19.4297V15.498H246.463V14.6602H247.617V13.125H248.701ZM256.816 17.1973C255.852 16.9199 255.148 16.5801 254.707 16.1777C254.27 15.7715 254.051 15.2715 254.051 14.6777C254.051 14.0059 254.318 13.4512 254.854 13.0137C255.393 12.5723 256.092 12.3516 256.951 12.3516C257.537 12.3516 258.059 12.4648 258.516 12.6914C258.977 12.918 259.332 13.2305 259.582 13.6289C259.836 14.0273 259.963 14.4629 259.963 14.9355H258.832C258.832 14.4199 258.668 14.0156 258.34 13.7227C258.012 13.4258 257.549 13.2773 256.951 13.2773C256.396 13.2773 255.963 13.4004 255.65 13.6465C255.342 13.8887 255.188 14.2266 255.188 14.6602C255.188 15.0078 255.334 15.3027 255.627 15.5449C255.924 15.7832 256.426 16.002 257.133 16.2012C257.844 16.4004 258.398 16.6211 258.797 16.8633C259.199 17.1016 259.496 17.3809 259.688 17.7012C259.883 18.0215 259.98 18.3984 259.98 18.832C259.98 19.5234 259.711 20.0781 259.172 20.4961C258.633 20.9102 257.912 21.1172 257.01 21.1172C256.424 21.1172 255.877 21.0059 255.369 20.7832C254.861 20.5566 254.469 20.248 254.191 19.8574C253.918 19.4668 253.781 19.0234 253.781 18.5273H254.912C254.912 19.043 255.102 19.4512 255.48 19.752C255.863 20.0488 256.373 20.1973 257.01 20.1973C257.604 20.1973 258.059 20.0762 258.375 19.834C258.691 19.5918 258.85 19.2617 258.85 18.8438C258.85 18.4258 258.703 18.1035 258.41 17.877C258.117 17.6465 257.586 17.4199 256.816 17.1973ZM263.889 21.1172C263.029 21.1172 262.33 20.8359 261.791 20.2734C261.252 19.707 260.982 18.9512 260.982 18.0059V17.8066C260.982 17.1777 261.102 16.6172 261.34 16.125C261.582 15.6289 261.918 15.2422 262.348 14.9648C262.781 14.6836 263.25 14.543 263.754 14.543C264.578 14.543 265.219 14.8145 265.676 15.3574C266.133 15.9004 266.361 16.6777 266.361 17.6895V18.1406H262.066C262.082 18.7656 262.264 19.2715 262.611 19.6582C262.963 20.041 263.408 20.2324 263.947 20.2324C264.33 20.2324 264.654 20.1543 264.92 19.998C265.186 19.8418 265.418 19.6348 265.617 19.377L266.279 19.8926C265.748 20.709 264.951 21.1172 263.889 21.1172ZM263.754 15.4336C263.316 15.4336 262.949 15.5938 262.652 15.9141C262.355 16.2305 262.172 16.6758 262.102 17.25H265.277V17.168C265.246 16.6172 265.098 16.1914 264.832 15.8906C264.566 15.5859 264.207 15.4336 263.754 15.4336ZM268.646 14.6602L268.682 15.457C269.166 14.8477 269.799 14.543 270.58 14.543C271.92 14.543 272.596 15.2988 272.607 16.8105V21H271.523V16.8047C271.52 16.3477 271.414 16.0098 271.207 15.791C271.004 15.5723 270.686 15.4629 270.252 15.4629C269.9 15.4629 269.592 15.5566 269.326 15.7441C269.061 15.9316 268.854 16.1777 268.705 16.4824V21H267.621V14.6602H268.646ZM275.713 13.125V14.6602H276.896V15.498H275.713V19.4297C275.713 19.6836 275.766 19.875 275.871 20.0039C275.977 20.1289 276.156 20.1914 276.41 20.1914C276.535 20.1914 276.707 20.168 276.926 20.1211V21C276.641 21.0781 276.363 21.1172 276.094 21.1172C275.609 21.1172 275.244 20.9707 274.998 20.6777C274.752 20.3848 274.629 19.9688 274.629 19.4297V15.498H273.475V14.6602H274.629V13.125H275.713ZM280.799 21.1172C279.939 21.1172 279.24 20.8359 278.701 20.2734C278.162 19.707 277.893 18.9512 277.893 18.0059V17.8066C277.893 17.1777 278.012 16.6172 278.25 16.125C278.492 15.6289 278.828 15.2422 279.258 14.9648C279.691 14.6836 280.16 14.543 280.664 14.543C281.488 14.543 282.129 14.8145 282.586 15.3574C283.043 15.9004 283.271 16.6777 283.271 17.6895V18.1406H278.977C278.992 18.7656 279.174 19.2715 279.521 19.6582C279.873 20.041 280.318 20.2324 280.857 20.2324C281.24 20.2324 281.564 20.1543 281.83 19.998C282.096 19.8418 282.328 19.6348 282.527 19.377L283.189 19.8926C282.658 20.709 281.861 21.1172 280.799 21.1172ZM280.664 15.4336C280.227 15.4336 279.859 15.5938 279.562 15.9141C279.266 16.2305 279.082 16.6758 279.012 17.25H282.188V17.168C282.156 16.6172 282.008 16.1914 281.742 15.8906C281.477 15.5859 281.117 15.4336 280.664 15.4336ZM285.557 14.6602L285.592 15.457C286.076 14.8477 286.709 14.543 287.49 14.543C288.83 14.543 289.506 15.2988 289.518 16.8105V21H288.434V16.8047C288.43 16.3477 288.324 16.0098 288.117 15.791C287.914 15.5723 287.596 15.4629 287.162 15.4629C286.811 15.4629 286.502 15.5566 286.236 15.7441C285.971 15.9316 285.764 16.1777 285.615 16.4824V21H284.531V14.6602H285.557ZM293.695 20.2324C294.082 20.2324 294.42 20.1152 294.709 19.8809C294.998 19.6465 295.158 19.3535 295.189 19.002H296.215C296.195 19.3652 296.07 19.7109 295.84 20.0391C295.609 20.3672 295.301 20.6289 294.914 20.8242C294.531 21.0195 294.125 21.1172 293.695 21.1172C292.832 21.1172 292.145 20.8301 291.633 20.2559C291.125 19.6777 290.871 18.8887 290.871 17.8887V17.707C290.871 17.0898 290.984 16.541 291.211 16.0605C291.438 15.5801 291.762 15.207 292.184 14.9414C292.609 14.6758 293.111 14.543 293.689 14.543C294.4 14.543 294.99 14.7559 295.459 15.1816C295.932 15.6074 296.184 16.1602 296.215 16.8398H295.189C295.158 16.4297 295.002 16.0938 294.721 15.832C294.443 15.5664 294.1 15.4336 293.689 15.4336C293.139 15.4336 292.711 15.6328 292.406 16.0312C292.105 16.4258 291.955 16.998 291.955 17.748V17.9531C291.955 18.6836 292.105 19.2461 292.406 19.6406C292.707 20.0352 293.137 20.2324 293.695 20.2324ZM300.064 21.1172C299.205 21.1172 298.506 20.8359 297.967 20.2734C297.428 19.707 297.158 18.9512 297.158 18.0059V17.8066C297.158 17.1777 297.277 16.6172 297.516 16.125C297.758 15.6289 298.094 15.2422 298.523 14.9648C298.957 14.6836 299.426 14.543 299.93 14.543C300.754 14.543 301.395 14.8145 301.852 15.3574C302.309 15.9004 302.537 16.6777 302.537 17.6895V18.1406H298.242C298.258 18.7656 298.439 19.2715 298.787 19.6582C299.139 20.041 299.584 20.2324 300.123 20.2324C300.506 20.2324 300.83 20.1543 301.096 19.998C301.361 19.8418 301.594 19.6348 301.793 19.377L302.455 19.8926C301.924 20.709 301.127 21.1172 300.064 21.1172ZM299.93 15.4336C299.492 15.4336 299.125 15.5938 298.828 15.9141C298.531 16.2305 298.348 16.6758 298.277 17.25H301.453V17.168C301.422 16.6172 301.273 16.1914 301.008 15.8906C300.742 15.5859 300.383 15.4336 299.93 15.4336Z" fill="white"/>
</svg>
