<svg width="566" height="254" viewBox="0 0 566 254" fill="none" xmlns="http://www.w3.org/2000/svg">
<path d="M0 13C0 5.82029 5.8203 0 13 0H503C510.18 0 516 5.8203 516 13V191C516 198.18 510.18 204 503 204H13C5.8203 204 0 198.18 0 191V13Z" fill="#2F2F2F"/>
<rect x="40" y="31" width="30" height="30" rx="6" fill="#4C4C4C"/>
<rect x="72.5" y="31" width="30" height="30" rx="6" fill="#4C4C4C"/>
<rect x="137.5" y="31" width="30" height="30" rx="6" fill="#696969"/>
<rect x="105" y="31" width="30" height="30" rx="6" fill="#4C4C4C"/>
<rect x="170" y="31" width="30" height="30" rx="6" fill="#4C4C4C"/>
<rect x="202.5" y="31" width="30" height="30" rx="6" fill="#4C4C4C"/>
<rect x="235" y="31" width="30" height="30" rx="6" fill="#4C4C4C"/>
<rect x="267.5" y="31" width="30" height="30" rx="6" fill="#4C4C4C"/>
<rect x="300" y="31" width="30" height="30" rx="6" fill="#4C4C4C"/>
<rect x="365" y="31" width="30" height="30" rx="6" fill="#4C4C4C"/>
<rect x="332.5" y="31" width="30" height="30" rx="6" fill="#696969"/>
<rect x="460" y="97" width="30" height="30" rx="6" fill="#696969"/>
<rect x="40.5" y="97" width="30" height="30" rx="6" fill="#4C4C4C"/>
<rect x="73" y="97" width="30" height="30" rx="6" fill="#4C4C4C"/>
<rect x="105.5" y="97" width="30" height="30" rx="6" fill="#4C4C4C"/>
<rect x="138" y="97" width="30" height="30" rx="6" fill="#4C4C4C"/>
<rect x="170.5" y="97" width="30" height="30" rx="6" fill="#4C4C4C"/>
<rect x="203" y="97" width="30" height="30" rx="6" fill="#4C4C4C"/>
<rect x="235.5" y="97" width="30" height="30" rx="6" fill="#696969"/>
<rect x="268" y="97" width="30" height="30" rx="6" fill="#4C4C4C"/>
<rect x="300.5" y="97" width="30" height="30" rx="6" fill="#4C4C4C"/>
<rect x="333" y="97" width="30" height="30" rx="6" fill="#4C4C4C"/>
<rect x="395" y="97" width="30" height="30" rx="6" fill="#696969"/>
<rect x="427.5" y="97" width="30" height="30" rx="6" fill="#4C4C4C"/>
<rect x="25" y="64" width="30" height="30" rx="6" fill="#4C4C4C"/>
<rect x="57.5" y="64" width="30" height="30" rx="6" fill="#40A9FF"/>
<rect x="90" y="64" width="30" height="30" rx="6" fill="#4C4C4C"/>
<rect x="122.5" y="64" width="30" height="30" rx="6" fill="#4C4C4C"/>
<rect x="155" y="64" width="30" height="30" rx="6" fill="#4C4C4C"/>
<rect x="187.5" y="64" width="30" height="30" rx="6" fill="#4C4C4C"/>
<rect x="220" y="64" width="30" height="30" rx="6" fill="#4C4C4C"/>
<rect x="252.5" y="64" width="30" height="30" rx="6" fill="#4C4C4C"/>
<rect x="285" y="64" width="30" height="30" rx="6" fill="#4C4C4C"/>
<rect x="317.5" y="64" width="30" height="30" rx="6" fill="#4C4C4C"/>
<rect x="350" y="64" width="30" height="30" rx="6" fill="#4C4C4C"/>
<rect x="427.5" y="64" width="30" height="30" rx="6" fill="#40A9FF"/>
<path d="M72 93L70.9868 170" stroke="#40A9FF" stroke-width="2"/>
<path d="M204 170L70 170" stroke="#40A9FF" stroke-width="2"/>
<path d="M462.389 80L497 80L497 170L359 170" stroke="#40A9FF" stroke-width="2"/>
<path d="M149.055 40.4707H152.443C154.26 40.4707 155.354 41.4766 155.354 43.166C155.354 44.8945 154.328 45.8613 152.521 45.8613H149.055V40.4707ZM149.055 47.4238H152.521L155.539 53H157.6L154.338 47.1504C156.105 46.5938 157.17 45.0703 157.17 43.1074C157.17 40.5684 155.393 38.9082 152.678 38.9082H147.297V53H149.055V47.4238Z" fill="#B9B9B9"/>
<path d="M342.797 39.9082V54H344.555V48.9707H348.1C350.746 48.9707 352.631 47.1055 352.631 44.4688C352.631 41.7832 350.785 39.9082 348.119 39.9082H342.797ZM344.555 41.4707H347.66C349.701 41.4707 350.824 42.5352 350.824 44.4688C350.824 46.334 349.662 47.4082 347.66 47.4082H344.555V41.4707Z" fill="#B9B9B9"/>
<path d="M246.535 119V108.072H246.691L254.338 119H256.047V104.908H254.309V115.875H254.152L246.506 104.908H244.797V119H246.535Z" fill="#B9B9B9"/>
<path d="M67.123 82.3184C67.3086 84.75 69.3691 86.332 72.3574 86.332C75.5801 86.332 77.6211 84.6816 77.6211 82.0938C77.6211 80.0234 76.4492 78.8906 73.5293 78.1582L72.0547 77.7676C70.1113 77.2695 69.3398 76.6348 69.3398 75.5312C69.3398 74.1055 70.5801 73.168 72.4551 73.168C74.2129 73.168 75.4043 74.0273 75.6484 75.4727H77.416C77.2695 73.1973 75.2383 71.5762 72.5137 71.5762C69.5352 71.5762 67.5332 73.1973 67.5332 75.5898C67.5332 77.5918 68.6367 78.7441 71.1855 79.3887L72.9922 79.8574C74.9355 80.3457 75.8145 81.1074 75.8145 82.3086C75.8145 83.7051 74.418 84.7305 72.5234 84.7305C70.5215 84.7305 69.1152 83.793 68.9004 82.3184H67.123Z" fill="white"/>
<path d="M468.584 112.5H481.417" stroke="#B9B9B9" stroke-width="2" stroke-linecap="round" stroke-linejoin="round"/>
<path d="M475 118.917L481.417 112.5L475 106.083" stroke="#B9B9B9" stroke-width="2" stroke-linecap="round" stroke-linejoin="round"/>
<path d="M416.416 112.5H403.583" stroke="#B9B9B9" stroke-width="2" stroke-linecap="round" stroke-linejoin="round"/>
<path d="M410 118.917L403.583 112.5L410 106.083" stroke="#B9B9B9" stroke-width="2" stroke-linecap="round" stroke-linejoin="round"/>
<path d="M442.5 106.083V118.917" stroke="#C4C4C4" stroke-width="2" stroke-linecap="round" stroke-linejoin="round"/>
<path d="M448.917 112.5L442.5 118.917L436.084 112.5" stroke="#C4C4C4" stroke-width="2" stroke-linecap="round" stroke-linejoin="round"/>
<path d="M442.5 85.4167V72.5833" stroke="white" stroke-width="2" stroke-linecap="round" stroke-linejoin="round"/>
<path d="M436.083 79L442.5 72.5833L448.916 79" stroke="white" stroke-width="2" stroke-linecap="round" stroke-linejoin="round"/>
<path d="M266.348 170.964C266.348 170.188 266.499 169.49 266.802 168.87C267.109 168.25 267.534 167.771 268.076 167.434C268.623 167.097 269.246 166.929 269.944 166.929C271.023 166.929 271.895 167.302 272.559 168.049C273.228 168.796 273.562 169.79 273.562 171.03V171.125C273.562 171.897 273.413 172.59 273.115 173.206C272.822 173.816 272.4 174.292 271.848 174.634C271.301 174.976 270.671 175.146 269.958 175.146C268.884 175.146 268.013 174.773 267.344 174.026C266.68 173.279 266.348 172.29 266.348 171.06V170.964ZM267.71 171.125C267.71 172.004 267.913 172.71 268.318 173.242C268.728 173.774 269.275 174.041 269.958 174.041C270.647 174.041 271.194 173.772 271.599 173.235C272.004 172.693 272.207 171.936 272.207 170.964C272.207 170.095 272 169.392 271.584 168.855C271.174 168.313 270.627 168.042 269.944 168.042C269.275 168.042 268.735 168.308 268.325 168.84C267.915 169.373 267.71 170.134 267.71 171.125ZM279.092 168.291C278.887 168.257 278.665 168.24 278.425 168.24C277.537 168.24 276.934 168.618 276.616 169.375V175H275.261V167.075H276.58L276.602 167.991C277.046 167.283 277.676 166.929 278.491 166.929C278.755 166.929 278.955 166.963 279.092 167.031V168.291Z" fill="white"/>
<rect x="40" y="31" width="30" height="30" rx="6" fill="#4C4C4C"/>
<rect x="72.5" y="31" width="30" height="30" rx="6" fill="#4C4C4C"/>
<rect x="137.5" y="31" width="30" height="30" rx="6" fill="#696969"/>
<rect x="105" y="31" width="30" height="30" rx="6" fill="#4C4C4C"/>
<rect x="170" y="31" width="30" height="30" rx="6" fill="#4C4C4C"/>
<rect x="202.5" y="31" width="30" height="30" rx="6" fill="#4C4C4C"/>
<rect x="235" y="31" width="30" height="30" rx="6" fill="#4C4C4C"/>
<rect x="267.5" y="31" width="30" height="30" rx="6" fill="#4C4C4C"/>
<rect x="300" y="31" width="30" height="30" rx="6" fill="#4C4C4C"/>
<rect x="365" y="31" width="30" height="30" rx="6" fill="#4C4C4C"/>
<rect x="332.5" y="31" width="30" height="30" rx="6" fill="#696969"/>
<rect x="460" y="97" width="30" height="30" rx="6" fill="#696969"/>
<rect x="40.5" y="97" width="30" height="30" rx="6" fill="#4C4C4C"/>
<rect x="73" y="97" width="30" height="30" rx="6" fill="#4C4C4C"/>
<rect x="105.5" y="97" width="30" height="30" rx="6" fill="#4C4C4C"/>
<rect x="138" y="97" width="30" height="30" rx="6" fill="#4C4C4C"/>
<rect x="170.5" y="97" width="30" height="30" rx="6" fill="#4C4C4C"/>
<rect x="203" y="97" width="30" height="30" rx="6" fill="#4C4C4C"/>
<rect x="235.5" y="97" width="30" height="30" rx="6" fill="#696969"/>
<rect x="268" y="97" width="30" height="30" rx="6" fill="#4C4C4C"/>
<rect x="300.5" y="97" width="30" height="30" rx="6" fill="#4C4C4C"/>
<rect x="333" y="97" width="30" height="30" rx="6" fill="#4C4C4C"/>
<rect x="395" y="97" width="30" height="30" rx="6" fill="#696969"/>
<rect x="427.5" y="97" width="30" height="30" rx="6" fill="#4C4C4C"/>
<rect x="25" y="64" width="30" height="30" rx="6" fill="#4C4C4C"/>
<rect x="57.5" y="64" width="30" height="30" rx="6" fill="#40A9FF"/>
<rect x="90" y="64" width="30" height="30" rx="6" fill="#4C4C4C"/>
<rect x="122.5" y="64" width="30" height="30" rx="6" fill="#4C4C4C"/>
<rect x="155" y="64" width="30" height="30" rx="6" fill="#4C4C4C"/>
<rect x="187.5" y="64" width="30" height="30" rx="6" fill="#4C4C4C"/>
<rect x="220" y="64" width="30" height="30" rx="6" fill="#4C4C4C"/>
<rect x="252.5" y="64" width="30" height="30" rx="6" fill="#4C4C4C"/>
<rect x="285" y="64" width="30" height="30" rx="6" fill="#4C4C4C"/>
<rect x="317.5" y="64" width="30" height="30" rx="6" fill="#4C4C4C"/>
<rect x="350" y="64" width="30" height="30" rx="6" fill="#4C4C4C"/>
<rect x="427.5" y="64" width="30" height="30" rx="6" fill="#40A9FF"/>
<path d="M72 93L70.9868 170" stroke="#40A9FF" stroke-width="2"/>
<path d="M258 170L124 170" stroke="#40A9FF" stroke-width="2"/>
<path d="M443.83 80L497 80L497 170L285 170" stroke="#40A9FF" stroke-width="2"/>
<path d="M149.055 40.4707H152.443C154.26 40.4707 155.354 41.4766 155.354 43.166C155.354 44.8945 154.328 45.8613 152.521 45.8613H149.055V40.4707ZM149.055 47.4238H152.521L155.539 53H157.6L154.338 47.1504C156.105 46.5938 157.17 45.0703 157.17 43.1074C157.17 40.5684 155.393 38.9082 152.678 38.9082H147.297V53H149.055V47.4238Z" fill="#B9B9B9"/>
<path d="M342.797 39.9082V54H344.555V48.9707H348.1C350.746 48.9707 352.631 47.1055 352.631 44.4688C352.631 41.7832 350.785 39.9082 348.119 39.9082H342.797ZM344.555 41.4707H347.66C349.701 41.4707 350.824 42.5352 350.824 44.4688C350.824 46.334 349.662 47.4082 347.66 47.4082H344.555V41.4707Z" fill="#B9B9B9"/>
<path d="M246.535 119V108.072H246.691L254.338 119H256.047V104.908H254.309V115.875H254.152L246.506 104.908H244.797V119H246.535Z" fill="#B9B9B9"/>
<path d="M67.123 82.3184C67.3086 84.75 69.3691 86.332 72.3574 86.332C75.5801 86.332 77.6211 84.6816 77.6211 82.0938C77.6211 80.0234 76.4492 78.8906 73.5293 78.1582L72.0547 77.7676C70.1113 77.2695 69.3398 76.6348 69.3398 75.5312C69.3398 74.1055 70.5801 73.168 72.4551 73.168C74.2129 73.168 75.4043 74.0273 75.6484 75.4727H77.416C77.2695 73.1973 75.2383 71.5762 72.5137 71.5762C69.5352 71.5762 67.5332 73.1973 67.5332 75.5898C67.5332 77.5918 68.6367 78.7441 71.1855 79.3887L72.9922 79.8574C74.9355 80.3457 75.8145 81.1074 75.8145 82.3086C75.8145 83.7051 74.418 84.7305 72.5234 84.7305C70.5215 84.7305 69.1152 83.793 68.9004 82.3184H67.123Z" fill="white"/>
<path d="M468.584 112.5H481.417" stroke="#B9B9B9" stroke-width="2" stroke-linecap="round" stroke-linejoin="round"/>
<path d="M475 118.917L481.417 112.5L475 106.083" stroke="#B9B9B9" stroke-width="2" stroke-linecap="round" stroke-linejoin="round"/>
<path d="M416.416 112.5H403.583" stroke="#B9B9B9" stroke-width="2" stroke-linecap="round" stroke-linejoin="round"/>
<path d="M410 118.917L403.583 112.5L410 106.083" stroke="#B9B9B9" stroke-width="2" stroke-linecap="round" stroke-linejoin="round"/>
<path d="M442.5 106.083V118.917" stroke="#C4C4C4" stroke-width="2" stroke-linecap="round" stroke-linejoin="round"/>
<path d="M448.917 112.5L442.5 118.917L436.084 112.5" stroke="#C4C4C4" stroke-width="2" stroke-linecap="round" stroke-linejoin="round"/>
<path d="M442.5 85.4167V72.5833" stroke="white" stroke-width="2" stroke-linecap="round" stroke-linejoin="round"/>
<path d="M436.083 79L442.5 72.5833L448.916 79" stroke="white" stroke-width="2" stroke-linecap="round" stroke-linejoin="round"/>
<path d="M198.398 18.5488H196.395V22H195.264V13.4688H198.088C199.049 13.4688 199.787 13.6875 200.303 14.125C200.822 14.5625 201.082 15.1992 201.082 16.0352C201.082 16.5664 200.938 17.0293 200.648 17.4238C200.363 17.8184 199.965 18.1133 199.453 18.3086L201.457 21.9297V22H200.25L198.398 18.5488ZM196.395 17.6289H198.123C198.682 17.6289 199.125 17.4844 199.453 17.1953C199.785 16.9062 199.951 16.5195 199.951 16.0352C199.951 15.5078 199.793 15.1035 199.477 14.8223C199.164 14.541 198.711 14.3984 198.117 14.3945H196.395V17.6289ZM205.125 22.1172C204.266 22.1172 203.566 21.8359 203.027 21.2734C202.488 20.707 202.219 19.9512 202.219 19.0059V18.8066C202.219 18.1777 202.338 17.6172 202.576 17.125C202.818 16.6289 203.154 16.2422 203.584 15.9648C204.018 15.6836 204.486 15.543 204.99 15.543C205.814 15.543 206.455 15.8145 206.912 16.3574C207.369 16.9004 207.598 17.6777 207.598 18.6895V19.1406H203.303C203.318 19.7656 203.5 20.2715 203.848 20.6582C204.199 21.041 204.645 21.2324 205.184 21.2324C205.566 21.2324 205.891 21.1543 206.156 20.998C206.422 20.8418 206.654 20.6348 206.854 20.377L207.516 20.8926C206.984 21.709 206.188 22.1172 205.125 22.1172ZM204.99 16.4336C204.553 16.4336 204.186 16.5938 203.889 16.9141C203.592 17.2305 203.408 17.6758 203.338 18.25H206.514V18.168C206.482 17.6172 206.334 17.1914 206.068 16.8906C205.803 16.5859 205.443 16.4336 204.99 16.4336ZM214.213 18.9004C214.213 19.8652 213.992 20.6426 213.551 21.2324C213.109 21.8223 212.512 22.1172 211.758 22.1172C210.988 22.1172 210.383 21.873 209.941 21.3848V24.4375H208.857V15.6602H209.848L209.9 16.3633C210.342 15.8164 210.955 15.543 211.74 15.543C212.502 15.543 213.104 15.8301 213.545 16.4043C213.99 16.9785 214.213 17.7773 214.213 18.8008V18.9004ZM213.129 18.7773C213.129 18.0625 212.977 17.498 212.672 17.084C212.367 16.6699 211.949 16.4629 211.418 16.4629C210.762 16.4629 210.27 16.7539 209.941 17.3359V20.3652C210.266 20.9434 210.762 21.2324 211.43 21.2324C211.949 21.2324 212.361 21.0273 212.666 20.6172C212.975 20.2031 213.129 19.5898 213.129 18.7773ZM218.227 22.1172C217.367 22.1172 216.668 21.8359 216.129 21.2734C215.59 20.707 215.32 19.9512 215.32 19.0059V18.8066C215.32 18.1777 215.439 17.6172 215.678 17.125C215.92 16.6289 216.256 16.2422 216.686 15.9648C217.119 15.6836 217.588 15.543 218.092 15.543C218.916 15.543 219.557 15.8145 220.014 16.3574C220.471 16.9004 220.699 17.6777 220.699 18.6895V19.1406H216.404C216.42 19.7656 216.602 20.2715 216.949 20.6582C217.301 21.041 217.746 21.2324 218.285 21.2324C218.668 21.2324 218.992 21.1543 219.258 20.998C219.523 20.8418 219.756 20.6348 219.955 20.377L220.617 20.8926C220.086 21.709 219.289 22.1172 218.227 22.1172ZM218.092 16.4336C217.654 16.4336 217.287 16.5938 216.99 16.9141C216.693 17.2305 216.51 17.6758 216.439 18.25H219.615V18.168C219.584 17.6172 219.436 17.1914 219.17 16.8906C218.904 16.5859 218.545 16.4336 218.092 16.4336ZM225.873 22C225.811 21.875 225.76 21.6523 225.721 21.332C225.217 21.8555 224.615 22.1172 223.916 22.1172C223.291 22.1172 222.777 21.9414 222.375 21.5898C221.977 21.2344 221.777 20.7852 221.777 20.2422C221.777 19.582 222.027 19.0703 222.527 18.707C223.031 18.3398 223.738 18.1562 224.648 18.1562H225.703V17.6582C225.703 17.2793 225.59 16.9785 225.363 16.7559C225.137 16.5293 224.803 16.416 224.361 16.416C223.975 16.416 223.65 16.5137 223.389 16.709C223.127 16.9043 222.996 17.1406 222.996 17.418H221.906C221.906 17.1016 222.018 16.7969 222.24 16.5039C222.467 16.207 222.771 15.9727 223.154 15.8008C223.541 15.6289 223.965 15.543 224.426 15.543C225.156 15.543 225.729 15.7266 226.143 16.0938C226.557 16.457 226.771 16.959 226.787 17.5996V20.5176C226.787 21.0996 226.861 21.5625 227.01 21.9062V22H225.873ZM224.074 21.1738C224.414 21.1738 224.736 21.0859 225.041 20.9102C225.346 20.7344 225.566 20.5059 225.703 20.2246V18.9238H224.854C223.525 18.9238 222.861 19.3125 222.861 20.0898C222.861 20.4297 222.975 20.6953 223.201 20.8867C223.428 21.0781 223.719 21.1738 224.074 21.1738ZM229.957 14.125V15.6602H231.141V16.498H229.957V20.4297C229.957 20.6836 230.01 20.875 230.115 21.0039C230.221 21.1289 230.4 21.1914 230.654 21.1914C230.779 21.1914 230.951 21.168 231.17 21.1211V22C230.885 22.0781 230.607 22.1172 230.338 22.1172C229.854 22.1172 229.488 21.9707 229.242 21.6777C228.996 21.3848 228.873 20.9688 228.873 20.4297V16.498H227.719V15.6602H228.873V14.125H229.957ZM238.072 18.1973C237.107 17.9199 236.404 17.5801 235.963 17.1777C235.525 16.7715 235.307 16.2715 235.307 15.6777C235.307 15.0059 235.574 14.4512 236.109 14.0137C236.648 13.5723 237.348 13.3516 238.207 13.3516C238.793 13.3516 239.314 13.4648 239.771 13.6914C240.232 13.918 240.588 14.2305 240.838 14.6289C241.092 15.0273 241.219 15.4629 241.219 15.9355H240.088C240.088 15.4199 239.924 15.0156 239.596 14.7227C239.268 14.4258 238.805 14.2773 238.207 14.2773C237.652 14.2773 237.219 14.4004 236.906 14.6465C236.598 14.8887 236.443 15.2266 236.443 15.6602C236.443 16.0078 236.59 16.3027 236.883 16.5449C237.18 16.7832 237.682 17.002 238.389 17.2012C239.1 17.4004 239.654 17.6211 240.053 17.8633C240.455 18.1016 240.752 18.3809 240.943 18.7012C241.139 19.0215 241.236 19.3984 241.236 19.832C241.236 20.5234 240.967 21.0781 240.428 21.4961C239.889 21.9102 239.168 22.1172 238.266 22.1172C237.68 22.1172 237.133 22.0059 236.625 21.7832C236.117 21.5566 235.725 21.248 235.447 20.8574C235.174 20.4668 235.037 20.0234 235.037 19.5273H236.168C236.168 20.043 236.357 20.4512 236.736 20.752C237.119 21.0488 237.629 21.1973 238.266 21.1973C238.859 21.1973 239.314 21.0762 239.631 20.834C239.947 20.5918 240.105 20.2617 240.105 19.8438C240.105 19.4258 239.959 19.1035 239.666 18.877C239.373 18.6465 238.842 18.4199 238.072 18.1973ZM245.145 22.1172C244.285 22.1172 243.586 21.8359 243.047 21.2734C242.508 20.707 242.238 19.9512 242.238 19.0059V18.8066C242.238 18.1777 242.357 17.6172 242.596 17.125C242.838 16.6289 243.174 16.2422 243.604 15.9648C244.037 15.6836 244.506 15.543 245.01 15.543C245.834 15.543 246.475 15.8145 246.932 16.3574C247.389 16.9004 247.617 17.6777 247.617 18.6895V19.1406H243.322C243.338 19.7656 243.52 20.2715 243.867 20.6582C244.219 21.041 244.664 21.2324 245.203 21.2324C245.586 21.2324 245.91 21.1543 246.176 20.998C246.441 20.8418 246.674 20.6348 246.873 20.377L247.535 20.8926C247.004 21.709 246.207 22.1172 245.145 22.1172ZM245.01 16.4336C244.572 16.4336 244.205 16.5938 243.908 16.9141C243.611 17.2305 243.428 17.6758 243.357 18.25H246.533V18.168C246.502 17.6172 246.354 17.1914 246.088 16.8906C245.822 16.5859 245.463 16.4336 245.01 16.4336ZM249.902 15.6602L249.938 16.457C250.422 15.8477 251.055 15.543 251.836 15.543C253.176 15.543 253.852 16.2988 253.863 17.8105V22H252.779V17.8047C252.775 17.3477 252.67 17.0098 252.463 16.791C252.26 16.5723 251.941 16.4629 251.508 16.4629C251.156 16.4629 250.848 16.5566 250.582 16.7441C250.316 16.9316 250.109 17.1777 249.961 17.4824V22H248.877V15.6602H249.902ZM256.969 14.125V15.6602H258.152V16.498H256.969V20.4297C256.969 20.6836 257.021 20.875 257.127 21.0039C257.232 21.1289 257.412 21.1914 257.666 21.1914C257.791 21.1914 257.963 21.168 258.182 21.1211V22C257.896 22.0781 257.619 22.1172 257.35 22.1172C256.865 22.1172 256.5 21.9707 256.254 21.6777C256.008 21.3848 255.885 20.9688 255.885 20.4297V16.498H254.73V15.6602H255.885V14.125H256.969ZM262.055 22.1172C261.195 22.1172 260.496 21.8359 259.957 21.2734C259.418 20.707 259.148 19.9512 259.148 19.0059V18.8066C259.148 18.1777 259.268 17.6172 259.506 17.125C259.748 16.6289 260.084 16.2422 260.514 15.9648C260.947 15.6836 261.416 15.543 261.92 15.543C262.744 15.543 263.385 15.8145 263.842 16.3574C264.299 16.9004 264.527 17.6777 264.527 18.6895V19.1406H260.232C260.248 19.7656 260.43 20.2715 260.777 20.6582C261.129 21.041 261.574 21.2324 262.113 21.2324C262.496 21.2324 262.82 21.1543 263.086 20.998C263.352 20.8418 263.584 20.6348 263.783 20.377L264.445 20.8926C263.914 21.709 263.117 22.1172 262.055 22.1172ZM261.92 16.4336C261.482 16.4336 261.115 16.5938 260.818 16.9141C260.521 17.2305 260.338 17.6758 260.268 18.25H263.443V18.168C263.412 17.6172 263.264 17.1914 262.998 16.8906C262.732 16.5859 262.373 16.4336 261.92 16.4336ZM266.812 15.6602L266.848 16.457C267.332 15.8477 267.965 15.543 268.746 15.543C270.086 15.543 270.762 16.2988 270.773 17.8105V22H269.689V17.8047C269.686 17.3477 269.58 17.0098 269.373 16.791C269.17 16.5723 268.852 16.4629 268.418 16.4629C268.066 16.4629 267.758 16.5566 267.492 16.7441C267.227 16.9316 267.02 17.1777 266.871 17.4824V22H265.787V15.6602H266.812ZM274.951 21.2324C275.338 21.2324 275.676 21.1152 275.965 20.8809C276.254 20.6465 276.414 20.3535 276.445 20.002H277.471C277.451 20.3652 277.326 20.7109 277.096 21.0391C276.865 21.3672 276.557 21.6289 276.17 21.8242C275.787 22.0195 275.381 22.1172 274.951 22.1172C274.088 22.1172 273.4 21.8301 272.889 21.2559C272.381 20.6777 272.127 19.8887 272.127 18.8887V18.707C272.127 18.0898 272.24 17.541 272.467 17.0605C272.693 16.5801 273.018 16.207 273.439 15.9414C273.865 15.6758 274.367 15.543 274.945 15.543C275.656 15.543 276.246 15.7559 276.715 16.1816C277.188 16.6074 277.439 17.1602 277.471 17.8398H276.445C276.414 17.4297 276.258 17.0938 275.977 16.832C275.699 16.5664 275.355 16.4336 274.945 16.4336C274.395 16.4336 273.967 16.6328 273.662 17.0312C273.361 17.4258 273.211 17.998 273.211 18.748V18.9531C273.211 19.6836 273.361 20.2461 273.662 20.6406C273.963 21.0352 274.393 21.2324 274.951 21.2324ZM281.32 22.1172C280.461 22.1172 279.762 21.8359 279.223 21.2734C278.684 20.707 278.414 19.9512 278.414 19.0059V18.8066C278.414 18.1777 278.533 17.6172 278.771 17.125C279.014 16.6289 279.35 16.2422 279.779 15.9648C280.213 15.6836 280.682 15.543 281.186 15.543C282.01 15.543 282.65 15.8145 283.107 16.3574C283.564 16.9004 283.793 17.6777 283.793 18.6895V19.1406H279.498C279.514 19.7656 279.695 20.2715 280.043 20.6582C280.395 21.041 280.84 21.2324 281.379 21.2324C281.762 21.2324 282.086 21.1543 282.352 20.998C282.617 20.8418 282.85 20.6348 283.049 20.377L283.711 20.8926C283.18 21.709 282.383 22.1172 281.32 22.1172ZM281.186 16.4336C280.748 16.4336 280.381 16.5938 280.084 16.9141C279.787 17.2305 279.604 17.6758 279.533 18.25H282.709V18.168C282.678 17.6172 282.529 17.1914 282.264 16.8906C281.998 16.5859 281.639 16.4336 281.186 16.4336ZM290.713 18.1973C289.748 17.9199 289.045 17.5801 288.604 17.1777C288.166 16.7715 287.947 16.2715 287.947 15.6777C287.947 15.0059 288.215 14.4512 288.75 14.0137C289.289 13.5723 289.988 13.3516 290.848 13.3516C291.434 13.3516 291.955 13.4648 292.412 13.6914C292.873 13.918 293.229 14.2305 293.479 14.6289C293.732 15.0273 293.859 15.4629 293.859 15.9355H292.729C292.729 15.4199 292.564 15.0156 292.236 14.7227C291.908 14.4258 291.445 14.2773 290.848 14.2773C290.293 14.2773 289.859 14.4004 289.547 14.6465C289.238 14.8887 289.084 15.2266 289.084 15.6602C289.084 16.0078 289.23 16.3027 289.523 16.5449C289.82 16.7832 290.322 17.002 291.029 17.2012C291.74 17.4004 292.295 17.6211 292.693 17.8633C293.096 18.1016 293.393 18.3809 293.584 18.7012C293.779 19.0215 293.877 19.3984 293.877 19.832C293.877 20.5234 293.607 21.0781 293.068 21.4961C292.529 21.9102 291.809 22.1172 290.906 22.1172C290.32 22.1172 289.773 22.0059 289.266 21.7832C288.758 21.5566 288.365 21.248 288.088 20.8574C287.814 20.4668 287.678 20.0234 287.678 19.5273H288.809C288.809 20.043 288.998 20.4512 289.377 20.752C289.76 21.0488 290.27 21.1973 290.906 21.1973C291.5 21.1973 291.955 21.0762 292.271 20.834C292.588 20.5918 292.746 20.2617 292.746 19.8438C292.746 19.4258 292.6 19.1035 292.307 18.877C292.014 18.6465 291.482 18.4199 290.713 18.1973ZM296.332 22H295.248V13H296.332V22ZM297.785 18.7715C297.785 18.1504 297.906 17.5918 298.148 17.0957C298.395 16.5996 298.734 16.2168 299.168 15.9473C299.605 15.6777 300.104 15.543 300.662 15.543C301.525 15.543 302.223 15.8418 302.754 16.4395C303.289 17.0371 303.557 17.832 303.557 18.8242V18.9004C303.557 19.5176 303.438 20.0723 303.199 20.5645C302.965 21.0527 302.627 21.4336 302.186 21.707C301.748 21.9805 301.244 22.1172 300.674 22.1172C299.814 22.1172 299.117 21.8184 298.582 21.2207C298.051 20.623 297.785 19.832 297.785 18.8477V18.7715ZM298.875 18.9004C298.875 19.6035 299.037 20.168 299.361 20.5938C299.689 21.0195 300.127 21.2324 300.674 21.2324C301.225 21.2324 301.662 21.0176 301.986 20.5879C302.311 20.1543 302.473 19.5488 302.473 18.7715C302.473 18.0762 302.307 17.5137 301.975 17.084C301.646 16.6504 301.209 16.4336 300.662 16.4336C300.127 16.4336 299.695 16.6465 299.367 17.0723C299.039 17.498 298.875 18.1074 298.875 18.9004ZM310.529 20.5059L311.748 15.6602H312.832L310.986 22H310.107L308.566 17.1953L307.066 22H306.188L304.348 15.6602H305.426L306.674 20.4062L308.15 15.6602H309.023L310.529 20.5059ZM315.117 22H314.033V13H315.117V22ZM318.932 20.4121L320.408 15.6602H321.568L319.02 22.9785C318.625 24.0332 317.998 24.5605 317.139 24.5605L316.934 24.543L316.529 24.4668V23.5879L316.822 23.6113C317.189 23.6113 317.475 23.5371 317.678 23.3887C317.885 23.2402 318.055 22.9688 318.188 22.5742L318.428 21.9297L316.166 15.6602H317.35L318.932 20.4121Z" fill="white"/>
</svg>
