<svg width="534" height="100" viewBox="0 0 534 100" fill="none" xmlns="http://www.w3.org/2000/svg">
<path d="M128.352 74.64C124.683 74.64 121.483 74 118.752 72.72C116.064 71.3973 113.995 69.52 112.544 67.088C111.136 64.656 110.432 61.776 110.432 58.448C110.432 53.2853 111.968 49.2533 115.04 46.352C118.112 43.4507 122.379 42 127.84 42C131.211 42 134.197 42.5333 136.8 43.6C139.403 44.6667 141.429 46.16 142.88 48.08C144.331 49.9573 145.056 52.112 145.056 54.544C145.056 56.5067 144.459 58.0213 143.264 59.088C142.069 60.1547 140.384 60.688 138.208 60.688H117.472C117.472 63.3333 118.411 65.3813 120.288 66.832C122.165 68.2827 124.853 69.008 128.352 69.008C130.357 69.008 132.128 68.7947 133.664 68.368C135.2 67.9413 136.629 67.2587 137.952 66.32C139.189 65.5093 140.128 65.104 140.768 65.104C141.323 65.104 141.899 65.4027 142.496 66C143.179 66.64 143.52 67.344 143.52 68.112C143.52 68.9227 143.157 69.6053 142.432 70.16C138.848 73.1467 134.155 74.64 128.352 74.64ZM136.032 55.504C136.757 55.504 137.291 55.3547 137.632 55.056C137.973 54.7573 138.144 54.2453 138.144 53.52C138.144 51.7707 137.205 50.3627 135.328 49.296C133.451 48.1867 130.955 47.632 127.84 47.632C124.683 47.632 122.187 48.3573 120.352 49.808C118.517 51.216 117.6 53.1147 117.6 55.504H136.032ZM161.666 74C158.679 74 156.332 73.2107 154.626 71.632C152.962 70.0107 152.13 67.7707 152.13 64.912V31.952C152.13 30.8853 152.45 30.0533 153.09 29.456C153.73 28.8587 154.604 28.56 155.714 28.56C156.823 28.56 157.698 28.88 158.338 29.52C159.02 30.1173 159.362 30.928 159.362 31.952V64.976C159.362 66 159.618 66.8107 160.13 67.408C160.684 68.0053 161.431 68.304 162.37 68.304H183.106C185.41 68.304 186.562 69.264 186.562 71.184C186.562 72.08 186.263 72.784 185.666 73.296C185.068 73.7653 184.215 74 183.106 74H161.666ZM202.061 74.64C198.008 74.64 194.765 73.68 192.333 71.76C189.901 69.84 188.685 67.28 188.685 64.08C188.685 60.9227 189.965 58.4053 192.525 56.528C195.128 54.6507 198.627 53.712 203.021 53.712C207.288 53.712 210.616 54.6933 213.005 56.656V54.224C213.005 52.0907 212.323 50.4693 210.957 49.36C209.635 48.208 207.672 47.632 205.069 47.632C201.4 47.632 198.243 48.4427 195.597 50.064C194.701 50.576 193.891 50.832 193.165 50.832C192.397 50.832 191.693 50.4907 191.053 49.808C190.627 49.3387 190.413 48.784 190.413 48.144C190.413 47.12 190.861 46.3093 191.757 45.712C193.293 44.56 195.235 43.664 197.581 43.024C199.928 42.3413 202.381 42 204.941 42C209.763 42 213.539 43.088 216.269 45.264C219 47.44 220.365 50.448 220.365 54.288V71.44C220.365 72.4213 220.045 73.2107 219.405 73.808C218.765 74.3627 217.891 74.64 216.781 74.64C215.672 74.64 214.797 74.3627 214.157 73.808C213.56 73.2533 213.261 72.4853 213.261 71.504V70.288C210.744 73.1893 207.011 74.64 202.061 74.64ZM203.597 69.392C206.499 69.392 208.803 68.9227 210.509 67.984C212.216 67.0027 213.069 65.68 213.069 64.016C213.069 62.3947 212.237 61.1147 210.573 60.176C208.909 59.2373 206.627 58.768 203.725 58.768C201.208 58.768 199.245 59.2373 197.837 60.176C196.472 61.1147 195.789 62.416 195.789 64.08C195.789 65.7867 196.451 67.1093 197.773 68.048C199.139 68.944 201.08 69.392 203.597 69.392ZM230.949 74.64C229.84 74.64 228.965 74.3413 228.325 73.744C227.685 73.1467 227.365 72.3147 227.365 71.248V45.392C227.365 44.3253 227.664 43.4933 228.261 42.896C228.901 42.2987 229.754 42 230.821 42C231.93 42 232.784 42.2987 233.381 42.896C234.021 43.4933 234.341 44.3253 234.341 45.392V47.888C237.498 43.9627 241.722 42 247.013 42C251.066 42 254.245 43.2373 256.549 45.712C258.896 48.1867 260.069 51.6 260.069 55.952V71.248C260.069 72.3147 259.728 73.1467 259.045 73.744C258.405 74.3413 257.53 74.64 256.421 74.64C255.312 74.64 254.437 74.3413 253.797 73.744C253.2 73.1467 252.901 72.3147 252.901 71.248V55.952C252.901 53.3067 252.261 51.28 250.981 49.872C249.701 48.464 247.888 47.76 245.541 47.76C242.128 47.76 239.44 48.784 237.477 50.832C235.514 52.8373 234.533 55.568 234.533 59.024V71.248C234.533 72.272 234.192 73.104 233.509 73.744C232.869 74.3413 232.016 74.64 230.949 74.64ZM284.877 90C281.634 90 278.669 89.5307 275.981 88.592C273.293 87.6533 271.181 86.3307 269.645 84.624C269.133 84.0693 268.877 83.4293 268.877 82.704C268.877 81.7227 269.325 80.912 270.221 80.272C270.775 79.8453 271.373 79.632 272.013 79.632C272.994 79.632 274.018 80.144 275.085 81.168C276.109 82.192 277.431 82.9813 279.053 83.536C280.674 84.1333 282.466 84.432 284.429 84.432C288.055 84.432 290.85 83.4293 292.813 81.424C294.775 79.4187 295.735 76.6027 295.693 72.976L295.629 69.264C292.599 72.9333 288.333 74.768 282.829 74.768C277.538 74.768 273.421 73.3173 270.477 70.416C267.533 67.5147 266.061 63.5467 266.061 58.512C266.061 53.4347 267.554 49.424 270.541 46.48C273.57 43.4933 277.815 42 283.277 42C285.666 42 287.927 42.4907 290.061 43.472C292.194 44.4533 294.071 45.84 295.693 47.632V45.392C295.693 44.368 296.013 43.5573 296.653 42.96C297.335 42.32 298.21 42 299.277 42C300.343 42 301.197 42.2987 301.837 42.896C302.477 43.4933 302.797 44.3253 302.797 45.392V72.976C302.797 76.304 302.071 79.248 300.621 81.808C299.17 84.4107 297.079 86.416 294.349 87.824C291.661 89.2747 288.503 90 284.877 90ZM284.109 68.944C287.522 68.944 290.295 68.0267 292.429 66.192C294.562 64.3573 295.629 61.7547 295.629 58.384C295.629 55.1413 294.626 52.56 292.621 50.64C290.615 48.72 287.821 47.76 284.237 47.76C280.781 47.76 278.093 48.6987 276.173 50.576C274.253 52.4533 273.293 55.0987 273.293 58.512C273.293 61.7973 274.231 64.3573 276.109 66.192C277.986 68.0267 280.653 68.944 284.109 68.944ZM331.81 74.64C330.701 74.64 329.826 74.3413 329.186 73.744C328.546 73.1467 328.226 72.3147 328.226 71.248V38.096C328.226 35.3227 329.037 33.1467 330.658 31.568C332.28 29.9893 334.541 29.2 337.442 29.2H348.322C354.637 29.2 359.416 30.5227 362.658 33.168C365.944 35.8133 367.586 39.7173 367.586 44.88C367.586 49.9573 365.965 53.8187 362.722 56.464C359.522 59.0667 354.829 60.368 348.642 60.368H335.522V71.248C335.522 72.272 335.181 73.104 334.498 73.744C333.816 74.3413 332.92 74.64 331.81 74.64ZM348.578 54.608C356.344 54.608 360.226 51.3653 360.226 44.88C360.226 41.4667 359.245 38.9493 357.282 37.328C355.362 35.7067 352.482 34.896 348.642 34.896H338.466C337.528 34.896 336.802 35.1947 336.29 35.792C335.778 36.3893 335.522 37.2 335.522 38.224V54.608H348.578ZM379.42 74.64C378.311 74.64 377.436 74.3413 376.796 73.744C376.156 73.1467 375.836 72.3147 375.836 71.248V28.816C375.836 27.7493 376.156 26.9173 376.796 26.32C377.436 25.7227 378.311 25.424 379.42 25.424C380.529 25.424 381.404 25.7227 382.044 26.32C382.684 26.9173 383.004 27.7493 383.004 28.816V71.248C383.004 72.272 382.663 73.104 381.98 73.744C381.34 74.3413 380.487 74.64 379.42 74.64ZM404.004 74.64C399.951 74.64 396.708 73.68 394.276 71.76C391.844 69.84 390.628 67.28 390.628 64.08C390.628 60.9227 391.908 58.4053 394.468 56.528C397.071 54.6507 400.569 53.712 404.964 53.712C409.231 53.712 412.559 54.6933 414.948 56.656V54.224C414.948 52.0907 414.265 50.4693 412.9 49.36C411.577 48.208 409.615 47.632 407.012 47.632C403.343 47.632 400.185 48.4427 397.54 50.064C396.644 50.576 395.833 50.832 395.108 50.832C394.34 50.832 393.636 50.4907 392.996 49.808C392.569 49.3387 392.356 48.784 392.356 48.144C392.356 47.12 392.804 46.3093 393.7 45.712C395.236 44.56 397.177 43.664 399.524 43.024C401.871 42.3413 404.324 42 406.884 42C411.705 42 415.481 43.088 418.212 45.264C420.943 47.44 422.308 50.448 422.308 54.288V71.44C422.308 72.4213 421.988 73.2107 421.348 73.808C420.708 74.3627 419.833 74.64 418.724 74.64C417.615 74.64 416.74 74.3627 416.1 73.808C415.503 73.2533 415.204 72.4853 415.204 71.504V70.288C412.687 73.1893 408.953 74.64 404.004 74.64ZM405.54 69.392C408.441 69.392 410.745 68.9227 412.452 67.984C414.159 67.0027 415.012 65.68 415.012 64.016C415.012 62.3947 414.18 61.1147 412.516 60.176C410.852 59.2373 408.569 58.768 405.668 58.768C403.151 58.768 401.188 59.2373 399.78 60.176C398.415 61.1147 397.732 62.416 397.732 64.08C397.732 65.7867 398.393 67.1093 399.716 68.048C401.081 68.944 403.023 69.392 405.54 69.392ZM444.668 90C441.553 90 438.716 89.5093 436.156 88.528C433.638 87.5893 431.74 86.288 430.46 84.624C429.99 83.9413 429.756 83.3013 429.756 82.704C429.756 81.7653 430.204 80.9333 431.1 80.208C431.654 79.824 432.252 79.632 432.892 79.632C433.958 79.632 434.918 80.1227 435.772 81.104C436.71 82.128 437.926 82.9173 439.42 83.472C440.956 84.0267 442.641 84.304 444.476 84.304C447.761 84.304 450.3 83.3867 452.092 81.552C453.884 79.7173 454.78 77.1147 454.78 73.744V70.48C453.67 71.7173 452.241 72.6987 450.492 73.424C448.742 74.1493 446.95 74.512 445.116 74.512C439.825 74.512 435.686 73.0827 432.7 70.224C429.756 67.3227 428.284 63.2907 428.284 58.128V45.2C428.284 44.304 428.625 43.5573 429.308 42.96C429.99 42.32 430.865 42 431.932 42C432.913 42 433.745 42.32 434.428 42.96C435.11 43.5573 435.452 44.304 435.452 45.2V58.128C435.452 61.5413 436.305 64.208 438.012 66.128C439.718 68.0053 442.086 68.944 445.116 68.944C448.06 68.944 450.342 68.0267 451.964 66.192C453.628 64.3147 454.46 61.6907 454.46 58.32V45.84C454.46 44.6453 454.78 43.7067 455.42 43.024C456.06 42.3413 456.956 42 458.108 42C459.26 42 460.156 42.3413 460.796 43.024C461.436 43.7067 461.756 44.6453 461.756 45.84V72.912C461.756 78.2027 460.22 82.3627 457.148 85.392C454.118 88.464 449.958 90 444.668 90ZM485.861 74.64C482.192 74.64 478.992 74 476.261 72.72C473.573 71.3973 471.504 69.52 470.053 67.088C468.645 64.656 467.941 61.776 467.941 58.448C467.941 53.2853 469.477 49.2533 472.549 46.352C475.621 43.4507 479.888 42 485.349 42C488.72 42 491.706 42.5333 494.309 43.6C496.912 44.6667 498.938 46.16 500.389 48.08C501.84 49.9573 502.565 52.112 502.565 54.544C502.565 56.5067 501.968 58.0213 500.773 59.088C499.578 60.1547 497.893 60.688 495.717 60.688H474.981C474.981 63.3333 475.92 65.3813 477.797 66.832C479.674 68.2827 482.362 69.008 485.861 69.008C487.866 69.008 489.637 68.7947 491.173 68.368C492.709 67.9413 494.138 67.2587 495.461 66.32C496.698 65.5093 497.637 65.104 498.277 65.104C498.832 65.104 499.408 65.4027 500.005 66C500.688 66.64 501.029 67.344 501.029 68.112C501.029 68.9227 500.666 69.6053 499.941 70.16C496.357 73.1467 491.664 74.64 485.861 74.64ZM493.541 55.504C494.266 55.504 494.8 55.3547 495.141 55.056C495.482 54.7573 495.653 54.2453 495.653 53.52C495.653 51.7707 494.714 50.3627 492.837 49.296C490.96 48.1867 488.464 47.632 485.349 47.632C482.192 47.632 479.696 48.3573 477.861 49.808C476.026 51.216 475.109 53.1147 475.109 55.504H493.541ZM512.519 74.64C511.409 74.64 510.535 74.3413 509.895 73.744C509.255 73.1467 508.935 72.3147 508.935 71.248V45.392C508.935 44.3253 509.233 43.4933 509.831 42.896C510.471 42.2987 511.324 42 512.391 42C513.5 42 514.353 42.2987 514.951 42.896C515.591 43.4933 515.911 44.3253 515.911 45.392V48.08C518.684 44.4533 522.332 42.64 526.855 42.64H528.327C529.479 42.64 530.375 42.896 531.015 43.408C531.697 43.92 532.039 44.624 532.039 45.52C532.039 46.4587 531.697 47.184 531.015 47.696C530.375 48.1653 529.479 48.4 528.327 48.4H526.279C523.164 48.4 520.689 49.36 518.855 51.28C517.02 53.1573 516.103 55.7387 516.103 59.024V71.248C516.103 72.272 515.761 73.104 515.079 73.744C514.439 74.3413 513.585 74.64 512.519 74.64Z" fill="#195AA9"/>
<path d="M68.3013 81.6987C85.808 71.5912 91.8062 49.2054 81.6987 31.6987C71.5912 14.192 49.2055 8.19375 31.6987 18.3013C14.192 28.4088 8.19376 50.7945 18.3013 68.3013C28.4088 85.808 50.7945 91.8062 68.3013 81.6987Z" fill="#195AA9"/>
<path fill-rule="evenodd" clip-rule="evenodd" d="M20.8145 72.5858C19.9486 71.4365 19.1419 70.2242 18.401 68.9504C17.4987 67.3992 16.7247 65.8093 16.0757 64.193C17.0717 63.6178 18.5254 62.7828 20.5567 61.6188C21.0918 61.3122 22.1619 60.6954 22.9347 60.248C23.7076 59.8007 25.1425 58.973 26.1234 58.4086L27.1751 57.803C27.1341 57.7061 27.0941 57.6103 27.0552 57.5155C26.0647 54.8863 25.5425 51.5915 25.6443 48.6105C25.7611 45.1888 26.4002 42.5251 27.8203 39.5415C29.8184 35.3433 32.6154 32.1649 36.6299 29.5304C39.905 27.381 43.4917 25.9462 46.6859 25.5073C48.1153 25.311 51.0641 25.3099 52.5443 25.5052C56.4575 26.0216 60.2709 27.829 63.7847 30.8328C64.3977 31.3567 65.2091 32.1215 65.588 32.5325C67.3173 34.408 69.3134 37.1813 70.0886 38.7856C70.8026 40.2633 70.8036 41.7585 70.0912 43.2122C69.5439 44.3291 68.7794 45.0172 66.8447 46.1334C65.953 46.6481 64.2505 47.6292 63.0616 48.3138C57.4991 51.5165 56.5314 52.0743 54.3063 53.3595C50.4982 55.5593 44.8596 58.808 44.0376 59.2759C43.6215 59.5127 42.8266 59.9725 42.2712 60.2978L41.2614 60.889L41.6767 61.3164C42.6728 62.3417 44.4888 63.4696 46.1502 64.0948C48.0959 64.8272 48.6181 64.9133 51.1176 64.9133C53.185 64.9133 53.4095 64.8934 54.4684 64.6173C55.8696 64.2521 56.9318 63.8478 58.3184 63.1519C61.4737 61.5684 63.7859 59.1546 65.6459 55.5017C66.1574 54.4973 66.386 54.1769 67.0126 53.5865C68.536 52.1511 70.248 51.6391 72.0813 52.0706C75.1341 52.7894 76.7327 55.3736 75.8213 58.116C74.4047 62.3785 69.8851 67.8409 65.2774 70.8597C64.1645 71.5888 61.7737 72.8182 60.3053 73.4163C55.1778 75.5051 49.8599 75.9152 44.6909 74.6206C42.6205 74.1021 40.2499 73.1331 38.5135 72.0958C36.1077 70.6585 33.4308 68.2909 31.8819 66.2308L31.8713 66.2165L31.7981 66.2587C27.9901 68.4585 22.3515 71.7072 21.5295 72.1751C21.3468 72.279 21.091 72.426 20.8145 72.5858ZM55.7109 37.8676C54.317 36.9281 52.8775 36.2996 51.1716 35.8855C48.7129 35.2887 45.9202 35.8217 43.1653 37.4136C39.5029 39.53 37.3972 42.0984 36.4646 45.5874C36.0779 47.0333 35.9762 49.6945 36.2479 51.2547C36.4366 52.3389 36.5341 52.5489 36.7641 52.3663C36.8837 52.2711 38.5437 51.3104 43.0649 48.7197C43.5998 48.4131 44.67 47.7962 45.4429 47.3488C46.2156 46.9015 47.6505 46.0738 48.6315 45.5094C49.6125 44.9451 51.2419 44.0059 52.2525 43.4223C53.2631 42.8388 54.9656 41.8573 56.0357 41.2416C57.1057 40.6256 58.0203 40.0833 58.0681 40.0364C58.1874 39.919 56.6346 38.4901 55.7109 37.8676Z" fill="white"/>
</svg>
