<svg width="195" height="40" viewBox="0 0 195 40" fill="none" xmlns="http://www.w3.org/2000/svg">
<g id="Next Step">
<path id="Rectangle 94" d="M0 5C0 2.23858 2.23858 0 5 0H183.997C186.077 0 187.941 1.28841 188.675 3.23506L194.334 18.2351C194.763 19.3726 194.763 20.6274 194.334 21.7649L188.675 36.7649C187.941 38.7116 186.077 40 183.997 40H5C2.23858 40 0 37.7614 0 35V5Z" fill="#FF9900"/>
<path id="&#208;&#161;&#208;&#187;&#208;&#181;&#208;&#180;&#209;&#131;&#209;&#142;&#209;&#137;&#208;&#184;&#208;&#185; &#209;&#136;&#208;&#176;&#208;&#179;" d="M18.656 11.38C19.6093 11.38 20.4527 11.5193 21.186 11.798C21.934 12.0767 22.638 12.4947 23.298 13.052L21.582 15.098C21.1273 14.746 20.68 14.482 20.24 14.306C19.8 14.13 19.3307 14.042 18.832 14.042C17.8053 14.042 16.9913 14.4747 16.39 15.34C15.8033 16.2053 15.51 17.54 15.51 19.344C15.51 21.1187 15.8033 22.4387 16.39 23.304C16.9913 24.1547 17.82 24.58 18.876 24.58C19.4333 24.58 19.9393 24.4773 20.394 24.272C20.8487 24.052 21.34 23.744 21.868 23.348L23.474 25.416C22.902 25.988 22.2053 26.4573 21.384 26.824C20.5773 27.1907 19.6827 27.374 18.7 27.374C17.292 27.374 16.0673 27.066 15.026 26.45C13.9847 25.834 13.1707 24.9247 12.584 23.722C12.012 22.5047 11.726 21.0453 11.726 19.344C11.726 17.6867 12.0193 16.2567 12.606 15.054C13.2073 13.8513 14.0287 12.942 15.07 12.326C16.126 11.6953 17.3213 11.38 18.656 11.38ZM34.8303 15.318V27H31.3543V17.87H29.1323L28.9123 20.356C28.751 22.072 28.5603 23.3553 28.3403 24.206C28.135 25.042 27.7683 25.702 27.2403 26.186C26.7123 26.67 25.9056 27.0367 24.8203 27.286L23.9623 24.756C24.4463 24.536 24.7836 24.3087 24.9743 24.074C25.1796 23.8247 25.3336 23.436 25.4363 22.908C25.539 22.3653 25.6343 21.456 25.7223 20.18L26.0743 15.318H34.8303ZM47.7512 20.928C47.7512 21.412 47.7292 21.83 47.6852 22.182H40.4472C40.5645 23.1647 40.8432 23.854 41.2832 24.25C41.7232 24.646 42.3318 24.844 43.1092 24.844C43.5785 24.844 44.0332 24.7633 44.4732 24.602C44.9132 24.426 45.3898 24.162 45.9032 23.81L47.3332 25.746C45.9692 26.8313 44.4512 27.374 42.7792 27.374C40.8872 27.374 39.4352 26.8167 38.4232 25.702C37.4112 24.5873 36.9052 23.0913 36.9052 21.214C36.9052 20.026 37.1178 18.9627 37.5432 18.024C37.9685 17.0707 38.5918 16.3227 39.4132 15.78C40.2345 15.2227 41.2172 14.944 42.3612 14.944C44.0478 14.944 45.3678 15.472 46.3212 16.528C47.2745 17.584 47.7512 19.0507 47.7512 20.928ZM44.3412 19.938C44.3118 18.1487 43.6812 17.254 42.4492 17.254C41.8478 17.254 41.3785 17.474 41.0412 17.914C40.7185 18.354 40.5205 19.08 40.4472 20.092H44.3412V19.938ZM60.137 24.448V30.652H57.717L57.321 27H50.941L50.545 30.652H48.125V24.448H48.851C49.115 24.2573 49.3277 24.0153 49.489 23.722C49.665 23.414 49.819 22.9153 49.951 22.226C50.0977 21.5367 50.2223 20.554 50.325 19.278L50.655 15.318H58.905V24.448H60.137ZM55.649 17.606H53.625L53.515 18.97C53.4123 20.1433 53.2803 21.0893 53.119 21.808C52.9723 22.512 52.767 23.0693 52.503 23.48C52.239 23.876 51.887 24.1987 51.447 24.448H55.649V17.606ZM68.1381 27.022C67.6688 28.5327 66.8988 29.6913 65.8281 30.498C64.7721 31.3193 63.3495 31.7813 61.5601 31.884L61.1861 29.442C62.3008 29.2953 63.1221 29.046 63.6501 28.694C64.1928 28.342 64.6255 27.7773 64.9481 27H63.7601L60.1961 15.318H63.8921L65.9821 24.778L68.2701 15.318H71.8561L68.1381 27.022ZM83.3528 14.944C84.4382 14.944 85.3842 15.1933 86.1908 15.692C87.0122 16.176 87.6428 16.8873 88.0828 17.826C88.5375 18.75 88.7648 19.8647 88.7648 21.17C88.7648 22.3873 88.5375 23.4653 88.0828 24.404C87.6428 25.3427 87.0122 26.076 86.1908 26.604C85.3842 27.1173 84.4382 27.374 83.3528 27.374C81.8715 27.374 80.6762 26.9267 79.7668 26.032C78.8575 25.1373 78.2928 23.8833 78.0728 22.27H76.5548V27H73.0788V15.318H76.5548V19.872H78.1168C78.3515 18.3467 78.9162 17.144 79.8108 16.264C80.7202 15.384 81.9008 14.944 83.3528 14.944ZM83.3528 24.822C84.0275 24.822 84.5042 24.5287 84.7828 23.942C85.0762 23.3407 85.2228 22.4167 85.2228 21.17C85.2228 19.9233 85.0688 18.9993 84.7608 18.398C84.4675 17.7967 83.9982 17.496 83.3528 17.496C82.7075 17.496 82.2382 17.7893 81.9448 18.376C81.6515 18.9627 81.5048 19.8867 81.5048 21.148C81.5048 22.4093 81.6515 23.3407 81.9448 23.942C82.2528 24.5287 82.7222 24.822 83.3528 24.822ZM105.301 24.448H107.061V30.652H104.641L104.245 27H90.8249V15.318H94.1469V24.448H96.5669V15.318H99.5369V24.448H101.979V15.318H105.301V24.448ZM118.673 27H115.373V22.842C115.373 22.0207 115.417 21.2433 115.505 20.51C115.593 19.7767 115.703 19.1607 115.835 18.662L111.941 27H108.399V15.318H111.721V19.542C111.721 20.3193 111.67 21.082 111.567 21.83C111.479 22.578 111.376 23.194 111.259 23.678L115.109 15.318H118.673V27ZM131.671 27H128.371V22.842C128.371 22.0207 128.415 21.2433 128.503 20.51C128.591 19.7767 128.701 19.1607 128.833 18.662L124.939 27H121.397V15.318H124.719V19.542C124.719 20.3193 124.668 21.082 124.565 21.83C124.477 22.578 124.375 23.194 124.257 23.678L128.107 15.318H131.671V27ZM126.523 13.096C125.394 13.096 124.499 12.788 123.839 12.172C123.194 11.556 122.827 10.7347 122.739 9.708L124.653 9.356C124.785 9.82533 124.998 10.1627 125.291 10.368C125.599 10.5733 126.01 10.676 126.523 10.676C127.037 10.676 127.44 10.5733 127.733 10.368C128.041 10.1627 128.269 9.82533 128.415 9.356L130.329 9.708C130.241 10.7347 129.867 11.556 129.207 12.172C128.547 12.788 127.653 13.096 126.523 13.096ZM154.092 15.318V27H139.616V15.318H142.938V24.448H145.358V15.318H148.328V24.448H150.77V15.318H154.092ZM166.109 23.612C166.109 24.052 166.168 24.3747 166.285 24.58C166.417 24.7853 166.622 24.9393 166.901 25.042L166.175 27.308C165.456 27.2493 164.87 27.0953 164.415 26.846C163.96 26.582 163.608 26.1713 163.359 25.614C162.596 26.7873 161.423 27.374 159.839 27.374C158.68 27.374 157.756 27.0367 157.067 26.362C156.378 25.6873 156.033 24.8073 156.033 23.722C156.033 22.446 156.502 21.4707 157.441 20.796C158.38 20.1213 159.736 19.784 161.511 19.784H162.699V19.278C162.699 18.5887 162.552 18.1193 162.259 17.87C161.966 17.606 161.452 17.474 160.719 17.474C160.338 17.474 159.876 17.5327 159.333 17.65C158.79 17.7527 158.233 17.8993 157.661 18.09L156.869 15.802C157.602 15.5233 158.35 15.3107 159.113 15.164C159.89 15.0173 160.609 14.944 161.269 14.944C162.941 14.944 164.166 15.2887 164.943 15.978C165.72 16.6673 166.109 17.7013 166.109 19.08V23.612ZM160.851 24.888C161.643 24.888 162.259 24.514 162.699 23.766V21.698H161.841C161.049 21.698 160.455 21.8373 160.059 22.116C159.678 22.3947 159.487 22.8273 159.487 23.414C159.487 23.8833 159.604 24.25 159.839 24.514C160.088 24.7633 160.426 24.888 160.851 24.888ZM172.354 27H168.878V15.318H177.15L176.732 17.958H172.354V27Z" fill="white"/>
</g>
</svg>
