<svg width="454" height="338" viewBox="0 0 454 338" fill="none" xmlns="http://www.w3.org/2000/svg">
<g filter="url(#filter0_d)">
<g clip-path="url(#clip0)">
<rect x="1" width="452" height="336" fill="white"/>
<rect x="1" y="81" width="452" height="315" fill="white"/>
<path d="M1 81H453V116H1V81Z" fill="#6078F4"/>
<g clip-path="url(#clip1)">
<g filter="url(#filter1_i)">
<path d="M50.7735 109.41C56.7524 105.958 58.8009 98.3133 55.349 92.3346C51.897 86.3559 44.2519 84.3075 38.273 87.7593C32.2941 91.2111 30.2456 98.8559 33.6975 104.835C37.1494 110.813 44.7946 112.862 50.7735 109.41Z" fill="#195AA9"/>
</g>
<mask id="mask0" mask-type="alpha" maskUnits="userSpaceOnUse" x="32" y="86" width="26" height="26">
<path d="M49.7198 95.5847C51.3766 98.4543 50.3935 102.124 47.5235 103.781C44.6534 105.438 40.9835 104.454 39.3265 101.585C37.6697 98.7149 38.6528 95.0454 41.5228 93.3885C44.393 91.7315 48.0629 92.7149 49.7198 95.5847Z" fill="#C4C4C4" stroke="#2C6EBF" stroke-width="13"/>
</mask>
<g mask="url(#mask0)">
<path fill-rule="evenodd" clip-rule="evenodd" d="M38.447 103.856L48.9642 103.954L49.7498 112.862H37.5629L38.447 103.856Z" fill="url(#paint0_linear)"/>
<path fill-rule="evenodd" clip-rule="evenodd" d="M51.6065 93.3487C52.5368 92.9341 53.5555 93.731 53.3262 94.6938L51.8633 100.871C51.8511 100.981 51.8388 101.091 51.8207 101.201C51.2674 104.749 47.3466 107.068 43.0674 106.383C38.8144 105.701 35.8049 102.306 36.3147 98.7813L36.6019 92.1629C36.6432 91.1362 37.9058 90.6802 38.6644 91.4149L41.1007 93.7688C42.3156 93.4109 43.6786 93.3136 45.0802 93.5382C46.3264 93.738 47.4644 94.1701 48.4359 94.7688L51.6065 93.3487Z" fill="url(#paint1_linear)"/>
<path fill-rule="evenodd" clip-rule="evenodd" d="M44.4556 100.243C44.6136 100.478 44.9381 100.53 45.1582 100.356C45.4996 100.094 45.3572 99.5496 44.9351 99.4812C44.5089 99.4122 44.2128 99.8855 44.4556 100.243Z" fill="white"/>
<path fill-rule="evenodd" clip-rule="evenodd" d="M49.4793 99.7935C49.3932 100.345 48.8282 100.714 48.2175 100.616C47.6108 100.519 47.1853 99.9921 47.2742 99.4411C47.3604 98.8889 47.9253 98.5208 48.532 98.6176C49.1428 98.7151 49.5643 99.2409 49.4793 99.7935ZM42.3353 98.6318C42.2463 99.1833 41.6855 99.5524 41.0734 99.4543C40.4666 99.3578 40.0411 98.8309 40.1274 98.2788C40.2163 97.7277 40.7772 97.3581 41.3892 97.4564C41.996 97.5531 42.4214 98.0801 42.3353 98.6318Z" fill="white"/>
<path d="M44.4706 106.463C41.9141 106.463 41.3238 110.343 41.3238 110.343H47.4207C47.4207 110.343 47.0272 106.463 44.4706 106.463Z" fill="white" fill-opacity="0.8"/>
</g>
<path d="M54.4829 92.8346C57.6587 98.335 55.774 105.368 50.2734 108.544C44.7728 111.72 37.7392 109.835 34.5635 104.335C31.3877 98.8342 33.2723 91.801 38.7729 88.6253C44.2735 85.4497 51.3071 87.3343 54.4829 92.8346Z" stroke="#2C6EBF" stroke-width="2"/>
<path d="M36.1961 105.906C36.2407 105.79 36.3421 105.704 36.4659 105.685C36.8306 105.629 37.6126 105.542 38.0702 105.729C38.5605 105.928 39.0679 106.489 39.2965 106.765C39.3764 106.861 39.3945 106.992 39.35 107.109L39.2712 107.316C38.939 108.187 37.9637 108.623 37.0929 108.291V108.291C36.222 107.959 35.7852 106.984 36.1174 106.113L36.1961 105.906Z" fill="url(#paint2_linear)"/>
<path d="M47.3436 108.325C47.3023 108.207 47.3245 108.076 47.4069 107.982C47.6499 107.704 48.1917 107.134 48.6616 106.981C49.1652 106.818 49.9147 106.919 50.2671 106.983C50.3901 107.005 50.4886 107.093 50.5298 107.211L50.6028 107.42C50.9104 108.3 50.4464 109.263 49.5665 109.57V109.57C48.6866 109.878 47.724 109.414 47.4165 108.534L47.3436 108.325Z" fill="url(#paint3_linear)"/>
</g>
<path d="M70.0547 95.4336V100.977C70.0547 101.953 69.7598 102.721 69.1699 103.279C68.5801 103.838 67.7695 104.117 66.7383 104.117C65.707 104.117 64.9082 103.836 64.3418 103.273C63.7793 102.711 63.498 101.938 63.498 100.953V95.4336H64.4941V101.023C64.4941 101.738 64.6895 102.287 65.0801 102.67C65.4707 103.053 66.0449 103.244 66.8027 103.244C67.5254 103.244 68.082 103.053 68.4727 102.67C68.8633 102.283 69.0586 101.73 69.0586 101.012V95.4336H70.0547ZM76.3242 102.248C76.3242 102.846 76.1016 103.307 75.6562 103.631C75.2109 103.955 74.5859 104.117 73.7812 104.117C72.9297 104.117 72.2656 103.982 71.7891 103.713V102.811C72.0977 102.967 72.4277 103.09 72.7793 103.18C73.1348 103.27 73.4766 103.314 73.8047 103.314C74.3125 103.314 74.7031 103.234 74.9766 103.074C75.25 102.91 75.3867 102.662 75.3867 102.33C75.3867 102.08 75.2773 101.867 75.0586 101.691C74.8438 101.512 74.4219 101.301 73.793 101.059C73.1953 100.836 72.7695 100.643 72.5156 100.479C72.2656 100.311 72.0781 100.121 71.9531 99.9102C71.832 99.6992 71.7715 99.4473 71.7715 99.1543C71.7715 98.6309 71.9844 98.2188 72.4102 97.918C72.8359 97.6133 73.4199 97.4609 74.1621 97.4609C74.8535 97.4609 75.5293 97.6016 76.1895 97.8828L75.8438 98.6738C75.1992 98.4082 74.6152 98.2754 74.0918 98.2754C73.6309 98.2754 73.2832 98.3477 73.0488 98.4922C72.8145 98.6367 72.6973 98.8359 72.6973 99.0898C72.6973 99.2617 72.7402 99.4082 72.8262 99.5293C72.916 99.6504 73.0586 99.7656 73.2539 99.875C73.4492 99.9844 73.8242 100.143 74.3789 100.35C75.1406 100.627 75.6543 100.906 75.9199 101.188C76.1895 101.469 76.3242 101.822 76.3242 102.248ZM80.625 104.117C79.6758 104.117 78.9258 103.828 78.375 103.25C77.8281 102.672 77.5547 101.869 77.5547 100.842C77.5547 99.8066 77.8086 98.9844 78.3164 98.375C78.8281 97.7656 79.5137 97.4609 80.373 97.4609C81.1777 97.4609 81.8145 97.7266 82.2832 98.2578C82.752 98.7852 82.9863 99.4824 82.9863 100.35V100.965H78.5625C78.582 101.719 78.7715 102.291 79.1309 102.682C79.4941 103.072 80.0039 103.268 80.6602 103.268C81.3516 103.268 82.0352 103.123 82.7109 102.834V103.701C82.3672 103.85 82.041 103.955 81.7324 104.018C81.4277 104.084 81.0586 104.117 80.625 104.117ZM80.3613 98.2754C79.8457 98.2754 79.4336 98.4434 79.125 98.7793C78.8203 99.1152 78.6406 99.5801 78.5859 100.174H81.9434C81.9434 99.5605 81.8066 99.0918 81.5332 98.7676C81.2598 98.4395 80.8691 98.2754 80.3613 98.2754ZM87.5801 97.4609C87.8652 97.4609 88.1211 97.4844 88.3477 97.5312L88.2129 98.4336C87.9473 98.375 87.7129 98.3457 87.5098 98.3457C86.9902 98.3457 86.5449 98.5566 86.1738 98.9785C85.8066 99.4004 85.623 99.9258 85.623 100.555V104H84.6504V97.5781H85.4531L85.5645 98.7676H85.6113C85.8496 98.3496 86.1367 98.0273 86.4727 97.8008C86.8086 97.5742 87.1777 97.4609 87.5801 97.4609ZM97.0605 104V99.8457C97.0605 99.3223 96.9414 98.9316 96.7031 98.6738C96.4648 98.416 96.0918 98.2871 95.584 98.2871C94.9121 98.2871 94.4199 98.4688 94.1074 98.832C93.7949 99.1953 93.6387 99.7949 93.6387 100.631V104H92.666V97.5781H93.457L93.6152 98.457H93.6621C93.8613 98.1406 94.1406 97.8965 94.5 97.7246C94.8594 97.5488 95.2598 97.4609 95.7012 97.4609C96.4746 97.4609 97.0566 97.6484 97.4473 98.0234C97.8379 98.3945 98.0332 98.9902 98.0332 99.8105V104H97.0605ZM103.986 104L103.793 103.086H103.746C103.426 103.488 103.105 103.762 102.785 103.906C102.469 104.047 102.072 104.117 101.596 104.117C100.959 104.117 100.459 103.953 100.096 103.625C99.7363 103.297 99.5566 102.83 99.5566 102.225C99.5566 100.928 100.594 100.248 102.668 100.186L103.758 100.15V99.752C103.758 99.248 103.648 98.877 103.43 98.6387C103.215 98.3965 102.869 98.2754 102.393 98.2754C101.857 98.2754 101.252 98.4395 100.576 98.7676L100.277 98.0234C100.594 97.8516 100.939 97.7168 101.314 97.6191C101.693 97.5215 102.072 97.4727 102.451 97.4727C103.217 97.4727 103.783 97.6426 104.15 97.9824C104.521 98.3223 104.707 98.8672 104.707 99.6172V104H103.986ZM101.789 103.314C102.395 103.314 102.869 103.148 103.213 102.816C103.561 102.484 103.734 102.02 103.734 101.422V100.842L102.762 100.883C101.988 100.91 101.43 101.031 101.086 101.246C100.746 101.457 100.576 101.787 100.576 102.236C100.576 102.588 100.682 102.855 100.893 103.039C101.107 103.223 101.406 103.314 101.789 103.314ZM114.902 104V99.8223C114.902 99.3105 114.793 98.9277 114.574 98.6738C114.355 98.416 114.016 98.2871 113.555 98.2871C112.949 98.2871 112.502 98.4609 112.213 98.8086C111.924 99.1562 111.779 99.6914 111.779 100.414V104H110.807V99.8223C110.807 99.3105 110.697 98.9277 110.479 98.6738C110.26 98.416 109.918 98.2871 109.453 98.2871C108.844 98.2871 108.396 98.4707 108.111 98.8379C107.83 99.2012 107.689 99.7988 107.689 100.631V104H106.717V97.5781H107.508L107.666 98.457H107.713C107.896 98.1445 108.154 97.9004 108.486 97.7246C108.822 97.5488 109.197 97.4609 109.611 97.4609C110.615 97.4609 111.271 97.8242 111.58 98.5508H111.627C111.818 98.2148 112.096 97.9492 112.459 97.7539C112.822 97.5586 113.236 97.4609 113.701 97.4609C114.428 97.4609 114.971 97.6484 115.33 98.0234C115.693 98.3945 115.875 98.9902 115.875 99.8105V104H114.902ZM120.598 104.117C119.648 104.117 118.898 103.828 118.348 103.25C117.801 102.672 117.527 101.869 117.527 100.842C117.527 99.8066 117.781 98.9844 118.289 98.375C118.801 97.7656 119.486 97.4609 120.346 97.4609C121.15 97.4609 121.787 97.7266 122.256 98.2578C122.725 98.7852 122.959 99.4824 122.959 100.35V100.965H118.535C118.555 101.719 118.744 102.291 119.104 102.682C119.467 103.072 119.977 103.268 120.633 103.268C121.324 103.268 122.008 103.123 122.684 102.834V103.701C122.34 103.85 122.014 103.955 121.705 104.018C121.4 104.084 121.031 104.117 120.598 104.117ZM120.334 98.2754C119.818 98.2754 119.406 98.4434 119.098 98.7793C118.793 99.1152 118.613 99.5801 118.559 100.174H121.916C121.916 99.5605 121.779 99.0918 121.506 98.7676C121.232 98.4395 120.842 98.2754 120.334 98.2754Z" fill="white"/>
<path d="M393 91C393 88.2386 395.239 86 398 86H424C426.761 86 429 88.2386 429 91V116H393V91Z" fill="white"/>
<rect x="247" y="89" width="55" height="20" rx="10" fill="white"/>
<rect x="247" y="89" width="55" height="20" rx="10" fill="white"/>
<rect x="277" y="91" width="23.1111" height="16" rx="8" fill="white"/>
<rect x="277" y="91" width="23.1111" height="16" rx="8" fill="#6078F4"/>
<path opacity="0.3" d="M263.752 99.7051C263.752 101.076 263.404 102.154 262.709 102.939C262.018 103.725 261.055 104.117 259.82 104.117C258.559 104.117 257.584 103.732 256.896 102.963C256.213 102.189 255.871 101.1 255.871 99.6934C255.871 98.2988 256.215 97.2188 256.902 96.4531C257.59 95.6836 258.566 95.2988 259.832 95.2988C261.062 95.2988 262.023 95.6895 262.715 96.4707C263.406 97.252 263.752 98.3301 263.752 99.7051ZM256.926 99.7051C256.926 100.865 257.172 101.746 257.664 102.348C258.16 102.945 258.879 103.244 259.82 103.244C260.77 103.244 261.486 102.945 261.971 102.348C262.455 101.75 262.697 100.869 262.697 99.7051C262.697 98.5527 262.455 97.6797 261.971 97.0859C261.49 96.4883 260.777 96.1895 259.832 96.1895C258.883 96.1895 258.16 96.4902 257.664 97.0918C257.172 97.6895 256.926 98.5605 256.926 99.7051ZM269.916 104V99.8457C269.916 99.3223 269.797 98.9316 269.559 98.6738C269.32 98.416 268.947 98.2871 268.439 98.2871C267.768 98.2871 267.275 98.4688 266.963 98.832C266.65 99.1953 266.494 99.7949 266.494 100.631V104H265.521V97.5781H266.312L266.471 98.457H266.518C266.717 98.1406 266.996 97.8965 267.355 97.7246C267.715 97.5488 268.115 97.4609 268.557 97.4609C269.33 97.4609 269.912 97.6484 270.303 98.0234C270.693 98.3945 270.889 98.9902 270.889 99.8105V104H269.916Z" fill="black"/>
<g clip-path="url(#clip2)">
<path d="M339.953 83.4844C339.932 83.4883 339.91 83.4941 339.891 83.5C339.658 83.5527 339.494 83.7617 339.5 84C339.5 84.9492 339.061 85.4707 338.25 85.9844C337.439 86.498 336.268 86.9141 335.062 87.4219C333.857 87.9297 332.609 88.541 331.641 89.5625C330.76 90.4922 330.148 91.7695 330.047 93.4844C329.145 93.416 328.615 93.1367 327.984 92.8125C327.254 92.4375 326.387 92 325 92C324.145 92 323.326 92.5 322.547 93.2344C321.768 93.9687 321.014 94.9668 320.344 96.125C319.004 98.4414 318 101.369 318 104C318 105.084 318.27 106.051 318.781 106.781C319.293 107.512 320.084 108 321 108C323.416 108 325.17 106.779 326.625 105.641C328.08 104.502 329.25 103.5 330.5 103.5C331.75 103.5 332.92 104.502 334.375 105.641C335.83 106.779 337.584 108 340 108C340.916 108 341.707 107.512 342.219 106.781C342.73 106.051 343 105.084 343 104C343 101.369 341.996 98.4414 340.656 96.125C339.986 94.9668 339.232 93.9687 338.453 93.2344C337.674 92.5 336.855 92 336 92C334.613 92 333.746 92.4375 333.016 92.8125C332.41 93.123 331.898 93.3867 331.062 93.4687C331.16 91.998 331.65 91.0137 332.375 90.25C333.184 89.3965 334.289 88.8203 335.453 88.3281C336.617 87.8359 337.814 87.4395 338.781 86.8281C339.748 86.2168 340.5 85.3008 340.5 84C340.506 83.8555 340.447 83.7168 340.344 83.6191C340.238 83.5195 340.096 83.4707 339.953 83.4844V83.4844ZM325 93C326.193 93 326.785 93.3125 327.516 93.6875C328.246 94.0625 329.113 94.5 330.5 94.5C330.549 94.5 330.594 94.502 330.641 94.5C330.646 94.5 330.65 94.5 330.656 94.5C331.951 94.4687 332.783 94.0488 333.484 93.6875C334.215 93.3125 334.807 93 336 93C336.434 93 337.084 93.3125 337.766 93.9531C338.447 94.5937 339.148 95.5332 339.781 96.625C341.047 98.8086 342 101.631 342 104C342 104.916 341.77 105.699 341.406 106.219C341.043 106.738 340.584 107 340 107C337.916 107 336.42 105.971 335 104.859C333.58 103.748 332.25 102.5 330.5 102.5C328.75 102.5 327.42 103.748 326 104.859C324.58 105.971 323.084 107 321 107C320.416 107 319.957 106.738 319.594 106.219C319.23 105.699 319 104.916 319 104C319 101.631 319.953 98.8086 321.219 96.625C321.852 95.5332 322.553 94.5937 323.234 93.9531C323.916 93.3125 324.566 93 325 93V93ZM336.5 96.5C335.947 96.5 335.5 96.9473 335.5 97.5C335.5 98.0527 335.947 98.5 336.5 98.5C337.053 98.5 337.5 98.0527 337.5 97.5C337.5 96.9473 337.053 96.5 336.5 96.5ZM324 97V98.5H322.5V100H324V101.5H325.5V100H327V98.5H325.5V97H324ZM334.5 98.5C333.947 98.5 333.5 98.9473 333.5 99.5C333.5 100.053 333.947 100.5 334.5 100.5C335.053 100.5 335.5 100.053 335.5 99.5C335.5 98.9473 335.053 98.5 334.5 98.5ZM338.5 98.5C337.947 98.5 337.5 98.9473 337.5 99.5C337.5 100.053 337.947 100.5 338.5 100.5C339.053 100.5 339.5 100.053 339.5 99.5C339.5 98.9473 339.053 98.5 338.5 98.5ZM336.5 100.5C335.947 100.5 335.5 100.947 335.5 101.5C335.5 102.053 335.947 102.5 336.5 102.5C337.053 102.5 337.5 102.053 337.5 101.5C337.5 100.947 337.053 100.5 336.5 100.5Z" fill="white"/>
</g>
<path d="M410.5 102.625C412.226 102.625 413.625 101.226 413.625 99.5C413.625 97.7741 412.226 96.375 410.5 96.375C408.774 96.375 407.375 97.7741 407.375 99.5C407.375 101.226 408.774 102.625 410.5 102.625Z" stroke="#6078F4" stroke-linecap="round" stroke-linejoin="round"/>
<path d="M418.208 102.625C418.07 102.939 418.028 103.288 418.09 103.626C418.151 103.964 418.312 104.275 418.552 104.521L418.615 104.583C418.808 104.777 418.962 105.007 419.067 105.26C419.172 105.512 419.226 105.784 419.226 106.057C419.226 106.331 419.172 106.602 419.067 106.855C418.962 107.108 418.808 107.338 418.615 107.531C418.421 107.725 418.191 107.879 417.938 107.983C417.686 108.088 417.414 108.142 417.141 108.142C416.867 108.142 416.596 108.088 416.343 107.983C416.09 107.879 415.86 107.725 415.667 107.531L415.604 107.469C415.359 107.229 415.047 107.068 414.709 107.006C414.371 106.945 414.023 106.986 413.708 107.125C413.4 107.257 413.138 107.476 412.952 107.756C412.767 108.035 412.668 108.363 412.667 108.698V108.875C412.667 109.428 412.447 109.957 412.056 110.348C411.666 110.739 411.136 110.958 410.583 110.958C410.031 110.958 409.501 110.739 409.11 110.348C408.72 109.957 408.5 109.428 408.5 108.875V108.781C408.492 108.436 408.38 108.102 408.18 107.822C407.979 107.541 407.699 107.327 407.375 107.208C407.061 107.07 406.712 107.028 406.374 107.09C406.036 107.151 405.725 107.312 405.479 107.552L405.417 107.615C405.223 107.808 404.993 107.962 404.741 108.067C404.488 108.172 404.217 108.226 403.943 108.226C403.669 108.226 403.398 108.172 403.145 108.067C402.892 107.962 402.662 107.808 402.469 107.615C402.275 107.421 402.121 107.191 402.017 106.938C401.912 106.686 401.858 106.414 401.858 106.141C401.858 105.867 401.912 105.596 402.017 105.343C402.121 105.09 402.275 104.86 402.469 104.667L402.531 104.604C402.771 104.359 402.933 104.047 402.994 103.709C403.055 103.371 403.014 103.023 402.875 102.708C402.743 102.4 402.524 102.138 402.244 101.952C401.965 101.767 401.637 101.668 401.302 101.667H401.125C400.572 101.667 400.043 101.447 399.652 101.056C399.261 100.666 399.042 100.136 399.042 99.5834C399.042 99.0308 399.261 98.5009 399.652 98.1102C400.043 97.7195 400.572 97.5 401.125 97.5H401.219C401.564 97.492 401.898 97.3804 402.178 97.1797C402.459 96.9791 402.673 96.6987 402.792 96.375C402.93 96.0608 402.972 95.7123 402.91 95.3744C402.849 95.0365 402.688 94.7247 402.448 94.4792L402.385 94.4167C402.192 94.2232 402.038 93.9934 401.933 93.7405C401.828 93.4876 401.774 93.2165 401.774 92.9427C401.774 92.6689 401.828 92.3978 401.933 92.1449C402.038 91.892 402.192 91.6623 402.385 91.4688C402.579 91.2751 402.809 91.1214 403.062 91.0166C403.315 90.9117 403.586 90.8578 403.859 90.8578C404.133 90.8578 404.404 90.9117 404.657 91.0166C404.91 91.1214 405.14 91.2751 405.333 91.4688L405.396 91.5313C405.641 91.7714 405.953 91.9325 406.291 91.9938C406.629 92.055 406.978 92.0137 407.292 91.875H407.375C407.683 91.743 407.946 91.5237 408.131 91.2443C408.316 90.9648 408.415 90.6373 408.417 90.3021V90.125C408.417 89.5725 408.636 89.0426 409.027 88.6519C409.418 88.2612 409.947 88.0417 410.5 88.0417C411.053 88.0417 411.582 88.2612 411.973 88.6519C412.364 89.0426 412.583 89.5725 412.583 90.125V90.2188C412.585 90.554 412.684 90.8815 412.869 91.1609C413.054 91.4404 413.317 91.6596 413.625 91.7917C413.939 91.9303 414.288 91.9717 414.626 91.9104C414.964 91.8492 415.275 91.6881 415.521 91.4479L415.583 91.3854C415.777 91.1917 416.007 91.0381 416.26 90.9332C416.512 90.8284 416.784 90.7744 417.057 90.7744C417.331 90.7744 417.602 90.8284 417.855 90.9332C418.108 91.0381 418.338 91.1917 418.531 91.3854C418.725 91.5789 418.879 91.8087 418.983 92.0616C419.088 92.3145 419.142 92.5856 419.142 92.8594C419.142 93.1332 419.088 93.4043 418.983 93.6572C418.879 93.9101 418.725 94.1399 418.531 94.3334L418.469 94.3959C418.229 94.6414 418.068 94.9532 418.006 95.2911C417.945 95.629 417.986 95.9775 418.125 96.2917V96.375C418.257 96.6831 418.476 96.9459 418.756 97.1309C419.035 97.316 419.363 97.4153 419.698 97.4167H419.875C420.428 97.4167 420.957 97.6362 421.348 98.0269C421.739 98.4176 421.958 98.9475 421.958 99.5C421.958 100.053 421.739 100.582 421.348 100.973C420.957 101.364 420.428 101.583 419.875 101.583H419.781C419.446 101.585 419.119 101.684 418.839 101.869C418.56 102.054 418.34 102.317 418.208 102.625V102.625Z" stroke="#6078F4" stroke-linecap="round" stroke-linejoin="round"/>
<path fill-rule="evenodd" clip-rule="evenodd" d="M367.5 100.303C367.174 100.35 366.84 100.375 366.5 100.375V108C366.5 109.105 367.395 110 368.5 110H378.25C379.355 110 380.25 109.105 380.25 108V92.75C380.25 91.6454 379.355 90.75 378.25 90.75H372.803C372.943 91.0713 373.06 91.4054 373.15 91.75H378.25C378.802 91.75 379.25 92.1977 379.25 92.75V108C379.25 108.552 378.802 109 378.25 109H368.5C367.948 109 367.5 108.552 367.5 108V100.303Z" fill="white"/>
<circle cx="366.5" cy="93.5" r="5" stroke="white"/>
<path d="M366.5 90.0625V93.5H369.938" stroke="white" stroke-linecap="round" stroke-linejoin="round"/>
<path d="M370.375 99H376.375" stroke="white" stroke-linecap="round"/>
<path d="M370.375 102H376.375" stroke="white" stroke-linecap="round"/>
<path d="M370.375 105H376.375" stroke="white" stroke-linecap="round"/>
<path opacity="0.7" d="M39.0264 148H36.3018V137.418H32.8125V135.15H42.5156V137.418H39.0264V148ZM49.7666 137.989C50.1299 137.989 50.4316 138.016 50.6719 138.068L50.4697 140.582C50.2529 140.523 49.9893 140.494 49.6787 140.494C48.8232 140.494 48.1553 140.714 47.6748 141.153C47.2002 141.593 46.9629 142.208 46.9629 142.999V148H44.2822V138.174H46.3125L46.708 139.826H46.8398C47.1445 139.275 47.5547 138.833 48.0703 138.499C48.5918 138.159 49.1572 137.989 49.7666 137.989ZM58.6963 148L58.1777 146.664H58.1074C57.6562 147.232 57.1904 147.628 56.71 147.851C56.2354 148.067 55.6143 148.176 54.8467 148.176C53.9033 148.176 53.1592 147.906 52.6143 147.367C52.0752 146.828 51.8057 146.061 51.8057 145.064C51.8057 144.021 52.1689 143.254 52.8955 142.762C53.6279 142.264 54.7295 141.988 56.2002 141.936L57.9053 141.883V141.452C57.9053 140.456 57.3955 139.958 56.376 139.958C55.5908 139.958 54.668 140.195 53.6074 140.67L52.7197 138.859C53.8506 138.268 55.1045 137.972 56.4814 137.972C57.7998 137.972 58.8105 138.259 59.5137 138.833C60.2168 139.407 60.5684 140.28 60.5684 141.452V148H58.6963ZM57.9053 143.447L56.8682 143.482C56.0889 143.506 55.5088 143.646 55.1279 143.904C54.7471 144.162 54.5566 144.555 54.5566 145.082C54.5566 145.838 54.9902 146.216 55.8574 146.216C56.4785 146.216 56.9736 146.037 57.3428 145.68C57.7178 145.322 57.9053 144.848 57.9053 144.256V143.447ZM72.4072 148H69.7266V142.261C69.7266 141.552 69.6006 141.021 69.3486 140.67C69.0967 140.312 68.6953 140.134 68.1445 140.134C67.3945 140.134 66.8525 140.386 66.5186 140.89C66.1846 141.388 66.0176 142.217 66.0176 143.377V148H63.3369V138.174H65.3848L65.7451 139.431H65.8945C66.1934 138.956 66.6035 138.599 67.125 138.358C67.6523 138.112 68.25 137.989 68.918 137.989C70.0605 137.989 70.9277 138.3 71.5195 138.921C72.1113 139.536 72.4072 140.427 72.4072 141.593V148ZM82.0225 145.082C82.0225 146.09 81.6709 146.857 80.9678 147.385C80.2705 147.912 79.2246 148.176 77.8301 148.176C77.1152 148.176 76.5059 148.126 76.002 148.026C75.498 147.933 75.0264 147.792 74.5869 147.604V145.39C75.085 145.624 75.6445 145.82 76.2656 145.979C76.8926 146.137 77.4434 146.216 77.918 146.216C78.8906 146.216 79.377 145.935 79.377 145.372C79.377 145.161 79.3125 144.991 79.1836 144.862C79.0547 144.728 78.832 144.578 78.5156 144.414C78.1992 144.244 77.7773 144.048 77.25 143.825C76.4941 143.509 75.9375 143.216 75.5801 142.946C75.2285 142.677 74.9707 142.369 74.8066 142.023C74.6484 141.672 74.5693 141.241 74.5693 140.731C74.5693 139.858 74.9062 139.185 75.5801 138.71C76.2598 138.229 77.2207 137.989 78.4629 137.989C79.6465 137.989 80.7979 138.247 81.917 138.763L81.1084 140.696C80.6162 140.485 80.1562 140.312 79.7285 140.178C79.3008 140.043 78.8643 139.976 78.4189 139.976C77.6279 139.976 77.2324 140.189 77.2324 140.617C77.2324 140.857 77.3584 141.065 77.6104 141.241C77.8682 141.417 78.4277 141.678 79.2891 142.023C80.0566 142.334 80.6191 142.624 80.9766 142.894C81.334 143.163 81.5977 143.474 81.7676 143.825C81.9375 144.177 82.0225 144.596 82.0225 145.082ZM86.7949 148H84.1143V134.324H86.7949V148ZM95.8564 148L95.3379 146.664H95.2676C94.8164 147.232 94.3506 147.628 93.8701 147.851C93.3955 148.067 92.7744 148.176 92.0068 148.176C91.0635 148.176 90.3193 147.906 89.7744 147.367C89.2354 146.828 88.9658 146.061 88.9658 145.064C88.9658 144.021 89.3291 143.254 90.0557 142.762C90.7881 142.264 91.8896 141.988 93.3604 141.936L95.0654 141.883V141.452C95.0654 140.456 94.5557 139.958 93.5361 139.958C92.751 139.958 91.8281 140.195 90.7676 140.67L89.8799 138.859C91.0107 138.268 92.2646 137.972 93.6416 137.972C94.96 137.972 95.9707 138.259 96.6738 138.833C97.377 139.407 97.7285 140.28 97.7285 141.452V148H95.8564ZM95.0654 143.447L94.0283 143.482C93.249 143.506 92.6689 143.646 92.2881 143.904C91.9072 144.162 91.7168 144.555 91.7168 145.082C91.7168 145.838 92.1504 146.216 93.0176 146.216C93.6387 146.216 94.1338 146.037 94.5029 145.68C94.8779 145.322 95.0654 144.848 95.0654 144.256V143.447ZM104.637 146.04C105.105 146.04 105.668 145.938 106.324 145.732V147.728C105.656 148.026 104.836 148.176 103.863 148.176C102.791 148.176 102.009 147.906 101.517 147.367C101.03 146.822 100.787 146.008 100.787 144.924V140.187H99.5039V139.053L100.98 138.156L101.754 136.082H103.468V138.174H106.219V140.187H103.468V144.924C103.468 145.305 103.573 145.586 103.784 145.768C104.001 145.949 104.285 146.04 104.637 146.04ZM112.389 139.896C111.82 139.896 111.375 140.078 111.053 140.441C110.73 140.799 110.546 141.309 110.499 141.971H114.261C114.249 141.309 114.076 140.799 113.742 140.441C113.408 140.078 112.957 139.896 112.389 139.896ZM112.767 148.176C111.185 148.176 109.948 147.739 109.058 146.866C108.167 145.993 107.722 144.757 107.722 143.157C107.722 141.511 108.132 140.239 108.952 139.343C109.778 138.44 110.918 137.989 112.371 137.989C113.76 137.989 114.841 138.385 115.614 139.176C116.388 139.967 116.774 141.06 116.774 142.454V143.755H110.438C110.467 144.517 110.692 145.111 111.114 145.539C111.536 145.967 112.128 146.181 112.89 146.181C113.481 146.181 114.041 146.119 114.568 145.996C115.096 145.873 115.646 145.677 116.221 145.407V147.481C115.752 147.716 115.251 147.889 114.718 148C114.185 148.117 113.534 148.176 112.767 148.176Z" fill="black"/>
<path opacity="0.7" d="M43.4492 187H38.2759V177.72H43.4492V178.678H39.355V181.668H43.2017V182.62H39.355V186.035H43.4492V187ZM50.1143 187V182.5C50.1143 181.932 49.9852 181.509 49.7271 181.23C49.4689 180.951 49.0648 180.811 48.5146 180.811C47.7868 180.811 47.2536 181.008 46.915 181.401C46.5765 181.795 46.4072 182.444 46.4072 183.35V187H45.3535V180.043H46.2104L46.3818 180.995H46.4326C46.6484 180.652 46.951 180.388 47.3403 180.202C47.7297 180.011 48.1634 179.916 48.6416 179.916C49.4795 179.916 50.11 180.119 50.5332 180.525C50.9564 180.927 51.168 181.573 51.168 182.461V187H50.1143ZM59.0327 180.043V180.709L57.7441 180.862C57.8626 181.01 57.9684 181.205 58.0615 181.446C58.1546 181.683 58.2012 181.951 58.2012 182.252C58.2012 182.933 57.9684 183.477 57.5029 183.883C57.0374 184.29 56.3984 184.493 55.5859 184.493C55.3786 184.493 55.1839 184.476 55.002 184.442C54.5534 184.679 54.3291 184.977 54.3291 185.337C54.3291 185.527 54.4074 185.669 54.564 185.762C54.7205 185.851 54.9893 185.896 55.3701 185.896H56.6016C57.3548 185.896 57.9325 186.054 58.3345 186.372C58.7407 186.689 58.9438 187.15 58.9438 187.755C58.9438 188.526 58.6349 189.112 58.0171 189.514C57.3993 189.92 56.4979 190.123 55.313 190.123C54.4032 190.123 53.7007 189.954 53.2056 189.615C52.7147 189.277 52.4692 188.799 52.4692 188.181C52.4692 187.757 52.6047 187.391 52.8755 187.083C53.1463 186.774 53.5272 186.564 54.0181 186.454C53.8403 186.374 53.6901 186.249 53.5674 186.08C53.4489 185.91 53.3896 185.714 53.3896 185.489C53.3896 185.235 53.4574 185.013 53.5928 184.823C53.7282 184.632 53.9419 184.448 54.2339 184.271C53.8742 184.122 53.5801 183.871 53.3516 183.515C53.1273 183.16 53.0151 182.753 53.0151 182.296C53.0151 181.535 53.2437 180.949 53.7007 180.538C54.1577 180.123 54.8052 179.916 55.6431 179.916C56.007 179.916 56.335 179.958 56.627 180.043H59.0327ZM53.4849 188.168C53.4849 188.545 53.6436 188.83 53.9609 189.025C54.2783 189.22 54.7332 189.317 55.3257 189.317C56.2101 189.317 56.8639 189.184 57.2871 188.917C57.7145 188.655 57.9282 188.297 57.9282 187.844C57.9282 187.468 57.8118 187.205 57.5791 187.057C57.3464 186.913 56.9084 186.841 56.2651 186.841H55.002C54.5238 186.841 54.1514 186.956 53.8848 187.184C53.6182 187.413 53.4849 187.741 53.4849 188.168ZM54.0562 182.271C54.0562 182.758 54.1937 183.126 54.4688 183.375C54.7438 183.625 55.1268 183.75 55.6177 183.75C56.646 183.75 57.1602 183.251 57.1602 182.252C57.1602 181.207 56.6396 180.684 55.5986 180.684C55.1035 180.684 54.7227 180.817 54.4561 181.084C54.1895 181.351 54.0562 181.746 54.0562 182.271ZM61.5146 187H60.4609V177.123H61.5146V187ZM64.8027 187H63.749V180.043H64.8027V187ZM63.6602 178.158C63.6602 177.917 63.7194 177.741 63.8379 177.631C63.9564 177.517 64.1045 177.459 64.2822 177.459C64.4515 177.459 64.5975 177.517 64.7202 177.631C64.8429 177.745 64.9043 177.921 64.9043 178.158C64.9043 178.395 64.8429 178.572 64.7202 178.691C64.5975 178.805 64.4515 178.862 64.2822 178.862C64.1045 178.862 63.9564 178.805 63.8379 178.691C63.7194 178.572 63.6602 178.395 63.6602 178.158ZM71.5249 185.102C71.5249 185.75 71.2837 186.249 70.8013 186.6C70.3188 186.951 69.6418 187.127 68.77 187.127C67.8475 187.127 67.1281 186.981 66.6118 186.689V185.711C66.9461 185.881 67.3037 186.014 67.6846 186.111C68.0697 186.209 68.4399 186.257 68.7954 186.257C69.3455 186.257 69.7687 186.171 70.0649 185.997C70.3612 185.819 70.5093 185.551 70.5093 185.191C70.5093 184.92 70.3908 184.689 70.1538 184.499C69.9211 184.304 69.464 184.076 68.7827 183.813C68.1353 183.572 67.674 183.363 67.3989 183.185C67.1281 183.003 66.925 182.798 66.7896 182.569C66.6584 182.341 66.5928 182.068 66.5928 181.75C66.5928 181.183 66.8234 180.737 67.2847 180.411C67.7459 180.081 68.3786 179.916 69.1826 179.916C69.9316 179.916 70.6637 180.068 71.3789 180.373L71.0044 181.23C70.3062 180.942 69.6735 180.798 69.1064 180.798C68.6071 180.798 68.2305 180.877 67.9766 181.033C67.7227 181.19 67.5957 181.406 67.5957 181.681C67.5957 181.867 67.6423 182.026 67.7354 182.157C67.8327 182.288 67.9871 182.413 68.1987 182.531C68.4103 182.65 68.8166 182.821 69.4175 183.045C70.2427 183.346 70.7992 183.648 71.0869 183.953C71.3789 184.258 71.5249 184.641 71.5249 185.102ZM78.0059 187V182.5C78.0059 181.932 77.8768 181.509 77.6187 181.23C77.3605 180.951 76.9564 180.811 76.4062 180.811C75.6742 180.811 75.1388 181.01 74.8003 181.408C74.466 181.806 74.2988 182.457 74.2988 183.363V187H73.2451V177.123H74.2988V180.113C74.2988 180.472 74.2819 180.771 74.248 181.008H74.3115C74.5189 180.674 74.813 180.411 75.1938 180.221C75.5789 180.026 76.0169 179.929 76.5078 179.929C77.3584 179.929 77.9953 180.132 78.4185 180.538C78.8459 180.94 79.0596 181.581 79.0596 182.461V187H78.0059Z" fill="black"/>
<rect x="31.5" y="169.5" width="169" height="24" rx="4.5" stroke="black" stroke-opacity="0.5"/>
<path opacity="0.6" d="M188.366 184.5C187.981 185.167 187.019 185.167 186.634 184.5L184.469 180.75C184.084 180.083 184.565 179.25 185.335 179.25H189.665C190.435 179.25 190.916 180.083 190.531 180.75L188.366 184.5Z" fill="black"/>
<path opacity="0.7" d="M260.355 183.141V187H259.276V177.72H261.821C262.96 177.72 263.8 177.938 264.341 178.374C264.887 178.809 265.16 179.465 265.16 180.341C265.16 181.569 264.538 182.398 263.294 182.83L265.814 187H264.538L262.291 183.141H260.355ZM260.355 182.214H261.834C262.596 182.214 263.154 182.064 263.51 181.763C263.865 181.458 264.043 181.004 264.043 180.398C264.043 179.785 263.861 179.343 263.497 179.072C263.137 178.801 262.558 178.666 261.758 178.666H260.355V182.214ZM268.144 180.043V184.556C268.144 185.123 268.273 185.546 268.531 185.826C268.789 186.105 269.193 186.245 269.743 186.245C270.471 186.245 271.002 186.046 271.336 185.648C271.675 185.25 271.844 184.601 271.844 183.699V180.043H272.898V187H272.028L271.876 186.067H271.819C271.603 186.41 271.303 186.672 270.917 186.854C270.537 187.036 270.101 187.127 269.61 187.127C268.764 187.127 268.129 186.926 267.706 186.524C267.287 186.122 267.077 185.479 267.077 184.594V180.043H268.144ZM279.626 185.102C279.626 185.75 279.385 186.249 278.903 186.6C278.42 186.951 277.743 187.127 276.872 187.127C275.949 187.127 275.23 186.981 274.713 186.689V185.711C275.048 185.881 275.405 186.014 275.786 186.111C276.171 186.209 276.542 186.257 276.897 186.257C277.447 186.257 277.87 186.171 278.167 185.997C278.463 185.819 278.611 185.551 278.611 185.191C278.611 184.92 278.492 184.689 278.255 184.499C278.023 184.304 277.566 184.076 276.884 183.813C276.237 183.572 275.776 183.363 275.5 183.185C275.23 183.003 275.027 182.798 274.891 182.569C274.76 182.341 274.694 182.068 274.694 181.75C274.694 181.183 274.925 180.737 275.386 180.411C275.847 180.081 276.48 179.916 277.284 179.916C278.033 179.916 278.765 180.068 279.48 180.373L279.106 181.23C278.408 180.942 277.775 180.798 277.208 180.798C276.709 180.798 276.332 180.877 276.078 181.033C275.824 181.19 275.697 181.406 275.697 181.681C275.697 181.867 275.744 182.026 275.837 182.157C275.934 182.288 276.089 182.413 276.3 182.531C276.512 182.65 276.918 182.821 277.519 183.045C278.344 183.346 278.901 183.648 279.188 183.953C279.48 184.258 279.626 184.641 279.626 185.102ZM285.834 185.102C285.834 185.75 285.593 186.249 285.111 186.6C284.628 186.951 283.951 187.127 283.08 187.127C282.157 187.127 281.438 186.981 280.921 186.689V185.711C281.256 185.881 281.613 186.014 281.994 186.111C282.379 186.209 282.75 186.257 283.105 186.257C283.655 186.257 284.078 186.171 284.375 185.997C284.671 185.819 284.819 185.551 284.819 185.191C284.819 184.92 284.7 184.689 284.463 184.499C284.231 184.304 283.774 184.076 283.092 183.813C282.445 183.572 281.984 183.363 281.708 183.185C281.438 183.003 281.235 182.798 281.099 182.569C280.968 182.341 280.902 182.068 280.902 181.75C280.902 181.183 281.133 180.737 281.594 180.411C282.056 180.081 282.688 179.916 283.492 179.916C284.241 179.916 284.973 180.068 285.688 180.373L285.314 181.23C284.616 180.942 283.983 180.798 283.416 180.798C282.917 180.798 282.54 180.877 282.286 181.033C282.032 181.19 281.905 181.406 281.905 181.681C281.905 181.867 281.952 182.026 282.045 182.157C282.142 182.288 282.297 182.413 282.508 182.531C282.72 182.65 283.126 182.821 283.727 183.045C284.552 183.346 285.109 183.648 285.396 183.953C285.688 184.258 285.834 184.641 285.834 185.102ZM288.608 187H287.555V180.043H288.608V187ZM287.466 178.158C287.466 177.917 287.525 177.741 287.644 177.631C287.762 177.517 287.91 177.459 288.088 177.459C288.257 177.459 288.403 177.517 288.526 177.631C288.649 177.745 288.71 177.921 288.71 178.158C288.71 178.395 288.649 178.572 288.526 178.691C288.403 178.805 288.257 178.862 288.088 178.862C287.91 178.862 287.762 178.805 287.644 178.691C287.525 178.572 287.466 178.395 287.466 178.158ZM295.121 187L294.912 186.01H294.861C294.514 186.446 294.167 186.742 293.82 186.898C293.477 187.051 293.048 187.127 292.531 187.127C291.841 187.127 291.3 186.949 290.906 186.594C290.517 186.238 290.322 185.733 290.322 185.077C290.322 183.672 291.446 182.935 293.693 182.868L294.874 182.83V182.398C294.874 181.852 294.755 181.45 294.518 181.192C294.285 180.93 293.911 180.798 293.395 180.798C292.815 180.798 292.159 180.976 291.427 181.332L291.103 180.525C291.446 180.339 291.82 180.193 292.227 180.087C292.637 179.982 293.048 179.929 293.458 179.929C294.287 179.929 294.901 180.113 295.299 180.481C295.701 180.849 295.902 181.439 295.902 182.252V187H295.121ZM292.741 186.257C293.397 186.257 293.911 186.077 294.283 185.718C294.66 185.358 294.848 184.854 294.848 184.207V183.579L293.794 183.623C292.957 183.653 292.351 183.784 291.979 184.017C291.611 184.245 291.427 184.603 291.427 185.089C291.427 185.47 291.541 185.76 291.77 185.959C292.002 186.158 292.326 186.257 292.741 186.257ZM302.84 187V182.5C302.84 181.932 302.711 181.509 302.453 181.23C302.194 180.951 301.79 180.811 301.24 180.811C300.512 180.811 299.979 181.008 299.641 181.401C299.302 181.795 299.133 182.444 299.133 183.35V187H298.079V180.043H298.936L299.107 180.995H299.158C299.374 180.652 299.677 180.388 300.066 180.202C300.455 180.011 300.889 179.916 301.367 179.916C302.205 179.916 302.836 180.119 303.259 180.525C303.682 180.927 303.894 181.573 303.894 182.461V187H302.84Z" fill="black"/>
<rect x="253.5" y="169.5" width="169" height="24" rx="4.5" stroke="black" stroke-opacity="0.5"/>
<path opacity="0.6" d="M408.366 184.5C407.981 185.167 407.019 185.167 406.634 184.5L404.469 180.75C404.084 180.083 404.565 179.25 405.335 179.25H409.665C410.435 179.25 410.916 180.083 410.531 180.75L408.366 184.5Z" fill="black"/>
<path opacity="0.7" d="M260.355 238.141V242H259.276V232.72H261.821C262.96 232.72 263.8 232.938 264.341 233.374C264.887 233.809 265.16 234.465 265.16 235.341C265.16 236.569 264.538 237.398 263.294 237.83L265.814 242H264.538L262.291 238.141H260.355ZM260.355 237.214H261.834C262.596 237.214 263.154 237.064 263.51 236.763C263.865 236.458 264.043 236.004 264.043 235.398C264.043 234.785 263.861 234.343 263.497 234.072C263.137 233.801 262.558 233.666 261.758 233.666H260.355V237.214ZM268.144 235.043V239.556C268.144 240.123 268.273 240.546 268.531 240.826C268.789 241.105 269.193 241.245 269.743 241.245C270.471 241.245 271.002 241.046 271.336 240.648C271.675 240.25 271.844 239.601 271.844 238.699V235.043H272.898V242H272.028L271.876 241.067H271.819C271.603 241.41 271.303 241.672 270.917 241.854C270.537 242.036 270.101 242.127 269.61 242.127C268.764 242.127 268.129 241.926 267.706 241.524C267.287 241.122 267.077 240.479 267.077 239.594V235.043H268.144ZM279.626 240.102C279.626 240.75 279.385 241.249 278.903 241.6C278.42 241.951 277.743 242.127 276.872 242.127C275.949 242.127 275.23 241.981 274.713 241.689V240.711C275.048 240.881 275.405 241.014 275.786 241.111C276.171 241.209 276.542 241.257 276.897 241.257C277.447 241.257 277.87 241.171 278.167 240.997C278.463 240.819 278.611 240.551 278.611 240.191C278.611 239.92 278.492 239.689 278.255 239.499C278.023 239.304 277.566 239.076 276.884 238.813C276.237 238.572 275.776 238.363 275.5 238.185C275.23 238.003 275.027 237.798 274.891 237.569C274.76 237.341 274.694 237.068 274.694 236.75C274.694 236.183 274.925 235.737 275.386 235.411C275.847 235.081 276.48 234.916 277.284 234.916C278.033 234.916 278.765 235.068 279.48 235.373L279.106 236.23C278.408 235.942 277.775 235.798 277.208 235.798C276.709 235.798 276.332 235.877 276.078 236.033C275.824 236.19 275.697 236.406 275.697 236.681C275.697 236.867 275.744 237.026 275.837 237.157C275.934 237.288 276.089 237.413 276.3 237.531C276.512 237.65 276.918 237.821 277.519 238.045C278.344 238.346 278.901 238.648 279.188 238.953C279.48 239.258 279.626 239.641 279.626 240.102ZM285.834 240.102C285.834 240.75 285.593 241.249 285.111 241.6C284.628 241.951 283.951 242.127 283.08 242.127C282.157 242.127 281.438 241.981 280.921 241.689V240.711C281.256 240.881 281.613 241.014 281.994 241.111C282.379 241.209 282.75 241.257 283.105 241.257C283.655 241.257 284.078 241.171 284.375 240.997C284.671 240.819 284.819 240.551 284.819 240.191C284.819 239.92 284.7 239.689 284.463 239.499C284.231 239.304 283.774 239.076 283.092 238.813C282.445 238.572 281.984 238.363 281.708 238.185C281.438 238.003 281.235 237.798 281.099 237.569C280.968 237.341 280.902 237.068 280.902 236.75C280.902 236.183 281.133 235.737 281.594 235.411C282.056 235.081 282.688 234.916 283.492 234.916C284.241 234.916 284.973 235.068 285.688 235.373L285.314 236.23C284.616 235.942 283.983 235.798 283.416 235.798C282.917 235.798 282.54 235.877 282.286 236.033C282.032 236.19 281.905 236.406 281.905 236.681C281.905 236.867 281.952 237.026 282.045 237.157C282.142 237.288 282.297 237.413 282.508 237.531C282.72 237.65 283.126 237.821 283.727 238.045C284.552 238.346 285.109 238.648 285.396 238.953C285.688 239.258 285.834 239.641 285.834 240.102ZM288.608 242H287.555V235.043H288.608V242ZM287.466 233.158C287.466 232.917 287.525 232.741 287.644 232.631C287.762 232.517 287.91 232.459 288.088 232.459C288.257 232.459 288.403 232.517 288.526 232.631C288.649 232.745 288.71 232.921 288.71 233.158C288.71 233.395 288.649 233.572 288.526 233.691C288.403 233.805 288.257 233.862 288.088 233.862C287.91 233.862 287.762 233.805 287.644 233.691C287.525 233.572 287.466 233.395 287.466 233.158ZM295.121 242L294.912 241.01H294.861C294.514 241.446 294.167 241.742 293.82 241.898C293.477 242.051 293.048 242.127 292.531 242.127C291.841 242.127 291.3 241.949 290.906 241.594C290.517 241.238 290.322 240.733 290.322 240.077C290.322 238.672 291.446 237.935 293.693 237.868L294.874 237.83V237.398C294.874 236.852 294.755 236.45 294.518 236.192C294.285 235.93 293.911 235.798 293.395 235.798C292.815 235.798 292.159 235.976 291.427 236.332L291.103 235.525C291.446 235.339 291.82 235.193 292.227 235.087C292.637 234.982 293.048 234.929 293.458 234.929C294.287 234.929 294.901 235.113 295.299 235.481C295.701 235.849 295.902 236.439 295.902 237.252V242H295.121ZM292.741 241.257C293.397 241.257 293.911 241.077 294.283 240.718C294.66 240.358 294.848 239.854 294.848 239.207V238.579L293.794 238.623C292.957 238.653 292.351 238.784 291.979 239.017C291.611 239.245 291.427 239.603 291.427 240.089C291.427 240.47 291.541 240.76 291.77 240.959C292.002 241.158 292.326 241.257 292.741 241.257ZM302.84 242V237.5C302.84 236.932 302.711 236.509 302.453 236.23C302.194 235.951 301.79 235.811 301.24 235.811C300.512 235.811 299.979 236.008 299.641 236.401C299.302 236.795 299.133 237.444 299.133 238.35V242H298.079V235.043H298.936L299.107 235.995H299.158C299.374 235.652 299.677 235.388 300.066 235.202C300.455 235.011 300.889 234.916 301.367 234.916C302.205 234.916 302.836 235.119 303.259 235.525C303.682 235.927 303.894 236.573 303.894 237.461V242H302.84Z" fill="black"/>
<rect x="253.5" y="224.5" width="169" height="24" rx="4.5" stroke="black" stroke-opacity="0.5"/>
<path opacity="0.6" d="M408.366 239.5C407.981 240.167 407.019 240.167 406.634 239.5L404.469 235.75C404.084 235.083 404.565 234.25 405.335 234.25H409.665C410.435 234.25 410.916 235.083 410.531 235.75L408.366 239.5Z" fill="black"/>
<path opacity="0.7" d="M75.8525 241.067H75.7954C75.3088 241.774 74.5809 242.127 73.6118 242.127C72.702 242.127 71.9932 241.816 71.4854 241.194C70.9818 240.572 70.73 239.687 70.73 238.541C70.73 237.394 70.9839 236.503 71.4917 235.868C71.9995 235.233 72.7062 234.916 73.6118 234.916C74.5555 234.916 75.2791 235.259 75.7827 235.944H75.8652L75.8208 235.443L75.7954 234.954V232.123H76.8491V242H75.9922L75.8525 241.067ZM73.7451 241.245C74.4645 241.245 74.985 241.05 75.3066 240.661C75.6325 240.267 75.7954 239.634 75.7954 238.763V238.541C75.7954 237.555 75.6304 236.852 75.3003 236.433C74.9744 236.01 74.4518 235.798 73.7324 235.798C73.1146 235.798 72.6406 236.04 72.3105 236.522C71.9847 237 71.8218 237.677 71.8218 238.553C71.8218 239.442 71.9847 240.113 72.3105 240.565C72.6364 241.018 73.1146 241.245 73.7451 241.245ZM85.0947 238.515C85.0947 239.649 84.8091 240.536 84.2378 241.175C83.6665 241.81 82.8773 242.127 81.8701 242.127C81.248 242.127 80.6958 241.981 80.2134 241.689C79.731 241.397 79.3586 240.978 79.0962 240.432C78.8338 239.886 78.7026 239.247 78.7026 238.515C78.7026 237.381 78.9862 236.499 79.5532 235.868C80.1203 235.233 80.9074 234.916 81.9146 234.916C82.8879 234.916 83.6602 235.24 84.2314 235.887C84.807 236.535 85.0947 237.411 85.0947 238.515ZM79.7944 238.515C79.7944 239.404 79.9722 240.081 80.3276 240.546C80.6831 241.012 81.2057 241.245 81.8955 241.245C82.5853 241.245 83.1079 241.014 83.4634 240.553C83.8231 240.087 84.0029 239.408 84.0029 238.515C84.0029 237.631 83.8231 236.96 83.4634 236.503C83.1079 236.042 82.5811 235.811 81.8828 235.811C81.193 235.811 80.6725 236.037 80.3213 236.49C79.9701 236.943 79.7944 237.618 79.7944 238.515ZM91.709 242V237.5C91.709 236.932 91.5799 236.509 91.3218 236.23C91.0636 235.951 90.6595 235.811 90.1094 235.811C89.3815 235.811 88.8483 236.008 88.5098 236.401C88.1712 236.795 88.002 237.444 88.002 238.35V242H86.9482V235.043H87.8052L87.9766 235.995H88.0273C88.2432 235.652 88.5457 235.388 88.9351 235.202C89.3244 235.011 89.7581 234.916 90.2363 234.916C91.0742 234.916 91.7048 235.119 92.1279 235.525C92.5511 235.927 92.7627 236.573 92.7627 237.461V242H91.709ZM95.8413 232.72L95.5874 236.071H94.9209L94.6606 232.72H95.8413ZM100.062 241.257C100.249 241.257 100.429 241.245 100.602 241.219C100.776 241.19 100.913 241.16 101.015 241.13V241.937C100.9 241.992 100.731 242.036 100.507 242.07C100.287 242.108 100.088 242.127 99.9102 242.127C98.5645 242.127 97.8916 241.418 97.8916 240V235.862H96.895V235.354L97.8916 234.916L98.3359 233.431H98.9453V235.043H100.964V235.862H98.9453V239.956C98.9453 240.375 99.0448 240.697 99.2437 240.921C99.4425 241.145 99.7155 241.257 100.062 241.257ZM110.276 240.102C110.276 240.75 110.035 241.249 109.552 241.6C109.07 241.951 108.393 242.127 107.521 242.127C106.598 242.127 105.879 241.981 105.363 241.689V240.711C105.697 240.881 106.055 241.014 106.436 241.111C106.821 241.209 107.191 241.257 107.546 241.257C108.097 241.257 108.52 241.171 108.816 240.997C109.112 240.819 109.26 240.551 109.26 240.191C109.26 239.92 109.142 239.689 108.905 239.499C108.672 239.304 108.215 239.076 107.534 238.813C106.886 238.572 106.425 238.363 106.15 238.185C105.879 238.003 105.676 237.798 105.541 237.569C105.409 237.341 105.344 237.068 105.344 236.75C105.344 236.183 105.574 235.737 106.036 235.411C106.497 235.081 107.13 234.916 107.934 234.916C108.683 234.916 109.415 235.068 110.13 235.373L109.755 236.23C109.057 235.942 108.424 235.798 107.857 235.798C107.358 235.798 106.981 235.877 106.728 236.033C106.474 236.19 106.347 236.406 106.347 236.681C106.347 236.867 106.393 237.026 106.486 237.157C106.584 237.288 106.738 237.413 106.95 237.531C107.161 237.65 107.568 237.821 108.168 238.045C108.994 238.346 109.55 238.648 109.838 238.953C110.13 239.258 110.276 239.641 110.276 240.102ZM116.757 242V237.5C116.757 236.932 116.628 236.509 116.37 236.23C116.111 235.951 115.707 235.811 115.157 235.811C114.425 235.811 113.89 236.01 113.551 236.408C113.217 236.806 113.05 237.457 113.05 238.363V242H111.996V232.123H113.05V235.113C113.05 235.472 113.033 235.771 112.999 236.008H113.062C113.27 235.674 113.564 235.411 113.945 235.221C114.33 235.026 114.768 234.929 115.259 234.929C116.109 234.929 116.746 235.132 117.169 235.538C117.597 235.94 117.811 236.581 117.811 237.461V242H116.757ZM125.986 238.515C125.986 239.649 125.701 240.536 125.129 241.175C124.558 241.81 123.769 242.127 122.762 242.127C122.14 242.127 121.587 241.981 121.105 241.689C120.623 241.397 120.25 240.978 119.988 240.432C119.725 239.886 119.594 239.247 119.594 238.515C119.594 237.381 119.878 236.499 120.445 235.868C121.012 235.233 121.799 234.916 122.806 234.916C123.779 234.916 124.552 235.24 125.123 235.887C125.699 236.535 125.986 237.411 125.986 238.515ZM120.686 238.515C120.686 239.404 120.864 240.081 121.219 240.546C121.575 241.012 122.097 241.245 122.787 241.245C123.477 241.245 124 241.014 124.355 240.553C124.715 240.087 124.895 239.408 124.895 238.515C124.895 237.631 124.715 236.96 124.355 236.503C124 236.042 123.473 235.811 122.774 235.811C122.085 235.811 121.564 236.037 121.213 236.49C120.862 236.943 120.686 237.618 120.686 238.515ZM133.521 242L132.245 237.918C132.165 237.669 132.014 237.102 131.794 236.217H131.744C131.574 236.958 131.426 237.529 131.299 237.931L129.985 242H128.767L126.869 235.043H127.973C128.422 236.791 128.762 238.122 128.995 239.036C129.232 239.95 129.368 240.565 129.401 240.883H129.452C129.499 240.642 129.573 240.331 129.674 239.95C129.78 239.565 129.871 239.26 129.947 239.036L131.223 235.043H132.366L133.61 239.036C133.847 239.764 134.008 240.375 134.092 240.87H134.143C134.16 240.718 134.204 240.483 134.276 240.166C134.353 239.848 134.795 238.141 135.603 235.043H136.695L134.771 242H133.521ZM147.34 238.515C147.34 239.649 147.054 240.536 146.483 241.175C145.912 241.81 145.122 242.127 144.115 242.127C143.493 242.127 142.941 241.981 142.458 241.689C141.976 241.397 141.604 240.978 141.341 240.432C141.079 239.886 140.948 239.247 140.948 238.515C140.948 237.381 141.231 236.499 141.798 235.868C142.365 235.233 143.153 234.916 144.16 234.916C145.133 234.916 145.905 235.24 146.477 235.887C147.052 236.535 147.34 237.411 147.34 238.515ZM142.04 238.515C142.04 239.404 142.217 240.081 142.573 240.546C142.928 241.012 143.451 241.245 144.141 241.245C144.83 241.245 145.353 241.014 145.708 240.553C146.068 240.087 146.248 239.408 146.248 238.515C146.248 237.631 146.068 236.96 145.708 236.503C145.353 236.042 144.826 235.811 144.128 235.811C143.438 235.811 142.918 236.037 142.566 236.49C142.215 236.943 142.04 237.618 142.04 238.515ZM153.954 242V237.5C153.954 236.932 153.825 236.509 153.567 236.23C153.309 235.951 152.905 235.811 152.354 235.811C151.627 235.811 151.093 236.008 150.755 236.401C150.416 236.795 150.247 237.444 150.247 238.35V242H149.193V235.043H150.05L150.222 235.995H150.272C150.488 235.652 150.791 235.388 151.18 235.202C151.569 235.011 152.003 234.916 152.481 234.916C153.319 234.916 153.95 235.119 154.373 235.525C154.796 235.927 155.008 236.573 155.008 237.461V242H153.954ZM163.793 242.127C163.34 242.127 162.925 242.044 162.549 241.879C162.176 241.71 161.863 241.452 161.609 241.105H161.533C161.584 241.511 161.609 241.896 161.609 242.26V245.123H160.556V235.043H161.413L161.559 235.995H161.609C161.88 235.614 162.195 235.339 162.555 235.17C162.915 235.001 163.327 234.916 163.793 234.916C164.715 234.916 165.426 235.231 165.926 235.862C166.429 236.492 166.681 237.377 166.681 238.515C166.681 239.658 166.425 240.546 165.913 241.181C165.405 241.812 164.699 242.127 163.793 242.127ZM163.641 235.811C162.93 235.811 162.416 236.008 162.098 236.401C161.781 236.795 161.618 237.421 161.609 238.28V238.515C161.609 239.493 161.772 240.193 162.098 240.616C162.424 241.035 162.947 241.245 163.666 241.245C164.267 241.245 164.737 241.001 165.075 240.515C165.418 240.028 165.589 239.357 165.589 238.502C165.589 237.635 165.418 236.971 165.075 236.509C164.737 236.044 164.258 235.811 163.641 235.811ZM172.807 242L172.597 241.01H172.546C172.199 241.446 171.852 241.742 171.505 241.898C171.163 242.051 170.733 242.127 170.217 242.127C169.527 242.127 168.985 241.949 168.592 241.594C168.202 241.238 168.008 240.733 168.008 240.077C168.008 238.672 169.131 237.935 171.378 237.868L172.559 237.83V237.398C172.559 236.852 172.441 236.45 172.204 236.192C171.971 235.93 171.596 235.798 171.08 235.798C170.5 235.798 169.844 235.976 169.112 236.332L168.789 235.525C169.131 235.339 169.506 235.193 169.912 235.087C170.323 234.982 170.733 234.929 171.144 234.929C171.973 234.929 172.587 235.113 172.984 235.481C173.386 235.849 173.587 236.439 173.587 237.252V242H172.807ZM170.426 241.257C171.082 241.257 171.596 241.077 171.969 240.718C172.345 240.358 172.534 239.854 172.534 239.207V238.579L171.48 238.623C170.642 238.653 170.037 238.784 169.665 239.017C169.296 239.245 169.112 239.603 169.112 240.089C169.112 240.47 169.227 240.76 169.455 240.959C169.688 241.158 170.012 241.257 170.426 241.257ZM181.458 235.043V235.709L180.17 235.862C180.288 236.01 180.394 236.205 180.487 236.446C180.58 236.683 180.627 236.951 180.627 237.252C180.627 237.933 180.394 238.477 179.929 238.883C179.463 239.29 178.824 239.493 178.012 239.493C177.804 239.493 177.61 239.476 177.428 239.442C176.979 239.679 176.755 239.977 176.755 240.337C176.755 240.527 176.833 240.669 176.99 240.762C177.146 240.851 177.415 240.896 177.796 240.896H179.027C179.781 240.896 180.358 241.054 180.76 241.372C181.167 241.689 181.37 242.15 181.37 242.755C181.37 243.526 181.061 244.112 180.443 244.514C179.825 244.92 178.924 245.123 177.739 245.123C176.829 245.123 176.126 244.954 175.631 244.615C175.14 244.277 174.895 243.799 174.895 243.181C174.895 242.757 175.03 242.391 175.301 242.083C175.572 241.774 175.953 241.564 176.444 241.454C176.266 241.374 176.116 241.249 175.993 241.08C175.875 240.91 175.815 240.714 175.815 240.489C175.815 240.235 175.883 240.013 176.019 239.823C176.154 239.632 176.368 239.448 176.66 239.271C176.3 239.122 176.006 238.871 175.777 238.515C175.553 238.16 175.441 237.753 175.441 237.296C175.441 236.535 175.669 235.949 176.126 235.538C176.583 235.123 177.231 234.916 178.069 234.916C178.433 234.916 178.761 234.958 179.053 235.043H181.458ZM175.911 243.168C175.911 243.545 176.069 243.83 176.387 244.025C176.704 244.22 177.159 244.317 177.751 244.317C178.636 244.317 179.29 244.184 179.713 243.917C180.14 243.655 180.354 243.297 180.354 242.844C180.354 242.468 180.238 242.205 180.005 242.057C179.772 241.913 179.334 241.841 178.691 241.841H177.428C176.95 241.841 176.577 241.956 176.311 242.184C176.044 242.413 175.911 242.741 175.911 243.168ZM176.482 237.271C176.482 237.758 176.619 238.126 176.895 238.375C177.17 238.625 177.553 238.75 178.043 238.75C179.072 238.75 179.586 238.251 179.586 237.252C179.586 236.207 179.065 235.684 178.024 235.684C177.529 235.684 177.148 235.817 176.882 236.084C176.615 236.351 176.482 236.746 176.482 237.271ZM185.826 242.127C184.797 242.127 183.985 241.814 183.388 241.188C182.796 240.561 182.5 239.692 182.5 238.579C182.5 237.457 182.775 236.566 183.325 235.906C183.879 235.246 184.622 234.916 185.553 234.916C186.424 234.916 187.114 235.204 187.622 235.779C188.13 236.351 188.384 237.106 188.384 238.045V238.712H183.591C183.612 239.529 183.818 240.149 184.207 240.572C184.601 240.995 185.153 241.207 185.864 241.207C186.613 241.207 187.353 241.05 188.085 240.737V241.676C187.713 241.837 187.36 241.951 187.025 242.019C186.695 242.091 186.295 242.127 185.826 242.127ZM185.54 235.798C184.981 235.798 184.535 235.98 184.201 236.344C183.871 236.708 183.676 237.212 183.617 237.855H187.254C187.254 237.191 187.106 236.683 186.81 236.332C186.513 235.976 186.09 235.798 185.54 235.798ZM194.674 240.102C194.674 240.75 194.433 241.249 193.951 241.6C193.468 241.951 192.791 242.127 191.919 242.127C190.997 242.127 190.278 241.981 189.761 241.689V240.711C190.096 240.881 190.453 241.014 190.834 241.111C191.219 241.209 191.589 241.257 191.945 241.257C192.495 241.257 192.918 241.171 193.214 240.997C193.511 240.819 193.659 240.551 193.659 240.191C193.659 239.92 193.54 239.689 193.303 239.499C193.07 239.304 192.613 239.076 191.932 238.813C191.285 238.572 190.823 238.363 190.548 238.185C190.278 238.003 190.074 237.798 189.939 237.569C189.808 237.341 189.742 237.068 189.742 236.75C189.742 236.183 189.973 235.737 190.434 235.411C190.895 235.081 191.528 234.916 192.332 234.916C193.081 234.916 193.813 235.068 194.528 235.373L194.154 236.23C193.456 235.942 192.823 235.798 192.256 235.798C191.757 235.798 191.38 235.877 191.126 236.033C190.872 236.19 190.745 236.406 190.745 236.681C190.745 236.867 190.792 237.026 190.885 237.157C190.982 237.288 191.137 237.413 191.348 237.531C191.56 237.65 191.966 237.821 192.567 238.045C193.392 238.346 193.949 238.648 194.236 238.953C194.528 239.258 194.674 239.641 194.674 240.102ZM200.825 242H199.771V235.043H200.825V242ZM199.683 233.158C199.683 232.917 199.742 232.741 199.86 232.631C199.979 232.517 200.127 232.459 200.305 232.459C200.474 232.459 200.62 232.517 200.743 232.631C200.865 232.745 200.927 232.921 200.927 233.158C200.927 233.395 200.865 233.572 200.743 233.691C200.62 233.805 200.474 233.862 200.305 233.862C200.127 233.862 199.979 233.805 199.86 233.691C199.742 233.572 199.683 233.395 199.683 233.158ZM207.82 242V237.5C207.82 236.932 207.691 236.509 207.433 236.23C207.175 235.951 206.771 235.811 206.221 235.811C205.493 235.811 204.96 236.008 204.621 236.401C204.283 236.795 204.113 237.444 204.113 238.35V242H203.06V235.043H203.917L204.088 235.995H204.139C204.354 235.652 204.657 235.388 205.046 235.202C205.436 235.011 205.869 234.916 206.348 234.916C207.186 234.916 207.816 235.119 208.239 235.525C208.662 235.927 208.874 236.573 208.874 237.461V242H207.82Z" fill="black"/>
<rect x="162" y="269" width="130" height="50" rx="5" fill="#6078F4"/>
<path d="M214.091 298.631C214.091 300.076 213.567 301.203 212.519 302.012C211.47 302.82 210.048 303.225 208.251 303.225C206.304 303.225 204.807 302.974 203.759 302.472V300.63C204.433 300.915 205.166 301.139 205.96 301.304C206.754 301.469 207.54 301.551 208.318 301.551C209.591 301.551 210.549 301.312 211.193 300.833C211.837 300.346 212.159 299.672 212.159 298.811C212.159 298.242 212.043 297.778 211.811 297.418C211.586 297.052 211.205 296.715 210.666 296.408C210.134 296.101 209.322 295.753 208.229 295.363C206.701 294.817 205.608 294.169 204.949 293.42C204.298 292.672 203.972 291.695 203.972 290.489C203.972 289.224 204.448 288.217 205.398 287.468C206.349 286.72 207.607 286.345 209.172 286.345C210.804 286.345 212.305 286.645 213.675 287.244L213.08 288.906C211.725 288.337 210.407 288.052 209.127 288.052C208.116 288.052 207.326 288.269 206.757 288.704C206.188 289.138 205.904 289.741 205.904 290.512C205.904 291.081 206.009 291.549 206.218 291.916C206.428 292.275 206.78 292.608 207.274 292.915C207.776 293.215 208.539 293.548 209.565 293.915C211.287 294.528 212.47 295.187 213.114 295.891C213.765 296.595 214.091 297.508 214.091 298.631ZM224.737 303L224.367 301.248H224.277C223.663 302.019 223.049 302.543 222.435 302.82C221.829 303.09 221.069 303.225 220.155 303.225C218.935 303.225 217.977 302.91 217.28 302.281C216.591 301.652 216.247 300.758 216.247 299.597C216.247 297.111 218.235 295.809 222.21 295.689L224.299 295.622V294.858C224.299 293.892 224.09 293.181 223.67 292.724C223.259 292.26 222.596 292.028 221.683 292.028C220.657 292.028 219.496 292.342 218.201 292.971L217.628 291.545C218.235 291.215 218.897 290.957 219.616 290.77C220.342 290.583 221.069 290.489 221.795 290.489C223.262 290.489 224.348 290.815 225.052 291.466C225.763 292.118 226.119 293.162 226.119 294.6V303H224.737ZM220.526 301.686C221.686 301.686 222.596 301.368 223.255 300.731C223.921 300.095 224.254 299.204 224.254 298.059V296.947L222.39 297.025C220.908 297.078 219.837 297.31 219.178 297.722C218.527 298.126 218.201 298.759 218.201 299.62C218.201 300.293 218.403 300.806 218.808 301.158C219.219 301.51 219.792 301.686 220.526 301.686ZM232.666 303L227.994 290.691H229.993L232.644 297.991C233.243 299.698 233.594 300.806 233.699 301.315H233.789C233.871 300.919 234.13 300.099 234.564 298.856C235.006 297.606 235.99 294.884 237.518 290.691H239.517L234.845 303H232.666ZM246.693 303.225C244.874 303.225 243.436 302.671 242.38 301.562C241.332 300.454 240.808 298.916 240.808 296.947C240.808 294.963 241.295 293.387 242.268 292.219C243.249 291.051 244.563 290.467 246.21 290.467C247.752 290.467 248.973 290.976 249.871 291.994C250.77 293.005 251.219 294.341 251.219 296.003V297.183H242.74C242.777 298.628 243.14 299.724 243.829 300.473C244.525 301.222 245.502 301.596 246.76 301.596C248.085 301.596 249.396 301.319 250.691 300.765V302.427C250.032 302.712 249.407 302.914 248.815 303.034C248.231 303.161 247.524 303.225 246.693 303.225ZM246.188 292.028C245.199 292.028 244.409 292.35 243.818 292.994C243.234 293.638 242.889 294.528 242.785 295.667H249.22C249.22 294.491 248.958 293.593 248.434 292.971C247.91 292.342 247.161 292.028 246.188 292.028Z" fill="white"/>
<g opacity="0.7">
<path d="M232 170L236 174L232 178" stroke="black" stroke-width="2" stroke-linecap="round" stroke-linejoin="round"/>
<path d="M218 180V178C218 176.939 218.421 175.922 219.172 175.172C219.922 174.421 220.939 174 222 174H236" stroke="black" stroke-width="2" stroke-linecap="round" stroke-linejoin="round"/>
<path d="M222 192L218 188L222 184" stroke="black" stroke-width="2" stroke-linecap="round" stroke-linejoin="round"/>
<path d="M236 182V184C236 185.061 235.579 186.078 234.828 186.828C234.078 187.579 233.061 188 232 188H218" stroke="black" stroke-width="2" stroke-linecap="round" stroke-linejoin="round"/>
</g>
<path d="M41 236L44 239L54 229" stroke="#6078F4" stroke-width="2" stroke-linecap="round" stroke-linejoin="round"/>
<path d="M53 237V244C53 244.53 52.7893 245.039 52.4142 245.414C52.0391 245.789 51.5304 246 51 246H37C36.4696 246 35.9609 245.789 35.5858 245.414C35.2107 245.039 35 244.53 35 244V230C35 229.47 35.2107 228.961 35.5858 228.586C35.9609 228.211 36.4696 228 37 228H48" stroke="#6078F4" stroke-width="2" stroke-linecap="round" stroke-linejoin="round"/>
<g clip-path="url(#clip3)">
<rect x="1" width="452" height="81" fill="white"/>
<g filter="url(#filter2_d)">
<rect x="1" y="-21" width="731" height="229" fill="#EBEBEB"/>
</g>
<path opacity="0.2" d="M370.285 67.1287C385.181 58.5273 390.284 39.4773 381.684 24.5793C373.084 9.68132 354.037 4.57693 339.141 13.1783C324.245 21.7796 319.141 40.8296 327.741 55.7277C336.341 70.6256 355.389 75.7299 370.285 67.1287Z" fill="#767676"/>
<path d="M365.207 58.3324C375.245 52.5358 378.685 39.6978 372.889 29.6578C367.093 19.6179 354.257 16.178 344.219 21.9745C334.18 27.7711 330.741 40.6091 336.536 50.6491C342.332 60.689 355.168 64.1288 365.207 58.3324Z" fill="#195AA9"/>
<path fill-rule="evenodd" clip-rule="evenodd" d="M337.977 53.1065C337.481 52.4474 337.018 51.7521 336.593 51.0216C336.076 50.132 335.632 49.2202 335.26 48.2933C335.831 47.9634 336.665 47.4845 337.83 46.817C338.136 46.6412 338.75 46.2874 339.193 46.0309C339.636 45.7743 340.459 45.2997 341.022 44.976L341.625 44.6287C341.601 44.5731 341.578 44.5182 341.556 44.4638C340.988 42.956 340.688 41.0664 340.747 39.3569C340.814 37.3946 341.18 35.8669 341.995 34.1559C343.14 31.7483 344.744 29.9255 347.046 28.4146C348.924 27.182 350.981 26.3591 352.812 26.1074C353.632 25.9948 355.323 25.9942 356.172 26.1062C358.416 26.4023 360.602 27.4389 362.617 29.1615C362.969 29.462 363.434 29.9006 363.651 30.1363C364.643 31.2119 365.787 32.8023 366.232 33.7224C366.641 34.5698 366.642 35.4273 366.233 36.261C365.919 36.9015 365.481 37.2961 364.372 37.9363C363.86 38.2315 362.884 38.7941 362.202 39.1867C359.013 41.0234 358.458 41.3433 357.182 42.0804C354.998 43.3419 351.765 45.205 351.294 45.4734C351.055 45.6092 350.599 45.8729 350.281 46.0594L349.702 46.3985L349.94 46.6436C350.511 47.2316 351.553 47.8784 352.505 48.237C353.621 48.657 353.92 48.7064 355.354 48.7064C356.539 48.7064 356.668 48.695 357.275 48.5366C358.078 48.3272 358.687 48.0953 359.483 47.6962C361.292 46.7881 362.618 45.4038 363.684 43.3089C363.978 42.7329 364.109 42.5491 364.468 42.2106C365.341 41.3874 366.323 41.0937 367.374 41.3412C369.125 41.7534 370.042 43.2354 369.519 44.8082C368.707 47.2527 366.115 50.3853 363.473 52.1166C362.835 52.5347 361.464 53.2398 360.622 53.5828C357.682 54.7807 354.632 55.0159 351.668 54.2734C350.481 53.9761 349.122 53.4203 348.126 52.8255C346.747 52.0012 345.212 50.6434 344.324 49.4619L344.318 49.4537L344.276 49.4779C342.092 50.7395 338.859 52.6026 338.387 52.8709C338.283 52.9305 338.136 53.0148 337.977 53.1065ZM357.987 33.1959C357.188 32.6571 356.363 32.2967 355.385 32.0592C353.975 31.7169 352.373 32.0226 350.794 32.9356C348.694 34.1493 347.486 35.6222 346.951 37.6231C346.73 38.4524 346.671 39.9785 346.827 40.8733C346.935 41.4951 346.991 41.6155 347.123 41.5108C347.192 41.4562 348.144 40.9052 350.736 39.4195C351.043 39.2437 351.656 38.8899 352.1 38.6333C352.543 38.3768 353.365 37.9021 353.928 37.5784C354.491 37.2548 355.425 36.7162 356.004 36.3815C356.584 36.0469 357.56 35.484 358.174 35.1309C358.787 34.7776 359.312 34.4666 359.339 34.4397C359.407 34.3724 358.517 33.5529 357.987 33.1959Z" fill="white"/>
<path d="M1 19.1588H283.609C295.204 19.1588 304.603 28.5584 304.603 40.1535V40.1535C304.603 51.7485 295.204 61.1482 283.609 61.1482H1V19.1588Z" fill="white"/>
<ellipse cx="408.885" cy="25.9312" rx="3.38579" ry="3.38624" fill="#686868"/>
<ellipse cx="408.885" cy="40.1535" rx="3.38579" ry="3.38624" fill="#686868"/>
<ellipse cx="408.885" cy="54.3757" rx="3.38579" ry="3.38625" fill="#686868"/>
<path d="M279.549 27.7372L283.385 35.5098L291.963 36.7638L285.756 42.8105L287.221 51.3529L279.549 47.3176L271.876 51.3529L273.341 42.8105L267.134 36.7638L275.712 35.5098L279.549 27.7372Z" stroke="#686868" stroke-width="3" stroke-linecap="round" stroke-linejoin="round"/>
<path d="M350.794 68.5C352.719 65.1667 357.53 65.1667 359.454 68.5L367.249 82H343L350.794 68.5Z" fill="#6178F5"/>
</g>
</g>
</g>
<defs>
<filter id="filter0_d" x="0" y="0" width="454" height="338" filterUnits="userSpaceOnUse" color-interpolation-filters="sRGB">
<feFlood flood-opacity="0" result="BackgroundImageFix"/>
<feColorMatrix in="SourceAlpha" type="matrix" values="0 0 0 0 0 0 0 0 0 0 0 0 0 0 0 0 0 0 127 0"/>
<feOffset dy="1"/>
<feGaussianBlur stdDeviation="0.5"/>
<feColorMatrix type="matrix" values="0 0 0 0 0 0 0 0 0 0 0 0 0 0 0 0 0 0 0.25 0"/>
<feBlend mode="normal" in2="BackgroundImageFix" result="effect1_dropShadow"/>
<feBlend mode="normal" in="SourceGraphic" in2="effect1_dropShadow" result="shape"/>
</filter>
<filter id="filter1_i" x="32.0206" y="86.0825" width="37.0052" height="37.0042" filterUnits="userSpaceOnUse" color-interpolation-filters="sRGB">
<feFlood flood-opacity="0" result="BackgroundImageFix"/>
<feBlend mode="normal" in="SourceGraphic" in2="BackgroundImageFix" result="shape"/>
<feColorMatrix in="SourceAlpha" type="matrix" values="0 0 0 0 0 0 0 0 0 0 0 0 0 0 0 0 0 0 127 0" result="hardAlpha"/>
<feOffset dx="32" dy="22"/>
<feGaussianBlur stdDeviation="6"/>
<feComposite in2="hardAlpha" operator="arithmetic" k2="-1" k3="1"/>
<feColorMatrix type="matrix" values="0 0 0 0 0 0 0 0 0 0 0 0 0 0 0 0 0 0 0.25 0"/>
<feBlend mode="normal" in2="shape" result="effect1_innerShadow"/>
</filter>
<filter id="filter2_d" x="-3" y="-21" width="739" height="237" filterUnits="userSpaceOnUse" color-interpolation-filters="sRGB">
<feFlood flood-opacity="0" result="BackgroundImageFix"/>
<feColorMatrix in="SourceAlpha" type="matrix" values="0 0 0 0 0 0 0 0 0 0 0 0 0 0 0 0 0 0 127 0"/>
<feOffset dy="4"/>
<feGaussianBlur stdDeviation="2"/>
<feColorMatrix type="matrix" values="0 0 0 0 0 0 0 0 0 0 0 0 0 0 0 0 0 0 0.25 0"/>
<feBlend mode="normal" in2="BackgroundImageFix" result="effect1_dropShadow"/>
<feBlend mode="normal" in="SourceGraphic" in2="effect1_dropShadow" result="shape"/>
</filter>
<linearGradient id="paint0_linear" x1="43.6564" y1="103.856" x2="43.6564" y2="110.343" gradientUnits="userSpaceOnUse">
<stop stop-color="#DE9300"/>
<stop offset="1" stop-color="#F0BB04"/>
</linearGradient>
<linearGradient id="paint1_linear" x1="44.2849" y1="91.0146" x2="41.6971" y2="106.068" gradientUnits="userSpaceOnUse">
<stop stop-color="#FF9900"/>
<stop offset="0.249455" stop-color="#F0BB04"/>
</linearGradient>
<linearGradient id="paint2_linear" x1="38.0703" y1="105.728" x2="37.3663" y2="107.574" gradientUnits="userSpaceOnUse">
<stop stop-color="#DE9300"/>
<stop offset="1" stop-color="#F0BB04"/>
</linearGradient>
<linearGradient id="paint3_linear" x1="48.6615" y1="106.981" x2="49.3133" y2="108.846" gradientUnits="userSpaceOnUse">
<stop stop-color="#DE9300"/>
<stop offset="1" stop-color="#F0BB04"/>
</linearGradient>
<clipPath id="clip0">
<rect x="1" width="452" height="336" fill="white"/>
</clipPath>
<clipPath id="clip1">
<rect x="32" y="86" width="25.001" height="25" fill="white"/>
</clipPath>
<clipPath id="clip2">
<rect x="318" y="87" width="25" height="25" fill="white"/>
</clipPath>
<clipPath id="clip3">
<rect x="1" width="452" height="81" fill="white"/>
</clipPath>
</defs>
</svg>
