<svg width="163" height="163" viewBox="0 0 163 163" fill="none" xmlns="http://www.w3.org/2000/svg">
<path fill-rule="evenodd" clip-rule="evenodd" d="M91.0674 5.20303C90.065 5.668 88.8882 5.54431 88.0044 4.88109L83.3005 1.35122C82.2335 0.550585 80.7661 0.550583 79.6992 1.35122L74.9953 4.88109C74.1115 5.54431 72.9346 5.668 71.9323 5.20303L66.5972 2.72829C65.3872 2.16697 63.9518 2.47207 63.0747 3.47703L59.2075 7.90777C58.4809 8.74025 57.3555 9.10591 56.2783 8.85951L50.5453 7.54806C49.245 7.2506 47.9045 7.84745 47.2554 9.01283L44.3939 14.1508C43.8563 15.1161 42.8315 15.7078 41.7266 15.6907L35.8463 15.5999C34.5125 15.5793 33.3254 16.4418 32.9328 17.7167L31.2021 23.3373C30.8769 24.3933 29.9975 25.1851 28.9133 25.3981L23.1425 26.5319C21.8336 26.789 20.8517 27.8795 20.7328 29.2081L20.2085 35.0658C20.11 36.1663 19.4144 37.1237 18.3982 37.5574L12.9893 39.8662C11.7624 40.3899 11.0287 41.6607 11.1886 42.985L11.8936 48.8236C12.0261 49.9207 11.5448 51.0017 10.6409 51.6373L5.83023 55.0202C4.73908 55.7875 4.28563 57.1831 4.71738 58.4452L6.6209 64.0096C6.97855 65.0551 6.73252 66.2126 5.98055 67.0222L1.97832 71.3314C1.07055 72.3088 0.917163 73.7682 1.60189 74.9129L4.62073 79.9601C5.18793 80.9083 5.18793 82.0917 4.62073 83.0399L1.60189 88.0871C0.917164 89.2318 1.07055 90.6912 1.97832 91.6686L5.98055 95.9778C6.73252 96.7874 6.97854 97.9449 6.6209 98.9904L4.71738 104.555C4.28563 105.817 4.73908 107.213 5.83023 107.98L10.6409 111.363C11.5448 111.998 12.0261 113.079 11.8936 114.176L11.1886 120.015C11.0287 121.339 11.7624 122.61 12.9893 123.134L18.3982 125.443C19.4144 125.876 20.11 126.834 20.2085 127.934L20.7328 133.792C20.8517 135.12 21.8336 136.211 23.1425 136.468L28.9133 137.602C29.9975 137.815 30.8769 138.607 31.2021 139.663L32.9328 145.283C33.3254 146.558 34.5125 147.421 35.8463 147.4L41.7266 147.309C42.8315 147.292 43.8563 147.884 44.3939 148.849L47.2554 153.987C47.9045 155.153 49.245 155.749 50.5453 155.452L56.2783 154.141C57.3555 153.894 58.4809 154.26 59.2075 155.092L64.555 161.219L155.798 97.2926L161.021 91.6686C161.929 90.6912 162.082 89.2318 161.398 88.0871L158.379 83.0399C157.812 82.0917 157.812 80.9083 158.379 79.9601L161.398 74.9129C162.082 73.7682 161.929 72.3088 161.021 71.3314L157.019 67.0222C156.267 66.2126 156.021 65.0551 156.379 64.0096L158.282 58.4452C158.714 57.1831 158.261 55.7875 157.169 55.0202L152.359 51.6373C151.455 51.0017 150.974 49.9207 151.106 48.8236L151.811 42.985C151.971 41.6607 151.237 40.3899 150.01 39.8662L144.601 37.5574C143.585 37.1237 142.89 36.1663 142.791 35.0658L142.267 29.2081C142.148 27.8795 141.166 26.789 139.857 26.5319L134.086 25.3981C133.002 25.1851 132.123 24.3933 131.798 23.3373L130.067 17.7167C129.674 16.4418 128.487 15.5793 127.153 15.5999L121.273 15.6907C120.168 15.7078 119.143 15.1161 118.606 14.1508L115.744 9.01283C115.095 7.84745 113.755 7.2506 112.454 7.54806L106.721 8.85951C105.644 9.10591 104.519 8.74025 103.792 7.90777L99.925 3.47703C99.0478 2.47207 97.6125 2.16697 96.4024 2.72829L91.0674 5.20303Z" fill="#00B78B"/>
<path fill-rule="evenodd" clip-rule="evenodd" d="M91.0674 5.20303C90.065 5.668 88.8882 5.54431 88.0044 4.88109L83.3005 1.35122C82.2335 0.550585 80.7661 0.550583 79.6992 1.35122L74.9953 4.88109C74.1115 5.54431 72.9346 5.668 71.9323 5.20303L66.5972 2.72829C65.3872 2.16697 63.9518 2.47207 63.0747 3.47703L59.2075 7.90777C58.4809 8.74025 57.3555 9.10591 56.2783 8.85951L50.5453 7.54806C49.245 7.2506 47.9045 7.84745 47.2554 9.01283L44.3939 14.1508C43.8563 15.1161 42.8315 15.7078 41.7266 15.6907L35.8463 15.5999C34.5125 15.5793 33.3254 16.4418 32.9328 17.7167L31.2021 23.3373C30.8769 24.3933 29.9975 25.1851 28.9133 25.3981L23.1425 26.5319C21.8336 26.789 20.8517 27.8795 20.7328 29.2081L20.2085 35.0658C20.11 36.1663 19.4144 37.1237 18.3982 37.5574L12.9893 39.8662C11.7624 40.3899 11.0287 41.6607 11.1886 42.985L11.8936 48.8236C12.0261 49.9207 11.5448 51.0017 10.6409 51.6373L5.83023 55.0202C4.73908 55.7875 4.28563 57.1831 4.71738 58.4452L6.6209 64.0096C6.97855 65.0551 6.73252 66.2126 5.98055 67.0222L1.97832 71.3314C1.07055 72.3088 0.917163 73.7682 1.60189 74.9129L4.62073 79.9601C5.18793 80.9083 5.18793 82.0917 4.62073 83.0399L1.60189 88.0871C0.917164 89.2318 1.07055 90.6912 1.97832 91.6686L5.98055 95.9778C6.73252 96.7874 6.97854 97.9449 6.6209 98.9904L4.71738 104.555C4.28563 105.817 4.73908 107.213 5.83023 107.98L10.6409 111.363C11.5448 111.998 12.0261 113.079 11.8936 114.176L11.1886 120.015C11.0287 121.339 11.7624 122.61 12.9893 123.134L18.3982 125.443C19.4144 125.876 20.11 126.834 20.2085 127.934L20.7328 133.792C20.8517 135.12 21.8336 136.211 23.1425 136.468L28.9133 137.602C29.9975 137.815 30.8769 138.607 31.2021 139.663L32.9328 145.283C33.3254 146.558 34.5125 147.421 35.8463 147.4L41.7266 147.309C42.8315 147.292 43.8563 147.884 44.3939 148.849L47.2554 153.987C47.9045 155.153 49.245 155.749 50.5453 155.452L56.2783 154.141C57.3555 153.894 58.4809 154.26 59.2075 155.092L64.555 161.219L155.798 97.2926L161.021 91.6686C161.929 90.6912 162.082 89.2318 161.398 88.0871L158.379 83.0399C157.812 82.0917 157.812 80.9083 158.379 79.9601L161.398 74.9129C162.082 73.7682 161.929 72.3088 161.021 71.3314L157.019 67.0222C156.267 66.2126 156.021 65.0551 156.379 64.0096L158.282 58.4452C158.714 57.1831 158.261 55.7875 157.169 55.0202L152.359 51.6373C151.455 51.0017 150.974 49.9207 151.106 48.8236L151.811 42.985C151.971 41.6607 151.237 40.3899 150.01 39.8662L144.601 37.5574C143.585 37.1237 142.89 36.1663 142.791 35.0658L142.267 29.2081C142.148 27.8795 141.166 26.789 139.857 26.5319L134.086 25.3981C133.002 25.1851 132.123 24.3933 131.798 23.3373L130.067 17.7167C129.674 16.4418 128.487 15.5793 127.153 15.5999L121.273 15.6907C120.168 15.7078 119.143 15.1161 118.606 14.1508L115.744 9.01283C115.095 7.84745 113.755 7.2506 112.454 7.54806L106.721 8.85951C105.644 9.10591 104.519 8.74025 103.792 7.90777L99.925 3.47703C99.0478 2.47207 97.6125 2.16697 96.4024 2.72829L91.0674 5.20303Z" fill="url(#paint0_linear)"/>
<path d="M149.951 95.7761L144.036 93.5725C143.078 93.2157 142.005 93.3709 141.188 93.9842L135.995 97.8811C135.111 98.5443 133.934 98.668 132.932 98.203L127.597 95.7283C126.387 95.167 124.951 95.4721 124.074 96.477L120.207 100.908C119.48 101.74 118.355 102.106 117.278 101.86L111.545 100.548C110.245 100.251 108.904 100.847 108.255 102.013L105.393 107.151C104.856 108.116 103.831 108.708 102.726 108.691L96.8459 108.6C95.5121 108.579 94.3249 109.442 93.9324 110.717L92.2016 116.337C91.8765 117.393 90.9971 118.185 89.9128 118.398L84.1421 119.532C82.8332 119.789 81.8513 120.88 81.7324 122.208L81.2081 128.066C81.1095 129.166 80.414 130.124 79.3977 130.557L73.9888 132.866C72.762 133.39 72.0283 134.661 72.1882 135.985L72.8932 141.824C73.0257 142.921 72.5444 144.002 71.6405 144.637L66.8298 148.02C65.7386 148.787 65.2852 150.183 65.7169 151.445L66.9096 154.932C67.556 156.821 69.8342 157.563 71.4699 156.417L152.428 99.6966C154.227 98.4364 153.134 95.6059 150.956 95.8905C150.617 95.9349 150.271 95.8956 149.951 95.7761Z" fill="url(#paint1_linear)"/>
<path d="M41.0601 92.5326L38.3161 94.1168L35.081 88.5135L29.9394 91.482L33.1745 97.0853L30.4216 98.6747L22.926 85.6919L25.6789 84.1026L28.6166 89.1909L33.7582 86.2224L30.8205 81.1341L33.5644 79.5498L41.0601 92.5326ZM43.4142 84.5311C43.9816 85.5138 44.5704 86.1645 45.1806 86.4831C45.7968 86.7983 46.4689 86.7457 47.1971 86.3253C47.9193 85.9083 48.2938 85.3606 48.3204 84.6822C48.3496 83.9944 48.0788 83.1562 47.508 82.1675C46.9406 81.1848 46.3552 80.54 45.7518 80.2332C45.1485 79.9264 44.4827 79.9832 43.7545 80.4037C43.0323 80.8206 42.6531 81.3671 42.6172 82.0431C42.5777 82.7131 42.8434 83.5424 43.4142 84.5311ZM50.2786 80.5679C51.2117 82.1841 51.5152 83.6941 51.1891 85.098C50.8629 86.5019 49.9391 87.6431 48.4177 88.5215C47.4645 89.0718 46.5042 89.3499 45.5368 89.3559C44.566 89.356 43.6596 89.0781 42.8177 88.5222C41.9758 87.9664 41.2541 87.1675 40.6525 86.1255C39.716 84.5034 39.4112 82.9981 39.7383 81.6094C40.0653 80.2208 40.9955 79.0839 42.5288 78.1986C43.4819 77.6483 44.4422 77.3702 45.4097 77.3642C46.3771 77.3582 47.28 77.6302 48.1185 78.1801C48.957 78.73 49.677 79.526 50.2786 80.5679ZM60.3272 71.6406C60.6348 72.1734 60.7293 72.7266 60.6106 73.3003C60.4944 73.8647 60.1414 74.3882 59.5517 74.8707L59.5928 74.9417C60.3451 74.6179 61.0417 74.5393 61.6826 74.7061C62.326 74.8634 62.8169 75.2352 63.1553 75.8213C63.7124 76.7862 63.7591 77.742 63.2953 78.6887C62.828 79.6294 61.8899 80.5065 60.4809 81.32L55.3926 84.2577L49.6607 74.3297L54.749 71.392C56.1106 70.6058 57.257 70.2399 58.1883 70.2943C59.122 70.3393 59.835 70.7881 60.3272 71.6406ZM60.2672 77.2993C60.0416 76.9086 59.7283 76.7145 59.3272 76.7172C58.9227 76.7139 58.4186 76.8866 57.8147 77.2352L55.6657 78.4759L57.0193 80.8203L59.2215 79.5488C59.7958 79.2172 60.1694 78.8595 60.3423 78.4754C60.5178 78.0821 60.4927 77.69 60.2672 77.2993ZM57.7063 73.4379C57.3576 72.8341 56.7038 72.809 55.7447 73.3627L53.4714 74.6752L54.6045 76.6377L56.567 75.5047C57.1412 75.1731 57.5285 74.839 57.7288 74.5024C57.9291 74.1657 57.9216 73.8109 57.7063 73.4379ZM63.9133 66.1009L66.1794 70.026C66.4187 70.4404 66.9351 71.492 67.7286 73.1809L68.2912 63.5733L71.5502 61.6918L77.2822 71.6198L74.6625 73.1322L72.3759 69.1717C71.9692 68.4672 71.4541 67.4384 70.8308 66.0854L70.2757 75.6649L67.0256 77.5414L61.2937 67.6134L63.9133 66.1009ZM77.1092 58.4823L79.3138 62.3007L83.0967 60.1167L80.8921 56.2982L83.6006 54.7345L89.3325 64.6625L86.6241 66.2262L84.2605 62.1325L80.4776 64.3165L82.8411 68.4103L80.1327 69.974L74.4007 60.046L77.1092 58.4823ZM92.9514 49.3358L95.9351 47.6131L94.7492 54.6441L102.013 57.3412L98.9408 59.1151L91.9756 56.4231L94.8826 61.4581L92.1742 63.0219L86.4422 53.0939L89.1507 51.5301L91.9346 56.3521L92.9514 49.3358ZM109.739 52.8807L108.436 51.8335L108.365 51.8745C108.241 52.7119 108.001 53.3832 107.645 53.8885C107.292 54.3844 106.728 54.8562 105.952 55.304C104.999 55.8542 104.09 56.016 103.225 55.7892C102.366 55.559 101.646 54.9407 101.065 53.9343C100.456 52.8805 100.376 51.8931 100.823 50.972C101.272 50.0415 102.224 49.1207 103.68 48.2095L105.372 47.1616L105.12 46.7265C104.539 45.72 103.734 45.5142 102.704 46.1089C101.91 46.5669 101.116 47.345 100.322 48.4432L98.3685 47.1317C99.1659 45.8741 100.26 44.8437 101.651 44.0405C102.983 43.2714 104.172 42.9719 105.218 43.1419C106.263 43.312 107.127 43.989 107.811 45.173L111.631 51.7887L109.739 52.8807ZM106.284 48.7423L105.257 49.3828C104.483 49.861 103.979 50.3415 103.745 50.8241C103.51 51.3068 103.547 51.8145 103.854 52.3473C104.295 53.111 104.954 53.2399 105.83 52.7341C106.458 52.3718 106.854 51.9024 107.018 51.3259C107.188 50.7461 107.101 50.1572 106.756 49.5592L106.284 48.7423ZM114.215 44.5543L112.048 45.8053L106.586 37.3909L109.658 35.617L114.215 44.5543ZM113.313 49.1243C113.026 48.627 112.942 48.1742 113.061 47.7658C113.181 47.3574 113.495 47.0063 114.004 46.7123C114.495 46.4286 114.95 46.3401 115.366 46.4468C115.789 46.5501 116.141 46.8444 116.421 47.3299C116.691 47.7976 116.768 48.2462 116.653 48.6757C116.535 49.0994 116.233 49.4513 115.747 49.7316C115.25 50.0187 114.79 50.1106 114.367 50.0074C113.941 49.8982 113.59 49.6038 113.313 49.1243ZM43.6432 118.027C44.5592 119.614 44.8757 121.085 44.5926 122.44C44.3061 123.79 43.4583 124.871 42.0493 125.685C41.1791 126.187 40.2886 126.429 39.3779 126.41C38.4671 126.391 37.6078 126.106 36.7998 125.554C35.9918 125.002 35.2922 124.214 34.7009 123.19C33.7849 121.604 33.4689 120.14 33.7529 118.8C34.0335 117.454 34.8783 116.374 36.2873 115.561C37.6489 114.775 38.9908 114.604 40.3129 115.048C41.641 115.489 42.7511 116.482 43.6432 118.027ZM36.2283 122.308C36.9461 123.551 37.7416 124.355 38.6148 124.719C39.4881 125.083 40.4072 124.987 41.3722 124.43C42.3372 123.873 42.882 123.128 43.0068 122.195C43.134 121.254 42.837 120.158 42.1158 118.909C41.4015 117.672 40.6081 116.879 39.7358 116.53C38.8659 116.172 37.9426 116.275 36.9658 116.839C36.0008 117.396 35.4555 118.133 35.3298 119.05C35.2042 119.967 35.5037 121.053 36.2283 122.308ZM50.7222 109.145L47.5609 110.97L52.452 119.442L50.9779 120.293L46.0868 111.821L42.961 113.626L42.2329 112.365L49.9942 107.884L50.7222 109.145ZM69.7239 109.47L62.4866 113.648L54.991 100.666L62.2283 96.4871L63.0024 97.828L57.2748 101.135L59.6895 105.317L65.0709 102.21L65.84 103.542L60.4586 106.649L63.2169 111.427L68.9446 108.12L69.7239 109.47ZM78.3731 104.476L77.2803 103.26L77.2092 103.301C77.0759 104.191 76.8297 104.886 76.4707 105.385C76.1142 105.875 75.5748 106.329 74.8526 106.746C73.8876 107.303 72.9863 107.492 72.1486 107.312C71.3168 107.129 70.6361 106.579 70.1063 105.661C68.9715 103.696 69.9486 101.758 73.0375 99.8488L74.6584 98.8419L74.3098 98.238C73.8689 97.4743 73.3784 97.0076 72.8384 96.8379C72.3008 96.6589 71.671 96.7778 70.9487 97.1948C70.1377 97.6631 69.3636 98.4415 68.6265 99.5301L67.5225 98.6638C67.8517 98.1265 68.2577 97.6197 68.7405 97.1436C69.2293 96.6641 69.7609 96.2585 70.3351 95.927C71.4955 95.2571 72.5025 95.019 73.3564 95.2127C74.2162 95.4031 74.9742 96.0666 75.6304 97.2032L79.4654 103.846L78.3731 104.476ZM74.4432 105.36C75.3608 104.83 75.9349 104.163 76.1653 103.359C76.4017 102.552 76.2584 101.695 75.7354 100.789L75.2279 99.9103L73.7896 100.823C72.6414 101.542 71.9008 102.214 71.5678 102.84C71.2373 103.457 71.2686 104.106 71.6617 104.787C71.9693 105.32 72.3633 105.633 72.8436 105.727C73.3299 105.817 73.8631 105.695 74.4432 105.36ZM87.2566 95.8071C87.7795 96.7129 87.8454 97.6063 87.4542 98.4873C87.063 99.3683 86.2576 100.161 85.0381 100.865C83.7475 101.61 82.6232 101.987 81.6651 101.995L80.8755 100.628C81.48 100.595 82.0879 100.492 82.6993 100.321C83.3166 100.146 83.8739 99.915 84.3712 99.6279C85.1408 99.1836 85.6628 98.7204 85.9371 98.2384C86.2079 97.7505 86.1981 97.255 85.9075 96.7517C85.6888 96.3729 85.3367 96.1459 84.8514 96.0709C84.3686 95.9866 83.5446 96.036 82.3796 96.2193C81.279 96.4048 80.4645 96.4843 79.9362 96.4578C79.4103 96.422 78.9604 96.299 78.5863 96.0886C78.2183 95.8749 77.906 95.546 77.6497 95.102C77.1917 94.3087 77.1537 93.4979 77.5358 92.6695C77.9145 91.8352 78.6663 91.0933 79.7911 90.4439C80.839 89.8389 81.9862 89.4607 83.2328 89.3093L83.401 90.8106C82.1917 90.972 81.1905 91.2817 80.3972 91.7397C79.6986 92.1431 79.235 92.5568 79.0062 92.9809C78.7775 93.405 78.7742 93.8095 78.9964 94.1943C79.1467 94.4548 79.34 94.6392 79.5762 94.7475C79.8184 94.8524 80.1353 94.9023 80.527 94.8972C80.9187 94.892 81.6254 94.8037 82.6472 94.6321C84.0443 94.3859 85.0672 94.3597 85.7159 94.5536C86.3705 94.744 86.884 95.1618 87.2566 95.8071ZM84.0318 88.2323L85.6124 87.3197L90.948 91.6393C92.1472 92.6362 92.9653 93.3834 93.4025 93.8809L93.4735 93.8399C93.3762 93.4935 93.2387 92.8862 93.061 92.0179C92.8858 91.1402 92.3921 88.4257 91.5799 83.8744L93.1606 82.9618L95.3765 96.459C95.5944 97.7935 95.5567 98.8493 95.2634 99.6264C94.9794 100.406 94.4349 101.028 93.6297 101.493C93.1798 101.753 92.7067 101.959 92.2105 102.111L91.5287 100.93C91.8953 100.813 92.2799 100.639 92.6824 100.406C93.6948 99.8217 94.0889 98.8363 93.8648 97.4502L93.6067 95.7521L84.0318 88.2323ZM100.582 91.6537L93.0868 78.6709L94.5964 77.7993L101.302 89.4146L107.03 86.1077L107.82 87.4752L100.582 91.6537ZM115.794 82.8712L114.701 81.6551L114.63 81.6961C114.497 82.5862 114.251 83.2808 113.892 83.7802C113.535 84.2701 112.996 84.7236 112.274 85.1406C111.309 85.6977 110.407 85.8866 109.57 85.7072C108.738 85.5243 108.057 84.9741 107.527 84.0565C106.392 82.091 107.369 80.1535 110.458 78.2438L112.079 77.2369L111.731 76.6331C111.29 75.8694 110.799 75.4027 110.259 75.2329C109.722 75.0539 109.092 75.1729 108.37 75.5898C107.559 76.0581 106.785 76.8365 106.047 77.9251L104.943 77.0588C105.273 76.5215 105.679 76.0148 106.161 75.5386C106.65 75.0591 107.182 74.6535 107.756 74.322C108.916 73.6521 109.923 73.414 110.777 73.6077C111.637 73.7981 112.395 74.4616 113.051 75.5982L116.886 82.2406L115.794 82.8712ZM111.864 83.7548C112.782 83.2251 113.356 82.5582 113.586 81.7542C113.823 80.9468 113.679 80.0902 113.156 79.1844L112.649 78.3053L111.211 79.2185C110.062 79.9367 109.322 80.609 108.989 81.2354C108.658 81.8524 108.69 82.5014 109.083 83.1822C109.39 83.715 109.784 84.0282 110.265 84.1219C110.751 84.2122 111.284 84.0898 111.864 83.7548ZM126.592 76.6368L122.957 70.3408C122.499 69.5475 121.977 69.0598 121.39 68.8775C120.804 68.6953 120.125 68.8264 119.356 69.2707C118.337 69.8586 117.75 70.5645 117.595 71.3885C117.439 72.2125 117.727 73.258 118.458 74.5249L121.406 79.631L119.932 80.4821L114.313 70.7494L115.512 70.0573L116.521 71.2509L116.592 71.2099C116.617 70.556 116.826 69.9416 117.221 69.3667C117.612 68.7858 118.141 68.3023 118.81 67.916C119.983 67.2393 121.029 67.0142 121.949 67.2407C122.866 67.4613 123.683 68.1932 124.401 69.4365L128.066 75.7858L126.592 76.6368ZM133.45 59.7008L133.988 60.6332L132.308 61.8871C132.594 61.9986 132.899 62.1855 133.224 62.4478C133.546 62.7041 133.828 63.0424 134.071 63.4628C134.621 64.4159 134.735 65.3646 134.411 66.3089C134.088 67.2532 133.359 68.0535 132.222 68.7097C131.932 68.8772 131.646 69.0108 131.364 69.1104C130.928 69.8042 130.855 70.4027 131.145 70.9059C131.299 71.1723 131.523 71.3074 131.818 71.3112C132.108 71.3091 132.52 71.1542 133.053 70.8466L134.776 69.8519C135.83 69.2435 136.766 68.999 137.585 69.1183C138.409 69.2342 139.066 69.7154 139.555 70.562C140.177 71.6394 140.218 72.7089 139.678 73.7703C139.142 74.8377 138.045 75.8499 136.388 76.8069C135.115 77.5418 133.995 77.8723 133.029 77.7986C132.069 77.7215 131.339 77.2508 130.84 76.3864C130.499 75.7944 130.392 75.173 130.522 74.5221C130.651 73.8711 131.015 73.2705 131.613 72.7201C131.299 72.7511 130.988 72.6978 130.68 72.5602C130.377 72.4191 130.135 72.1916 129.954 71.8779C129.749 71.5226 129.664 71.1572 129.7 70.7814C129.736 70.4056 129.886 69.9755 130.151 69.491C129.528 69.5743 128.913 69.4596 128.306 69.1469C127.706 68.8308 127.221 68.353 126.851 67.7136C126.236 66.648 126.083 65.6435 126.39 64.7001C126.695 63.7508 127.433 62.9378 128.605 62.261C129.114 61.9671 129.607 61.7614 130.084 61.6439L133.45 59.7008ZM132.251 75.5484C132.555 76.0753 133.008 76.3467 133.609 76.3627C134.21 76.3786 134.925 76.1474 135.754 75.6689C136.992 74.9545 137.799 74.2399 138.175 73.5252C138.561 72.8129 138.571 72.1401 138.206 71.5066C137.901 70.9797 137.527 70.7067 137.082 70.6875C136.64 70.6742 135.969 70.9273 135.069 71.4468L133.302 72.4671C132.633 72.8533 132.204 73.3139 132.016 73.8489C131.827 74.384 131.906 74.9504 132.251 75.5484ZM128.287 66.8373C128.68 67.5181 129.17 67.9221 129.757 68.0492C130.343 68.1763 130.98 68.0416 131.666 67.6451C133.105 66.8146 133.421 65.7007 132.614 64.3036C131.77 62.8413 130.62 62.5306 129.163 63.3714C128.471 63.7713 128.046 64.2654 127.888 64.8537C127.73 65.442 127.863 66.1032 128.287 66.8373Z" fill="#1F1F1F"/>
<defs>
<linearGradient id="paint0_linear" x1="81.4998" y1="-2.41399e-06" x2="137" y2="81" gradientUnits="userSpaceOnUse">
<stop stop-color="#9AFFE7" stop-opacity="0.26"/>
<stop offset="0.574484" stop-color="#00B78B" stop-opacity="0"/>
</linearGradient>
<linearGradient id="paint1_linear" x1="112" y1="134" x2="98.9995" y2="114" gradientUnits="userSpaceOnUse">
<stop offset="0.327137" stop-color="#8B8989"/>
<stop offset="0.912127" stop-color="white"/>
</linearGradient>
</defs>
</svg>
