<svg width="165" height="24" viewBox="0 0 165 24" fill="none" xmlns="http://www.w3.org/2000/svg">
<path fill-rule="evenodd" clip-rule="evenodd" d="M10.1368 1.40952C10.7175 -0.469839 13.3777 -0.469838 13.9585 1.40952L15.8144 7.41543H22.0913C24.0044 7.41543 24.8257 9.84339 23.3055 11.0047L18.1424 14.949L20.0617 21.1602C20.6367 23.0206 18.4842 24.522 16.9368 23.3399L12.0476 19.605L7.15846 23.3399C5.61108 24.522 3.45859 23.0206 4.03349 21.1602L5.95285 14.949L0.789777 11.0047C-0.730449 9.84338 0.0908375 7.41543 2.0039 7.41543H8.28085L10.1368 1.40952ZM80.3445 1.40952C80.9253 -0.469839 83.5855 -0.469838 84.1662 1.40952L86.0222 7.41543H92.2991C94.2122 7.41543 95.0334 9.84339 93.5132 11.0047L88.3501 14.949L90.2695 21.1602C90.8444 23.0206 88.6919 24.522 87.1445 23.3399L82.2554 19.605L77.3662 23.3399C75.8188 24.522 73.6664 23.0206 74.2412 21.1602L76.1606 14.949L70.9975 11.0047C69.4773 9.84338 70.2986 7.41543 72.2117 7.41543H78.4886L80.3445 1.40952ZM154.374 1.40952C153.793 -0.469838 151.133 -0.469839 150.552 1.40952L148.696 7.41543H142.419C140.506 7.41543 139.685 9.84338 141.205 11.0047L146.368 14.949L144.449 21.1602C143.874 23.0206 146.027 24.522 147.574 23.3399L152.463 19.605L157.352 23.3399C158.9 24.522 161.052 23.0206 160.477 21.1602L158.558 14.949L163.721 11.0047C165.241 9.84339 164.42 7.41543 162.507 7.41543H156.23L154.374 1.40952ZM45.2407 1.40952C45.8214 -0.469839 48.4816 -0.469838 49.0623 1.40952L50.9183 7.41543H57.1952C59.1083 7.41543 59.9296 9.84339 58.4093 11.0047L53.2463 14.949L55.1656 21.1602C55.7405 23.0206 53.588 24.522 52.0407 23.3399L47.1515 19.605L42.2623 23.3399C40.715 24.522 38.5625 23.0206 39.1374 21.1602L41.0567 14.949L35.8937 11.0047C34.3734 9.84338 35.1947 7.41543 37.1078 7.41543H43.3847L45.2407 1.40952ZM119.27 1.40952C118.689 -0.469838 116.029 -0.469839 115.448 1.40952L113.592 7.41543H107.316C105.402 7.41543 104.581 9.84338 106.101 11.0047L111.264 14.949L109.345 21.1602C108.77 23.0206 110.923 24.522 112.47 23.3399L117.359 19.605L122.248 23.3399C123.796 24.522 125.948 23.0206 125.373 21.1602L123.454 14.949L128.617 11.0047C130.137 9.84339 129.316 7.41543 127.403 7.41543H121.126L119.27 1.40952Z" fill="url(#paint0_linear)"/>
<defs>
<linearGradient id="paint0_linear" x1="164.511" y1="23.7597" x2="24.5385" y2="-47.9185" gradientUnits="userSpaceOnUse">
<stop stop-color="#FF8341"/>
<stop offset="1" stop-color="#FFB741"/>
</linearGradient>
</defs>
</svg>
