<svg width="350" height="378" viewBox="0 0 350 378" fill="none" xmlns="http://www.w3.org/2000/svg">
<g clip-path="url(#clip0)">
<rect width="350" height="378" fill="white"/>
<text fill="#333333" xml:space="preserve" style="white-space: pre" font-family="Montserrat" font-size="16" font-weight="800" letter-spacing="0em"><tspan x="60" y="93.736">HIGHLIGHT AND TRANSLATE </tspan><tspan x="60" y="113.736">THE WORD</tspan></text>
<text fill="#333333" xml:space="preserve" style="white-space: pre" font-family="Montserrat" font-size="24" font-weight="800" letter-spacing="0em"><tspan visibility="hidden" x="42.1367" y="106.104">1</tspan></text>
<rect x="53" y="131" width="72" height="32" rx="2" fill="#6078F4"/>
<text fill="#333333" xml:space="preserve" style="white-space: pre" font-family="Montserrat" font-size="24" letter-spacing="0em"><tspan x="120.688" y="155.104"> dear friend! </tspan></text>
<text fill="white" xml:space="preserve" style="white-space: pre" font-family="Montserrat" font-size="24" font-weight="bold" letter-spacing="0em"><tspan x="56" y="155.104">Hello</tspan></text>
<g filter="url(#filter0_d)">
<rect x="58" y="179" width="235" height="80" rx="13" fill="white"/>
<circle cx="183" cy="219" r="26" fill="white"/>
<circle cx="183" cy="219" r="25.5" stroke="#333333" stroke-opacity="0.5"/>
<circle cx="253" cy="219" r="25.5" stroke="#333333" stroke-opacity="0.5"/>
<path opacity="0.5" d="M241 219.25H265.5" stroke="#333333"/>
<path opacity="0.5" d="M253.25 231.5V207" stroke="#333333"/>
<text fill="#333333" user-select="none" xml:space="preserve" style="white-space: pre" font-family="Montserrat" font-size="22" letter-spacing="0em"><tspan x="82" y="227.387">Hola</tspan></text>
<path d="M190.074 214.484V208H171V229.723H186.194" stroke="#333333" stroke-opacity="0.5"/>
<path d="M175.203 222.59L176.385 219.672M176.385 219.672L179.405 212.215L181.992 219.672H176.385Z" stroke="#333333" stroke-opacity="0.5" stroke-linejoin="round"/>
<path fill-rule="evenodd" clip-rule="evenodd" d="M189.574 225.832V230.695H190.574V225.832H194.246H195.246V224.832V220.348V219.348H194.246H190.574V217.402H189.574V219.348H185.901H184.901V220.348V224.832V225.832H185.901H189.574ZM190.574 224.832H194.246V220.348H190.574V224.832ZM189.574 220.348V224.832H185.901V220.348H189.574Z" fill="#333333" fill-opacity="0.5"/>
</g>
<path d="M47 39H295" stroke="url(#paint0_linear)" stroke-width="4" stroke-linecap="round" stroke-dasharray="1 8"/>
<circle id="stepA" cursor="pointer" cx="55" cy="39" r="15" fill="url(#paint1_linear)"/>
<circle id="stepB" cursor="pointer" cx="135" cy="39" r="15" fill="#C4C4C4"/>
<circle id="stepC" cursor="pointer" cx="215" cy="39" r="15" fill="#C4C4C4"/>
<text id="stepAText" user-select="none" cursor="pointer" fill="white" xml:space="preserve" style="white-space: pre" font-family="Montserrat" font-size="24" font-weight="800" letter-spacing="0em"><tspan x="50.1367" y="47.104">1</tspan></text>
<text id="stepBText" user-select="none" cursor="pointer" fill="white" xml:space="preserve" style="white-space: pre" font-family="Montserrat" font-size="24" font-weight="800" letter-spacing="0em"><tspan x="127.816" y="47.104">2</tspan></text>
<text id="stepCText" user-select="none" cursor="pointer" fill="white" xml:space="preserve" style="white-space: pre" font-family="Montserrat" font-size="24" font-weight="800" letter-spacing="0em"><tspan x="207.77" y="47.104">3</tspan></text>
<circle id="stepD" cursor="pointer" cx="295" cy="39" r="15" fill="#C4C4C4"/>
<text id="stepDText" cursor="pointer" fill="white" xml:space="preserve" style="white-space: pre" font-family="Montserrat" font-size="24" font-weight="800" letter-spacing="0em"><tspan x="286.598" y="47.104">4</tspan></text>
<path d="M55 217L48.9917 207.139L43.4562 217.273L55 217ZM32 181.575C32 167.46 39.8959 155.178 51.5356 148.879L50.5838 147.121C38.3267 153.753 30 166.694 30 181.575H32ZM47.6819 211.871C38.1868 205.127 32 194.07 32 181.575H30C30 194.747 36.5249 206.4 46.5238 213.501L47.6819 211.871Z" fill="url(#paint2_linear)"/>
<circle cx="50" cy="148" r="6.5" fill="white" stroke="url(#paint3_linear)" stroke-width="3"/>
<path id="right-arrow" cursor="pointer" d="M328.625 201.25L340.375 189.5L328.625 177.75" stroke="url(#paint4_linear)" stroke-width="2" stroke-linecap="round" stroke-linejoin="round"/>
<path id="left-arrow" visibility="hidden" cursor="pointer" d="M21.375 201.25L9.625 189.5L21.375 177.75" stroke="url(#paint5_linear)" stroke-width="2" stroke-linecap="round" stroke-linejoin="round"/>
<circle id="right-arrow-circle" cursor="pointer" fill="white" opacity="0.1" cx="330" cy="190" r="20"></circle>
<circle id="left-arrow-circle" visibility="hidden" cursor="pointer" fill="white" opacity="0.1" cx="20" cy="190" r="20"></circle>
</g>
<defs>
<filter id="filter0_d" x="57" y="179" width="237" height="82" filterUnits="userSpaceOnUse" color-interpolation-filters="sRGB">
<feFlood flood-opacity="0" result="BackgroundImageFix"/>
<feColorMatrix in="SourceAlpha" type="matrix" values="0 0 0 0 0 0 0 0 0 0 0 0 0 0 0 0 0 0 127 0"/>
<feOffset dy="1"/>
<feGaussianBlur stdDeviation="0.5"/>
<feColorMatrix type="matrix" values="0 0 0 0 0 0 0 0 0 0 0 0 0 0 0 0 0 0 0.25 0"/>
<feBlend mode="normal" in2="BackgroundImageFix" result="effect1_dropShadow"/>
<feBlend mode="normal" in="SourceGraphic" in2="effect1_dropShadow" result="shape"/>
</filter>
<linearGradient id="paint0_linear" x1="47" y1="39" x2="295" y2="39" gradientUnits="userSpaceOnUse">
<stop stop-color="#C4C4C4"/>
<stop offset="0.0201613" stop-color="#6078F4"/>
<stop offset="0.221774" stop-color="#6078F4"/>
<stop offset="0.375" stop-color="#C4C4C4"/>
<stop offset="1" stop-color="#C4C4C4" stop-opacity="0"/>
</linearGradient>
<linearGradient id="paint1_linear" x1="48.6842" y1="30.5455" x2="50.3734" y2="50.1041" gradientUnits="userSpaceOnUse">
<stop stop-color="#6178F5"/>
<stop offset="1" stop-color="#195AA9"/>
</linearGradient>
<linearGradient id="paint2_linear" x1="37.9474" y1="163.055" x2="48.5468" y2="205.743" gradientUnits="userSpaceOnUse">
<stop stop-color="#34DD96"/>
<stop offset="1" stop-color="#15C0A1"/>
</linearGradient>
<linearGradient id="paint3_linear" x1="46.6316" y1="143.491" x2="47.5325" y2="153.922" gradientUnits="userSpaceOnUse">
<stop stop-color="#34DD96"/>
<stop offset="1" stop-color="#15C0A1"/>
</linearGradient>
<linearGradient id="paint4_linear" x1="332.026" y1="182.877" x2="334.615" y2="197.865" gradientUnits="userSpaceOnUse">
<stop stop-color="#6178F5"/>
<stop offset="1" stop-color="#195AA9"/>
</linearGradient>
<linearGradient id="paint5_linear" x1="17.9737" y1="182.877" x2="15.3848" y2="197.865" gradientUnits="userSpaceOnUse">
<stop stop-color="#6178F5"/>
<stop offset="1" stop-color="#195AA9"/>
</linearGradient>
<clipPath id="clip0">
<rect width="350" height="378" fill="white"/>
</clipPath>
</defs>
</svg>
