<svg width="136" height="136" viewBox="0 0 136 136" fill="none" xmlns="http://www.w3.org/2000/svg">
<g opacity="0.6">
<path d="M106.25 21.25H29.75C25.0538 21.25 21.25 25.0538 21.25 29.75V89.25C21.25 93.9463 25.0538 97.75 29.75 97.75H38.25V114.75L55.25 97.75H106.25C110.946 97.75 114.75 93.9463 114.75 89.25V29.75C114.75 25.0538 110.946 21.25 106.25 21.25Z" fill="#E3EBF5"/>
<path d="M106.25 19.125H29.75C23.8914 19.125 19.125 23.8914 19.125 29.75V89.25C19.125 95.1086 23.8914 99.875 29.75 99.875H36.125V114.75C36.125 115.608 36.6414 116.386 37.4361 116.714C37.6996 116.824 37.9759 116.875 38.25 116.875C38.8025 116.875 39.3465 116.658 39.7524 116.252L56.1297 99.875H106.25C112.109 99.875 116.875 95.1086 116.875 89.25V29.75C116.875 23.8914 112.109 19.125 106.25 19.125ZM112.625 89.25C112.625 92.7647 109.765 95.625 106.25 95.625H55.25C54.6847 95.625 54.145 95.8481 53.7476 96.2476L40.375 109.62V97.75C40.375 96.5749 39.4251 95.625 38.25 95.625H29.75C26.2352 95.625 23.375 92.7647 23.375 89.25V29.75C23.375 26.2352 26.2352 23.375 29.75 23.375H106.25C109.765 23.375 112.625 26.2352 112.625 29.75V89.25Z" fill="#637CF2"/>
<path d="M55.25 57.375C56.4251 57.375 57.375 56.4251 57.375 55.25V38.25C57.375 37.0749 56.4251 36.125 55.25 36.125C54.0749 36.125 53.125 37.0749 53.125 38.25V55.25C53.125 56.4251 54.0749 57.375 55.25 57.375Z" fill="#637CF2"/>
<path d="M80.75 57.375C81.9251 57.375 82.875 56.4251 82.875 55.25V38.25C82.875 37.0749 81.9251 36.125 80.75 36.125C79.5749 36.125 78.625 37.0749 78.625 38.25V55.25C78.625 56.4251 79.5749 57.375 80.75 57.375Z" fill="#637CF2"/>
<path d="M97.75 61.625C96.5749 61.625 95.625 62.5749 95.625 63.75C95.625 71.9504 88.9504 78.625 80.75 78.625H55.25C47.0496 78.625 40.375 71.9504 40.375 63.75C40.375 62.5749 39.4251 61.625 38.25 61.625C37.0749 61.625 36.125 62.5749 36.125 63.75C36.125 74.2964 44.7036 82.875 55.25 82.875H80.75C91.2964 82.875 99.875 74.2964 99.875 63.75C99.875 62.5749 98.9251 61.625 97.75 61.625Z" fill="#637CF2"/>
</g>
</svg>
