<svg width="43" height="43" viewBox="0 0 43 43" fill="none" xmlns="http://www.w3.org/2000/svg">
<path d="M38.4283 26.1544C41.7811 29.1993 42.478 30.2863 42.5919 30.4718C43.9813 32.7255 41.0512 33 41.0512 33H34.8761C34.8761 33 33.3728 33.0168 32.0883 32.146C29.9945 30.7432 27.8017 28.0233 26.2609 28.4955C24.9792 28.8875 24.9793 30.6464 24.9795 32.1656C24.9795 32.1795 24.9795 32.1934 24.9795 32.2073C24.9795 32.7547 24.5193 33 23.4806 33C22.442 33 22.0103 33 21.5502 33C18.1674 33 14.4968 31.8348 10.8352 27.9206C5.65532 22.3874 1.11244 11.2413 1.11244 11.2413C1.11244 11.2413 0.844152 10.6802 1.13642 10.3383C1.46766 9.95497 2.36844 10.004 2.36844 10.004L8.35618 10.0025C8.35618 10.0025 8.91973 10.1114 9.3244 10.4027C9.65864 10.6418 9.84449 11.0987 9.84449 11.0987C9.84449 11.0987 10.8502 14.4962 12.1317 16.6626C14.6347 20.891 15.7993 20.9984 16.6491 20.543C17.8901 19.8837 17.4854 15.3885 17.4854 15.3885C17.4854 15.3885 17.5409 13.4583 16.8934 12.5981C16.3943 11.9328 15.4395 11.5786 15.0229 11.5234C14.6856 11.4789 15.2492 10.8749 15.9671 10.5299C16.9264 10.093 18.2318 9.98103 20.483 10.0025C22.2351 10.0194 22.7402 10.1267 23.4237 10.2877C25.4905 10.7752 24.9795 12.0615 24.9795 16.5782C24.9795 18.0256 24.7846 20.0601 25.8518 20.7347C26.3119 21.026 27.8886 21.3817 30.6944 16.7208C32.0268 14.51 33.0865 10.8427 33.0865 10.8427C33.0865 10.8427 33.3053 10.4395 33.6456 10.2401C33.9933 10.0362 33.9828 10.0408 34.4594 10.0408C34.936 10.0408 39.7157 10.0025 40.7649 10.0025C40.7846 10.0025 40.8043 10.0025 40.8239 10.0025C41.8493 10.0023 42.799 10.0021 42.9651 10.6188C43.208 11.5219 42.1918 14.6158 39.6168 17.9734C35.3857 23.4836 34.9165 22.9685 38.4283 26.1544Z" fill="white"/>
<path d="M38.4283 26.1544C41.7811 29.1993 42.478 30.2863 42.5919 30.4718C43.9813 32.7255 41.0512 33 41.0512 33H34.8761C34.8761 33 33.3728 33.0168 32.0883 32.146C29.9945 30.7432 27.8017 28.0233 26.2609 28.4955C24.9792 28.8875 24.9793 30.6464 24.9795 32.1656V32.2073C24.9795 32.7547 24.5193 33 23.4806 33H21.5502C18.1674 33 14.4968 31.8348 10.8352 27.9206C5.65532 22.3874 1.11244 11.2413 1.11244 11.2413C1.11244 11.2413 0.844152 10.6802 1.13642 10.3383C1.46766 9.95497 2.36844 10.004 2.36844 10.004L8.35618 10.0025C8.35618 10.0025 8.91973 10.1114 9.3244 10.4027C9.65864 10.6418 9.84449 11.0987 9.84449 11.0987C9.84449 11.0987 10.8502 14.4962 12.1317 16.6626C14.6347 20.891 15.7993 20.9984 16.6491 20.543C17.8901 19.8837 17.4854 15.3885 17.4854 15.3885C17.4854 15.3885 17.5409 13.4583 16.8934 12.5981C16.3943 11.9328 15.4395 11.5786 15.0229 11.5234C14.6856 11.4789 15.2492 10.8749 15.9671 10.5299C16.9264 10.093 18.2318 9.98103 20.483 10.0025C22.2351 10.0194 22.7402 10.1267 23.4237 10.2877C25.4905 10.7752 24.9795 12.0615 24.9795 16.5782C24.9795 18.0256 24.7846 20.0601 25.8518 20.7347C26.3119 21.026 27.8886 21.3817 30.6944 16.7208C32.0268 14.51 33.0865 10.8427 33.0865 10.8427C33.0865 10.8427 33.3053 10.4395 33.6456 10.2401C33.9933 10.0362 33.9828 10.0408 34.4594 10.0408C34.936 10.0408 39.7157 10.0025 40.7649 10.0025L40.8239 10.0025C41.8493 10.0023 42.799 10.0021 42.9651 10.6188C43.208 11.5219 42.1918 14.6158 39.6168 17.9734C35.3857 23.4836 34.9165 22.9685 38.4283 26.1544Z" fill="white"/>
</svg>
