<svg width="1919" height="514" viewBox="0 0 1919 514" fill="none" xmlns="http://www.w3.org/2000/svg">
<path d="M346.916 530.307V534.054H352.063L350.486 529.161L346.916 530.307ZM335.258 530.307L331.654 531.349L332.438 534.054H335.258V530.307ZM288.514 432.099L291.191 429.475L288.514 432.099ZM99.2064 331.004L99.9832 327.338L99.2064 331.004ZM133.57 376.102L130.91 378.744L130.954 378.789L131 378.832L133.57 376.102ZM133.57 376.104L136.222 373.456L136.182 373.414L136.141 373.375L133.57 376.104ZM133.573 376.106L136.233 373.465L136.224 373.457L133.573 376.106ZM175.498 418.809L178.203 416.212L175.498 418.809ZM271.157 473.994L269.893 477.522L271.157 473.994ZM327.313 508.971L323.931 510.59L327.313 508.971ZM373.875 530.307V534.054H377.404L377.618 530.534L373.875 530.307ZM347.126 530.307L343.431 530.939L343.963 534.054H347.126V530.307ZM378.079 501.338L374.443 500.414L378.079 501.338ZM426.726 454.685L428.685 457.879L426.726 454.685ZM434.179 450.103L437.903 450.532L438.793 442.837L432.203 446.918L434.179 450.103ZM435.814 502.735L432.09 503.17L432.1 503.262L432.115 503.352L435.814 502.735ZM435.814 502.735L439.54 502.303L439.528 502.211L439.513 502.121L435.814 502.735ZM437.683 530.307L433.939 530.113L433.733 534.054H437.683V530.307ZM450.895 530.307V534.054H453.203L454.243 531.995L450.895 530.307ZM462.161 501.495L458.554 500.472L462.161 501.495ZM470.899 424.393L468.505 421.51L467.13 422.651L467.149 424.436L470.899 424.393ZM510.426 379.682L513.602 381.672L510.426 379.682ZM543.596 327.998L540.456 325.95L540.452 325.956L543.596 327.998ZM543.598 327.994L546.739 330.041L546.741 330.039L543.598 327.994ZM543.604 327.986L546.745 330.032L546.756 330.015L543.604 327.986ZM543.604 327.984L540.461 325.943L540.452 325.956L543.604 327.984ZM568.885 275.346L567.383 271.913L568.885 275.346ZM401.706 415.523L398.548 413.5L401.706 415.523ZM369.203 492.099L365.453 492.114L372.842 493.004L369.203 492.099ZM373.549 424.149L377.215 424.942L373.549 424.149ZM400.86 377.313L403.86 379.562L403.922 379.478L403.98 379.392L400.86 377.313ZM400.86 377.313L397.86 375.065L397.798 375.149L397.74 375.235L400.86 377.313ZM400.86 377.313L397.862 375.065H397.86L400.86 377.313ZM454.013 267.668L450.311 267.074L454.013 267.668ZM460.123 158.365L457.888 155.357L460.123 158.365ZM360.445 337.064L356.749 336.427L360.445 337.064ZM357.323 486.058L353.629 486.706L361.067 485.861L357.323 486.058ZM352.558 460.076L348.872 460.765L352.558 460.076ZM344.066 399.436H340.316H344.066ZM363.068 258.452L359.408 257.641L359.402 257.661L359.398 257.684L363.068 258.452ZM363.068 258.452L366.73 259.265L366.733 259.242L366.739 259.222L363.068 258.452ZM376.941 169.86L373.193 169.754L376.941 169.86ZM338.845 4.27786L342.501 5.11521V5.11519L338.845 4.27786ZM292.345 125.688L295.536 127.654L292.345 125.688ZM274.675 197.068L270.928 197.253L274.675 197.068ZM297.371 299.923L300.908 298.68L297.371 299.923ZM322.095 383.438L318.435 384.249L322.095 383.438ZM325.635 400.385L322.078 401.571L329.314 399.655L325.635 400.385ZM296.359 331.059L299.644 329.253L296.359 331.059ZM69.165 231.704L70.6819 235.13L69.165 231.704ZM80.4375 241.965L79.3824 245.56L79.4548 245.581L79.5279 245.599L80.4375 241.965ZM80.4379 241.965L81.7194 238.444L81.5362 238.378L81.3474 238.329L80.4379 241.965ZM80.4382 241.965L79.1567 245.485L79.2688 245.526L79.3834 245.56L80.4382 241.965ZM127.751 262.05L129.897 258.978L127.751 262.05ZM159.878 299.369L162.916 297.173L159.878 299.369ZM267.745 387.743L266.869 391.386L267.745 387.743ZM346.234 525.044L349.933 524.429L349.931 524.422L346.234 525.044ZM346.234 525.046L349.952 524.549L349.945 524.489L349.933 524.429L346.234 525.046ZM346.234 525.046L342.518 525.542L342.531 525.639L342.55 525.737L346.234 525.046ZM346.236 525.047L349.941 524.474L349.931 524.416L349.92 524.356L346.236 525.047ZM346.236 525.049L342.529 525.623L342.536 525.664L342.544 525.707L346.236 525.049ZM346.236 525.053L349.93 524.403L349.928 524.397L346.236 525.053ZM346.236 525.057L349.935 524.435L349.931 524.42L349.93 524.405L346.236 525.057ZM346.243 525.098L342.546 525.718V525.72L346.243 525.098ZM475.868 530.307L472.211 529.472L471.161 534.054H475.868V530.307ZM486.246 530.307V534.054H488.995L489.821 531.437L486.246 530.307ZM503.805 441.235L500.434 439.594L503.805 441.235ZM613.146 333.777L611.74 330.304L613.146 333.777ZM587.82 407.262L584.43 405.662L587.82 407.262ZM526.798 474.33L529.063 477.315L526.798 474.33ZM497.241 502.327L493.946 500.538L497.241 502.327ZM142.716 432.152L145.903 430.177L142.716 432.152ZM183.459 530.307V534.054H188.606L187.028 529.159L183.459 530.307ZM23.3797 337.401L24.3971 333.795L23.3797 337.401ZM55.8109 407.676L59.0222 405.743L55.8109 407.676ZM123.111 467.612L121.179 470.823L123.111 467.612ZM155.266 492.18L152.171 494.295L155.266 492.18ZM173.71 530.307L170.224 531.688L171.163 534.054H173.71V530.307ZM151.055 530.307L148.503 533.054L149.582 534.054H151.055V530.307ZM159.918 530.307V534.054H166.516L163.14 528.391L159.918 530.307ZM118.364 517.907L117.562 521.567L118.364 517.907ZM56.1234 491.234L53.7199 494.109L56.1234 491.234ZM27.2692 467.68L24.8945 470.577L24.905 470.587L24.9155 470.596L27.2692 467.68ZM27.2674 467.678L29.642 464.778L29.6315 464.768L29.621 464.761L27.2674 467.678ZM2.7591 441.9L2.48891 445.637L2.7591 441.9ZM125.244 489.488L127.616 486.584L125.244 489.488ZM501.15 530.307L497.833 528.562L494.935 534.054H501.15V530.307ZM514.637 530.307V534.054H515.642L516.514 533.552L514.637 530.307ZM527.764 493.618L530.428 496.254L527.764 493.618ZM644.886 432.715L644.203 429.031L644.886 432.715ZM623.053 461.067L625.562 463.852L625.633 463.787L625.701 463.719L623.053 461.067ZM623.052 461.069L620.543 458.283L620.47 458.349L620.4 458.418L623.052 461.069ZM623.038 461.082L625.686 463.734L625.69 463.731L623.038 461.082ZM596.678 487.693L593.983 485.086L596.678 487.693ZM537.407 521.119L538.592 524.675L538.607 524.669L537.407 521.119ZM537.403 521.121L536.218 517.566L536.203 517.571L537.403 521.121ZM1722.46 266.938L1720.88 263.543L1722.46 266.938ZM1597.94 410.592L1601.41 412.012L1597.94 410.592ZM1694.1 365.727L1690.61 364.346L1694.1 365.727ZM1624.67 455.464L1622.19 452.658L1624.67 455.464ZM1591.01 492.88L1594.41 494.439L1591.01 492.88ZM1578.5 531.079V534.826H1581.39L1582.12 532.027L1578.5 531.079ZM1566.6 531.079L1562.91 530.388L1562.08 534.826H1566.6V531.079ZM1551.82 506.169L1548.22 505.133L1551.82 506.169ZM1542.64 531.079V534.826H1545.06L1546.06 532.625L1542.64 531.079ZM1553.53 340.211L1557.17 339.344L1553.53 340.211ZM1537.24 379.04L1540.83 380.141L1540.84 380.098L1540.85 380.055L1537.24 379.04ZM1537.24 379.043L1533.66 377.94L1533.64 377.983L1533.63 378.026L1537.24 379.043ZM1524.73 422.409L1528.33 423.48L1524.73 422.409ZM1521.42 507.602L1525.15 507.22L1525.15 507.192L1525.15 507.166L1521.42 507.602ZM1521.42 507.609L1517.69 507.992L1517.7 508.018L1517.7 508.046L1521.42 507.609ZM1523.6 531.079L1519.85 531.214L1519.98 534.826H1523.6V531.079ZM1637.33 518.652L1638.69 522.144L1637.33 518.652ZM1610.84 531.079V534.826H1612.01L1612.97 534.168L1610.84 531.079ZM1705.07 474.24L1707.96 476.624L1705.07 474.24ZM1735.08 438.642L1737.94 441.076L1737.94 441.07L1735.08 438.642ZM1735.09 438.635L1732.36 436.067L1732.3 436.134L1732.24 436.207L1735.09 438.635ZM1735.09 438.633L1737.82 441.201L1737.89 441.136L1737.94 441.066L1735.09 438.633ZM1759.88 400.647L1759.12 396.98L1759.88 400.647ZM1625.98 481.463L1628.85 483.877L1625.98 481.463ZM1595.59 531.079L1592.16 529.568L1589.83 534.826H1595.59V531.079ZM1774.51 432.245L1777.1 434.952L1774.51 432.245ZM1892.76 380.786L1892.7 377.039L1892.76 380.786ZM1764.8 441.512L1767.05 444.509L1767.23 444.375L1767.39 444.221L1764.8 441.512ZM1764.8 441.512L1762.55 438.515L1762.37 438.648L1762.21 438.802L1764.8 441.512ZM1711.66 497.82L1714.95 499.626L1711.66 497.82ZM1725.53 494.377L1723.52 491.213L1725.53 494.377ZM1752.32 478.615L1754.03 481.948L1752.32 478.615ZM1781.84 468.019L1782.89 471.613L1781.84 468.019ZM1851.95 431.198L1849.32 428.525L1851.95 431.198ZM1863.4 478.516L1864.13 474.841L1863.4 478.516ZM1911.28 484.728L1911.36 480.981L1911.28 484.728ZM1799.13 476.838L1798.1 473.236L1799.13 476.838ZM1848.56 503.468L1848.32 507.207L1848.56 503.468ZM346.916 526.561H335.258V534.054H346.916V526.561ZM285.838 434.724C319.076 468.556 335.706 507.724 343.348 531.456L350.486 529.161C342.641 504.796 325.538 464.435 291.191 429.475L285.838 434.724ZM98.4298 334.668C147.105 344.964 233.873 381.831 285.838 434.724L291.191 429.475C237.93 375.265 149.688 337.851 99.9832 327.338L98.4298 334.668ZM136.23 373.463C120.175 357.321 108.432 345.507 102.318 338.072C100.802 336.227 99.7116 334.747 99.0071 333.602C98.2194 332.323 98.2059 331.92 98.2179 332.106C98.2309 332.308 98.2127 332.896 97.7741 333.52C97.335 334.146 96.7881 334.361 96.5979 334.415C96.4305 334.464 96.8541 334.335 98.4298 334.668L99.9832 327.338C98.2369 326.969 96.2441 326.718 94.5161 327.216C93.5458 327.497 92.4328 328.08 91.6352 329.215C90.8381 330.35 90.6694 331.591 90.7333 332.585C90.8471 334.357 91.7419 336.103 92.619 337.529C93.5794 339.089 94.9108 340.867 96.5227 342.828C102.923 350.611 115.005 362.754 130.91 378.744L136.23 373.463ZM136.141 373.375H136.14L131 378.832H131L136.141 373.375ZM136.224 373.457L136.222 373.456L130.919 378.753L130.921 378.755L136.224 373.457ZM178.203 416.212C162.378 399.752 148.161 385.459 136.233 373.465L130.912 378.747C142.843 390.742 157.018 404.993 172.794 421.403L178.203 416.212ZM272.421 470.467C243.015 459.947 208.251 447.469 178.203 416.212L172.794 421.403C204.191 454.061 240.521 467.014 269.893 477.522L272.421 470.467ZM330.694 507.353C325.922 497.402 317.708 490.512 307.643 484.979C297.643 479.479 285.448 475.128 272.421 470.467L269.893 477.522C283.084 482.24 294.658 486.391 304.028 491.543C313.331 496.659 320.085 502.569 323.931 510.59L330.694 507.353ZM338.86 529.268C336.844 522.305 334.166 514.591 330.694 507.353L323.931 510.59C327.169 517.343 329.711 524.641 331.654 531.349L338.86 529.268ZM373.875 526.561H347.126V534.054H373.875V526.561ZM374.443 500.414C371.856 510.588 370.663 521.301 370.131 530.083L377.618 530.534C378.133 522.011 379.285 511.809 381.713 502.259L374.443 500.414ZM424.766 451.491C412.825 458.802 401.648 465.636 392.848 473.2C383.989 480.815 377.239 489.418 374.443 500.414L381.713 502.259C383.995 493.283 389.554 485.917 397.74 478.88C405.988 471.789 416.595 465.282 428.685 457.879L424.766 451.491ZM432.203 446.918C429.688 448.475 427.208 449.994 424.766 451.491L428.685 457.879C431.125 456.384 433.62 454.855 436.153 453.287L432.203 446.918ZM439.54 502.301C437.734 486.841 435.716 469.453 437.903 450.532L430.453 449.674C428.153 469.571 430.292 487.77 432.09 503.17L439.54 502.301ZM439.513 502.121V502.119L432.115 503.352H432.116L439.513 502.121ZM441.428 530.504C441.866 522.138 440.734 512.527 439.54 502.303L432.09 503.17C433.307 513.591 434.336 522.511 433.939 530.113L441.428 530.504ZM450.895 526.561H437.683V534.054H450.895V526.561ZM458.554 500.472C455.58 510.931 451.731 520.331 447.546 528.622L454.243 531.995C458.621 523.322 462.653 513.48 465.769 502.52L458.554 500.472ZM467.149 424.436C467.438 450.176 465.111 477.411 458.554 500.472L465.769 502.52C472.592 478.524 474.941 450.509 474.649 424.351L467.149 424.436ZM507.248 377.693C495.761 396.004 482.338 410.038 468.505 421.51L473.295 427.276C487.624 415.394 501.621 400.775 513.602 381.672L507.248 377.693ZM540.452 325.956C530.985 340.503 519.701 357.838 507.248 377.693L513.602 381.672C526.02 361.877 537.27 344.589 546.741 330.039L540.452 325.956ZM540.46 325.945L540.456 325.95L546.737 330.045L546.739 330.041L540.46 325.945ZM540.461 325.941L540.458 325.946L546.741 330.039L546.745 330.032L540.461 325.941ZM540.452 325.956L540.45 325.96L546.756 330.015L546.758 330.011L540.452 325.956ZM570.386 278.778C571.879 278.126 572.301 278.184 572.096 278.166C571.871 278.145 571.283 278.023 570.737 277.48C570.205 276.948 570.092 276.392 570.073 276.231C570.058 276.105 570.102 276.568 569.567 278.027C569.085 279.342 568.288 281.071 567.143 283.25C562.53 292.026 553.202 306.364 540.461 325.943L546.748 330.026C559.376 310.623 568.963 295.902 573.784 286.734C574.997 284.424 575.966 282.364 576.611 280.599C577.204 278.981 577.733 277.079 577.517 275.32C577.397 274.342 577.015 273.153 576.034 272.175C575.038 271.182 573.821 270.8 572.786 270.705C570.96 270.536 569.027 271.194 567.383 271.913L570.386 278.778ZM404.861 417.546C446.008 353.479 524.44 298.856 570.386 278.778L567.383 271.913C520.438 292.427 440.685 347.893 398.548 413.5L404.861 417.546ZM372.842 493.004C378.495 470.287 388.204 443.483 404.861 417.546L398.548 413.5C381.347 440.285 371.363 467.893 365.563 491.196L372.842 493.004ZM369.883 423.359C366.244 440.171 365.35 467.254 365.453 492.114L372.953 492.084C372.85 467.162 373.77 440.851 377.215 424.942L369.883 423.359ZM397.86 375.065C391.356 383.728 385.219 391.898 380.318 399.76C375.415 407.625 371.606 415.407 369.883 423.359L377.215 424.942C378.677 418.189 381.994 411.248 386.685 403.72C391.378 396.187 397.305 388.292 403.86 379.562L397.86 375.065ZM397.74 375.235L403.98 379.392L397.74 375.235ZM397.86 375.065L403.86 379.56L397.86 375.065ZM450.311 267.074C442.549 315.483 418.086 348.129 397.862 375.065L403.86 379.56C424.086 352.627 449.633 318.671 457.716 268.26L450.311 267.074ZM462.358 161.373C463.382 160.614 462.955 161.366 461.914 160.909C461.125 160.561 461.41 160.096 461.83 161.672C462.591 164.525 462.784 170.225 462.173 179.338C460.969 197.277 456.835 226.387 450.311 267.074L457.716 268.26C464.232 227.631 468.426 198.178 469.656 179.839C470.261 170.813 470.198 163.945 469.076 159.743C468.557 157.791 467.496 155.177 464.936 154.051C462.126 152.815 459.503 154.16 457.888 155.357L462.358 161.373ZM364.14 337.699C370.294 301.988 385.952 264.455 404.623 232.477C423.328 200.439 444.818 174.383 462.358 161.373L457.888 155.357C439.195 169.221 417.094 196.245 398.145 228.701C379.159 261.219 363.096 299.599 356.749 336.427L364.14 337.699ZM361.067 485.861C358.553 438.464 357.338 377.176 364.14 337.699L356.749 336.427C349.785 376.839 351.068 438.914 353.578 486.256L361.067 485.861ZM348.872 460.765C350.423 469.026 352.048 477.688 353.629 486.706L361.016 485.412C359.426 476.343 357.793 467.64 356.245 459.385L348.872 460.765ZM340.316 399.436C340.316 415.253 344.305 436.423 348.872 460.765L356.245 459.385C351.621 434.744 347.816 414.39 347.816 399.436H340.316ZM359.398 257.684C350.419 300.47 340.313 348.575 340.316 399.436H347.816C347.813 349.469 357.741 302.1 366.739 259.222L359.398 257.684ZM359.408 257.639V257.641L366.73 259.265L359.408 257.639ZM373.193 169.754C372.465 195.355 366.287 224.859 359.398 257.684L366.739 259.222C373.585 226.599 379.939 196.378 380.689 169.966L373.193 169.754ZM342.501 5.11519C343.016 2.86907 343.54 3.58064 342.604 3.73274C342.287 3.78407 342.274 3.65285 342.7 3.87696C343.125 4.1014 343.778 4.57519 344.627 5.4582C348.13 9.09929 352.881 17.4392 357.533 31.0483C366.752 58.025 375.055 104.135 373.193 169.754L380.689 169.966C382.571 103.684 374.205 56.6452 364.63 28.6271C359.882 14.7385 354.705 5.11943 350.035 0.265479C348.84 -0.975275 347.56 -2.03375 346.196 -2.75127C344.833 -3.46908 343.178 -3.95192 341.398 -3.66301C337.54 -3.0358 335.863 0.507532 335.19 3.4405L342.501 5.11519ZM295.536 127.654C308.132 107.241 325.564 78.9028 342.501 5.11521L335.19 3.4405C318.469 76.2964 301.395 103.879 289.151 123.722L295.536 127.654ZM278.419 196.882C277.45 177.341 278.841 164.872 281.82 154.985C284.807 145.077 289.45 137.519 295.536 127.654L289.151 123.722C283.123 133.492 277.948 141.842 274.639 152.824C271.322 163.827 269.936 177.23 270.928 197.253L278.419 196.882ZM300.908 298.68C289.729 266.96 280.613 241.079 278.419 196.882L270.928 197.253C273.176 242.578 282.604 269.305 293.833 301.167L300.908 298.68ZM325.757 382.627C317.693 346.295 308.796 321.055 300.908 298.68L293.833 301.167C301.703 323.494 310.474 348.382 318.435 384.249L325.757 382.627ZM329.314 399.655C328.08 393.452 326.886 387.716 325.757 382.627L318.435 384.249C319.549 389.269 320.73 394.949 321.956 401.114L329.314 399.655ZM293.074 332.864C304.028 352.749 313.778 376.739 322.078 401.571L329.192 399.198C320.809 374.115 310.892 349.667 299.644 329.253L293.074 332.864ZM70.6819 235.13C73.6896 233.802 78.714 232.882 85.6412 232.646C92.4746 232.412 100.829 232.85 110.275 234C129.164 236.299 152.176 241.413 175.698 249.464C222.947 265.636 271.285 293.32 293.074 332.864L299.644 329.253C276.476 287.206 225.898 258.725 178.129 242.376C154.143 234.165 130.621 228.928 111.182 226.562C101.465 225.38 92.7075 224.908 85.3849 225.157C78.1562 225.404 71.9807 226.363 67.6483 228.278L70.6819 235.13ZM81.4924 238.369C78.0879 237.372 75.1837 236.522 72.8413 235.731C70.409 234.909 68.9657 234.274 68.2663 233.806C67.9048 233.564 68.1337 233.618 68.361 234.075C68.7148 234.783 68.6707 235.643 68.3537 236.25C68.1594 236.621 68.016 236.602 68.4917 236.276C68.9124 235.99 69.6079 235.606 70.6819 235.13L67.6483 228.278C66.3542 228.849 65.2035 229.446 64.2592 230.091C63.3697 230.698 62.3426 231.561 61.7047 232.783C60.9444 234.238 60.8976 235.911 61.6483 237.417C62.2725 238.668 63.2983 239.5 64.0927 240.032C65.7056 241.111 68.0113 242.008 70.4402 242.829C72.9587 243.679 76.0275 244.577 79.3824 245.56L81.4924 238.369ZM81.3474 238.329H81.347L79.5279 245.599H79.5283L81.3474 238.329ZM81.7198 238.444H81.7194L79.1563 245.485H79.1567L81.7198 238.444ZM129.897 258.978C113.908 247.834 94.4447 242.164 81.4933 238.371L79.3834 245.56C92.4889 249.398 110.773 254.786 125.605 265.124L129.897 258.978ZM162.916 297.173C157.074 289.107 151.545 281.47 146.177 274.953C140.822 268.451 135.464 262.859 129.897 258.978L125.605 265.124C130.337 268.423 135.183 273.398 140.386 279.715C145.576 286.016 150.961 293.449 156.839 301.566L162.916 297.173ZM268.618 384.099C217.084 371.753 187.041 330.485 162.916 297.173L156.839 301.566C180.739 334.565 212.258 378.303 266.869 391.386L268.618 384.099ZM349.931 524.422C346.21 502.364 340.945 471.059 329.261 443.52C317.59 416.004 299.147 391.412 268.618 384.099L266.869 391.386C293.993 397.883 311.063 419.822 322.356 446.444C333.641 473.044 338.794 503.483 342.536 525.668L349.931 524.422ZM349.933 524.429L342.536 525.66V525.662L349.933 524.429ZM349.952 524.551V524.549L342.518 525.54V525.542L349.952 524.551ZM349.92 524.356L342.55 525.737V525.739L349.92 524.356ZM349.941 524.476V524.474L342.529 525.621V525.623L349.941 524.476ZM349.928 524.397V524.394L342.544 525.707V525.711L349.928 524.397ZM349.93 524.405V524.403L342.544 525.705V525.707L349.93 524.405ZM349.941 524.476L349.935 524.435L342.538 525.677L342.546 525.718L349.941 524.476ZM350.824 529.678C350.537 528.007 350.245 526.273 349.941 524.474L342.546 525.72C342.85 527.516 343.144 529.26 343.431 530.939L350.824 529.678ZM475.868 534.054H486.246V526.561H475.868V534.054ZM500.434 439.594C488.95 463.137 479.19 499.045 472.211 529.472L479.522 531.145C486.497 500.729 496.106 465.572 507.175 442.876L500.434 439.594ZM611.74 330.304C594.868 337.126 572.942 352.438 552.398 371.878C531.818 391.352 512.292 415.281 500.434 439.594L507.175 442.876C518.52 419.616 537.398 396.391 557.554 377.318C577.744 358.215 598.886 343.585 614.552 337.25L611.74 330.304ZM591.212 408.862C603.835 382.157 612.615 362.662 617.044 350.293C619.2 344.27 620.546 339.366 620.488 336.058C620.462 334.505 620.106 331.969 617.867 330.506C615.643 329.052 613.18 329.721 611.74 330.304L614.552 337.25C615.48 336.873 614.792 337.45 613.761 336.777C612.716 336.094 612.971 335.21 612.99 336.189C613.02 337.945 612.18 341.627 609.983 347.77C605.698 359.736 597.081 378.899 584.43 405.662L591.212 408.862ZM529.063 477.315C549.448 461.878 575.417 442.276 591.212 408.862L584.43 405.662C569.511 437.226 544.986 455.857 524.533 471.344L529.063 477.315ZM500.535 504.116C502.836 499.886 506.567 495.718 511.525 491.28C516.48 486.846 522.437 482.332 529.063 477.315L524.533 471.344C517.973 476.31 511.75 481.019 506.52 485.698C501.296 490.376 496.843 495.214 493.946 500.538L500.535 504.116ZM489.821 531.437C493.256 520.572 496.933 510.738 500.535 504.116L493.946 500.538C489.985 507.819 486.133 518.223 482.67 529.18L489.821 531.437ZM139.529 434.126C154.74 458.635 169.631 499.656 179.889 531.458L187.028 529.159C176.785 497.406 161.658 455.563 145.903 430.177L139.529 434.126ZM22.3622 341.007C38.5586 345.569 61.0202 357.769 82.9789 374.529C104.901 391.261 125.957 412.258 139.529 434.126L145.903 430.177C131.707 407.303 109.922 385.663 87.5319 368.574C65.1778 351.514 41.8552 338.711 24.3971 333.795L22.3622 341.007ZM59.0222 405.743C43.802 380.527 33.3437 362.426 27.9049 351.003C25.1128 345.14 23.9175 341.575 23.7752 339.829C23.6966 338.864 24.032 339.689 23.0884 340.46C22.1516 341.226 21.419 340.741 22.3622 341.007L24.3971 333.795C22.8909 333.37 20.3844 332.99 18.3376 334.663C16.2838 336.343 16.1729 338.877 16.2999 340.438C16.5689 343.738 18.3925 348.468 21.1322 354.223C26.757 366.036 37.4134 384.451 52.5995 409.611L59.0222 405.743ZM125.044 464.401C103.175 451.266 76.9618 435.464 59.0222 405.743L52.5995 409.611C71.6104 441.108 99.3832 457.731 121.179 470.823L125.044 464.401ZM158.361 490.065C154.95 485.082 150.035 480.758 144.377 476.684C138.712 472.608 132.057 468.614 125.044 464.401L121.179 470.823C128.264 475.079 134.631 478.906 139.992 482.765C145.359 486.627 149.472 490.353 152.171 494.295L158.361 490.065ZM177.196 528.929C171.393 514.297 164.669 499.279 158.361 490.065L152.171 494.295C157.957 502.747 164.42 517.054 170.224 531.688L177.196 528.929ZM183.459 526.561H173.71V534.054H183.459V526.561ZM151.055 534.054H159.918V526.561H151.055V534.054ZM117.562 521.567C124.468 523.079 130.576 524.422 135.877 526.209C141.157 527.99 145.348 530.126 148.503 533.054L153.607 527.563C149.366 523.628 144.066 521.063 138.276 519.111C132.508 517.165 125.968 515.737 119.167 514.248L117.562 521.567ZM53.7199 494.109C75.6934 512.441 98.9921 517.5 117.562 521.567L119.167 514.248C100.588 510.18 78.9547 505.399 58.527 488.358L53.7199 494.109ZM24.9155 470.596C33.1132 477.197 42.8441 485.035 53.7199 494.109L58.527 488.358C47.5959 479.239 37.8189 471.364 29.6229 464.763L24.9155 470.596ZM24.8927 470.577H24.8945L29.6439 464.78L29.642 464.778L24.8927 470.577ZM3.02928 438.163C1.9019 438.082 0.319661 438.067 -1.07048 438.732C-1.87765 439.118 -2.76319 439.804 -3.30062 440.924C-3.82718 442.024 -3.80982 443.104 -3.65378 443.906C-3.37695 445.326 -2.53122 446.562 -1.85418 447.432C-1.08956 448.413 -0.0877061 449.481 1.06996 450.612C5.64452 455.08 14.0176 461.818 24.9137 470.594L29.621 464.761C18.5583 455.85 10.5606 449.402 6.31241 445.253C5.2644 444.23 4.53232 443.43 4.06539 442.831C3.51088 442.119 3.62743 442.059 3.70807 442.473C3.76601 442.771 3.81855 443.421 3.46423 444.159C3.09903 444.922 2.52281 445.321 2.16585 445.491C1.67615 445.725 1.55797 445.57 2.48891 445.637L3.02928 438.163ZM127.616 486.584C90.6731 456.448 34.076 440.403 3.02928 438.163L2.48891 445.637C32.3972 447.795 87.4029 463.453 122.872 492.389L127.616 486.584ZM163.14 528.391C155.257 515.166 143.729 499.731 127.616 486.584L122.872 492.389C138.132 504.837 149.127 519.527 156.696 532.226L163.14 528.391ZM501.15 534.054H514.637V526.561H501.15V534.054ZM525.098 490.983C513.062 503.125 504.225 516.449 497.833 528.562L504.467 532.055C510.595 520.443 519.021 507.761 530.428 496.254L525.098 490.983ZM644.203 429.031C613.549 434.699 558.855 456.927 525.098 490.983L530.428 496.254C562.862 463.534 616.035 441.861 645.568 436.398L644.203 429.031ZM625.701 463.719C635.674 453.782 643.333 446.156 647.44 441.211C648.478 439.959 649.367 438.789 650.029 437.73C650.614 436.794 651.328 435.478 651.463 434.044C651.538 433.234 651.452 432.152 650.813 431.105C650.158 430.033 649.195 429.441 648.345 429.143C646.888 428.634 645.312 428.825 644.203 429.031L645.568 436.398C646.493 436.228 646.386 436.398 645.867 436.217C645.486 436.084 644.86 435.743 644.411 435.008C643.978 434.3 643.969 433.643 643.995 433.345C644.035 432.933 644.151 432.987 643.669 433.761C643.26 434.413 642.61 435.291 641.666 436.426C637.849 441.027 630.527 448.329 620.404 458.414L625.701 463.719ZM625.56 463.852H625.562L620.545 458.283H620.543L625.56 463.852ZM625.69 463.731L625.705 463.718L620.4 458.418L620.387 458.433L625.69 463.731ZM599.37 490.301C609.287 480.077 618.188 471.207 625.686 463.734L620.391 458.429C612.893 465.9 603.951 474.811 593.983 485.086L599.37 490.301ZM538.607 524.669C556.676 518.566 579.336 510.955 599.37 490.301L593.983 485.086C575.336 504.311 554.28 511.466 536.205 517.571L538.607 524.669ZM538.592 524.675L536.22 517.566L538.592 524.675ZM538.59 524.675H538.592L536.22 517.566H536.218L538.59 524.675ZM516.514 533.552C522.366 530.171 529.798 527.646 538.605 524.669L536.203 517.571C527.606 520.475 519.39 523.234 512.76 527.065L516.514 533.552ZM1720.88 263.543C1701.6 272.533 1676.62 292.891 1653.26 318.819C1629.86 344.802 1607.76 376.732 1594.47 409.173L1601.41 412.012C1614.29 380.572 1635.84 349.36 1658.84 323.832C1681.89 298.245 1706.08 278.715 1724.05 270.332L1720.88 263.543ZM1697.59 367.107C1711.83 331.231 1721.69 305.116 1726.63 288.579C1729.06 280.442 1730.45 274.138 1730.36 270.058C1730.32 268.213 1729.97 265.482 1727.82 263.82C1725.37 261.932 1722.54 262.766 1720.88 263.543L1724.05 270.332C1725.09 269.845 1724.3 270.572 1723.23 269.749C1722.46 269.152 1722.83 268.655 1722.86 270.225C1722.92 272.973 1721.89 278.22 1719.44 286.438C1714.61 302.608 1704.88 328.417 1690.61 364.346L1697.59 367.107ZM1627.16 458.268C1650.47 437.642 1679.91 411.642 1697.59 367.107L1690.61 364.346C1673.66 407.069 1645.48 432.051 1622.19 452.658L1627.16 458.268ZM1594.41 494.439C1599.89 482.497 1611.9 471.774 1627.16 458.268L1622.19 452.658C1607.36 465.78 1593.87 477.621 1587.59 491.32L1594.41 494.439ZM1582.12 532.027C1586.01 517.163 1590.23 503.584 1594.41 494.439L1587.59 491.32C1583.12 501.089 1578.77 515.198 1574.87 530.133L1582.12 532.027ZM1566.6 534.826H1578.5V527.333H1566.6V534.826ZM1594.47 409.173C1581.51 440.787 1570.63 489.299 1562.91 530.388L1570.28 531.771C1578 490.675 1588.77 442.846 1601.41 412.012L1594.47 409.173ZM1548.22 505.133C1545.68 513.93 1542.6 522.071 1539.22 529.536L1546.06 532.625C1549.58 524.855 1552.79 516.372 1555.43 507.205L1548.22 505.133ZM1549.88 341.077C1558.81 378.609 1563.67 451.515 1548.22 505.133L1555.43 507.205C1571.33 452.008 1566.31 377.732 1557.17 339.344L1549.88 341.077ZM1540.85 380.055C1545.52 363.501 1548.93 351.441 1551.46 344.761C1552.09 343.107 1552.62 341.897 1553.06 341.078C1553.59 340.084 1553.71 340.202 1553.29 340.473C1552.94 340.693 1552.17 341.043 1551.15 340.833C1550.2 340.636 1549.7 340.08 1549.57 339.91C1549.39 339.69 1549.58 339.85 1549.88 341.077L1557.17 339.344C1556.86 338.008 1556.37 336.429 1555.45 335.26C1554.94 334.614 1554.04 333.778 1552.67 333.496C1551.24 333.201 1550.03 333.659 1549.23 334.17C1547.89 335.032 1547.01 336.487 1546.44 337.542C1545.78 338.773 1545.12 340.325 1544.44 342.109C1541.76 349.178 1538.25 361.66 1533.63 378.022L1540.85 380.055ZM1540.83 380.143V380.141L1533.66 377.938L1540.83 380.143ZM1540.82 380.145L1540.83 380.143L1533.66 377.938L1533.66 377.94L1540.82 380.145ZM1528.33 423.48C1533.25 406.994 1537.39 392.345 1540.85 380.059L1533.63 378.026C1530.17 390.315 1526.05 404.913 1521.14 421.336L1528.33 423.48ZM1525.15 507.166C1522.31 483.057 1519.01 454.647 1528.33 423.48L1521.14 421.336C1511.33 454.155 1514.87 483.992 1517.7 508.038L1525.15 507.166ZM1525.16 507.227L1525.15 507.22L1517.69 507.984L1517.69 507.992L1525.16 507.227ZM1527.35 530.946C1527.08 523.629 1526.14 515.614 1525.15 507.171L1517.7 508.046C1518.7 516.567 1519.6 524.261 1519.85 531.214L1527.35 530.946ZM1542.64 527.333H1523.6V534.826H1542.64V527.333ZM1635.97 515.159C1625.92 519.059 1616.35 522.751 1608.72 527.992L1612.97 534.168C1619.73 529.519 1628.41 526.134 1638.69 522.144L1635.97 515.159ZM1702.17 471.857C1680.83 497.717 1656.62 507.147 1635.97 515.159L1638.69 522.144C1659.42 514.098 1685.28 504.105 1707.96 476.624L1702.17 471.857ZM1732.23 436.211C1723.69 446.203 1713.51 458.117 1702.17 471.857L1707.96 476.624C1719.26 462.938 1729.4 451.069 1737.94 441.076L1732.23 436.211ZM1732.24 436.207L1732.23 436.215L1737.94 441.07L1737.95 441.063L1732.24 436.207ZM1732.36 436.067H1732.36L1737.82 441.201H1737.82L1732.36 436.067ZM1760.65 404.315C1761.69 404.098 1761.56 404.323 1760.98 404.079C1760.55 403.899 1760.03 403.514 1759.7 402.879C1759.4 402.309 1759.41 401.843 1759.42 401.73C1759.43 401.614 1759.4 401.964 1758.85 403.008C1758.35 403.954 1757.58 405.181 1756.5 406.717C1752.12 412.927 1743.75 422.735 1732.24 436.202L1737.94 441.066C1749.32 427.757 1758 417.604 1762.63 411.029C1763.8 409.369 1764.77 407.85 1765.49 406.503C1766.15 405.254 1766.79 403.765 1766.9 402.27C1766.96 401.468 1766.88 400.428 1766.34 399.398C1765.76 398.306 1764.86 397.577 1763.88 397.171C1762.22 396.476 1760.4 396.712 1759.12 396.98L1760.65 404.315ZM1628.85 483.877C1665.9 439.969 1726.83 411.342 1760.65 404.315L1759.12 396.98C1723.93 404.291 1661.42 433.656 1623.12 479.046L1628.85 483.877ZM1599.02 532.593C1606 516.779 1615.67 499.496 1628.85 483.877L1623.12 479.046C1609.36 495.349 1599.35 513.291 1592.16 529.568L1599.02 532.593ZM1610.84 527.333H1595.59V534.826H1610.84V527.333ZM1777.1 434.952C1792.63 420.103 1814.25 407.562 1835.79 398.677C1857.38 389.779 1878.47 384.725 1892.81 384.532L1892.7 377.039C1877.06 377.251 1854.99 382.657 1832.93 391.751C1810.84 400.861 1788.32 413.846 1771.91 429.538L1777.1 434.952ZM1767.39 444.221C1770.53 441.228 1773.77 438.137 1777.1 434.952L1771.91 429.538C1768.59 432.721 1765.35 435.808 1762.21 438.802L1767.39 444.221ZM1767.05 444.509L1762.55 438.515L1767.05 444.509ZM1714.95 499.626C1717.94 494.186 1724.15 486.861 1733.26 477.473C1742.29 468.157 1753.88 457.103 1767.39 444.223L1762.21 438.802C1748.74 451.646 1737.03 462.815 1727.87 472.258C1718.79 481.628 1711.91 489.593 1708.38 496.012L1714.95 499.626ZM1723.52 491.213C1720.52 493.112 1717.93 494.755 1715.77 496.042C1713.55 497.365 1712.03 498.163 1711.12 498.502C1710.59 498.697 1710.72 498.56 1711.21 498.597C1711.51 498.622 1712.13 498.73 1712.76 499.214C1713.43 499.731 1713.77 500.407 1713.89 500.941C1714.08 501.733 1713.81 502.134 1714.01 501.587C1714.14 501.203 1714.43 500.572 1714.95 499.626L1708.38 496.012C1707.77 497.119 1707.27 498.157 1706.93 499.092C1706.66 499.864 1706.25 501.233 1706.6 502.677C1706.8 503.539 1707.29 504.462 1708.19 505.152C1709.04 505.807 1709.96 506.017 1710.63 506.068C1711.84 506.161 1712.99 505.8 1713.73 505.526C1715.36 504.921 1717.41 503.792 1719.61 502.477C1721.88 501.126 1724.57 499.422 1727.54 497.539L1723.52 491.213ZM1750.61 475.283C1740.29 480.573 1730.81 486.592 1723.52 491.213L1727.54 497.539C1734.85 492.903 1744.07 487.062 1754.03 481.948L1750.61 475.283ZM1780.78 464.424C1770.15 467.545 1759.79 470.572 1750.61 475.283L1754.03 481.948C1762.47 477.621 1772.11 474.779 1782.89 471.613L1780.78 464.424ZM1849.32 428.525C1826.43 450.989 1802.53 458.04 1780.78 464.424L1782.89 471.613C1804.7 465.212 1830.23 457.755 1854.58 433.871L1849.32 428.525ZM1892.81 384.532C1893.6 384.521 1892.72 384.753 1891.97 383.77C1891.18 382.741 1891.69 381.902 1891.46 382.582C1891.05 383.835 1889.44 386.394 1885.95 390.59C1879.22 398.714 1866.97 411.214 1849.32 428.525L1854.58 433.871C1872.17 416.607 1884.69 403.843 1891.73 395.374C1895.14 391.274 1897.67 387.705 1898.59 384.92C1899.02 383.579 1899.47 381.243 1897.93 379.229C1896.43 377.26 1894.11 377.02 1892.7 377.039L1892.81 384.532ZM1862.68 482.192C1877.16 485.044 1892.91 488.154 1911.23 488.474L1911.36 480.981C1893.79 480.676 1878.64 477.699 1864.13 474.841L1862.68 482.192ZM1800.16 480.44C1821.95 474.223 1840.77 477.876 1862.68 482.192L1864.13 474.841C1842.38 470.557 1821.85 466.456 1798.1 473.236L1800.16 480.44ZM1755.96 504.843C1753.98 505.448 1753.29 505.335 1753.35 505.352C1753.5 505.388 1754.05 505.571 1754.49 506.208C1754.93 506.836 1754.92 507.413 1754.9 507.563C1754.89 507.664 1754.99 507.098 1755.97 505.768C1756.86 504.565 1758.22 503.074 1760.07 501.387C1767.52 494.607 1781.74 485.698 1800.16 480.44L1798.1 473.236C1778.63 478.793 1763.36 488.251 1755.02 495.847C1752.93 497.754 1751.2 499.607 1749.93 501.319C1748.76 502.906 1747.64 504.824 1747.44 506.8C1747.33 507.889 1747.47 509.25 1748.34 510.489C1749.21 511.734 1750.45 512.354 1751.56 512.628C1753.56 513.121 1755.91 512.693 1758.15 512.012L1755.96 504.843ZM1848.79 499.729C1807.28 497.074 1773.53 499.5 1755.96 504.843L1758.15 512.012C1774.39 507.07 1807.04 504.567 1848.32 507.207L1848.79 499.729ZM1911.23 488.474C1912.65 488.499 1913.72 488.596 1914.49 488.729C1915.29 488.871 1915.54 489.016 1915.5 488.991C1915.43 488.943 1914.68 488.452 1914.54 487.332C1914.41 486.358 1914.86 485.837 1914.77 485.968C1914.54 486.266 1913.63 487.086 1911.47 488.251C1909.46 489.342 1906.74 490.535 1903.46 491.734C1890.24 496.554 1868.88 501.014 1848.79 499.729L1848.32 507.207C1869.63 508.569 1892.03 503.876 1906.03 498.772C1909.56 497.49 1912.61 496.155 1915.03 494.84C1917.34 493.6 1919.51 492.14 1920.77 490.453C1921.43 489.593 1922.21 488.154 1921.97 486.358C1921.73 484.415 1920.43 483.197 1919.33 482.54C1918.24 481.907 1916.98 481.56 1915.76 481.349C1914.51 481.128 1913.03 481.011 1911.36 480.981L1911.23 488.474Z" fill="#195AA9"/>
</svg>
