<svg width="32" height="39" viewBox="0 0 32 39" fill="none" xmlns="http://www.w3.org/2000/svg">
<path d="M31.8869 30.522V39H2.45691V32.304L16.6049 19.074C17.9729 17.778 18.8909 16.68 19.3589 15.78C19.8269 14.844 20.0609 13.908 20.0609 12.972C20.0609 11.748 19.6469 10.794 18.8189 10.11C17.9909 9.426 16.7849 9.084 15.2009 9.084C13.7969 9.084 12.5009 9.408 11.3129 10.056C10.1609 10.668 9.20691 11.568 8.45091 12.756L0.512914 8.328C1.98891 5.88 4.05891 3.954 6.72291 2.55C9.38691 1.146 12.5369 0.443998 16.1729 0.443998C19.0529 0.443998 21.5909 0.911998 23.7869 1.848C26.0189 2.784 27.7469 4.134 28.9709 5.898C30.2309 7.626 30.8609 9.642 30.8609 11.946C30.8609 13.998 30.4109 15.942 29.5109 17.778C28.6469 19.578 26.9549 21.63 24.4349 23.934L17.3069 30.522H31.8869Z" fill="url(#paint0_linear)"/>
<defs>
<linearGradient id="paint0_linear" x1="8.57895" y1="1.4" x2="14.6334" y2="43.8872" gradientUnits="userSpaceOnUse">
<stop stop-color="#6178F5"/>
<stop offset="1" stop-color="#195AA9"/>
</linearGradient>
</defs>
</svg>
