<svg width="32" height="39" viewBox="0 0 32 39" fill="none" xmlns="http://www.w3.org/2000/svg">
<path d="M21.9534 15.32C25.0854 15.968 27.4794 17.264 29.1354 19.208C30.8274 21.116 31.6734 23.438 31.6734 26.174C31.6734 28.406 31.0614 30.476 29.8374 32.384C28.6494 34.292 26.8134 35.84 24.3294 37.028C21.8814 38.18 18.8394 38.756 15.2034 38.756C12.5394 38.756 9.89345 38.432 7.26545 37.784C4.67345 37.136 2.42345 36.218 0.515445 35.03L4.40345 26.984C5.87945 27.992 7.53545 28.766 9.37145 29.306C11.2434 29.846 13.0794 30.116 14.8794 30.116C16.7154 30.116 18.1734 29.774 19.2534 29.09C20.3334 28.406 20.8734 27.434 20.8734 26.174C20.8734 23.726 18.9474 22.502 15.0954 22.502H10.6134V15.752L17.3634 8.462H2.45945V0.199997H29.7834V6.896L21.9534 15.32Z" fill="url(#paint0_linear)"/>
<defs>
<linearGradient id="paint0_linear" x1="8.57895" y1="0.4" x2="14.6334" y2="42.8872" gradientUnits="userSpaceOnUse">
<stop stop-color="#6178F5"/>
<stop offset="1" stop-color="#195AA9"/>
</linearGradient>
</defs>
</svg>
