<svg width="221" height="40" viewBox="0 0 221 40" fill="none" xmlns="http://www.w3.org/2000/svg">
<path d="M0 5C0 2.23858 2.23858 0 5 0H216C218.761 0 221 2.23858 221 5V35C221 37.7614 218.761 40 216 40H5C2.23858 40 0 37.7614 0 35V5Z" fill="white"/>
<rect x="0.5" y="0.5" width="220" height="39" rx="4.5" stroke="url(#paint0_linear)"/>
<path d="M13.24 14.8C14.232 14.8 15.0907 14.9653 15.816 15.296C16.552 15.6267 17.1173 16.096 17.512 16.704C17.9067 17.312 18.104 18.032 18.104 18.864C18.104 19.6853 17.9067 20.4053 17.512 21.024C17.1173 21.632 16.552 22.1013 15.816 22.432C15.0907 22.752 14.232 22.912 13.24 22.912H10.984V26H8.392V14.8H13.24ZM13.096 20.8C13.8747 20.8 14.4667 20.6347 14.872 20.304C15.2773 19.9627 15.48 19.4827 15.48 18.864C15.48 18.2347 15.2773 17.7547 14.872 17.424C14.4667 17.0827 13.8747 16.912 13.096 16.912H10.984V20.8H13.096ZM28.3396 17.392L24.4516 26.528C24.057 27.52 23.5663 28.2187 22.9796 28.624C22.4036 29.0293 21.705 29.232 20.8836 29.232C20.4356 29.232 19.993 29.1627 19.5556 29.024C19.1183 28.8853 18.761 28.6933 18.4836 28.448L19.3956 26.672C19.5876 26.8427 19.8063 26.976 20.0516 27.072C20.3076 27.168 20.5583 27.216 20.8036 27.216C21.145 27.216 21.4223 27.1307 21.6356 26.96C21.849 26.8 22.041 26.528 22.2116 26.144L22.2436 26.064L18.5156 17.392H21.0916L23.5076 23.232L25.9396 17.392H28.3396ZM33.4054 26.128C32.488 26.128 31.6614 25.9413 30.9254 25.568C30.2 25.184 29.6294 24.656 29.2134 23.984C28.808 23.312 28.6054 22.5493 28.6054 21.696C28.6054 20.8427 28.808 20.08 29.2134 19.408C29.6294 18.736 30.2 18.2133 30.9254 17.84C31.6614 17.456 32.488 17.264 33.4054 17.264C34.312 17.264 35.1014 17.456 35.7734 17.84C36.456 18.2133 36.952 18.752 37.2614 19.456L35.3254 20.496C34.8774 19.7067 34.232 19.312 33.3894 19.312C32.7387 19.312 32.2 19.5253 31.7734 19.952C31.3467 20.3787 31.1334 20.96 31.1334 21.696C31.1334 22.432 31.3467 23.0133 31.7734 23.44C32.2 23.8667 32.7387 24.08 33.3894 24.08C34.2427 24.08 34.888 23.6853 35.3254 22.896L37.2614 23.952C36.952 24.6347 36.456 25.168 35.7734 25.552C35.1014 25.936 34.312 26.128 33.4054 26.128ZM42.7648 26.128C41.8474 26.128 41.0208 25.9413 40.2848 25.568C39.5594 25.184 38.9888 24.656 38.5728 23.984C38.1674 23.312 37.9648 22.5493 37.9648 21.696C37.9648 20.8427 38.1674 20.08 38.5728 19.408C38.9888 18.736 39.5594 18.2133 40.2848 17.84C41.0208 17.456 41.8474 17.264 42.7648 17.264C43.6714 17.264 44.4608 17.456 45.1328 17.84C45.8154 18.2133 46.3114 18.752 46.6208 19.456L44.6848 20.496C44.2368 19.7067 43.5914 19.312 42.7488 19.312C42.0981 19.312 41.5594 19.5253 41.1328 19.952C40.7061 20.3787 40.4928 20.96 40.4928 21.696C40.4928 22.432 40.7061 23.0133 41.1328 23.44C41.5594 23.8667 42.0981 24.08 42.7488 24.08C43.6021 24.08 44.2474 23.6853 44.6848 22.896L46.6208 23.952C46.3114 24.6347 45.8154 25.168 45.1328 25.552C44.4608 25.936 43.6714 26.128 42.7648 26.128ZM51.9295 22.736H50.6335V26H48.1375V17.392H50.6335V20.736H51.9775L54.3135 17.392H56.9695L53.9615 21.52L57.1775 26H54.2335L51.9295 22.736ZM58.4031 17.392H60.8831V22.512L65.0751 17.392H67.3631V26H64.8831V20.88L60.7071 26H58.4031V17.392ZM69.7625 17.392H72.2425V22.512L76.4345 17.392H78.7225V26H76.2425V20.88L72.0665 26H69.7625V17.392ZM74.0825 16.464C72.2052 16.464 71.2612 15.6373 71.2505 13.984H72.8825C72.8932 14.3573 72.9945 14.6507 73.1865 14.864C73.3892 15.0667 73.6825 15.168 74.0665 15.168C74.4505 15.168 74.7438 15.0667 74.9465 14.864C75.1598 14.6507 75.2665 14.3573 75.2665 13.984H76.9305C76.9198 15.6373 75.9705 16.464 74.0825 16.464Z" fill="url(#paint1_linear)"/>
<path d="M202.366 25.5C201.981 26.1667 201.019 26.1667 200.634 25.5L195.871 17.25C195.486 16.5833 195.967 15.75 196.737 15.75L206.263 15.75C207.033 15.75 207.514 16.5833 207.129 17.25L202.366 25.5Z" fill="url(#paint2_linear)"/>
<defs>
<linearGradient id="paint0_linear" x1="63.9737" y1="8.72727" x2="64.3843" y2="34.9936" gradientUnits="userSpaceOnUse">
<stop stop-color="#6178F5"/>
<stop offset="1" stop-color="#195AA9"/>
</linearGradient>
<linearGradient id="paint1_linear" x1="68.9474" y1="14.3636" x2="69.0534" y2="27.4991" gradientUnits="userSpaceOnUse">
<stop stop-color="#6178F5"/>
<stop offset="1" stop-color="#195AA9"/>
</linearGradient>
<linearGradient id="paint2_linear" x1="204.658" y1="23.7273" x2="203.813" y2="13.9479" gradientUnits="userSpaceOnUse">
<stop stop-color="#6178F5"/>
<stop offset="1" stop-color="#195AA9"/>
</linearGradient>
</defs>
</svg>
