<svg width="302" height="83" viewBox="0 0 302 83" fill="none" xmlns="http://www.w3.org/2000/svg">
<g filter="url(#filter0_d)">
<rect x="1" y="0.461914" width="300" height="80" rx="13" fill="white"/>
<circle cx="191" cy="40.4619" r="25.5" stroke="black" stroke-opacity="0.3"/>
<circle cx="261" cy="40.4619" r="25.5" fill="#6078F4" stroke="#6078F4"/>
<path d="M249 40.7119H273.5" stroke="white"/>
<path d="M261.25 52.9619V28.4619" stroke="white"/>
<path d="M37.554 33.0619V48.4619H35.948V34.4699H26.202V48.4619H24.596V33.0619H37.554ZM48.3383 36.8019C49.4236 36.8019 50.4063 37.0512 51.2863 37.5499C52.1663 38.0339 52.8556 38.7232 53.3543 39.6179C53.853 40.5126 54.1023 41.5319 54.1023 42.6759C54.1023 43.8346 53.853 44.8612 53.3543 45.7559C52.8556 46.6506 52.1663 47.3472 51.2863 47.8459C50.421 48.3299 49.4383 48.5719 48.3383 48.5719C47.3996 48.5719 46.549 48.3812 45.7863 47.9999C45.0383 47.6039 44.4223 47.0319 43.9383 46.2839V52.7299H42.3763V36.8899H43.8723V39.1779C44.3416 38.4152 44.9576 37.8286 45.7203 37.4179C46.4976 37.0072 47.3703 36.8019 48.3383 36.8019ZM48.2283 47.1859C49.035 47.1859 49.7683 47.0026 50.4283 46.6359C51.0883 46.2546 51.6016 45.7192 51.9683 45.0299C52.3496 44.3406 52.5403 43.5559 52.5403 42.6759C52.5403 41.7959 52.3496 41.0186 51.9683 40.3439C51.6016 39.6546 51.0883 39.1192 50.4283 38.7379C49.7683 38.3566 49.035 38.1659 48.2283 38.1659C47.407 38.1659 46.6663 38.3566 46.0063 38.7379C45.361 39.1192 44.8476 39.6546 44.4663 40.3439C44.0996 41.0186 43.9163 41.7959 43.9163 42.6759C43.9163 43.5559 44.0996 44.3406 44.4663 45.0299C44.8476 45.7192 45.361 46.2546 46.0063 46.6359C46.6663 47.0026 47.407 47.1859 48.2283 47.1859ZM67.5783 43.1599H57.8983C57.9863 44.3626 58.4483 45.3379 59.2843 46.0859C60.1203 46.8192 61.1763 47.1859 62.4523 47.1859C63.171 47.1859 63.831 47.0612 64.4323 46.8119C65.0337 46.5479 65.5543 46.1666 65.9943 45.6679L66.8743 46.6799C66.361 47.2959 65.7157 47.7652 64.9383 48.0879C64.1757 48.4106 63.3323 48.5719 62.4083 48.5719C61.2203 48.5719 60.1643 48.3226 59.2403 47.8239C58.331 47.3106 57.6197 46.6066 57.1063 45.7119C56.593 44.8172 56.3363 43.8052 56.3363 42.6759C56.3363 41.5466 56.5783 40.5346 57.0623 39.6399C57.561 38.7452 58.2357 38.0486 59.0863 37.5499C59.9517 37.0512 60.9197 36.8019 61.9903 36.8019C63.061 36.8019 64.0217 37.0512 64.8723 37.5499C65.723 38.0486 66.3903 38.7452 66.8743 39.6399C67.3583 40.5199 67.6003 41.5319 67.6003 42.6759L67.5783 43.1599ZM61.9903 38.1439C60.8757 38.1439 59.937 38.5032 59.1743 39.2219C58.4263 39.9259 58.001 40.8499 57.8983 41.9939H66.1043C66.0017 40.8499 65.569 39.9259 64.8063 39.2219C64.0583 38.5032 63.1197 38.1439 61.9903 38.1439ZM75.2599 43.3139H72.6199V48.4619H71.0579V36.8899H72.6199V41.9719H75.2819L79.3519 36.8899H81.0459L76.4919 42.4999L81.3759 48.4619H79.5279L75.2599 43.3139ZM89.8031 36.8019C90.8885 36.8019 91.8711 37.0512 92.7511 37.5499C93.6311 38.0339 94.3205 38.7232 94.8191 39.6179C95.3178 40.5126 95.5671 41.5319 95.5671 42.6759C95.5671 43.8346 95.3178 44.8612 94.8191 45.7559C94.3205 46.6506 93.6311 47.3472 92.7511 47.8459C91.8858 48.3299 90.9031 48.5719 89.8031 48.5719C88.8645 48.5719 88.0138 48.3812 87.2511 47.9999C86.5031 47.6039 85.8871 47.0319 85.4031 46.2839V52.7299H83.8411V36.8899H85.3371V39.1779C85.8065 38.4152 86.4225 37.8286 87.1851 37.4179C87.9625 37.0072 88.8351 36.8019 89.8031 36.8019ZM89.6931 47.1859C90.4998 47.1859 91.2331 47.0026 91.8931 46.6359C92.5531 46.2546 93.0665 45.7192 93.4331 45.0299C93.8145 44.3406 94.0051 43.5559 94.0051 42.6759C94.0051 41.7959 93.8145 41.0186 93.4331 40.3439C93.0665 39.6546 92.5531 39.1192 91.8931 38.7379C91.2331 38.3566 90.4998 38.1659 89.6931 38.1659C88.8718 38.1659 88.1311 38.3566 87.4711 38.7379C86.8258 39.1192 86.3125 39.6546 85.9311 40.3439C85.5645 41.0186 85.3811 41.7959 85.3811 42.6759C85.3811 43.5559 85.5645 44.3406 85.9311 45.0299C86.3125 45.7192 86.8258 46.2546 87.4711 46.6359C88.1311 47.0026 88.8718 47.1859 89.6931 47.1859ZM102.841 36.8019C104.351 36.8019 105.51 37.1832 106.317 37.9459C107.123 38.6939 107.527 39.8086 107.527 41.2899V48.4619H106.031V46.6579C105.679 47.2592 105.158 47.7286 104.469 48.0659C103.794 48.4032 102.987 48.5719 102.049 48.5719C100.758 48.5719 99.7314 48.2639 98.9687 47.6479C98.2061 47.0319 97.8247 46.2179 97.8247 45.2059C97.8247 44.2232 98.1767 43.4312 98.8807 42.8299C99.5994 42.2286 100.736 41.9279 102.291 41.9279H105.965V41.2239C105.965 40.2266 105.686 39.4712 105.129 38.9579C104.571 38.4299 103.757 38.1659 102.687 38.1659C101.953 38.1659 101.249 38.2906 100.575 38.5399C99.9001 38.7746 99.3207 39.1046 98.8367 39.5299L98.1327 38.3639C98.7194 37.8652 99.4234 37.4839 100.245 37.2199C101.066 36.9412 101.931 36.8019 102.841 36.8019ZM102.291 47.3399C103.171 47.3399 103.926 47.1419 104.557 46.7459C105.187 46.3352 105.657 45.7486 105.965 44.9859V43.0939H102.335C100.355 43.0939 99.3647 43.7832 99.3647 45.1619C99.3647 45.8366 99.6214 46.3719 100.135 46.7679C100.648 47.1492 101.367 47.3399 102.291 47.3399ZM116.525 48.5719C115.381 48.5719 114.354 48.3226 113.445 47.8239C112.55 47.3252 111.846 46.6286 111.333 45.7339C110.82 44.8246 110.563 43.8052 110.563 42.6759C110.563 41.5466 110.82 40.5346 111.333 39.6399C111.846 38.7452 112.55 38.0486 113.445 37.5499C114.354 37.0512 115.381 36.8019 116.525 36.8019C117.522 36.8019 118.41 36.9999 119.187 37.3959C119.979 37.7772 120.602 38.3419 121.057 39.0899L119.891 39.8819C119.51 39.3099 119.026 38.8846 118.439 38.6059C117.852 38.3126 117.214 38.1659 116.525 38.1659C115.689 38.1659 114.934 38.3566 114.259 38.7379C113.599 39.1046 113.078 39.6326 112.697 40.3219C112.33 41.0112 112.147 41.7959 112.147 42.6759C112.147 43.5706 112.33 44.3626 112.697 45.0519C113.078 45.7266 113.599 46.2546 114.259 46.6359C114.934 47.0026 115.689 47.1859 116.525 47.1859C117.214 47.1859 117.852 47.0466 118.439 46.7679C119.026 46.4892 119.51 46.0639 119.891 45.4919L121.057 46.2839C120.602 47.0319 119.979 47.6039 119.187 47.9999C118.395 48.3812 117.508 48.5719 116.525 48.5719ZM124.081 36.8899H125.643V42.0159H132.925V36.8899H134.487V48.4619H132.925V43.3579H125.643V48.4619H124.081V36.8899ZM143.701 48.5719C142.586 48.5719 141.582 48.3226 140.687 47.8239C139.792 47.3106 139.088 46.6066 138.575 45.7119C138.062 44.8172 137.805 43.8052 137.805 42.6759C137.805 41.5466 138.062 40.5346 138.575 39.6399C139.088 38.7452 139.792 38.0486 140.687 37.5499C141.582 37.0512 142.586 36.8019 143.701 36.8019C144.816 36.8019 145.82 37.0512 146.715 37.5499C147.61 38.0486 148.306 38.7452 148.805 39.6399C149.318 40.5346 149.575 41.5466 149.575 42.6759C149.575 43.8052 149.318 44.8172 148.805 45.7119C148.306 46.6066 147.61 47.3106 146.715 47.8239C145.82 48.3226 144.816 48.5719 143.701 48.5719ZM143.701 47.1859C144.522 47.1859 145.256 47.0026 145.901 46.6359C146.561 46.2546 147.074 45.7192 147.441 45.0299C147.808 44.3406 147.991 43.5559 147.991 42.6759C147.991 41.7959 147.808 41.0112 147.441 40.3219C147.074 39.6326 146.561 39.1046 145.901 38.7379C145.256 38.3566 144.522 38.1659 143.701 38.1659C142.88 38.1659 142.139 38.3566 141.479 38.7379C140.834 39.1046 140.32 39.6326 139.939 40.3219C139.572 41.0112 139.389 41.7959 139.389 42.6759C139.389 43.5559 139.572 44.3406 139.939 45.0299C140.32 45.7192 140.834 46.2546 141.479 46.6359C142.139 47.0026 142.88 47.1859 143.701 47.1859Z" fill="black"/>
<path opacity="0.5" d="M198.074 35.9463V29.4619H179V51.1846H194.194" stroke="black"/>
<path opacity="0.5" d="M183.203 44.0518L184.385 41.1338M184.385 41.1338L187.405 33.6768L189.992 41.1338H184.385Z" stroke="black" stroke-linejoin="round"/>
<path opacity="0.5" fill-rule="evenodd" clip-rule="evenodd" d="M197.574 47.2939V52.1572H198.574V47.2939H202.246H203.246V46.2939V41.8096V40.8096H202.246H198.574V38.8643H197.574V40.8096H193.901H192.901V41.8096V46.2939V47.2939H193.901H197.574ZM198.574 46.2939H202.246V41.8096H198.574V46.2939ZM197.574 41.8096V46.2939H193.901V41.8096H197.574Z" fill="black"/>
</g>
<defs>
<filter id="filter0_d" x="0" y="0.461914" width="302" height="82" filterUnits="userSpaceOnUse" color-interpolation-filters="sRGB">
<feFlood flood-opacity="0" result="BackgroundImageFix"/>
<feColorMatrix in="SourceAlpha" type="matrix" values="0 0 0 0 0 0 0 0 0 0 0 0 0 0 0 0 0 0 127 0"/>
<feOffset dy="1"/>
<feGaussianBlur stdDeviation="0.5"/>
<feColorMatrix type="matrix" values="0 0 0 0 0 0 0 0 0 0 0 0 0 0 0 0 0 0 0.25 0"/>
<feBlend mode="normal" in2="BackgroundImageFix" result="effect1_dropShadow"/>
<feBlend mode="normal" in="SourceGraphic" in2="effect1_dropShadow" result="shape"/>
</filter>
</defs>
</svg>
