<svg width="241" height="90" viewBox="0 0 241 90" fill="none" xmlns="http://www.w3.org/2000/svg">
<g filter="url(#filter0_d)">
<rect x="26" y="50" width="70" height="32" rx="2" fill="#6078F4"/>
<path d="M45.4 57.2V74H41.512V67.112H33.88V74H29.992V57.2H33.88V63.824H41.512V57.2H45.4ZM61.7588 67.592C61.7588 67.64 61.7348 67.976 61.6868 68.6H51.9188C52.0948 69.4 52.5108 70.032 53.1668 70.496C53.8228 70.96 54.6388 71.192 55.6148 71.192C56.2868 71.192 56.8788 71.096 57.3908 70.904C57.9188 70.696 58.4068 70.376 58.8548 69.944L60.8468 72.104C59.6308 73.496 57.8548 74.192 55.5188 74.192C54.0628 74.192 52.7748 73.912 51.6548 73.352C50.5348 72.776 49.6708 71.984 49.0628 70.976C48.4548 69.968 48.1508 68.824 48.1508 67.544C48.1508 66.28 48.4468 65.144 49.0388 64.136C49.6468 63.112 50.4708 62.32 51.5108 61.76C52.5668 61.184 53.7428 60.896 55.0388 60.896C56.3028 60.896 57.4468 61.168 58.4708 61.712C59.4948 62.256 60.2948 63.04 60.8708 64.064C61.4628 65.072 61.7588 66.248 61.7588 67.592ZM55.0628 63.728C54.2148 63.728 53.5028 63.968 52.9268 64.448C52.3508 64.928 51.9988 65.584 51.8708 66.416H58.2308C58.1028 65.6 57.7508 64.952 57.1748 64.472C56.5988 63.976 55.8948 63.728 55.0628 63.728ZM64.2514 56.192H67.9954V74H64.2514V56.192ZM71.4702 56.192H75.2142V74H71.4702V56.192ZM84.8329 74.192C83.4729 74.192 82.2489 73.912 81.1609 73.352C80.0889 72.776 79.2489 71.984 78.6409 70.976C78.0329 69.968 77.7289 68.824 77.7289 67.544C77.7289 66.264 78.0329 65.12 78.6409 64.112C79.2489 63.104 80.0889 62.32 81.1609 61.76C82.2489 61.184 83.4729 60.896 84.8329 60.896C86.1929 60.896 87.4089 61.184 88.4809 61.76C89.5529 62.32 90.3929 63.104 91.0009 64.112C91.6089 65.12 91.9129 66.264 91.9129 67.544C91.9129 68.824 91.6089 69.968 91.0009 70.976C90.3929 71.984 89.5529 72.776 88.4809 73.352C87.4089 73.912 86.1929 74.192 84.8329 74.192ZM84.8329 71.12C85.7929 71.12 86.5769 70.8 87.1849 70.16C87.8089 69.504 88.1209 68.632 88.1209 67.544C88.1209 66.456 87.8089 65.592 87.1849 64.952C86.5769 64.296 85.7929 63.968 84.8329 63.968C83.8729 63.968 83.0809 64.296 82.4569 64.952C81.8329 65.592 81.5209 66.456 81.5209 67.544C81.5209 68.632 81.8329 69.504 82.4569 70.16C83.0809 70.8 83.8729 71.12 84.8329 71.12Z" fill="white"/>
<path d="M112.865 56.192V74H111.233V71.504C110.721 72.352 110.041 73 109.193 73.448C108.361 73.896 107.417 74.12 106.361 74.12C105.177 74.12 104.105 73.848 103.145 73.304C102.185 72.76 101.433 72 100.889 71.024C100.345 70.048 100.073 68.936 100.073 67.688C100.073 66.44 100.345 65.328 100.889 64.352C101.433 63.376 102.185 62.624 103.145 62.096C104.105 61.552 105.177 61.28 106.361 61.28C107.385 61.28 108.305 61.496 109.121 61.928C109.953 62.344 110.633 62.96 111.161 63.776V56.192H112.865ZM106.505 72.608C107.385 72.608 108.177 72.408 108.881 72.008C109.601 71.592 110.161 71.008 110.561 70.256C110.977 69.504 111.185 68.648 111.185 67.688C111.185 66.728 110.977 65.872 110.561 65.12C110.161 64.368 109.601 63.792 108.881 63.392C108.177 62.976 107.385 62.768 106.505 62.768C105.609 62.768 104.801 62.976 104.081 63.392C103.377 63.792 102.817 64.368 102.401 65.12C102.001 65.872 101.801 66.728 101.801 67.688C101.801 68.648 102.001 69.504 102.401 70.256C102.817 71.008 103.377 71.592 104.081 72.008C104.801 72.408 105.609 72.608 106.505 72.608ZM128.602 68.216H118.042C118.138 69.528 118.642 70.592 119.554 71.408C120.466 72.208 121.618 72.608 123.01 72.608C123.794 72.608 124.514 72.472 125.17 72.2C125.826 71.912 126.394 71.496 126.874 70.952L127.834 72.056C127.274 72.728 126.57 73.24 125.722 73.592C124.89 73.944 123.97 74.12 122.962 74.12C121.666 74.12 120.514 73.848 119.506 73.304C118.514 72.744 117.738 71.976 117.178 71C116.618 70.024 116.338 68.92 116.338 67.688C116.338 66.456 116.602 65.352 117.13 64.376C117.674 63.4 118.41 62.64 119.338 62.096C120.282 61.552 121.338 61.28 122.506 61.28C123.674 61.28 124.722 61.552 125.65 62.096C126.578 62.64 127.306 63.4 127.834 64.376C128.362 65.336 128.626 66.44 128.626 67.688L128.602 68.216ZM122.506 62.744C121.29 62.744 120.266 63.136 119.434 63.92C118.618 64.688 118.154 65.696 118.042 66.944H126.994C126.882 65.696 126.41 64.688 125.578 63.92C124.762 63.136 123.738 62.744 122.506 62.744ZM136.159 61.28C137.807 61.28 139.071 61.696 139.951 62.528C140.831 63.344 141.271 64.56 141.271 66.176V74H139.639V72.032C139.255 72.688 138.687 73.2 137.935 73.568C137.199 73.936 136.319 74.12 135.295 74.12C133.887 74.12 132.767 73.784 131.935 73.112C131.103 72.44 130.687 71.552 130.687 70.448C130.687 69.376 131.071 68.512 131.839 67.856C132.623 67.2 133.863 66.872 135.559 66.872H139.567V66.104C139.567 65.016 139.263 64.192 138.655 63.632C138.047 63.056 137.159 62.768 135.991 62.768C135.191 62.768 134.423 62.904 133.687 63.176C132.951 63.432 132.319 63.792 131.791 64.256L131.023 62.984C131.663 62.44 132.431 62.024 133.327 61.736C134.223 61.432 135.167 61.28 136.159 61.28ZM135.559 72.776C136.519 72.776 137.343 72.56 138.031 72.128C138.719 71.68 139.231 71.04 139.567 70.208V68.144H135.607C133.447 68.144 132.367 68.896 132.367 70.4C132.367 71.136 132.647 71.72 133.207 72.152C133.767 72.568 134.551 72.776 135.559 72.776ZM147.531 63.848C147.931 63 148.523 62.36 149.307 61.928C150.107 61.496 151.091 61.28 152.259 61.28V62.936L151.851 62.912C150.523 62.912 149.483 63.32 148.731 64.136C147.979 64.952 147.603 66.096 147.603 67.568V74H145.899V61.376H147.531V63.848ZM165.99 57.512C165.254 57.512 164.694 57.712 164.31 58.112C163.942 58.512 163.758 59.104 163.758 59.888V61.376H167.646V62.816H163.806V74H162.102V62.816H159.846V61.376H162.102V59.816C162.102 58.664 162.43 57.752 163.086 57.08C163.758 56.408 164.702 56.072 165.918 56.072C166.398 56.072 166.862 56.144 167.31 56.288C167.758 56.416 168.134 56.608 168.438 56.864L167.862 58.136C167.366 57.72 166.742 57.512 165.99 57.512ZM173.5 63.848C173.9 63 174.492 62.36 175.276 61.928C176.076 61.496 177.06 61.28 178.228 61.28V62.936L177.82 62.912C176.492 62.912 175.452 63.32 174.7 64.136C173.948 64.952 173.572 66.096 173.572 67.568V74H171.868V61.376H173.5V63.848ZM181.314 61.376H183.018V74H181.314V61.376ZM182.178 58.616C181.826 58.616 181.53 58.496 181.29 58.256C181.05 58.016 180.93 57.728 180.93 57.392C180.93 57.072 181.05 56.792 181.29 56.552C181.53 56.312 181.826 56.192 182.178 56.192C182.53 56.192 182.826 56.312 183.066 56.552C183.306 56.776 183.426 57.048 183.426 57.368C183.426 57.72 183.306 58.016 183.066 58.256C182.826 58.496 182.53 58.616 182.178 58.616ZM198.751 68.216H188.191C188.287 69.528 188.791 70.592 189.703 71.408C190.615 72.208 191.767 72.608 193.159 72.608C193.943 72.608 194.663 72.472 195.319 72.2C195.975 71.912 196.543 71.496 197.023 70.952L197.983 72.056C197.423 72.728 196.719 73.24 195.871 73.592C195.039 73.944 194.119 74.12 193.111 74.12C191.815 74.12 190.663 73.848 189.655 73.304C188.663 72.744 187.887 71.976 187.327 71C186.767 70.024 186.487 68.92 186.487 67.688C186.487 66.456 186.751 65.352 187.279 64.376C187.823 63.4 188.559 62.64 189.487 62.096C190.431 61.552 191.487 61.28 192.655 61.28C193.823 61.28 194.871 61.552 195.799 62.096C196.727 62.64 197.455 63.4 197.983 64.376C198.511 65.336 198.775 66.44 198.775 67.688L198.751 68.216ZM192.655 62.744C191.439 62.744 190.415 63.136 189.583 63.92C188.767 64.688 188.303 65.696 188.191 66.944H197.143C197.031 65.696 196.559 64.688 195.727 63.92C194.911 63.136 193.887 62.744 192.655 62.744ZM208.675 61.28C210.259 61.28 211.515 61.744 212.443 62.672C213.387 63.584 213.859 64.92 213.859 66.68V74H212.155V66.848C212.155 65.536 211.827 64.536 211.171 63.848C210.515 63.16 209.579 62.816 208.363 62.816C207.003 62.816 205.923 63.224 205.123 64.04C204.339 64.84 203.947 65.952 203.947 67.376V74H202.243V61.376H203.875V63.704C204.339 62.936 204.979 62.344 205.795 61.928C206.627 61.496 207.587 61.28 208.675 61.28ZM230.052 56.192V74H228.42V71.504C227.908 72.352 227.228 73 226.38 73.448C225.548 73.896 224.604 74.12 223.548 74.12C222.364 74.12 221.292 73.848 220.332 73.304C219.372 72.76 218.62 72 218.076 71.024C217.532 70.048 217.26 68.936 217.26 67.688C217.26 66.44 217.532 65.328 218.076 64.352C218.62 63.376 219.372 62.624 220.332 62.096C221.292 61.552 222.364 61.28 223.548 61.28C224.572 61.28 225.492 61.496 226.308 61.928C227.14 62.344 227.82 62.96 228.348 63.776V56.192H230.052ZM223.692 72.608C224.572 72.608 225.364 72.408 226.068 72.008C226.788 71.592 227.348 71.008 227.748 70.256C228.164 69.504 228.372 68.648 228.372 67.688C228.372 66.728 228.164 65.872 227.748 65.12C227.348 64.368 226.788 63.792 226.068 63.392C225.364 62.976 224.572 62.768 223.692 62.768C222.796 62.768 221.988 62.976 221.268 63.392C220.564 63.792 220.004 64.368 219.588 65.12C219.188 65.872 218.988 66.728 218.988 67.688C218.988 68.648 219.188 69.504 219.588 70.256C220.004 71.008 220.564 71.592 221.268 72.008C221.988 72.408 222.796 72.608 223.692 72.608ZM234.534 57.2H236.55L236.19 68.96H234.87L234.534 57.2ZM235.542 74.12C235.19 74.12 234.886 74 234.63 73.76C234.39 73.504 234.27 73.208 234.27 72.872C234.27 72.52 234.39 72.232 234.63 72.008C234.87 71.768 235.174 71.648 235.542 71.648C235.894 71.648 236.19 71.768 236.43 72.008C236.67 72.232 236.79 72.52 236.79 72.872C236.79 73.208 236.67 73.504 236.43 73.76C236.19 74 235.894 74.12 235.542 74.12Z" fill="#333333"/>
</g>
<g filter="url(#filter1_d)">
<path d="M37.0002 41.0519C47.5215 34.9774 51.1264 21.5238 45.0519 11.0025C38.9774 0.481167 25.5239 -3.12368 15.0025 2.95081C4.48118 9.02529 0.876308 22.4788 6.95082 33.0002C13.0253 43.5215 26.4788 47.1262 37.0002 41.0519Z" fill="#195AA9"/>
<path fill-rule="evenodd" clip-rule="evenodd" d="M8.46124 35.5754C7.94085 34.8846 7.45603 34.1561 7.01076 33.3905C6.46849 32.4583 6.00332 31.5028 5.61328 30.5314C6.21186 30.1857 7.08552 29.6839 8.30631 28.9843C8.62789 28.8001 9.27101 28.4294 9.73546 28.1605C10.2 27.8917 11.0623 27.3942 11.6518 27.055L12.2839 26.6911C12.2592 26.6328 12.2352 26.5753 12.2118 26.5183C11.6165 24.9382 11.3027 22.958 11.3639 21.1665C11.4341 19.1101 11.8182 17.5092 12.6716 15.7161C13.8725 13.1931 15.5534 11.2829 17.9661 9.69959C19.9344 8.40783 22.09 7.54553 24.0096 7.28176C24.8687 7.16379 26.6409 7.16312 27.5305 7.2805C29.8822 7.59085 32.1741 8.67707 34.2858 10.4823C34.6542 10.7972 35.1418 11.2568 35.3696 11.5038C36.4088 12.631 37.6085 14.2977 38.0744 15.2619C38.5035 16.1499 38.5041 17.0485 38.0759 17.9222C37.747 18.5934 37.2876 19.007 36.1248 19.6778C35.5889 19.9871 34.5657 20.5767 33.8512 20.9882C30.5082 22.913 29.9267 23.2482 28.5894 24.0206C26.3008 25.3426 22.9121 27.2951 22.418 27.5763C22.168 27.7186 21.6902 27.9949 21.3565 28.1904L20.7496 28.5457L20.9992 28.8026C21.5978 29.4188 22.6892 30.0966 23.6877 30.4724C24.857 30.9125 25.1709 30.9643 26.673 30.9643C27.9155 30.9643 28.0504 30.9523 28.6868 30.7864C29.5289 30.5669 30.1673 30.3239 31.0006 29.9057C32.8969 28.954 34.2865 27.5034 35.4044 25.308C35.7118 24.7044 35.8492 24.5118 36.2257 24.157C37.1413 23.2944 38.1702 22.9866 39.272 23.246C41.1067 23.678 42.0674 25.231 41.5196 26.8792C40.6683 29.4409 37.9521 32.7237 35.1829 34.538C34.5141 34.9762 33.0772 35.715 32.1947 36.0745C29.1132 37.3298 25.9172 37.5763 22.8107 36.7982C21.5664 36.4866 20.1417 35.9043 19.0981 35.2809C17.6523 34.4171 16.0435 32.9942 15.1126 31.7561L15.1062 31.7475L15.0622 31.7728C12.7737 33.0949 9.38496 35.0473 8.89095 35.3285C8.78115 35.391 8.62741 35.4793 8.46124 35.5754ZM29.4335 14.7101C28.5958 14.1455 27.7307 13.7678 26.7055 13.5189C25.2278 13.1603 23.5495 13.4806 21.8938 14.4373C19.6927 15.7092 18.4272 17.2528 17.8668 19.3497C17.6344 20.2186 17.5732 21.818 17.7365 22.7556C17.8499 23.4072 17.9085 23.5334 18.0468 23.4237C18.1186 23.3665 19.1163 22.7891 21.8335 21.2321C22.1549 21.0479 22.7981 20.6771 23.2626 20.4082C23.727 20.1394 24.5893 19.642 25.1789 19.3028C25.7685 18.9636 26.7477 18.3992 27.3551 18.0485C27.9624 17.6978 28.9856 17.1079 29.6287 16.7379C30.2718 16.3677 30.8215 16.0418 30.8502 16.0136C30.9219 15.943 29.9887 15.0843 29.4335 14.7101Z" fill="white"/>
</g>
<g filter="url(#filter2_d)">
<path fill-rule="evenodd" clip-rule="evenodd" d="M68.7337 29.6775L38.0281 19.0281L48.6776 49.7337L54.8458 43.5654L61.7383 50.4579L69.4579 42.7383L62.5655 35.8458L68.7337 29.6775Z" fill="url(#paint0_linear)"/>
</g>
<defs>
<filter id="filter0_d" x="22" y="50" width="218.79" height="40" filterUnits="userSpaceOnUse" color-interpolation-filters="sRGB">
<feFlood flood-opacity="0" result="BackgroundImageFix"/>
<feColorMatrix in="SourceAlpha" type="matrix" values="0 0 0 0 0 0 0 0 0 0 0 0 0 0 0 0 0 0 127 0"/>
<feOffset dy="4"/>
<feGaussianBlur stdDeviation="2"/>
<feColorMatrix type="matrix" values="0 0 0 0 0 0 0 0 0 0 0 0 0 0 0 0 0 0 0.25 0"/>
<feBlend mode="normal" in2="BackgroundImageFix" result="effect1_dropShadow"/>
<feBlend mode="normal" in="SourceGraphic" in2="effect1_dropShadow" result="shape"/>
</filter>
<filter id="filter1_d" x="0" y="0" width="52.0027" height="52.0026" filterUnits="userSpaceOnUse" color-interpolation-filters="sRGB">
<feFlood flood-opacity="0" result="BackgroundImageFix"/>
<feColorMatrix in="SourceAlpha" type="matrix" values="0 0 0 0 0 0 0 0 0 0 0 0 0 0 0 0 0 0 127 0"/>
<feOffset dy="4"/>
<feGaussianBlur stdDeviation="2"/>
<feColorMatrix type="matrix" values="0 0 0 0 0 0 0 0 0 0 0 0 0 0 0 0 0 0 0.25 0"/>
<feBlend mode="normal" in2="BackgroundImageFix" result="effect1_dropShadow"/>
<feBlend mode="normal" in="SourceGraphic" in2="effect1_dropShadow" result="shape"/>
</filter>
<filter id="filter2_d" x="24" y="9" width="55.6262" height="55.6262" filterUnits="userSpaceOnUse" color-interpolation-filters="sRGB">
<feFlood flood-opacity="0" result="BackgroundImageFix"/>
<feColorMatrix in="SourceAlpha" type="matrix" values="0 0 0 0 0 0 0 0 0 0 0 0 0 0 0 0 0 0 127 0"/>
<feOffset dy="4"/>
<feGaussianBlur stdDeviation="2"/>
<feColorMatrix type="matrix" values="0 0 0 0 0 0 0 0 0 0 0 0 0 0 0 0 0 0 0.25 0"/>
<feBlend mode="normal" in2="BackgroundImageFix" result="effect1_dropShadow"/>
<feBlend mode="normal" in="SourceGraphic" in2="effect1_dropShadow" result="shape"/>
</filter>
<linearGradient id="paint0_linear" x1="39.821" y1="29.2657" x2="59.7978" y2="45.0026" gradientUnits="userSpaceOnUse">
<stop stop-color="#34DD96"/>
<stop offset="1" stop-color="#15C0A1"/>
</linearGradient>
</defs>
</svg>
