<svg width="177" height="42" viewBox="0 0 177 42" fill="none" xmlns="http://www.w3.org/2000/svg">
<g filter="url(#filter0_d)">
<rect x="1" width="175" height="40" rx="5" fill="#6078F4"/>
</g>
<path d="M14.4 8C13.739 8 13.2 8.53906 13.2 9.2V26.6C13.2 27.2609 13.739 27.8 14.4 27.8H23.4V29.6H21.6C20.6085 29.6 19.8 30.4086 19.8 31.4V32.6H34.2V31.4C34.2 30.4086 33.3914 29.6 32.4 29.6H30.6V27.8H39.6C40.2609 27.8 40.7999 27.2609 40.7999 26.6V9.2C40.7999 8.53906 40.2609 8 39.6 8H14.4ZM14.4 9.2H39.6V26.6H14.4V24.2H39.6V23H14.4V9.2ZM36.5999 24.8V26H37.7999V24.8H36.5999ZM24.6 27.8H29.4V29.6H24.6V27.8ZM21.6 30.8H32.4C32.7304 30.8 33 31.0695 33 31.4H21C21 31.0695 21.2695 30.8 21.6 30.8Z" fill="white"/>
<path d="M53.536 15.6C54.624 15.6 55.48 15.86 56.104 16.38C56.728 16.9 57.04 17.616 57.04 18.528C57.04 19.44 56.728 20.156 56.104 20.676C55.48 21.196 54.624 21.456 53.536 21.456H51.46V24H50.26V15.6H53.536ZM53.5 20.412C54.26 20.412 54.84 20.252 55.24 19.932C55.64 19.604 55.84 19.136 55.84 18.528C55.84 17.92 55.64 17.456 55.24 17.136C54.84 16.808 54.26 16.644 53.5 16.644H51.46V20.412H53.5ZM58.7522 15.096H59.9042V24H58.7522V15.096ZM64.4197 17.58C65.2997 17.58 65.9717 17.796 66.4357 18.228C66.9077 18.66 67.1437 19.304 67.1437 20.16V24H66.0517V23.16C65.8597 23.456 65.5837 23.684 65.2237 23.844C64.8717 23.996 64.4517 24.072 63.9637 24.072C63.2517 24.072 62.6797 23.9 62.2477 23.556C61.8237 23.212 61.6117 22.76 61.6117 22.2C61.6117 21.64 61.8157 21.192 62.2237 20.856C62.6317 20.512 63.2797 20.34 64.1677 20.34H65.9917V20.112C65.9917 19.616 65.8477 19.236 65.5597 18.972C65.2717 18.708 64.8477 18.576 64.2877 18.576C63.9117 18.576 63.5437 18.64 63.1837 18.768C62.8237 18.888 62.5197 19.052 62.2717 19.26L61.7917 18.396C62.1197 18.132 62.5117 17.932 62.9677 17.796C63.4237 17.652 63.9077 17.58 64.4197 17.58ZM64.1557 23.184C64.5957 23.184 64.9757 23.088 65.2957 22.896C65.6157 22.696 65.8477 22.416 65.9917 22.056V21.168H64.2157C63.2397 21.168 62.7517 21.496 62.7517 22.152C62.7517 22.472 62.8757 22.724 63.1237 22.908C63.3717 23.092 63.7157 23.184 64.1557 23.184ZM74.7864 17.64L71.7024 24.636C71.4304 25.284 71.1104 25.74 70.7424 26.004C70.3824 26.268 69.9464 26.4 69.4344 26.4C69.1224 26.4 68.8184 26.348 68.5224 26.244C68.2344 26.148 67.9944 26.004 67.8024 25.812L68.2944 24.948C68.6224 25.26 69.0024 25.416 69.4344 25.416C69.7144 25.416 69.9464 25.34 70.1304 25.188C70.3224 25.044 70.4944 24.792 70.6464 24.432L70.8504 23.988L68.0424 17.64H69.2424L71.4624 22.728L73.6584 17.64H74.7864ZM81.8082 24.072C81.1762 24.072 80.6082 23.932 80.1042 23.652C79.6002 23.372 79.2042 22.988 78.9162 22.5C78.6362 22.004 78.4962 21.444 78.4962 20.82C78.4962 20.196 78.6362 19.64 78.9162 19.152C79.2042 18.656 79.6002 18.272 80.1042 18C80.6082 17.72 81.1762 17.58 81.8082 17.58C82.4402 17.58 83.0042 17.72 83.5002 18C84.0042 18.272 84.3962 18.656 84.6762 19.152C84.9642 19.64 85.1082 20.196 85.1082 20.82C85.1082 21.444 84.9642 22.004 84.6762 22.5C84.3962 22.988 84.0042 23.372 83.5002 23.652C83.0042 23.932 82.4402 24.072 81.8082 24.072ZM81.8082 23.064C82.2162 23.064 82.5802 22.972 82.9002 22.788C83.2282 22.596 83.4842 22.332 83.6682 21.996C83.8522 21.652 83.9442 21.26 83.9442 20.82C83.9442 20.38 83.8522 19.992 83.6682 19.656C83.4842 19.312 83.2282 19.048 82.9002 18.864C82.5802 18.68 82.2162 18.588 81.8082 18.588C81.4002 18.588 81.0322 18.68 80.7042 18.864C80.3842 19.048 80.1282 19.312 79.9362 19.656C79.7522 19.992 79.6602 20.38 79.6602 20.82C79.6602 21.26 79.7522 21.652 79.9362 21.996C80.1282 22.332 80.3842 22.596 80.7042 22.788C81.0322 22.972 81.4002 23.064 81.8082 23.064ZM90.0974 17.58C90.9054 17.58 91.5454 17.816 92.0174 18.288C92.4974 18.752 92.7374 19.436 92.7374 20.34V24H91.5854V20.472C91.5854 19.856 91.4374 19.392 91.1414 19.08C90.8454 18.768 90.4214 18.612 89.8694 18.612C89.2454 18.612 88.7534 18.796 88.3934 19.164C88.0334 19.524 87.8534 20.044 87.8534 20.724V24H86.7014V17.64H87.8054V18.6C88.0374 18.272 88.3494 18.02 88.7414 17.844C89.1414 17.668 89.5934 17.58 90.0974 17.58ZM102.016 24.096C101.176 24.096 100.416 23.912 99.736 23.544C99.064 23.168 98.536 22.656 98.152 22.008C97.768 21.352 97.576 20.616 97.576 19.8C97.576 18.984 97.768 18.252 98.152 17.604C98.536 16.948 99.068 16.436 99.748 16.068C100.428 15.692 101.188 15.504 102.028 15.504C102.684 15.504 103.284 15.616 103.828 15.84C104.372 16.056 104.836 16.38 105.22 16.812L104.44 17.568C103.808 16.904 103.02 16.572 102.076 16.572C101.452 16.572 100.888 16.712 100.384 16.992C99.88 17.272 99.484 17.66 99.196 18.156C98.916 18.644 98.776 19.192 98.776 19.8C98.776 20.408 98.916 20.96 99.196 21.456C99.484 21.944 99.88 22.328 100.384 22.608C100.888 22.888 101.452 23.028 102.076 23.028C103.012 23.028 103.8 22.692 104.44 22.02L105.22 22.776C104.836 23.208 104.368 23.536 103.816 23.76C103.272 23.984 102.672 24.096 102.016 24.096ZM109.218 24.072C108.586 24.072 108.018 23.932 107.514 23.652C107.01 23.372 106.614 22.988 106.326 22.5C106.046 22.004 105.906 21.444 105.906 20.82C105.906 20.196 106.046 19.64 106.326 19.152C106.614 18.656 107.01 18.272 107.514 18C108.018 17.72 108.586 17.58 109.218 17.58C109.85 17.58 110.414 17.72 110.91 18C111.414 18.272 111.806 18.656 112.086 19.152C112.374 19.64 112.518 20.196 112.518 20.82C112.518 21.444 112.374 22.004 112.086 22.5C111.806 22.988 111.414 23.372 110.91 23.652C110.414 23.932 109.85 24.072 109.218 24.072ZM109.218 23.064C109.626 23.064 109.99 22.972 110.31 22.788C110.638 22.596 110.894 22.332 111.078 21.996C111.262 21.652 111.354 21.26 111.354 20.82C111.354 20.38 111.262 19.992 111.078 19.656C110.894 19.312 110.638 19.048 110.31 18.864C109.99 18.68 109.626 18.588 109.218 18.588C108.81 18.588 108.442 18.68 108.114 18.864C107.794 19.048 107.538 19.312 107.346 19.656C107.162 19.992 107.07 20.38 107.07 20.82C107.07 21.26 107.162 21.652 107.346 21.996C107.538 22.332 107.794 22.596 108.114 22.788C108.442 22.972 108.81 23.064 109.218 23.064ZM122.068 17.58C122.868 17.58 123.5 17.812 123.964 18.276C124.436 18.74 124.672 19.428 124.672 20.34V24H123.52V20.472C123.52 19.856 123.376 19.392 123.088 19.08C122.808 18.768 122.404 18.612 121.876 18.612C121.292 18.612 120.828 18.796 120.484 19.164C120.14 19.524 119.968 20.044 119.968 20.724V24H118.816V20.472C118.816 19.856 118.672 19.392 118.384 19.08C118.104 18.768 117.7 18.612 117.172 18.612C116.588 18.612 116.124 18.796 115.78 19.164C115.436 19.524 115.264 20.044 115.264 20.724V24H114.112V17.64H115.216V18.588C115.448 18.26 115.752 18.012 116.128 17.844C116.504 17.668 116.932 17.58 117.412 17.58C117.908 17.58 118.348 17.68 118.732 17.88C119.116 18.08 119.412 18.372 119.62 18.756C119.86 18.388 120.192 18.1 120.616 17.892C121.048 17.684 121.532 17.58 122.068 17.58ZM130.163 17.58C130.779 17.58 131.331 17.716 131.819 17.988C132.307 18.26 132.687 18.64 132.959 19.128C133.239 19.616 133.379 20.18 133.379 20.82C133.379 21.46 133.239 22.028 132.959 22.524C132.687 23.012 132.307 23.392 131.819 23.664C131.331 23.936 130.779 24.072 130.163 24.072C129.707 24.072 129.287 23.984 128.903 23.808C128.527 23.632 128.207 23.376 127.943 23.04V26.328H126.791V17.64H127.895V18.648C128.151 18.296 128.475 18.032 128.867 17.856C129.259 17.672 129.691 17.58 130.163 17.58ZM130.067 23.064C130.475 23.064 130.839 22.972 131.159 22.788C131.487 22.596 131.743 22.332 131.927 21.996C132.119 21.652 132.215 21.26 132.215 20.82C132.215 20.38 132.119 19.992 131.927 19.656C131.743 19.312 131.487 19.048 131.159 18.864C130.839 18.68 130.475 18.588 130.067 18.588C129.667 18.588 129.303 18.684 128.975 18.876C128.655 19.06 128.399 19.32 128.207 19.656C128.023 19.992 127.931 20.38 127.931 20.82C127.931 21.26 128.023 21.652 128.207 21.996C128.391 22.332 128.647 22.596 128.975 22.788C129.303 22.972 129.667 23.064 130.067 23.064ZM140.899 17.64V24H139.807V23.04C139.575 23.368 139.267 23.624 138.883 23.808C138.507 23.984 138.095 24.072 137.647 24.072C136.799 24.072 136.131 23.84 135.643 23.376C135.155 22.904 134.911 22.212 134.911 21.3V17.64H136.063V21.168C136.063 21.784 136.211 22.252 136.507 22.572C136.803 22.884 137.227 23.04 137.779 23.04C138.387 23.04 138.867 22.856 139.219 22.488C139.571 22.12 139.747 21.6 139.747 20.928V17.64H140.899ZM146.668 23.628C146.5 23.772 146.292 23.884 146.044 23.964C145.796 24.036 145.54 24.072 145.276 24.072C144.636 24.072 144.14 23.9 143.788 23.556C143.436 23.212 143.26 22.72 143.26 22.08V18.588H142.18V17.64H143.26V16.248H144.412V17.64H146.236V18.588H144.412V22.032C144.412 22.376 144.496 22.64 144.664 22.824C144.84 23.008 145.088 23.1 145.408 23.1C145.76 23.1 146.06 23 146.308 22.8L146.668 23.628ZM153.598 20.856C153.598 20.944 153.59 21.06 153.574 21.204H148.414C148.486 21.764 148.73 22.216 149.146 22.56C149.57 22.896 150.094 23.064 150.718 23.064C151.478 23.064 152.09 22.808 152.554 22.296L153.19 23.04C152.902 23.376 152.542 23.632 152.11 23.808C151.686 23.984 151.21 24.072 150.682 24.072C150.01 24.072 149.414 23.936 148.894 23.664C148.374 23.384 147.97 22.996 147.682 22.5C147.402 22.004 147.262 21.444 147.262 20.82C147.262 20.204 147.398 19.648 147.67 19.152C147.95 18.656 148.33 18.272 148.81 18C149.298 17.72 149.846 17.58 150.454 17.58C151.062 17.58 151.602 17.72 152.074 18C152.554 18.272 152.926 18.656 153.19 19.152C153.462 19.648 153.598 20.216 153.598 20.856ZM150.454 18.552C149.902 18.552 149.438 18.72 149.062 19.056C148.694 19.392 148.478 19.832 148.414 20.376H152.494C152.43 19.84 152.21 19.404 151.834 19.068C151.466 18.724 151.006 18.552 150.454 18.552ZM156.301 18.708C156.501 18.34 156.797 18.06 157.189 17.868C157.581 17.676 158.057 17.58 158.617 17.58V18.696C158.553 18.688 158.465 18.684 158.353 18.684C157.729 18.684 157.237 18.872 156.877 19.248C156.525 19.616 156.349 20.144 156.349 20.832V24H155.197V17.64H156.301V18.708Z" fill="white"/>
<defs>
<filter id="filter0_d" x="0" y="0" width="177" height="42" filterUnits="userSpaceOnUse" color-interpolation-filters="sRGB">
<feFlood flood-opacity="0" result="BackgroundImageFix"/>
<feColorMatrix in="SourceAlpha" type="matrix" values="0 0 0 0 0 0 0 0 0 0 0 0 0 0 0 0 0 0 127 0"/>
<feOffset dy="1"/>
<feGaussianBlur stdDeviation="0.5"/>
<feColorMatrix type="matrix" values="0 0 0 0 0 0 0 0 0 0 0 0 0 0 0 0 0 0 0.25 0"/>
<feBlend mode="normal" in2="BackgroundImageFix" result="effect1_dropShadow"/>
<feBlend mode="normal" in="SourceGraphic" in2="effect1_dropShadow" result="shape"/>
</filter>
</defs>
</svg>
