<svg width="177" height="146" viewBox="0 0 177 146" fill="none" xmlns="http://www.w3.org/2000/svg">
<g filter="url(#filter0_d)">
<rect x="1" y="104" width="175" height="40" rx="5" fill="#6078F4"/>
</g>
<g filter="url(#filter1_d)">
<rect x="1" width="175" height="40" rx="5" fill="#6078F4"/>
</g>
<path d="M14.4 8C13.739 8 13.2 8.53906 13.2 9.2V26.6C13.2 27.2609 13.739 27.8 14.4 27.8H23.4V29.6H21.6C20.6085 29.6 19.8 30.4086 19.8 31.4V32.6H34.2V31.4C34.2 30.4086 33.3914 29.6 32.4 29.6H30.6V27.8H39.6C40.2609 27.8 40.7999 27.2609 40.7999 26.6V9.2C40.7999 8.53906 40.2609 8 39.6 8H14.4ZM14.4 9.2H39.6V26.6H14.4V24.2H39.6V23H14.4V9.2ZM36.5999 24.8V26H37.7999V24.8H36.5999ZM24.6 27.8H29.4V29.6H24.6V27.8ZM21.6 30.8H32.4C32.7304 30.8 33 31.0695 33 31.4H21C21 31.0695 21.2695 30.8 21.6 30.8Z" fill="white"/>
<path d="M76.752 78.192C75.5893 78.192 74.5387 77.9413 73.6 77.44C72.672 76.9387 71.9413 76.2507 71.408 75.376C70.8853 74.4907 70.624 73.4987 70.624 72.4C70.624 71.3013 70.8853 70.3147 71.408 69.44C71.9413 68.5547 72.672 67.8613 73.6 67.36C74.5387 66.8587 75.5893 66.608 76.752 66.608C77.9147 66.608 78.96 66.8587 79.888 67.36C80.816 67.8613 81.5467 68.5547 82.08 69.44C82.6133 70.3147 82.88 71.3013 82.88 72.4C82.88 73.4987 82.6133 74.4907 82.08 75.376C81.5467 76.2507 80.816 76.9387 79.888 77.44C78.96 77.9413 77.9147 78.192 76.752 78.192ZM76.752 75.984C77.4133 75.984 78.0107 75.8347 78.544 75.536C79.0773 75.2267 79.4933 74.8 79.792 74.256C80.1013 73.712 80.256 73.0933 80.256 72.4C80.256 71.7067 80.1013 71.088 79.792 70.544C79.4933 70 79.0773 69.5787 78.544 69.28C78.0107 68.9707 77.4133 68.816 76.752 68.816C76.0907 68.816 75.4933 68.9707 74.96 69.28C74.4267 69.5787 74.0053 70 73.696 70.544C73.3973 71.088 73.248 71.7067 73.248 72.4C73.248 73.0933 73.3973 73.712 73.696 74.256C74.0053 74.8 74.4267 75.2267 74.96 75.536C75.4933 75.8347 76.0907 75.984 76.752 75.984ZM91.964 78L89.804 74.88H89.676H87.42V78H84.828V66.8H89.676C90.668 66.8 91.5267 66.9653 92.252 67.296C92.988 67.6267 93.5533 68.096 93.948 68.704C94.3427 69.312 94.54 70.032 94.54 70.864C94.54 71.696 94.3373 72.416 93.932 73.024C93.5373 73.6213 92.972 74.08 92.236 74.4L94.748 78H91.964ZM91.916 70.864C91.916 70.2347 91.7133 69.7547 91.308 69.424C90.9027 69.0827 90.3107 68.912 89.532 68.912H87.42V72.816H89.532C90.3107 72.816 90.9027 72.6453 91.308 72.304C91.7133 71.9627 91.916 71.4827 91.916 70.864Z" fill="#333333"/>
<path d="M53.536 15.6C54.624 15.6 55.48 15.86 56.104 16.38C56.728 16.9 57.04 17.616 57.04 18.528C57.04 19.44 56.728 20.156 56.104 20.676C55.48 21.196 54.624 21.456 53.536 21.456H51.46V24H50.26V15.6H53.536ZM53.5 20.412C54.26 20.412 54.84 20.252 55.24 19.932C55.64 19.604 55.84 19.136 55.84 18.528C55.84 17.92 55.64 17.456 55.24 17.136C54.84 16.808 54.26 16.644 53.5 16.644H51.46V20.412H53.5ZM58.7522 15.096H59.9042V24H58.7522V15.096ZM64.4197 17.58C65.2997 17.58 65.9717 17.796 66.4357 18.228C66.9077 18.66 67.1437 19.304 67.1437 20.16V24H66.0517V23.16C65.8597 23.456 65.5837 23.684 65.2237 23.844C64.8717 23.996 64.4517 24.072 63.9637 24.072C63.2517 24.072 62.6797 23.9 62.2477 23.556C61.8237 23.212 61.6117 22.76 61.6117 22.2C61.6117 21.64 61.8157 21.192 62.2237 20.856C62.6317 20.512 63.2797 20.34 64.1677 20.34H65.9917V20.112C65.9917 19.616 65.8477 19.236 65.5597 18.972C65.2717 18.708 64.8477 18.576 64.2877 18.576C63.9117 18.576 63.5437 18.64 63.1837 18.768C62.8237 18.888 62.5197 19.052 62.2717 19.26L61.7917 18.396C62.1197 18.132 62.5117 17.932 62.9677 17.796C63.4237 17.652 63.9077 17.58 64.4197 17.58ZM64.1557 23.184C64.5957 23.184 64.9757 23.088 65.2957 22.896C65.6157 22.696 65.8477 22.416 65.9917 22.056V21.168H64.2157C63.2397 21.168 62.7517 21.496 62.7517 22.152C62.7517 22.472 62.8757 22.724 63.1237 22.908C63.3717 23.092 63.7157 23.184 64.1557 23.184ZM74.7864 17.64L71.7024 24.636C71.4304 25.284 71.1104 25.74 70.7424 26.004C70.3824 26.268 69.9464 26.4 69.4344 26.4C69.1224 26.4 68.8184 26.348 68.5224 26.244C68.2344 26.148 67.9944 26.004 67.8024 25.812L68.2944 24.948C68.6224 25.26 69.0024 25.416 69.4344 25.416C69.7144 25.416 69.9464 25.34 70.1304 25.188C70.3224 25.044 70.4944 24.792 70.6464 24.432L70.8504 23.988L68.0424 17.64H69.2424L71.4624 22.728L73.6584 17.64H74.7864ZM81.8082 24.072C81.1762 24.072 80.6082 23.932 80.1042 23.652C79.6002 23.372 79.2042 22.988 78.9162 22.5C78.6362 22.004 78.4962 21.444 78.4962 20.82C78.4962 20.196 78.6362 19.64 78.9162 19.152C79.2042 18.656 79.6002 18.272 80.1042 18C80.6082 17.72 81.1762 17.58 81.8082 17.58C82.4402 17.58 83.0042 17.72 83.5002 18C84.0042 18.272 84.3962 18.656 84.6762 19.152C84.9642 19.64 85.1082 20.196 85.1082 20.82C85.1082 21.444 84.9642 22.004 84.6762 22.5C84.3962 22.988 84.0042 23.372 83.5002 23.652C83.0042 23.932 82.4402 24.072 81.8082 24.072ZM81.8082 23.064C82.2162 23.064 82.5802 22.972 82.9002 22.788C83.2282 22.596 83.4842 22.332 83.6682 21.996C83.8522 21.652 83.9442 21.26 83.9442 20.82C83.9442 20.38 83.8522 19.992 83.6682 19.656C83.4842 19.312 83.2282 19.048 82.9002 18.864C82.5802 18.68 82.2162 18.588 81.8082 18.588C81.4002 18.588 81.0322 18.68 80.7042 18.864C80.3842 19.048 80.1282 19.312 79.9362 19.656C79.7522 19.992 79.6602 20.38 79.6602 20.82C79.6602 21.26 79.7522 21.652 79.9362 21.996C80.1282 22.332 80.3842 22.596 80.7042 22.788C81.0322 22.972 81.4002 23.064 81.8082 23.064ZM90.0974 17.58C90.9054 17.58 91.5454 17.816 92.0174 18.288C92.4974 18.752 92.7374 19.436 92.7374 20.34V24H91.5854V20.472C91.5854 19.856 91.4374 19.392 91.1414 19.08C90.8454 18.768 90.4214 18.612 89.8694 18.612C89.2454 18.612 88.7534 18.796 88.3934 19.164C88.0334 19.524 87.8534 20.044 87.8534 20.724V24H86.7014V17.64H87.8054V18.6C88.0374 18.272 88.3494 18.02 88.7414 17.844C89.1414 17.668 89.5934 17.58 90.0974 17.58ZM102.016 24.096C101.176 24.096 100.416 23.912 99.736 23.544C99.064 23.168 98.536 22.656 98.152 22.008C97.768 21.352 97.576 20.616 97.576 19.8C97.576 18.984 97.768 18.252 98.152 17.604C98.536 16.948 99.068 16.436 99.748 16.068C100.428 15.692 101.188 15.504 102.028 15.504C102.684 15.504 103.284 15.616 103.828 15.84C104.372 16.056 104.836 16.38 105.22 16.812L104.44 17.568C103.808 16.904 103.02 16.572 102.076 16.572C101.452 16.572 100.888 16.712 100.384 16.992C99.88 17.272 99.484 17.66 99.196 18.156C98.916 18.644 98.776 19.192 98.776 19.8C98.776 20.408 98.916 20.96 99.196 21.456C99.484 21.944 99.88 22.328 100.384 22.608C100.888 22.888 101.452 23.028 102.076 23.028C103.012 23.028 103.8 22.692 104.44 22.02L105.22 22.776C104.836 23.208 104.368 23.536 103.816 23.76C103.272 23.984 102.672 24.096 102.016 24.096ZM109.218 24.072C108.586 24.072 108.018 23.932 107.514 23.652C107.01 23.372 106.614 22.988 106.326 22.5C106.046 22.004 105.906 21.444 105.906 20.82C105.906 20.196 106.046 19.64 106.326 19.152C106.614 18.656 107.01 18.272 107.514 18C108.018 17.72 108.586 17.58 109.218 17.58C109.85 17.58 110.414 17.72 110.91 18C111.414 18.272 111.806 18.656 112.086 19.152C112.374 19.64 112.518 20.196 112.518 20.82C112.518 21.444 112.374 22.004 112.086 22.5C111.806 22.988 111.414 23.372 110.91 23.652C110.414 23.932 109.85 24.072 109.218 24.072ZM109.218 23.064C109.626 23.064 109.99 22.972 110.31 22.788C110.638 22.596 110.894 22.332 111.078 21.996C111.262 21.652 111.354 21.26 111.354 20.82C111.354 20.38 111.262 19.992 111.078 19.656C110.894 19.312 110.638 19.048 110.31 18.864C109.99 18.68 109.626 18.588 109.218 18.588C108.81 18.588 108.442 18.68 108.114 18.864C107.794 19.048 107.538 19.312 107.346 19.656C107.162 19.992 107.07 20.38 107.07 20.82C107.07 21.26 107.162 21.652 107.346 21.996C107.538 22.332 107.794 22.596 108.114 22.788C108.442 22.972 108.81 23.064 109.218 23.064ZM122.068 17.58C122.868 17.58 123.5 17.812 123.964 18.276C124.436 18.74 124.672 19.428 124.672 20.34V24H123.52V20.472C123.52 19.856 123.376 19.392 123.088 19.08C122.808 18.768 122.404 18.612 121.876 18.612C121.292 18.612 120.828 18.796 120.484 19.164C120.14 19.524 119.968 20.044 119.968 20.724V24H118.816V20.472C118.816 19.856 118.672 19.392 118.384 19.08C118.104 18.768 117.7 18.612 117.172 18.612C116.588 18.612 116.124 18.796 115.78 19.164C115.436 19.524 115.264 20.044 115.264 20.724V24H114.112V17.64H115.216V18.588C115.448 18.26 115.752 18.012 116.128 17.844C116.504 17.668 116.932 17.58 117.412 17.58C117.908 17.58 118.348 17.68 118.732 17.88C119.116 18.08 119.412 18.372 119.62 18.756C119.86 18.388 120.192 18.1 120.616 17.892C121.048 17.684 121.532 17.58 122.068 17.58ZM130.163 17.58C130.779 17.58 131.331 17.716 131.819 17.988C132.307 18.26 132.687 18.64 132.959 19.128C133.239 19.616 133.379 20.18 133.379 20.82C133.379 21.46 133.239 22.028 132.959 22.524C132.687 23.012 132.307 23.392 131.819 23.664C131.331 23.936 130.779 24.072 130.163 24.072C129.707 24.072 129.287 23.984 128.903 23.808C128.527 23.632 128.207 23.376 127.943 23.04V26.328H126.791V17.64H127.895V18.648C128.151 18.296 128.475 18.032 128.867 17.856C129.259 17.672 129.691 17.58 130.163 17.58ZM130.067 23.064C130.475 23.064 130.839 22.972 131.159 22.788C131.487 22.596 131.743 22.332 131.927 21.996C132.119 21.652 132.215 21.26 132.215 20.82C132.215 20.38 132.119 19.992 131.927 19.656C131.743 19.312 131.487 19.048 131.159 18.864C130.839 18.68 130.475 18.588 130.067 18.588C129.667 18.588 129.303 18.684 128.975 18.876C128.655 19.06 128.399 19.32 128.207 19.656C128.023 19.992 127.931 20.38 127.931 20.82C127.931 21.26 128.023 21.652 128.207 21.996C128.391 22.332 128.647 22.596 128.975 22.788C129.303 22.972 129.667 23.064 130.067 23.064ZM140.899 17.64V24H139.807V23.04C139.575 23.368 139.267 23.624 138.883 23.808C138.507 23.984 138.095 24.072 137.647 24.072C136.799 24.072 136.131 23.84 135.643 23.376C135.155 22.904 134.911 22.212 134.911 21.3V17.64H136.063V21.168C136.063 21.784 136.211 22.252 136.507 22.572C136.803 22.884 137.227 23.04 137.779 23.04C138.387 23.04 138.867 22.856 139.219 22.488C139.571 22.12 139.747 21.6 139.747 20.928V17.64H140.899ZM146.668 23.628C146.5 23.772 146.292 23.884 146.044 23.964C145.796 24.036 145.54 24.072 145.276 24.072C144.636 24.072 144.14 23.9 143.788 23.556C143.436 23.212 143.26 22.72 143.26 22.08V18.588H142.18V17.64H143.26V16.248H144.412V17.64H146.236V18.588H144.412V22.032C144.412 22.376 144.496 22.64 144.664 22.824C144.84 23.008 145.088 23.1 145.408 23.1C145.76 23.1 146.06 23 146.308 22.8L146.668 23.628ZM153.598 20.856C153.598 20.944 153.59 21.06 153.574 21.204H148.414C148.486 21.764 148.73 22.216 149.146 22.56C149.57 22.896 150.094 23.064 150.718 23.064C151.478 23.064 152.09 22.808 152.554 22.296L153.19 23.04C152.902 23.376 152.542 23.632 152.11 23.808C151.686 23.984 151.21 24.072 150.682 24.072C150.01 24.072 149.414 23.936 148.894 23.664C148.374 23.384 147.97 22.996 147.682 22.5C147.402 22.004 147.262 21.444 147.262 20.82C147.262 20.204 147.398 19.648 147.67 19.152C147.95 18.656 148.33 18.272 148.81 18C149.298 17.72 149.846 17.58 150.454 17.58C151.062 17.58 151.602 17.72 152.074 18C152.554 18.272 152.926 18.656 153.19 19.152C153.462 19.648 153.598 20.216 153.598 20.856ZM150.454 18.552C149.902 18.552 149.438 18.72 149.062 19.056C148.694 19.392 148.478 19.832 148.414 20.376H152.494C152.43 19.84 152.21 19.404 151.834 19.068C151.466 18.724 151.006 18.552 150.454 18.552ZM156.301 18.708C156.501 18.34 156.797 18.06 157.189 17.868C157.581 17.676 158.057 17.58 158.617 17.58V18.696C158.553 18.688 158.465 18.684 158.353 18.684C157.729 18.684 157.237 18.872 156.877 19.248C156.525 19.616 156.349 20.144 156.349 20.832V24H155.197V17.64H156.301V18.708Z" fill="white"/>
<path d="M53.536 120.6C54.624 120.6 55.48 120.86 56.104 121.38C56.728 121.9 57.04 122.616 57.04 123.528C57.04 124.44 56.728 125.156 56.104 125.676C55.48 126.196 54.624 126.456 53.536 126.456H51.46V129H50.26V120.6H53.536ZM53.5 125.412C54.26 125.412 54.84 125.252 55.24 124.932C55.64 124.604 55.84 124.136 55.84 123.528C55.84 122.92 55.64 122.456 55.24 122.136C54.84 121.808 54.26 121.644 53.5 121.644H51.46V125.412H53.5ZM58.7522 120.096H59.9042V129H58.7522V120.096ZM64.4197 122.58C65.2997 122.58 65.9717 122.796 66.4357 123.228C66.9077 123.66 67.1437 124.304 67.1437 125.16V129H66.0517V128.16C65.8597 128.456 65.5837 128.684 65.2237 128.844C64.8717 128.996 64.4517 129.072 63.9637 129.072C63.2517 129.072 62.6797 128.9 62.2477 128.556C61.8237 128.212 61.6117 127.76 61.6117 127.2C61.6117 126.64 61.8157 126.192 62.2237 125.856C62.6317 125.512 63.2797 125.34 64.1677 125.34H65.9917V125.112C65.9917 124.616 65.8477 124.236 65.5597 123.972C65.2717 123.708 64.8477 123.576 64.2877 123.576C63.9117 123.576 63.5437 123.64 63.1837 123.768C62.8237 123.888 62.5197 124.052 62.2717 124.26L61.7917 123.396C62.1197 123.132 62.5117 122.932 62.9677 122.796C63.4237 122.652 63.9077 122.58 64.4197 122.58ZM64.1557 128.184C64.5957 128.184 64.9757 128.088 65.2957 127.896C65.6157 127.696 65.8477 127.416 65.9917 127.056V126.168H64.2157C63.2397 126.168 62.7517 126.496 62.7517 127.152C62.7517 127.472 62.8757 127.724 63.1237 127.908C63.3717 128.092 63.7157 128.184 64.1557 128.184ZM74.7864 122.64L71.7024 129.636C71.4304 130.284 71.1104 130.74 70.7424 131.004C70.3824 131.268 69.9464 131.4 69.4344 131.4C69.1224 131.4 68.8184 131.348 68.5224 131.244C68.2344 131.148 67.9944 131.004 67.8024 130.812L68.2944 129.948C68.6224 130.26 69.0024 130.416 69.4344 130.416C69.7144 130.416 69.9464 130.34 70.1304 130.188C70.3224 130.044 70.4944 129.792 70.6464 129.432L70.8504 128.988L68.0424 122.64H69.2424L71.4624 127.728L73.6584 122.64H74.7864ZM81.8082 129.072C81.1762 129.072 80.6082 128.932 80.1042 128.652C79.6002 128.372 79.2042 127.988 78.9162 127.5C78.6362 127.004 78.4962 126.444 78.4962 125.82C78.4962 125.196 78.6362 124.64 78.9162 124.152C79.2042 123.656 79.6002 123.272 80.1042 123C80.6082 122.72 81.1762 122.58 81.8082 122.58C82.4402 122.58 83.0042 122.72 83.5002 123C84.0042 123.272 84.3962 123.656 84.6762 124.152C84.9642 124.64 85.1082 125.196 85.1082 125.82C85.1082 126.444 84.9642 127.004 84.6762 127.5C84.3962 127.988 84.0042 128.372 83.5002 128.652C83.0042 128.932 82.4402 129.072 81.8082 129.072ZM81.8082 128.064C82.2162 128.064 82.5802 127.972 82.9002 127.788C83.2282 127.596 83.4842 127.332 83.6682 126.996C83.8522 126.652 83.9442 126.26 83.9442 125.82C83.9442 125.38 83.8522 124.992 83.6682 124.656C83.4842 124.312 83.2282 124.048 82.9002 123.864C82.5802 123.68 82.2162 123.588 81.8082 123.588C81.4002 123.588 81.0322 123.68 80.7042 123.864C80.3842 124.048 80.1282 124.312 79.9362 124.656C79.7522 124.992 79.6602 125.38 79.6602 125.82C79.6602 126.26 79.7522 126.652 79.9362 126.996C80.1282 127.332 80.3842 127.596 80.7042 127.788C81.0322 127.972 81.4002 128.064 81.8082 128.064ZM90.0974 122.58C90.9054 122.58 91.5454 122.816 92.0174 123.288C92.4974 123.752 92.7374 124.436 92.7374 125.34V129H91.5854V125.472C91.5854 124.856 91.4374 124.392 91.1414 124.08C90.8454 123.768 90.4214 123.612 89.8694 123.612C89.2454 123.612 88.7534 123.796 88.3934 124.164C88.0334 124.524 87.8534 125.044 87.8534 125.724V129H86.7014V122.64H87.8054V123.6C88.0374 123.272 88.3494 123.02 88.7414 122.844C89.1414 122.668 89.5934 122.58 90.0974 122.58ZM106.048 129L106.036 122.88L103 127.98H102.448L99.412 122.916V129H98.26V120.6H99.244L102.748 126.504L106.204 120.6H107.188L107.2 129H106.048ZM112.277 129.072C111.645 129.072 111.077 128.932 110.573 128.652C110.069 128.372 109.673 127.988 109.385 127.5C109.105 127.004 108.965 126.444 108.965 125.82C108.965 125.196 109.105 124.64 109.385 124.152C109.673 123.656 110.069 123.272 110.573 123C111.077 122.72 111.645 122.58 112.277 122.58C112.909 122.58 113.473 122.72 113.969 123C114.473 123.272 114.865 123.656 115.145 124.152C115.433 124.64 115.577 125.196 115.577 125.82C115.577 126.444 115.433 127.004 115.145 127.5C114.865 127.988 114.473 128.372 113.969 128.652C113.473 128.932 112.909 129.072 112.277 129.072ZM112.277 128.064C112.685 128.064 113.049 127.972 113.369 127.788C113.697 127.596 113.953 127.332 114.137 126.996C114.321 126.652 114.413 126.26 114.413 125.82C114.413 125.38 114.321 124.992 114.137 124.656C113.953 124.312 113.697 124.048 113.369 123.864C113.049 123.68 112.685 123.588 112.277 123.588C111.869 123.588 111.501 123.68 111.173 123.864C110.853 124.048 110.597 124.312 110.405 124.656C110.221 124.992 110.129 125.38 110.129 125.82C110.129 126.26 110.221 126.652 110.405 126.996C110.597 127.332 110.853 127.596 111.173 127.788C111.501 127.972 111.869 128.064 112.277 128.064ZM120.542 122.58C121.158 122.58 121.71 122.716 122.198 122.988C122.686 123.26 123.066 123.64 123.338 124.128C123.618 124.616 123.758 125.18 123.758 125.82C123.758 126.46 123.618 127.028 123.338 127.524C123.066 128.012 122.686 128.392 122.198 128.664C121.71 128.936 121.158 129.072 120.542 129.072C120.07 129.072 119.638 128.98 119.246 128.796C118.854 128.612 118.53 128.344 118.274 127.992V129H117.17V120.096H118.322V123.6C118.578 123.264 118.898 123.012 119.282 122.844C119.666 122.668 120.086 122.58 120.542 122.58ZM120.446 128.064C120.854 128.064 121.218 127.972 121.538 127.788C121.866 127.596 122.122 127.332 122.306 126.996C122.498 126.652 122.594 126.26 122.594 125.82C122.594 125.38 122.498 124.992 122.306 124.656C122.122 124.312 121.866 124.048 121.538 123.864C121.218 123.68 120.854 123.588 120.446 123.588C120.046 123.588 119.682 123.68 119.354 123.864C119.026 124.048 118.77 124.312 118.586 124.656C118.402 124.992 118.31 125.38 118.31 125.82C118.31 126.26 118.402 126.652 118.586 126.996C118.77 127.332 119.026 127.596 119.354 127.788C119.682 127.972 120.046 128.064 120.446 128.064ZM125.35 122.64H126.502V129H125.35V122.64ZM125.926 121.416C125.702 121.416 125.514 121.344 125.362 121.2C125.218 121.056 125.146 120.88 125.146 120.672C125.146 120.464 125.218 120.288 125.362 120.144C125.514 119.992 125.702 119.916 125.926 119.916C126.15 119.916 126.334 119.988 126.478 120.132C126.63 120.268 126.706 120.44 126.706 120.648C126.706 120.864 126.63 121.048 126.478 121.2C126.334 121.344 126.15 121.416 125.926 121.416ZM128.701 120.096H129.853V129H128.701V120.096ZM137.801 125.856C137.801 125.944 137.793 126.06 137.777 126.204H132.617C132.689 126.764 132.933 127.216 133.349 127.56C133.773 127.896 134.297 128.064 134.921 128.064C135.681 128.064 136.293 127.808 136.757 127.296L137.393 128.04C137.105 128.376 136.745 128.632 136.313 128.808C135.889 128.984 135.413 129.072 134.885 129.072C134.213 129.072 133.617 128.936 133.097 128.664C132.577 128.384 132.173 127.996 131.885 127.5C131.605 127.004 131.465 126.444 131.465 125.82C131.465 125.204 131.601 124.648 131.873 124.152C132.153 123.656 132.533 123.272 133.013 123C133.501 122.72 134.049 122.58 134.657 122.58C135.265 122.58 135.805 122.72 136.277 123C136.757 123.272 137.129 123.656 137.393 124.152C137.665 124.648 137.801 125.216 137.801 125.856ZM134.657 123.552C134.105 123.552 133.641 123.72 133.265 124.056C132.897 124.392 132.681 124.832 132.617 125.376H136.697C136.633 124.84 136.413 124.404 136.037 124.068C135.669 123.724 135.209 123.552 134.657 123.552Z" fill="white"/>
<rect x="14.5" y="108.5" width="19" height="31" rx="3.5" stroke="white"/>
<rect x="16.5" y="110.5" width="15" height="12" rx="3.5" stroke="white"/>
<rect x="16.5" y="124.5" width="3" height="3" rx="0.5" stroke="white"/>
<rect x="16.5" y="129.5" width="3" height="3" rx="0.5" stroke="white"/>
<rect x="16.5" y="134.5" width="3" height="3" rx="0.5" stroke="white"/>
<rect x="28.5" y="124.5" width="3" height="3" rx="0.5" stroke="white"/>
<rect x="28.5" y="129.5" width="3" height="3" rx="0.5" stroke="white"/>
<rect x="28.5" y="134.5" width="3" height="3" rx="0.5" stroke="white"/>
<rect x="22.5" y="124.5" width="3" height="3" rx="0.5" stroke="white"/>
<rect x="22.5" y="129.5" width="3" height="3" rx="0.5" stroke="white"/>
<rect x="22.5" y="134.5" width="3" height="3" rx="0.5" stroke="white"/>
<defs>
<filter id="filter0_d" x="0" y="104" width="177" height="42" filterUnits="userSpaceOnUse" color-interpolation-filters="sRGB">
<feFlood flood-opacity="0" result="BackgroundImageFix"/>
<feColorMatrix in="SourceAlpha" type="matrix" values="0 0 0 0 0 0 0 0 0 0 0 0 0 0 0 0 0 0 127 0"/>
<feOffset dy="1"/>
<feGaussianBlur stdDeviation="0.5"/>
<feColorMatrix type="matrix" values="0 0 0 0 0 0 0 0 0 0 0 0 0 0 0 0 0 0 0.25 0"/>
<feBlend mode="normal" in2="BackgroundImageFix" result="effect1_dropShadow"/>
<feBlend mode="normal" in="SourceGraphic" in2="effect1_dropShadow" result="shape"/>
</filter>
<filter id="filter1_d" x="0" y="0" width="177" height="42" filterUnits="userSpaceOnUse" color-interpolation-filters="sRGB">
<feFlood flood-opacity="0" result="BackgroundImageFix"/>
<feColorMatrix in="SourceAlpha" type="matrix" values="0 0 0 0 0 0 0 0 0 0 0 0 0 0 0 0 0 0 127 0"/>
<feOffset dy="1"/>
<feGaussianBlur stdDeviation="0.5"/>
<feColorMatrix type="matrix" values="0 0 0 0 0 0 0 0 0 0 0 0 0 0 0 0 0 0 0.25 0"/>
<feBlend mode="normal" in2="BackgroundImageFix" result="effect1_dropShadow"/>
<feBlend mode="normal" in="SourceGraphic" in2="effect1_dropShadow" result="shape"/>
</filter>
</defs>
</svg>
