<svg width="153" height="42" viewBox="0 0 153 42" fill="none" xmlns="http://www.w3.org/2000/svg">
<g filter="url(#filter0_d)">
<rect x="1" width="151" height="40" rx="5" fill="#6078F4"/>
<rect x="14.5" y="4.5" width="19" height="31" rx="3.5" stroke="white"/>
<rect x="16.5" y="6.5" width="15" height="22" rx="3.5" stroke="white"/>
<path d="M24 33.5C23.1716 33.5 22.5 32.8284 22.5 32C22.5 31.1716 23.1716 30.5 24 30.5C24.8361 30.5 25.5 31.1559 25.5 31.9767C25.5 32.8127 24.8209 33.5 24 33.5Z" stroke="white"/>
<path d="M53.536 16.1C54.624 16.1 55.48 16.36 56.104 16.88C56.728 17.4 57.04 18.116 57.04 19.028C57.04 19.94 56.728 20.656 56.104 21.176C55.48 21.696 54.624 21.956 53.536 21.956H51.46V24.5H50.26V16.1H53.536ZM53.5 20.912C54.26 20.912 54.84 20.752 55.24 20.432C55.64 20.104 55.84 19.636 55.84 19.028C55.84 18.42 55.64 17.956 55.24 17.636C54.84 17.308 54.26 17.144 53.5 17.144H51.46V20.912H53.5ZM58.7522 15.596H59.9042V24.5H58.7522V15.596ZM64.4197 18.08C65.2997 18.08 65.9717 18.296 66.4357 18.728C66.9077 19.16 67.1437 19.804 67.1437 20.66V24.5H66.0517V23.66C65.8597 23.956 65.5837 24.184 65.2237 24.344C64.8717 24.496 64.4517 24.572 63.9637 24.572C63.2517 24.572 62.6797 24.4 62.2477 24.056C61.8237 23.712 61.6117 23.26 61.6117 22.7C61.6117 22.14 61.8157 21.692 62.2237 21.356C62.6317 21.012 63.2797 20.84 64.1677 20.84H65.9917V20.612C65.9917 20.116 65.8477 19.736 65.5597 19.472C65.2717 19.208 64.8477 19.076 64.2877 19.076C63.9117 19.076 63.5437 19.14 63.1837 19.268C62.8237 19.388 62.5197 19.552 62.2717 19.76L61.7917 18.896C62.1197 18.632 62.5117 18.432 62.9677 18.296C63.4237 18.152 63.9077 18.08 64.4197 18.08ZM64.1557 23.684C64.5957 23.684 64.9757 23.588 65.2957 23.396C65.6157 23.196 65.8477 22.916 65.9917 22.556V21.668H64.2157C63.2397 21.668 62.7517 21.996 62.7517 22.652C62.7517 22.972 62.8757 23.224 63.1237 23.408C63.3717 23.592 63.7157 23.684 64.1557 23.684ZM74.7864 18.14L71.7024 25.136C71.4304 25.784 71.1104 26.24 70.7424 26.504C70.3824 26.768 69.9464 26.9 69.4344 26.9C69.1224 26.9 68.8184 26.848 68.5224 26.744C68.2344 26.648 67.9944 26.504 67.8024 26.312L68.2944 25.448C68.6224 25.76 69.0024 25.916 69.4344 25.916C69.7144 25.916 69.9464 25.84 70.1304 25.688C70.3224 25.544 70.4944 25.292 70.6464 24.932L70.8504 24.488L68.0424 18.14H69.2424L71.4624 23.228L73.6584 18.14H74.7864ZM81.8082 24.572C81.1762 24.572 80.6082 24.432 80.1042 24.152C79.6002 23.872 79.2042 23.488 78.9162 23C78.6362 22.504 78.4962 21.944 78.4962 21.32C78.4962 20.696 78.6362 20.14 78.9162 19.652C79.2042 19.156 79.6002 18.772 80.1042 18.5C80.6082 18.22 81.1762 18.08 81.8082 18.08C82.4402 18.08 83.0042 18.22 83.5002 18.5C84.0042 18.772 84.3962 19.156 84.6762 19.652C84.9642 20.14 85.1082 20.696 85.1082 21.32C85.1082 21.944 84.9642 22.504 84.6762 23C84.3962 23.488 84.0042 23.872 83.5002 24.152C83.0042 24.432 82.4402 24.572 81.8082 24.572ZM81.8082 23.564C82.2162 23.564 82.5802 23.472 82.9002 23.288C83.2282 23.096 83.4842 22.832 83.6682 22.496C83.8522 22.152 83.9442 21.76 83.9442 21.32C83.9442 20.88 83.8522 20.492 83.6682 20.156C83.4842 19.812 83.2282 19.548 82.9002 19.364C82.5802 19.18 82.2162 19.088 81.8082 19.088C81.4002 19.088 81.0322 19.18 80.7042 19.364C80.3842 19.548 80.1282 19.812 79.9362 20.156C79.7522 20.492 79.6602 20.88 79.6602 21.32C79.6602 21.76 79.7522 22.152 79.9362 22.496C80.1282 22.832 80.3842 23.096 80.7042 23.288C81.0322 23.472 81.4002 23.564 81.8082 23.564ZM90.0974 18.08C90.9054 18.08 91.5454 18.316 92.0174 18.788C92.4974 19.252 92.7374 19.936 92.7374 20.84V24.5H91.5854V20.972C91.5854 20.356 91.4374 19.892 91.1414 19.58C90.8454 19.268 90.4214 19.112 89.8694 19.112C89.2454 19.112 88.7534 19.296 88.3934 19.664C88.0334 20.024 87.8534 20.544 87.8534 21.224V24.5H86.7014V18.14H87.8054V19.1C88.0374 18.772 88.3494 18.52 88.7414 18.344C89.1414 18.168 89.5934 18.08 90.0974 18.08ZM106.048 24.5L106.036 18.38L103 23.48H102.448L99.412 18.416V24.5H98.26V16.1H99.244L102.748 22.004L106.204 16.1H107.188L107.2 24.5H106.048ZM112.277 24.572C111.645 24.572 111.077 24.432 110.573 24.152C110.069 23.872 109.673 23.488 109.385 23C109.105 22.504 108.965 21.944 108.965 21.32C108.965 20.696 109.105 20.14 109.385 19.652C109.673 19.156 110.069 18.772 110.573 18.5C111.077 18.22 111.645 18.08 112.277 18.08C112.909 18.08 113.473 18.22 113.969 18.5C114.473 18.772 114.865 19.156 115.145 19.652C115.433 20.14 115.577 20.696 115.577 21.32C115.577 21.944 115.433 22.504 115.145 23C114.865 23.488 114.473 23.872 113.969 24.152C113.473 24.432 112.909 24.572 112.277 24.572ZM112.277 23.564C112.685 23.564 113.049 23.472 113.369 23.288C113.697 23.096 113.953 22.832 114.137 22.496C114.321 22.152 114.413 21.76 114.413 21.32C114.413 20.88 114.321 20.492 114.137 20.156C113.953 19.812 113.697 19.548 113.369 19.364C113.049 19.18 112.685 19.088 112.277 19.088C111.869 19.088 111.501 19.18 111.173 19.364C110.853 19.548 110.597 19.812 110.405 20.156C110.221 20.492 110.129 20.88 110.129 21.32C110.129 21.76 110.221 22.152 110.405 22.496C110.597 22.832 110.853 23.096 111.173 23.288C111.501 23.472 111.869 23.564 112.277 23.564ZM120.542 18.08C121.158 18.08 121.71 18.216 122.198 18.488C122.686 18.76 123.066 19.14 123.338 19.628C123.618 20.116 123.758 20.68 123.758 21.32C123.758 21.96 123.618 22.528 123.338 23.024C123.066 23.512 122.686 23.892 122.198 24.164C121.71 24.436 121.158 24.572 120.542 24.572C120.07 24.572 119.638 24.48 119.246 24.296C118.854 24.112 118.53 23.844 118.274 23.492V24.5H117.17V15.596H118.322V19.1C118.578 18.764 118.898 18.512 119.282 18.344C119.666 18.168 120.086 18.08 120.542 18.08ZM120.446 23.564C120.854 23.564 121.218 23.472 121.538 23.288C121.866 23.096 122.122 22.832 122.306 22.496C122.498 22.152 122.594 21.76 122.594 21.32C122.594 20.88 122.498 20.492 122.306 20.156C122.122 19.812 121.866 19.548 121.538 19.364C121.218 19.18 120.854 19.088 120.446 19.088C120.046 19.088 119.682 19.18 119.354 19.364C119.026 19.548 118.77 19.812 118.586 20.156C118.402 20.492 118.31 20.88 118.31 21.32C118.31 21.76 118.402 22.152 118.586 22.496C118.77 22.832 119.026 23.096 119.354 23.288C119.682 23.472 120.046 23.564 120.446 23.564ZM125.35 18.14H126.502V24.5H125.35V18.14ZM125.926 16.916C125.702 16.916 125.514 16.844 125.362 16.7C125.218 16.556 125.146 16.38 125.146 16.172C125.146 15.964 125.218 15.788 125.362 15.644C125.514 15.492 125.702 15.416 125.926 15.416C126.15 15.416 126.334 15.488 126.478 15.632C126.63 15.768 126.706 15.94 126.706 16.148C126.706 16.364 126.63 16.548 126.478 16.7C126.334 16.844 126.15 16.916 125.926 16.916ZM128.701 15.596H129.853V24.5H128.701V15.596ZM137.801 21.356C137.801 21.444 137.793 21.56 137.777 21.704H132.617C132.689 22.264 132.933 22.716 133.349 23.06C133.773 23.396 134.297 23.564 134.921 23.564C135.681 23.564 136.293 23.308 136.757 22.796L137.393 23.54C137.105 23.876 136.745 24.132 136.313 24.308C135.889 24.484 135.413 24.572 134.885 24.572C134.213 24.572 133.617 24.436 133.097 24.164C132.577 23.884 132.173 23.496 131.885 23C131.605 22.504 131.465 21.944 131.465 21.32C131.465 20.704 131.601 20.148 131.873 19.652C132.153 19.156 132.533 18.772 133.013 18.5C133.501 18.22 134.049 18.08 134.657 18.08C135.265 18.08 135.805 18.22 136.277 18.5C136.757 18.772 137.129 19.156 137.393 19.652C137.665 20.148 137.801 20.716 137.801 21.356ZM134.657 19.052C134.105 19.052 133.641 19.22 133.265 19.556C132.897 19.892 132.681 20.332 132.617 20.876H136.697C136.633 20.34 136.413 19.904 136.037 19.568C135.669 19.224 135.209 19.052 134.657 19.052Z" fill="white"/>
</g>
<defs>
<filter id="filter0_d" x="0" y="0" width="153" height="42" filterUnits="userSpaceOnUse" color-interpolation-filters="sRGB">
<feFlood flood-opacity="0" result="BackgroundImageFix"/>
<feColorMatrix in="SourceAlpha" type="matrix" values="0 0 0 0 0 0 0 0 0 0 0 0 0 0 0 0 0 0 127 0"/>
<feOffset dy="1"/>
<feGaussianBlur stdDeviation="0.5"/>
<feColorMatrix type="matrix" values="0 0 0 0 0 0 0 0 0 0 0 0 0 0 0 0 0 0 0.25 0"/>
<feBlend mode="normal" in2="BackgroundImageFix" result="effect1_dropShadow"/>
<feBlend mode="normal" in="SourceGraphic" in2="effect1_dropShadow" result="shape"/>
</filter>
</defs>
</svg>
