<svg width="241" height="128" viewBox="0 0 241 128" fill="none" xmlns="http://www.w3.org/2000/svg">
<rect x="7" y="96" width="72" height="32" rx="2" fill="#6078F4"/>
<path d="M26.4 103.2V120H22.512V113.112H14.88V120H10.992V103.2H14.88V109.824H22.512V103.2H26.4ZM42.7588 113.592C42.7588 113.64 42.7348 113.976 42.6868 114.6H32.9188C33.0948 115.4 33.5108 116.032 34.1668 116.496C34.8228 116.96 35.6388 117.192 36.6148 117.192C37.2868 117.192 37.8788 117.096 38.3908 116.904C38.9188 116.696 39.4068 116.376 39.8548 115.944L41.8468 118.104C40.6308 119.496 38.8548 120.192 36.5188 120.192C35.0628 120.192 33.7748 119.912 32.6548 119.352C31.5348 118.776 30.6708 117.984 30.0628 116.976C29.4548 115.968 29.1508 114.824 29.1508 113.544C29.1508 112.28 29.4468 111.144 30.0388 110.136C30.6468 109.112 31.4708 108.32 32.5108 107.76C33.5668 107.184 34.7428 106.896 36.0388 106.896C37.3028 106.896 38.4468 107.168 39.4708 107.712C40.4948 108.256 41.2948 109.04 41.8708 110.064C42.4628 111.072 42.7588 112.248 42.7588 113.592ZM36.0628 109.728C35.2148 109.728 34.5028 109.968 33.9268 110.448C33.3508 110.928 32.9988 111.584 32.8708 112.416H39.2308C39.1028 111.6 38.7508 110.952 38.1748 110.472C37.5988 109.976 36.8948 109.728 36.0628 109.728ZM45.2514 102.192H48.9954V120H45.2514V102.192ZM52.4702 102.192H56.2142V120H52.4702V102.192ZM65.8329 120.192C64.4729 120.192 63.2489 119.912 62.1609 119.352C61.0889 118.776 60.2489 117.984 59.6409 116.976C59.0329 115.968 58.7289 114.824 58.7289 113.544C58.7289 112.264 59.0329 111.12 59.6409 110.112C60.2489 109.104 61.0889 108.32 62.1609 107.76C63.2489 107.184 64.4729 106.896 65.8329 106.896C67.1929 106.896 68.4089 107.184 69.4809 107.76C70.5529 108.32 71.3929 109.104 72.0009 110.112C72.6089 111.12 72.9129 112.264 72.9129 113.544C72.9129 114.824 72.6089 115.968 72.0009 116.976C71.3929 117.984 70.5529 118.776 69.4809 119.352C68.4089 119.912 67.1929 120.192 65.8329 120.192ZM65.8329 117.12C66.7929 117.12 67.5769 116.8 68.1849 116.16C68.8089 115.504 69.1209 114.632 69.1209 113.544C69.1209 112.456 68.8089 111.592 68.1849 110.952C67.5769 110.296 66.7929 109.968 65.8329 109.968C64.8729 109.968 64.0809 110.296 63.4569 110.952C62.8329 111.592 62.5209 112.456 62.5209 113.544C62.5209 114.632 62.8329 115.504 63.4569 116.16C64.0809 116.8 64.8729 117.12 65.8329 117.12Z" fill="white"/>
<path d="M94.3804 102.192V120H92.7484V117.504C92.2364 118.352 91.5564 119 90.7084 119.448C89.8764 119.896 88.9324 120.12 87.8764 120.12C86.6924 120.12 85.6204 119.848 84.6604 119.304C83.7004 118.76 82.9484 118 82.4044 117.024C81.8604 116.048 81.5884 114.936 81.5884 113.688C81.5884 112.44 81.8604 111.328 82.4044 110.352C82.9484 109.376 83.7004 108.624 84.6604 108.096C85.6204 107.552 86.6924 107.28 87.8764 107.28C88.9004 107.28 89.8204 107.496 90.6364 107.928C91.4684 108.344 92.1484 108.96 92.6764 109.776V102.192H94.3804ZM88.0204 118.608C88.9004 118.608 89.6924 118.408 90.3964 118.008C91.1164 117.592 91.6764 117.008 92.0764 116.256C92.4924 115.504 92.7004 114.648 92.7004 113.688C92.7004 112.728 92.4924 111.872 92.0764 111.12C91.6764 110.368 91.1164 109.792 90.3964 109.392C89.6924 108.976 88.9004 108.768 88.0204 108.768C87.1244 108.768 86.3164 108.976 85.5964 109.392C84.8924 109.792 84.3324 110.368 83.9164 111.12C83.5164 111.872 83.3164 112.728 83.3164 113.688C83.3164 114.648 83.5164 115.504 83.9164 116.256C84.3324 117.008 84.8924 117.592 85.5964 118.008C86.3164 118.408 87.1244 118.608 88.0204 118.608ZM110.118 114.216H99.558C99.654 115.528 100.158 116.592 101.07 117.408C101.982 118.208 103.134 118.608 104.526 118.608C105.31 118.608 106.03 118.472 106.686 118.2C107.342 117.912 107.91 117.496 108.39 116.952L109.35 118.056C108.79 118.728 108.086 119.24 107.238 119.592C106.406 119.944 105.486 120.12 104.478 120.12C103.182 120.12 102.03 119.848 101.022 119.304C100.03 118.744 99.254 117.976 98.694 117C98.134 116.024 97.854 114.92 97.854 113.688C97.854 112.456 98.118 111.352 98.646 110.376C99.19 109.4 99.926 108.64 100.854 108.096C101.798 107.552 102.854 107.28 104.022 107.28C105.19 107.28 106.238 107.552 107.166 108.096C108.094 108.64 108.822 109.4 109.35 110.376C109.878 111.336 110.142 112.44 110.142 113.688L110.118 114.216ZM104.022 108.744C102.806 108.744 101.782 109.136 100.95 109.92C100.134 110.688 99.67 111.696 99.558 112.944H108.51C108.398 111.696 107.926 110.688 107.094 109.92C106.278 109.136 105.254 108.744 104.022 108.744ZM117.675 107.28C119.323 107.28 120.587 107.696 121.467 108.528C122.347 109.344 122.787 110.56 122.787 112.176V120H121.155V118.032C120.771 118.688 120.203 119.2 119.451 119.568C118.715 119.936 117.835 120.12 116.811 120.12C115.403 120.12 114.283 119.784 113.451 119.112C112.619 118.44 112.203 117.552 112.203 116.448C112.203 115.376 112.587 114.512 113.355 113.856C114.139 113.2 115.379 112.872 117.075 112.872H121.083V112.104C121.083 111.016 120.779 110.192 120.171 109.632C119.563 109.056 118.675 108.768 117.507 108.768C116.707 108.768 115.939 108.904 115.203 109.176C114.467 109.432 113.835 109.792 113.307 110.256L112.539 108.984C113.179 108.44 113.947 108.024 114.843 107.736C115.739 107.432 116.683 107.28 117.675 107.28ZM117.075 118.776C118.035 118.776 118.859 118.56 119.547 118.128C120.235 117.68 120.747 117.04 121.083 116.208V114.144H117.123C114.963 114.144 113.883 114.896 113.883 116.4C113.883 117.136 114.163 117.72 114.723 118.152C115.283 118.568 116.067 118.776 117.075 118.776ZM129.047 109.848C129.447 109 130.039 108.36 130.823 107.928C131.623 107.496 132.607 107.28 133.775 107.28V108.936L133.367 108.912C132.039 108.912 130.999 109.32 130.247 110.136C129.495 110.952 129.119 112.096 129.119 113.568V120H127.415V107.376H129.047V109.848ZM147.505 103.512C146.769 103.512 146.209 103.712 145.825 104.112C145.457 104.512 145.273 105.104 145.273 105.888V107.376H149.161V108.816H145.321V120H143.617V108.816H141.361V107.376H143.617V105.816C143.617 104.664 143.945 103.752 144.601 103.08C145.273 102.408 146.217 102.072 147.433 102.072C147.913 102.072 148.377 102.144 148.825 102.288C149.273 102.416 149.649 102.608 149.953 102.864L149.377 104.136C148.881 103.72 148.257 103.512 147.505 103.512ZM155.016 109.848C155.416 109 156.008 108.36 156.792 107.928C157.592 107.496 158.576 107.28 159.744 107.28V108.936L159.336 108.912C158.008 108.912 156.968 109.32 156.216 110.136C155.464 110.952 155.088 112.096 155.088 113.568V120H153.384V107.376H155.016V109.848ZM162.829 107.376H164.533V120H162.829V107.376ZM163.693 104.616C163.341 104.616 163.045 104.496 162.805 104.256C162.565 104.016 162.445 103.728 162.445 103.392C162.445 103.072 162.565 102.792 162.805 102.552C163.045 102.312 163.341 102.192 163.693 102.192C164.045 102.192 164.341 102.312 164.581 102.552C164.821 102.776 164.941 103.048 164.941 103.368C164.941 103.72 164.821 104.016 164.581 104.256C164.341 104.496 164.045 104.616 163.693 104.616ZM180.266 114.216H169.706C169.802 115.528 170.306 116.592 171.218 117.408C172.13 118.208 173.282 118.608 174.674 118.608C175.458 118.608 176.178 118.472 176.834 118.2C177.49 117.912 178.058 117.496 178.538 116.952L179.498 118.056C178.938 118.728 178.234 119.24 177.386 119.592C176.554 119.944 175.634 120.12 174.626 120.12C173.33 120.12 172.178 119.848 171.17 119.304C170.178 118.744 169.402 117.976 168.842 117C168.282 116.024 168.002 114.92 168.002 113.688C168.002 112.456 168.266 111.352 168.794 110.376C169.338 109.4 170.074 108.64 171.002 108.096C171.946 107.552 173.002 107.28 174.17 107.28C175.338 107.28 176.386 107.552 177.314 108.096C178.242 108.64 178.97 109.4 179.498 110.376C180.026 111.336 180.29 112.44 180.29 113.688L180.266 114.216ZM174.17 108.744C172.954 108.744 171.93 109.136 171.098 109.92C170.282 110.688 169.818 111.696 169.706 112.944H178.658C178.546 111.696 178.074 110.688 177.242 109.92C176.426 109.136 175.402 108.744 174.17 108.744ZM190.191 107.28C191.775 107.28 193.031 107.744 193.959 108.672C194.903 109.584 195.375 110.92 195.375 112.68V120H193.671V112.848C193.671 111.536 193.343 110.536 192.687 109.848C192.031 109.16 191.095 108.816 189.879 108.816C188.519 108.816 187.439 109.224 186.639 110.04C185.855 110.84 185.463 111.952 185.463 113.376V120H183.759V107.376H185.391V109.704C185.855 108.936 186.495 108.344 187.311 107.928C188.143 107.496 189.103 107.28 190.191 107.28ZM211.568 102.192V120H209.936V117.504C209.424 118.352 208.744 119 207.896 119.448C207.064 119.896 206.12 120.12 205.064 120.12C203.88 120.12 202.808 119.848 201.848 119.304C200.888 118.76 200.136 118 199.592 117.024C199.048 116.048 198.776 114.936 198.776 113.688C198.776 112.44 199.048 111.328 199.592 110.352C200.136 109.376 200.888 108.624 201.848 108.096C202.808 107.552 203.88 107.28 205.064 107.28C206.088 107.28 207.008 107.496 207.824 107.928C208.656 108.344 209.336 108.96 209.864 109.776V102.192H211.568ZM205.208 118.608C206.088 118.608 206.88 118.408 207.584 118.008C208.304 117.592 208.864 117.008 209.264 116.256C209.68 115.504 209.888 114.648 209.888 113.688C209.888 112.728 209.68 111.872 209.264 111.12C208.864 110.368 208.304 109.792 207.584 109.392C206.88 108.976 206.088 108.768 205.208 108.768C204.312 108.768 203.504 108.976 202.784 109.392C202.08 109.792 201.52 110.368 201.104 111.12C200.704 111.872 200.504 112.728 200.504 113.688C200.504 114.648 200.704 115.504 201.104 116.256C201.52 117.008 202.08 117.592 202.784 118.008C203.504 118.408 204.312 118.608 205.208 118.608ZM216.05 103.2H218.066L217.706 114.96H216.386L216.05 103.2ZM217.058 120.12C216.706 120.12 216.402 120 216.146 119.76C215.906 119.504 215.786 119.208 215.786 118.872C215.786 118.52 215.906 118.232 216.146 118.008C216.386 117.768 216.69 117.648 217.058 117.648C217.41 117.648 217.706 117.768 217.946 118.008C218.186 118.232 218.306 118.52 218.306 118.872C218.306 119.208 218.186 119.504 217.946 119.76C217.706 120 217.41 120.12 217.058 120.12Z" fill="#333333"/>
<g filter="url(#filter0_d)">
<rect x="1" width="235" height="80" rx="13" fill="white"/>
<circle cx="126" cy="40" r="26" fill="white"/>
<circle cx="126" cy="40" r="25.5" stroke="#333333" stroke-opacity="0.5"/>
<circle cx="196" cy="40" r="25.5" fill="#6078F4" stroke="white"/>
<path d="M184 40.25H208.5" stroke="white"/>
<path d="M196.25 52.5V28" stroke="white"/>
<path d="M41.776 33.2V50H40.024V42.248H29.512V50H27.736V33.2H29.512V40.688H40.024V33.2H41.776ZM52.0594 50.12C50.8434 50.12 49.7474 49.848 48.7714 49.304C47.7954 48.744 47.0274 47.976 46.4674 47C45.9074 46.024 45.6274 44.92 45.6274 43.688C45.6274 42.456 45.9074 41.352 46.4674 40.376C47.0274 39.4 47.7954 38.64 48.7714 38.096C49.7474 37.552 50.8434 37.28 52.0594 37.28C53.2754 37.28 54.3714 37.552 55.3474 38.096C56.3234 38.64 57.0834 39.4 57.6274 40.376C58.1874 41.352 58.4674 42.456 58.4674 43.688C58.4674 44.92 58.1874 46.024 57.6274 47C57.0834 47.976 56.3234 48.744 55.3474 49.304C54.3714 49.848 53.2754 50.12 52.0594 50.12ZM52.0594 48.608C52.9554 48.608 53.7554 48.408 54.4594 48.008C55.1794 47.592 55.7394 47.008 56.1394 46.256C56.5394 45.504 56.7394 44.648 56.7394 43.688C56.7394 42.728 56.5394 41.872 56.1394 41.12C55.7394 40.368 55.1794 39.792 54.4594 39.392C53.7554 38.976 52.9554 38.768 52.0594 38.768C51.1634 38.768 50.3554 38.976 49.6354 39.392C48.9314 39.792 48.3714 40.368 47.9554 41.12C47.5554 41.872 47.3554 42.728 47.3554 43.688C47.3554 44.648 47.5554 45.504 47.9554 46.256C48.3714 47.008 48.9314 47.592 49.6354 48.008C50.3554 48.408 51.1634 48.608 52.0594 48.608ZM61.9463 32.192H63.6503V50H61.9463V32.192ZM72.8076 37.28C74.4556 37.28 75.7196 37.696 76.5996 38.528C77.4796 39.344 77.9196 40.56 77.9196 42.176V50H76.2876V48.032C75.9036 48.688 75.3356 49.2 74.5836 49.568C73.8476 49.936 72.9676 50.12 71.9436 50.12C70.5356 50.12 69.4156 49.784 68.5836 49.112C67.7516 48.44 67.3356 47.552 67.3356 46.448C67.3356 45.376 67.7196 44.512 68.4876 43.856C69.2716 43.2 70.5116 42.872 72.2076 42.872H76.2156V42.104C76.2156 41.016 75.9116 40.192 75.3036 39.632C74.6956 39.056 73.8076 38.768 72.6396 38.768C71.8396 38.768 71.0716 38.904 70.3356 39.176C69.5996 39.432 68.9676 39.792 68.4396 40.256L67.6716 38.984C68.3116 38.44 69.0796 38.024 69.9756 37.736C70.8716 37.432 71.8156 37.28 72.8076 37.28ZM72.2076 48.776C73.1676 48.776 73.9916 48.56 74.6796 48.128C75.3676 47.68 75.8796 47.04 76.2156 46.208V44.144H72.2556C70.0956 44.144 69.0156 44.896 69.0156 46.4C69.0156 47.136 69.2956 47.72 69.8556 48.152C70.4156 48.568 71.1996 48.776 72.2076 48.776Z" fill="#333333"/>
<path d="M133.074 35.4844V29H114V50.7227H129.194" stroke="#333333" stroke-opacity="0.5"/>
<path d="M118.203 43.5898L119.385 40.6719M119.385 40.6719L122.405 33.2148L124.992 40.6719H119.385Z" stroke="#333333" stroke-opacity="0.5" stroke-linejoin="round"/>
<path fill-rule="evenodd" clip-rule="evenodd" d="M132.574 46.832V51.6953H133.574V46.832H137.246H138.246V45.832V41.3477V40.3477H137.246H133.574V38.4023H132.574V40.3477H128.901H127.901V41.3477V45.832V46.832H128.901H132.574ZM133.574 45.832H137.246V41.3477H133.574V45.832ZM132.574 41.3477V45.832H128.901V41.3477H132.574Z" fill="#333333" fill-opacity="0.5"/>
</g>
<g filter="url(#filter1_d)">
<path fill-rule="evenodd" clip-rule="evenodd" d="M231.734 55.6775L201.028 45.0281L211.678 75.7337L217.846 69.5654L224.738 76.4579L232.458 68.7383L225.565 61.8458L231.734 55.6775Z" fill="url(#paint0_linear)"/>
</g>
<defs>
<filter id="filter0_d" x="0" y="0" width="237" height="82" filterUnits="userSpaceOnUse" color-interpolation-filters="sRGB">
<feFlood flood-opacity="0" result="BackgroundImageFix"/>
<feColorMatrix in="SourceAlpha" type="matrix" values="0 0 0 0 0 0 0 0 0 0 0 0 0 0 0 0 0 0 127 0"/>
<feOffset dy="1"/>
<feGaussianBlur stdDeviation="0.5"/>
<feColorMatrix type="matrix" values="0 0 0 0 0 0 0 0 0 0 0 0 0 0 0 0 0 0 0.25 0"/>
<feBlend mode="normal" in2="BackgroundImageFix" result="effect1_dropShadow"/>
<feBlend mode="normal" in="SourceGraphic" in2="effect1_dropShadow" result="shape"/>
</filter>
<filter id="filter1_d" x="191" y="33" width="49.6262" height="49.6262" filterUnits="userSpaceOnUse" color-interpolation-filters="sRGB">
<feFlood flood-opacity="0" result="BackgroundImageFix"/>
<feColorMatrix in="SourceAlpha" type="matrix" values="0 0 0 0 0 0 0 0 0 0 0 0 0 0 0 0 0 0 127 0"/>
<feOffset dx="1" dy="-1"/>
<feGaussianBlur stdDeviation="0.5"/>
<feColorMatrix type="matrix" values="0 0 0 0 0 0 0 0 0 0 0 0 0 0 0 0 0 0 0.25 0"/>
<feBlend mode="normal" in2="BackgroundImageFix" result="effect1_dropShadow"/>
<feBlend mode="normal" in="SourceGraphic" in2="effect1_dropShadow" result="shape"/>
</filter>
<linearGradient id="paint0_linear" x1="202.821" y1="55.2657" x2="222.798" y2="71.0026" gradientUnits="userSpaceOnUse">
<stop stop-color="#34DD96"/>
<stop offset="1" stop-color="#15C0A1"/>
</linearGradient>
</defs>
</svg>
