<svg width="302" height="82" viewBox="0 0 302 82" fill="none" xmlns="http://www.w3.org/2000/svg">
<g filter="url(#filter0_d)">
<rect x="1" width="300" height="80" rx="13" fill="white"/>
<circle cx="191" cy="40" r="25.5" stroke="black" stroke-opacity="0.3"/>
<circle cx="261" cy="40" r="25.5" stroke="black" stroke-opacity="0.3"/>
<path opacity="0.5" d="M249 40.25H273.5" stroke="black"/>
<path opacity="0.5" d="M261.25 52.5V28" stroke="black"/>
<path d="M36.554 32.6V48H34.948V34.008H25.202V48H23.596V32.6H36.554ZM47.3383 36.34C48.4236 36.34 49.4063 36.5893 50.2863 37.088C51.1663 37.572 51.8556 38.2613 52.3543 39.156C52.853 40.0507 53.1023 41.07 53.1023 42.214C53.1023 43.3727 52.853 44.3993 52.3543 45.294C51.8556 46.1887 51.1663 46.8853 50.2863 47.384C49.421 47.868 48.4383 48.11 47.3383 48.11C46.3996 48.11 45.549 47.9193 44.7863 47.538C44.0383 47.142 43.4223 46.57 42.9383 45.822V52.268H41.3763V36.428H42.8723V38.716C43.3416 37.9533 43.9576 37.3667 44.7203 36.956C45.4976 36.5453 46.3703 36.34 47.3383 36.34ZM47.2283 46.724C48.035 46.724 48.7683 46.5407 49.4283 46.174C50.0883 45.7927 50.6016 45.2573 50.9683 44.568C51.3496 43.8787 51.5403 43.094 51.5403 42.214C51.5403 41.334 51.3496 40.5567 50.9683 39.882C50.6016 39.1927 50.0883 38.6573 49.4283 38.276C48.7683 37.8947 48.035 37.704 47.2283 37.704C46.407 37.704 45.6663 37.8947 45.0063 38.276C44.361 38.6573 43.8476 39.1927 43.4663 39.882C43.0996 40.5567 42.9163 41.334 42.9163 42.214C42.9163 43.094 43.0996 43.8787 43.4663 44.568C43.8476 45.2573 44.361 45.7927 45.0063 46.174C45.6663 46.5407 46.407 46.724 47.2283 46.724ZM66.5783 42.698H56.8983C56.9863 43.9007 57.4483 44.876 58.2843 45.624C59.1203 46.3573 60.1763 46.724 61.4523 46.724C62.171 46.724 62.831 46.5993 63.4323 46.35C64.0337 46.086 64.5543 45.7047 64.9943 45.206L65.8743 46.218C65.361 46.834 64.7157 47.3033 63.9383 47.626C63.1757 47.9487 62.3323 48.11 61.4083 48.11C60.2203 48.11 59.1643 47.8607 58.2403 47.362C57.331 46.8487 56.6197 46.1447 56.1063 45.25C55.593 44.3553 55.3363 43.3433 55.3363 42.214C55.3363 41.0847 55.5783 40.0727 56.0623 39.178C56.561 38.2833 57.2357 37.5867 58.0863 37.088C58.9517 36.5893 59.9197 36.34 60.9903 36.34C62.061 36.34 63.0217 36.5893 63.8723 37.088C64.723 37.5867 65.3903 38.2833 65.8743 39.178C66.3583 40.058 66.6003 41.07 66.6003 42.214L66.5783 42.698ZM60.9903 37.682C59.8757 37.682 58.937 38.0413 58.1743 38.76C57.4263 39.464 57.001 40.388 56.8983 41.532H65.1043C65.0017 40.388 64.569 39.464 63.8063 38.76C63.0583 38.0413 62.1197 37.682 60.9903 37.682ZM74.2599 42.852H71.6199V48H70.0579V36.428H71.6199V41.51H74.2819L78.3519 36.428H80.0459L75.4919 42.038L80.3759 48H78.5279L74.2599 42.852ZM88.8031 36.34C89.8885 36.34 90.8711 36.5893 91.7511 37.088C92.6311 37.572 93.3205 38.2613 93.8191 39.156C94.3178 40.0507 94.5671 41.07 94.5671 42.214C94.5671 43.3727 94.3178 44.3993 93.8191 45.294C93.3205 46.1887 92.6311 46.8853 91.7511 47.384C90.8858 47.868 89.9031 48.11 88.8031 48.11C87.8645 48.11 87.0138 47.9193 86.2511 47.538C85.5031 47.142 84.8871 46.57 84.4031 45.822V52.268H82.8411V36.428H84.3371V38.716C84.8065 37.9533 85.4225 37.3667 86.1851 36.956C86.9625 36.5453 87.8351 36.34 88.8031 36.34ZM88.6931 46.724C89.4998 46.724 90.2331 46.5407 90.8931 46.174C91.5531 45.7927 92.0665 45.2573 92.4331 44.568C92.8145 43.8787 93.0051 43.094 93.0051 42.214C93.0051 41.334 92.8145 40.5567 92.4331 39.882C92.0665 39.1927 91.5531 38.6573 90.8931 38.276C90.2331 37.8947 89.4998 37.704 88.6931 37.704C87.8718 37.704 87.1311 37.8947 86.4711 38.276C85.8258 38.6573 85.3125 39.1927 84.9311 39.882C84.5645 40.5567 84.3811 41.334 84.3811 42.214C84.3811 43.094 84.5645 43.8787 84.9311 44.568C85.3125 45.2573 85.8258 45.7927 86.4711 46.174C87.1311 46.5407 87.8718 46.724 88.6931 46.724ZM101.841 36.34C103.351 36.34 104.51 36.7213 105.317 37.484C106.123 38.232 106.527 39.3467 106.527 40.828V48H105.031V46.196C104.679 46.7973 104.158 47.2667 103.469 47.604C102.794 47.9413 101.987 48.11 101.049 48.11C99.7581 48.11 98.7314 47.802 97.9687 47.186C97.2061 46.57 96.8247 45.756 96.8247 44.744C96.8247 43.7613 97.1767 42.9693 97.8807 42.368C98.5994 41.7667 99.7361 41.466 101.291 41.466H104.965V40.762C104.965 39.7647 104.686 39.0093 104.129 38.496C103.571 37.968 102.757 37.704 101.687 37.704C100.953 37.704 100.249 37.8287 99.5747 38.078C98.9001 38.3127 98.3207 38.6427 97.8367 39.068L97.1327 37.902C97.7194 37.4033 98.4234 37.022 99.2447 36.758C100.066 36.4793 100.931 36.34 101.841 36.34ZM101.291 46.878C102.171 46.878 102.926 46.68 103.557 46.284C104.187 45.8733 104.657 45.2867 104.965 44.524V42.632H101.335C99.3547 42.632 98.3647 43.3213 98.3647 44.7C98.3647 45.3747 98.6214 45.91 99.1347 46.306C99.6481 46.6873 100.367 46.878 101.291 46.878ZM115.525 48.11C114.381 48.11 113.354 47.8607 112.445 47.362C111.55 46.8633 110.846 46.1667 110.333 45.272C109.82 44.3627 109.563 43.3433 109.563 42.214C109.563 41.0847 109.82 40.0727 110.333 39.178C110.846 38.2833 111.55 37.5867 112.445 37.088C113.354 36.5893 114.381 36.34 115.525 36.34C116.522 36.34 117.41 36.538 118.187 36.934C118.979 37.3153 119.602 37.88 120.057 38.628L118.891 39.42C118.51 38.848 118.026 38.4227 117.439 38.144C116.852 37.8507 116.214 37.704 115.525 37.704C114.689 37.704 113.934 37.8947 113.259 38.276C112.599 38.6427 112.078 39.1707 111.697 39.86C111.33 40.5493 111.147 41.334 111.147 42.214C111.147 43.1087 111.33 43.9007 111.697 44.59C112.078 45.2647 112.599 45.7927 113.259 46.174C113.934 46.5407 114.689 46.724 115.525 46.724C116.214 46.724 116.852 46.5847 117.439 46.306C118.026 46.0273 118.51 45.602 118.891 45.03L120.057 45.822C119.602 46.57 118.979 47.142 118.187 47.538C117.395 47.9193 116.508 48.11 115.525 48.11ZM123.081 36.428H124.643V41.554H131.925V36.428H133.487V48H131.925V42.896H124.643V48H123.081V36.428ZM142.701 48.11C141.586 48.11 140.582 47.8607 139.687 47.362C138.792 46.8487 138.088 46.1447 137.575 45.25C137.062 44.3553 136.805 43.3433 136.805 42.214C136.805 41.0847 137.062 40.0727 137.575 39.178C138.088 38.2833 138.792 37.5867 139.687 37.088C140.582 36.5893 141.586 36.34 142.701 36.34C143.816 36.34 144.82 36.5893 145.715 37.088C146.61 37.5867 147.306 38.2833 147.805 39.178C148.318 40.0727 148.575 41.0847 148.575 42.214C148.575 43.3433 148.318 44.3553 147.805 45.25C147.306 46.1447 146.61 46.8487 145.715 47.362C144.82 47.8607 143.816 48.11 142.701 48.11ZM142.701 46.724C143.522 46.724 144.256 46.5407 144.901 46.174C145.561 45.7927 146.074 45.2573 146.441 44.568C146.808 43.8787 146.991 43.094 146.991 42.214C146.991 41.334 146.808 40.5493 146.441 39.86C146.074 39.1707 145.561 38.6427 144.901 38.276C144.256 37.8947 143.522 37.704 142.701 37.704C141.88 37.704 141.139 37.8947 140.479 38.276C139.834 38.6427 139.32 39.1707 138.939 39.86C138.572 40.5493 138.389 41.334 138.389 42.214C138.389 43.094 138.572 43.8787 138.939 44.568C139.32 45.2573 139.834 45.7927 140.479 46.174C141.139 46.5407 141.88 46.724 142.701 46.724Z" fill="black"/>
<path opacity="0.5" d="M198.074 35.4844V29H179V50.7227H194.194" stroke="black"/>
<path opacity="0.5" d="M183.203 43.5898L184.385 40.6719M184.385 40.6719L187.405 33.2148L189.992 40.6719H184.385Z" stroke="black" stroke-linejoin="round"/>
<path opacity="0.5" fill-rule="evenodd" clip-rule="evenodd" d="M197.574 46.832V51.6953H198.574V46.832H202.246H203.246V45.832V41.3477V40.3477H202.246H198.574V38.4023H197.574V40.3477H193.901H192.901V41.3477V45.832V46.832H193.901H197.574ZM198.574 45.832H202.246V41.3477H198.574V45.832ZM197.574 41.3477V45.832H193.901V41.3477H197.574Z" fill="black"/>
</g>
<defs>
<filter id="filter0_d" x="0" y="0" width="302" height="82" filterUnits="userSpaceOnUse" color-interpolation-filters="sRGB">
<feFlood flood-opacity="0" result="BackgroundImageFix"/>
<feColorMatrix in="SourceAlpha" type="matrix" values="0 0 0 0 0 0 0 0 0 0 0 0 0 0 0 0 0 0 127 0"/>
<feOffset dy="1"/>
<feGaussianBlur stdDeviation="0.5"/>
<feColorMatrix type="matrix" values="0 0 0 0 0 0 0 0 0 0 0 0 0 0 0 0 0 0 0.25 0"/>
<feBlend mode="normal" in2="BackgroundImageFix" result="effect1_dropShadow"/>
<feBlend mode="normal" in="SourceGraphic" in2="effect1_dropShadow" result="shape"/>
</filter>
</defs>
</svg>
